<svg width="401" height="400" xmlns="http://www.w3.org/2000/svg"><defs/><g fill="none" fill-rule="evenodd"><path d="M200 0c110.457 0 200 89.543 200 200s-89.543 200-200 200S0 310.457 0 200 89.543 0 200 0zm0 20c-99.411 0-180 80.589-180 180s80.589 180 180 180 180-80.589 180-180S299.411 20 200 20zm0 20c88.366 0 160 71.634 160 160s-71.634 160-160 160S40 288.366 40 200 111.634 40 200 40z" fill="#989AA4"/><path d="M218.386 243.523v-10.917c.766-5.746 2.633-10.533 5.602-14.364a57.118 57.118 0 0110.198-10.198c3.83-2.969 7.9-5.937 12.21-8.906 4.309-2.968 8.235-6.56 11.778-10.773 3.543-4.213 6.511-9.288 8.905-15.225 2.394-5.938 3.591-13.503 3.591-22.695 0-5.554-1.197-11.54-3.59-17.955-2.395-6.416-6.369-12.401-11.923-17.955-5.554-5.554-12.88-10.198-21.976-13.933C224.083 96.867 212.736 95 199.138 95c-10.533 0-20.061 1.772-28.584 5.315s-15.8 8.474-21.833 14.794c-6.033 6.32-10.725 13.79-14.077 22.408-3.351 8.618-5.123 18.099-5.314 28.44h42.23c0-5.17.574-10.006 1.723-14.507 1.15-4.5 2.92-8.427 5.315-11.778 2.394-3.352 5.458-6.033 9.193-8.044 3.734-2.011 8.187-3.017 13.358-3.017 7.66 0 13.646 2.107 17.955 6.32 4.31 4.214 6.464 10.726 6.464 19.535.191 5.171-.718 9.48-2.73 12.928-2.01 3.447-4.644 6.607-7.9 9.48-3.255 2.873-6.798 5.746-10.629 8.618-3.83 2.873-7.47 6.273-10.916 10.199-3.448 3.926-6.464 8.666-9.05 14.22-2.585 5.554-4.165 12.449-4.74 20.684v12.928h38.783zM220.684 305v-44.24h-45.103V305h45.103z" fill="#FEFFFE" fill-rule="nonzero"/></g></svg>