<svg width="400" height="400" xmlns="http://www.w3.org/2000/svg"><defs/><defs><linearGradient x1="64.609%" y1="0%" x2=".001%" y2="100%" id="a"><stop stop-color="#B0BFF2" offset="0%"/><stop stop-color="#E2E8F7" offset="35.191%"/><stop stop-color="#DED8E6" offset="57.035%"/><stop stop-color="#A47AA5" offset="100%"/></linearGradient><linearGradient x1="21.539%" y1="21.428%" x2="78.681%" y2="78.571%" id="b"><stop stop-opacity="0" offset="0%"/><stop stop-opacity=".15" offset="100%"/></linearGradient><linearGradient x1="25.048%" y1="74.972%" x2="74.952%" y2="25.084%" id="c"><stop stop-opacity=".15" offset="0%"/><stop stop-opacity="0" offset="100%"/></linearGradient></defs><g fill="none" fill-rule="evenodd"><path d="M290.001 30.001L400 140v120L260.002 399.87l-120 .132-.035-.035 60.035-60.032L340 200.002 230.002 90l60-59.999zM259.89 0L200 60 60.002 200.002 170 309.935l-60.033 60.032L.002 260.002V139.868L140 0h119.89z" fill="url(#a)"/><path fill="url(#b)" d="M320.002 59.868l-60 60.002 80 80 60-60.002z"/><path fill="url(#c)" d="M80 59.868l60 60.134-79.998 80L0 139.868z"/></g></svg>