<svg width="400" height="400" xmlns="http://www.w3.org/2000/svg"><defs/><defs><linearGradient x1="66.785%" y1="0%" x2="31.429%" y2="100%" id="a"><stop stop-color="#E67D79" offset="0%"/><stop stop-color="#FCD991" offset="44.279%"/><stop stop-color="#B94542" offset="100%"/></linearGradient><linearGradient x1="21.539%" y1="21.428%" x2="78.681%" y2="78.571%" id="b"><stop stop-opacity="0" offset="0%"/><stop stop-opacity=".15" offset="100%"/></linearGradient><linearGradient x1="25.048%" y1="74.972%" x2="74.952%" y2="25.084%" id="c"><stop stop-opacity=".15" offset="0%"/><stop stop-opacity="0" offset="100%"/></linearGradient><linearGradient x1="-8.85%" y1="-8.85%" x2="108.85%" y2="108.85%" id="d"><stop stop-color="#E67D79" offset="0%"/><stop stop-color="#FCD991" offset="44.279%"/><stop stop-color="#B94542" offset="100%"/></linearGradient></defs><g fill="none" fill-rule="evenodd"><path d="M290.001 30.001L400 140v120L260.002 399.87l-120 .132-.035-.035 60.035-60.032L340 200.002 230.002 90l60-59.999zM259.89 0L200 60 60.002 200.002l110 109.933-60.035 60.032L.002 260.002V139.868L140 0h119.89z" fill="url(#a)"/><path fill="url(#b)" d="M320.002 59.868l-60 60.002 80 80 60-60.002z"/><path fill="url(#c)" d="M80 59.868l60 60.134-79.998 80L0 139.868z"/><path fill="#CFB979" d="M200 120.097L279.903 200 200 279.903 120.097 200z"/><path fill="url(#d)" opacity=".67" transform="rotate(45 -4.853 284.853)" d="M23.5 23.5h113v113z"/></g></svg>