<svg width="678" height="951" xmlns="http://www.w3.org/2000/svg"><defs><linearGradient x1="50.803%" y1="-52.628%" x2="48.216%" y2="229.644%" id="a"><stop stop-color="#FFD4B6" offset="0%"/><stop stop-color="#5DF1C0" offset="51%"/><stop stop-color="#472E9F" offset="100%"/></linearGradient></defs><g fill="none"><path d="M325.78 106.665c9.14.46 17.87 1.12 26.42 1.87s16.95 1.53 25.13 2.44c32.73 3.58 62.29 8.82 87.62 15.54a398.39 398.39 0 0 1 41.92 13.3c3.64 1.4 7.3 2.93 11 4.42 3.7 1.49 7.44 3.29 11.25 5a134.92 134.92 0 0 1 23.18 13.36 91.79 91.79 0 0 1 20.66 20.7 96.47 96.47 0 0 1 13.58 27.93 150.72 150.72 0 0 1 5.81 31.6c.9 10.666 1.46 21.646 1.68 32.94.48 22.65-.36 46.63-2 72-.42 6.333-.853 12.76-1.3 19.28-.47 6.55-.89 13-1.56 20a197.15 197.15 0 0 1-3.24 21.09 149 149 0 0 1-6.32 21.24c-5.37 14.18-13.37 27.48-22.22 40.1-2.2 3.19-4.49 6.3-6.79 9.46-2.49 3.21-5 6.5-7.85 9.53a156.38 156.38 0 0 1-18.22 17c-13.08 10.44-27.54 19.14-42.12 27.84-7.3 4.34-14.65 8.67-21.88 13.25a222.32 222.32 0 0 0-20.84 14.87c-10.71 8.65-20.54 18.63-28 30a81.87 81.87 0 0 0-8.72 18c-.46 1.58-1.07 3.13-1.42 4.73l-.78 3.6a21.59 21.59 0 0 0-.43 2.31l-1.32 10.07-.33 2.51-.08.62c-.12.1-.4 0-.59 0l-1.26-.14-5-.53-47.23-5-17.9-1.9-9.58-1c-1.54-.17-3.27-.33-4.66-.52l-1.67-.32-.83-.16c-.11 0-.35 0-.35-.11l.54-.49 9.45-8.61 2.48-2.27a22.76 22.76 0 0 0 1.89-2.1l3.5-4.11.88-1a6.29 6.29 0 0 0 1-1.4l.37-.91.77-1.81c.49-1.21.73-2.54 1.14-3.78 2.41-10.4-.6-21.92-6.67-28.87-.78-.84-1.61-1.6-2.39-2.42-.13-.11-.1-.17-.38-.33l-.8-.5-1.59-1-3.17-2c-1-.65-2.29-1.3-3.5-1.94l-3.64-1.91-1.81-1a3.72 3.72 0 0 1-.41-.24c0-.11.21-.25.3-.38l.68-.78 2.71-3.1c1.8-2 3.5-4.31 5.23-6.42l.66-.84.38-.61v-.08l.07-.17.28-.66.59-1.31c.27-.94.54-1.86.81-2.78.27-.92.29-1.94.43-2.89a26.93 26.93 0 0 0-6.6-19.76l-1.55-1.56-.84-.62-.55-.42a6 6 0 0 0-1.12-.77 30.18 30.18 0 0 0-5.34-2.26l-5.34-2-4.88-1.74-1.17-.43-.93-.41c-.61-.08.22-.46.45-.71l1-.84 4.57-3.72c1.48-1.22 3-2.45 4.21-3.5l1.9-1.63c.43-.51.67-1 1-1.47l.49-.73a3.25 3.25 0 0 0 .35-.58l.24-.62a15.93 15.93 0 0 0 .72-2.67 17.93 17.93 0 0 0-1.78-11.1 25.1 25.1 0 0 0-3.41-4.89c-5.41-6.07-13.29-10-20.16-12.71-13.87-5.31-24-5.84-25.35-5.93a96.37 96.37 0 0 0-18.21.09c-2.49.14-5.12.67-7.93 1.07-2.77.59-5.7 1.14-8.67 2-1.53.38-3.04.844-4.52 1.39-1.5.53-3.07 1-4.57 1.66l-3 1.22c-.31.09-1.65.7-3 1.34a21.1 21.1 0 0 0-2.47 1.25c0 .06-.12.12-.26.13a.52.52 0 0 0-.35.13.29.29 0 0 1-.29.07.25.25 0 0 0-.3.14 2.8 2.8 0 0 1-1.28.58 1.66 1.66 0 0 0-.5.31.5.5 0 0 1-.55.17.78.78 0 0 0-.55.07c-.43.25-1.91-.25-2-.66 0-.1-.19-.24-.38-.32-.19-.08-.35-.21-.35-.28 0-.07-.05-.11-.1-.08s-.17-.11-.3-.4a6.68 6.68 0 0 0-1.1-1.8.35.35 0 0 1-.16-.31 3.55 3.55 0 0 0-.52-1 5.71 5.71 0 0 1-.19-.29l-.1.06-21.3 19.67-.487-.473c-.055.122-.098.148-.153.093-.07-.07-.09 0-.1.12-.01.12-.07.21-.16.19-.09-.02-1 .82-.95 1 .05.18 0 .09-.09 0s-.2-.07-.38.16a.85.85 0 0 1-.42.32.23.23 0 0 0-.21.24c0 .15-.06.21-.17.18-.11-.03-.22.08-.33.26a.63.63 0 0 1-.41.32c-.12 0-.19.05-.16.08s0 .07-.16.08c-.16.01-.21.06-.14.21.07.15 0 .2-.11.21a1.69 1.69 0 0 0-.6.38c-.22.2-.47.35-.55.33a.76.76 0 0 0-.41.11c-.25.13-.25.14 0 .17s.25 0 0 .12-.31 0-.33-.07c-.02-.07-.07-.06-.15.09a.7.7 0 0 1-.58.3c-.75.12-.91 0-1.75-.77-.25-.24-.49-.42-.52-.39-.03.03-.15-.06-.26-.2a2.13 2.13 0 0 0-.51-.44 1.83 1.83 0 0 1-.57-.68c-.24-.44-.29-.49-.46-.42-.17.07-.18 0-.19-.11a.31.31 0 0 0-.16-.26c-.09-.05-.12-.12-.08-.17.04-.05-.05-.21-.23-.36s-.32-.35-.3-.41a3.39 3.39 0 0 0-1.05-.95.13.13 0 0 1-.07-.14 3.07 3.07 0 0 0-.59-.8 2.44 2.44 0 0 1-.55-.75c.06-.06-.14-.24-.88-.82-.25-.18-.41-.37-.39-.44a.14.14 0 0 0-.08-.16.13.13 0 0 1-.09-.15c0-.07-.16-.32-.39-.56-.23-.24-.39-.48-.35-.51.04-.03-.28-.52-.44-.5-.16.02-.1.08-.07.17.03.09 0 .13-.05 0a.22.22 0 0 1 0-.27c.06-.12 0-.2-.21-.32s-.29-.21-.3-.28a2.2 2.2 0 0 0-.45-.78l-.13-.18-.46-.52c-.62-.68-1.16-1.42-1.75-2.15-2.29-2.93-4.79-5.89-7-9.19l-3.55-5-3.5-5.26c-2.4-3.55-4.47-7.46-6.81-11.38a263.43 263.43 0 0 1-12.49-26.39 288.55 288.55 0 0 1-17.55-67.66c-3.57-25.86-4.35-54.86-2.41-86.86 1.36-23 3.9-45.35 6.66-67.43a77.65 77.65 0 0 1 4.12-17.92 44.76 44.76 0 0 1 11.09-16.37 74.34 74.34 0 0 1 14.72-10.59c5-2.89 9.95-5.15 14.87-7.49 39.5-18.47 80.46-28.32 119.22-32.25a385.84 385.84 0 0 1 56.49-1.66Z" fill="url(#a)" transform="translate(.78 .66)"/><path d="M157.46 798.755c0-.07-.32-.17-.67-.23-.35-.06-.63-.15-.62-.21.01-.06-.08-.1-.21-.08a.29.29 0 0 1-.28-.11c-.07-.2-.29-.22-.23 0 .06.22 0 .12 0 .05a.42.42 0 0 1-.06-.23c0-.13 0-.16-.31-.11a.63.63 0 0 1-.4-.09 2 2 0 0 0-.52-.23 2.23 2.23 0 0 1-.53-.22.66.66 0 0 0-.49-.06c-.22.05-.3 0-.28-.06.02-.06 0-.1-.16 0s-.2.06-.24 0a1.94 1.94 0 0 0-1.36-.26c-.05.08-.07.05-.06-.07.01-.12-.05-.2-.35-.22a.9.9 0 0 1-.5-.18.23.23 0 0 0-.31-.05c-.13.07-.2.06-.24 0-.04-.06-.2-.14-.41-.13a.7.7 0 0 1-.49-.17c-.08-.09-.15-.13-.15-.08s-.08 0-.17-.09c-.09-.09-.16-.14-.25 0s-.13.12-.23 0a1.61 1.61 0 0 0-.65-.28 1.33 1.33 0 0 1-.59-.27.81.81 0 0 0-.32-.26c-.26-.13-.26-.13-.14.08.12.21.12.22-.1.05-.22-.17-.19-.22-.14-.28.05-.06 0-.09-.16-.07a.82.82 0 0 1-.58-.29c-.53-.51-.57-.66-.43-1.66a1.11 1.11 0 0 0 0-.57c-.05 0 0-.14 0-.29a1.59 1.59 0 0 0 0-.58 1.46 1.46 0 0 1 .2-.73c.19-.4.19-.46 0-.54-.19-.08-.14-.12 0-.19a.26.26 0 0 0 .1-.25c0-.09 0-.15.07-.14.07.01.13-.15.13-.36s.06-.4.12-.42a2.37 2.37 0 0 0 .06-1.23.09.09 0 0 1 .06-.12 2.72 2.72 0 0 0 .19-.85c0-.273.062-.543.18-.79.09 0 .1-.23 0-1.05v-.52a.09.09 0 0 0 .05-.14.11.11 0 0 1 .06-.15 1.27 1.27 0 0 0 .11-.59c0-.3.05-.54.11-.53.06.01.16-.5 0-.59a.13.13 0 0 0-.17.07c-.05.1-.07.1-.07 0a.25.25 0 0 1 .17-.19c.13 0 .15-.11.08-.32a.51.51 0 0 1 0-.36 1.75 1.75 0 0 0 .24-.77.75.75 0 0 1 0-.2v-1.77c0-1.7.11-3.44 0-5.28a158.68 158.68 0 0 0-3-25.58c-.91-4.9-2-10.17-3.29-15.83s-2.59-11.75-3.86-18.32l-1.89-9.84c-.68-3.32-1.39-6.73-2.19-10.23-1.58-7-3.4-14.42-5.39-22.25-5.74-22.51-11.73-44.77-14.93-67.09a223.4 223.4 0 0 1-2.2-33.13 150.4 150.4 0 0 1 3.66-31.81 103 103 0 0 1 11.22-28.69 95.1 95.1 0 0 1 18.13-22.14 127.22 127.22 0 0 1 20.54-15.14 162.58 162.58 0 0 1 20.08-9.93l4-1.54 2.09-.82 2.23-.76 4.9-1.67 5.74-1.7c4.16-1.18 9-2.39 15-3.6 1.49-.3 3.05-.54 4.67-.84 1.62-.3 3.31-.58 5.09-.8 3.53-.51 7.42-1 11.71-1.28a119.92 119.92 0 0 1 16-.1 102.24 102.24 0 0 1 20.27 3.18 73.66 73.66 0 0 1 23.2 10.62c1 .65 1.9 1.43 2.86 2.16l1.43 1.13c.48.38.91.81 1.37 1.23l2.74 2.54c.9.92 1.79 1.86 2.64 2.87a41.15 41.15 0 0 1 8.31 14.9 30 30 0 0 1 1.28 9.79 28.07 28.07 0 0 1-2.4 10.21c-.08.21-.18.41-.28.61-.1.2-.23.47-.22.44l-.07.12-.14.22a1.85 1.85 0 0 1-.36.38 1.7 1.7 0 0 1-.46.29s-.13.05-.08.05h.4a3.85 3.85 0 0 1 1.05.4l.13.07 1.07.68 1.14.73 1.09.81 1.1.82 1.05.91c.35.3.7.6 1 .92l1 1a31.37 31.37 0 0 1 6.5 9.73c.41.94.7 1.93 1 2.91.3.98.5 2 .72 3 .22 1 .3 2.22.35 3.33.03 1.101 0 2.203-.09 3.3a28.25 28.25 0 0 1-4.04 12.28 26.87 26.87 0 0 1-9.41 9.33l-1.56.85c-.542.273-1.1.513-1.67.72-.57.22-1.12.47-1.72.64l-1.81.47c-.31.07-.61.15-.92.21l-.95.12c-.63.07-1.27.14-1.9.19-.63.05-1.29 0-1.93 0l-1-.05h-.49c.47 3.25-4.73-28.23-2.47-14.93h.1l.2-.09a26.61 26.61 0 0 1 13.86-2.16 31.8 31.8 0 0 1 12.93 4.23 35.82 35.82 0 0 1 10.05 8.9 32.77 32.77 0 0 1 6.09 12.69l.36 1.81.24 1.86c.07 1.17.13 2.36.17 3.54.04 1.18-.11 2.36-.19 3.55s-.35 2.33-.54 3.5a40.53 40.53 0 0 1-4 10.91c-.48.83-.9 1.7-1.44 2.48l-1.58 2.36-1.74 2.23c-.57.74-1.23 1.4-1.85 2.11l-.57.53-.24.25s-.08.09 0 0l.1-.1-.12.12a1.94 1.94 0 0 1-.26.23 5.47 5.47 0 0 1-.54.41 5.2 5.2 0 0 1-.6.35 3.13 3.13 0 0 1-.32.15l-.16.07h-.08.09a2.13 2.13 0 0 1 1.34.09c.212.087.414.197.6.33l.14.11.88.77c.67.55 1.47 1.44 2.2 2.19a29.06 29.06 0 0 1 3.71 5.34c.27.47.49 1 .73 1.5.236.486.446.983.63 1.49l.54 1.47.44 1.49a35.47 35.47 0 0 1 1.09 11.89 53 53 0 0 1-6.33 20.85 68.36 68.36 0 0 1-12.61 16.88 69.3 69.3 0 0 1-17.11 12.23c-1.55.84-3.19 1.51-4.81 2.22-.82.34-1.66.63-2.48.94-.82.31-1.66.61-2.52.86l-2.55.77c-.46.134-.94.254-1.44.36-.57.13-1.34.29-2 .39a18.74 18.74 0 0 1-8.38-.42 14.23 14.23 0 0 1-6.4-4.07 15.4 15.4 0 0 1-2.12-3.13 17.15 17.15 0 0 1-1.27-3.56 19.87 19.87 0 0 1-.5-3.77v-1.9c0-.32 0-.64.05-.95l.06-.76c.18-1.86.45-3.25.73-4.76a61 61 0 0 1 5.23-15.33c.53-1.06 1.07-2.06 1.61-3 .27-.47.54-.92.8-1.36l.05-.09c28.4 9.82 7.87 2.73 14.21 4.93v.24l-.07.46c-.05.3-.1.6-.14.89a27.19 27.19 0 0 1-1.77 5.9 30.54 30.54 0 0 1-2.87 5.24 35.32 35.32 0 0 1-9.06 9.09 41.78 41.78 0 0 1-4.72 2.84 52.16 52.16 0 0 1-5.41 2.35c-1.89.69-3.86 1.28-5.85 1.79-.5.12-1 .26-1.5.37l-.42.09h-.07c-1.29.28-2.57.51-3.83.72l-2.22.37a7.4 7.4 0 0 0-.94.2c0 .06-.17.08-.33 0a1 1 0 0 0-.43 0 .36.36 0 0 1-.33 0 .33.33 0 0 0-.38 0 3.61 3.61 0 0 1-1.58.09 1.87 1.87 0 0 0-.64.12c-.3.1-.45.09-.63 0a.91.91 0 0 0-.6-.13c-.54.08-1.78-.94-1.68-1.36 0-.09-.08-.29-.22-.44-.14-.15-.25-.32-.22-.39s0-.12-.06-.11c-.06.01-.12-.17-.12-.49a6.4 6.4 0 0 0-.26-2.08.34.34 0 0 1 0-.36 3.69 3.69 0 0 0-.06-1.13 5.67 5.67 0 0 1-.11-1.22.81.81 0 0 0-.06-.46.81.81 0 0 1-.06-.49 10.52 10.52 0 0 0-.07-1.69 12.24 12.24 0 0 1-.08-1.65.37.37 0 0 0-.1-.35 3.15 3.15 0 0 1-.28-1.57c0-.16 0-.44.05-.62 0-1.07.5-1.42 2.09-1.7a1.27 1.27 0 0 0 .61-.21c0-.07.27-.09.56-.06a2.69 2.69 0 0 0 1-.12 1.75 1.75 0 0 1 .65-.12 22.75 22.75 0 0 0 4-.65 2.09 2.09 0 0 1 .87-.13s.11 0 .17-.05c.06-.05.21-.15 1.18-.21h.54a43.26 43.26 0 0 0 7.41-2.32c.59-.24 1.15-.52 1.7-.78s1.05-.55 1.56-.87a22.89 22.89 0 0 0 2.91-2.07 17.24 17.24 0 0 0 4.23-5.14 10.8 10.8 0 0 0 1-2.73c.07-.22.07-.45.12-.67v-.3c-3.56-1.24 31 10.71 16.38 5.67l-.28.46c-.37.62-.73 1.25-1.07 1.89a44.37 44.37 0 0 0-3.3 8.05c-.41 1.38-.76 2.79-1 4.2-.13.69-.26 1.44-.35 2.08 0 .29-.07.56-.1.82v.16a.26.26 0 0 0 .12.27.41.41 0 0 0 .16 0h.25c.26-.06.52-.12.82-.21l1-.3a49.42 49.42 0 0 0 7.21-2.76 54.07 54.07 0 0 0 11.4-7.46 52.4 52.4 0 0 0 7.06-7.37 49.75 49.75 0 0 0 7.16-12.35 31.93 31.93 0 0 0 2.39-10.71 18.12 18.12 0 0 0-.59-5.31 13.79 13.79 0 0 0-.93-2.48 12.54 12.54 0 0 0-1.61-2.3l-.54-.56-.82-.7a1.58 1.58 0 0 0-.25-.19l-.66-.35-1.33-.7-.68-.35a1.06 1.06 0 0 0-.37-.16h-2.68c-.09 0-.24 0-.23-.06-.54-1.493-1.1-3.026-1.68-4.6-.2-.51-.4-1-.6-1.57l-.26-.67-.19-.46c-.51-1.25-.67-1.4-.65-1.08 0-.18-.07-.36-.1-.54-.03-.18 0-.15-.07-.3l-.12-.47-.12-.47c-.05-.18-.06-.27-.16-.59-.15-.53-.31-1.08-.48-1.63l-.37-1.2-.45-1.44-.46-1.44-.06-.2v-.13s.08 0 .11-.08l.58-.31 1.16-.61 2.32-1.23 1.15-.61.58-.31.42-.34 3.31-2.74.41-.34.2-.17.11-.08.08-.07.15-.14.09-.09.07-.08.14-.15.55-.61a13.29 13.29 0 0 0 1.05-1.22l1-1.26.86-1.29a23.78 23.78 0 0 0 2.55-5.2 21.57 21.57 0 0 0 .74-2.52c.12-.41.13-.81.21-1.21.08-.4.16-.79.17-1.18l.06-1.14v-1.09a18 18 0 0 0-.13-2 14.14 14.14 0 0 0-.84-3.1 17 17 0 0 0-2-3.67 19.72 19.72 0 0 0-3.32-3.54 18.7 18.7 0 0 0-5.13-3 12.75 12.75 0 0 0-6.06-.83 9.44 9.44 0 0 0-2.89.83c-1.23-7.36 2.71 16.48-2.76-16.5h.54c.187.045.383.045.57 0 .19 0 .38 0 .58-.07.2-.065.403-.115.61-.15a9.63 9.63 0 0 0 2.63-1.47 12.8 12.8 0 0 0 2.44-2.79 11.5 11.5 0 0 0 1.52-3.56 8.39 8.39 0 0 0 .22-3.52 13.34 13.34 0 0 0-4-7.44 7.8 7.8 0 0 0-.89-.83 10.47 10.47 0 0 0-1-.79c-.35-.23-.65-.52-1-.73l-.54-.34-.27-.17-.13-.09-.08-.05-.21-.1-3.29-1.5a3.13 3.13 0 0 0-.95-.27l-1-.23-2.07-.44-1-.22-1.21-.17-2.42-.35-5-.71-9.75-1.37-4.09-.57-3.16-.49-2.68-.4-2-.3c-.13 0 .14-.08.19-.11l.31-.14.63-.27 1.24-.55 10-4.41 15.16-6.73.76-.34.37-.17a.8.8 0 0 0 .22-.17l.82-.68c.52-.46 1.11-.9 1.58-1.37.19-.25.32-.51.48-.76.16-.25.12-.25.18-.37l.09-.16c.081-.146.148-.3.2-.46.266-.628.48-1.277.64-1.94a11.64 11.64 0 0 0 .26-2 10.27 10.27 0 0 0-.09-2 17.72 17.72 0 0 0-1.26-4.46 26.05 26.05 0 0 0-2.53-4.43 34.15 34.15 0 0 0-3.45-4.11c-.64-.64-1.35-1.25-2-1.87l-1-.94-1.08-.83a48.62 48.62 0 0 0-8.85-5.63c-1.56-.7-3-1.47-4.58-2l-2.26-.86-2.25-.71a78.51 78.51 0 0 0-15.8-3 106.56 106.56 0 0 0-16.32-.24c-1.46.1-2.95.17-4.46.34-1.51.17-3 .3-4.62.54-1.62.24-3.17.41-4.78.66l-4.88.85a183.07 183.07 0 0 0-20.25 5.05 159.13 159.13 0 0 0-20.61 8.19c-1.67.86-3.41 1.65-5.07 2.58l-5 2.81-4.86 3.09c-1.61 1.06-3.13 2.24-4.71 3.35a92 92 0 0 0-16.67 15.95l-1.8 2.26c-.6.75-1.07 1.56-1.61 2.34l-1.59 2.36c-.54.78-.94 1.66-1.42 2.49l-1.4 2.5c-.49.82-.82 1.74-1.24 2.61a54.91 54.91 0 0 0-2.26 4.98 104.71 104.71 0 0 0-5.76 22.85c-2.23 15.73-1.54 31.79.41 46.81 1 7.51 2.35 14.85 3.82 21.93 1.47 7.08 3.09 13.88 4.68 20.37 3.31 13.07 6.28 24.8 8.77 34.65 2.49 9.85 4.26 18.15 5.43 23.92.32 1.62.72 3.71 1.2 6.19.48 2.48.95 5.11 1.61 8.2 1.26 6.15 3 13.63 4.79 22.12a221.66 221.66 0 0 1 4.41 28.18c.09 1.28.22 2.55.28 3.84.06 1.29.09 2.59.14 3.89.05 1.3 0 2.61 0 3.92l-.08 3.83v.35a12.88 12.88 0 0 0 0 1.83c.04.123.064.251.07.38a2.5 2.5 0 0 0 .19.94c.11.25.1.29-.06.28-.16-.01-.17 0-.08.16a2 2 0 0 1-.07 1.45.56.56 0 0 0-.08.43c.14.23.14.52 0 .75-.11.16-.11.22 0 .23.11.01-.06.72-.29.87a.44.44 0 0 0-.08.33 2.27 2.27 0 0 1-.13.69 1.21 1.21 0 0 0-.05.66c.06.16 0 .26-.06.31a.42.42 0 0 0-.18.31 16.21 16.21 0 0 0-.06 1.64 2.43 2.43 0 0 1-.46 1.28c-.09 0-.1.16 0 .38s.05.32-.1.41c-.15.09-.31.72-.38 1.77 0 .25-.07.39-.15.36-.08-.03-.15.09-.19.26-.2.89-1 1.83-1.37 1.59a.34.34 0 0 0-.36 0c-.12.08-.25.11-.3.06-.05-.05-.11 0-.13.11-.02.11-.07.17-.17 0a1 1 0 0 0-1-.08.202.202 0 0 1-.215.187.202.202 0 0 1-.185-.217Z" fill="#000"/><path d="M439.65 950.035c-10-30.38-2.9-59.11-.62-89.5 2.53-33.74 10-66.89 12.12-100.65 2.06-33.12-2-74.08-25.49-99.84-24.53-27-65.92-38-101.28-38.42-24.34-.29-50.75 5.86-66 24.84-4.7 5.84-8.2 13-7.95 20.51.25 7.51 5 15.11 12.27 17-10.92 2.3-20.83 11.34-21.64 22.47-.81 11.13 9.94 22.35 20.84 20-14.31-5-30.37 9.15-30.27 24.29.1 15.14 12.94 28.14 27.58 32-8.51-1.74-17.09 5.12-19.52 13.46-2.43 8.34.11 17.42 4.31 25a60.75 60.75 0 0 0 42.8 30.11c3.34.54 7.21.64 9.61-1.75 2.63-2.6 2.27-6.91 1.34-10.49a53.16 53.16 0 0 0-9.3-19.06c1.83 8.14 9 14.24 16.78 17.14 7.78 2.9 16.33 3.12 24.66 3.32" fill="#FFF6ED"/><path d="M444.03 948.485a1.43 1.43 0 0 0-.69.15c-.33.12-.61.18-.63.12-.02-.06-.11 0-.22 0a.27.27 0 0 1-.3 0c-.15-.13-.35 0-.21.09.14.09.07.09 0 .05a.34.34 0 0 1-.16-.15c0-.13-.1-.12-.32.05a.6.6 0 0 1-.39.12 2 2 0 0 0-.56.06 2 2 0 0 1-.57.06.79.79 0 0 0-.46.19c-.17.16-.24.18-.27.09-.03-.09-.07-.07-.15.06-.08.13-.15.15-.23.09-.08-.06-1.29.24-1.31.44-.02.2 0 .08-.08 0s-.14-.16-.41 0a.84.84 0 0 1-.53.08c-.12-.05-.21 0-.29.12-.08.12-.15.15-.23.08-.08-.07-.24 0-.42.07a.63.63 0 0 1-.51.09c-.11-.05-.19-.05-.18 0 .01.05-.06 0-.18 0s-.21-.05-.22.12c-.01.17-.06.2-.19.14a1.54 1.54 0 0 0-.71 0 1.22 1.22 0 0 1-.65 0 .72.72 0 0 0-.41-.11c-.29 0-.29 0-.08.16.21.16.21.16-.06.1s-.29-.14-.27-.22c.02-.08 0-.1-.17 0a.72.72 0 0 1-.66 0c-.72-.27-.83-.42-1.2-1.57-.12-.35-.25-.63-.29-.61-.04.02-.1-.14-.14-.33a2.72 2.72 0 0 0-.25-.65 1.9 1.9 0 0 1-.19-.89c0-.53 0-.6-.17-.62-.17-.02-.18-.08-.11-.2a.33.33 0 0 0 0-.32v-.19c0-.02.06-.22 0-.45a1 1 0 0 1 0-.53 3.64 3.64 0 0 0-.41-1.4.12.12 0 0 1 0-.16c0-.339-.05-.676-.15-1a2.63 2.63 0 0 1-.13-1c.08 0 0-.28-.35-1.19-.11-.3-.15-.55-.1-.6a.14.14 0 0 0 0-.18.14.14 0 0 1 0-.19c.06-.23.06-.47 0-.7-.07-.35-.09-.63 0-.64.09-.01 0-.61-.12-.68-.12-.07-.14 0-.15.11-.01.11 0 .14-.07 0a.25.25 0 0 1 .11-.25c.12-.08.12-.17 0-.39a.69.69 0 0 1-.12-.42 2.19 2.19 0 0 0 0-.93 1.8 1.8 0 0 0 0-.22c-.07-.61-.14-1.24-.22-1.89-.21-2-.53-4-.63-6.08a176.65 176.65 0 0 1 .33-28.45c.84-10.54 2.45-22.09 3.58-34.79.28-3.266.567-6.636.86-10.11.35-3.51.72-7.11 1.16-10.79.86-7.37 1.93-15.07 3.1-23.14 1.69-11.59 3.42-22.91 4.83-34 .69-5.54 1.33-11 1.8-16.45.47-5.45.85-10.78 1.07-16a207.46 207.46 0 0 0-1.28-30.6 134.7 134.7 0 0 0-6.17-27.87 86.92 86.92 0 0 0-11.75-23.07 79.08 79.08 0 0 0-16.91-16.69 110.83 110.83 0 0 0-19.12-11.22 145.79 145.79 0 0 0-18.8-7l-3.72-1-2-.53-2.08-.48-4.6-1-5.37-1c-3.89-.67-8.45-1.3-14-1.84-1.38-.13-2.82-.2-4.33-.31-1.51-.11-3.07-.22-4.71-.25-3.3-.12-6.81-.21-10.59 0a104.65 104.65 0 0 0-13.91 1.36 85.38 85.38 0 0 0-16.69 4.42 57.84 57.84 0 0 0-17.23 10.11c-.68.57-1.28 1.23-1.95 1.84l-1 .94c-.33.32-.6.68-.91 1l-1.83 2.08c-.57.72-1.12 1.45-1.64 2.2a25.56 25.56 0 0 0-4.25 9.59 14.42 14.42 0 0 0-.16 4.69 12.36 12.36 0 0 0 1.49 4.31 1.4 1.4 0 0 0 .15.24l.25.41c.17.24.34.49.54.72.24.246.513.458.81.63l1.76 1.23c.21.129.44.223.68.28l.78.26 1.56.54 7.48 2.5 9.77 3.19 5.27 1.71 1.31.42.65.21c.06 0 .33.08.21.1l-.24.06-1.89.53-2.34.66-1 .31-.53.16-.52.17a6.58 6.58 0 0 1-.71.21l-2.24.55-4.82 1.22-10.36 2.66-2.54.67-2.2.73-2.19.74c-.63.3-1.16.67-1.74 1l-1.73 1-.1.07-.08.06-.15.12-.3.24-.61.48-.56.53-.57.52-.52.56-.52.56-.47.6a15.56 15.56 0 0 0-2.73 5.11c-.15.45-.2.91-.33 1.36l-.18 1.36v1.2s.05.83.17 1.26a12.7 12.7 0 0 0 2.37 5.08 11.52 11.52 0 0 0 4.37 3.57l.6.25a4.3 4.3 0 0 0 .58.18c.2 0 .39.14.58.16.191.014.381.037.57.07h.52c.183-.01.367-.01.55 0a4.85 4.85 0 0 0 .53-.08h.41c.21-3.28-1.64 28.56-.88 15.08h-.13a10.85 10.85 0 0 0-5.82-.25 16.38 16.38 0 0 0-6.23 2.91 20.22 20.22 0 0 0-5.08 5.57 17.13 17.13 0 0 0-2.51 6.9l-.08.88v.87c.05.65.09 1.3.11 2 .02.7.22 1.3.32 2l.51 2a25.24 25.24 0 0 0 3.14 6.3c.37.49.67 1 1.08 1.48l1.17 1.42 1.3 1.34c.42.46.93.84 1.38 1.27l.35.31.17.16.14.11.17.13.08.06.23.15 1.87 1.25 1.86 1.25.46.31c.191.099.388.185.59.26l1.24.52 2.48 1 1.23.51.31.13v.62l-.37 3v1.89a6.22 6.22 0 0 0 0 1.31v.55c0 .15.07.23.1.35l.09.33.05.17-.07-.06c-.18-.22-.44-.12-.76.34a12.68 12.68 0 0 0-1.3 3l-.43 1.27-.52 1.69-.58 1.91-1.71.27-.85.13c-.26.06-.35.2-.53.3l-1.89 1.29-.24.16-.11.07-.16.17-.33.34a12.63 12.63 0 0 0-1 1.22 13.22 13.22 0 0 0-1.37 2.49 5.47 5.47 0 0 0-.23.64c-.09.22-.16.448-.21.68l-.19.76-.14.78a19.76 19.76 0 0 0 .13 6.71 37.44 37.44 0 0 0 5.99 14.05 53.07 53.07 0 0 0 11 12 54.52 54.52 0 0 0 14.2 8c1.26.52 2.57.89 3.86 1.31.65.2 1.31.34 2 .52s1.31.34 2 .45l2 .38.85.12h.27c.242.026.486.005.72-.06a1.08 1.08 0 0 0 .74-1v-.49l-.06-.35c-.17-.83-.52-2.06-.84-3.11a45.32 45.32 0 0 0-5.13-11c-.48-.75-1-1.44-1.43-2.1-.24-.32-.48-.63-.7-.94l-.05-.06c27.19-12.77 7.54-3.54 13.61-6.38v.09l.05.19.1.36c.255.866.61 1.698 1.06 2.48a12.61 12.61 0 0 0 1.7 2.37 20.52 20.52 0 0 0 5.73 4.52 25 25 0 0 0 3.06 1.41 35.37 35.37 0 0 0 3.82 1.19c1.39.33 2.88.62 4.47.85l1.61.21c1 .15 2.13.26 3.21.36a19 19 0 0 0 2.81.12c0-.05.17 0 .3 0a.73.73 0 0 0 .39.06.34.34 0 0 1 .29.09c.1.08.24.08.34 0a3.07 3.07 0 0 1 1.46.18c.205.035.415.035.62 0 .3-.05.44 0 .59.15a1 1 0 0 0 .55.22c.52 0 1.58 1.2 1.42 1.6a.64.64 0 0 0 .15.47c.13.17.2.36.15.42-.05.06 0 .12.05.12s.09.18 0 .5a6.64 6.64 0 0 0-.06 2.1.33.33 0 0 1 0 .35 3.18 3.18 0 0 0-.11 1.13 5.72 5.72 0 0 1-.09 1.22.84.84 0 0 0 0 .47.91.91 0 0 1 0 .49 9.6 9.6 0 0 0-.19 1.69 11.08 11.08 0 0 1-.18 1.63.4.4 0 0 0 0 .37 3 3 0 0 1 .05 1.59c-.05.16-.11.43-.15.6-.22 1.06-.7 1.34-2.4 1.36a1.51 1.51 0 0 0-.69.1c0 .06-.3 0-.6 0a3.54 3.54 0 0 0-1.14-.07 2.13 2.13 0 0 1-.74 0c-.14-.09-3.46-.28-4.73-.31a2.94 2.94 0 0 1-1.07-.12s-.13-.06-.22 0-.29.09-1.5-.18l-11.47-2.35c-.94-.27-1.87-.61-2.83-1s-1.93-.78-2.88-1.23a39.75 39.75 0 0 1-5.57-3.17 34.83 34.83 0 0 1-9.62-9.66 28.52 28.52 0 0 1-3.26-6.7c-.22-.59-.36-1.23-.54-1.84l-.12-.47-.06-.23v-.12c-3.42 1.57 29.72-14 15.7-7.37l.46.61a47.819 47.819 0 0 1 1.77 2.49 62.18 62.18 0 0 1 8.64 19.37c.14.54.26 1.11.38 1.69l.09.48.1.63.17 1.24a19.6 19.6 0 0 1-1.14 9.61 15.18 15.18 0 0 1-5.89 7.07 17.56 17.56 0 0 1-8.84 2.59h-2.36c-.4 0-.78 0-1.16-.09h-.57l-.43-.06c-.53-.06-1.05-.14-1.52-.22l-1.34-.26a67.45 67.45 0 0 1-10.12-2.68 72.05 72.05 0 0 1-16.22-8.31 69.92 69.92 0 0 1-10.42-8.78 66.43 66.43 0 0 1-11.42-15.67 48.74 48.74 0 0 1-5.42-16.24 35.86 35.86 0 0 1 .12-10.52 31.32 31.32 0 0 1 1.69-6.2 29.72 29.72 0 0 1 3.53-6.36l1.19-1.52 1.15-1.27.26-.29h.05a.51.51 0 0 1 .22-.11.75.75 0 0 1 .3 0 1.4 1.4 0 0 1-.27-.11 1.94 1.94 0 0 1-.29-.21l.16.14-.41-.36-1-.86a23.62 23.62 0 0 1-1.85-1.76c-.59-.61-1.18-1.21-1.75-1.83l-1.61-1.94a41.4 41.4 0 0 1-6.97-12.72c-.28-.72-.43-1.48-.64-2.2-.21-.72-.41-1.45-.53-2.18-.12-.73-.23-1.45-.35-2.15-.05-.36-.1-.71-.16-1.05l-.06-1a32.44 32.44 0 0 1-.11-4.06 31.55 31.55 0 0 1 1.12-7.08 34.29 34.29 0 0 1 3.26-7.82 36.67 36.67 0 0 1 5.54-7.38 35.51 35.51 0 0 1 9.38-7 29.88 29.88 0 0 1 14.13-3.36 27 27 0 0 1 8.26 1.44c-.42 7.46 1-16.65-.91 16.72h-.47l-.6.09-1.19.17c-.797.12-1.604.17-2.41.15a23.9 23.9 0 0 1-4.84-.45 26.74 26.74 0 0 1-8.75-3.64 29.73 29.73 0 0 1-6.77-6.28 28.73 28.73 0 0 1-4.65-8.29 25.69 25.69 0 0 1-1.61-10 30.63 30.63 0 0 1 7-18.09 22.39 22.39 0 0 1 1.55-1.81c.54-.58 1.08-1.16 1.67-1.68.59-.52 1.14-1.1 1.76-1.58l1.71-1.36c.095-.07.2-.127.31-.17a1 1 0 0 1 .16-.06h.07-.08a.71.71 0 0 1-.28-.21v-.07l-.14-.22c-.25-.37-.46-.75-.67-1.13a28.79 28.79 0 0 1-2.1-4.72 29.25 29.25 0 0 1-1.53-10.06 34.94 34.94 0 0 1 1.57-9.29 42.15 42.15 0 0 1 3.46-8 52.35 52.35 0 0 1 4.53-6.73c.82-1 1.68-2 2.51-2.92l1.25-1.42 1.35-1.3a65.79 65.79 0 0 1 11.1-8.84c1.92-1.14 3.76-2.33 5.66-3.23l2.77-1.4 2.74-1.19a95.27 95.27 0 0 1 18.76-5.72 124.72 124.72 0 0 1 18.83-2.24c1.67-.06 3.38-.16 5.1-.142 1.72.022 3.48 0 5.22.062 1.74.06 3.52.1 5.3.18l5.43.38a199.06 199.06 0 0 1 22.72 3.21 176.32 176.32 0 0 1 23.75 6.68c2 .76 4 1.45 6 2.3l6 2.59 5.9 2.94c2 1 3.87 2.18 5.82 3.28a109.05 109.05 0 0 1 21.62 16.78l2.45 2.5c.82.84 1.54 1.79 2.31 2.69l2.27 2.74c.77.9 1.39 1.91 2.09 2.86l2 2.9c.7 1 1.22 2 1.84 3a69.54 69.54 0 0 1 3.41 6.13 121 121 0 0 1 9.45 25.72c4.36 17.45 5.37 34.85 5 51.11-.21 8.17-.83 16-1.57 23.47-.74 7.47-1.68 14.6-2.6 21.34-1.92 13.35-3.64 25.32-5.09 35.38-1.45 10.06-2.26 18-2.78 23.63-.14 1.58-.31 3.6-.51 6s-.43 5.47-.77 8.69c-.62 6.48-1.56 14.2-2.4 22.54a205.67 205.67 0 0 0-1.3 26.4c0 1.13 0 2.27.11 3.4l.24 3.39c.06 1.14.2 2.26.34 3.38l.39 3.24.05.3a10.4 10.4 0 0 0 .35 1.51c.062.094.112.195.15.3.07.27.2.519.38.73.16.18.16.22 0 .25s-.16.06 0 .15c.247.348.331.786.23 1.2a.44.44 0 0 0 0 .38.58.58 0 0 1 .16.61c-.05.16 0 .2.1.18.1-.02.16.58 0 .77-.16.19 0 .17 0 .28.067.19.098.39.09.59a.87.87 0 0 0 .15.54c.11.1.12.19 0 .26a.36.36 0 0 0-.07.31 10 10 0 0 0 .45 1.31 2.7 2.7 0 0 1 0 1.16c-.07.07 0 .16.11.3.11.14.18.22.08.35-.1.13 0 .66.37 1.48.09.19.1.32 0 .33-.1.01-.1.13-.07.27.18.75-.16 1.84-.57 1.83a.42.42 0 0 0-.3.2c-.07.12-.18.2-.24.19-.06-.01-.1 0-.07.15s0 .16-.14.11a1.1 1.1 0 0 0-.88.4.196.196 0 0 1-.39-.03Zm-340.89-729.37a1.45 1.45 0 0 0-.11.71c0 .35-.06.64-.12.63-.06-.01-.07.1 0 .23a.27.27 0 0 1-.07.29c-.18.1-.17.32 0 .23s.12 0 0 0a.32.32 0 0 1-.21.1c-.13 0-.15.06-.06.32a.56.56 0 0 1 0 .4 1.92 1.92 0 0 0-.14.55 2.67 2.67 0 0 1-.14.56.72.72 0 0 0 0 .5c.09.21.08.28 0 .28s-.09 0 0 .17.09.19 0 .24a1.88 1.88 0 0 0 0 1.38c.08 0 .06.06-.06.07-.12.01-.2.08-.17.38a1 1 0 0 1-.1.52.21.21 0 0 0 0 .31c.09.12.09.19 0 .24-.09.05-.1.22-.07.43a.64.64 0 0 1-.09.51c-.08.09-.1.16-.06.16.04 0 0 .08-.06.18-.06.1-.11.18 0 .24s.15.12.06.23a1.7 1.7 0 0 0-.19.69 1.18 1.18 0 0 1-.18.62.93.93 0 0 0-.22.36c-.09.26-.08.27.11.12.19-.15.2-.15.07.09s-.2.23-.27.18c-.07-.05-.09 0-.05.17a.71.71 0 0 1-.21.61c-.43.6-.58.66-1.64.66a1.11 1.11 0 0 0-.58.07s-.14.06-.31 0a1.54 1.54 0 0 0-.6 0 1.53 1.53 0 0 1-.79-.08c-.44-.14-.5-.14-.56 0-.06.14-.1.15-.19.05a.25.25 0 0 0-.27-.06c-.09 0-.15 0-.15-.06s-.18-.11-.39-.1c-.21.01-.42 0-.45-.07a2.71 2.71 0 0 0-1.28.07.09.09 0 0 1-.13 0 2.5 2.5 0 0 0-.89-.07 2 2 0 0 1-.84-.06c0-.09-.24-.06-1.07.14-.27.06-.49.07-.53 0a.11.11 0 0 0-.16 0 .1.1 0 0 1-.15 0 1.15 1.15 0 0 0-.62-.06c-.3 0-.55 0-.56-.06-.01-.06-.52-.11-.59 0-.07.11 0 .13.08.16s.11.06 0 .07a.22.22 0 0 1-.21-.14c-.05-.13-.13-.14-.34 0a.61.61 0 0 1-.37.06 1.66 1.66 0 0 0-.8-.14h-.88c-.65 0-1.34 0-2 .11l-4.5.39c-1.58.21-3.28.38-5.07.66a79.45 79.45 0 0 0-25.62 8.11 51.06 51.06 0 0 0-4.83 3c-.75.55-1.56 1-2.26 1.63l-2.09 1.77a19.35 19.35 0 0 0-2 1.87c-.62.66-1.27 1.25-1.87 1.93-.6.68-1.18 1.44-1.77 2.16-.59.72-1.21 1.39-1.7 2.17a69.35 69.35 0 0 0-9.64 18.73 87.27 87.27 0 0 0-4.09 18.56c-.22 1.45-.25 2.91-.39 4.3-.05.71-.11 1.4-.17 2.08-.06.68 0 1.37-.06 2 0 1.34-.07 2.64-.1 3.89s.05 2.49.08 3.67v1.88s.08 1.28.13 1.94c.08 1.334.17 2.694.27 4.08.32 2.79.57 5.78 1.12 8.94a156.38 156.38 0 0 0 4.87 21.42 169.75 169.75 0 0 0 10.43 26.27 141.91 141.91 0 0 0 19.51 29.6l2.65 2.93c.9 1 1.86 1.87 2.79 2.82.93.95 1.9 1.83 2.88 2.71.98.88 1.95 1.79 2.94 2.51.99.72 1.93 1.57 3 2.25l3.07 2c2.14 1.21 4.2 2.44 6.35 3.39 2.15.95 4.22 1.82 6.17 2.65l2.95 1c1 .34 1.87.65 2.77.89 3.56 1.1 6.58 1.77 8.62 2.26a147.71 147.71 0 0 0 16.33 2.6c.28 0 1.67.17 3.69.35l3.45.3 2 .16.73.05 3.47.3c.98.098 1.965.138 2.95.12 0-.05.17 0 .31 0a.68.68 0 0 0 .4.06.38.38 0 0 1 .3.11.3.3 0 0 0 .35.05 3.05 3.05 0 0 1 1.49.2c.209.03.421.03.63 0a.54.54 0 0 1 .59.16 1 1 0 0 0 .54.23c.53 0 1.56 1.23 1.39 1.63a.64.64 0 0 0 .15.47c.12.17.18.36.14.43-.04.07 0 .11 0 .12 0 .01.09.18 0 .5a6.55 6.55 0 0 0-.09 2.1.33.33 0 0 1 0 .35 3.72 3.72 0 0 0-.13 1.12 6.45 6.45 0 0 1-.1 1.23.8.8 0 0 0 0 .46.76.76 0 0 1 0 .49 10.63 10.63 0 0 0-.22 1.68 11.4 11.4 0 0 1-.2 1.64.38.38 0 0 0 0 .36 3.1 3.1 0 0 1 0 1.59c0 .16-.12.43-.16.6-.25 1-.75 1.32-2.43 1.31a1.51 1.51 0 0 0-.68.09c0 .06-.29 0-.59 0a3.34 3.34 0 0 0-1.11-.09 1.86 1.86 0 0 1-.71 0 35.76 35.76 0 0 0-4.51-.29 2.48 2.48 0 0 1-1-.1c0-.05-.12-.05-.2 0-.08.05-.28.09-1.4-.13l-.34-.06h-.23c-1.18-.08-2.4-.18-3.66-.31-5-.43-10.61-1.12-16.09-2a151.12 151.12 0 0 1-15.48-3.34c-2.3-.68-4.42-1.25-6.26-1.92-1.84-.67-3.43-1.14-4.66-1.67l-3.55-1.43c-1.07-.45-2-.94-2.95-1.37l-2.66-1.28-2.64-1.48c-.91-.54-1.9-1-2.93-1.72l-3.43-2.29c-1.27-.85-2.58-2-4.12-3.16-.37-.3-.78-.6-1.16-.93l-1.14-1-2.47-2.24a126.4 126.4 0 0 1-13.53-15.08 146.26 146.26 0 0 1-8.76-12.58 178.43 178.43 0 0 1-10.44-19.37 181.19 181.19 0 0 1-8.07-20.89c-2.13-6.5-3.45-12.23-4.31-16a159.8 159.8 0 0 1-3.69-33.1 133.23 133.23 0 0 1 1.62-20.26 101.28 101.28 0 0 1 5.62-20.42 81.66 81.66 0 0 1 9.87-18.21 45 45 0 0 1 3-3.91 45.52 45.52 0 0 1 3.16-3.66c1.15-1.15 2.23-2.33 3.38-3.37l3.47-2.94c1.14-.94 2.34-1.7 3.47-2.52l1.68-1.17 1.68-1c1.11-.65 2.18-1.29 3.22-1.87l3.05-1.51c1.93-1 3.74-1.65 5.32-2.32 1.58-.67 3-1.11 4.11-1.5l2.44-.82c1-.31 2.13-.6 3.4-1l2-.55 2.2-.5c1.52-.32 3.15-.73 4.86-1 3.43-.63 7.19-1.16 11.06-1.51l2.92-.25c1-.09 2-.12 2.88-.17h.35a13.38 13.38 0 0 0 1.78-.17 1.1 1.1 0 0 1 .36-.11 2.5 2.5 0 0 0 .89-.29c.23-.13.28-.12.28 0s0 .17.17.06a2 2 0 0 1 1.41 0 .52.52 0 0 0 .43 0 .72.72 0 0 1 .72 0c.17.09.23.07.23-.05 0-.12.7 0 .86.16a.4.4 0 0 0 .33 0 1.83 1.83 0 0 1 .68 0 1.1 1.1 0 0 0 .64 0c.15-.07.25-.07.31 0a.44.44 0 0 0 .32.14 11.86 11.86 0 0 0 1.58-.13 2.8 2.8 0 0 1 1.29.28c.06.09.17.08.37 0 .2-.08.3-.11.41 0 .11.11.73.21 1.74.13.24 0 .38 0 .36.09-.02.09.11.13.28.15.88.07 1.9.75 1.72 1.14a.36.36 0 0 0 .1.35c.09.1.14.22.1.28-.04.06 0 .11.12.12.12.01.17 0 .06.16a1 1 0 0 0 .07 1 .235.235 0 1 1-.01.47Zm487.61 50.82a1.52 1.52 0 0 0 0-.71v-.65c0-.01.06-.1 0-.22s0-.26 0-.3c0-.04.12-.34 0-.23-.12.11-.1 0-.05 0a.29.29 0 0 1 .18-.12c.14 0 .14-.08 0-.33a.55.55 0 0 1 0-.4 2.23 2.23 0 0 0 .06-.56 1.88 1.88 0 0 1 .06-.57.69.69 0 0 0-.09-.49c-.11-.2-.12-.28 0-.29.12-.01.08 0 0-.16s-.11-.18 0-.24 0-1.32-.15-1.37c-.15-.05-.07-.06.06-.07.13-.01.18-.11.12-.41a.85.85 0 0 1 0-.52.21.21 0 0 0 0-.31c-.12-.11-.13-.18 0-.24s.08-.23 0-.43a.61.61 0 0 1 0-.52c.07-.1.09-.18 0-.17-.09.01 0-.08 0-.18 0-.1.09-.2-.08-.24-.17-.04-.17-.1-.08-.22a1.68 1.68 0 0 0 .1-.71 1.15 1.15 0 0 1 .12-.63.88.88 0 0 0 .2-.38c.06-.28.06-.29-.14-.11s-.21.17-.09-.09.2-.24.28-.21c.08.03.1 0 0-.17s0-.37.16-.64c.43-.65.6-.73 1.83-.85.38 0 .68-.09.68-.14 0-.05.16-.07.35-.05.24.004.478-.023.71-.08.31-.072.63-.072.94 0 .52.12.59.12.66-.05.07-.17.11-.15.22-.06a.33.33 0 0 0 .32.05c.1 0 .18 0 .18.06s.21.1.46.07a.83.83 0 0 1 .53.08 3.86 3.86 0 0 0 1.5-.05.12.12 0 0 1 .16 0 3.42 3.42 0 0 0 1 .11 2.91 2.91 0 0 1 1 .1c0 .08.28.08 1.27 0h.63a.15.15 0 0 0 .18.06.14.14 0 0 1 .18.05c.226.1.473.146.72.13.36 0 .65.06.64.12-.01.06.6.18.71.05.11-.13 0-.13-.07-.17-.07-.04-.13-.07 0-.07a.27.27 0 0 1 .23.19c0 .13.13.15.39.1a.77.77 0 0 1 .44 0c.283.16.597.258.92.29h.29l.65.09c.68.08 1.39.17 2.12.31 1.45.27 3 .5 4.66.91l2.56.6 2.7.76a78.75 78.75 0 0 1 26.25 13.38 76.34 76.34 0 0 1 9.57 8.78 73.54 73.54 0 0 1 7.74 9.9 76.58 76.58 0 0 1 9.74 21.25c.55 1.76.92 3.54 1.32 5.27.4 1.73.67 3.46.93 5.16.26 1.7.47 3.35.55 5 .06.82.12 1.62.17 2.42.05.8.08 1.48.11 2.21.25 5.71.4 10.92.43 15.49 0 4.79 0 10.19-.38 16.43a165.07 165.07 0 0 1-2.58 21.37c-1.64 8-4.06 17.38-9.3 27a76.4 76.4 0 0 1-10 14.33 81.34 81.34 0 0 1-14.53 12.89 106.07 106.07 0 0 1-14.15 8.25 147.19 147.19 0 0 1-14.2 5.91c-9 3.25-16.6 5.22-20.51 6.29-7.82 2-14.59 3.64-15.09 3.79-.25.08-1.5.4-3.32.84l-5.49 1.31-3.47.76a24.05 24.05 0 0 0-2.9.74c0 .05-.16.09-.31.07a.69.69 0 0 0-.4.05.38.38 0 0 1-.33 0 .31.31 0 0 0-.35 0 3.24 3.24 0 0 1-1.49.23 1.71 1.71 0 0 0-.61.18.56.56 0 0 1-.61 0 .84.84 0 0 0-.59-.07c-.51.12-1.85-.75-1.8-1.18 0-.1-.11-.28-.27-.41-.16-.13-.28-.29-.26-.37.02-.08 0-.11-.07-.1-.07.01-.14-.15-.17-.47a6.63 6.63 0 0 0-.5-2 .39.39 0 0 1-.07-.35 3.18 3.18 0 0 0-.19-1.12 6.48 6.48 0 0 1-.24-1.2.8.8 0 0 0-.12-.45.85.85 0 0 1-.1-.48 12.36 12.36 0 0 0-.26-1.68 11.54 11.54 0 0 1-.27-1.62.38.38 0 0 0-.13-.34 3.11 3.11 0 0 1-.47-1.53v-.62c-.07-1.07.34-1.47 2-1.93a1.48 1.48 0 0 0 .62-.28c0-.07.27-.12.58-.12a3.32 3.32 0 0 0 1.08-.23 1.83 1.83 0 0 1 .68-.19 33.64 33.64 0 0 0 4.32-1 2.51 2.51 0 0 1 1-.19s.13 0 .19-.06.23-.16 1.33-.28h.56l3.08-.71c4.22-1 8.84-2.05 13.31-3.15 9-2.16 17.27-4.62 21.14-5.94 2.08-.68 3.67-1.25 5.12-1.78 1.45-.53 2.73-1 4.2-1.6a109.54 109.54 0 0 0 12.69-5.84l2.29-1.28c.76-.42 1.45-.89 2.16-1.32 1.42-.84 2.65-1.74 3.77-2.51 1.12-.77 2-1.52 2.75-2.07a17.47 17.47 0 0 0 1.47-1.19 64.87 64.87 0 0 0 7.88-8 61.45 61.45 0 0 0 8.49-13.8 81.13 81.13 0 0 0 5.17-16.21c1.11-5.27 1.71-9.9 2.05-12.93a205.4 205.4 0 0 0 1-26.83 376.826 376.826 0 0 0-.23-8.1l-.18-4.18v-1.05l-.07-.95-.14-1.89a61.34 61.34 0 0 0-3.15-14.82 59.71 59.71 0 0 0-6.32-13.07 60.64 60.64 0 0 0-8.19-10.12 59.5 59.5 0 0 0-8.11-6.8c-1.23-.88-2.4-1.58-3.41-2.23l-2.7-1.54a65.87 65.87 0 0 0-10.23-4.25 62.89 62.89 0 0 0-7.92-2.07c-1.41-.23-2.9-.53-4.27-.67h-.29a11.4 11.4 0 0 0-1.5-.11 1 1 0 0 1-.32.08 1.64 1.64 0 0 0-.77.2c-.21.11-.24.1-.23-.07.01-.17 0-.16-.13-.07a1.37 1.37 0 0 1-1.18-.06.4.4 0 0 0-.36-.08.53.53 0 0 1-.61 0c-.14-.08-.18-.07-.19 0-.01.07-.59 0-.72-.19 0 0-.15-.07-.27 0a1.58 1.58 0 0 1-.58-.06.81.81 0 0 0-.54 0c-.13.08-.21.07-.26 0a.34.34 0 0 0-.27-.14c-.451.01-.9.067-1.34.17a2.19 2.19 0 0 1-1.11-.24c0-.08-.14-.07-.31 0-.17.07-.25.12-.35 0-.1-.12-.63-.18-1.49 0-.2 0-.33 0-.32-.06.01-.06-.1-.12-.25-.12-.75 0-1.72-.54-1.62-.94a.43.43 0 0 0-.13-.34c-.1-.09-.16-.21-.13-.27.03-.06 0-.11-.13-.1-.13.01-.16 0-.08-.15a1.1 1.1 0 0 0-.2-.95.19.19 0 0 1-.03-.35Zm-278.7 13.43a295.73 295.73 0 0 1 27.74-54.57 767.445 767.445 0 0 0 18 53.74c16.82-.373 33.637-.04 50.45 1a123.7 123.7 0 0 1-26.26 37.5c-2.45 2.39-5.12 4.89-6 8.21-.72 2.87 0 5.87.82 8.72l11.48 42.59-48.63-35.16a7.75 7.75 0 0 0-4-1.84c-1.76-.06-3.31 1.07-4.72 2.13a170.67 170.67 0 0 1-53.48 26.93l9-35.9c.61-2.43 1.21-5 .48-7.4a14.05 14.05 0 0 0-2.3-4l-24.52-33.28a274 274 0 0 1 57.08-6.47" fill="#000"/><path d="M313.13 259.625c2.14-4.52 23.89-41.87 27.94-48.23.333-.506.863-1.31 1.59-2.41 0 0 20.33 63.82 20.84 65.21.06.067 9.077.19 27.05.37l29.89 1.52c.173 0-3.63 7.827-11.41 23.48-.29.52-6.75 10.37-8.34 12.44-2.989 3.972-13.58 15.33-14.32 16.06a14.72 14.72 0 0 0-2.37 2.77c-.138.216.9 6.24 1.18 7.32l16.63 62.05-65.67-47.62a.81.81 0 0 0-.83-.23c-.142.068-17.42 11.41-22.1 13.92-3.12 1.674-17.067 7.144-41.84 16.41l-4.21 1.12c2.187-10.166 3.367-15.606 3.54-16.32 4.32-17.206 6.663-26.55 7.03-28.03.187-.74.76-3.276 1.72-7.61 0-.108-5.387-7.618-16.16-22.53l-16.16-22.41 17.82-3.76c2.87-.58 21.22-3.36 21.7-3.44.48-.08 18.078-1.492 18.262-1.57.122-.053 2.861-6.222 8.218-18.51Zm268.39 274.89c.31.7.28.87-.27 1.92-.113.207-3.417 4.924-9.91 14.15-1 1.28-2.21 2.94-3.89 4.89-2.32 2.87-4.71 5.44-6.81 7.73-2.1 2.29-4 4.18-5.59 5.57-8.393 7.3-14.17 12.094-17.33 14.38-1.9 1.35-12.88 8.28-12.96 8.39-.213.16-12.545 5.945-12.74 6.03-.51.25-2-.32-2-.76 0-.1-5.38-11.81-5.43-11.98-.27-1 0-1.51 1.39-2.23l9.33-4.84c3.853-2.26 6.027-3.553 6.52-3.88 1.59-1.06 7.09-4.76 7.33-4.94 1.86-1.33 8.41-6.72 10.4-8.55 1.2-1 8.54-8.19 9.34-9.08 2.18-2.326 5.483-6.27 9.91-11.83.2-.28 8.48-12.41 8.56-12.56.43-.67 1.46-1.19 1.73-.88.1.084 12.29 8.18 12.42 8.47Zm-41.94 93.53c.17-.71.28-.82 1.21-1.16.28-.11 6.43-2.46 6.45-2.41.02.05 5.755-2.603 6.28-2.92l3.12-1.81c1.78-1.18 3.52-2.24 4.94-3.35.73-.53 4.67-3.64 5.29-4.18.62-.54 3.67-3.46 4.62-4.42.46-.49 4.85-5.55 5.63-6.52.78-.97 4.45-6.65 5.22-7.9.4-.62 3.567-5.848 3.65-6.02.2-.44 1.69-.89 2-.6.105.041 4.132 1.748 12.08 5.12.89.61.94 1.22.23 2.92-.115.224-1.222 2.866-1.37 3.08-.19.1-3.05 5.3-3.04 5.4.007.067-.917 1.424-2.77 4.07-.9 1.27-6.51 8.26-6.66 8.45-2.269 2.73-8.36 8.58-8.93 9.08-3.293 2.614-5.447 4.294-6.46 5.04-1.52 1.12-3 2.09-4.27 2.94-1.27.85-8.692 5.403-8.8 5.48-.284.17-12.88 4.77-13.05 4.85-.89.26-2.13 0-2.09-.42-.013-.13-3.365-14.511-3.28-14.72ZM59.02 127.585c.61-.44.78-.45 1.84-.13.33.1 27.217 10.981 27.41 11.05.51.17 1.17 1.63.89 2-.043.105-1.47 4.245-4.28 12.42-.52.94-1.07 1.06-2.66.59-.213-.08-27.75-10.64-27.9-10.7-.78-.31-1.54-1.23-1.27-1.56.066-.11 5.77-13.555 5.97-13.67Zm56.05-86.15c.75 0 .89.1 1.55 1 .19.27 28.879 45.509 28.99 45.68.3.44 0 2-.47 2.1-.06 0-3.683 2.474-10.87 7.42-1 .44-1.49.2-2.48-1.13-.12-.192-29.66-45.44-29.71-45.58-.44-.72-.49-1.91-.08-2 .12-.051 12.842-7.524 13.07-7.49Zm99.12 2.72c.64-.05.72 0 .92.4.06.12 5.41 17.2 5.32 17.32a.32.32 0 0 0-.11.29c.053.14-4.453 2.127-13.52 5.96-1 .31-1.36.23-1.67-.39-.06-.11-5.7-17.46-5.72-17.53a1.12 1.12 0 0 1 .74-1c.113-.028 13.828-5.036 14.04-5.05Zm93.86-42.46c.63.42.7.57.76 1.68 0 .34-.425 57.267-.42 57.47 0 .54-1.13 1.66-1.54 1.51-.114 0-4.497.046-13.15.14-1.07-.17-1.37-.65-1.47-2.3.004-.227-.43-57.64-.43-57.8 0-.84.64-1.87 1-1.72.126.02 15.077.87 15.25 1.02Zm91.58 35.5c.53.53.57.69.41 1.8-4.072 16.764-6.119 25.214-6.14 25.35-.09.52-1.43 1.4-1.8 1.18-.169-.037-12.79-2.19-12.96-2.25-1-.37-1.22-.9-1-2.54.054-.22 5.29-25.66 5.33-25.82.18-.82 1-1.71 1.34-1.49.112.063 14.678 3.588 14.82 3.77Zm-292.55 243.79c.55.51.59.66.47 1.72-1.32 9.44-1.993 14.297-2.02 14.57-.18 1.64-.22 3.52-.36 5.66-.23 4.3-.32 9.7-.1 16.5a208.37 208.37 0 0 0 7.4 47.64 203 203 0 0 0 7.18 21.71 209.31 209.31 0 0 0 16.82 33.16c3.32 5.24 7 10.76 10.55 15.27.85 1.15 11.39 13.6 12.55 14.88 1.16 1.28 13.593 13.837 13.74 13.97.39.34.42 1.92.05 2.13-.12.123-13.48 7.744-13.635 7.556-.09-.16-12.585-12.726-13.655-13.886-1.066-1.129-20.573-23.185-33.6-49.97-13.62-28.003-20.774-60.843-21.4-64.7-1.21-7.58-2-14.93-2.38-21-.17-3.06-.47-18.22-.35-22.09.1-1.94.675-11.042.66-11.63-.04-.12 2.14-13.22 2.18-13.38.17-.86 1-1.8 1.32-1.58.11.067 14.434 3.295 14.58 3.47Zm485.93 83.66c.63.42.7.58.78 1.76-.013.22-.2 12.33-.05 12.42.15.09-1.34 13.81-1.61 15.83a167.49 167.49 0 0 1-7.12 30.3 177.11 177.11 0 0 1-10.49 24.65l-3.06 5.62c-.32.62-1.393 2.404-3.22 5.35-2.07 3.55-4.47 6.77-6.65 10a167.61 167.61 0 0 1-26.8 28.85c-.667.607-5.503 4.39-14.51 11.35-5.57 4.07-12 8.37-19.36 13.07-7.36 4.7-15.7 9.77-25 15.57-4.62 2.91-9.5 6-14.51 9.38-1.27.84-14.12 10.15-15.44 11.15-2.13 1.62-19.85 18.07-22.97 21.77a119.73 119.73 0 0 0-12.7 17.62c-1 1.77-5.97 12.41-6.12 12.84-2.707 12.137-4.128 18.346-4.262 18.626-.033.189-16.1-6.595-16.058-6.853 0-.18 1.56-7.463 2.03-9.173.38-1.28 3.08-9.29 3.33-9.94 3.887-8.106 6.067-12.55 6.54-13.33.933-1.52 4.463-6.716 10.59-15.59 1.63-2.19 10.85-12.48 12.9-14.42 14.48-12.313 22.177-18.8 23.09-19.46.913-.66 4.927-3.473 12.04-8.44 5.24-3.49 30.16-19.06 35.55-22.47 5.39-3.41 9.91-6.4 12.82-8.37a232 232 0 0 0 23.89-18.27c.74-.62 4.423-4.233 11.05-10.84l7.32-8.72c.62-.8 2.41-3.243 5.37-7.33a151.35 151.35 0 0 0 15.68-29.27c1-2.2 5.22-15.32 5.62-16.7.4-1.38 3.96-19.75 4.17-21.37.11-.82 1.38-24.21 1.38-24.37 0-.79.62-1.79 1-1.67.126.02 14.52.26 14.78.43Z" fill="#000"/><path d="M337.39 154.755c0-.35.08-.64.14-.63.06.01.08-.09.06-.22-.02-.13 0-.26.07-.29.07-.03.19-.31 0-.23a.29.29 0 0 1 .21-.08c.13 0 .15-.05.07-.32a.62.62 0 0 1 .06-.4 2 2 0 0 0 .16-.54 2.57 2.57 0 0 1 .17-.55.77.77 0 0 0 0-.5c-.07-.21-.07-.29 0-.28.07.01.09 0 0-.16s-.08-.2 0-.25c.08-.05.29-1.29.11-1.38-.18-.09-.05-.06.07-.06.12 0 .2-.07.19-.37a.9.9 0 0 1 .13-.51.22.22 0 0 0 0-.31c-.09-.13-.08-.2 0-.25.08-.05.12-.21.09-.42a.63.63 0 0 1 .12-.5c.08-.09.12-.16.07-.16-.05 0 0-.08.07-.17.07-.09.13-.18 0-.25s-.15-.13 0-.23c.116-.21.19-.441.22-.68 0-.29.14-.57.22-.6a.85.85 0 0 0 .24-.35c.11-.26.1-.27-.11-.13-.21.14-.21.14-.06-.1.15-.24.22-.21.29-.16.07.05.09 0 .06-.16a.73.73 0 0 1 .25-.6c.49-.58.65-.63 1.76-.55.204.049.416.049.62 0h.32c.212.03.428.03.64 0 .285-.02.57.032.83.15.44.18.51.19.59 0 .08-.19.12-.14.2 0a.28.28 0 0 0 .28.09c.1 0 .17 0 .16.08-.01.08.17.12.4.12s.44.06.47.12a3 3 0 0 0 1.35 0 .1.1 0 0 1 .13.06c.298.11.613.168.93.17.298.001.593.059.87.17 0 .09.25.09 1.15 0 .29 0 .53 0 .56.06.03.058.1.083.16.06a.12.12 0 0 1 .16.05c.197.103.418.151.64.14.32 0 .58.07.57.13-.01.06.54.19.64.06.1-.13 0-.13-.07-.17-.07-.04-.11-.08 0-.07a.24.24 0 0 1 .2.18c0 .13.12.15.35.09a.61.61 0 0 1 .4 0c.248.154.53.246.82.27a10.5 10.5 0 0 0 1.52.18l4.51.48 13.1 1.37 38.27 4c4.62.5 10.38 1.09 18.12 2.05 7.74.96 17.52 2.34 29.87 5 9.91 2.12 21 5.34 24.88 6.58l7.46 2.37c.13 0 .76.21 1.66.51l2.76.95 3.42 1.29c1.56.58 2.86 1.07 2.91 1 .05-.07.19 0 .31.12a.82.82 0 0 0 .37.19.38.38 0 0 1 .27.19.32.32 0 0 0 .34.16 3.22 3.22 0 0 1 1.41.68c.19.105.396.176.61.21.31.06.44.14.53.35a1 1 0 0 0 .46.4c.51.21 1.12 1.7.82 2a.64.64 0 0 0 0 .5c.06.2.06.4 0 .45-.06.05-.07.1 0 .12.07.02 0 .21-.14.48a6.31 6.31 0 0 0-.79 1.95.37.37 0 0 1-.15.32 3.42 3.42 0 0 0-.51 1 5.84 5.84 0 0 1-.5 1.12.74.74 0 0 0-.17.43.8.8 0 0 1-.2.45c-.293.488-.55.996-.77 1.52-.21.506-.455.997-.73 1.47a.42.42 0 0 0-.09.35 3.13 3.13 0 0 1-.52 1.51l-.34.51c-.57.92-1.12 1-2.63.48a1.34 1.34 0 0 0-.64-.11c-.06 0-.28-.06-.52-.23a3 3 0 0 0-1-.4 1.62 1.62 0 0 1-.64-.22 28.52 28.52 0 0 0-4-1.51 2.51 2.51 0 0 1-.88-.35c0-.06-.09-.09-.18-.06s-.27 0-1.23-.47l-.29-.14-.19-.09-1.43-.51c-2-.72-4.14-1.45-6.28-2.16-4.28-1.42-8.44-2.6-10.42-3.15-4.26-1.11-4.74-1.31-11.9-3.12-3.63-.89-7.17-1.65-7.86-1.79-2.58-.5-8.65-1.65-14.9-2.58-6.25-.93-12.73-1.69-15.87-2.06-14.29-1.66-48.36-5.1-56-5.87l-13.53-1.31a12.35 12.35 0 0 0-1.69-.09 1.26 1.26 0 0 1-.35.07 2.1 2.1 0 0 0-.88.16c-.23.11-.27.1-.25-.07.02-.17 0-.17-.15-.08a1.73 1.73 0 0 1-1.33-.1.5.5 0 0 0-.4-.09.68.68 0 0 1-.69 0c-.15-.1-.21-.1-.22 0-.01.1-.66 0-.8-.26a.35.35 0 0 0-.3-.07 2.09 2.09 0 0 1-.64-.11 1 1 0 0 0-.61 0c-.15.07-.24 0-.29-.05a.42.42 0 0 0-.29-.17 12.64 12.64 0 0 0-1.51 0 2.62 2.62 0 0 1-1.21-.38c0-.09-.15-.1-.34 0-.19.1-.3.09-.39-.06-.09-.15-.68-.25-1.66-.22-.23 0-.36 0-.34-.11.02-.11-.09-.14-.25-.17-.83-.12-1.77-.85-1.58-1.22a.38.38 0 0 0-.08-.36c-.09-.11-.12-.24-.08-.29.04-.05 0-.11-.12-.12-.12-.01-.16 0-.05-.17a1 1 0 0 0 0-1 .18.18 0 0 1 .03-.32 1.52 1.52 0 0 0 .14-.7Zm189.99 39.73-.28-.58-.1-.2-.13-.27c0-.1-.14-.29-.1-.2a1 1 0 0 1 0-.11 2.34 2.34 0 0 0-.14-.28l-.19-.37c0-.1-.15-.32-.24-.5l-.24-.5-.31-.44c-.1-.19-.13-.26-.13-.26a.45.45 0 0 0-.07-.14 1.45 1.45 0 0 1-.11-.22c-.05-.1-.59-1.17-.62-1.24v-.06a1.47 1.47 0 0 0-.16-.35l-.24-.47a2.43 2.43 0 0 0-.14-.28 2.21 2.21 0 0 1-.11-.22l-.18-.38-.23-.46-.07-.15s0-.07-.08-.16a1.06 1.06 0 0 0-.11-.22 1 1 0 0 1-.11-.2l-.3-.62-.27-.56s-.09-.19-.15-.34c-.06-.15-.12-.25-.06-.1s.06.15-.05-.08c-.11-.23-.09-.21-.07-.18.02.03 0 0-.07-.15l-.27-.56c-.25-.57-.27-.63-.22-.69a.15.15 0 0 0 0-.11v-.07c0-.07 0 0 .08 0s.09.1 0-.05c-.09-.15-.06-.14 0-.06.06.08.06.09 0 .05-.06-.04 0 .09.06.07.06-.02 0 0 .06 0s.08 0 0-.12a.1.1 0 0 0 .1.05h.08c.02 0 0 .05 0-.14 0-.06.06.07.07.05.01-.02 0 0 .06.05l-.08-.15a.12.12 0 0 1 0-.06.69.69 0 0 1 .08.14c-.07-.12 0-.09 0-.06s.14.17.37.2c.138.014.275.037.41.07a2 2 0 0 0 .47 0h.25c-.06 0 0-.07 0-.07l.23-.06c.11 0 .18-.08.16-.12 0-.05 0 0 .05.07-.06-.08 0-.07.15.07s0 0 .09.09a1 1 0 0 0 .13.17c.294.435.558.89.79 1.36l.22.41.19.37.06.1s.09.16.23.44c.32.66.83 1.67.94 1.88.11.21.12.25.16.32l.5 1 .55 1.1c.05.11.15.3.21.41.065.15.139.298.22.44l.75 1.52.72 1.47c.06.1.13.25.17.32l.72 1.42c.07.14.19.39.26.55.47.95.57 1.22.5 1.33a.23.23 0 0 0 0 .13s-.08-.06-.08 0c0-.07-.24 0-.27.11-.03.11 0 0-.07 0s0 .1-.1 0-.23-.09-.26-.05c-.03.04 0 0-.13 0h-.1a.26.26 0 0 1-.26.1 1.2 1.2 0 0 0-.57 0l-.11.08a.13.13 0 0 0-.07.12.22.22 0 0 1 0 .1.65.65 0 0 0 .06.25c0-.11-.07-.14 0-.05.07.09 0 .21-.07.06s-.06-.08-.05 0c.01.08 0 .15 0 .05 0 .06 0 0-.13-.14 0 .05 0 0-.06 0a.43.43 0 0 0-.08-.12v.18c0 .05-.13-.09-.19-.2 0-.1-.12-.14-.12 0s0 0-.06-.06a.7.7 0 0 0-.07-.11 3.54 3.54 0 0 1-.58-.91c0-.08-.12-.22-.16-.3l-.14-.25a.39.39 0 0 0 0-.1l-.08-.14c-.08-.14-.39-.75-.43-.85.01-.06.023-.12.04-.18l-.32-.63Z" fill="#FFF6ED"/></g></svg>