<svg viewBox="0 0 1000 1000" xmlns="http://www.w3.org/2000/svg" xmlns:xlink="http://www.w3.org/1999/xlink"><linearGradient gradientUnits="userSpaceOnUse" id="a" x1="397.06" x2="324.63" y1="417.66" y2="139.73"><stop offset="0" stop-color="#ffd4b6" class="stop-color-ffd4b6"></stop><stop offset=".5" stop-color="#ff8c98" class="stop-color-ff8c98"></stop><stop offset="1" stop-color="#822e5f" class="stop-color-822e5f"></stop></linearGradient><linearGradient id="b" x1="604.31" x2="715.49" xlink:href="#a" y1="520.14" y2="129.35"></linearGradient><linearGradient id="c" x1="578.05" x2="588.16" xlink:href="#a" y1="243.01" y2="-147.78"></linearGradient><path d="M433.8 602.67 393.67 656c-4.32 5.74-8.9 11.7-15.42 14.72-6 2.76-12.79 2.7-19.36 2.59-80.29-1.36-158.22 1.14-238.22.25a10.39 10.39 0 0 1-9.43-14.46c10.41-24.51 22.44-50.51 40.39-68.74" fill="#fff6ed" class="fill-fff6ed"></path><path d="M429.38 599.49c0 .08.27.34.6.57s.59.47.55.52 0 .14.18.19.25.16.24.25.2.37.23.14 0-.13.05 0a.36.36 0 0 1 0 .26c-.09.13 0 .18.27.27a.7.7 0 0 1 .37.29 2.3 2.3 0 0 0 .43.5 2.75 2.75 0 0 1 .45.49.79.79 0 0 0 .49.31c.26.06.33.12.26.2s0 .12.16.11.25 0 .24.15 1.11 1.07 1.3.95.1 0 0 .1-.05.25.26.42a1 1 0 0 1 .43.44.26.26 0 0 0 .3.2c.18 0 .25 0 .23.16s.14.25.36.35a.74.74 0 0 1 .43.42c0 .14.09.21.12.17s.09 0 .12.18.1.22.27.12.21-.07.25.1a1.9 1.9 0 0 0 .54.63c.26.23.48.49.47.58a1 1 0 0 0 .19.46c.2.26.21.26.2 0s0-.3.13 0 .08.34 0 .38-.06.09.12.16.34.27.45.61c.27.83.23 1-.52 2.08-.23.32-.38.61-.34.64s0 .18-.18.33a2.55 2.55 0 0 0-.39.63 1.86 1.86 0 0 1-.65.73c-.45.34-.5.4-.39.58s.07.2-.08.22a.36.36 0 0 0-.26.22c0 .11-.11.16-.17.11s-.23.1-.37.33-.32.4-.4.39a3.64 3.64 0 0 0-.86 1.31.1.1 0 0 1-.13.1 3.56 3.56 0 0 0-.74.82 2.71 2.71 0 0 1-.69.77c-.08-.06-.24.2-.69 1.14-.15.31-.31.53-.39.52a.15.15 0 0 0-.16.13.13.13 0 0 1-.15.12c-.08 0-.31.24-.53.56s-.42.53-.47.49-.51.42-.45.59.13.1.22 0 .13-.06.06 0a.3.3 0 0 1-.3.09c-.15 0-.23 0-.3.29s-.16.38-.24.4a2.37 2.37 0 0 0-.76.66l-.17.19v.05l-.51.67c-.54.7-1.09 1.44-1.66 2.19L419.41 638l-10.19 13.46-6.05 8c-2.11 2.76-4.34 5.87-7.35 9.32a47.32 47.32 0 0 1-7.66 7.17 33.4 33.4 0 0 1-10.28 5.14 44.37 44.37 0 0 1-10.19 1.69c-3.17.19-6.06.14-8.74.09l-15.4-.25-14.62-.17c-18.91-.16-35.4-.15-48.16-.13l-52.19.27c-22.18.13-49.94.4-85.63.21l-21.82-.19h-.78l-1.25-.08a16.42 16.42 0 0 1-2.5-.38 16.18 16.18 0 0 1-2.44-.71 16.5 16.5 0 0 1-2.32-1 19.42 19.42 0 0 1-8.92-24.82c5.17-12.21 10-22.41 12.63-27.64s5.27-10.09 7.36-13.69 3.57-6 3.77-6.33 1.2-2 2.77-4.34c.8-1.17 1.69-2.53 2.72-4l2.22-3c.23-.35 1.51-1.9 2.79-3.46s2.39-2.86 2.36-2.93.1-.21.26-.3a1 1 0 0 0 .37-.36.54.54 0 0 1 .34-.23.41.41 0 0 0 .31-.32 4.15 4.15 0 0 1 1.38-1.33 2.57 2.57 0 0 0 .53-.61c.21-.32.36-.43.63-.45a1.19 1.19 0 0 0 .66-.35c.46-.49 2.37-.54 2.57-.07a.71.71 0 0 0 .53.23c.25 0 .46.1.48.19s.09.11.14 0 .23.06.46.37a7.16 7.16 0 0 0 1.74 1.72.42.42 0 0 1 .28.3 3.74 3.74 0 0 0 .87 1 7.24 7.24 0 0 1 1 1 1 1 0 0 0 .39.38.91.91 0 0 1 .4.4 14 14 0 0 0 1.29 1.51 13.22 13.22 0 0 1 1.27 1.44.46.46 0 0 0 .34.25 3.88 3.88 0 0 1 1.38 1.23l.41.6c.74 1 .64 1.62-.5 2.93a1.29 1.29 0 0 0-.36.6c0 .08-.17.26-.44.43a2.91 2.91 0 0 0-.78.85 1.78 1.78 0 0 1-.46.58 22.39 22.39 0 0 0-3 3.59 2.69 2.69 0 0 1-.68.79c-.07 0-.12.07-.12.17s-.08.28-.92 1.12l-.25.27a1.26 1.26 0 0 0-.16.19c-.81 1.09-1.66 2.2-2.5 3.38a170.87 170.87 0 0 0-9.88 15.84c-6.24 11.21-11.3 22.8-13.72 28.33L122 660l-.75 1.76c-.12.28-.23.56-.35.83a3.19 3.19 0 0 0-.22.55h-.08.07c-.01 0 .12.08 0 .18s0 .06 0 0a5.28 5.28 0 0 0 1.07 0l7.33.1c11.08.16 21.85.22 23.94.21l45-.18 47.19-.33c21.09-.1 56.32-.31 89.12 0l23.88.33a85.26 85.26 0 0 0 9.87-.17 18.38 18.38 0 0 0 6.45-1.68c3.33-1.62 6.56-5.29 9.33-8.87 1.39-1.78 2.74-3.61 3.92-5.16l3-4 23.27-31a14.5 14.5 0 0 0 1.1-1.63 1.28 1.28 0 0 1 .16-.39 2.48 2.48 0 0 0 .36-1c0-.3.07-.33.23-.21s.17.08.16-.1a2.08 2.08 0 0 1 .91-1.26c.18-.08.33-.24.34-.35a.76.76 0 0 1 .45-.66c.2-.08.22-.14.1-.23s.45-.64.75-.64c.07 0 .18-.11.25-.25a2.1 2.1 0 0 1 .5-.58 1.15 1.15 0 0 0 .4-.58c0-.19.1-.27.22-.25a.52.52 0 0 0 .35-.19 15 15 0 0 0 .92-1.51 3 3 0 0 1 1.11-1c.11 0 .18-.09.22-.33s.1-.35.3-.35.65-.53 1.22-1.52c.13-.23.26-.33.32-.26s.19 0 .31-.16c.63-.75 1.93-1.25 2.19-.83a.41.41 0 0 0 .39.14c.16 0 .32 0 .35.1s.11 0 .19-.05.15-.13.19.05.75.65 1 .56a.22.22 0 0 1 .35.4z" fill="#000000" class="fill-000000"></path><path d="M811.19 610.16c19.91-7.27 51.95-21.26 77.94-31.91 10.43-4.27 6.44-12.66-6.69-14.17-15.52-1.79-31.56-2.69-47.43-3.52q-161.53-8.43-324.14-9.56c-6.56 0-13.44 0-19.24 1.48-7.31 1.94-11.41 5.88-15.07 9.59l-42.76 43.36" fill="#000000" class="fill-000000"></path><path d="M813.16 615.23a1.59 1.59 0 0 0-.19-.81c-.16-.38-.24-.71-.17-.73s0-.14-.06-.26a.32.32 0 0 1-.06-.35c.15-.19 0-.41-.12-.23s-.1.09-.06 0a.44.44 0 0 1 .18-.2c.15 0 .14-.12-.08-.36a.74.74 0 0 1-.15-.45 2.16 2.16 0 0 0-.1-.66 2.94 2.94 0 0 1-.1-.66.82.82 0 0 0-.25-.52c-.19-.19-.22-.27-.12-.31s.08-.09-.07-.18-.18-.16-.12-.25-.35-1.5-.58-1.51-.09 0 0-.09.17-.18 0-.49a1 1 0 0 1-.13-.61.25.25 0 0 0-.14-.33c-.16-.09-.19-.16-.11-.26s0-.28-.11-.49a.76.76 0 0 1-.14-.58c.05-.14.05-.23 0-.21s0-.08 0-.22 0-.24-.15-.25-.22-.06-.17-.21a1.75 1.75 0 0 0-.11-.83 1.33 1.33 0 0 1-.08-.74.9.9 0 0 0 .07-.48c0-.33 0-.34-.17-.08s-.15.25-.11-.08.11-.33.2-.31.1-.05 0-.2a.93.93 0 0 1 0-.76c.21-.84.35-1 1.52-1.45.35-.15.63-.31.61-.36s.12-.13.32-.18a2.07 2.07 0 0 0 .65-.32 1.89 1.89 0 0 1 .92-.27c.55 0 .62-.06.62-.27s0-.21.19-.15a.33.33 0 0 0 .33 0c.08-.07.17-.08.2 0s.24 0 .47-.08.48-.17.54-.12a3.46 3.46 0 0 0 1.4-.66.11.11 0 0 1 .16 0 3.12 3.12 0 0 0 1-.3 2.73 2.73 0 0 1 1-.29c0 .1.31 0 1.17-.61.28-.19.53-.29.6-.24a.13.13 0 0 0 .19 0 .14.14 0 0 1 .2 0 1.32 1.32 0 0 0 .72-.2c.34-.15.64-.23.66-.17s.65-.09.68-.27a.14.14 0 0 0-.16-.15c-.14 0-.15 0 0-.07a.27.27 0 0 1 .3.08c.11.11.21.09.41-.09s.32-.24.4-.22a2.36 2.36 0 0 0 1-.17l.23-.08h.07l1-.4 3.36-1.36 16-6.58 20.62-8.59 4.52-1.88 1.5-.61.61-.24c.2-.09.44-.23.49-.47s-.33-.59-.62-.7a4.2 4.2 0 0 0-1-.18c1 .08-3.9-.39-7.14-.65q-5.24-.44-10.4-.78c-13.75-.92-27.12-1.55-39.63-2.23-25-1.28-46.85-2.26-63.72-3-17.7-.75-39.66-1.63-69-2.58s-65.93-2-113-2.75c-18.84-.3-39-.55-56.39-.7-4.38 0-8.4-.1-11.88.09a36.29 36.29 0 0 0-8.64 1.3 18 18 0 0 0-5.46 2.76 34.88 34.88 0 0 0-4.12 3.66c-10.53 10.63-19.78 20-20.43 20.75-.33.37-2 2.12-4.5 4.64l-7.46 7.59c-.28.27-1.62 1.58-3 2.91a30.17 30.17 0 0 0-2.43 2.53c0 .07-.1.18-.26.26a.9.9 0 0 0-.37.3.42.42 0 0 1-.32.19.36.36 0 0 0-.32.27c-.06.22-.53.63-1.35 1.16a2.11 2.11 0 0 0-.5.55c-.2.3-.34.39-.6.4a1 1 0 0 0-.63.29c-.44.45-2.3.4-2.5-.06a.79.79 0 0 0-.53-.24c-.24 0-.45-.12-.47-.2s-.09-.12-.14-.06-.23-.07-.45-.37a8 8 0 0 0-1.74-1.72.4.4 0 0 1-.28-.3 3.74 3.74 0 0 0-.87-1 7.24 7.24 0 0 1-1-1 1 1 0 0 0-.39-.38.93.93 0 0 1-.4-.41 11.78 11.78 0 0 0-1.28-1.5 13.68 13.68 0 0 1-1.25-1.46.44.44 0 0 0-.34-.25 3.74 3.74 0 0 1-1.39-1.23 6.92 6.92 0 0 0-.39-.61c-.72-1-.57-1.66.73-3.09a1.56 1.56 0 0 0 .44-.65c0-.08.19-.28.49-.46a4 4 0 0 0 .92-.88 2.06 2.06 0 0 1 .55-.6 39.55 39.55 0 0 0 3.62-3.64 3 3 0 0 1 .82-.78c.07 0 .14-.06.16-.17s.12-.31 1.13-1.11l.31-.24.21-.19 4.23-4.26c5.8-5.85 12.19-12.29 18.44-18.61l9.2-9.28a65 65 0 0 1 5.36-5 38.88 38.88 0 0 1 6.61-4.35 41 41 0 0 1 12.91-4 75.66 75.66 0 0 1 8.8-.74c4.77-.14 8.13-.06 11.22 0l9 .08 28.68.39 31.81.57c10.36.14 34.78.59 59.66 1.23s50.25 1.44 62.53 1.91c27.92 1 74.49 2.92 117.75 5.21 10.82.57 21.42 1.1 31.58 1.77 5.07.34 10 .71 14.8 1.12 2.44.21 4.43.4 9.45.92 2.16.21 4.22.53 6.29.79 1 .17 1.85.46 2.78.67s1.84.45 2.67.72a24.52 24.52 0 0 1 7.83 4.31 16.78 16.78 0 0 1 4.6 5.95 14.06 14.06 0 0 1 1.08 3.69 13.36 13.36 0 0 1 0 3.79 14.1 14.1 0 0 1-2.16 5.64 11.12 11.12 0 0 1-1.72 2.15l-2.58 2-2.44 1.91-.59.45a1.29 1.29 0 0 1-.32.22l-.44.19-1.72.74-6.3 2.7-4.4 1.84-23.4 9.81-16.29 6.79-9 3.68a16.56 16.56 0 0 0-1.8.82 1.43 1.43 0 0 1-.34.26 2.57 2.57 0 0 0-.83.65c-.19.23-.23.24-.3.06s-.11-.16-.2 0a2.06 2.06 0 0 1-1.45.61.59.59 0 0 0-.47.13.77.77 0 0 1-.74.33c-.21 0-.26 0-.21.15s-.72.31-1 .15c-.06 0-.22 0-.36.09a2.24 2.24 0 0 1-.73.23 1.27 1.27 0 0 0-.66.29c-.12.15-.23.18-.33.1a.49.49 0 0 0-.4 0 16.92 16.92 0 0 0-1.6.81 3.08 3.08 0 0 1-1.48.23c-.09-.07-.21 0-.37.17s-.28.25-.45.14-.84.11-1.88.64c-.24.13-.4.15-.42.06s-.17-.1-.35 0c-1 .31-2.35 0-2.33-.46a.43.43 0 0 0-.27-.33c-.14-.07-.25-.18-.23-.27s-.07-.1-.19-.06-.2 0-.13-.15a1.21 1.21 0 0 0-.52-1 .22.22 0 0 1 .03-.66z" fill="#000000" class="fill-000000"></path><path d="M173 610.16c-19.92-14.53-51.95-42.53-77.95-63.81a16.23 16.23 0 0 1 6.7-28.35c15.52-3.57 31.57-5.38 47.44-7q161.52-16.86 324.13-19.11c6.56-.09 13.44-.09 19.24 3 7.31 3.86 11.41 11.75 15.07 19.16q21.38 43.38 42.76 86.74" fill="#fff6ed" class="fill-fff6ed"></path><path d="M158.36 593.56h385.73v356.92H158.36z" fill="#000000" class="fill-000000"></path><path d="M544 945a2 2 0 0 0-.09.83c0 .41 0 .74-.09.74s-.08.12 0 .26 0 .3-.06.35-.18.38 0 .26.13 0 .06 0a.37.37 0 0 1-.23.12c-.16 0-.17.07-.06.38a.64.64 0 0 1 0 .47 2.13 2.13 0 0 0-.13.65 3.23 3.23 0 0 1-.13.65.85.85 0 0 0 0 .58c.11.24.11.33 0 .33s-.11.06 0 .19.11.22 0 .28-.18 1.53 0 1.61.07.07-.07.08-.22.11-.18.45a1 1 0 0 1-.09.61.25.25 0 0 0 0 .36c.12.14.12.22 0 .29s-.11.25-.06.49a.76.76 0 0 1-.08.6c-.09.11-.12.2-.06.2s0 .09-.07.2-.12.22.06.29.18.13.07.26a1.93 1.93 0 0 0-.18.81 1.32 1.32 0 0 1-.18.72 1 1 0 0 0-.25.43c-.09.32-.08.33.14.14s.24-.18.09.11-.23.27-.31.22-.12 0-.06.19a.87.87 0 0 1-.22.73c-.5.72-.68.79-2 .83a1.43 1.43 0 0 0-.71.12c0 .05-.17.07-.37.05a2.3 2.3 0 0 0-.74.07 2 2 0 0 1-1-.08c-.53-.16-.61-.16-.69 0s-.12.18-.23.07a.33.33 0 0 0-.33-.07c-.11 0-.19 0-.19-.07s-.22-.12-.48-.1a.88.88 0 0 1-.55-.08 3.46 3.46 0 0 0-1.57.1.12.12 0 0 1-.16 0 3.47 3.47 0 0 0-1.1-.09 2.62 2.62 0 0 1-1-.1c0-.1-.3-.07-1.33.14-.33.07-.61.07-.65 0a.14.14 0 0 0-.19-.05.13.13 0 0 1-.19 0 1.68 1.68 0 0 0-.76-.09c-.38 0-.68 0-.68-.08s-.65-.16-.74 0 0 .16.09.2.14.07 0 .08a.29.29 0 0 1-.25-.19c-.06-.15-.16-.16-.42-.06a.72.72 0 0 1-.46 0 2.22 2.22 0 0 0-1-.22l-193.47-.17-110.83-.08h-71.09v-49.78c.06-64.12.1-119.92.13-162.73v-16.67c0-23.64 0-50.12.07-80.47V584.38c0-.09 0-.1.11-.09h56.08l301.55.14h46.3c.06 0 0 .08 0 .11V706.74c0 46.32-.05 85.09-.06 105.14v77.71c0 2.32 0 22.8.06 45.43l-.06 4.15a29.83 29.83 0 0 0 0 3.51c.06 0 .06.2 0 .37a.81.81 0 0 0 0 .47.46.46 0 0 1-.1.37.35.35 0 0 0 0 .41 4 4 0 0 1-.16 1.77 2.15 2.15 0 0 0 0 .74.67.67 0 0 1-.15.71 1 1 0 0 0-.24.65c0 .62-1.36 1.9-1.83 1.72a.77.77 0 0 0-.54.19c-.19.15-.41.24-.49.19s-.13 0-.13.06-.21.11-.58 0a7.5 7.5 0 0 0-2.45 0 .39.39 0 0 1-.41 0 4.06 4.06 0 0 0-1.32-.1 7 7 0 0 1-1.42-.06 1 1 0 0 0-.55 0 .93.93 0 0 1-.57 0 12.55 12.55 0 0 0-2-.17 14.62 14.62 0 0 1-1.91-.16.5.5 0 0 0-.43.06 3.62 3.62 0 0 1-1.85.1l-.7-.16c-1.24-.22-1.58-.79-1.65-2.71a1.56 1.56 0 0 0-.15-.77c-.07 0-.06-.34 0-.68a3.58 3.58 0 0 0 0-1.27 2.29 2.29 0 0 1 0-.81 39.54 39.54 0 0 0 0-5.14 3.28 3.28 0 0 1 0-1.13c.07 0 .06-.14 0-.23s-.12-.3 0-1.58v-16.7c0-22 0-46.13.07-69.82 0-47.38 0-92.79.05-114.42 0-46.27 0-51.68.08-129.2v-1.62c0-.08-.08 0-.12 0H168.07c-.1 0-.08.06-.08.12v2.18c0 36.59-.07 85.24-.12 141.49 0 40.49-.06 84.12-.09 127.71v65.47c0 .06.08 0 .12 0H210.14l178.17.07h135.56a13.8 13.8 0 0 0 2-.09 1.4 1.4 0 0 1 .4-.11 2.27 2.27 0 0 0 1-.3c.26-.14.31-.13.31.06s0 .19.18.07a2.09 2.09 0 0 1 1.56 0 .55.55 0 0 0 .47.06.77.77 0 0 1 .8 0c.19.1.25.09.25-.06s.77 0 .95.21a.43.43 0 0 0 .36.05 2.31 2.31 0 0 1 .76 0 1.17 1.17 0 0 0 .71 0c.16-.09.27-.08.34 0a.43.43 0 0 0 .35.16 14.4 14.4 0 0 0 1.76-.17 2.91 2.91 0 0 1 1.43.31c.06.1.19.09.41 0s.33-.14.45 0 .82.21 1.95.07c.26 0 .42 0 .4.09s.13.15.31.16c1 0 2.16.79 2 1.25a.44.44 0 0 0 .13.4c.11.11.17.26.13.33s0 .12.15.12.19 0 .07.19a1.21 1.21 0 0 0 .14 1.11.22.22 0 0 1 .36.29z" fill="#000000" class="fill-000000"></path><path d="M544.08 593.56h287.78v356.92H544.08z" fill="#fff6ed" class="fill-fff6ed"></path><path d="M831.75 945a1.66 1.66 0 0 0-.09.83c0 .41 0 .74-.1.74s-.08.12 0 .26 0 .3-.06.35-.18.38 0 .26.12 0 0 0a.37.37 0 0 1-.23.12c-.16 0-.17.07-.05.38a.69.69 0 0 1 0 .47 3 3 0 0 0-.13.65 3.23 3.23 0 0 1-.13.65.8.8 0 0 0 0 .58c.11.24.11.33 0 .33s-.1.06 0 .19.11.22 0 .28-.18 1.53 0 1.61.08.07-.07.08-.22.11-.18.45a1 1 0 0 1-.09.61.25.25 0 0 0 0 .36c.12.14.12.22 0 .29s-.11.25-.06.49a.76.76 0 0 1-.08.6c-.09.11-.11.2-.06.2s0 .09-.07.2-.12.22.06.29.18.13.08.26a1.89 1.89 0 0 0-.19.81 1.32 1.32 0 0 1-.18.72 1 1 0 0 0-.24.43c-.1.32-.09.33.14.14s.23-.18.08.11-.23.27-.31.22-.11 0-.06.19 0 .43-.22.73c-.5.72-.68.79-2 .83a1.43 1.43 0 0 0-.71.12c0 .05-.17.07-.37.05a2.33 2.33 0 0 0-.74.07 2 2 0 0 1-1-.08c-.53-.16-.61-.16-.69 0s-.12.18-.23.07a.33.33 0 0 0-.33-.07c-.11 0-.19 0-.19-.07s-.22-.12-.48-.1a.88.88 0 0 1-.55-.08 3.46 3.46 0 0 0-1.57.1.12.12 0 0 1-.16 0 3.47 3.47 0 0 0-1.1-.09 2.66 2.66 0 0 1-1-.1c0-.1-.3-.07-1.32.14-.34.07-.62.07-.66 0a.14.14 0 0 0-.19-.05.14.14 0 0 1-.19 0 1.62 1.62 0 0 0-.76-.09c-.37 0-.68 0-.68-.08s-.64-.16-.74 0a.15.15 0 0 0 .09.2c.14.05.14.07 0 .08a.29.29 0 0 1-.25-.19c-.06-.15-.16-.16-.41-.06a.76.76 0 0 1-.47 0 2.22 2.22 0 0 0-1-.22l-167.37-.17-101.06-.08h-9.06V867.21c0-55.42.1-103.64.13-140.64v-14.66c0-20.44 0-43.35.06-69.6V584.26h50.14l115.06.07h140.74c.1 0 .23 0 .19.1v23c-.05 87-.11 186.39-.13 221.08s0 65 0 67.21c0 2 0 19.72.06 39.3 0 .4 0 2.27-.06 4.15a29.83 29.83 0 0 0 0 3.51c.06 0 .06.2 0 .37a.9.9 0 0 0 0 .47.46.46 0 0 1-.1.37.35.35 0 0 0 0 .41 3.8 3.8 0 0 1-.16 1.77 2.43 2.43 0 0 0 0 .74.67.67 0 0 1-.15.71 1 1 0 0 0-.24.65c0 .62-1.36 1.9-1.83 1.72a.77.77 0 0 0-.54.19c-.19.15-.41.24-.48.19s-.14 0-.14.06-.21.11-.58 0a7.5 7.5 0 0 0-2.45 0 .4.4 0 0 1-.41 0 4.06 4.06 0 0 0-1.32-.1 7 7 0 0 1-1.42-.06 1 1 0 0 0-.54 0 .93.93 0 0 1-.57 0 12.73 12.73 0 0 0-2-.17 14.62 14.62 0 0 1-1.91-.16.5.5 0 0 0-.43.06 3.62 3.62 0 0 1-1.85.1l-.7-.16c-1.23-.22-1.57-.79-1.65-2.71a1.74 1.74 0 0 0-.14-.77c-.07 0-.06-.34 0-.68a3.58 3.58 0 0 0 0-1.27 2.29 2.29 0 0 1 0-.81 39.54 39.54 0 0 0 0-5.14 3.28 3.28 0 0 1 0-1.13c.07 0 .06-.14 0-.23s-.12-.3 0-1.58v-14.51c0-19 0-39.89.07-60.38 0-41 0-80.25.05-99 0-40 0-44.69.09-111.74 0-16.55 0-32.85.07-45.8v-.46a2.32 2.32 0 0 0-.37 0H554.17v.54c0 31.67-.08 73.77-.12 122.42 0 67.9-.12 146.25-.17 213.84v.27h258.18a13.68 13.68 0 0 0 2-.09 1.4 1.4 0 0 1 .4-.11 2.37 2.37 0 0 0 1-.3c.26-.14.3-.13.3.06s0 .19.18.07a2.09 2.09 0 0 1 1.56 0 .55.55 0 0 0 .47.06.77.77 0 0 1 .8 0c.19.1.25.09.25-.06s.77 0 1 .21c0 .06.2.08.36.05a2.27 2.27 0 0 1 .75 0 1.16 1.16 0 0 0 .71 0c.16-.09.27-.08.34 0a.43.43 0 0 0 .35.16 14 14 0 0 0 1.76-.17 3 3 0 0 1 1.44.31c.06.1.18.09.4 0s.34-.14.46 0 .81.21 1.94.07c.26 0 .42 0 .4.09s.13.15.31.16c1 0 2.16.79 2 1.25a.44.44 0 0 0 .13.4c.11.11.17.26.13.33s0 .12.15.12.19 0 .07.19a1.21 1.21 0 0 0 .14 1.11.22.22 0 0 1-.11.39z" fill="#000000" class="fill-000000"></path><path d="M551.35 602.67 591.48 656c4.32 5.74 8.91 11.7 15.43 14.72 6 2.76 12.79 2.7 19.36 2.59 80.28-1.36 158.21 1.14 238.22.25a10.4 10.4 0 0 0 9.43-14.46c-10.41-24.51-22.45-50.51-40.4-68.74" fill="#fff6ed" class="fill-fff6ed"></path><path d="M176.12 605.69c-.08 0-.33.27-.56.61s-.46.59-.51.55-.13 0-.18.19-.16.25-.25.25c-.24 0-.37.2-.14.22s.13 0 0 .06a.38.38 0 0 1-.26 0c-.12-.1-.17 0-.26.27a.76.76 0 0 1-.29.37 2.75 2.75 0 0 0-.49.45 2.13 2.13 0 0 1-.49.44.89.89 0 0 0-.3.5c-.06.26-.11.33-.2.27s-.11 0-.1.16 0 .24-.15.23-1.06 1.12-.94 1.32 0 .1-.1 0-.24 0-.41.26a.93.93 0 0 1-.44.43c-.14 0-.2.13-.19.31s0 .25-.17.23-.24.14-.34.36a.75.75 0 0 1-.41.44c-.14 0-.22.08-.17.12s0 .09-.18.12-.23.1-.12.27.07.21-.1.25a2 2 0 0 0-.63.54 1.37 1.37 0 0 1-.58.48.91.91 0 0 0-.45.19c-.27.19-.27.21 0 .2s.3 0 0 .13-.35.08-.38 0-.1-.06-.16.12-.27.34-.62.45c-.84.27-1 .22-2.14-.55-.33-.23-.63-.39-.66-.35s-.18 0-.33-.19a2.74 2.74 0 0 0-.65-.41 2 2 0 0 1-.74-.67c-.34-.46-.41-.51-.59-.4s-.21.06-.23-.09a.34.34 0 0 0-.22-.27c-.11 0-.16-.11-.12-.17s-.1-.23-.32-.38-.41-.33-.4-.41a3.88 3.88 0 0 0-1.33-.9.12.12 0 0 1-.1-.14 3.42 3.42 0 0 0-.82-.76c-.46-.36-.8-.68-.77-.73s-.2-.24-1.15-.72c-.31-.16-.53-.33-.52-.42a.14.14 0 0 0-.13-.15.15.15 0 0 1-.12-.16c0-.08-.24-.33-.54-.55s-.53-.45-.49-.5-.41-.53-.59-.46-.1.12 0 .21.06.14-.06.06a.29.29 0 0 1-.08-.3c.05-.16 0-.23-.29-.32a.78.78 0 0 1-.4-.25 2.37 2.37 0 0 0-.64-.79l-.18-.17h-.05l-1-.79-3.2-2.75c-4.45-3.64-9.49-7.8-15.21-12.59-11.52-9.7-26-21.84-44.17-37.15a25.91 25.91 0 0 1-3.26-3.8 25.08 25.08 0 0 1-1.32-2.17 14.55 14.55 0 0 1-1.13-2.27c-.32-.78-.62-1.57-.91-2.36s-.42-1.63-.61-2.45c-.09-.41-.2-.81-.25-1.23l-.14-1.24c-.07-.82-.19-1.65-.18-2.48a27.53 27.53 0 0 1 1.69-9.62c.31-.76.65-1.5 1-2.24.18-.36.34-.74.54-1.09l.64-1.05c.45-.69.86-1.4 1.36-2s1-1.27 1.58-1.89a25.09 25.09 0 0 1 7.85-5.78 18.69 18.69 0 0 1 2.21-1c.75-.25 1.51-.48 2.27-.7l.57-.17a4.79 4.79 0 0 1 .51-.13l.77-.18 1.54-.34c4.11-.89 8.17-1.65 12.19-2.32 8-1.35 15.87-2.33 23.44-3.17s14.85-1.55 21.94-2.26c28.32-2.82 53-4.92 72.14-6.44 20-1.58 44.94-3.41 78.16-5.36s74.8-3.92 128.2-5.14l16.25-.33 16.39-.26c2.68 0 5.45-.1 8.48 0a50.79 50.79 0 0 1 9.61 1.12 35.45 35.45 0 0 1 5.09 1.58 30.33 30.33 0 0 1 4.91 2.52 34.61 34.61 0 0 1 7.63 6.76 68.76 68.76 0 0 1 8.53 13.79l5.5 11.19 8 16.27c7.5 15.28 14.08 28.6 14.61 29.57.26.5 1.5 3 3.28 6.54 1.44 2.93 3.34 6.76 5.33 10.78.16.35 1 2 1.77 3.75a29.5 29.5 0 0 0 1.6 3.12c.07 0 .14.15.16.33a.91.91 0 0 0 .16.45.42.42 0 0 1 .08.37.36.36 0 0 0 .15.39 3.74 3.74 0 0 1 .65 1.65 2.15 2.15 0 0 0 .36.65c.21.29.26.45.17.7a1 1 0 0 0 .08.69c.27.56-.38 2.3-.88 2.35-.12 0-.3.2-.4.42s-.27.39-.35.38-.13 0-.1.11-.14.19-.49.31a7.39 7.39 0 0 0-2.2 1.08.41.41 0 0 1-.38.16 3.81 3.81 0 0 0-1.23.49 6.84 6.84 0 0 1-1.3.58.84.84 0 0 0-.49.24.93.93 0 0 1-.51.24 12.6 12.6 0 0 0-1.85.72 13.44 13.44 0 0 1-1.78.7.45.45 0 0 0-.35.24 3.67 3.67 0 0 1-1.62.91 6.46 6.46 0 0 0-.7.17c-1.2.34-1.76 0-2.68-1.71-.17-.33-.38-.61-.47-.62s-.2-.28-.28-.62a3.41 3.41 0 0 0-.53-1.15 2.13 2.13 0 0 1-.38-.72 38.57 38.57 0 0 0-2.25-4.62 3.05 3.05 0 0 1-.47-1c0-.06 0-.15-.11-.2s-.25-.22-.67-1.44c0-.1-.08-.23-.13-.37v-.18l-3-6.09c-4.1-8.37-8.61-17.58-13-26.61l-12.51-25.47-5.1-10.36-2.09-4.25c-.63-1.26-1.18-2.37-1.67-3.3a41.28 41.28 0 0 0-5.24-8.21 12.64 12.64 0 0 0-4.46-3.47c-1.68-.74-4.14-1.36-8.56-1.49-1.11 0-2.32-.05-3.7 0l-4.54.05-11 .15c-16.6.22-32.71.61-35.82.72-11.67.31-39.16 1.22-67.16 2.52s-56.54 3-70.35 3.9c-31.4 2-83.75 5.93-132.29 11-12.16 1.22-23.9 2.47-34.77 4.24-2.72.44-5.39.91-8 1.42l-3.85.78-1.89.42a10 10 0 0 0-1.52.38 5.57 5.57 0 0 0-2.7 1.46 7 7 0 0 0-1.66 2.45 6.52 6.52 0 0 0 .31 5.33c.11.17.19.36.29.54a3.64 3.64 0 0 1 .4.48 1.44 1.44 0 0 0 .18.25l.25.21c.16.15.32.3.46.46l4.44 3.67 13.49 11.23 20.7 17.36c4.72 3.94 9.89 8.25 15.24 12.63l8 6.52.3.24a14 14 0 0 0 1.57 1.13 1.66 1.66 0 0 1 .38.17 2.3 2.3 0 0 0 .95.37c.29 0 .32.09.2.24s-.08.17.1.17a2 2 0 0 1 1.22.92c.07.17.22.32.32.33a.72.72 0 0 1 .64.46c.09.19.14.22.23.1s.62.45.61.75c0 .07.11.18.25.26a2.15 2.15 0 0 1 .55.49 1.06 1.06 0 0 0 .57.41c.18 0 .26.1.24.22a.43.43 0 0 0 .18.34 13.43 13.43 0 0 0 1.46.91 2.89 2.89 0 0 1 .93 1.1c0 .11.09.18.32.22s.34.09.34.29.51.65 1.47 1.19c.22.12.32.24.26.3s0 .2.14.31c.73.6 1.21 1.88.8 2.15a.46.46 0 0 0-.13.4c0 .16 0 .31-.1.34s0 .11.05.19.12.14-.05.19a1.23 1.23 0 0 0-.56 1 .22.22 0 0 1-.3.1zM547.08 606a1.89 1.89 0 0 0 .71-.43c.32-.26.61-.43.65-.37s.14 0 .23-.13.23-.2.32-.16.4-.09.19-.18-.12-.07 0-.06a.36.36 0 0 1 .24.11c.1.13.16.09.33-.18a.79.79 0 0 1 .39-.28 2.41 2.41 0 0 0 .6-.28 2.7 2.7 0 0 1 .6-.29.85.85 0 0 0 .43-.38c.13-.23.2-.29.26-.2s.11 0 .15-.12.11-.23.21-.19 1.33-.77 1.28-1 0-.1.1 0 .22.11.47-.13a1 1 0 0 1 .54-.29.26.26 0 0 0 .28-.24c0-.17.1-.22.22-.18s.27-.06.43-.24a.73.73 0 0 1 .53-.3c.14 0 .23 0 .19-.07s.06-.07.2-.07.25 0 .2-.22 0-.22.16-.21a2.07 2.07 0 0 0 .76-.34 1.36 1.36 0 0 1 .69-.3.83.83 0 0 0 .49-.06c.31-.11.31-.12 0-.19s-.28-.08 0-.13.35 0 .36.12.08.08.19-.08a.86.86 0 0 1 .71-.26c.88 0 1 .07 1.86 1.08.25.31.48.53.52.5s.16.09.27.27a2.55 2.55 0 0 0 .49.55 1.88 1.88 0 0 1 .53.82c.19.53.24.59.44.53s.22 0 .2.15a.32.32 0 0 0 .14.31c.09.06.12.14.05.19s0 .25.21.44.3.42.27.5a3.55 3.55 0 0 0 1 1.19.11.11 0 0 1 .06.15 3.26 3.26 0 0 0 .59.94c.34.45.59.84.54.88s.12.28.91 1c.25.22.42.44.39.52a.14.14 0 0 0 .08.18.14.14 0 0 1 .07.18 1.54 1.54 0 0 0 .39.66c.24.29.39.56.34.6s.26.6.45.59.12-.1.1-.2 0-.15.06 0a.27.27 0 0 1 0 .31c-.09.14 0 .22.19.37s.31.26.32.34a2.27 2.27 0 0 0 .42.91l.14.21v.06c.17.22.33.45.5.68l1.65 2.2 7.85 10.51 10.12 13.51 6 8c2.15 2.86 4.27 5.8 6.42 8.27a29.13 29.13 0 0 0 4.53 4.34 15.24 15.24 0 0 0 2.16 1.35 12.1 12.1 0 0 0 2.26.9c3.3 1 7.9 1.14 13.07 1l15.5-.18 14.71-.09c19-.07 35.58 0 48.38.13l52.25.52c22.18.22 49.89.58 85.4.5l21.7-.11h.57a.2.2 0 0 1 .1 0 .33.33 0 0 0 .18 0h.15s.08 0 .13-.06a1.32 1.32 0 0 0 .52-.44 1.55 1.55 0 0 0 .23-.65 1.43 1.43 0 0 0-.1-.64c-5-12-9.57-21.72-12.05-26.64s-4.9-9.45-6.82-12.75-3.28-5.44-3.5-5.71-1.16-1.76-2.56-3.86c-.72-1-1.52-2.24-2.43-3.5l-2-2.66c-.2-.32-1.26-1.69-2.32-3.08-.54-.7-1-1.33-1.43-1.76a4.64 4.64 0 0 0-.68-.7c-.07 0-.17-.1-.22-.26a.75.75 0 0 0-.25-.36.41.41 0 0 1-.15-.32.32.32 0 0 0-.22-.32c-.21-.05-.52-.55-1-1.32a1.86 1.86 0 0 0-.49-.48c-.27-.18-.35-.32-.33-.57a.9.9 0 0 0-.24-.6c-.39-.41-.22-2.22.23-2.43a.78.78 0 0 0 .26-.51c0-.24.14-.45.22-.47s.11-.08.06-.14.08-.22.38-.44a8.08 8.08 0 0 0 1.75-1.72.42.42 0 0 1 .3-.27 3.85 3.85 0 0 0 1-.85 6.48 6.48 0 0 1 1.06-.95 1 1 0 0 0 .38-.39 1 1 0 0 1 .42-.39 12.93 12.93 0 0 0 1.53-1.24 11.57 11.57 0 0 1 1.48-1.22.45.45 0 0 0 .26-.34 3.4 3.4 0 0 1 1.25-1.37c.17-.09.45-.26.62-.37 1-.68 1.72-.47 3.22 1a2.07 2.07 0 0 0 .69.52c.09 0 .29.23.49.56a4.6 4.6 0 0 0 .88 1.07 2.57 2.57 0 0 1 .61.65 16.12 16.12 0 0 0 1.45 1.83c.78.9 1.6 2 2.1 2.48a3.8 3.8 0 0 1 .73 1c0 .07 0 .15.16.18s.32.18 1 1.38l.21.36.16.24c.91 1.28 1.9 2.58 2.85 4a193.54 193.54 0 0 1 11 17.81c6.76 12.33 12 24.4 14.49 30.09.66 1.53 1.25 2.88 1.8 4.13.26.62.52 1.22.77 1.79l.36.85c.13.3.2.44.44 1.09a20.41 20.41 0 0 1 .58 13.35 20 20 0 0 1-3.43 6.74 20.46 20.46 0 0 1-7 5.84 16.76 16.76 0 0 1-2.44 1.05l-1.33.43c-.45.12-.91.21-1.38.31s-1 .2-1.44.26-1 .09-1.48.12c-1.22.08-1.5 0-2.09.06h-31.46c-7.84 0-26.31 0-45.11-.12l-47.23-.45c-21.07-.25-56.2-.64-88.79-.43-8.15 0-16.14.14-23.71.23a99 99 0 0 1-12.24-.32 37.4 37.4 0 0 1-13.2-3.7 38.49 38.49 0 0 1-9.85-7.33 75.71 75.71 0 0 1-6-7l-7.13-9.45-23.19-30.91a16.43 16.43 0 0 0-1.26-1.52 1.24 1.24 0 0 1-.33-.25 2.41 2.41 0 0 0-.84-.62c-.27-.12-.29-.16-.13-.27s.12-.15-.06-.19a2 2 0 0 1-1-1.23.57.57 0 0 0-.24-.41.76.76 0 0 1-.51-.62c0-.21-.08-.25-.2-.16s-.48-.61-.4-.9c0-.06-.06-.21-.18-.31a2.28 2.28 0 0 1-.41-.64 1.3 1.3 0 0 0-.45-.55c-.17-.07-.23-.16-.18-.28a.46.46 0 0 0-.09-.38 14.39 14.39 0 0 0-1.19-1.3 3 3 0 0 1-.62-1.34c0-.11 0-.2-.26-.31s-.31-.19-.25-.38-.32-.77-1.12-1.59c-.18-.19-.25-.34-.17-.38s.05-.19 0-.34c-.56-.81-.67-2.2-.2-2.33a.46.46 0 0 0 .25-.35c0-.16.1-.29.18-.3s.09-.09 0-.19-.08-.18.1-.17.83-.55.81-.78a.22.22 0 0 1 .33-.27z" fill="#000000" class="fill-000000"></path><path d="M158.48 599a1.59 1.59 0 0 0 .09-.82c0-.41 0-.75.09-.75s.08-.12 0-.26a.31.31 0 0 1 .06-.35c.2-.12.17-.38 0-.26s-.13.05-.06 0a.42.42 0 0 1 .24-.12c.15 0 .16-.07.05-.37a.72.72 0 0 1 0-.48 2.12 2.12 0 0 0 .13-.64 2.62 2.62 0 0 1 .14-.66.89.89 0 0 0-.05-.57c-.11-.25-.11-.33 0-.33s.1-.06 0-.2-.12-.22 0-.28a2.13 2.13 0 0 0 0-1.61c-.1 0-.07-.07.07-.08s.22-.1.18-.45a1 1 0 0 1 .09-.61.25.25 0 0 0 0-.36c-.12-.14-.12-.22 0-.29s.12-.25.06-.49a.76.76 0 0 1 .08-.6c.09-.11.12-.2.06-.2s0-.09.07-.2.12-.22-.06-.28-.18-.14-.07-.27a1.93 1.93 0 0 0 .18-.81 1.35 1.35 0 0 1 .18-.72 1 1 0 0 0 .25-.43c.1-.32.09-.32-.14-.14s-.24.19-.08-.1.23-.27.31-.22.11 0 .05-.2a.87.87 0 0 1 .22-.73c.5-.71.69-.79 2-.83a1.49 1.49 0 0 0 .71-.11c0-.06.17-.08.37-.06a2.62 2.62 0 0 0 .74-.06 1.9 1.9 0 0 1 1 .07c.54.17.62.16.69 0s.12-.18.23-.07a.35.35 0 0 0 .34.08c.1 0 .18 0 .18.06s.22.13.48.11.52 0 .56.08a3.56 3.56 0 0 0 1.56-.1.11.11 0 0 1 .16 0 3.33 3.33 0 0 0 1.1.1 2.74 2.74 0 0 1 1 .09c0 .11.3.07 1.33-.14.33-.07.61-.06.65 0a.15.15 0 0 0 .2 0 .15.15 0 0 1 .19 0 1.36 1.36 0 0 0 .75.09c.38 0 .69 0 .69.08s.64.16.74 0 0-.15-.1-.19-.13-.08 0-.08a.26.26 0 0 1 .25.18c.06.15.16.17.42.07a.66.66 0 0 1 .46-.05 2.52 2.52 0 0 0 1 .21H204.54l59.09.1 172.51.28 213.7.27 112.48.13H816.55l4.15.06a29.83 29.83 0 0 0 3.51 0c0-.06.2-.06.37 0a.73.73 0 0 0 .47 0 .49.49 0 0 1 .37.1.33.33 0 0 0 .41 0 3.74 3.74 0 0 1 1.77.15 2.46 2.46 0 0 0 .75 0c.35-.07.51 0 .7.15a1 1 0 0 0 .65.24c.62 0 1.9 1.35 1.72 1.82a.74.74 0 0 0 .2.54c.14.19.23.41.18.49s0 .13.06.13.11.21.06.58a7.29 7.29 0 0 0 0 2.45.39.39 0 0 1 0 .41 4.1 4.1 0 0 0-.1 1.32 7 7 0 0 1-.06 1.42 1 1 0 0 0 0 .55.93.93 0 0 1 0 .57 12.59 12.59 0 0 0-.17 2 15 15 0 0 1-.16 1.91.48.48 0 0 0 .06.42 3.63 3.63 0 0 1 .1 1.85c-.05.19-.12.5-.16.71-.22 1.23-.79 1.57-2.71 1.64a1.69 1.69 0 0 0-.77.15c-.05.07-.34.06-.68 0a3.57 3.57 0 0 0-1.27 0 2.29 2.29 0 0 1-.81 0 39.54 39.54 0 0 0-5.14 0 3 3 0 0 1-1.13 0c0-.06-.14-.06-.23 0s-.3.12-1.58 0H809.42l-30.72-.07h-50.35c-20.36 0-22.73 0-56.85-.09l-37.25-.1H491.13L238 603.27h-59.86a15.32 15.32 0 0 0-2 .09 1.87 1.87 0 0 1-.41.12 2.37 2.37 0 0 0-1 .29c-.26.15-.31.14-.31-.06s0-.19-.18-.07a2 2 0 0 1-1.55 0 .57.57 0 0 0-.48-.06.73.73 0 0 1-.8 0c-.19-.1-.24-.08-.24.07s-.78 0-1-.22a.52.52 0 0 0-.36 0 2.31 2.31 0 0 1-.76-.05 1.17 1.17 0 0 0-.71 0c-.16.09-.27.08-.33 0a.48.48 0 0 0-.36-.17 16.24 16.24 0 0 0-1.75.17 3 3 0 0 1-1.44-.31c-.06-.09-.19-.09-.4 0s-.34.13-.46 0-.82-.21-1.94-.07c-.27 0-.43 0-.41-.09s-.12-.15-.31-.16c-1 0-2.15-.78-2-1.24a.44.44 0 0 0-.13-.41c-.11-.11-.17-.26-.13-.33s0-.12-.15-.12-.19 0-.07-.19a1.21 1.21 0 0 0-.14-1.11.22.22 0 0 1 .16-.35z" fill="#000000" class="fill-000000"></path><path d="m469 248.21-.5-.76-2-3-7.33-11.13c-2.29-3.45-4.28-6.57-6.25-9.42l-3.85-5.61c-1.65-2.37-10.17-14.66-19.49-26.85S415.3 173.11 411.17 168s-7.36-9-13.19-15.82c-5.44-6.42-17-19.8-29.08-33.56l-9.1-10.32-4.46-5-1.12-1.3-1.46-1.56c-1-1-2-1.94-3-2.82a44.56 44.56 0 0 0-6.66-4.69l-.35-.21-.46-.3c-1.5-1-1.8-1-2-1a.33.33 0 0 1-.32-.13 5.4 5.4 0 0 0-1.59-.67l-2.13-.62c-.91-.21-1.89-.44-2.85-.61s-2-.22-2.79-.28-1.39 0-1.48 0a7.8 7.8 0 0 0-1.75.16c-.94.23-2.1.49-2.93.64a4.09 4.09 0 0 0-1.56.57 13.07 13.07 0 0 1-1.64.93 14.76 14.76 0 0 0-3 2.39.52.52 0 0 1-.23-.2c-.08-.16-.12-.17-.2 0s-.13.15-.18.09-.2-.08-.35 0a.43.43 0 0 1-.42-.06c-.34-.36-1.51.39-2 1.26-.09.17-.22.26-.28.22s-.18.07-.26.32c-.36 1.09-.68 1.69-.9 1.74s-.24.12-.23.41 0 .36-.15.37a3 3 0 0 0-.9 1.18 15.78 15.78 0 0 1-.6 1.67.5.5 0 0 1-.31.25c-.12 0-.18.11-.16.3a1.17 1.17 0 0 1-.29.65 2.41 2.41 0 0 0-.37.67c0 .15-.13.29-.2.31-.29.06-.78.69-.6.78s.13.12 0 .25a.78.78 0 0 0-.32.75c0 .11-.1.29-.25.4a2 2 0 0 0-.63 1.44c0 .18 0 .21-.15.13s-.2 0-.18.26a2.43 2.43 0 0 1-.15 1 1.25 1.25 0 0 0-.07.42 14.36 14.36 0 0 1-.75 1.83l-4.12 9-7.43 16.65c-4.52 10.37-8.08 18.82-9.72 22.78-5.91 14.1-21.56 52.52-35.66 95.11-.88 2.66-1.76 5.34-2.64 8l-1.33 4-.74 2.43a28.51 28.51 0 0 0-.85 4 18.31 18.31 0 0 0 4.11 14.79 19.27 19.27 0 0 0 6.29 4.75 23.71 23.71 0 0 0 3.76 1.44 29.58 29.58 0 0 0 3.59.81 39.26 39.26 0 0 0 11.19.06c3.27-.47 5.93-1 8.85-1.55 5.7-1.17 11.19-2.59 16.45-4.11 10.53-3 20.16-6.43 28.85-9.37s16.47-5.43 23.25-7.47a609.18 609.18 0 0 1 61.39-15c6.18-1.19 12.36-2.22 18.3-3.17l4.41-.67 3-.44 4.27-.57 16.44-2.11 7.72-1 1.87-.23.46-.06c.09.03.37.07.17-.1z" fill="url(#a)" class="fillurl(-a)"></path><path d="m744.5 328.89-1.85-1.34-6.93-5-3.17-2.29-1.69-1.14c-2.14-1.41-4-2.7-5.71-3.77-3.45-2.12-6.09-3.81-8.56-5.15s-4.6-2.62-7.06-3.84-5.11-2.64-8.62-4.24a226.06 226.06 0 0 0-35.8-13.12 216.45 216.45 0 0 0-22.77-4.93l-5.29-.81-.28-.06-.4-.09c-1.32-.31-1.46-.33-1.65-.23s-.2.05-.24 0a3.35 3.35 0 0 0-1.18-.17c-1.4-.05-5.18-.52-5.36-.6a2.52 2.52 0 0 0-.86 0 3.84 3.84 0 0 1-1.33-.14c-.35-.11-.65-.14-.71-.07a1.85 1.85 0 0 1-.82.08c-2-.08-2.63.22-2.94 1.43 0 .19-.14.5-.2.7a3.49 3.49 0 0 0 0 1.85.47.47 0 0 1 0 .43 9.72 9.72 0 0 0-.24 1.6c-.07-.06-.15-.12-.16-.16s-.09-.15-.26-.11v-.91c-.11.24-.23.47-.35.71a.39.39 0 0 0-.13 0 .88.88 0 0 1-.54-.21 2.44 2.44 0 0 0-.53-.41 2.61 2.61 0 0 1-.52-.4.69.69 0 0 0-.42-.22c-.32 0-.38-.07-.31-.21a.36.36 0 0 0 0-.27c0-.1 0-.08 0 0s-.22.14-.24-.09-.14-.19-.29-.21-.25-.09-.22-.15-.25-.24-.63-.41a1.69 1.69 0 0 1-.7-.44.22.22 0 0 0-.34-.18 1.22 1.22 0 0 1-1.07-.37c-.07-.17-.12-.17-.19 0s-.14.15-.18.08-.2-.08-.35 0a.45.45 0 0 1-.42-.06c-.34-.36-1.52.37-2 1.23-.09.16-.22.25-.28.2s-.18.07-.26.33c-.37 1.07-.69 1.66-.92 1.71s-.24.11-.23.4 0 .36-.15.37a3 3 0 0 0-.91 1.15c0 .19-.48 1.37-.62 1.66a.48.48 0 0 1-.31.24c-.12 0-.18.11-.17.29a1.14 1.14 0 0 1-.29.65 2.94 2.94 0 0 0-.38.66c0 .15-.13.29-.2.3-.29.06-.79.68-.61.77s.12.12 0 .24a.77.77 0 0 0-.33.74.57.57 0 0 1-.26.4 2.06 2.06 0 0 0-.66 1.4c0 .18 0 .21-.14.14s-.2-.05-.19.25a2.3 2.3 0 0 1-.17 1 1.53 1.53 0 0 0-.08.41 12.92 12.92 0 0 1-.78 1.8c-7.87 16.06-16.48 33.6-19.1 39-2.76 5.61-7.88 16-14.34 29.13l-12.29 24.95-5.46 11.16-1.38 2.83-.17.35c0 .1.21.1.31.15l.76.22 1.51.46 6.12 1.83 12.39 3.7 7.7 2.2c35.74 10.09 74.63 18.13 97.82 22.93l9.51 1.94 6.62 1.34c2 .38 4.14.9 6.26 1.2a14.21 14.21 0 0 0 5.82-.46 12.33 12.33 0 0 0 5.1-3.1 14.78 14.78 0 0 0 3.31-5.36c.77-2.25 1.4-4.63 2.12-7 .36-1.22.72-2.44 1.08-3.68 1.46-4.93 3-10 4.45-15.06 5.94-20.22 11.77-40.05 14.24-48.47.34-1.12 1.37-4.58 2.76-9.26.7-2.34 1.48-5 2.32-7.78s1.61-5.4 2.43-8.18l1.29-4.34.32-1.09.16-.55.08-.27z" fill="url(#b)" class="fillurl(-b)"></path><path d="M647.38 104.1c-.1-1.21-.18-2.32-.27-3.36-.26-2.06-.66-3.84-1-5.83s-1.09-4.08-2-6.73c-1.62-5-6.6-15-14.83-23.12A62.45 62.45 0 0 0 615.36 55l-3.67-1.66-.28-.15-.43-.23c-1.41-.81-1.63-.77-1.85-.73a.25.25 0 0 1-.28-.08 4.33 4.33 0 0 0-1.36-.46c-.82-.18-2.3-.69-3.66-1s-2.56-.52-2.67-.59a3.68 3.68 0 0 0-1-.16 5.75 5.75 0 0 1-1.59-.3 1.59 1.59 0 0 0-.87-.08 2.67 2.67 0 0 1-1 .08c-2.47-.07-3.2.25-3.48 1.47-.06.2-.14.51-.2.7a3.06 3.06 0 0 0 .12 1.85.44.44 0 0 1 .06.43A11.81 11.81 0 0 0 593 56a11.52 11.52 0 0 1-.19 2 .93.93 0 0 0 0 .57.91.91 0 0 1 0 .54 5.11 5.11 0 0 0-.06.82h-.16L579 67.8c-.16-.21-.36-.36-.53-.57a.76.76 0 0 0 .1-.15.77.77 0 0 1 .42-.4 2.83 2.83 0 0 0 .59-.31 2.1 2.1 0 0 1 .6-.28.59.59 0 0 0 .38-.29c.15-.29.21-.33.34-.18a.51.51 0 0 0 .28.15c.11 0 .1 0 0-.07s-.07-.3.19-.18a.28.28 0 0 0 .32-.16c.08-.13.19-.18.24-.11s.36-.09.67-.36.65-.44.75-.38.38 0 .32-.23.46-.9.77-.82.24 0 .07-.2-.14-.27 0-.26.15-.15.13-.36.05-.4.18-.42c.56 0-.1-2.09-1.36-3.26-.23-.23-.36-.44-.29-.49s-.09-.26-.48-.51A14.92 14.92 0 0 1 579.9 56c-.09-.24-.21-.32-.65-.41s-.56-.18-.6-.31a6.86 6.86 0 0 0-2-1.26l-2.73-.74a1 1 0 0 1-.5-.29c-.07-.13-.23-.18-.5-.15a3.07 3.07 0 0 1-1.09-.22 5.18 5.18 0 0 0-1.14-.24 1 1 0 0 1-.54-.12c-.24-.3-1.42-.58-1.43-.37s-.1.16-.38 0a1.63 1.63 0 0 0-1.21 0 1.27 1.27 0 0 1-.7-.06 3.84 3.84 0 0 0-2.3.1c-.2.14-.26.13-.28-.05s-.08-.19-.45 0a5.57 5.57 0 0 1-1.41.45 2.92 2.92 0 0 0-.57.21c-.09.07-1.36.27-2.76.66l-.53.14a31.54 31.54 0 0 0-6.74 2.7 41.6 41.6 0 0 0-9.73 7.58 81.06 81.06 0 0 0-8.92 11.58l-4.6 7.18a126.42 126.42 0 0 0-6.6 11.62 59.76 59.76 0 0 0-5.64 17.11 49.16 49.16 0 0 0 1.43 21 55.82 55.82 0 0 0 25.37 32.47 66.49 66.49 0 0 0 32 8.83 69.82 69.82 0 0 0 16.42-1.51 71.81 71.81 0 0 0 20.9-7.95 75.32 75.32 0 0 0 17.19-13.45 70.65 70.65 0 0 0 9.24-12.14c.37-.8 1.86-3.06 3.36-6.42a49.74 49.74 0 0 0 2.3-5.69c.35-1 .74-2.13 1.08-3.24l.84-3.45a53.74 53.74 0 0 0 1.39-11.3 25.53 25.53 0 0 0-.04-4.16z" fill="url(#c)" class="fillurl(-c)"></path><path d="M29.27 122.2a1.65 1.65 0 0 0 .79-.23c.37-.18.7-.28.72-.21s.14 0 .26-.07.27-.14.34-.08.42 0 .23-.13-.09-.1 0-.07a.41.41 0 0 1 .21.17c.06.15.13.13.36-.1a.77.77 0 0 1 .44-.17 2.57 2.57 0 0 0 .65-.13 2.65 2.65 0 0 1 .65-.13.91.91 0 0 0 .52-.27c.18-.2.26-.24.3-.13s.09.07.17-.09.16-.19.25-.12 1.48-.44 1.48-.66 0-.1.09 0 .19.16.49 0a1.06 1.06 0 0 1 .6-.16.25.25 0 0 0 .32-.16c.09-.16.16-.19.26-.12s.28 0 .48-.13a.74.74 0 0 1 .58-.17h.21c-.02 0 .07-.06.21 0s.25 0 .24-.16.05-.22.21-.17a2 2 0 0 0 .82-.15 1.38 1.38 0 0 1 .74-.12 1 1 0 0 0 .49.06c.33 0 .33 0 .07-.18s-.26-.15.07-.12.33.11.32.2 0 .1.2 0a.86.86 0 0 1 .76-.08c.85.18 1 .32 1.54 1.49.17.35.34.63.39.61s.13.12.19.32a2.41 2.41 0 0 0 .35.65 1.88 1.88 0 0 1 .31.93c.07.55.1.63.31.62s.21 0 .15.18a.37.37 0 0 0 .06.34c.08.08.08.17 0 .2s0 .24.1.48a.87.87 0 0 1 .14.54 3.44 3.44 0 0 0 .71 1.4.11.11 0 0 1 0 .16 3.39 3.39 0 0 0 .34 1 2.69 2.69 0 0 1 .32 1c-.1 0 0 .31.65 1.16.19.29.3.54.25.61a.14.14 0 0 0 0 .19.13.13 0 0 1 0 .2 1.54 1.54 0 0 0 .22.72c.17.34.25.64.19.66s.11.65.29.68a.14.14 0 0 0 .15-.16c0-.15 0-.15.07 0a.29.29 0 0 1-.07.3c-.12.11-.09.21.1.41a.7.7 0 0 1 .23.4 2.19 2.19 0 0 0 .19 1c0 .07 0 .15.08.23v.07c.08.17.15.35.22.53.24.54.48 1.1.72 1.69 1 2.34 2.14 5 3.44 8.07 2.62 6.1 5.9 13.75 10 23.39 12 27.67 22.93 52.46 29.9 68.06 7.32 16.36 18.14 40.62 38.25 83.77 8 17.29 17.39 37 20.64 43.86s6.16 12.84 6.41 13.26c.13.22.68 1.33 1.47 2.93l2.37 4.88c.17.35 1 2.05 1.75 3.75A31.46 31.46 0 0 0 168 392c.07 0 .15.15.16.33a.91.91 0 0 0 .16.45.39.39 0 0 1 .07.37.36.36 0 0 0 .16.39 3.89 3.89 0 0 1 .63 1.66 2.47 2.47 0 0 0 .35.65.64.64 0 0 1 .17.7 1.05 1.05 0 0 0 .07.69c.27.56-.39 2.3-.89 2.34-.12 0-.3.2-.4.41s-.27.39-.36.38-.13.05-.09.12-.14.19-.5.3a7.42 7.42 0 0 0-2.2 1.07.42.42 0 0 1-.38.16 3.86 3.86 0 0 0-1.23.48 6.58 6.58 0 0 1-1.31.57.93.93 0 0 0-.48.25 1 1 0 0 1-.52.23 13.38 13.38 0 0 0-1.85.71 13.33 13.33 0 0 1-1.78.69.47.47 0 0 0-.36.24 3.67 3.67 0 0 1-1.62.9c-.19 0-.51.11-.7.17-1.21.33-1.76 0-2.67-1.73a1.59 1.59 0 0 0-.47-.63c-.08 0-.2-.27-.27-.62a3.55 3.55 0 0 0-.53-1.16 2.49 2.49 0 0 1-.38-.72 38 38 0 0 0-2.22-4.64 3.08 3.08 0 0 1-.46-1c0-.06 0-.15-.11-.2s-.24-.22-.66-1.44l-.13-.37-.09-.24c-.43-.88-.87-1.8-1.31-2.74l-5.7-12-9.35-19.65c-3.82-7.93-4.24-8.87-10.44-22.25-3.13-6.78-6.17-13.35-6.76-14.62-2.25-4.74-7.49-15.93-12.76-27.38s-10.64-23.2-13.2-28.87c-5.79-12.9-15.43-34.43-24.27-54.5S46.44 172.83 43.46 166l-10.38-24a15.18 15.18 0 0 0-.86-1.77 1.72 1.72 0 0 1-.26-.33 2.55 2.55 0 0 0-.66-.8c-.24-.18-.25-.23-.07-.3s.16-.12 0-.2a2.08 2.08 0 0 1-.64-1.42.55.55 0 0 0-.13-.46.74.74 0 0 1-.34-.72c0-.22 0-.27-.16-.21s-.33-.7-.18-1c0-.06 0-.22-.1-.35a2.39 2.39 0 0 1-.25-.72 1.16 1.16 0 0 0-.3-.64c-.15-.12-.18-.22-.11-.32a.48.48 0 0 0 0-.39 14.41 14.41 0 0 0-.85-1.55 3 3 0 0 1-.28-1.45c.07-.09 0-.2-.18-.36s-.26-.26-.16-.43-.13-.83-.7-1.82c-.14-.23-.16-.39-.07-.4s.09-.18 0-.36c-.34-.91-.12-2.29.37-2.3a.46.46 0 0 0 .32-.28c.06-.15.17-.26.25-.25s.1-.07.06-.18 0-.2.14-.15a1.18 1.18 0 0 0 1-.56.22.22 0 0 1 .35-.08zM20.62 362.6a1.68 1.68 0 0 0 .73-.4c.32-.25.62-.41.66-.36s.14 0 .23-.12.24-.19.32-.15.41-.08.2-.17-.11-.08 0-.07a.35.35 0 0 1 .23.13c.09.12.16.09.34-.18a.75.75 0 0 1 .39-.26 2.91 2.91 0 0 0 .61-.26 2.24 2.24 0 0 1 .61-.27.85.85 0 0 0 .44-.37c.14-.23.21-.29.27-.2s.11.05.15-.11.12-.22.22-.18 1.35-.73 1.3-.95 0-.1.1 0 .22.12.48-.11a1 1 0 0 1 .55-.28c.15 0 .24-.06.28-.23s.11-.22.23-.17.28 0 .44-.23a.77.77 0 0 1 .53-.28c.15 0 .24 0 .2-.06s.06-.07.21-.06.25 0 .2-.21 0-.23.17-.22a2 2 0 0 0 .77-.31 1.25 1.25 0 0 1 .7-.27 1 1 0 0 0 .49 0c.31-.1.31-.12 0-.2s-.29-.09 0-.13.35 0 .36.13.07.09.19-.06a.86.86 0 0 1 .72-.24c.88 0 1 .11 1.84 1.17.23.31.46.55.5.52s.16.1.26.28a3 3 0 0 0 .49.58 1.93 1.93 0 0 1 .5.85c.17.55.22.61.42.56s.22 0 .19.15a.37.37 0 0 0 .13.33c.09.06.12.15.05.19s0 .25.2.46.28.44.25.51a3.52 3.52 0 0 0 1 1.25.13.13 0 0 1 .06.16 3.28 3.28 0 0 0 .55 1 2.69 2.69 0 0 1 .5.92c-.08.06.12.29.87 1 .25.25.4.48.37.55a.14.14 0 0 0 .07.19.15.15 0 0 1 .07.19 1.48 1.48 0 0 0 .36.68c.23.31.37.59.31.62s.24.63.43.62.13-.08.1-.18 0-.16.07-.05a.29.29 0 0 1 0 .32c-.09.13-.05.22.18.38s.3.28.3.36a2.45 2.45 0 0 0 .38.95 8 8 0 0 0 .46.77l1.1 1.73c.83 1.3 1.87 2.94 3.17 5 3.75 5.94 7 11.33 9.05 14.76 2.13 3.59 5.31 8.89 10.82 18.51 2.19 3.86 4.65 8.29 5.49 9.85s1.61 2.9 1.7 3a4.46 4.46 0 0 1 .41.64l.67 1.17c.18.35 1.07 2 2 3.71.44.84.85 1.61 1.17 2.17a6.76 6.76 0 0 0 .56.92c.07 0 .15.15.18.32a1 1 0 0 0 .18.45.42.42 0 0 1 .09.37.37.37 0 0 0 .18.39 4 4 0 0 1 .7 1.65 2.7 2.7 0 0 0 .38.65c.23.28.28.44.21.69a1 1 0 0 0 .1.7c.29.56-.3 2.33-.8 2.39-.12 0-.29.2-.39.42s-.25.4-.34.4-.13 0-.09.11-.13.2-.49.32a7.5 7.5 0 0 0-2.16 1.14.4.4 0 0 1-.38.17 4.23 4.23 0 0 0-1.21.53 6.69 6.69 0 0 1-1.29.61 1 1 0 0 0-.48.26 1 1 0 0 1-.5.26 11.87 11.87 0 0 0-1.83.76 14.75 14.75 0 0 1-1.76.76.46.46 0 0 0-.35.25 3.69 3.69 0 0 1-1.59.95l-.69.19c-1.2.38-1.76.05-2.72-1.59a1.58 1.58 0 0 0-.48-.6c-.09 0-.21-.27-.3-.6a3.51 3.51 0 0 0-.56-1.13 2 2 0 0 1-.4-.69 37.63 37.63 0 0 0-2.4-4.46 3.31 3.31 0 0 1-.51-1c0-.06 0-.15-.11-.19s-.26-.2-.73-1.38q-.06-.17-.15-.36l-.09-.21-.32-.61c-.44-.84-.92-1.76-1.4-2.66-1-1.79-1.91-3.5-2.38-4.31-1-1.71-1.13-1.91-2.69-4.86-.79-1.5-1.59-2.93-1.75-3.2l-7.16-12c-1.6-2.77-4.34-7.35-6.94-11.59s-5.07-8.09-6-9.5l-3.44-5.16a11.94 11.94 0 0 0-1.13-1.63 2.08 2.08 0 0 1-.32-.27 2.34 2.34 0 0 0-.79-.65c-.26-.13-.28-.17-.12-.28s.13-.14 0-.19a2 2 0 0 1-.89-1.25.52.52 0 0 0-.21-.42.74.74 0 0 1-.47-.64c0-.21-.06-.25-.18-.17s-.46-.61-.36-.9a.51.51 0 0 0-.16-.31 2.27 2.27 0 0 1-.38-.65 1.19 1.19 0 0 0-.42-.56c-.17-.08-.22-.17-.17-.29a.49.49 0 0 0-.06-.38 13.64 13.64 0 0 0-1.13-1.33 2.87 2.87 0 0 1-.55-1.35c.05-.1 0-.2-.24-.31s-.3-.2-.24-.38-.29-.78-1-1.61c-.18-.2-.23-.35-.15-.38s.05-.19 0-.35c-.52-.82-.58-2.19-.11-2.31a.45.45 0 0 0 .26-.34c0-.16.11-.29.19-.3s.09-.09 0-.19-.08-.18.11-.17.85-.52.83-.75a.22.22 0 0 1 .18-.22zM950.64 136.33c0 .08.33.27.71.42s.67.33.65.39.07.13.22.15.28.1.29.19c0 .24.27.32.25.09s0-.14 0 0a.42.42 0 0 1 0 .27c-.06.14 0 .18.32.2a.73.73 0 0 1 .43.21 2.2 2.2 0 0 0 .53.38 2.91 2.91 0 0 1 .54.39.85.85 0 0 0 .55.2c.26 0 .34 0 .3.13s0 .12.18.07.24 0 .26.1 1.31.8 1.48.64.1 0 0 .1 0 .24.34.35a1 1 0 0 1 .52.33.25.25 0 0 0 .34.13c.17-.05.24 0 .26.11s.18.21.42.26a.77.77 0 0 1 .52.32c.06.12.13.19.15.14s.09 0 .16.14.14.2.28.07.2-.11.27 0a2 2 0 0 0 .66.5c.31.16.58.37.59.46a.85.85 0 0 0 .29.4c.24.22.26.22.18-.07s-.07-.29.13 0 .15.32.07.38 0 .1.16.12.39.2.57.51c.44.75.44.95-.06 2.15-.15.36-.24.67-.19.69s0 .19-.11.36a2.5 2.5 0 0 0-.25.71 1.93 1.93 0 0 1-.47.85c-.37.43-.4.5-.26.65s.11.18 0 .24a.34.34 0 0 0-.21.27c0 .11-.07.18-.14.14s-.2.15-.29.4-.23.46-.31.47a3.59 3.59 0 0 0-.55 1.47.12.12 0 0 1-.11.13 3.22 3.22 0 0 0-.54 1 2.87 2.87 0 0 1-.52.9c-.09 0-.19.25-.42 1.27-.08.33-.2.58-.28.59a.15.15 0 0 0-.12.16.14.14 0 0 1-.12.15c-.08 0-.26.31-.4.66s-.3.61-.36.58-.41.53-.3.68a.13.13 0 0 0 .21 0c.11-.11.13-.1.07 0a.27.27 0 0 1-.27.15c-.16 0-.21.08-.23.35a.79.79 0 0 1-.14.45c-.16.1-.3.28-.61.81l-.12.21v.06l-.29.63-.94 2c-1.3 2.8-2.78 6-4.49 9.65-3.38 7.31-7.67 16.46-13.1 28-15.6 33.08-30.07 62.62-39.3 81.17l-8.26 16.57c-3.11 6.25-6.64 13.28-10.71 21.3-8.11 16.06-18.35 36.09-31.73 61.68-5.34 10.26-11.17 21.19-16.16 30.61s-9.25 17.24-11.43 21.31c-4.4 8.11-8.21 15.2-8.45 15.74-.13.28-.82 1.61-1.85 3.52l-3.13 5.76c-.19.35-1.11 2-2 3.62a29.88 29.88 0 0 0-1.64 3.11c0 .06 0 .21-.18.32a.91.91 0 0 0-.27.4.43.43 0 0 1-.26.27.35.35 0 0 0-.23.35 3.77 3.77 0 0 1-1 1.48 2.32 2.32 0 0 0-.33.67c-.11.35-.22.48-.47.55a1 1 0 0 0-.52.46c-.3.55-2.1 1-2.43.63a.72.72 0 0 0-.57-.09c-.23 0-.47 0-.51-.07s-.11-.08-.15 0-.23 0-.53-.23a7.4 7.4 0 0 0-2.15-1.18.42.42 0 0 1-.35-.22 3.93 3.93 0 0 0-1.1-.72 6.46 6.46 0 0 1-1.22-.74 1 1 0 0 0-.48-.25 1 1 0 0 1-.5-.29 12.4 12.4 0 0 0-1.64-1.1 13.33 13.33 0 0 1-1.6-1.05.48.48 0 0 0-.4-.16 3.46 3.46 0 0 1-1.67-.8c-.14-.13-.38-.35-.54-.47-1-.79-1-1.45-.15-3.17a1.59 1.59 0 0 0 .24-.75c0-.07.11-.32.34-.58a3.5 3.5 0 0 0 .64-1.1 2.1 2.1 0 0 1 .35-.79 39.67 39.67 0 0 0 2.47-4.49 3.3 3.3 0 0 1 .57-1c.08 0 .12-.09.1-.2s0-.32.79-1.37c.07-.09.14-.2.22-.32l.15-.22 1.77-3.21 7.66-14c5.21-9.53 10.09-18.71 12.41-23.09l13.95-26.1 9-17.16c2.89-5.62 9.68-18.87 16.6-32.37l17.23-34c7.67-15.21 20.32-40.66 31.82-64.44s21.88-45.87 25.69-54c1.06-2.3 3.32-7.2 6.12-13.24 2.1-4.59 4.6-10 7-15.24a14.51 14.51 0 0 0 .73-1.82 1.22 1.22 0 0 1 .07-.42 2.36 2.36 0 0 0 .14-1c0-.3 0-.34.18-.26s.19 0 .14-.13a2 2 0 0 1 .61-1.43.5.5 0 0 0 .25-.4.75.75 0 0 1 .3-.74c.17-.13.19-.19 0-.25s.3-.72.59-.78a.44.44 0 0 0 .19-.31 2.63 2.63 0 0 1 .36-.67 1.16 1.16 0 0 0 .27-.65c0-.19 0-.28.16-.3a.45.45 0 0 0 .3-.25 14.42 14.42 0 0 0 .57-1.67 3 3 0 0 1 .87-1.17c.12 0 .16-.14.15-.38s0-.36.21-.4.53-.66.87-1.74c.08-.26.17-.38.25-.33s.19-.05.27-.22c.45-.87 1.61-1.63 1.95-1.28a.48.48 0 0 0 .43 0c.15-.06.3 0 .35 0s.12 0 .18-.09.11-.16.19 0a1.23 1.23 0 0 0 1.08.34.22.22 0 0 1 .43.13zM899.47 469.43c0-.07-.23-.36-.54-.63s-.53-.52-.48-.57 0-.14-.17-.21-.23-.19-.21-.28-.16-.39-.21-.16-.05.13-.06 0a.5.5 0 0 1 .07-.26c.11-.12.07-.18-.23-.3a.68.68 0 0 1-.34-.33 2.86 2.86 0 0 0-.38-.54 2.32 2.32 0 0 1-.39-.54.86.86 0 0 0-.46-.36c-.25-.08-.31-.14-.24-.22s0-.12-.14-.13-.24-.06-.22-.18-1-1.17-1.2-1.08-.1 0 0-.1.07-.24-.21-.44a1 1 0 0 1-.38-.48.26.26 0 0 0-.28-.23c-.18 0-.24-.07-.22-.19s-.1-.26-.32-.38a.75.75 0 0 1-.38-.47c0-.14-.07-.22-.1-.18s-.09 0-.11-.18-.07-.24-.24-.16-.22 0-.25-.12a1.78 1.78 0 0 0-.46-.69 1.4 1.4 0 0 1-.42-.62.93.93 0 0 0-.14-.47c-.17-.29-.18-.29-.2 0s0 .3-.13 0 0-.35.05-.37.06-.09-.11-.17a.91.91 0 0 1-.39-.66c-.18-.85-.12-1 .72-2a1.58 1.58 0 0 0 .39-.59s0-.17.2-.31a2 2 0 0 0 .45-.58 1.9 1.9 0 0 1 .71-.65c.48-.28.53-.34.43-.52s0-.21.11-.21a.36.36 0 0 0 .28-.19c0-.1.11-.15.17-.09s.23-.08.39-.29.35-.36.43-.35a3.46 3.46 0 0 0 1-1.21.12.12 0 0 1 .14-.09 3.45 3.45 0 0 0 .79-.73 2.86 2.86 0 0 1 .75-.7c.08.07.26-.17.77-1.06.17-.29.35-.49.44-.47a.14.14 0 0 0 .16-.11.13.13 0 0 1 .16-.11c.07 0 .33-.21.56-.5s.46-.49.51-.44.53-.38.48-.55a.14.14 0 0 0-.21-.06c-.13.06-.14.05-.06-.06a.29.29 0 0 1 .3-.06c.15.06.23 0 .32-.26a.72.72 0 0 1 .26-.38 2.22 2.22 0 0 0 .8-.59 8.56 8.56 0 0 0 .8-.84c.58-.66 1.25-1.4 2-2.26l5.8-6.62c6.79-7.9 12.67-15.2 16.36-19.82 3.83-4.87 9.52-12.09 19-25.52 3.8-5.4 8-11.64 9.48-13.83s2.7-4.13 2.76-4.3a10.34 10.34 0 0 1 .57-1c.28-.45.65-1 1-1.65l2.24-3.42a26.46 26.46 0 0 0 1.79-3c0-.06.05-.2.19-.31a.86.86 0 0 0 .29-.37.4.4 0 0 1 .27-.25.35.35 0 0 0 .24-.34c0-.22.37-.71 1-1.41a2.21 2.21 0 0 0 .36-.64c.12-.33.23-.45.48-.51a1 1 0 0 0 .55-.43c.32-.52 2.13-.89 2.44-.5a.79.79 0 0 0 .57.12c.24 0 .47 0 .51.09s.11.09.15 0 .23 0 .52.25a7.57 7.57 0 0 0 2.1 1.27.41.41 0 0 1 .34.23 4.15 4.15 0 0 0 1.07.77 7.21 7.21 0 0 1 1.19.78.88.88 0 0 0 .47.28.91.91 0 0 1 .48.3 12.2 12.2 0 0 0 1.6 1.17 14.53 14.53 0 0 1 1.55 1.12.46.46 0 0 0 .39.17 3.61 3.61 0 0 1 1.64.87c.13.14.37.37.52.5.93.83.93 1.5 0 3.21a1.53 1.53 0 0 0-.28.74c0 .08-.13.32-.38.58a3.62 3.62 0 0 0-.71 1.08 2 2 0 0 1-.41.72 46.3 46.3 0 0 0-2.78 4.42 3 3 0 0 1-.65.95c-.07 0-.12.09-.11.2s-.06.33-.89 1.35l-.25.31-.14.19-.6.9-2.62 3.93-4.3 6.44c-1.71 2.62-1.9 2.93-5 7.19l-3.34 4.65c-2 3.11-10.19 14.32-12.94 17.78l-5.9 7.53c-2.33 2.88-4.82 6.06-7.32 9.05s-4.87 5.9-6.89 8.26l-4.47 5.26-2.78 3.28c-1 1.18-2.26 2.59-3.43 3.94a14.25 14.25 0 0 0-1.25 1.56 1.48 1.48 0 0 1-.19.38 2.5 2.5 0 0 0-.44 1c-.07.29-.11.32-.25.19s-.17-.1-.18.09a2.11 2.11 0 0 1-1 1.19.58.58 0 0 0-.37.32.77.77 0 0 1-.52.63c-.2.07-.23.13-.12.22s-.51.61-.81.58c-.07 0-.2.11-.28.24a2.35 2.35 0 0 1-.55.54 1.19 1.19 0 0 0-.46.56c-.05.18-.12.25-.25.23a.47.47 0 0 0-.36.16 15.39 15.39 0 0 0-1.08 1.44 3 3 0 0 1-1.21.86c-.12 0-.2.08-.26.31s-.14.35-.34.33-.71.46-1.39 1.4c-.15.22-.29.31-.34.24s-.2 0-.34.12c-.7.7-2 1.07-2.27.63a.41.41 0 0 0-.38-.18c-.16 0-.31-.05-.33-.13s-.11-.07-.19 0-.17.12-.19-.07a1.21 1.21 0 0 0-.91-.66.22.22 0 0 1-.23-.18zM387.53 362.62a1.62 1.62 0 0 0 .83.1c.41 0 .74 0 .74.1s.12.09.26 0 .3 0 .35.06.38.18.26 0 0-.13 0-.06a.37.37 0 0 1 .12.24c0 .16.08.17.38.05a.69.69 0 0 1 .47 0 2.13 2.13 0 0 0 .65.13 2.63 2.63 0 0 1 .65.14.8.8 0 0 0 .58-.05c.24-.11.33-.11.33 0s.06.1.19 0 .22-.11.28 0 1.53.18 1.61 0 .07-.07.08.07.11.22.45.18a1 1 0 0 1 .61.09.25.25 0 0 0 .36 0c.14-.11.22-.11.29 0s.25.12.49.06a.76.76 0 0 1 .6.08c.11.09.2.11.2.06s.09 0 .2.07.22.11.29-.06.13-.18.26-.07a1.81 1.81 0 0 0 .81.17 1.32 1.32 0 0 1 .72.18 1 1 0 0 0 .43.23c.32.09.33.09.14-.13s-.18-.23.11-.08.27.22.22.3 0 .1.19 0a1 1 0 0 1 .73.21c.71.47.79.64.85 1.86 0 .37.08.67.13.67s.08.16.06.35a2.1 2.1 0 0 0 .08.7 1.75 1.75 0 0 1-.05.92c-.14.51-.14.58.06.64s.18.11.07.22a.29.29 0 0 0-.06.32c0 .09 0 .17-.06.18s-.12.2-.08.45a.8.8 0 0 1-.06.53 3 3 0 0 0 .17 1.47.1.1 0 0 1 0 .15 3 3 0 0 0 0 1 2.46 2.46 0 0 1 0 1c-.1 0-.05.29.23 1.24.09.31.11.57.05.61a.13.13 0 0 0 0 .19.12.12 0 0 1 0 .18 1.3 1.3 0 0 0 0 .72c.05.35 0 .64 0 .65s-.1.62.07.69.15 0 .18-.1.06-.14.08 0a.26.26 0 0 1-.16.25c-.14.07-.15.17 0 .4a.65.65 0 0 1 .09.43 2 2 0 0 0-.11.95 4.66 4.66 0 0 1 0 .62v.68c0 .8 0 1.52-.05 2a24.44 24.44 0 0 0 0 2.45l.05 1.29c0 .2.05.38.09.38a.18.18 0 0 1 .06.08v.08a.77.77 0 0 0 0 .15c.05.37.29 2.13.56 3.9a22.78 22.78 0 0 0 .65 3.27c.07 0 .1.18.07.34a.7.7 0 0 0 0 .45.42.42 0 0 1 0 .36.32.32 0 0 0 0 .4 3.65 3.65 0 0 1 .19 1.68 2.09 2.09 0 0 0 .18.68.61.61 0 0 1 0 .69.92.92 0 0 0-.1.66c.13.57-.92 2.07-1.41 2-.11 0-.33.12-.49.31s-.34.31-.43.29-.13 0-.12.08-.18.16-.55.19a7.51 7.51 0 0 0-2.38.56.43.43 0 0 1-.41.08 4.05 4.05 0 0 0-1.3.2 6.29 6.29 0 0 1-1.4.27 1 1 0 0 0-.53.13.86.86 0 0 1-.55.12 14 14 0 0 0-2 .28 11.46 11.46 0 0 1-1.89.28.46.46 0 0 0-.4.16 3.45 3.45 0 0 1-1.78.52h-.72c-1.25.05-1.73-.45-2.24-2.43a1.78 1.78 0 0 0-.32-.76 1.19 1.19 0 0 1-.12-.71 4.49 4.49 0 0 0-.24-1.32 2.4 2.4 0 0 1-.2-.84c.06-.21-.64-4-.95-5.36a3.52 3.52 0 0 1-.17-1.19c.06-.05 0-.15-.05-.23s-.17-.3-.22-1.66v-1.14a3.39 3.39 0 0 0 0-.64 1.31 1.31 0 0 1 0-.73 2.19 2.19 0 0 0 0-.48 8.62 8.62 0 0 1-.21-1.8v-3.23l-.15-1.15a18.39 18.39 0 0 0-.29-2.05 1.34 1.34 0 0 1-.15-.42 2.65 2.65 0 0 0-.39-1c-.17-.26-.16-.31 0-.32s.18-.06.06-.2a2.31 2.31 0 0 1-.16-1.64.59.59 0 0 0 0-.5.82.82 0 0 1-.08-.84c.08-.2.07-.27-.08-.26s-.08-.81.15-1c0 0 .06-.22 0-.38a2.7 2.7 0 0 1 0-.8 1.3 1.3 0 0 0-.06-.74c-.1-.17-.1-.28 0-.36a.49.49 0 0 0 .14-.38c0-.34-.19-1.65-.24-1.84a3.2 3.2 0 0 1 .26-1.53c.09-.06.08-.2 0-.42s-.14-.35 0-.48.2-.87 0-2.05c0-.28 0-.45.09-.43s.15-.13.15-.33c.05-1 .79-2.26 1.25-2.07a.44.44 0 0 0 .4-.13c.11-.12.26-.18.33-.14s.12 0 .12-.15.05-.2.19-.08a1.18 1.18 0 0 0 1.11-.13.22.22 0 0 1 .31-.03zM298.9 228.62l-.16-.22c-.09-.11-.15-.2-.15-.2v-.08a.17.17 0 0 1-.07-.09c0-.05-.06-.12-.06-.07v-.05l-.07-.11a.4.4 0 0 1-.1-.12 1.11 1.11 0 0 0-.12-.18c0-.06-.1-.14-.12-.18a.79.79 0 0 0-.12-.15c-.06 0-.08-.08-.07-.08s0 0 0-.05-.06 0-.06-.08a2.31 2.31 0 0 0-.34-.42s0 0-.08-.13a2 2 0 0 1-.12-.17.28.28 0 0 0-.07-.09s-.06 0-.06-.07a1 1 0 0 0-.1-.14.74.74 0 0 1-.12-.16.14.14 0 0 1 0-.06c0-.05 0-.06-.07-.07a.11.11 0 0 1-.06-.06 1.42 1.42 0 0 0-.15-.22c-.07-.1-.14-.19-.14-.2a.76.76 0 0 0-.08-.13c-.06-.08-.06-.08 0 0s0 .06 0 0v-.07c0 .01 0 0 0 0l-.14-.2c-.12-.21-.12-.24-.06-.31v-.06h.07c.07 0 .06 0 0 0s0-.05 0 0 0 0 .05 0 .08-.07.05-.11.05 0 .08 0h.08c.02 0 0 0 0-.1s0-.05 0 0 0 0 .06 0h.06c.06 0 .07 0 0 0a.09.09 0 0 0-.05 0h.06s.05 0 0 0 0-.05 0 0 .11 0 .3-.18l.34-.33a2.89 2.89 0 0 0 .36-.47l.17-.26v-.15l.13-.3c.06-.14.09-.26.07-.27s0-.07.08-.12 0 0 0-.06 0-.05.06-.05h.09a1.53 1.53 0 0 1 .62 0h.54c.28.07.71.16.8.17a.29.29 0 0 1 .14 0l.42.09.47.11h.36l.64.16a5.52 5.52 0 0 1 .62.15h.14a2.47 2.47 0 0 1 .61.11l.22.07c.4.12.49.23.44.54a.16.16 0 0 0 0 .13v.1a.31.31 0 0 0-.06.19v.13a3.66 3.66 0 0 0-.26.78c0 .09-.06.16-.08.16s0 .06-.1.23a3.94 3.94 0 0 0-.29.5.67.67 0 0 1-.16.27l-.12.17a3.32 3.32 0 0 1-.38.68c-.23.29-.73.93-.85 1.07l-.22.31a1.27 1.27 0 0 0-.17.25.12.12 0 0 1 0 .08.28.28 0 0 0 0 .18c0 .06 0 .06 0 0s-.05 0 0 0-.06.19-.15.19h-.07s0 .1-.07.1-.05 0 0 0-.07.1-.15.06a.05.05 0 0 0-.05 0 .18.18 0 0 1-.09.08.09.09 0 0 0-.08.08s0 .05 0 0h-.08a1.11 1.11 0 0 0-.16.24.27.27 0 0 1-.23.07s0 .07-.06 0-.14 0-.25.18-.05 0-.06 0a.06.06 0 0 0-.08 0 .41.41 0 0 1-.49-.13.24.24 0 0 0-.1-.1.19.19 0 0 1-.08-.07.84.84 0 0 0-.24-.28.13.13 0 0 1-.21-.43zM315.06 215.57a2.4 2.4 0 0 0-.05-.27 1.32 1.32 0 0 1-.05-.24s0 0 0-.09v-.2c0 .04 0 0 0 0v-.12a.75.75 0 0 1 0-.16v-.43a1.67 1.67 0 0 0-.05-.18V213.71a.23.23 0 0 1 0-.09 1.78 1.78 0 0 0-.11-.53s0 0 0-.15a1.06 1.06 0 0 1 0-.2.27.27 0 0 0 0-.12v-.09a.35.35 0 0 0 0-.16.63.63 0 0 1 0-.2v-.31a2.32 2.32 0 0 0 0-.27.8.8 0 0 1 0-.24.71.71 0 0 0 0-.15c0-.1 0-.11 0 0s0 .07 0 0V211.05a.46.46 0 0 1 0-.24c0-.25.05-.28.24-.33s.1 0 .1-.05 0 0 .05 0a.14.14 0 0 0 .11 0 .13.13 0 0 1 .15 0h.11s0-.06 0 0 0 0 .05 0h.4c.03 0 0 0 0 0h.32s.05 0 .2-.05.09 0 .1 0h.22s.09.06.11 0 0-.05 0-.06v.07c0 .07 0 .05.06 0s.06 0 .07 0 .13.08.61.18a8.3 8.3 0 0 1 .85.22c.2.07.5.15 1 .34l.52.22a.31.31 0 0 0 .16.05s.06 0 .11 0l.55.25a1.62 1.62 0 0 0 .46.21s0 .05.06 0 0 0 0 .06 0 .05 0 0 .12 0 .2.17a.13.13 0 0 0 .1 0c.05 0 .07 0 .06.1a.14.14 0 0 0 0 .12c.08.05 0 .52-.13.64a.59.59 0 0 0-.08.16.35.35 0 0 1-.07.15.67.67 0 0 1-.11.16 7.46 7.46 0 0 0-.46.68.52.52 0 0 1-.07.11 2.88 2.88 0 0 0-.26.36l-.27.39a.78.78 0 0 0-.1.15 1.16 1.16 0 0 1-.11.16l-.38.53-.36.52-.08.12a4.15 4.15 0 0 1-.33.52l-.14.19c-.24.33-.33.42-.42.38a.07.07 0 0 0-.06 0s0-.05-.05 0-.15-.13-.23-.13H317.94c-.07 0-.12-.13-.16-.13s0 0-.09-.06l-.06-.06a.72.72 0 0 1-.27-.07 1.32 1.32 0 0 0-.46-.19h-.25a.24.24 0 0 0-.05.09c0 .05 0 .05 0 0s0-.06 0 0-.06.07-.08 0 0 .06 0 0 0 0-.06-.07 0-.05 0-.05a.18.18 0 0 0-.09.06s-.08 0-.09-.09-.05-.07-.11 0-.17-.23-.2-.38a.61.61 0 0 0 0-.13.76.76 0 0 1 0-.11v-.06a2.36 2.36 0 0 0-.09-.36.21.21 0 0 1-.82-.22zM318 234.65v-.27a1.72 1.72 0 0 1 0-.25v-.09a.2.2 0 0 1 0-.11v-.09c0 .04 0 0 0 0v-.12a.43.43 0 0 1 0-.16v-.43a1.41 1.41 0 0 0 0-.2V232.76a.14.14 0 0 1 0-.09 2.44 2.44 0 0 0 0-.54v-.15a1 1 0 0 1 0-.2.49.49 0 0 0 0-.12.17.17 0 0 1 0-.1.58.58 0 0 0 0-.16 1.31 1.31 0 0 1 0-.2.32.32 0 0 0 0-.07v-.23a.2.2 0 0 1 0-.09 1.38 1.38 0 0 0 0-.27v-.24a.41.41 0 0 0 0-.14v-.05c0 .06 0 .06 0 0v-.14a1.1 1.1 0 0 1 0-.24c0-.24.05-.27.15-.28s.06 0 .06 0h.18s0-.05 0 0 .11 0 .12 0h.32c.05 0 0 0 0 0h.12a.17.17 0 0 0 0-.07v.06c0 .06 0 0 0 0s.07.08.33.13l.46.1a5.62 5.62 0 0 0 .58.09h.39a.08.08 0 0 1 .06 0H321.37s.06 0 .13.05 0 0 .06 0 0 .08.06.08a1.54 1.54 0 0 1 .13.61 1.36 1.36 0 0 0 0 .18.53.53 0 0 1 0 .16.63.63 0 0 1 0 .2V231.99a4.16 4.16 0 0 0 0 .44V233.08a.61.61 0 0 1 0 .19v1.3a.66.66 0 0 0 0 .14 5.65 5.65 0 0 1 0 .61v.24c0 .41-.06.52-.21.55a.06.06 0 0 0-.06.05s0 0-.06 0a.06.06 0 0 0-.09 0h-.07c-.01 0-.29-.05-.4 0s-.08 0-.09 0h-.13a.64.64 0 0 0-.28-.07h-.25a1 1 0 0 1-.39 0 3.49 3.49 0 0 0-.68-.11h-.19a.43.43 0 0 0-.15 0 .2.2 0 0 0-.08.1c0 .05 0 .05 0 0s0-.06 0 0a.06.06 0 0 1-.12 0s0 .06-.06 0-.06 0-.07-.07h-.11c-.05 0 0 0 0 0v-.06a.42.42 0 0 0-.14.06s-.1-.06-.11-.1 0 .05 0 0-.07-.07-.15 0v-.05c-.08 0-.17-.26-.15-.42s0-.09 0-.13a.22.22 0 0 1 0-.11v-.06a2.35 2.35 0 0 0 0-.38.28.28 0 0 1 .29-.11zM350.93 228.07a1.26 1.26 0 0 0 0-.27.76.76 0 0 1 0-.25.27.27 0 0 0 0-.09.54.54 0 0 1 0-.11v-.09c0 .04 0 0 0 0v-.12a1.1 1.1 0 0 1 0-.16 2.06 2.06 0 0 0 0-.21v-.22a.72.72 0 0 0 0-.19v-.26a1.78 1.78 0 0 0-.1-.53s0 0 0-.15a.87.87 0 0 1 0-.2.25.25 0 0 0 0-.12v-.1a.64.64 0 0 0 0-.16 1 1 0 0 1 0-.2.11.11 0 0 0 0-.06v-.16a.08.08 0 0 1 0-.09 2.32 2.32 0 0 0 0-.27.8.8 0 0 1 0-.24.36.36 0 0 0 0-.15c0-.1 0-.1 0 0s0 .07 0 0v-.14a.66.66 0 0 1 0-.25c0-.24 0-.27.18-.31s.08 0 .07 0a.11.11 0 0 0 .09 0 .09.09 0 0 1 .11 0h.08c-.01 0 0-.06 0 0s0 0 .06 0h.07s.16 0 .17-.06.07 0 .14 0h.12l.15-.08c.15-.08.07 0 .08 0h.26a.14.14 0 0 0 0-.07v.05c0 .05 0 0 .05 0h.06c.06 0 .11.06.51 0h.72c.17 0 .42 0 .87-.06h.46a.22.22 0 0 0 .14 0h.09l.49-.06a1.24 1.24 0 0 0 .4-.09s.05 0 .06 0h.31a.11.11 0 0 0 .09 0h.09a.12.12 0 0 0 .09.07c.07 0 .3.4.3.56a.88.88 0 0 0 .06.17.47.47 0 0 1 .05.16.41.41 0 0 1 0 .19c0 .28.11.72.14.81a.35.35 0 0 1 0 .13 2.2 2.2 0 0 0 .06.43 4.39 4.39 0 0 1 .07.47 1.16 1.16 0 0 0 0 .18 1.08 1.08 0 0 1 0 .19s0 .35.09.65.09.59.09.63a.57.57 0 0 0 0 .14 3.1 3.1 0 0 1 .11.6v.24c0 .41 0 .53-.23.59 0 0-.07 0-.08.07s0 0-.08 0a.17.17 0 0 0-.15 0h-.09a1.75 1.75 0 0 0-.6.1h-.13c-.01 0 0 0 0 0s0 .05-.18 0a1.57 1.57 0 0 0-.44 0h-.24a.68.68 0 0 0-.15 0 3.52 3.52 0 0 1-.58.09 9.3 9.3 0 0 0-1 .07h-.28l-.23.07a.07.07 0 0 1 0 .05.2.2 0 0 0-.1.12c0 .05 0 .05 0 0s0-.06 0 0a.11.11 0 0 1-.18 0s-.05 0-.06 0-.05.06-.09 0-.08 0-.12-.05h-.09a.06.06 0 0 0-.09 0h-.05a.69.69 0 0 0-.19.1.22.22 0 0 1-.19-.08s0 .05-.06 0-.1-.05-.23 0-.05 0-.05 0v-.05c-.12 0-.3-.21-.31-.37a.31.31 0 0 0 0-.13.26.26 0 0 1 0-.1v-.06a1.2 1.2 0 0 0-.08-.36.16.16 0 0 1-.53-.21zM585.73 395.75l-.21-.17a1.77 1.77 0 0 1-.19-.16l-.07-.06a.4.4 0 0 1-.09-.07s-.08-.09-.07-.05 0 0 0-.05 0 0-.1-.08l-.12-.09-.17-.15-.16-.14a.74.74 0 0 0-.16-.11c-.07 0-.09-.06-.08-.07s0 0-.06 0-.06 0-.07-.05a1.9 1.9 0 0 0-.43-.33s0 0-.11-.11a.58.58 0 0 1-.16-.13.2.2 0 0 0-.1-.07.14.14 0 0 1-.07-.06.4.4 0 0 0-.13-.1 1.16 1.16 0 0 1-.15-.13v-.05h-.05c-.05 0 0-.06-.08-.06h-.07a1.35 1.35 0 0 0-.2-.18l-.18-.16-.1-.11c-.08-.07-.08-.07 0 0s0 .06 0 0-.06-.08 0-.07a1.15 1.15 0 0 1-.18-.16c-.16-.19-.17-.22-.1-.32s0-.07 0-.08a.08.08 0 0 0 0-.07s0-.05.07-.06.08 0 0-.06 0-.05 0 0h.06s.09-.09.07-.14.06 0 .09-.06.07-.08.09-.06 0 0 0-.13v-.05c0 .02 0 0 0 0s.06 0 .07-.05a.06.06 0 0 1 .07 0s.07 0 0-.06h-.06.06c.06 0 .06 0 0 0s0-.05 0 0 .12 0 .36-.25l.43-.4c.1-.1.25-.24.51-.52l.26-.27a.19.19 0 0 0 .07-.1s0 0 0-.07l.26-.31c.12-.14.21-.26.19-.28s0-.08.14-.11 0 0 0-.06 0 0 .08 0h.1c.01 0 .47.13.59.24a.48.48 0 0 0 .15.1.43.43 0 0 1 .14.08l.15.12c.22.18.57.45.65.5l.11.08a3.23 3.23 0 0 0 .34.28l.37.29a.53.53 0 0 0 .15.11l.15.12.5.42.5.4.11.08a3.47 3.47 0 0 1 .5.37l.18.15c.31.27.36.38.27.55a.1.1 0 0 0 0 .09.12.12 0 0 0-.09.09s0 .08 0 .07-.26.27-.31.39-.06.09-.08.08 0 .05-.1.12a.91.91 0 0 0-.27.24c0 .06 0 .06-.14.13l-.1.08a2.63 2.63 0 0 1-.3.38 6.06 6.06 0 0 0-.62.6l-.14.19a1 1 0 0 0-.09.17.13.13 0 0 1 0 .06.16.16 0 0 0 0 .13.08.08 0 0 1-.08.13s-.05 0 0 0 0 .08 0 .07 0 .07-.11 0 0 0-.06.05v.06h-.06a.44.44 0 0 0-.06.17s-.12.07-.17.05-.1 0-.13.13-.05 0-.06 0-.34 0-.45-.1a.44.44 0 0 0-.11-.08.46.46 0 0 1-.1 0s0 0-.05 0a1.43 1.43 0 0 0-.3-.22.15.15 0 0 1-.14-.49zM604.15 380.88l.23-.15.21-.14h.08l.09-.06s.11-.06.07-.05 0 0 .11-.07l.13-.08.18-.12.18-.11.16-.12q.09-.07.09-.06l.08-.05a2.88 2.88 0 0 0 .44-.31s0 0 .13-.07a.77.77 0 0 1 .17-.11l.1-.07a.21.21 0 0 1 .08-.06l.13-.09a1.19 1.19 0 0 1 .17-.1h.12s.06 0 .07-.06 0 0 .07-.05l.23-.15a1.43 1.43 0 0 1 .21-.12l.12-.07c.09-.05.1-.06 0 0s-.06 0 0 0h.13a1.72 1.72 0 0 1 .21-.12c.22-.11.24-.11.31 0s0 0 .06 0 0 0 0 .07 0 .06 0 0v.05s0 .09.09.07a.09.09 0 0 0 0 .08v.08c0 .01 0 0 .09.05s.05 0 0 0 0 0 0 .06v.06s0 .06 0 0v.05c0 .05 0 0 0 0s0 .1.06.32.12.31.16.4.1.24.22.48l.12.25s0 .07.06.06.08.13.15.25.14.2.15.19 0 0 0 .13V381.29c0 .01-.3.36-.43.44a.69.69 0 0 0-.14.12.76.76 0 0 1-.13.1l-.16.11c-.24.15-.6.4-.67.46l-.12.08-.36.24-.39.27a.56.56 0 0 0-.15.1l-.16.11-.55.36-.53.35a.33.33 0 0 0-.11.09c-.05 0-.36.26-.51.35l-.2.12c-.34.22-.46.26-.56.16a.07.07 0 0 0-.07 0 .06.06 0 0 0 0-.08s-.12-.25-.2-.3-.05-.06 0-.08 0 0-.06-.09a.44.44 0 0 0-.09-.25s0 0 0-.13a.29.29 0 0 0 0-.1.86.86 0 0 1-.19-.29 3.54 3.54 0 0 0-.25-.57l-.1-.14c0-.05-.09-.1-.1-.09a.13.13 0 0 0-.12 0s-.11 0-.07-.08-.07 0 0 0 0 0 0-.1v-.05c0-.05 0 0 0 0a.37.37 0 0 0-.12-.07s0-.11 0-.14 0-.09-.06-.13a.06.06 0 0 0 0-.05c0-.06.13-.27.26-.35a.25.25 0 0 0 .1-.08l.09-.07a1.79 1.79 0 0 0 .3-.22.23.23 0 0 1 .39-.41zM606.62 404.22V403.46c0 .04 0 0 0 0v-.13a.38.38 0 0 1 0-.15v-.22a1.77 1.77 0 0 0 0-.22 1.2 1.2 0 0 0 0-.19V402.38a.16.16 0 0 1 0-.1 4.68 4.68 0 0 0 0-.53v-.15a1 1 0 0 1 0-.2.49.49 0 0 0 0-.12v-.1a.58.58 0 0 0 0-.16 1.31 1.31 0 0 1 0-.2.32.32 0 0 0 0-.07.14.14 0 0 1 0-.07v-.09a.22.22 0 0 1 0-.09 1.72 1.72 0 0 0 0-.27v-.24a1.13 1.13 0 0 0 0-.14v-.05c0 .06 0 .06 0 0v-.13a1.1 1.1 0 0 1 0-.25c0-.24 0-.26.11-.27s0 0 .06 0 0 .06 0 0 0-.06 0 0 .08 0 .09 0h.2c.07 0 0 0 0 0a.05.05 0 0 0 .05 0s0 .05 0 0V399a.24.24 0 0 1 0 .07c0 .05 0 .05 0 0s0 .08.25.13l.35.1.43.09h.23a.08.08 0 0 0 .07 0H608.91l.11.06c.11.06 0 0 0 .05v.08a2 2 0 0 1 .1.61 1.21 1.21 0 0 0 0 .18 1.18 1.18 0 0 1 0 .16v.05a.58.58 0 0 1 0 .19v.96a4 4 0 0 0 0 .44v.47a.54.54 0 0 0 0 .18v1.48a.75.75 0 0 0 0 .15v.61a1.85 1.85 0 0 0 0 .24c0 .41-.05.52-.16.55s0 0 0 .05-.05 0-.07 0-.22-.05-.3 0-.06 0-.06 0h-.09a.37.37 0 0 0-.21-.07s0 0-.12 0h-.07a.72.72 0 0 1-.29 0 2.6 2.6 0 0 0-.51-.12h-.14a.22.22 0 0 0-.12 0s0 0-.06.1 0-.06 0 0-.07.07-.09 0 0 .05 0 0 0 0-.05-.07 0-.05 0-.05a.21.21 0 0 0-.1.06s-.08-.06-.09-.11 0-.07-.11 0 0-.05 0-.05-.13-.27-.12-.42a.57.57 0 0 0 0-.13.49.49 0 0 1 0-.11v-.44a.29.29 0 0 1 .26-.27zM628.63 403.49a1.09 1.09 0 0 0-.23-.16c-.12-.06-.21-.13-.2-.14s0 0-.07-.05a.21.21 0 0 1-.1-.07c0-.06-.09-.1-.07 0a.08.08 0 0 1 0-.06s0 0-.1-.07a.38.38 0 0 1-.13-.09l-.17-.13-.17-.13a.48.48 0 0 0-.17-.1c-.08 0-.11 0-.1-.05s0 0-.05 0h-.08a1.24 1.24 0 0 0-.46-.28s0-.06-.11-.11a.68.68 0 0 1-.17-.12.1.1 0 0 0-.1-.06c-.05 0-.07 0-.08-.05a.37.37 0 0 0-.14-.1.55.55 0 0 1-.16-.11s0-.06-.05-.05 0-.06-.09 0 0 0-.08 0a1.19 1.19 0 0 0-.21-.17.74.74 0 0 1-.19-.15.44.44 0 0 0-.1-.12c-.08-.07-.08-.07-.05 0s0 .07 0 0-.05-.09 0-.09h-.05a.57.57 0 0 1-.19-.17c-.15-.2-.15-.24 0-.45s.05-.12 0-.13 0 0 0-.07a.26.26 0 0 0 .06-.13.19.19 0 0 1 .11-.13c.1-.06.11-.07.06-.12h.06s.06 0 .08-.06 0-.08.07-.07.14-.21.13-.26.08-.07.14-.16.11-.15.12-.14 0 0 .09-.23 0-.11.06-.1.06 0 .1-.1.07-.1.09-.09.1-.07.07-.12a.1.1 0 0 0-.07 0h.07c.07 0 .07 0 .06-.05s0-.08 0-.08.16-.1.52-.6l.66-.88c.16-.21.39-.53.79-1.11l.41-.59c.06-.09.11-.17.1-.19a.4.4 0 0 1 .06-.13l.42-.64a3.53 3.53 0 0 0 .32-.55s0-.05 0-.06.06 0 .06-.07 0 0 .06 0 .06 0 0-.05.06-.14.21-.25a.23.23 0 0 0 .06-.13.09.09 0 0 1 .11-.08.15.15 0 0 0 .13-.06c.06-.1.57-.06.69.05a.24.24 0 0 0 .17.06.53.53 0 0 1 .16.06s.07 0 .17.09a4.28 4.28 0 0 0 .7.43.21.21 0 0 1 .11.07 2.28 2.28 0 0 0 .36.25 2.27 2.27 0 0 1 .4.26l.16.09a.7.7 0 0 1 .16.1 5.18 5.18 0 0 0 .54.37l.53.36a.37.37 0 0 0 .12.07 1.88 1.88 0 0 1 .54.3l.18.15c.33.25.37.4.21.71v.15s0 .06-.07.1a.45.45 0 0 0-.14.19c0 .07 0 .13-.07.13a4.79 4.79 0 0 0-.5.8c0 .1-.09.18-.12.17s0 .07-.17.24a3 3 0 0 0-.4.54 1 1 0 0 1-.22.29l-.15.18a5.76 5.76 0 0 1-.48.77c-.26.33-.83 1.12-.94 1.31s-.14.23-.23.39a1.43 1.43 0 0 0-.17.32.11.11 0 0 1 0 .08.31.31 0 0 0 0 .21c0 .06 0 .07 0 0s-.06 0 0 0-.05.23-.14.25-.07 0-.06.06 0 .12-.07.13-.05 0 0 .05-.07.13-.16.12a.29.29 0 0 1-.09.11.11.11 0 0 0-.06.12s0 .05 0 .05a.07.07 0 0 0-.08 0 1.51 1.51 0 0 0-.12.31.39.39 0 0 1-.23.17s0 0 0 .06 0 .08-.05.07-.14.09-.21.29 0 .07-.06.05a.06.06 0 0 0-.08 0 .45.45 0 0 1-.54.09.19.19 0 0 0-.13 0 .13.13 0 0 1-.1 0s0 0-.06 0a.7.7 0 0 0-.33-.17.1.1 0 0 1-.31-.54zM572.9 116.37l-.16-.22a.93.93 0 0 1-.14-.21l-.05-.07a.36.36 0 0 1-.07-.09s-.06-.11-.05-.07 0 0-.07-.1a1 1 0 0 1-.09-.13l-.12-.18-.12-.18a.79.79 0 0 0-.12-.15c-.06-.06-.08-.09-.07-.09a.15.15 0 0 1 0-.08 2.73 2.73 0 0 0-.33-.43s0 0-.08-.13a.77.77 0 0 1-.11-.17.22.22 0 0 0-.07-.09s-.06-.06-.06-.08a.77.77 0 0 0-.1-.14.93.93 0 0 1-.11-.16.3.3 0 0 0 0-.06s0-.07-.06-.08 0 0-.06-.06a2 2 0 0 0-.15-.23l-.13-.2a.45.45 0 0 0-.06-.13c-.06-.09-.06-.09 0 0s0 .06 0 0v-.13a1 1 0 0 1-.12-.21c-.11-.22-.11-.25 0-.34s.05-.06 0-.07 0 0 0-.06 0 0 .09 0 .08 0 0 0 0-.06 0 0h.12c.06 0 .11-.07.1-.12s.06 0 .1 0h.1c.01 0 0 0 .08-.11s0-.06.05 0 0 0 .08 0H571.24c-.03 0 0 0 0 0h.06s.12 0 .41-.14l.52-.28c.13-.06.31-.16.63-.35l.33-.2c.05 0 .09-.06.08-.07a.1.1 0 0 1 0-.07l.34-.22c.15-.1.27-.2.26-.22h.05s.05-.06.17-.06h.09a.11.11 0 0 0 .1 0s.41.25.49.38a.79.79 0 0 0 .13.13l.11.12.12.15c.12.15.42.58.49.65a.59.59 0 0 1 .08.11 3.88 3.88 0 0 0 .26.36l.28.38a.72.72 0 0 0 .11.15 1 1 0 0 1 .11.15l.38.53c.18.25.34.49.37.52a.33.33 0 0 0 .09.11 5.79 5.79 0 0 1 .38.49c0 .05.09.14.12.2.23.34.26.46.12.59s0 .07 0 .09 0 0-.05 0a.12.12 0 0 0-.11.07s0 .06-.06 0a1.18 1.18 0 0 0-.4.29s-.08.08-.1.06 0 0-.13.08a.92.92 0 0 0-.33.16c0 .05 0 .05-.17.09h-.12a1.62 1.62 0 0 1-.39.28c-.2.1-.66.35-.75.42l-.18.15c-.08.06-.14.12-.14.14a.22.22 0 0 0 0 .14.08.08 0 0 1-.11.1s-.06 0-.05 0 0 .08-.06.06-.05 0-.11 0a.11.11 0 0 1-.07 0h-.11a.33.33 0 0 0-.1.14s-.14 0-.18 0 0 .06 0 0-.11 0-.17.1 0 0-.05 0-.33-.08-.41-.21a.43.43 0 0 0-.09-.1l-.07-.08a1.43 1.43 0 0 0-.24-.29.16.16 0 0 1-.27-.53zM574 135.49a1 1 0 0 0-.14-.23.7.7 0 0 1-.13-.22s0 0 0-.07a.28.28 0 0 1-.06-.1c0-.05-.05-.12-.05-.07v-.06l-.06-.1a.6.6 0 0 1-.09-.13 1 1 0 0 0-.11-.19 1.82 1.82 0 0 1-.1-.19.74.74 0 0 0-.26-.13c-.06-.05-.07-.08-.06-.09a.08.08 0 0 1 0-.07 1.58 1.58 0 0 0-.31-.44s0 0-.06-.14a.77.77 0 0 1-.11-.17.17.17 0 0 0-.07-.1s-.05 0-.05-.08a.42.42 0 0 0-.09-.14.53.53 0 0 1-.1-.17.14.14 0 0 0 0-.06v-.06c0-.06 0-.07-.06-.07s0 0-.05-.07a1.46 1.46 0 0 0-.14-.24.84.84 0 0 1-.11-.21.62.62 0 0 0-.06-.14c0-.09-.05-.09 0 0s0 .07 0 0v-.14a.64.64 0 0 1-.12-.22c-.07-.23-.07-.27.07-.38s.07-.08.06-.09a.14.14 0 0 0 .07-.08s.06-.06.13-.06.1 0 .07-.06 0-.06 0 0 0 0 .06 0h.08a.06.06 0 0 1 .08 0s.16-.1.16-.16.08 0 .15-.06.13-.07.14 0 0 0 .12-.15.06-.06.08-.05.06 0 .1 0 .09-.05.1 0 .1 0 .08-.06 0 0 .07 0h.06c.06 0 0-.06 0-.05s.15 0 .57-.23l.74-.4c.18-.09.44-.24.9-.51l.48-.28a.42.42 0 0 0 .13-.1s0 0 .08-.08l.49-.31a1.83 1.83 0 0 0 .39-.3H577.24s.09-.08.24-.09a.25.25 0 0 0 .08-.07s0 0 .11 0a.14.14 0 0 0 .12 0c.07 0 .47.22.54.36a.52.52 0 0 0 .13.13.54.54 0 0 1 .11.12s.05 0 .12.15a4.84 4.84 0 0 0 .46.67.28.28 0 0 1 .08.12 2.49 2.49 0 0 0 .23.37c.13.17.24.35.27.39a.49.49 0 0 0 .1.15l.11.16s.18.3.35.55.32.5.34.54a.33.33 0 0 0 .09.11 2.6 2.6 0 0 1 .36.5l.12.21c.2.35.2.49 0 .66a.18.18 0 0 0-.06.1s0 .05-.08.05a.21.21 0 0 0-.15.09s-.07.08-.09.08a2.18 2.18 0 0 0-.6.4c-.06.06-.12.09-.14.08s0 .06-.19.12a2.19 2.19 0 0 0-.46.23c-.07.07-.09.07-.24.14l-.17.07a4.19 4.19 0 0 1-.58.39 11.47 11.47 0 0 0-1.07.6l-.28.2a.69.69 0 0 0-.21.18.07.07 0 0 1 0 .06.24.24 0 0 0 0 .16c0 .07 0 .07 0 0s-.1.15-.18.13-.06 0-.06 0 0 .09-.09.07-.05 0 0 0-.08.07-.15 0a.15.15 0 0 1-.1 0 .07.07 0 0 0-.07.06s0 .05-.05 0a.06.06 0 0 0-.07 0 .72.72 0 0 0-.17.18s-.18.07-.22 0 0 .06-.06 0-.14 0-.24.14-.05 0-.06 0a.07.07 0 0 0-.07 0 .41.41 0 0 1-.46-.18.43.43 0 0 0-.09-.1.2.2 0 0 1-.08-.08s0 0 0-.05a.82.82 0 0 0-.22-.29.18.18 0 0 1-.44-.35zM595.8 112.23v-.26a.82.82 0 0 1 0-.25.2.2 0 0 0 0-.08 1 1 0 0 1 0-.12v-.08c0 .04 0 0 0 0v-.13a.83.83 0 0 1 0-.15 2.11 2.11 0 0 0 0-.21v-.22a.72.72 0 0 0 0-.19v-.26a2.18 2.18 0 0 0-.11-.52s0 0 0-.15a1 1 0 0 1 0-.21.15.15 0 0 0 0-.11v-.1a.44.44 0 0 0 0-.16.88.88 0 0 1 0-.2v-.31a1 1 0 0 0 0-.27.8.8 0 0 1 0-.24.49.49 0 0 0 0-.15c0-.1 0-.11 0 0s0 .07 0 0V107.71a.48.48 0 0 1 0-.24c0-.25.08-.29.32-.34h.19a.37.37 0 0 0 .14 0 .23.23 0 0 1 .18 0c.1 0 .12.05.13 0s0-.06 0 0 0 0 .06 0h.09a.09.09 0 0 1 .1 0s.25 0 .29 0h.74c.01 0 0 0 0 0h.25s.11.07.13 0a.09.09 0 0 0 0-.07v.06c0 .06 0 .06.07 0s.08 0 .09 0 .14.09.7.29a7.16 7.16 0 0 1 1 .42c.21.12.55.28 1.09.63a6.21 6.21 0 0 1 .54.39.76.76 0 0 0 .17.12s.07 0 .13.06.3.25.54.47a2.92 2.92 0 0 0 .45.41s0 .07.05.07 0 0 0 .07v.06s.11.1.16.27a.19.19 0 0 0 .09.09c.06 0 .07.07 0 .13a.17.17 0 0 0 0 .14c.07.09-.17.53-.32.59s-.09.07-.13.13a.38.38 0 0 1-.12.11s-.05.06-.16.12a6.19 6.19 0 0 0-.67.45.35.35 0 0 1-.12.08l-.37.24-.39.26a.56.56 0 0 0-.15.1l-.16.11a5.42 5.42 0 0 0-.55.36c-.26.16-.5.32-.53.35l-.12.08c0 .05-.36.26-.5.36l-.2.12c-.34.23-.45.28-.5.25h-.06s0-.05 0 0-.06-.13-.12-.13 0-.13-.08-.14 0 0-.06-.07a.52.52 0 0 1-.19-.11.93.93 0 0 0-.34-.24h-.21a.16.16 0 0 0-.06.09s0-.06 0 0-.06.07-.07 0 0 .06 0 0v-.07c0-.07 0 0 0 0a.19.19 0 0 0-.07.06s0 0-.06-.1 0-.07-.08 0a.8.8 0 0 1-.16-.39.5.5 0 0 0 0-.13 1 1 0 0 1 0-.11v-.06a3.15 3.15 0 0 0-.09-.36.19.19 0 0 1-.95-.46zM595 139.35a1.65 1.65 0 0 0 .06-.27 1.15 1.15 0 0 1 .06-.24s0 0 0-.09a.39.39 0 0 1 0-.11v-.09c0 .03 0 0 0 0v-.12a.76.76 0 0 1 0-.16l.06-.21v-.21a.9.9 0 0 0 0-.19v-.26a2 2 0 0 0 .1-.53s0 0 0-.15a1.24 1.24 0 0 1 0-.19.25.25 0 0 0 0-.12v-.09a.71.71 0 0 0 0-.16 1.73 1.73 0 0 1 0-.2v-.31l.07-.26a1.09 1.09 0 0 1 .06-.23.53.53 0 0 0 0-.14v-.05c0 .05 0 .06 0 0v-.13a1 1 0 0 1 .07-.23c.1-.23.12-.25.25-.24s.07 0 .07 0a.08.08 0 0 0 .08 0h.09c.03 0 0 .06.07 0s0-.06 0 0 .05 0 .05 0h.15c.02 0 0 0 0 0s0 .05.1.06.1 0 .09.05 0 0 .14 0h.19c-.01 0 .05.07.07 0a.17.17 0 0 0 0-.07v.06c0 .06 0 .06 0 0s.05 0 .05 0 .07.1.39.21l.56.22.7.23.37.12a.17.17 0 0 0 .12 0h.08l.4.11a1 1 0 0 0 .34.05s.08 0 .16.09h.07s.06 0 .06.06v.09a1.21 1.21 0 0 1 .05.63.5.5 0 0 0 0 .18.76.76 0 0 1 0 .17v.19a6.84 6.84 0 0 0-.16.8s0 .11 0 .14-.06.22-.1.42-.08.42-.1.47a1.13 1.13 0 0 0 0 .18 1.16 1.16 0 0 1 0 .18c0 .06-.08.34-.15.64l-.14.62a.78.78 0 0 0 0 .14 5.83 5.83 0 0 1-.11.61l-.06.23c-.11.39-.18.49-.38.48h-.14a.12.12 0 0 0-.13 0h-.08a1.11 1.11 0 0 0-.49-.11h-.11l-.16-.05a1 1 0 0 0-.34-.13.34.34 0 0 1-.18-.07c-.06 0-.11-.06-.12-.05a2.08 2.08 0 0 1-.48-.11 7 7 0 0 0-.83-.29h-.24a.77.77 0 0 0-.2 0 .2.2 0 0 0-.12.08s0-.07 0 0a.08.08 0 0 1-.15 0s-.07.05-.08 0-.08 0-.08-.09-.05 0-.07 0h-.07v-.06a.36.36 0 0 0-.18 0s-.12-.08-.12-.13-.07-.08-.19-.06 0-.05 0-.05-.16-.3-.11-.45a.28.28 0 0 0 0-.13v-.11c0-.02 0 0 0 0v-.06a1.24 1.24 0 0 0 .06-.37.17.17 0 0 1 .63-.14zM315.38 314.19a.8.8 0 0 0-.08-.26c-.06-.12-.09-.23-.07-.24s0-.05 0-.09v-.11c0-.02 0-.14-.05-.08a.14.14 0 0 1 .06-.07c.05 0 0 0 0-.12a.2.2 0 0 1-.06-.14.68.68 0 0 0-.05-.22 1 1 0 0 1 0-.22.29.29 0 0 0-.09-.17c-.07-.06-.08-.08 0-.1s0 0 0-.06-.07-.05 0-.08-.15-.49-.22-.49.05-.06 0-.17a.33.33 0 0 1-.05-.19.08.08 0 0 0 0-.11c-.06 0-.07-.05 0-.09s0-.09-.05-.16a.24.24 0 0 1-.05-.19v-.14c0-.07 0-.08-.06-.08s-.07 0-.06-.07a.6.6 0 0 0 0-.27.44.44 0 0 1 0-.25.63.63 0 0 0 0-.16c0-.11 0-.11-.06 0s-.05.09 0 0 0-.11.06-.11 0 0 0-.06a.31.31 0 0 1 0-.26c.06-.28.11-.33.5-.51.12-.06.21-.11.21-.13s0 0 .11-.06a1.19 1.19 0 0 0 .22-.12.6.6 0 0 1 .31-.1c.19 0 .21 0 .21-.11s0-.07.06-.05a.11.11 0 0 0 .12 0h.22a.35.35 0 0 1 .19-.05 1.27 1.27 0 0 0 .47-.23h.05a1.4 1.4 0 0 0 .36-.11.86.86 0 0 1 .33-.1s.1 0 .4-.22c.09-.06.18-.1.2-.08h.13c.06 0 .13 0 .25-.07s.21-.08.22-.06.22 0 .23-.1h-.05c-.05 0-.06 0 0 0a.1.1 0 0 1 .1 0s.07 0 .13 0 .12-.08.14-.07a.75.75 0 0 0 .33-.06l5.48-2.12c4.42-1.69 8.44-3.11 11-4s6.61-2.29 13.74-4.52c2.86-.89 6.15-1.86 7.29-2.18s2.15-.63 2.22-.66l.49-.16.84-.24 1.34-.36a9.82 9.82 0 0 0 1.13-.33s.06 0 .12 0a.35.35 0 0 0 .16 0 .15.15 0 0 1 .13 0 .12.12 0 0 0 .14 0 1.32 1.32 0 0 1 .58-.11.64.64 0 0 0 .24-.07.21.21 0 0 1 .24 0 .36.36 0 0 0 .23 0c.21-.05.74.27.72.44s0 .1.11.15.11.11.1.14 0 .05 0 0 .06.06.07.18a2.62 2.62 0 0 0 .21.79.11.11 0 0 1 0 .13 1.58 1.58 0 0 0 .08.44 2.1 2.1 0 0 1 .11.46.26.26 0 0 0 .05.17.31.31 0 0 1 0 .19 5.31 5.31 0 0 0 .12.65 5.67 5.67 0 0 1 .12.63.17.17 0 0 0 .05.13 1.2 1.2 0 0 1 .19.58v.24c0 .42-.12.58-.72.77a.56.56 0 0 0-.24.12.43.43 0 0 1-.21.05 1 1 0 0 0-.41.1.74.74 0 0 1-.26.08 11.58 11.58 0 0 0-1.64.45 1.39 1.39 0 0 1-.36.09s-.05 0-.07 0-.09.07-.51.13h-.2l-.45.12-2 .55c-1.33.38-2.61.74-3.21.94-1.3.4-1.45.43-3.63 1.08l-2.38.71-9 3c-4.15 1.34-13.71 4.85-15.84 5.74L322 313a5 5 0 0 0-.59.28l-.11.09a.72.72 0 0 0-.26.21c-.07.08-.08.08-.11 0s0-.05-.06 0a.67.67 0 0 1-.47.21.17.17 0 0 0-.15 0 .26.26 0 0 1-.24.11c-.07 0-.09 0-.07.05s-.24.11-.32.05-.07 0-.12 0a.61.61 0 0 1-.24.08.41.41 0 0 0-.21.1c0 .05-.07.06-.1 0a.15.15 0 0 0-.13 0 4.89 4.89 0 0 0-.52.28 1 1 0 0 1-.47.09s-.07 0-.12.06-.09.08-.15 0-.27 0-.6.23c-.07 0-.13.05-.13 0s-.06 0-.12 0c-.3.11-.76 0-.76-.12s0-.09-.1-.11a.12.12 0 0 1-.08-.09s0 0-.06 0-.06 0-.05-.05-.11-.31-.18-.33a.07.07 0 0 1-.1.05zM348.62 328.94a.48.48 0 0 0 0-.27V328.33a.12.12 0 0 1 0-.12c.06 0 0-.13 0-.08s.05-.05.07-.05.06 0 0-.13a.29.29 0 0 1 0-.16.68.68 0 0 0 0-.22.77.77 0 0 1 0-.22.34.34 0 0 0 0-.19c-.05-.07-.06-.1 0-.1s0 0 0-.07-.05-.06 0-.09a.75.75 0 0 0-.09-.53s.07 0 0-.16a.28.28 0 0 1 0-.2.08.08 0 0 0 0-.12s-.05-.07 0-.09 0-.09 0-.17a.28.28 0 0 1 0-.2v-.23c0-.01-.06 0 0-.08a.71.71 0 0 0 0-.28.53.53 0 0 1 0-.25.26.26 0 0 0 .05-.15c0-.11 0-.11-.05 0s-.06.07 0 0 .06-.1.09-.09 0 0 0-.06a.29.29 0 0 1 0-.25c.11-.27.17-.29.55-.38.11 0 .21-.06.2-.07s.05 0 .11 0a.9.9 0 0 0 .22-.06.43.43 0 0 1 .29 0c.17 0 .19 0 .2-.06s0-.07.07 0a.12.12 0 0 0 .1 0h.38a.94.94 0 0 0 .45-.14h.06a.91.91 0 0 0 .33-.05.7.7 0 0 1 .31 0s.09 0 .37-.15c.1-.06.18-.08.2-.06s0 0 .06 0h.28c.1 0 .21-.05.21 0s.2 0 .22-.07l-.05-.05s-.05 0 0 0a.07.07 0 0 1 .09 0s.07 0 .13 0 .11-.07.13-.06a.9.9 0 0 0 .41-.05c.14 0 .38-.1.75-.2.62-.18 1.17-.36 1.52-.47s.91-.32 1.85-.71l.95-.42a1.18 1.18 0 0 0 .28-.16s.08-.07.18-.12.62-.31 1.12-.59c.26-.14.49-.28.65-.38a1.82 1.82 0 0 0 .27-.19s0 0 .09-.06a.23.23 0 0 0 .14-.06.13.13 0 0 1 .11 0 .09.09 0 0 0 .11-.06 1.18 1.18 0 0 1 .49-.26.47.47 0 0 0 .18-.13c.08-.08.13-.1.21-.08a.33.33 0 0 0 .21-.05c.16-.11.74 0 .79.2a.32.32 0 0 0 .15.11c.08 0 .14.07.14.1s0 0 .05 0 .07 0 .12.15a2.54 2.54 0 0 0 .48.66.17.17 0 0 1 .07.12 1.24 1.24 0 0 0 .23.37 2.65 2.65 0 0 1 .26.4.27.27 0 0 0 .11.15.29.29 0 0 1 .1.16 5.39 5.39 0 0 0 .34.56c.16.26.31.51.32.55a.14.14 0 0 0 .1.11 1.08 1.08 0 0 1 .38.48l.09.22c.18.38.07.59-.49 1a1 1 0 0 0-.21.2s-.09.08-.21.13a1.25 1.25 0 0 0-.39.24 1 1 0 0 1-.25.17c-.07 0-1.2.69-1.61.95a1.19 1.19 0 0 1-.36.19s-.06 0-.07.05-.08.09-.52.26l-.2.09c-.28.11-.73.32-.88.4a3.79 3.79 0 0 1-.58.24l-.38.15a14.62 14.62 0 0 1-1.43.63c-.67.24-2.26.76-2.62.87l-.61.22h-.13a3.7 3.7 0 0 0-.67.25l-.13.08a.93.93 0 0 0-.32.19c-.07.07-.09.08-.11 0s0 0-.07 0a.79.79 0 0 1-.54.16.22.22 0 0 0-.17 0 .29.29 0 0 1-.28.08h-.08c.01 0-.27.08-.35 0a.17.17 0 0 0-.13 0l-.27.05a.39.39 0 0 0-.25.07h-.12a.21.21 0 0 0-.14 0 5 5 0 0 0-.61.19 1.05 1.05 0 0 1-.53 0s-.07 0-.14 0-.11.06-.17 0-.3 0-.69.11h-.27c-.35 0-.81-.14-.77-.3a.11.11 0 0 0-.06-.12c-.05 0-.07-.08-.06-.11s0 0-.06 0-.07 0 0-.06a.42.42 0 0 0-.1-.36.07.07 0 0 1-.2-.32zM416.47 83.48a.56.56 0 0 0 .24-.14c.1-.08.2-.14.22-.12s0 0 .07 0a.11.11 0 0 1 .11-.05c.07 0 .14 0 .07-.06a.1.1 0 0 1 .08 0s.05 0 .11-.06a.28.28 0 0 1 .13-.09.69.69 0 0 0 .2-.09.88.88 0 0 1 .21-.09.26.26 0 0 0 .14-.12c0-.08.07-.1.09-.07s0 0 .05 0 0-.07.08 0 .45-.25.43-.32.07 0 .16 0 .14-.1.18-.09.08 0 .1-.08 0-.07.07-.06.09 0 .15-.08a.21.21 0 0 1 .18-.09s.07 0 .06 0h.07c.07 0 .08 0 .07-.07s0-.08.05-.08a.57.57 0 0 0 .26-.1c.1-.06.2-.11.23-.09a.33.33 0 0 0 .16 0c.11 0 .11 0 0-.06s-.09 0 0-.05.11 0 .12 0h.06a.3.3 0 0 1 .24-.08c.29 0 .35 0 .61.38.08.1.15.18.17.17s.05 0 .09.09a.7.7 0 0 0 .16.19.61.61 0 0 1 .16.28c.07.17.08.2.15.18s.07 0 .06 0a.1.1 0 0 0 .05.1v.07s0 .08.07.15.09.14.08.16a1.26 1.26 0 0 0 .34.41s0 0 0 .05a1.46 1.46 0 0 0 .19.32 1.13 1.13 0 0 1 .18.3s0 .09.29.33c.08.08.14.16.13.18v.12s.05.13.13.23.12.19.1.2.09.2.15.2 0 0 0-.06a.09.09 0 0 1 0 .11s0 .07.07.12.1.09.1.12a.74.74 0 0 0 .13.31c.92 1.31 2.41 3.46 4.95 7.11 4 5.79 7.6 11 9.84 14.32 2.34 3.47 5.84 8.6 12 17.85l6.24 9.45c1 1.49 1.82 2.78 1.9 2.87s.2.28.43.63l.71 1.06.74 1.18a7.55 7.55 0 0 0 .66 1s0 .05.06.11a.3.3 0 0 0 .08.14.19.19 0 0 1 0 .12.1.1 0 0 0 .06.12 1.2 1.2 0 0 1 .28.53 1 1 0 0 0 .15.2.23.23 0 0 1 .09.22.34.34 0 0 0 .05.23c.11.17 0 .77-.2.81a.23.23 0 0 0-.11.15c0 .08-.08.14-.1.14s-.05 0 0 0 0 .07-.15.12a2.47 2.47 0 0 0-.69.45.17.17 0 0 1-.12.07 1.13 1.13 0 0 0-.38.21 2.4 2.4 0 0 1-.41.24.4.4 0 0 0-.15.1.27.27 0 0 1-.16.1 6.56 6.56 0 0 0-.58.31 4.78 4.78 0 0 1-.57.31.15.15 0 0 0-.1.09 1.21 1.21 0 0 1-.5.37l-.23.08c-.38.16-.58.07-.95-.45-.07-.11-.15-.19-.18-.19s-.08-.08-.12-.19a1.13 1.13 0 0 0-.22-.36.71.71 0 0 1-.16-.23 12.81 12.81 0 0 0-.93-1.43 1 1 0 0 1-.19-.32s0 0-.05-.06-.09-.07-.28-.45l-.06-.12v-.07l-.39-.59c-.52-.82-1.1-1.71-1.67-2.59l-2.78-4.22c-1.14-1.69-1.27-1.89-3.13-4.76l-1.95-3.28-8-11.9c-3.65-5.45-12.35-18.08-14.37-20.91l-3.52-5a4.67 4.67 0 0 0-.41-.52l-.11-.09a.71.71 0 0 0-.27-.21c-.09 0-.09 0 0-.09s0 0 0-.07a.62.62 0 0 1-.3-.41.21.21 0 0 0-.08-.14.25.25 0 0 1-.16-.21c0-.07 0-.09-.07-.06s-.15-.2-.12-.3a.16.16 0 0 0-.06-.1.75.75 0 0 1-.13-.22.51.51 0 0 0-.15-.19q-.07 0-.06-.09a.13.13 0 0 0 0-.13 4.48 4.48 0 0 0-.39-.44 1.15 1.15 0 0 1-.19-.45s0-.07-.08-.11-.1-.06-.08-.12-.11-.27-.36-.54c-.06-.07-.08-.12-.05-.13s0-.06 0-.12c-.18-.27-.2-.73-.05-.77A.15.15 0 0 0 416 84a.16.16 0 0 1 .06-.1s0 0 0-.06v-.06s.28-.17.28-.25a.07.07 0 0 1 .13-.05zM452.56 93.74s.12-.06.22-.16.19-.16.2-.15 0 0 .08-.05.07-.07.1-.06.13 0 0-.06a.1.1 0 0 1 .08 0s.06 0 .1-.08a.29.29 0 0 1 .12-.1l.19-.11a1.14 1.14 0 0 1 .19-.12.23.23 0 0 0 .13-.14c0-.08.06-.1.08-.07s0 0 0-.05 0-.08.06-.07.42-.3.39-.37.08 0 .15 0A.28.28 0 0 1 455 92c.05 0 .08 0 .08-.09s0-.07.07-.06.09 0 .14-.1a.22.22 0 0 1 .16-.11s.08 0 .07 0h.06c.06 0 .08 0 .06-.08s0-.08 0-.08a.57.57 0 0 0 .24-.14c.09-.07.18-.12.21-.11a.45.45 0 0 0 .17 0c.09-.05.09-.05 0-.07s-.1 0 0 0h.18a.27.27 0 0 1 .23-.11c.29 0 .35 0 .65.3.09.09.17.16.19.14s.05 0 .09.08a.77.77 0 0 0 .19.17.73.73 0 0 1 .2.26c.08.17.1.19.16.16s.07 0 .07 0a.11.11 0 0 0 .06.1s0 0 0 .06 0 .08.09.14.11.13.1.16a1.2 1.2 0 0 0 .38.36 1.47 1.47 0 0 0 .23.29 1.44 1.44 0 0 1 .21.27s0 .1.33.3c.09.07.15.13.14.16a.05.05 0 0 0 0 .06.06.06 0 0 1 0 .06s.06.11.15.2.15.17.13.19.11.19.17.18 0 0 0-.07v.1c0 .04 0 .08.08.12a.25.25 0 0 1 .12.1c0 .07.05.15.24.38l.53.66 1.1 1.34c.26.32.66.79 1.38 1.63l.72.86a1.4 1.4 0 0 0 .24.25.66.66 0 0 1 .18.15l.91 1a9.32 9.32 0 0 0 .81.85s.06 0 .08.09a.33.33 0 0 0 .09.13.12.12 0 0 1 .06.11.11.11 0 0 0 .09.11c.07 0 .19.19.36.47a.67.67 0 0 0 .17.17c.1.07.13.12.12.21a.36.36 0 0 0 .09.21c.14.16.1.77-.06.84s-.08.09-.09.17-.05.15-.08.15 0 .07-.13.14a2.57 2.57 0 0 0-.6.55.13.13 0 0 1-.11.09 1.32 1.32 0 0 0-.34.27 2.64 2.64 0 0 1-.37.31.37.37 0 0 0-.13.12.28.28 0 0 1-.14.12 6.12 6.12 0 0 0-.52.41 6.39 6.39 0 0 1-.51.39.15.15 0 0 0-.09.11 1.35 1.35 0 0 1-.43.44l-.21.12c-.35.22-.56.16-1-.3-.08-.09-.18-.16-.2-.15s-.1-.07-.15-.18a1.37 1.37 0 0 0-.28-.32.64.64 0 0 1-.19-.19 13.85 13.85 0 0 0-1.15-1.27 1.33 1.33 0 0 1-.25-.28s0-.05-.05-.06-.1 0-.35-.4l-.12-.16c-.17-.22-.45-.57-.56-.68a2.41 2.41 0 0 1-.37-.44l-.22-.3a12.53 12.53 0 0 1-1-1.06c-.41-.51-1.39-1.69-1.63-1.94l-.4-.43-.09-.1a5.19 5.19 0 0 0-.47-.46l-.12-.07a.79.79 0 0 0-.29-.18c-.1 0-.1 0-.06-.09s0 0 0-.06a.71.71 0 0 1-.36-.38.17.17 0 0 0-.09-.13.25.25 0 0 1-.19-.19c0-.06 0-.08-.07 0s-.18-.19-.16-.29a.17.17 0 0 0-.07-.09 1.26 1.26 0 0 1-.16-.2.38.38 0 0 0-.16-.17c-.06 0-.08 0-.07-.09a.15.15 0 0 0 0-.12c-.07-.08-.39-.36-.44-.4a1 1 0 0 1-.25-.42s0-.07-.09-.09-.11-.06-.1-.12-.13-.25-.42-.49c-.07-.06-.1-.11-.07-.12s0-.07 0-.12c-.21-.25-.29-.7-.14-.76a.14.14 0 0 0 .07-.12c0-.06 0-.11.05-.11s0 0 0-.07v-.06c0-.06.26-.2.24-.28a.08.08 0 0 1 .22-.11zM693.76 67.19a.56.56 0 0 0 .28 0c.13 0 .24-.05.24 0s.05 0 .09 0a.11.11 0 0 1 .12 0s.13 0 .08 0 0 0 0 .06 0 0 .13 0a.19.19 0 0 1 .15 0 .86.86 0 0 0 .22 0h.22a.26.26 0 0 0 .18-.06c.07 0 .1-.06.11 0s0 0 .06 0h.09a.72.72 0 0 0 .52-.13s0 .07.16 0a.32.32 0 0 1 .21 0 .08.08 0 0 0 .11 0c0-.05.06-.06.09 0s.09 0 .17 0a.21.21 0 0 1 .2 0s.07 0 .07 0h.16c.01 0 0-.07.08 0a.59.59 0 0 0 .27 0h.25a.37.37 0 0 0 .16 0c.11 0 .11 0 0-.06s-.08-.07 0 0 .1.06.09.09 0 0 .07 0h.25c.27.12.31.17.42.61a.71.71 0 0 0 .08.24s0 0 0 .12a1 1 0 0 0 .07.25.7.7 0 0 1 0 .34c0 .2 0 .22.06.24s.07 0 0 .07a.13.13 0 0 0 0 .12V69.32a.28.28 0 0 1 0 .2 1.34 1.34 0 0 0 .15.53.06.06 0 0 1 0 .06 1.05 1.05 0 0 0 0 .38.69.69 0 0 1 0 .36s0 .11.11.45c0 .11.06.21 0 .23v.9c0 .03.05 0 .06 0s0-.06 0 0a.1.1 0 0 1 0 .1c-.05 0-.05.06 0 .14a.3.3 0 0 1 0 .16.72.72 0 0 0 0 .35v.09c0-.19.08.58.16 1.14.17 1.18.23 2.53.37 4.08s.11 3.29.18 5.26c-.08 2-.07 4.15-.32 6.58a93 93 0 0 1-3.24 18.67 110.79 110.79 0 0 1-5.27 13.86 119.79 119.79 0 0 1-7.54 14.08 184.18 184.18 0 0 1-15.3 21c-5.52 6.64-12.23 13.78-14.59 16.25s-4.38 4.62-4.55 4.79l-1 1.07-1.68 1.74-1 1a9.82 9.82 0 0 0-.8.85s0 .06-.08.08a.29.29 0 0 0-.13.11.12.12 0 0 1-.1.06.12.12 0 0 0-.11.09c0 .07-.18.21-.45.39a.64.64 0 0 0-.16.19c-.07.1-.11.13-.2.13a.37.37 0 0 0-.21.1c-.14.15-.76.14-.84 0s-.09-.07-.17-.08-.15 0-.16-.07-.07 0-.15-.12a2.71 2.71 0 0 0-.58-.57.14.14 0 0 1-.1-.1 1.22 1.22 0 0 0-.29-.33 2.6 2.6 0 0 1-.32-.34.4.4 0 0 0-.13-.13.35.35 0 0 1-.14-.13 3.37 3.37 0 0 0-.43-.5 5 5 0 0 1-.42-.48.19.19 0 0 0-.11-.09 1.12 1.12 0 0 1-.47-.4l-.13-.2c-.24-.34-.2-.56.23-1a.62.62 0 0 0 .15-.22s.06-.1.16-.16a1.17 1.17 0 0 0 .3-.29.87.87 0 0 1 .18-.21 11.63 11.63 0 0 0 1.2-1.22c.13-.15.25-.27.27-.26a.06.06 0 0 0 .05-.06c0-.07 0-.1.38-.37l.1-.08.06-.06 1-1 4.09-4.23c2.76-2.88 5.38-5.67 6.6-7 2.6-2.88 2.94-3.19 7.22-8.07 2.15-2.47 4.18-4.92 4.55-5.41 1.46-1.78 4.81-6 8-10.54s6-9.29 7.39-11.63c1.49-2.67 3.42-6.27 5.24-10.39a104.72 104.72 0 0 0 4.79-13.28 82.41 82.41 0 0 0 3.26-21c.06-.9 0-2.81-.07-5.16-.07-1.18-.2-2.46-.31-3.78 0-.65-.18-1.34-.26-2v-.12a6 6 0 0 0-.12-.61.34.34 0 0 1-.06-.12.76.76 0 0 0-.14-.3c-.06-.08-.06-.09 0-.1s.06 0 0-.06a.62.62 0 0 1-.08-.49.19.19 0 0 0 0-.15.21.21 0 0 1 0-.25v-.5a.71.71 0 0 1 0-.23.34.34 0 0 0-.06-.22s0-.08 0-.11a.12.12 0 0 0 0-.12 4.15 4.15 0 0 0-.17-.53.93.93 0 0 1 0-.47v-.12c0-.06-.06-.1 0-.15s0-.26-.1-.61v-.24c0-.3.12-.73.28-.71s.09 0 .12-.07a.13.13 0 0 1 .1-.07s0-.07 0 0a.46.46 0 0 0 .36-.13.07.07 0 0 1-.03-.16zM694.31 188.27s-.06-.13-.15-.24-.15-.19-.13-.21 0 0 0-.07-.07-.08-.05-.11 0-.13-.07-.06a.15.15 0 0 1 0-.09s0-.05-.07-.1a.24.24 0 0 1-.09-.13.92.92 0 0 0-.1-.2.58.58 0 0 1-.1-.19.32.32 0 0 0-.14-.14c-.08 0-.1-.07-.07-.09s0 0 0-.05-.07 0-.06-.07-.28-.43-.35-.41 0-.08 0-.16a.36.36 0 0 1-.11-.18c0-.05 0-.07-.08-.09s-.08 0-.06-.07 0-.09-.09-.14a.28.28 0 0 1-.11-.17v-.13c0-.07 0-.08-.07-.06s-.08 0-.07-.06a.64.64 0 0 0-.13-.24.62.62 0 0 1-.11-.23.33.33 0 0 0 0-.16c0-.1 0-.1-.07 0s0 .1 0 0v-.18a.35.35 0 0 1-.1-.23c0-.29 0-.35.32-.62.09-.08.16-.16.15-.17s0-.06.08-.09a.91.91 0 0 0 .17-.17.62.62 0 0 1 .26-.18c.16-.07.18-.09.16-.15s0-.07 0-.07a.12.12 0 0 0 .1-.05s0 0 .06 0 .07 0 .13-.08.13-.1.15-.09.34-.28.36-.36a1.07 1.07 0 0 0 .29-.21.74.74 0 0 1 .27-.19s.09 0 .28-.32c.07-.09.13-.15.16-.14h.11c.05 0 .12 0 .2-.14s.17-.14.18-.13.19-.1.17-.16h-.06c-.05 0-.05 0 0 0a.08.08 0 0 1 .1 0c.05 0 .08 0 .11-.08s.08-.11.1-.11a.63.63 0 0 0 .28-.16s.42-.35.84-.75 1-.93 1.67-1.61c2-1.92 3.62-3.76 4.64-4.93a81.22 81.22 0 0 0 5.17-6.62c1-1.43 2.08-3.1 2.45-3.69s.67-1.11.69-1.16a1.86 1.86 0 0 1 .14-.26l.26-.45c.07-.11.37-.62.67-1.15a9.71 9.71 0 0 0 .54-1s0-.07 0-.11a.19.19 0 0 0 .09-.12.12.12 0 0 1 .09-.09.13.13 0 0 0 .07-.12c0-.07.1-.24.31-.48a1.16 1.16 0 0 0 .1-.22c0-.11.06-.15.15-.17a.4.4 0 0 0 .17-.15c.09-.18.68-.34.79-.22a.27.27 0 0 0 .19 0 .25.25 0 0 1 .18 0s0 0 .05 0 .08 0 .18.07a2.47 2.47 0 0 0 .73.37.11.11 0 0 1 .11.07 1.76 1.76 0 0 0 .38.22 1.87 1.87 0 0 1 .41.24.45.45 0 0 0 .17.08.22.22 0 0 1 .16.09 4.62 4.62 0 0 0 .56.34 3.88 3.88 0 0 1 .55.34.16.16 0 0 0 .13 0 1.31 1.31 0 0 1 .57.25l.18.16c.33.25.34.48.06 1.08-.06.12-.1.23-.08.26s0 .11-.12.2a1.22 1.22 0 0 0-.21.39.74.74 0 0 1-.13.25s-.67 1.14-.87 1.56a.87.87 0 0 1-.2.33.06.06 0 0 0 0 .07c0 .07 0 .12-.29.47l-.08.11v.07l-.16.25-.68 1.11-1.14 1.8c-.45.74-.51.82-1.34 2l-.92 1.29c-.55.86-2.84 3.91-3.63 4.83s-2.39 2.81-3.85 4.38-2.87 3-3.39 3.47c-.14.15-.46.45-.85.83l-.62.6-.43.41a4.74 4.74 0 0 0-.48.48.35.35 0 0 1-.08.12 1.08 1.08 0 0 0-.19.31c0 .09 0 .1-.09 0s0 0-.06 0a.75.75 0 0 1-.39.37.23.23 0 0 0-.13.09.29.29 0 0 1-.21.19c-.07 0-.08 0-.05.08s-.19.18-.29.16a.2.2 0 0 0-.11.07 1 1 0 0 1-.21.16.43.43 0 0 0-.18.17c0 .06 0 .08-.09.07a.14.14 0 0 0-.13 0 5.59 5.59 0 0 0-.42.44 1 1 0 0 1-.45.24s-.06 0-.1.09-.06.11-.13.1-.26.12-.53.4c-.06.07-.11.1-.13.07s-.06 0-.11 0c-.27.2-.74.27-.79.11a.14.14 0 0 0-.12-.08s-.1 0-.1-.06 0 0-.07 0h-.05c.01 0-.19-.27-.27-.26a.07.07 0 0 1-.25-.08zM758 265.09a.61.61 0 0 0 .25-.11c.12-.07.22-.12.23-.1s0 0 .09 0a.11.11 0 0 1 .11 0c.06 0 .13 0 .07-.05a.13.13 0 0 1 .07.05s.05 0 .12-.05a.24.24 0 0 1 .13-.07l.21-.07.21-.07a.26.26 0 0 0 .16-.1c.06-.08.08-.09.1-.06s.05-.07.08 0 .47-.2.47-.28.07.05.16 0a.3.3 0 0 1 .19-.07s.08 0 .1-.07 0-.07.09-.05.09 0 .15-.06a.24.24 0 0 1 .18-.07s.08 0 .07 0h.07c.07 0 .09 0 .08-.06s0-.08.06-.07a.56.56 0 0 0 .26-.07.58.58 0 0 1 .25-.07.26.26 0 0 0 .16 0c.11 0 .11 0 0-.07s-.09 0 0 0 .12 0 .12.06 0 0 .06 0a.3.3 0 0 1 .25-.05c.29 0 .34.08.57.47.06.12.13.21.14.2s0 0 .08.1a.83.83 0 0 0 .14.22.69.69 0 0 1 .14.31c0 .19 0 .21.12.2s.07 0 .06.06a.13.13 0 0 0 0 .12v.23a.36.36 0 0 1 .06.18 1.17 1.17 0 0 0 .29.46.06.06 0 0 1 0 .06 1.1 1.1 0 0 0 .15.35 1.43 1.43 0 0 1 .14.32s0 .11.25.39c.08.09.12.17.1.2a.07.07 0 0 0 0 .07v.06a.57.57 0 0 0 .09.25c.06.12.09.22.07.23s.05.22.11.23.05 0 0-.06 0-.05 0 0a.09.09 0 0 1 0 .1v.14c0 .06.09.11.08.14a1 1 0 0 0 .08.34 7.07 7.07 0 0 0 .3.67c.27.59.59 1.27.94 2s.69 1.68 1.11 2.68.89 2.12 1.32 3.4a107.13 107.13 0 0 1 4.86 18.41c.23 1.13.35 2.41.57 3.87.09.73.22 1.51.31 2.34s.15 1.72.23 2.67a100.76 100.76 0 0 1 .25 14.63c-.08 1.22-.11 2.49-.24 3.72s-.27 2.45-.38 3.57c-.27 2.23-.62 4.09-.76 5.05-.3 1.92-.71 3.58-.7 3.71s-.07.38-.16.82-.17.87-.28 1.38c0 .13-.2.75-.37 1.37-.08.32-.16.61-.22.82a1.76 1.76 0 0 0-.07.35s0 .08 0 .13a.36.36 0 0 0-.06.15.15.15 0 0 1-.06.11.12.12 0 0 0-.05.14 1.26 1.26 0 0 1-.2.57.58.58 0 0 0-.05.25c0 .13 0 .18-.11.22a.37.37 0 0 0-.14.2c0 .21-.6.5-.73.4a.25.25 0 0 0-.19 0H769.93a2.75 2.75 0 0 0-.79-.23.15.15 0 0 1-.13 0 1.24 1.24 0 0 0-.41-.15 3.17 3.17 0 0 1-.45-.15.22.22 0 0 0-.17-.05.33.33 0 0 1-.19-.06 5 5 0 0 0-.61-.24 4.17 4.17 0 0 1-.6-.22.14.14 0 0 0-.14 0 1.26 1.26 0 0 1-.6-.14l-.22-.11c-.37-.19-.44-.39-.3-1a.53.53 0 0 0 0-.25s0-.11.06-.21a1.19 1.19 0 0 0 .12-.39.76.76 0 0 1 .05-.26 13 13 0 0 0 .43-1.59.9.9 0 0 1 .1-.35s0 0 0-.07 0-.11.14-.49v-.2c0-.23.1-.47.16-.71.2-1 .44-2.05.66-3.11.42-2.11.68-4.17.85-5.14.23-2.1.27-2.34.62-5.86.11-1.79.22-3.52.24-3.85V312.64c0-.72-.06-1.47-.09-2.23-.06-3-.44-6.09-.54-7.58a110.91 110.91 0 0 0-2.6-14.07c-.73-2.53-1.38-5-2.12-6.95l-.91-2.63-.71-1.74c-.19-.47-.59-1.46-1.1-2.69l-1.43-3.07a5.45 5.45 0 0 0-.3-.56.47.47 0 0 1-.09-.1.8.8 0 0 0-.22-.25c-.08 0-.08-.06 0-.09s.05 0 0-.07a.65.65 0 0 1-.23-.44v-.14a.23.23 0 0 1-.13-.23c0-.07 0-.08-.06-.06s-.13-.21-.08-.3 0-.07 0-.11a.76.76 0 0 1-.1-.22.33.33 0 0 0-.12-.2c-.05 0-.06-.06 0-.1a.12.12 0 0 0 0-.13 3.83 3.83 0 0 0-.31-.47.92.92 0 0 1-.13-.46s0-.06-.07-.11-.09-.07-.06-.13-.06-.27-.27-.57c-.05-.07-.07-.12 0-.13s0-.06 0-.11c-.13-.29-.09-.74.06-.77a.13.13 0 0 0 .1-.1c0-.05 0-.09.08-.09s0 0 0-.07v-.05a.4.4 0 0 0 .31-.22.07.07 0 0 1 .37-.31zM795.75 268a.54.54 0 0 0 .27 0H796.36a.12.12 0 0 1 .12 0c0 .06.13 0 .08 0a.12.12 0 0 1 0 .07c0 .05 0 .05.13 0a.26.26 0 0 1 .15 0h.44a.27.27 0 0 0 .19-.05c.07-.05.1-.06.11 0s0 0 .06 0h.09a.74.74 0 0 0 .53-.1s0 .06.16 0a.35.35 0 0 1 .2 0 .08.08 0 0 0 .12 0c0-.05.07-.06.09 0a.2.2 0 0 0 .17 0 .24.24 0 0 1 .2 0s.07 0 .07 0h.16c.01 0 0-.07.08 0a.71.71 0 0 0 .28 0 .45.45 0 0 1 .25 0 .26.26 0 0 0 .15.06c.11 0 .11 0 0 0s-.08-.07 0 0 .1.07.09.1 0 0 .07 0a.29.29 0 0 1 .25 0c.26.13.3.19.39.62a.51.51 0 0 0 .07.23s0 .06 0 .13a1 1 0 0 0 .07.24.66.66 0 0 1 0 .33v.23s.06 0 0 .08a.13.13 0 0 0 0 .12v.23a.29.29 0 0 1 0 .19 1.16 1.16 0 0 0 .11.52s0 0 0 .06a1 1 0 0 0 0 .37.93.93 0 0 1 0 .36s0 .1.12.44V272.58a.53.53 0 0 0 0 .26v.49c0 .03 0 0 .06-.05a.11.11 0 0 1-.05.09s0 .07 0 .15.05.13 0 .15a.93.93 0 0 0 0 .34c0-.14.1.82.2 1.75s.24 2.19.38 3.73c.4 4.42.53 8.4.57 10.92s.11 6.54-.36 13.53c0 .7-.1 1.42-.16 2.13s-.1 1.35-.2 2.13a20 20 0 0 1-.7 3.29 22.32 22.32 0 0 1-.91 2.43 5.48 5.48 0 0 1-.26.55c-.09.15-.16.32-.28.51l-.26.41a9.54 9.54 0 0 1-2.25 2.38c-.26.21-.48.32-.48.34s-.09.07-.18.1a1 1 0 0 0-.25.12.32.32 0 0 1-.19.07.39.39 0 0 0-.22.09 3.17 3.17 0 0 1-1 .3l-.42.1a.55.55 0 0 1-.41 0 .77.77 0 0 0-.38 0c-.36 0-1-.44-.92-.59s0-.12-.08-.19-.11-.13-.08-.16 0 0 0-.05v-.19a1.9 1.9 0 0 0 .07-.81.14.14 0 0 1 0-.14 1.22 1.22 0 0 0 .07-.44 2.6 2.6 0 0 1 0-.47.28.28 0 0 0 0-.18.43.43 0 0 1 0-.19 5.37 5.37 0 0 0 .09-.66c0-.3 0-.59.06-.63a.21.21 0 0 0 0-.14 2.72 2.72 0 0 1 0-.62v-.23c0-.43.1-.5.16-.56a.06.06 0 0 0 0-.05s0 0 .05 0 0-.05 0 0 .25-.09.37-.3c0-.05.1-.13.12-.12s0-.05.18-.21v-.05l.14-.21a8.29 8.29 0 0 0 .57-1.19 11.8 11.8 0 0 0 .63-2.38c.08-.52.1-.78.15-1.18s.1-1 .2-2 .16-2.06.17-2.26c.1-1.46.27-6.92.25-8.67 0-2 0-5.3-.18-8.37s-.43-5.91-.54-6.95c0-.3-.11-.92-.2-1.69-.05-.39-.1-.81-.15-1.24 0-.26-.08-.52-.11-.78a4.18 4.18 0 0 0-.12-.63.53.53 0 0 1-.06-.13.65.65 0 0 0-.14-.3c-.06-.08-.06-.09 0-.1s.06 0 0-.07a.69.69 0 0 1-.08-.5.19.19 0 0 0 0-.15.23.23 0 0 1-.05-.26v-.39a.17.17 0 0 0 0-.12 1.57 1.57 0 0 1 0-.25.35.35 0 0 0 0-.22v-.11a.18.18 0 0 0 0-.13 4.74 4.74 0 0 0-.15-.55 1 1 0 0 1 0-.48v-.13c0-.06-.07-.1 0-.15s0-.27-.09-.63v-.24c0-.32.14-.74.3-.71a.12.12 0 0 0 .12-.07s.08-.07.1-.06 0 0 0-.05 0-.07 0 0a.39.39 0 0 0 .36-.11.08.08 0 0 1 .93-.45zM802.29 780.36c-.09 0-.42.14-.73.41s-.62.42-.66.36-.16 0-.24.12a.29.29 0 0 1-.32.16c-.24-.1-.42.08-.19.19s.13.08 0 .06a.46.46 0 0 1-.26-.13c-.12-.14-.18-.1-.33.18a.68.68 0 0 1-.39.29 2.21 2.21 0 0 0-.59.28 2.57 2.57 0 0 1-.6.3.85.85 0 0 0-.42.4c-.12.24-.19.3-.26.21s-.1 0-.14.13-.1.22-.21.19-1.29.83-1.24 1 0 .1-.1 0-.21-.09-.45.16a1.21 1.21 0 0 1-.52.33.28.28 0 0 0-.27.24c0 .16-.11.21-.21.19s-.26.09-.41.27a1 1 0 0 1-.5.34c-.13 0-.21.06-.18.09s-.06.07-.19.09-.22.07-.19.22 0 .18-.17.21a2.16 2.16 0 0 0-.69.42 2.07 2.07 0 0 1-.63.38 1.08 1.08 0 0 0-.42.17c-.28.16-.28.17 0 .15s.22 0-.06.11-.29.07-.28 0-.06 0-.17.1a1.52 1.52 0 0 1-.63.4c-.74.3-.78.26-1.35-.16-.16-.13-.32-.21-.36-.17s-.1 0-.18-.09a.75.75 0 0 0-.37-.2c-.15 0-.28-.18-.39-.4s-.23-.33-.37-.2-.16.11-.15 0-.05-.17-.13-.17-.09-.06-.05-.12 0-.18-.2-.24-.28-.18-.27-.25-.75-.47-1-.4c0 0-.08 0-.07-.09a1.47 1.47 0 0 0-.63-.42c-.38-.16-.66-.34-.64-.39s-.16-.17-1-.24c-.26 0-.45-.1-.45-.18s-.06-.12-.12-.1-.11 0-.12-.09-.25-.19-.53-.27-.5-.19-.48-.26-.44-.3-.57-.17a.16.16 0 0 0 0 .21c.09.08.08.1 0 .07s-.14-.12-.14-.23-.07-.19-.3-.16-.33 0-.37-.06-.25-.24-.73-.42a15.32 15.32 0 0 0-1.48-.46c-.73-.21-1.67-.45-2.89-.72-.88-.2-1.77-.38-2.62-.56l-2.49-.47c-1.56-.29-2.89-.51-3.91-.67s-2.39-.34-4.11-.49a50.51 50.51 0 0 0-6.43-.15 40.06 40.06 0 0 0-5.14.59 7.76 7.76 0 0 0-1.53.38 4 4 0 0 1-.94.33c-1.06.29-2.12.62-3.16 1a12.46 12.46 0 0 0-2.55 1.18c0 .06-.12.12-.27.12a.64.64 0 0 0-.36.12.28.28 0 0 1-.3.05.25.25 0 0 0-.32.13c-.09.16-.55.35-1.32.55a1.36 1.36 0 0 0-.49.34.47.47 0 0 1-.57.16.73.73 0 0 0-.57.09 2.5 2.5 0 0 1-2.2-.72.85.85 0 0 0-.45-.35c-.22-.08-.41-.21-.42-.3s-.06-.12-.12-.08-.2-.11-.38-.44a8.08 8.08 0 0 0-1.42-2 .46.46 0 0 1-.23-.35 4 4 0 0 0-.68-1.12 6.57 6.57 0 0 1-.78-1.2.93.93 0 0 0-.32-.44.92.92 0 0 1-.32-.47 12.29 12.29 0 0 0-1-1.71 10.67 10.67 0 0 1-1-1.66.4.4 0 0 0-.3-.31 3.16 3.16 0 0 1-1.16-1.45c-.06-.19-.17-.49-.25-.68-.49-1.16-.13-1.87 1.86-3.19a2.54 2.54 0 0 0 .73-.62c0-.09.33-.26.74-.4a6.36 6.36 0 0 0 1.39-.72 3 3 0 0 1 .88-.49c.12 0 1.18-.51 2.41-1.06s2.64-1.13 3.39-1.47a4.18 4.18 0 0 1 1.33-.44c.06.05.18 0 .26-.1s.31-.25 1.87-.56l3.35-.74c1.44-.3 2.83-.53 3.49-.66a24.4 24.4 0 0 1 4-.43l2.57-.09c.83-.07 2.79-.15 4.73-.1s3.88.19 4.8.31c2.11.23 5.53.72 8.56 1.27s5.91 1.14 7 1.38c.31.06 1 .19 1.77.38l1.32.31 1.13.3c1.13.27 2.16.58 2.25.55a1.78 1.78 0 0 1 .49 0 3.33 3.33 0 0 0 1.24.1c.35 0 .4 0 .33.18s0 .19.19.14a3 3 0 0 1 1.82.65.87.87 0 0 0 .53.27 1.14 1.14 0 0 1 .95.37c.18.19.26.21.32.07s.92.38 1 .7c0 .08.2.19.4.26a3.77 3.77 0 0 1 .86.49 2.21 2.21 0 0 0 .84.41c.23 0 .35.11.38.25a.76.76 0 0 0 .33.38c.19.11.66.34 1.11.58s.88.49 1 .54a3.72 3.72 0 0 1 .85.65 3.06 3.06 0 0 1 .6.75c0 .13.15.23.46.33s.46.19.49.41.74.91 2 1.89c.3.25.43.44.35.48s0 .24.19.44c1 1 1.42 2.85.91 2.92-.13 0-.22.19-.21.39s-.06.34-.15.34-.08.1 0 .23.13.23-.09.19-.84.54-.78.81.06.39-.14.29zM663.07 780.36c-.09 0-.41.14-.73.41s-.61.42-.66.36-.16 0-.24.12a.29.29 0 0 1-.32.16c-.24-.1-.42.08-.18.19s.12.08 0 .06a.46.46 0 0 1-.27-.13c-.11-.14-.18-.1-.33.18a.69.69 0 0 1-.38.29 2.26 2.26 0 0 0-.6.28 2.39 2.39 0 0 1-.6.3.79.79 0 0 0-.41.4c-.12.24-.19.3-.26.21s-.11 0-.15.13-.1.22-.2.19-1.3.83-1.25 1 0 .1-.09 0-.21-.09-.46.16a1.16 1.16 0 0 1-.52.33.27.27 0 0 0-.26.24c0 .16-.11.21-.22.19s-.25.09-.41.27a1 1 0 0 1-.5.34c-.12 0-.2.06-.18.09s-.06.07-.18.09-.22.07-.2.22 0 .18-.17.21a2.28 2.28 0 0 0-.69.42 2.21 2.21 0 0 1-.62.38 1.05 1.05 0 0 0-.43.17c-.28.16-.27.17 0 .15s.22 0 0 .11-.29.07-.29 0-.05 0-.17.1a1.45 1.45 0 0 1-.63.4c-.74.3-.78.26-1.35-.16-.16-.13-.32-.21-.35-.17s-.11 0-.19-.09a.75.75 0 0 0-.37-.2c-.14 0-.28-.18-.39-.4s-.22-.33-.37-.2-.15.11-.15 0a.14.14 0 0 0-.12-.17.07.07 0 0 1-.06-.12c0-.07 0-.18-.2-.24s-.28-.18-.27-.25-.75-.47-1-.4c0 0-.08 0-.08-.09a1.39 1.39 0 0 0-.63-.42c-.38-.16-.66-.34-.64-.39s-.15-.17-1-.24c-.25 0-.44-.1-.45-.18s-.06-.12-.12-.1a.1.1 0 0 1-.12-.09c0-.07-.25-.19-.53-.27s-.5-.19-.48-.26-.44-.3-.56-.17a.15.15 0 0 0 0 .21c.09.08.09.1 0 .07s-.14-.12-.14-.23-.08-.19-.3-.16-.34 0-.38-.06-.25-.24-.73-.42a15.32 15.32 0 0 0-1.48-.46c-.72-.21-1.66-.45-2.89-.72-.88-.2-1.76-.38-2.61-.56L630 781c-1.55-.29-2.88-.51-3.9-.67s-2.39-.34-4.11-.49a50.67 50.67 0 0 0-6.44-.15 40.06 40.06 0 0 0-5.14.59 7.34 7.34 0 0 0-1.52.38 4.4 4.4 0 0 1-.94.33c-1.07.29-2.13.62-3.17 1a12.46 12.46 0 0 0-2.55 1.18c0 .06-.12.12-.26.12a.67.67 0 0 0-.37.12.28.28 0 0 1-.3.05.24.24 0 0 0-.31.13 2.8 2.8 0 0 1-1.32.55 1.39 1.39 0 0 0-.5.34.46.46 0 0 1-.56.16.75.75 0 0 0-.58.09 2.51 2.51 0 0 1-2.2-.72.78.78 0 0 0-.45-.35c-.22-.08-.4-.21-.42-.3s-.06-.12-.12-.08-.2-.11-.37-.44a8.32 8.32 0 0 0-1.43-2 .42.42 0 0 1-.22-.35 4.43 4.43 0 0 0-.69-1.12 8 8 0 0 1-.78-1.2.87.87 0 0 0-.32-.44 1 1 0 0 1-.32-.47 11.83 11.83 0 0 0-1-1.71 12.17 12.17 0 0 1-1-1.66.4.4 0 0 0-.3-.31 3.21 3.21 0 0 1-1.15-1.45c-.07-.19-.18-.49-.26-.68-.48-1.16-.12-1.87 1.86-3.19a2.26 2.26 0 0 0 .73-.62c0-.09.33-.26.74-.4a6.36 6.36 0 0 0 1.39-.72 3.15 3.15 0 0 1 .88-.49c.13 0 1.18-.51 2.42-1.06s2.64-1.13 3.38-1.47a4.26 4.26 0 0 1 1.33-.44c.07.05.18 0 .26-.1s.31-.25 1.87-.56l3.35-.74c1.44-.3 2.83-.53 3.5-.66a24.11 24.11 0 0 1 4-.43l2.58-.09c.83-.07 2.78-.15 4.72-.1s3.88.19 4.8.31c2.11.23 5.53.72 8.57 1.27s5.91 1.14 7 1.38c.31.06 1 .19 1.78.38l1.31.31 1.13.3c1.13.27 2.16.58 2.25.55a1.85 1.85 0 0 1 .5 0 3.27 3.27 0 0 0 1.23.1c.35 0 .4 0 .34.18s0 .19.19.14a2.92 2.92 0 0 1 1.89.7.89.89 0 0 0 .53.27 1.13 1.13 0 0 1 1 .37c.18.19.26.21.32.07s.92.38 1 .7c0 .08.21.19.4.26a3.4 3.4 0 0 1 .86.49 2.21 2.21 0 0 0 .84.41c.24 0 .36.11.38.25a.76.76 0 0 0 .33.38c.19.11.66.34 1.11.58s.89.49 1 .54a4 4 0 0 1 .84.65 2.82 2.82 0 0 1 .6.75c0 .13.15.23.46.33s.46.19.49.41.74.91 2 1.89c.29.25.42.44.34.48s0 .24.19.44c1 1 1.43 2.85.91 2.92-.12 0-.21.19-.2.39s-.07.34-.16.34-.07.1 0 .23.13.23-.08.19-.84.54-.78.81-.11.31-.31.21zM728.69 804.08a2.52 2.52 0 0 0 .2 1.08c.17.52.25 1 .17 1s0 .18.05.35.14.37.06.46-.07.54.13.33.13-.1.08 0a.44.44 0 0 1-.24.23c-.19.05-.18.15.07.5a1 1 0 0 1 .16.61 3 3 0 0 0 .06.87 3.68 3.68 0 0 1 .07.89 1.09 1.09 0 0 0 .26.72c.23.28.26.39.12.43s-.11.11.08.24.23.25.12.36.3 2 .61 2.06c.15 0 .13.06-.06.12s-.27.22-.09.65a1.25 1.25 0 0 1 .09.82c-.09.19 0 .33.16.46s.24.23.11.36-.08.37.08.66a.92.92 0 0 1 .1.8c-.1.17-.11.3 0 .28s.07.1 0 .28-.11.33.17.35.32.1.2.31a2.39 2.39 0 0 0 0 1.11 1.55 1.55 0 0 1 0 1 1.33 1.33 0 0 0-.23.65c0 .45 0 .46.26.12s.29-.33.16.11c-.08.26-.26.44-.4.41s-.17.06 0 .27.12.57-.11 1c-.56 1.15-.84 1.3-2.9 1.77a2.84 2.84 0 0 0-1.11.38c0 .06-.25.15-.58.19a4.81 4.81 0 0 0-1.18.27 4 4 0 0 1-1.59.12c-.9-.09-1-.07-1.11.2s-.17.26-.36.15a.68.68 0 0 0-.56-.05c-.16.07-.3 0-.31-.06s-.36-.13-.79-.07a1.57 1.57 0 0 1-.9 0 8.2 8.2 0 0 0-2.52.32.21.21 0 0 1-.27-.05 6.86 6.86 0 0 0-1.77-.07 5.42 5.42 0 0 1-1.67-.08c0-.14-.48-.11-2.14.13-.54.08-1 .07-1 0a.27.27 0 0 0-.31-.07.24.24 0 0 1-.3-.07 3.3 3.3 0 0 0-1.21-.18c-.6 0-1.09-.11-1.09-.2s-1-.29-1.18-.09 0 .21.13.27.21.11 0 .1a.42.42 0 0 1-.37-.27c-.08-.21-.23-.24-.66-.14a1.2 1.2 0 0 1-.75 0 4.5 4.5 0 0 0-1.53-.48 9.53 9.53 0 0 1-1-.24l-1-.27c-1.18-.33-2.22-.69-2.88-.91s-1.71-.54-3.52-1.15l-1.83-.63c-.29-.11-.54-.18-.58-.13s-.07 0-.14 0h-.12l-.24-.07c-.59-.18-3.42-1-6.19-2.16-1.4-.52-2.64-1.13-3.58-1.5a15.65 15.65 0 0 0-1.56-.61c-.09 0-.32-.07-.52-.26a1.76 1.76 0 0 0-.65-.4.8.8 0 0 1-.46-.38.65.65 0 0 0-.57-.33 5.93 5.93 0 0 1-2.37-1.51 4.6 4.6 0 0 0-1-.55c-.53-.2-.73-.37-.86-.73a2.07 2.07 0 0 0-.71-.82c-.84-.54-1.5-3.13-.9-3.49a.94.94 0 0 0 .16-.76c0-.33 0-.64.13-.69s.13-.13 0-.2 0-.31.37-.67a9.63 9.63 0 0 0 1.87-2.68.54.54 0 0 1 .33-.44 5.06 5.06 0 0 0 1.12-1.36 9.25 9.25 0 0 1 1.14-1.52 1.3 1.3 0 0 0 .41-.6 1.27 1.27 0 0 1 .44-.62 17.06 17.06 0 0 0 1.67-2 19.46 19.46 0 0 1 1.59-2 .71.71 0 0 0 .26-.51 5.43 5.43 0 0 1 1.3-2.09l.67-.69c1.13-1.24 1.83-1.26 3.58-.32a1.48 1.48 0 0 0 .79.22c.09-.06.34.1.59.37a2.21 2.21 0 0 0 1.13.66 1.73 1.73 0 0 1 .77.34 18.69 18.69 0 0 0 4.88 2.14 2.48 2.48 0 0 1 1.1.45c0 .09.11.12.22.07s.36-.07 1.58.53l.37.17.22.1h.07a2.36 2.36 0 0 0 .31.2 1.83 1.83 0 0 0 .54.2c.24 0 .26 0 .61.26a1.54 1.54 0 0 0 .38.23 7.62 7.62 0 0 1 1.61.41 14.81 14.81 0 0 0 2.8 1l1.1.12a8.73 8.73 0 0 0 2.1.11 1.16 1.16 0 0 1 .44-.12 2.13 2.13 0 0 0 1.08-.31c.29-.17.33-.15.32.1s0 .26.19.11a1.76 1.76 0 0 1 1.64 0 .47.47 0 0 0 .5.09.69.69 0 0 1 .84 0c.2.13.26.11.26-.09s.81-.06 1 .25c0 .08.22.1.38.06a1.92 1.92 0 0 1 .81 0 .92.92 0 0 0 .74-.09c.17-.14.28-.14.36 0a.45.45 0 0 0 .39.19 9.54 9.54 0 0 0 1.83-.41 2.62 2.62 0 0 1 1.56.19c.08.12.21.09.42-.09s.32-.22.48 0 .9.1 2-.32c.27-.1.45-.08.45 0s.18.17.38.14c1-.2 2.48.43 2.47 1.06a.66.66 0 0 0 .28.49c.17.11.28.28.26.38s.07.16.21.12.23 0 .15.22a1.85 1.85 0 0 0 .57 1.39.31.31 0 0 1 .05.44z" fill="#000000" class="fill-000000"></path><path d="M606.16 360.51a1.7 1.7 0 0 0-.68-.47c-.37-.18-.65-.37-.62-.43s-.06-.13-.21-.16-.28-.12-.28-.21c0-.24-.25-.33-.25-.1s0 .13 0 0a.35.35 0 0 1 0-.27c.07-.14 0-.18-.31-.22a.68.68 0 0 1-.41-.23 2.28 2.28 0 0 0-.51-.42 2.3 2.3 0 0 1-.51-.43 1 1 0 0 0-.54-.23c-.26 0-.34-.06-.29-.15s0-.12-.17-.08-.25 0-.26-.12-1.26-.88-1.43-.73-.1 0 0-.1 0-.25-.31-.37a1 1 0 0 1-.5-.37c-.06-.14-.16-.18-.33-.15s-.25 0-.26-.13-.17-.22-.4-.28a.77.77 0 0 1-.49-.35c-.06-.13-.12-.2-.15-.15s-.09 0-.15-.16-.13-.21-.28-.08-.2.1-.26-.06a2 2 0 0 0-.63-.54c-.3-.18-.55-.41-.56-.5a.87.87 0 0 0-.26-.42c-.23-.23-.24-.23-.18.06s0 .29-.14 0-.13-.33-.05-.37.05-.11-.14-.14-.38-.22-.54-.54c-.4-.78-.38-1 .19-2.14a1.52 1.52 0 0 0 .24-.68s0-.19.13-.35a2.33 2.33 0 0 0 .28-.69 2 2 0 0 1 .53-.82c.4-.4.43-.47.3-.63s-.1-.19 0-.23a.39.39 0 0 0 .23-.27c0-.1.08-.17.15-.13s.21-.13.31-.37.26-.45.33-.45a3.44 3.44 0 0 0 .65-1.43.13.13 0 0 1 .12-.13 3.4 3.4 0 0 0 .6-.92 2.81 2.81 0 0 1 .56-.86c.1.05.21-.24.51-1.24.09-.33.23-.57.31-.58a.13.13 0 0 0 .13-.14.14.14 0 0 1 .13-.15c.08 0 .27-.29.43-.63s.34-.59.4-.56.44-.49.35-.65a.14.14 0 0 0-.22 0c-.11.09-.13.09-.07 0a.27.27 0 0 1 .28-.13c.16 0 .22-.07.25-.34a.72.72 0 0 1 .18-.43 2.43 2.43 0 0 0 .65-.77c.11-.18.08-.1.47-.81.31-.56.67-1.19 1.07-1.92.81-1.46 1.82-3.28 3.09-5.59l9-16.3 1.42-2.61c.58-1 1.16-2.18 1.9-3.26a13.28 13.28 0 0 1 6.51-5.24c3-1.12 6.64-.87 11 .44l8.62 2.26 11.74 3.1c1.84.49 3.46.89 3.59.88a6.43 6.43 0 0 1 .8.15l1.4.34 3.87 1a15.15 15.15 0 0 0 3 .58c0-.05.17 0 .29.06a.55.55 0 0 0 .37.11.31.31 0 0 1 .28.14.22.22 0 0 0 .31.09c.17-.09.64 0 1.32.31a1.18 1.18 0 0 0 .54 0c.25-.06.37 0 .49.17a.57.57 0 0 0 .44.26c.42 0 1.32 1.35 1.23 1.82a.92.92 0 0 0 .17.53.81.81 0 0 1 .17.48c0 .08 0 .14.05.14s.11.2.08.57a9.1 9.1 0 0 0 .15 2.45.46.46 0 0 1 0 .41 4.07 4.07 0 0 0 0 1.31 7.67 7.67 0 0 1 0 1.43.83.83 0 0 0 0 .54.85.85 0 0 1 0 .57 12.36 12.36 0 0 0-.1 2 10 10 0 0 1-.1 1.91.38.38 0 0 0 .09.42 2.83 2.83 0 0 1 .2 1.85c0 .18-.12.51-.18.71-.24 1.23-1.08 1.66-3.7 1.6a3 3 0 0 0-1 .07 1.7 1.7 0 0 1-.89-.11 6.38 6.38 0 0 0-1.61-.24 2.85 2.85 0 0 1-1-.13c-.27-.11-4.48-1-5.82-1.23a3.58 3.58 0 0 1-1.16-.32c0-.07-.13-.09-.23-.05s-.34 0-1.55-.43l-.37-.13-.22-.08-.74-.14-3.2-.88-5.26-1.37c-2.14-.51-2.39-.58-5.93-1.59l-3.88-1.08-5.22-1.29c-.13-.06-.32-.07-.37 0a.91.91 0 0 0-.13.1c-.12.19.18-.41-.7 1.19l-3.95 7.17-5.94 10.9c-.44.82-1.87 3.53-3.18 6a13.37 13.37 0 0 0-.84 1.78 1.61 1.61 0 0 1-.09.41 2.4 2.4 0 0 0-.21 1c0 .3 0 .33-.19.24s-.19-.05-.15.13a2 2 0 0 1-.71 1.38.55.55 0 0 0-.27.39.78.78 0 0 1-.35.73c-.18.11-.19.17-.06.24s-.34.7-.64.75c-.07 0-.16.14-.21.29a2.72 2.72 0 0 1-.4.65 1.14 1.14 0 0 0-.31.64c0 .18 0 .27-.18.28a.47.47 0 0 0-.31.24 13.64 13.64 0 0 0-.68 1.63 2.87 2.87 0 0 1-1 1.12c-.11 0-.16.12-.16.37s0 .36-.24.39-.57.62-1 1.68c-.09.25-.2.37-.27.31s-.19 0-.29.2c-.5.85-1.7 1.54-2 1.16a.42.42 0 0 0-.42-.07h-.35c-.04 0-.12 0-.18.07s-.13.15-.2 0a1.19 1.19 0 0 0-1-.4.22.22 0 0 1-.37-.25z" fill="#fff6ed" class="fill-fff6ed"></path></svg>