<svg width="5316" height="5316" viewBox="0 0 5316 5316" fill="none" xmlns="http://www.w3.org/2000/svg">
<circle cx="2658" cy="2658" r="2508" fill="#DD361E" stroke="#521609" stroke-width="300"/>
<path d="M2120.05 3477.5L1731.55 3635.5C1722.02 3704.57 1739.09 3720.17 1784.05 3733C1820.03 3737.68 1838.74 3737.66 1869.55 3733C1927.36 3722.47 1950.48 3707.75 2002.55 3693C2087.55 3659.5 2138.21 3638.87 2228.05 3613L2556.55 3495C2677.66 3455.35 2757.58 3438.37 2920.55 3417C2997.38 3409.21 3046.2 3402.1 3143.55 3384.5C3218.83 3368.4 3258.39 3371.24 3316.55 3432L3414.55 3530C3441.95 3562.25 3462.45 3566.62 3502.55 3565C3536 3544.66 3547.52 3528.65 3560.05 3495C3564.99 3424.57 3560.15 3390.28 3540.05 3337C3496.31 3272.41 3463.42 3244.91 3392.05 3209C3307.34 3169.38 3260.65 3158.81 3178.55 3159C3029.83 3171.85 2956.47 3183.36 2837.55 3209L2469.05 3337L2120.05 3477.5Z" fill="#4F1602"/>
<path d="M2096.17 2586.74L2339 2800.69L2141.19 2827.35C2014.19 2843.28 1874.76 2856.91 1755.63 2866.47L1513.99 2913.88C1371.47 2927.12 1292.12 2942.59 1151.52 2985C1102.94 2934.86 1080.47 2890.54 1047.88 2785.87C1039.37 2698.93 1033.68 2651.55 1062.69 2509.1C1080.57 2399.29 1098.28 2339.16 1151.52 2235.89C1201.98 2125.29 1244.01 2067.92 1344.6 1974.53L1442.91 1888H1481.41L1653.76 2078.83L1826.11 2292.19C1940.89 2395.9 2000.22 2460.24 2096.17 2586.74Z" fill="white"/>
<path d="M2034.5 2522.5L1248 2067L1448.5 1844L2034.5 2522.5Z" fill="#E0DFE2" fill-opacity="0.5"/>
<path d="M1850.66 2300L2355.16 2809L1798.16 2871.5C1725.59 2802.96 1703.48 2753.2 1690.16 2648.5C1689.22 2568.9 1691.29 2524.16 1728.16 2443C1758.46 2375.29 1786.64 2344.9 1850.66 2300Z" fill="black" stroke="black"/>
<ellipse cx="1922.5" cy="2523" rx="100.5" ry="103" fill="white"/>
<path fill-rule="evenodd" clip-rule="evenodd" d="M1066.51 2896.13C981.313 2730.3 978.653 2607.77 1030.51 2352.13C1116.18 2119.61 1184.95 2006.8 1359.01 1849.13C1319.23 1790.14 1289.89 1754.12 1226.01 1736.13C1174.51 1721.63 1162.48 1726.79 1138.51 1751.13C1087.05 1842.07 1073.61 1899.27 1066.51 2008.13C1016.22 2055.32 984.127 2057.92 918.007 2008.13C915.693 1966.24 920.563 1902.31 948.507 1787.13L1030.51 1592.13C1077.33 1509.13 1121.2 1493 1226.01 1510.13C1284.07 1520.27 1332.27 1554.76 1441.51 1659.13L1985.51 2254.63L2298.51 2572.63L2396.01 2675.13C2410.68 2653.43 2410.87 2631.22 2396.01 2572.63C2383.6 2542.67 2376.24 2520.71 2369.91 2501.82C2361.75 2477.51 2355.31 2458.28 2342.01 2433.63L2242.01 2254.63C2225.48 2159.41 2249.47 2136.28 2360.01 2156.63L2447.51 2285.13C2522.86 2415.02 2555 2494.82 2601.51 2644.63C2630.02 2758.02 2617.68 2805.48 2560.51 2870.13L2067.51 2896.13L1441.51 3003.63L918.007 3096.13C835.502 3080.6 824.752 3042.59 860.007 2955.13L1066.51 2896.13ZM2253.51 2737.13L2048.51 2556.63C1967.5 2449.92 1917.42 2395.63 1820.51 2308.13L1675.01 2128.13L1529.51 1967.13H1497.01L1414.01 2040.13C1329.09 2118.92 1293.6 2167.33 1251.01 2260.63C1206.06 2347.76 1191.11 2398.49 1176.01 2491.13C1152.1 2608.46 1156.12 2649.34 1163 2719.46C1163.17 2721.17 1163.34 2722.89 1163.51 2724.63C1191.02 2812.94 1209.99 2850.33 1251.01 2892.63C1369.7 2856.85 1436.69 2843.8 1557.01 2832.63L1761.01 2792.63C1861.58 2784.57 1979.29 2773.07 2086.51 2759.63L2253.51 2737.13Z" fill="#50140A"/>
<path d="M3136.09 2586.74L2893.27 2800.69L3091.08 2827.35C3218.08 2843.28 3357.51 2856.91 3476.64 2866.47L3718.28 2913.88C3860.8 2927.12 3940.15 2942.59 4080.74 2985C4129.33 2934.86 4151.8 2890.54 4184.39 2785.87C4192.89 2698.93 4198.59 2651.55 4169.58 2509.1C4151.7 2399.29 4133.99 2339.16 4080.74 2235.89C4030.29 2125.29 3988.26 2067.92 3887.67 1974.53L3789.35 1888H3750.86L3578.51 2078.83L3406.16 2292.19C3291.37 2395.9 3232.05 2460.24 3136.09 2586.74Z" fill="white"/>
<path d="M3197.77 2522.5L3984.27 2067L3783.77 1844L3197.77 2522.5Z" fill="#E0DFE2" fill-opacity="0.5"/>
<path d="M3381.61 2300L2877.11 2809L3434.11 2871.5C3506.67 2802.96 3528.79 2753.2 3542.11 2648.5C3543.04 2568.9 3540.97 2524.16 3504.11 2443C3473.81 2375.29 3445.63 2344.9 3381.61 2300Z" fill="black" stroke="black"/>
<ellipse cx="100.5" cy="103" rx="100.5" ry="103" transform="matrix(-1 0 0 1 3411 2420)" fill="white"/>
<path fill-rule="evenodd" clip-rule="evenodd" d="M4165.76 2896.13C4250.95 2730.3 4253.61 2607.77 4201.76 2352.13C4116.09 2119.61 4047.32 2006.8 3873.26 1849.13C3913.03 1790.14 3942.38 1754.12 4006.26 1736.13C4057.76 1721.63 4069.79 1726.79 4093.76 1751.13C4145.22 1842.07 4158.66 1899.27 4165.76 2008.13C4216.05 2055.32 4248.14 2057.92 4314.26 2008.13C4316.57 1966.24 4311.7 1902.31 4283.76 1787.13L4201.76 1592.13C4154.93 1509.13 4111.07 1493 4006.26 1510.13C3948.2 1520.27 3900 1554.76 3790.76 1659.13L3246.76 2254.63L2933.76 2572.63L2836.26 2675.13C2821.59 2653.43 2821.4 2631.22 2836.26 2572.63C2848.67 2542.67 2856.03 2520.71 2862.36 2501.82C2870.52 2477.51 2876.96 2458.28 2890.26 2433.63L2990.26 2254.63C3006.79 2159.41 2982.8 2136.28 2872.26 2156.63L2784.76 2285.13C2709.41 2415.02 2677.27 2494.82 2630.76 2644.63C2602.24 2758.02 2614.59 2805.48 2671.76 2870.13L3164.76 2896.13L3790.76 3003.63L4314.26 3096.13C4396.77 3080.6 4407.52 3042.59 4372.26 2955.13L4165.76 2896.13ZM2978.76 2737.13L3183.76 2556.63C3264.77 2449.92 3314.85 2395.63 3411.76 2308.13L3557.26 2128.13L3702.76 1967.13H3735.26L3818.26 2040.13C3903.18 2118.92 3938.66 2167.33 3981.26 2260.63C4026.21 2347.76 4041.16 2398.49 4056.26 2491.13C4080.17 2608.46 4076.15 2649.34 4069.27 2719.46C4069.1 2721.17 4068.93 2722.89 4068.76 2724.63C4041.24 2812.94 4022.28 2850.33 3981.26 2892.63C3862.57 2856.85 3795.58 2843.8 3675.26 2832.63L3471.26 2792.63C3370.69 2784.57 3252.98 2773.07 3145.76 2759.63L2978.76 2737.13Z" fill="#50140A"/>
</svg>
