<svg xmlns="http://www.w3.org/2000/svg" xmlns:xlink="http://www.w3.org/1999/xlink" fill-rule="evenodd" stroke-linejoin="round" stroke-miterlimit="1.41" clip-rule="evenodd" viewBox="0 0 147 140"><path fill="url(#_Linear1)" d="M16.83 120.39s45.05 27.65 125.04 0c5.92-7.49-1.8-28.62-3.84-33.4-2.04-4.8-3.63-28.47-12.43-34.93 7.38-13.47-11.86-19.69 3.16-47 2.14-3.91-26.06 4.11-26.44 6.62 0 0-14.7-6.66-20.14 3.11-7.72-3.94-18.64-.97-18.64-.97s2.67-11.43 0-11.45C56 2.32 43 13.21 42.47 13.82c-4.7 5.38-7.81 13.07-2.87 18.3-9.78 6.2-29.86 33.02-22.77 88.27z"/><path fill="#c6dbeb" fill-opacity=".4" d="M17.43 120.52c-6.66-18.49 40.8-115.74 108.17 4.89-75.59 21.12-108.17-4.9-108.17-4.9z"/><circle cx="41.94" cy="27.43" r="12.19" fill="url(#_Radial2)"/><ellipse cx="92.67" cy="24.81" fill="url(#_Radial3)" rx="14.54" ry="14.81"/><path fill="#c6dbeb" fill-opacity=".7" d="M79.49 43.54s10.74-6.74 27.4 1.14c-10.53 4.2-28.67-.08-27.4-1.14zm-50.1-.68s8.99-6.74 22.93 1.14c-8.81 4.2-23.99-.08-22.93-1.14z"/><path fill="#6a7b8e" d="M15.35 83.71S-7.58 54.6 5.87 49.27c9.3-3.68 11.2 8.97 13.43 12.98 2.24 4.01-3.96 21.46-3.96 21.46z"/><path fill="#2c3c4b" fill-rule="nonzero" d="M9.05 46.08c5.33.18 8.57 6.22 10.4 10.8A62.61 62.61 0 0 1 21.8 64l-.13 1.17s-.78.7-.87.74l-1.11-.12-.77-.88c-1.92-5.39-3.8-11.81-8.65-14.1-3.49-1.65-6.74 4.1-5.1 10.56 2.15 8.49 6.93 16.36 11.6 23.05l.26 1.14-.57.98-1.09.27c-1.89-1.05-2-1.81-2.62-2.64C7.33 77 2.05 69.62.31 60.17c-.83-4.55-.08-9.62 4.23-12.61a7.77 7.77 0 0 1 4.52-1.5z"/><path fill="#2c3c4b" fill-rule="nonzero" d="M12.9 48.03c1.75 2.36 1.33 2.86 1.58 4.4.32 1.94.33 3.94-.26 5.88a9.7 9.7 0 0 1-12.36 5.1l-.91-.75-.18-1.09 1.83-1.09c2.67.2 5.8-.1 7.11-3.15 1.08-2.54 1.1-5.03.95-7.78l.32-1.16.89-.63 1.04.27zM92.65 8.59c11.22.2 21.13 12.74 15.52 23.82-4.65 9.17-18.37 12.27-26.85 5.61-7-5.5-8.2-16.98-2.1-23.68A18.08 18.08 0 0 1 92.2 8.59h.45zm-.42 2.17c-8.18.73-15.61 8.9-12.94 17.25 1.73 5.4 7.36 9.07 13.47 8.81 7.34-.31 15.01-7.13 13.11-15.33-1.36-5.9-7.18-10.32-13.44-10.75l-.2.02zM46.58 40.9s-13.72-2.01-14.16-2.36C26.38 33.8 25.34 23.9 30.6 18.1a15.11 15.11 0 0 1 11.59-4.96c9.68.18 18.23 11 13.39 20.55a14.33 14.33 0 0 1-7.31 6.6c-.56.23-1.12.43-1.7.6zm-2.11-4.3c6.6-1.13 11.17-9.5 7.25-15.67A12.78 12.78 0 0 0 42 15.3l-.16.01c-6.66.69-12.86 6.96-10.76 14.11.77 2.62 2.3 4.97 4.76 6.27.22.12 7.9 1.05 8.63.92z"/><path fill="#9ab1c7" d="M8.98 49.8c-4.72-.66-9.76 9.84-3.36 10.84 5.75.89 9.87-9.93 3.36-10.84z"/><path fill="#2c3c4b" fill-rule="nonzero" d="M28.05 41.33c2.62-3.52 3.86 0 3.86 0-4.72 8.44-6.52 11.89-9.23 21.13-5.5 18.78-7.36 39.1-5.15 56.63.06.5.2 1.18.2 1.18l-.12 1.17-.87.77-1.15-.1-.77-.87c-.83-2.33-.88-4.97-1.11-7.54-2.36-26.76 1.68-55.42 14.34-72.37z"/><path fill="#2c3c4b" fill-rule="nonzero" d="M17.1 119.45c.14.1.29.18.43.26 30.43 17.24 71.22 10.3 88.7 7.54 12-1.9 23.88-4.6 35.6-7.97l1.18.12.75.88v.02l-.12 1.15-.9.76c-16.47 5.47-33.28 9.68-50.77 11.58-21.55 2.35-43.36 1.6-64.31-6.01-4.2-1.53-8.36-3.26-12.09-5.66l-.14-.1-.65-.96.2-1.16.96-.64 1.16.2zm109.82-68.3a51.62 51.62 0 0 1 11.25 19.52 37.85 37.85 0 0 1 1.1 16.75l-.6 1.03s-1 .36-1.1.35l-.97-.56-.38-1.13.02-.63c.12-11.89-5.59-23.06-8.92-28.95-.86-1.51-1.75-3-2.76-4.42l-.3-1.15.52-1.02 1.09-.3 1.05.51z"/><path fill="#2c3c4b" fill-rule="nonzero" d="M139.16 86.34c7.23 8.65 9.34 21.26 6.26 30.72a35.76 35.76 0 0 1-1.7 4.24l-.87.84-1.14.05-.79-.8c-.08-1.38.15-1.92.29-2.46 2.86-11.16 0-23.35-4.48-30.72l-.27-1.21.57-.98 1.1-.25 1.03.57zM128.41 1.09c1.37.03 3.32.28 3.32.28 1.57.41 2.4 2.14 1.3 3.77-5.34 7.9-10.28 19.25-6.23 30.27l.62 1.72c.36 1 .7 2.02 1.02 3.05 1.27 4.23-.43 13.34-3.5 17l-1.04.55s-1.05-.25-1.12-.3l-.55-1 .3-1.14c.46-.64.95-1.8 1.3-2.86 3.7-11.06-1.64-16.69-3.43-22-2.45-7.32 3.04-17.9 7.06-24.98-7.23-.99-18.72 4.21-23.8 7.05-.29.15-1.18.16-1.18.16s-1.59-.7-.94-.67l-.17-1.13.67-.97c5.77-3.82 17.09-8.95 26.37-8.8zM67.88 4.01c-2.02 2.78-3.82 6.04-3.27 9.23 0 0 .26 1.55-.84 2l-1.15-.01-.85-.82c-1.29-2.83-.79-6.3.39-9.3 0 0-4.08.95-6.14 1.88a514.7 514.7 0 0 0-14.37 7.47c-.87.47-1.51.44-1.93-.05C42.83 7.92 55.92 1.95 59.55.96c3.52-.96 9.4-2.14 8.96 1.67-.05.5-.32.96-.63 1.38zM40.72 35.68c4.54.08 8.82 2.31 11.7 5.88l.51 1.35s-.35 1.16-.42 1.24l-1.19.47-1.37-.42-.46-.3a16.67 16.67 0 0 0-6.43-2.46 23.3 23.3 0 0 0-11.74.87l-2.49-.72-.1-1.3.82-1.14a21 21 0 0 1 4.26-2.21 16.88 16.88 0 0 1 6.9-1.26zm52.54 1.3c.52.01 1.04.04 1.57.08 1.42.11 3.43.52 3.43.52 3.1.78 6.02 2.16 8.73 3.83l.9 1.12-.02 1.32-1 .83c-4.58.04-3.29-.88-8.5-1.66-5.45-.8-11.1-1.46-17 1.5l-2.55-.41-.28-1.3.68-1.22c3.85-3.24 9.17-4.6 14.04-4.6z"/><path fill="#2c3c4b" fill-rule="nonzero" d="M71.44 11c2.85.02 5.78.58 8.63 1.3l1.02.67.32 1.08-.6.92c-1.13.36 1.3.14-5.5.41-4.1.17-8.12.3-12.3 1.09-1.7.32-3.52.73-5.24 1.45l-2.13-.48-.18-1.1.65-1c4.09-3.02 9.53-4.19 13.95-4.33l1.38-.01z"/><path fill="#653616" d="M74.79 70.89c-.92.29-2.09.17-3.15-.41-1.79-.98-2.63-2.88-1.89-4.25.75-1.37 2.8-1.7 4.6-.72a4.02 4.02 0 0 1 2.11 2.72l48.46 33.11a1.57 1.57 0 0 1-1.77 2.6L74.79 70.89z"/><path fill="url(#_Linear4)" d="M98.13 90.4s-1.67-6.43 6.35-9.2c8.01-2.77 12.34-12.44 11.42-15.48-1.62-5.27 13.45 7.4 13.02 12.62-.42 5.22-20.86 25.61-30.79 12.07z"/><path fill="#2c3c4b" fill-rule="nonzero" d="M116.04 62.44l.62.99c1.34 7.3-1.4 15.7-8.98 18.64-3.6 1.39-9.46 2.57-7.93 7.52 1.34 4.33 7.9 4.36 11.98 2.89 6.9-2.51 13.58-7.75 15.64-14.25l.73-.93 1.1-.2h.03l.92.69.2 1.15C128.46 87.7 119.31 95 111.5 97.32c-6.7 1.99-15.78-.03-16.45-8.05-.47-5.46 5.41-9.29 10.98-11.04 5.59-1.82 8.26-8.6 7.6-14.32l.3-1.14 1-.61 1.1.28zm-.65-51.77c.59.2.58.3.7.46 1.8 2.3-1.06 7.04-.15 11.47l-.6 1.16-1.15-.6a15.66 15.66 0 0 1-1.1-5.48s-.04-1.58.18-3.26l-2.12 1.19-1.27-.26.31-1.32 3.85-2.93s.55-.55 1.35-.43z"/><path fill="#112733" d="M55.87 42.23s5.7 4.5 15.6.98c1.42 5.28-.18 11.28-2.96 12.92-2.79 1.63-11.33 3.12-13.75-3.1-1.53-5.42.46-10.1 1.11-10.8z"/><path fill="#2c3c4b" d="M52.34 53.4c-1.07-6.18 3.5-11.17 3.5-11.17-1.5 2.6-1.99 7.39-1.15 10.54.03.14 1.02 2.41 2.63 3.46 5.57 3.64 13.55.83 14.54-6.8a18 18 0 0 0-.32-5.9s6.93 15.97-9.05 16.83c-4 .22-9.42-2.71-10.15-6.96z"/><path fill="#fff" d="M54.32 50.93c.76.53 1.6.24 2.55.62.82.32 1.73 1.34 2.65 1.53 1.13.24 2.33-.57 3.57-.57 1.07 0 2.1.84 3.08.67.9-.16 1.53-1.34 2.33-1.63 1.03-.36 2.21.14 3.04-.4-.58 2.31-1.67 4.17-3.04 4.98-2.78 1.63-11.32 3.12-13.75-3.1-.2-.72-.34-1.42-.43-2.1z"/><path fill="#2c3c4b" d="M62.93 43.6s-6.03-7.24-2.57-9.7c3.45-2.48 3.06 2.31 3.58 2.79.52.47 2.17-4.89 4.9-3.93 2.71.95-1.8 9-5.75 10.84"/><circle cx="35.96" cy="26.41" r="1.94" fill="#0d1a2b"/><circle cx="100.28" cy="26.41" r="1.94" fill="#0d1a2b"/><path fill="#653616" d="M3.78 63.19l-2.16 5.26a1.57 1.57 0 1 0 2.9 1.2L6.8 64.1a5.2 5.2 0 0 1-3.01-.92zm20.04-48.94c-.47-.84-.6-2-.25-3.17.58-1.95 2.26-3.17 3.76-2.73 1.5.45 2.24 2.4 1.66 4.34a4.01 4.01 0 0 1-2.21 2.64l-13.3 32.45c-.9-.59-1.83-1.07-2.8-1.47l13.14-32.06z"/><path fill="#49525f" d="M32.53 72.41s8.16 54.05 11.03 58.46c1.65 2.4 3.1-.12 3.1-.12L34.22 71.74s-1.34-1.04-1.7.67z"/><path fill="#8e5d1d" fill-rule="nonzero" d="M33.58 65.83c9.3.09 19.2 1.92 26.93 5.4 2.76 1.25 5.18 3.9 4.42 7.1-1.35 5.64-8.1 7.9-13 9.65a77.64 77.64 0 0 1-16.16 3.85c-1.55.2-3.1.38-4.67.51-6.22.54-13.04 1.36-18.3-1.36-1.6-.83-2.93-2.33-2.9-4.21.02-1.74.7-2.83 2.37-4.55 5.53-5.66 10.75-11.98 17.68-15.7a7.6 7.6 0 0 1 3.62-.69zm-1.13.28c-2.69.04-4.74 2.34-6.85 4.3a155.5 155.5 0 0 0-12.93 13.53c-.85 1.03-1.47 2.45-.93 3.71.99 1.72 5.13 2.84 7.83 2.75 15.76-.56 32.17-3.5 41.93-10.57 1.93-1.4 1.49-4.2-.44-5.87-1.82-1.59-21.22-7.87-28.6-7.85z"/><path fill="url(#_Linear5)" d="M31.4 66.08c-3.86.64-18.7 17.83-18.7 17.83S3.53 94.4 36.84 88.75c28.87-4.9 29.53-12.86 22.56-16.14-7.38-3.47-24.16-7.16-28.02-6.53z"/><path fill="#49525f" d="M30.9 63.72c1.14-.25 2.4 1.14 2.82 3.1.4 1.95-3.74 2.82-4.15.87-.4-1.95.19-3.73 1.33-3.97z"/><path fill="#fdd262" fill-opacity=".9" fill-rule="nonzero" d="M48.8 72.28c2.5 1.53 5.05 2.96 7.51 4.53 0 0 1 .12-6.12 3.78-1.45.75-2.93 1.46-4.41 2.16-.8.93-.6 1.37.5 1.35 4.36-1.21 8.94-2 12.74-4.74a6.42 6.42 0 0 0 1.72-2c.48-1.1-.72-2.02-2.23-2.72-2.99-1.31-6.07-2.42-9.07-3.64-.7-.37-1.76.44-.65 1.28z"/><path fill="#fff" fill-opacity=".9" fill-rule="nonzero" d="M24.01 76.88c-1.5 2.5-3.12 4.96-4.58 7.49 0 0-.82.56 7.18.52 1.64 0 3.28-.06 4.92-.11 1.13.45 1.15.93.17 1.42-4.43.94-8.86 2.35-13.5 1.68a6.41 6.41 0 0 1-2.44-.99c-.93-.75-.3-2.11.73-3.43 2.04-2.55 4.26-4.95 6.36-7.42.46-.66 1.76-.42 1.16.83z"/><path fill="url(#_Linear6)" d="M43.1 103.26s.18 12.3.93 24.78c3.14 7.5 28.35 16.98 54.03 2.83 1.92-22.7 1.45-28.47 1.45-28.47s-53.13-7.71-56.41.86z"/><path fill="#112733" fill-rule="nonzero" d="M44.97 127.29c7.13 12.41 39.96 11.83 51 4.16 1.24-.86 2.34-2.15 2.4-3.73l.93-.94.94.94c.96 15.15-55.68 16.62-57.14-.54l.98-.88.89.99z"/><path fill="#112733" d="M83.14 111.6l.2 3.6c.1 2.03.15 2.79.2 4.8.13 4.15.06 9.07-.04 11.07-.15 2.76-.17 3.02-.36 5.89l-.93 1.14-.94-1.14-.2-3.14c-.14-2.47-.26-4.15-.28-7.34-.02-4 .16-9.13.48-14.78l.94-1.03.93.94zm-23.79-.04c.32 2.86.36 3.13.63 5.88.17 1.71.42 5.6.52 9 .14 4.45.08 6.98.05 10.38l-.89 1.07-.99-.98-.36-3.5a168.5 168.5 0 0 1-.9-15.86c0-2.75.02-3.02.07-5.9l.88-1.18.99 1.1zm40.88-10.04l.2 4c.1 2.24.15 3.08.2 5.3.13 4.62.06 10.09-.04 12.3-.14 3.06-.17 3.35-.36 6.54l-.93 1.14-.94-1.14-.2-3.49c-.14-2.74-.26-4.6-.28-8.15-.02-4.44.16-10.13.48-16.4l.94-1.04.93.94zm-56.56 1.73l.38 3.6c.2 2.03.29 2.79.45 4.8.34 4.16.52 9.11.52 11.12 0 2.78-.02 3.05-.05 5.94l-.88 1.18-1-1.09-.35-3.14c-.27-2.48-.48-4.15-.66-7.36-.23-4.01-.3-9.17-.28-14.86l.89-1.08.98.89z"/><path fill="#112733" fill-rule="nonzero" d="M68.24 92.9c8.9.05 18.56-.52 27.04 3.48.3.15.61.3.91.47 3.12 1.7 5.74 6.1 2.46 9.56-6.83 7.24-20.26 7.2-26.54 7.21-8.96.03-18.35-.88-25.66-4.94-2.86-1.59-5.74-4.33-4.48-7.85 1.72-4.78 8.49-6.18 14.17-7.08 4-.64 8.07-.87 12.1-.86zm2.46 1.38c-8.3.05-17.21.23-24.14 4.7a5.7 5.7 0 0 0-.65.44c-1.43 1.1-2.55 3.24-1.03 5.01 3.9 4.55 11.5 5.2 19.1 5.81 9.87.8 20.32.57 29.1-3.14 2.46-1.04 5.48-2.61 4.92-5.22-.72-3.45-4.9-4.33-7.86-5.22-6.25-1.88-12.8-2.4-19.44-2.38z"/><defs><linearGradient id="_Linear1" x2="1" gradientTransform="rotate(-139.89 83.46 28.35) scale(109.3832)" gradientUnits="userSpaceOnUse"><stop offset="0" stop-color="#6a7b8e"/><stop offset="1" stop-color="#9ab1c7"/></linearGradient><radialGradient id="_Radial2" cx="0" cy="0" r="1" gradientTransform="translate(37.88 25.48) scale(18.8504)" gradientUnits="userSpaceOnUse"><stop offset="0" stop-color="#fff"/><stop offset="1" stop-color="#b3b3b3"/></radialGradient><radialGradient id="_Radial3" cx="0" cy="0" r="1" gradientTransform="translate(87.82 22.43) scale(22.5934)" gradientUnits="userSpaceOnUse"><stop offset="0" stop-color="#fff"/><stop offset="1" stop-color="#b3b3b3"/></radialGradient><linearGradient id="_Linear4" x2="1" gradientTransform="rotate(167.97 55.02 46.3) scale(23.99557)" gradientUnits="userSpaceOnUse"><stop offset="0" stop-color="#74869a"/><stop offset="1" stop-color="#c6dbeb"/></linearGradient><linearGradient id="_Linear5" x2="1" gradientTransform="rotate(35.52 -99.07 91.08) scale(15.9794)" gradientUnits="userSpaceOnUse"><stop offset="0" stop-color="#fdd262"/><stop offset="1" stop-color="#e3a403"/></linearGradient><linearGradient id="_Linear6" x2="1" gradientTransform="translate(52.17 119.34) scale(38.7998)" gradientUnits="userSpaceOnUse"><stop offset="0" stop-color="#c6dbeb"/><stop offset="1" stop-color="#6a7b8e"/></linearGradient></defs></svg>