<?xml version="1.0" encoding="UTF-8" standalone="no"?>
<!DOCTYPE svg PUBLIC "-//W3C//DTD SVG 1.1//EN" "http://www.w3.org/Graphics/SVG/1.1/DTD/svg11.dtd">
<svg xmlns="http://www.w3.org/2000/svg" version="1.1" viewBox="0.00 0.00 512.00 512.00">
<g stroke-width="2.00" fill="none" stroke-linecap="butt">
<path stroke="#95544f" vector-effect="non-scaling-stroke" d="
  M 400.61 71.15
  Q 398.41 90.48 380.64 96.81
  Q 380.15 96.98 379.99 97.48
  C 378.46 102.21 379.72 109.66 385.30 111.36
  Q 386.67 111.78 388.24 111.34
  C 402.46 107.31 412.79 95.45 416.89 81.48
  Q 419.70 71.90 419.81 63.01"
/>
<path stroke="#a67268" vector-effect="non-scaling-stroke" d="
  M 419.81 63.01
  Q 417.84 37.28 398.51 22.25
  C 378.27 6.50 351.45 9.39 335.40 29.15
  Q 327.80 38.50 323.92 50.48
  Q 323.77 50.95 324.14 51.27
  L 333.59 59.66
  Q 333.96 59.99 334.03 59.50
  Q 336.22 44.78 348.99 37.23
  C 375.94 21.31 403.00 42.03 400.61 71.15"
/>
<path stroke="#ee8f7b" vector-effect="non-scaling-stroke" d="
  M 419.81 63.01
  Q 412.22 69.72 400.61 71.15"
/>
<path stroke="#95544f" vector-effect="non-scaling-stroke" d="
  M 70.10 70.50
  C 71.95 89.66 82.99 106.22 101.80 111.78
  C 104.32 112.53 106.32 111.66 108.47 110.47
  C 111.78 108.63 110.29 103.32 108.46 101.05
  Q 104.14 95.70 98.79 91.39
  Q 97.19 90.11 95.99 88.81
  Q 94.50 87.21 93.34 86.04"
/>
<path stroke="#a67268" vector-effect="non-scaling-stroke" d="
  M 93.34 86.04
  Q 87.16 75.58 88.34 64.23
  C 90.69 41.61 108.84 26.49 132.00 33.75
  C 144.83 37.77 155.39 48.62 155.11 62.73
  Q 154.96 70.17 151.00 74.47
  Q 138.92 87.60 133.07 100.31"
/>
<path stroke="#95544f" vector-effect="non-scaling-stroke" d="
  M 133.07 100.31
  C 126.66 118.18 120.76 130.08 108.65 143.76
  C 100.16 153.37 118.34 152.62 118.59 161.82
  C 118.78 168.95 111.62 173.72 119.29 180.63
  Q 119.64 180.95 120.09 180.80
  C 167.70 165.62 221.51 196.81 259.08 223.33
  Q 259.52 223.64 259.89 223.25
  C 287.50 194.42 325.48 171.71 366.90 174.56
  Q 369.25 174.72 370.88 173.77
  C 375.15 171.28 379.98 167.06 376.97 161.51
  C 375.61 158.99 373.92 156.44 374.01 153.73
  C 374.14 149.51 378.39 147.79 380.67 145.02
  Q 380.99 144.63 380.96 144.13
  Q 380.78 141.16 379.40 140.30
  Q 372.79 136.16 367.99 130.13
  C 365.94 127.55 364.45 124.24 362.74 121.22
  C 360.14 116.62 359.39 111.15 357.25 106.13"
/>
<path stroke="#a67268" vector-effect="non-scaling-stroke" d="
  M 357.25 106.13
  Q 351.61 91.74 339.05 77.95
  C 315.53 52.14 287.60 34.57 252.80 31.50
  C 249.99 31.25 247.55 30.42 247.31 27.41
  C 247.03 23.98 253.18 18.54 250.65 15.59
  Q 249.25 13.95 247.47 14.97
  Q 238.60 19.99 231.45 28.43
  C 229.17 31.12 226.56 30.93 224.10 28.41
  Q 213.74 17.76 198.79 21.94
  A 0.43 0.43 0.0 0 0 198.65 22.70
  Q 204.14 26.73 209.67 30.82
  C 212.22 32.70 212.16 37.77 208.51 38.79
  Q 189.98 43.94 173.99 54.56
  Q 171.50 56.21 169.71 56.07
  Q 166.71 55.83 165.80 52.62
  Q 159.90 31.67 143.71 20.42
  C 127.00 8.81 105.49 9.61 89.59 22.57
  Q 66.85 41.11 70.10 70.50"
/>
<path stroke="#ee8f7b" vector-effect="non-scaling-stroke" d="
  M 357.25 106.13
  Q 358.24 124.55 356.06 142.43
  C 354.53 155.06 342.58 162.65 330.98 165.33
  Q 313.13 169.46 298.46 180.44
  C 278.23 195.59 261.11 207.89 236.33 196.89
  Q 233.11 195.46 224.21 190.57
  C 209.87 182.70 195.31 177.15 179.32 173.64
  C 164.98 170.49 150.73 165.89 141.07 154.22
  C 131.09 142.15 134.22 130.02 135.70 116.00
  Q 136.59 107.58 133.07 100.31"
/>
<path stroke="#ee8f7b" vector-effect="non-scaling-stroke" d="
  M 93.34 86.04
  Q 80.30 81.16 70.10 70.50"
/>
<path stroke="#89344e" vector-effect="non-scaling-stroke" d="
  M 212.82 350.41
  Q 212.82 364.32 206.13 376.09
  A 1.08 1.07 -40.9 0 0 206.06 377.02
  C 206.95 379.26 207.46 380.94 209.68 382.29
  Q 226.25 392.33 233.59 395.92
  C 251.32 404.59 266.52 406.72 282.70 392.87
  Q 291.14 385.65 295.37 380.79
  Q 295.74 380.37 295.48 379.88
  Q 281.69 354.06 298.69 329.77"
/>
<path stroke="#a64f64" vector-effect="non-scaling-stroke" d="
  M 298.69 329.77
  Q 307.73 318.91 321.25 314.57
  Q 326.00 313.05 327.87 312.18"
/>
<path stroke="#89344e" vector-effect="non-scaling-stroke" d="
  M 327.87 312.18
  Q 353.68 306.56 378.01 310.47
  Q 381.22 310.99 383.95 310.47
  Q 388.98 309.51 390.50 308.56
  Q 396.02 305.10 409.82 292.57
  C 420.43 282.93 429.05 268.14 431.59 254.08
  C 438.04 218.33 408.12 191.51 375.73 185.31"
/>
<path stroke="#a64f64" vector-effect="non-scaling-stroke" d="
  M 375.73 185.31
  Q 372.29 184.32 367.75 183.87
  C 326.67 179.82 289.79 205.01 262.68 232.94
  C 261.54 234.12 259.27 233.90 257.81 233.00
  Q 250.02 228.22 242.50 223.03
  C 212.58 202.38 175.13 183.12 137.25 185.34
  Q 123.17 186.17 112.03 194.30
  C 91.58 209.21 82.82 235.12 92.16 259.02
  C 99.79 278.53 117.99 293.62 137.37 300.76
  C 143.98 303.20 152.03 304.47 159.47 306.19
  Q 162.67 306.94 168.62 307.58
  C 192.29 310.13 210.56 326.28 212.82 350.41"
/>
<path stroke="#e34b75" vector-effect="non-scaling-stroke" d="
  M 375.73 185.31
  C 406.84 208.56 395.78 240.75 376.11 266.60
  Q 356.46 292.42 327.87 312.18"
/>
<path stroke="#e34b75" vector-effect="non-scaling-stroke" d="
  M 298.69 329.77
  Q 294.43 332.40 291.30 336.30
  C 282.97 346.68 274.71 361.19 261.19 364.80
  C 244.29 369.31 226.29 359.89 212.82 350.41"
/>
<path stroke="#95544f" vector-effect="non-scaling-stroke" d="
  M 65.44 317.20
  C 59.29 343.14 64.55 368.91 90.21 381.44
  Q 96.46 384.49 101.55 385.94
  C 130.69 394.29 194.34 402.44 203.00 359.22
  C 206.57 341.34 196.53 324.31 178.95 318.19"
/>
<path stroke="#a67268" vector-effect="non-scaling-stroke" d="
  M 178.95 318.19
  Q 170.60 315.26 161.99 314.83
  C 145.64 314.01 127.03 315.30 109.01 314.26
  C 105.32 314.05 105.59 308.73 109.76 308.36
  Q 115.47 307.84 121.12 307.45
  Q 121.56 307.42 121.24 307.11
  Q 110.44 296.51 99.74 285.83
  C 95.94 282.03 92.99 277.99 90.01 273.64
  Q 89.68 273.16 89.30 273.59
  Q 71.76 292.88 65.44 317.20"
/>
<path stroke="#ee8f7b" vector-effect="non-scaling-stroke" d="
  M 178.95 318.19
  Q 180.74 330.50 179.13 341.91
  C 176.46 360.71 157.82 367.67 141.14 368.63
  C 106.08 370.67 76.23 350.96 65.44 317.20"
/>
<path stroke="#95544f" vector-effect="non-scaling-stroke" d="
  M 334.41 318.97
  C 324.08 321.14 313.24 325.45 306.56 333.74
  C 296.18 346.60 295.45 365.39 305.82 378.72
  C 315.21 390.78 331.09 395.29 345.65 396.16
  Q 372.60 397.75 398.74 390.23
  C 421.91 383.57 438.10 368.79 438.92 343.31"
/>
<path stroke="#a67268" vector-effect="non-scaling-stroke" d="
  M 438.92 343.31
  Q 440.15 315.01 424.40 291.19
  Q 424.11 290.75 423.75 291.14
  Q 412.01 304.06 397.80 314.22
  Q 396.60 315.07 398.01 315.50
  Q 402.26 316.79 402.38 319.62
  C 402.49 322.27 399.69 322.78 397.52 322.21
  Q 387.01 319.44 373.79 317.71
  Q 353.04 315.00 334.41 318.97"
/>
<path stroke="#ee8f7b" vector-effect="non-scaling-stroke" d="
  M 438.92 343.31
  Q 419.76 361.49 393.78 365.81
  Q 370.61 369.67 349.75 363.94
  C 327.63 357.87 326.70 336.93 334.41 318.97"
/>
<path stroke="#a67268" vector-effect="non-scaling-stroke" d="
  M 128.40 416.56
  C 129.69 418.51 132.25 421.57 130.17 423.93
  C 126.87 427.67 123.62 425.77 121.30 422.21
  C 107.57 401.14 82.38 380.65 55.53 390.71
  Q 42.22 395.70 37.33 408.83"
/>
<path stroke="#95544f" vector-effect="non-scaling-stroke" d="
  M 37.33 408.83
  C 31.66 426.36 38.07 445.12 48.83 459.21
  C 62.95 477.71 81.79 495.31 105.02 499.55
  C 120.25 502.32 119.73 482.55 117.89 473.50
  C 112.97 449.33 98.16 429.92 76.53 418.73
  Q 67.95 414.30 57.26 411.72
  Q 55.06 411.19 55.47 407.92"
/>
<path stroke="#a67268" vector-effect="non-scaling-stroke" d="
  M 55.47 407.92
  C 55.98 406.33 57.09 405.47 58.85 405.47
  C 84.32 405.57 108.64 428.91 119.42 450.02
  C 126.88 464.64 130.35 481.33 124.98 497.04
  Q 124.77 497.65 125.38 497.44
  Q 133.14 494.72 139.36 490.63
  Q 165.07 473.74 188.07 460.35
  C 198.53 454.26 211.20 447.85 220.88 444.01
  C 256.82 429.75 291.69 443.10 323.25 461.00
  Q 350.57 476.51 377.39 492.86
  Q 381.82 495.56 387.59 497.60
  Q 388.01 497.75 387.85 497.33
  Q 384.07 487.78 386.06 475.75
  C 390.24 450.44 401.62 432.37 422.05 417.28
  Q 432.52 409.55 445.98 406.19
  Q 453.61 404.28 457.62 407.13"
/>
<path stroke="#95544f" vector-effect="non-scaling-stroke" d="
  M 457.62 407.13
  Q 458.49 411.34 455.25 411.98
  C 423.61 418.26 398.61 446.67 394.54 478.24
  C 393.36 487.37 395.50 502.07 408.72 499.67
  C 429.31 495.95 444.87 481.66 458.24 466.70
  Q 465.70 458.35 469.17 452.39
  Q 478.38 436.59 477.86 417.50
  Q 477.76 413.89 475.75 408.08"
/>
<path stroke="#a67268" vector-effect="non-scaling-stroke" d="
  M 475.75 408.08
  Q 471.39 397.24 461.40 392.37
  C 432.61 378.31 406.80 400.67 391.54 422.87
  Q 389.93 425.22 388.18 425.69
  Q 384.31 426.72 381.80 421.87"
/>
<path stroke="#95544f" vector-effect="non-scaling-stroke" d="
  M 381.80 421.87
  Q 388.25 410.39 397.47 400.84
  Q 398.09 400.20 397.22 400.40
  C 366.19 407.30 327.07 411.52 301.52 387.75
  Q 301.15 387.41 300.82 387.79
  C 292.53 397.35 281.19 406.65 269.35 410.04
  Q 255.26 414.08 241.29 408.47
  Q 221.76 400.63 199.99 385.26
  Q 199.55 384.95 199.14 385.30
  C 175.65 405.90 141.98 402.94 113.55 398.28
  Q 112.75 398.15 113.33 398.71
  Q 121.74 406.86 128.40 416.56"
/>
<path stroke="#ee8f7b" vector-effect="non-scaling-stroke" d="
  M 381.80 421.87
  Q 377.44 423.86 371.24 423.64
  Q 341.82 422.61 314.17 412.76
  C 307.05 410.23 303.66 408.77 296.42 413.03
  C 291.77 415.78 286.72 419.08 281.98 420.93
  C 255.17 431.40 229.28 421.21 205.41 408.75
  C 202.92 407.45 199.10 406.51 196.98 407.95
  C 175.81 422.33 151.92 427.20 128.40 416.56"
/>
<path stroke="#ee8f7b" vector-effect="non-scaling-stroke" d="
  M 475.75 408.08
  L 457.62 407.13"
/>
<path stroke="#ee8f7b" vector-effect="non-scaling-stroke" d="
  M 55.47 407.92
  Q 46.57 406.47 37.33 408.83"
/>
<path stroke="#a67268" vector-effect="non-scaling-stroke" d="
  M 275.44 124.58
  C 285.05 128.56 298.89 129.85 307.10 122.77
  C 309.39 120.80 308.25 116.29 305.49 116.95
  C 295.66 119.32 288.79 121.84 278.91 117.53
  C 276.42 116.45 269.11 111.86 267.95 116.71
  C 267.13 120.14 272.63 123.42 275.44 124.58"
/>
<path stroke="#a67268" vector-effect="non-scaling-stroke" d="
  M 173.93 138.59
  Q 184.32 141.74 194.05 138.29
  C 199.30 136.42 205.95 133.13 208.73 128.00
  C 210.95 123.89 207.22 121.30 203.67 123.70
  Q 200.94 125.54 198.23 127.41
  C 190.48 132.77 183.22 132.61 174.11 131.70
  C 171.86 131.47 169.99 132.07 169.83 134.51
  C 169.66 137.08 171.83 137.95 173.93 138.59"
/>
<path stroke="#a67268" vector-effect="non-scaling-stroke" d="
  M 257.94 182.29
  L 255.24 160.54
  A 0.65 0.64 -20.1 0 1 255.53 159.92
  C 264.58 154.16 277.26 135.88 257.00 132.51
  Q 243.60 130.29 230.50 134.83
  C 225.46 136.58 221.30 141.20 221.85 146.68
  C 222.77 155.78 238.84 161.09 246.56 162.09
  Q 247.12 162.17 247.25 162.73
  Q 249.56 172.72 249.61 182.99
  Q 249.61 183.59 249.04 183.44
  C 244.17 182.22 233.98 178.09 229.55 180.19
  A 2.21 2.20 -29.6 0 0 228.66 183.41
  C 231.61 187.83 240.48 189.13 245.50 190.70
  C 258.14 194.64 266.00 187.77 275.64 181.39
  C 277.89 179.91 282.17 174.94 279.49 172.52
  C 276.76 170.08 272.07 172.72 269.73 174.73
  Q 264.47 179.24 258.37 182.52
  Q 257.99 182.72 257.94 182.29"
/>
<path stroke="#ffaabf" vector-effect="non-scaling-stroke" d="
  M 108.74 227.13
  C 106.93 237.01 110.89 252.85 124.25 250.75
  Q 130.71 249.73 132.09 243.91
  C 134.71 232.91 140.76 228.43 147.90 221.42
  C 151.12 218.25 150.49 213.79 147.39 210.82
  C 142.09 205.74 132.74 205.38 126.02 207.59
  C 116.39 210.75 110.58 217.13 108.74 227.13"
/>
</g>
<path fill="#4c373c" d="
  M 435.00 380.19
  C 458.92 376.72 482.77 389.41 486.06 414.92
  C 489.49 441.46 469.71 471.99 450.24 488.29
  C 445.71 492.08 439.89 495.36 434.47 498.78
  C 426.10 504.04 415.56 507.58 406.26 508.49
  C 392.92 509.79 378.16 503.38 366.84 496.38
  Q 342.12 481.10 316.60 467.18
  C 286.83 450.95 256.06 438.92 222.31 453.05
  C 195.65 464.21 169.73 481.68 146.11 496.85
  Q 135.92 503.40 130.24 505.46
  C 114.23 511.27 96.66 508.70 81.42 501.50
  Q 74.20 498.10 67.03 491.98
  C 45.07 473.26 15.50 438.68 29.13 407.30
  C 36.40 390.56 51.76 379.38 70.26 379.23
  Q 70.98 379.22 70.47 378.71
  C 40.10 348.54 55.74 291.24 85.38 266.17
  Q 85.77 265.84 85.56 265.37
  C 72.35 235.35 83.71 201.73 111.40 184.79
  Q 111.87 184.50 111.47 184.12
  C 106.06 178.87 107.72 168.65 110.95 162.87
  A 1.37 1.36 25.9 0 0 110.27 160.93
  C 102.89 157.89 95.99 151.79 98.93 143.26
  Q 99.86 140.54 103.69 136.16
  Q 109.43 129.57 114.37 122.40
  Q 114.67 121.97 114.15 121.96
  Q 90.93 121.49 76.03 105.98
  C 58.71 87.96 56.34 57.79 67.20 35.98
  C 80.93 8.43 116.05 -5.52 143.84 9.36
  C 157.47 16.66 167.16 29.63 172.42 44.13
  Q 172.63 44.70 173.14 44.38
  Q 184.33 37.57 196.63 33.12
  Q 197.31 32.88 196.74 32.44
  Q 192.91 29.50 189.13 26.71
  C 184.90 23.59 184.15 20.25 189.00 17.32
  Q 208.60 5.49 227.48 18.98
  Q 227.91 19.29 228.29 18.91
  C 234.29 12.65 248.54 -0.63 257.18 8.89
  C 260.56 12.63 259.74 18.03 258.51 22.71
  Q 258.36 23.28 258.94 23.35
  Q 289.85 27.47 315.58 44.95
  Q 316.05 45.27 316.26 44.74
  Q 318.65 38.63 319.69 36.52
  C 337.80 -0.05 384.19 -8.57 412.32 22.18
  C 432.10 43.80 433.87 76.65 417.06 100.50
  Q 401.15 123.09 372.22 121.79
  Q 371.64 121.76 371.89 122.28
  Q 373.31 125.16 374.95 126.58
  Q 382.78 133.34 386.90 137.57
  C 392.83 143.65 388.33 149.53 383.04 153.62
  A 1.02 1.02 0.0 0 0 382.83 155.02
  Q 390.90 166.48 380.96 176.43
  Q 380.50 176.89 381.14 177.03
  C 431.39 187.83 458.12 236.46 429.68 282.58
  A 0.82 0.82 0.0 0 0 429.71 283.48
  C 449.36 311.05 457.46 351.44 434.70 379.67
  Q 434.19 380.31 435.00 380.19
  Z
  M 400.61 71.15
  Q 398.41 90.48 380.64 96.81
  Q 380.15 96.98 379.99 97.48
  C 378.46 102.21 379.72 109.66 385.30 111.36
  Q 386.67 111.78 388.24 111.34
  C 402.46 107.31 412.79 95.45 416.89 81.48
  Q 419.70 71.90 419.81 63.01
  Q 417.84 37.28 398.51 22.25
  C 378.27 6.50 351.45 9.39 335.40 29.15
  Q 327.80 38.50 323.92 50.48
  Q 323.77 50.95 324.14 51.27
  L 333.59 59.66
  Q 333.96 59.99 334.03 59.50
  Q 336.22 44.78 348.99 37.23
  C 375.94 21.31 403.00 42.03 400.61 71.15
  Z
  M 70.10 70.50
  C 71.95 89.66 82.99 106.22 101.80 111.78
  C 104.32 112.53 106.32 111.66 108.47 110.47
  C 111.78 108.63 110.29 103.32 108.46 101.05
  Q 104.14 95.70 98.79 91.39
  Q 97.19 90.11 95.99 88.81
  Q 94.50 87.21 93.34 86.04
  Q 87.16 75.58 88.34 64.23
  C 90.69 41.61 108.84 26.49 132.00 33.75
  C 144.83 37.77 155.39 48.62 155.11 62.73
  Q 154.96 70.17 151.00 74.47
  Q 138.92 87.60 133.07 100.31
  C 126.66 118.18 120.76 130.08 108.65 143.76
  C 100.16 153.37 118.34 152.62 118.59 161.82
  C 118.78 168.95 111.62 173.72 119.29 180.63
  Q 119.64 180.95 120.09 180.80
  C 167.70 165.62 221.51 196.81 259.08 223.33
  Q 259.52 223.64 259.89 223.25
  C 287.50 194.42 325.48 171.71 366.90 174.56
  Q 369.25 174.72 370.88 173.77
  C 375.15 171.28 379.98 167.06 376.97 161.51
  C 375.61 158.99 373.92 156.44 374.01 153.73
  C 374.14 149.51 378.39 147.79 380.67 145.02
  Q 380.99 144.63 380.96 144.13
  Q 380.78 141.16 379.40 140.30
  Q 372.79 136.16 367.99 130.13
  C 365.94 127.55 364.45 124.24 362.74 121.22
  C 360.14 116.62 359.39 111.15 357.25 106.13
  Q 351.61 91.74 339.05 77.95
  C 315.53 52.14 287.60 34.57 252.80 31.50
  C 249.99 31.25 247.55 30.42 247.31 27.41
  C 247.03 23.98 253.18 18.54 250.65 15.59
  Q 249.25 13.95 247.47 14.97
  Q 238.60 19.99 231.45 28.43
  C 229.17 31.12 226.56 30.93 224.10 28.41
  Q 213.74 17.76 198.79 21.94
  A 0.43 0.43 0.0 0 0 198.65 22.70
  Q 204.14 26.73 209.67 30.82
  C 212.22 32.70 212.16 37.77 208.51 38.79
  Q 189.98 43.94 173.99 54.56
  Q 171.50 56.21 169.71 56.07
  Q 166.71 55.83 165.80 52.62
  Q 159.90 31.67 143.71 20.42
  C 127.00 8.81 105.49 9.61 89.59 22.57
  Q 66.85 41.11 70.10 70.50
  Z
  M 212.82 350.41
  Q 212.82 364.32 206.13 376.09
  A 1.08 1.07 -40.9 0 0 206.06 377.02
  C 206.95 379.26 207.46 380.94 209.68 382.29
  Q 226.25 392.33 233.59 395.92
  C 251.32 404.59 266.52 406.72 282.70 392.87
  Q 291.14 385.65 295.37 380.79
  Q 295.74 380.37 295.48 379.88
  Q 281.69 354.06 298.69 329.77
  Q 307.73 318.91 321.25 314.57
  Q 326.00 313.05 327.87 312.18
  Q 353.68 306.56 378.01 310.47
  Q 381.22 310.99 383.95 310.47
  Q 388.98 309.51 390.50 308.56
  Q 396.02 305.10 409.82 292.57
  C 420.43 282.93 429.05 268.14 431.59 254.08
  C 438.04 218.33 408.12 191.51 375.73 185.31
  Q 372.29 184.32 367.75 183.87
  C 326.67 179.82 289.79 205.01 262.68 232.94
  C 261.54 234.12 259.27 233.90 257.81 233.00
  Q 250.02 228.22 242.50 223.03
  C 212.58 202.38 175.13 183.12 137.25 185.34
  Q 123.17 186.17 112.03 194.30
  C 91.58 209.21 82.82 235.12 92.16 259.02
  C 99.79 278.53 117.99 293.62 137.37 300.76
  C 143.98 303.20 152.03 304.47 159.47 306.19
  Q 162.67 306.94 168.62 307.58
  C 192.29 310.13 210.56 326.28 212.82 350.41
  Z
  M 65.44 317.20
  C 59.29 343.14 64.55 368.91 90.21 381.44
  Q 96.46 384.49 101.55 385.94
  C 130.69 394.29 194.34 402.44 203.00 359.22
  C 206.57 341.34 196.53 324.31 178.95 318.19
  Q 170.60 315.26 161.99 314.83
  C 145.64 314.01 127.03 315.30 109.01 314.26
  C 105.32 314.05 105.59 308.73 109.76 308.36
  Q 115.47 307.84 121.12 307.45
  Q 121.56 307.42 121.24 307.11
  Q 110.44 296.51 99.74 285.83
  C 95.94 282.03 92.99 277.99 90.01 273.64
  Q 89.68 273.16 89.30 273.59
  Q 71.76 292.88 65.44 317.20
  Z
  M 334.41 318.97
  C 324.08 321.14 313.24 325.45 306.56 333.74
  C 296.18 346.60 295.45 365.39 305.82 378.72
  C 315.21 390.78 331.09 395.29 345.65 396.16
  Q 372.60 397.75 398.74 390.23
  C 421.91 383.57 438.10 368.79 438.92 343.31
  Q 440.15 315.01 424.40 291.19
  Q 424.11 290.75 423.75 291.14
  Q 412.01 304.06 397.80 314.22
  Q 396.60 315.07 398.01 315.50
  Q 402.26 316.79 402.38 319.62
  C 402.49 322.27 399.69 322.78 397.52 322.21
  Q 387.01 319.44 373.79 317.71
  Q 353.04 315.00 334.41 318.97
  Z
  M 128.40 416.56
  C 129.69 418.51 132.25 421.57 130.17 423.93
  C 126.87 427.67 123.62 425.77 121.30 422.21
  C 107.57 401.14 82.38 380.65 55.53 390.71
  Q 42.22 395.70 37.33 408.83
  C 31.66 426.36 38.07 445.12 48.83 459.21
  C 62.95 477.71 81.79 495.31 105.02 499.55
  C 120.25 502.32 119.73 482.55 117.89 473.50
  C 112.97 449.33 98.16 429.92 76.53 418.73
  Q 67.95 414.30 57.26 411.72
  Q 55.06 411.19 55.47 407.92
  C 55.98 406.33 57.09 405.47 58.85 405.47
  C 84.32 405.57 108.64 428.91 119.42 450.02
  C 126.88 464.64 130.35 481.33 124.98 497.04
  Q 124.77 497.65 125.38 497.44
  Q 133.14 494.72 139.36 490.63
  Q 165.07 473.74 188.07 460.35
  C 198.53 454.26 211.20 447.85 220.88 444.01
  C 256.82 429.75 291.69 443.10 323.25 461.00
  Q 350.57 476.51 377.39 492.86
  Q 381.82 495.56 387.59 497.60
  Q 388.01 497.75 387.85 497.33
  Q 384.07 487.78 386.06 475.75
  C 390.24 450.44 401.62 432.37 422.05 417.28
  Q 432.52 409.55 445.98 406.19
  Q 453.61 404.28 457.62 407.13
  Q 458.49 411.34 455.25 411.98
  C 423.61 418.26 398.61 446.67 394.54 478.24
  C 393.36 487.37 395.50 502.07 408.72 499.67
  C 429.31 495.95 444.87 481.66 458.24 466.70
  Q 465.70 458.35 469.17 452.39
  Q 478.38 436.59 477.86 417.50
  Q 477.76 413.89 475.75 408.08
  Q 471.39 397.24 461.40 392.37
  C 432.61 378.31 406.80 400.67 391.54 422.87
  Q 389.93 425.22 388.18 425.69
  Q 384.31 426.72 381.80 421.87
  Q 388.25 410.39 397.47 400.84
  Q 398.09 400.20 397.22 400.40
  C 366.19 407.30 327.07 411.52 301.52 387.75
  Q 301.15 387.41 300.82 387.79
  C 292.53 397.35 281.19 406.65 269.35 410.04
  Q 255.26 414.08 241.29 408.47
  Q 221.76 400.63 199.99 385.26
  Q 199.55 384.95 199.14 385.30
  C 175.65 405.90 141.98 402.94 113.55 398.28
  Q 112.75 398.15 113.33 398.71
  Q 121.74 406.86 128.40 416.56
  Z"
/>
<path fill="#ffac93" d="
  M 419.81 63.01
  Q 412.22 69.72 400.61 71.15
  C 403.00 42.03 375.94 21.31 348.99 37.23
  Q 336.22 44.78 334.03 59.50
  Q 333.96 59.99 333.59 59.66
  L 324.14 51.27
  Q 323.77 50.95 323.92 50.48
  Q 327.80 38.50 335.40 29.15
  C 351.45 9.39 378.27 6.50 398.51 22.25
  Q 417.84 37.28 419.81 63.01
  Z"
/>
<path fill="#ffac93" d="
  M 357.25 106.13
  Q 358.24 124.55 356.06 142.43
  C 354.53 155.06 342.58 162.65 330.98 165.33
  Q 313.13 169.46 298.46 180.44
  C 278.23 195.59 261.11 207.89 236.33 196.89
  Q 233.11 195.46 224.21 190.57
  C 209.87 182.70 195.31 177.15 179.32 173.64
  C 164.98 170.49 150.73 165.89 141.07 154.22
  C 131.09 142.15 134.22 130.02 135.70 116.00
  Q 136.59 107.58 133.07 100.31
  Q 138.92 87.60 151.00 74.47
  Q 154.96 70.17 155.11 62.73
  C 155.39 48.62 144.83 37.77 132.00 33.75
  C 108.84 26.49 90.69 41.61 88.34 64.23
  Q 87.16 75.58 93.34 86.04
  Q 80.30 81.16 70.10 70.50
  Q 66.85 41.11 89.59 22.57
  C 105.49 9.61 127.00 8.81 143.71 20.42
  Q 159.90 31.67 165.80 52.62
  Q 166.71 55.83 169.71 56.07
  Q 171.50 56.21 173.99 54.56
  Q 189.98 43.94 208.51 38.79
  C 212.16 37.77 212.22 32.70 209.67 30.82
  Q 204.14 26.73 198.65 22.70
  A 0.43 0.43 0.0 0 1 198.79 21.94
  Q 213.74 17.76 224.10 28.41
  C 226.56 30.93 229.17 31.12 231.45 28.43
  Q 238.60 19.99 247.47 14.97
  Q 249.25 13.95 250.65 15.59
  C 253.18 18.54 247.03 23.98 247.31 27.41
  C 247.55 30.42 249.99 31.25 252.80 31.50
  C 287.60 34.57 315.53 52.14 339.05 77.95
  Q 351.61 91.74 357.25 106.13
  Z
  M 275.44 124.58
  C 285.05 128.56 298.89 129.85 307.10 122.77
  C 309.39 120.80 308.25 116.29 305.49 116.95
  C 295.66 119.32 288.79 121.84 278.91 117.53
  C 276.42 116.45 269.11 111.86 267.95 116.71
  C 267.13 120.14 272.63 123.42 275.44 124.58
  Z
  M 173.93 138.59
  Q 184.32 141.74 194.05 138.29
  C 199.30 136.42 205.95 133.13 208.73 128.00
  C 210.95 123.89 207.22 121.30 203.67 123.70
  Q 200.94 125.54 198.23 127.41
  C 190.48 132.77 183.22 132.61 174.11 131.70
  C 171.86 131.47 169.99 132.07 169.83 134.51
  C 169.66 137.08 171.83 137.95 173.93 138.59
  Z
  M 257.94 182.29
  L 255.24 160.54
  A 0.65 0.64 -20.1 0 1 255.53 159.92
  C 264.58 154.16 277.26 135.88 257.00 132.51
  Q 243.60 130.29 230.50 134.83
  C 225.46 136.58 221.30 141.20 221.85 146.68
  C 222.77 155.78 238.84 161.09 246.56 162.09
  Q 247.12 162.17 247.25 162.73
  Q 249.56 172.72 249.61 182.99
  Q 249.61 183.59 249.04 183.44
  C 244.17 182.22 233.98 178.09 229.55 180.19
  A 2.21 2.20 -29.6 0 0 228.66 183.41
  C 231.61 187.83 240.48 189.13 245.50 190.70
  C 258.14 194.64 266.00 187.77 275.64 181.39
  C 277.89 179.91 282.17 174.94 279.49 172.52
  C 276.76 170.08 272.07 172.72 269.73 174.73
  Q 264.47 179.24 258.37 182.52
  Q 257.99 182.72 257.94 182.29
  Z"
/>
<path fill="#dd7162" d="
  M 419.81 63.01
  Q 419.70 71.90 416.89 81.48
  C 412.79 95.45 402.46 107.31 388.24 111.34
  Q 386.67 111.78 385.30 111.36
  C 379.72 109.66 378.46 102.21 379.99 97.48
  Q 380.15 96.98 380.64 96.81
  Q 398.41 90.48 400.61 71.15
  Q 412.22 69.72 419.81 63.01
  Z"
/>
<path fill="#dd7162" d="
  M 70.10 70.50
  Q 80.30 81.16 93.34 86.04
  Q 94.50 87.21 95.99 88.81
  Q 97.19 90.11 98.79 91.39
  Q 104.14 95.70 108.46 101.05
  C 110.29 103.32 111.78 108.63 108.47 110.47
  C 106.32 111.66 104.32 112.53 101.80 111.78
  C 82.99 106.22 71.95 89.66 70.10 70.50
  Z"
/>
<path fill="#dd7162" d="
  M 133.07 100.31
  Q 136.59 107.58 135.70 116.00
  C 134.22 130.02 131.09 142.15 141.07 154.22
  C 150.73 165.89 164.98 170.49 179.32 173.64
  C 195.31 177.15 209.87 182.70 224.21 190.57
  Q 233.11 195.46 236.33 196.89
  C 261.11 207.89 278.23 195.59 298.46 180.44
  Q 313.13 169.46 330.98 165.33
  C 342.58 162.65 354.53 155.06 356.06 142.43
  Q 358.24 124.55 357.25 106.13
  C 359.39 111.15 360.14 116.62 362.74 121.22
  C 364.45 124.24 365.94 127.55 367.99 130.13
  Q 372.79 136.16 379.40 140.30
  Q 380.78 141.16 380.96 144.13
  Q 380.99 144.63 380.67 145.02
  C 378.39 147.79 374.14 149.51 374.01 153.73
  C 373.92 156.44 375.61 158.99 376.97 161.51
  C 379.98 167.06 375.15 171.28 370.88 173.77
  Q 369.25 174.72 366.90 174.56
  C 325.48 171.71 287.50 194.42 259.89 223.25
  Q 259.52 223.64 259.08 223.33
  C 221.51 196.81 167.70 165.62 120.09 180.80
  Q 119.64 180.95 119.29 180.63
  C 111.62 173.72 118.78 168.95 118.59 161.82
  C 118.34 152.62 100.16 153.37 108.65 143.76
  C 120.76 130.08 126.66 118.18 133.07 100.31
  Z"
/>
<path fill="#4c373c" d="
  M 275.44 124.58
  C 272.63 123.42 267.13 120.14 267.95 116.71
  C 269.11 111.86 276.42 116.45 278.91 117.53
  C 288.79 121.84 295.66 119.32 305.49 116.95
  C 308.25 116.29 309.39 120.80 307.10 122.77
  C 298.89 129.85 285.05 128.56 275.44 124.58
  Z"
/>
<path fill="#4c373c" d="
  M 173.93 138.59
  C 171.83 137.95 169.66 137.08 169.83 134.51
  C 169.99 132.07 171.86 131.47 174.11 131.70
  C 183.22 132.61 190.48 132.77 198.23 127.41
  Q 200.94 125.54 203.67 123.70
  C 207.22 121.30 210.95 123.89 208.73 128.00
  C 205.95 133.13 199.30 136.42 194.05 138.29
  Q 184.32 141.74 173.93 138.59
  Z"
/>
<path fill="#4c373c" d="
  M 258.37 182.52
  Q 264.47 179.24 269.73 174.73
  C 272.07 172.72 276.76 170.08 279.49 172.52
  C 282.17 174.94 277.89 179.91 275.64 181.39
  C 266.00 187.77 258.14 194.64 245.50 190.70
  C 240.48 189.13 231.61 187.83 228.66 183.41
  A 2.21 2.20 -29.6 0 1 229.55 180.19
  C 233.98 178.09 244.17 182.22 249.04 183.44
  Q 249.61 183.59 249.61 182.99
  Q 249.56 172.72 247.25 162.73
  Q 247.12 162.17 246.56 162.09
  C 238.84 161.09 222.77 155.78 221.85 146.68
  C 221.30 141.20 225.46 136.58 230.50 134.83
  Q 243.60 130.29 257.00 132.51
  C 277.26 135.88 264.58 154.16 255.53 159.92
  A 0.65 0.64 -20.1 0 0 255.24 160.54
  L 257.94 182.29
  Q 257.99 182.72 258.37 182.52
  Z"
/>
<path fill="#ff668b" d="
  M 375.73 185.31
  C 406.84 208.56 395.78 240.75 376.11 266.60
  Q 356.46 292.42 327.87 312.18
  Q 326.00 313.05 321.25 314.57
  Q 307.73 318.91 298.69 329.77
  Q 294.43 332.40 291.30 336.30
  C 282.97 346.68 274.71 361.19 261.19 364.80
  C 244.29 369.31 226.29 359.89 212.82 350.41
  C 210.56 326.28 192.29 310.13 168.62 307.58
  Q 162.67 306.94 159.47 306.19
  C 152.03 304.47 143.98 303.20 137.37 300.76
  C 117.99 293.62 99.79 278.53 92.16 259.02
  C 82.82 235.12 91.58 209.21 112.03 194.30
  Q 123.17 186.17 137.25 185.34
  C 175.13 183.12 212.58 202.38 242.50 223.03
  Q 250.02 228.22 257.81 233.00
  C 259.27 233.90 261.54 234.12 262.68 232.94
  C 289.79 205.01 326.67 179.82 367.75 183.87
  Q 372.29 184.32 375.73 185.31
  Z
  M 108.74 227.13
  C 106.93 237.01 110.89 252.85 124.25 250.75
  Q 130.71 249.73 132.09 243.91
  C 134.71 232.91 140.76 228.43 147.90 221.42
  C 151.12 218.25 150.49 213.79 147.39 210.82
  C 142.09 205.74 132.74 205.38 126.02 207.59
  C 116.39 210.75 110.58 217.13 108.74 227.13
  Z"
/>
<path fill="#c6305f" d="
  M 375.73 185.31
  C 408.12 191.51 438.04 218.33 431.59 254.08
  C 429.05 268.14 420.43 282.93 409.82 292.57
  Q 396.02 305.10 390.50 308.56
  Q 388.98 309.51 383.95 310.47
  Q 381.22 310.99 378.01 310.47
  Q 353.68 306.56 327.87 312.18
  Q 356.46 292.42 376.11 266.60
  C 395.78 240.75 406.84 208.56 375.73 185.31
  Z"
/>
<path fill="#ffeef3" d="
  M 108.74 227.13
  C 110.58 217.13 116.39 210.75 126.02 207.59
  C 132.74 205.38 142.09 205.74 147.39 210.82
  C 150.49 213.79 151.12 218.25 147.90 221.42
  C 140.76 228.43 134.71 232.91 132.09 243.91
  Q 130.71 249.73 124.25 250.75
  C 110.89 252.85 106.93 237.01 108.74 227.13
  Z"
/>
<path fill="#ffac93" d="
  M 178.95 318.19
  Q 180.74 330.50 179.13 341.91
  C 176.46 360.71 157.82 367.67 141.14 368.63
  C 106.08 370.67 76.23 350.96 65.44 317.20
  Q 71.76 292.88 89.30 273.59
  Q 89.68 273.16 90.01 273.64
  C 92.99 277.99 95.94 282.03 99.74 285.83
  Q 110.44 296.51 121.24 307.11
  Q 121.56 307.42 121.12 307.45
  Q 115.47 307.84 109.76 308.36
  C 105.59 308.73 105.32 314.05 109.01 314.26
  C 127.03 315.30 145.64 314.01 161.99 314.83
  Q 170.60 315.26 178.95 318.19
  Z"
/>
<path fill="#ffac93" d="
  M 438.92 343.31
  Q 419.76 361.49 393.78 365.81
  Q 370.61 369.67 349.75 363.94
  C 327.63 357.87 326.70 336.93 334.41 318.97
  Q 353.04 315.00 373.79 317.71
  Q 387.01 319.44 397.52 322.21
  C 399.69 322.78 402.49 322.27 402.38 319.62
  Q 402.26 316.79 398.01 315.50
  Q 396.60 315.07 397.80 314.22
  Q 412.01 304.06 423.75 291.14
  Q 424.11 290.75 424.40 291.19
  Q 440.15 315.01 438.92 343.31
  Z"
/>
<path fill="#dd7162" d="
  M 65.44 317.20
  C 76.23 350.96 106.08 370.67 141.14 368.63
  C 157.82 367.67 176.46 360.71 179.13 341.91
  Q 180.74 330.50 178.95 318.19
  C 196.53 324.31 206.57 341.34 203.00 359.22
  C 194.34 402.44 130.69 394.29 101.55 385.94
  Q 96.46 384.49 90.21 381.44
  C 64.55 368.91 59.29 343.14 65.44 317.20
  Z"
/>
<path fill="#dd7162" d="
  M 334.41 318.97
  C 326.70 336.93 327.63 357.87 349.75 363.94
  Q 370.61 369.67 393.78 365.81
  Q 419.76 361.49 438.92 343.31
  C 438.10 368.79 421.91 383.57 398.74 390.23
  Q 372.60 397.75 345.65 396.16
  C 331.09 395.29 315.21 390.78 305.82 378.72
  C 295.45 365.39 296.18 346.60 306.56 333.74
  C 313.24 325.45 324.08 321.14 334.41 318.97
  Z"
/>
<path fill="#c6305f" d="
  M 298.69 329.77
  Q 281.69 354.06 295.48 379.88
  Q 295.74 380.37 295.37 380.79
  Q 291.14 385.65 282.70 392.87
  C 266.52 406.72 251.32 404.59 233.59 395.92
  Q 226.25 392.33 209.68 382.29
  C 207.46 380.94 206.95 379.26 206.06 377.02
  A 1.08 1.07 -40.9 0 1 206.13 376.09
  Q 212.82 364.32 212.82 350.41
  C 226.29 359.89 244.29 369.31 261.19 364.80
  C 274.71 361.19 282.97 346.68 291.30 336.30
  Q 294.43 332.40 298.69 329.77
  Z"
/>
<path fill="#dd7162" d="
  M 381.80 421.87
  Q 377.44 423.86 371.24 423.64
  Q 341.82 422.61 314.17 412.76
  C 307.05 410.23 303.66 408.77 296.42 413.03
  C 291.77 415.78 286.72 419.08 281.98 420.93
  C 255.17 431.40 229.28 421.21 205.41 408.75
  C 202.92 407.45 199.10 406.51 196.98 407.95
  C 175.81 422.33 151.92 427.20 128.40 416.56
  Q 121.74 406.86 113.33 398.71
  Q 112.75 398.15 113.55 398.28
  C 141.98 402.94 175.65 405.90 199.14 385.30
  Q 199.55 384.95 199.99 385.26
  Q 221.76 400.63 241.29 408.47
  Q 255.26 414.08 269.35 410.04
  C 281.19 406.65 292.53 397.35 300.82 387.79
  Q 301.15 387.41 301.52 387.75
  C 327.07 411.52 366.19 407.30 397.22 400.40
  Q 398.09 400.20 397.47 400.84
  Q 388.25 410.39 381.80 421.87
  Z"
/>
<path fill="#ffac93" d="
  M 128.40 416.56
  C 151.92 427.20 175.81 422.33 196.98 407.95
  C 199.10 406.51 202.92 407.45 205.41 408.75
  C 229.28 421.21 255.17 431.40 281.98 420.93
  C 286.72 419.08 291.77 415.78 296.42 413.03
  C 303.66 408.77 307.05 410.23 314.17 412.76
  Q 341.82 422.61 371.24 423.64
  Q 377.44 423.86 381.80 421.87
  Q 384.31 426.72 388.18 425.69
  Q 389.93 425.22 391.54 422.87
  C 406.80 400.67 432.61 378.31 461.40 392.37
  Q 471.39 397.24 475.75 408.08
  L 457.62 407.13
  Q 453.61 404.28 445.98 406.19
  Q 432.52 409.55 422.05 417.28
  C 401.62 432.37 390.24 450.44 386.06 475.75
  Q 384.07 487.78 387.85 497.33
  Q 388.01 497.75 387.59 497.60
  Q 381.82 495.56 377.39 492.86
  Q 350.57 476.51 323.25 461.00
  C 291.69 443.10 256.82 429.75 220.88 444.01
  C 211.20 447.85 198.53 454.26 188.07 460.35
  Q 165.07 473.74 139.36 490.63
  Q 133.14 494.72 125.38 497.44
  Q 124.77 497.65 124.98 497.04
  C 130.35 481.33 126.88 464.64 119.42 450.02
  C 108.64 428.91 84.32 405.57 58.85 405.47
  C 57.09 405.47 55.98 406.33 55.47 407.92
  Q 46.57 406.47 37.33 408.83
  Q 42.22 395.70 55.53 390.71
  C 82.38 380.65 107.57 401.14 121.30 422.21
  C 123.62 425.77 126.87 427.67 130.17 423.93
  C 132.25 421.57 129.69 418.51 128.40 416.56
  Z"
/>
<path fill="#dd7162" d="
  M 55.47 407.92
  Q 55.06 411.19 57.26 411.72
  Q 67.95 414.30 76.53 418.73
  C 98.16 429.92 112.97 449.33 117.89 473.50
  C 119.73 482.55 120.25 502.32 105.02 499.55
  C 81.79 495.31 62.95 477.71 48.83 459.21
  C 38.07 445.12 31.66 426.36 37.33 408.83
  Q 46.57 406.47 55.47 407.92
  Z"
/>
<path fill="#dd7162" d="
  M 457.62 407.13
  L 475.75 408.08
  Q 477.76 413.89 477.86 417.50
  Q 478.38 436.59 469.17 452.39
  Q 465.70 458.35 458.24 466.70
  C 444.87 481.66 429.31 495.95 408.72 499.67
  C 395.50 502.07 393.36 487.37 394.54 478.24
  C 398.61 446.67 423.61 418.26 455.25 411.98
  Q 458.49 411.34 457.62 407.13
  Z"
/>
</svg>
