<svg width="3600" height="3782" viewBox="0 0 3600 3782" fill="none" xmlns="http://www.w3.org/2000/svg">
<path d="M1537 1089.5C1259.83 730.03 920.5 360.505 743.5 314.502C721.803 219.579 672.5 163.504 618 134.002C534.5 105.504 455.389 110.003 382.5 153.505C262.42 221.46 213.866 274.183 143 376.005C109.823 443.302 100.244 480.752 98 547.002C135 667.505 209.5 717.505 317.5 730.005C464.5 974.505 544.56 1120.13 725.5 1327.5C879.5 1504 1034.5 1621.5 1034.5 1642C1048 1681.5 1037.12 1859.45 1020.5 1982.5C1027.5 2162 1082.19 2312.82 1179 2462.5C1638.03 3040.72 1910.18 3307.16 2419 3691C2526 3756 2695.5 3801.5 2869 3731.5C3055.03 3627.15 3151.91 3559.34 3308.5 3418C3444.9 3253.37 3505.34 3164.49 3566.5 3016C3605.5 2892 3580.88 2772.31 3478 2632C3104.1 2096.48 2878.5 1807.29 2410.5 1326C2234.5 1196 2063.5 1131.5 1873 1126.5C1711.04 1145.33 1583 1136 1537 1089.5Z" fill="#D9D9D9" stroke="#111111" stroke-width="30"/>
<path d="M258.719 695.351L198.21 682.519C106.66 615.796 89.1772 563.113 119.726 441.125C140.907 376.431 165.185 336.892 237.462 258.751C320.623 180.29 366.583 151.374 447.234 129.608C564.463 100.05 620.69 114.793 702.152 203.184C649.253 234.641 655.982 261.252 698.615 316.268C626.201 297.637 614.878 316.499 627.969 383.464C555.559 368.635 541.81 393.441 540.658 466.512C463.075 458.656 441.181 480.689 438.13 564.034C368.032 546.956 348.012 563.199 352.268 645.703C286.599 627.452 265.236 637.184 258.719 695.351Z" fill="#C3C3C3" stroke="black" stroke-width="30" stroke-linecap="round" stroke-linejoin="round"/>
<path d="M134.357 421.686C279.08 336.42 344.688 272.276 437.954 132.913" stroke="black" stroke-width="30" stroke-linecap="round" stroke-linejoin="round"/>
<path d="M820 431C621.111 541.205 536.259 621.241 435 793.5C475.829 905.521 504.038 954.838 559 1031L867.5 1367.5L1083.5 1573C1101 1605 1122.02 1685.83 1126 1745C1102 1959.5 1148.5 2219.5 1289 2478.5C1521.47 2747.36 1650.93 2887.89 1880.5 3121C2097.28 3311.23 2207.5 3416 2436.5 3592C2550.9 3664.71 2615.53 3697.21 2717.67 3696.02C2718.33 3696.01 2718.81 3695.34 2718.62 3694.71C2696.2 3617.23 2706.1 3613.05 2786.49 3695.48C2786.79 3695.78 2787.26 3695.88 2787.64 3695.7L2845.69 3668.88C2846.15 3668.66 2846.37 3668.11 2846.21 3667.63C2810.26 3559.2 2823.53 3549.18 2915.97 3636.5C2916.28 3636.79 2916.75 3636.87 2917.13 3636.67L2992.25 3597.39C2992.68 3597.17 2992.88 3596.64 2992.73 3596.17C2955.91 3482.07 2973.92 3477.54 3078.88 3542.61C3079.24 3542.84 3079.72 3542.82 3080.05 3542.55L3148.88 3486.01C3149.24 3485.71 3149.34 3485.18 3149.13 3484.77C3096.16 3379.65 3107.95 3364.27 3218.85 3433.57C3219.24 3433.81 3219.77 3433.77 3220.1 3433.45L3278.51 3375.98C3278.81 3375.69 3278.89 3375.24 3278.73 3374.86C3230.49 3261.1 3237.2 3229.12 3360.24 3277.7C3360.67 3277.87 3361.19 3277.73 3361.45 3277.35L3394.64 3229.51C3394.86 3229.2 3394.87 3228.77 3394.69 3228.44C3345.47 3140.28 3349.03 3119.48 3439.21 3160.14C3439.65 3160.34 3440.2 3160.21 3440.47 3159.81L3483.1 3097.58C3483.34 3097.23 3483.33 3096.76 3483.08 3096.42C3435.6 3030.91 3430.31 3007.98 3519.57 3011.46C3520.08 3011.48 3520.56 3011.1 3520.63 3010.59C3554.12 2775.68 3406.64 2649.49 3127.5 2251.5C2862.76 1909.3 2702.86 1722.28 2398 1395.5C2294.5 1310 2027 1185.69 1874 1198.5C1742.32 1209.53 1662.34 1209.75 1507.5 1198.5C1426.14 1028.7 1366.75 940.39 1239.5 793.5C1093.05 632.722 1000.35 554.292 820 431Z" fill="#FFB602" stroke="#161616" stroke-width="30"/>
<path d="M493.35 788.224C640.09 697.834 708.361 636.636 795.135 501.174" stroke="black" stroke-width="30" stroke-linecap="round" stroke-linejoin="round"/>
<circle cx="710.443" cy="776.327" r="33" transform="rotate(-43.5665 710.443 776.327)" fill="#FDE180"/>
<circle cx="854.405" cy="620.073" r="52" transform="rotate(-43.5665 854.405 620.073)" fill="#FDE180"/>
<circle cx="927.915" cy="848.258" r="52" transform="rotate(-43.5665 927.915 848.258)" fill="#FDE180"/>
<circle cx="1481.45" cy="1991.01" r="63.5" transform="rotate(-43.5665 1481.45 1991.01)" fill="#FDE180"/>
<circle cx="1531.66" cy="1850.09" r="27" transform="rotate(-43.5665 1531.66 1850.09)" fill="#FDE180"/>
<circle cx="3256.38" cy="3027.1" r="19.5" transform="rotate(-43.5665 3256.38 3027.1)" fill="#FDE180"/>
<circle cx="1980.13" cy="1736.12" r="46.5" transform="rotate(-43.5665 1980.13 1736.12)" fill="#FDE180"/>
<circle cx="3343.89" cy="3034.95" r="46.5" transform="rotate(-43.5665 3343.89 3034.95)" fill="#FDE180"/>
<circle cx="1610.55" cy="1608.74" r="35.5" transform="rotate(-43.5665 1610.55 1608.74)" fill="#FDE180"/>
<path d="M853.904 1275.42C819.501 1305.97 796.704 1320.48 750.379 1342.14C859.824 1463.63 918.382 1521.33 1018.19 1607.02C1047.72 1583.15 1062.62 1572.85 1084.36 1563.41C1158.55 1593.12 1200.61 1603.07 1276.26 1611.36C1358.61 1602.12 1390.28 1582.29 1451.87 1519.54C1496.41 1460.18 1517.31 1420.15 1520.74 1338.79C1516.84 1271.69 1509.83 1236.65 1488.31 1179.18C1529.2 1162.1 1546.42 1145.57 1567.29 1104.06C1482.26 995.926 1433.05 937.668 1342.29 838.484L1232.15 943.242C1168 915.652 1129.65 909.599 1058.26 910.597C997.852 924.819 964.395 942.136 905.549 992.362C864.954 1039.27 852.693 1066.66 841.609 1116.67C835.724 1190.7 839.936 1223.75 853.904 1275.42Z" fill="#D8B37C" stroke="black" stroke-width="30" stroke-linecap="round" stroke-linejoin="round"/>
<circle cx="1160.89" cy="1233.22" r="214.5" transform="rotate(-43.5665 1160.89 1233.22)" fill="white" stroke="black" stroke-width="40"/>
<path d="M1056.99 1299.62L1010.67 1250.93L1031.05 1231.54C1034.62 1228.14 1038.47 1225.64 1042.58 1224.02C1046.65 1222.36 1050.79 1221.6 1055 1221.75C1059.25 1221.86 1063.37 1222.84 1067.35 1224.71C1071.33 1226.57 1075.02 1229.29 1078.42 1232.86C1081.81 1236.43 1084.37 1240.28 1086.07 1244.39C1087.74 1248.46 1088.52 1252.62 1088.41 1256.88C1088.31 1261.04 1087.34 1265.13 1085.52 1269.16C1083.66 1273.15 1080.94 1276.83 1077.37 1280.23L1056.99 1299.62ZM1061.14 1280.3L1057.29 1279.46L1067.1 1270.13C1069.04 1268.28 1070.47 1266.3 1071.39 1264.19C1072.26 1262.04 1072.65 1259.86 1072.57 1257.63C1072.54 1255.37 1072 1253.09 1070.97 1250.8C1069.95 1248.52 1068.44 1246.33 1066.45 1244.24C1064.47 1242.15 1062.36 1240.54 1060.12 1239.4C1057.89 1238.25 1055.64 1237.61 1053.38 1237.46C1051.17 1237.27 1048.99 1237.58 1046.84 1238.39C1044.65 1239.15 1042.58 1240.45 1040.63 1242.3L1030.61 1251.83L1030.31 1247.89L1061.14 1280.3ZM1131.64 1229.41C1127.6 1233.25 1123.24 1235.85 1118.54 1237.23C1113.8 1238.56 1109.15 1238.65 1104.61 1237.49C1100.11 1236.29 1096.1 1233.84 1092.57 1230.13L1064.06 1200.15L1076.02 1188.77L1103.94 1218.12C1105.62 1219.88 1107.53 1221.11 1109.69 1221.8C1111.8 1222.44 1113.93 1222.54 1116.07 1222.09C1118.16 1221.6 1120.04 1220.56 1121.71 1218.97C1123.47 1217.3 1124.65 1215.43 1125.25 1213.36C1125.84 1211.2 1125.9 1209.03 1125.41 1206.84C1124.88 1204.61 1123.77 1202.62 1122.1 1200.85L1094.18 1171.5L1105.72 1160.52L1134.24 1190.5C1137.77 1194.21 1140 1198.36 1140.92 1202.95C1141.89 1207.51 1141.6 1212.12 1140.03 1216.78C1138.42 1221.41 1135.62 1225.61 1131.64 1229.41ZM1163.91 1197.92L1117.59 1149.23L1129.42 1137.98L1175.73 1186.67L1163.91 1197.92ZM1151.67 1174.05L1142.28 1164.17L1167.46 1140.22L1176.85 1150.1L1151.67 1174.05ZM1133.01 1154.43L1123.09 1144L1151.12 1117.34L1161.05 1127.77L1133.01 1154.43ZM1206.91 1157.02L1160.59 1108.33L1172.42 1097.08L1218.73 1145.77L1206.91 1157.02ZM1194.67 1133.15L1185.27 1123.27L1210.46 1099.32L1219.85 1109.2L1194.67 1133.15ZM1176.01 1113.53L1166.09 1103.1L1194.12 1076.44L1204.04 1086.87L1176.01 1113.53ZM1139.69 1386.57L1093.38 1337.87L1114.87 1317.43C1118.21 1314.25 1121.5 1312.05 1124.75 1310.82C1127.95 1309.54 1130.99 1309.25 1133.87 1309.96C1136.75 1310.58 1139.38 1312.14 1141.76 1314.64C1144.41 1317.42 1145.94 1320.43 1146.36 1323.65C1146.82 1326.83 1146.06 1329.98 1144.08 1333.1L1142.69 1331.91C1145.31 1330.3 1147.96 1329.33 1150.64 1328.99C1153.36 1328.6 1155.98 1328.85 1158.5 1329.73C1160.97 1330.56 1163.21 1332.04 1165.24 1334.17C1167.58 1336.63 1169.21 1339.18 1170.14 1341.83C1171.03 1344.44 1171.28 1347.11 1170.89 1349.86C1170.51 1352.62 1169.54 1355.31 1167.98 1357.94C1166.46 1360.53 1164.43 1363.03 1161.88 1365.46L1139.69 1386.57ZM1141.42 1366.1L1152.07 1355.98C1153.37 1354.74 1154.26 1353.5 1154.74 1352.24C1155.27 1350.94 1155.42 1349.66 1155.18 1348.38C1154.89 1347.06 1154.2 1345.82 1153.1 1344.67C1152.08 1343.6 1150.94 1342.96 1149.68 1342.75C1148.47 1342.49 1147.2 1342.64 1145.87 1343.19C1144.5 1343.7 1143.14 1344.6 1141.8 1345.88L1131.5 1355.67L1141.42 1366.1ZM1123.1 1346.83L1131.79 1338.56C1133 1337.42 1133.84 1336.26 1134.32 1335.1C1134.81 1333.84 1134.93 1332.67 1134.68 1331.57C1134.44 1330.39 1133.84 1329.29 1132.87 1328.27C1131.45 1326.79 1129.84 1326.11 1128.03 1326.25C1126.17 1326.34 1124.22 1327.35 1122.18 1329.29L1113.9 1337.17L1123.1 1346.83ZM1188.46 1340.17L1142.15 1291.48L1176.09 1259.2L1185.69 1269.28L1163.22 1290.65L1190.35 1319.17L1213.51 1297.14L1223.1 1307.23L1188.46 1340.17ZM1175.04 1314.92L1165.91 1305.32L1191.16 1281.3L1200.29 1290.9L1175.04 1314.92ZM1233.3 1297.53L1186.98 1248.84L1220.93 1216.55L1230.52 1226.64L1208.05 1248.01L1235.18 1276.53L1258.34 1254.5L1267.94 1264.58L1233.3 1297.53ZM1219.87 1272.27L1210.74 1262.67L1235.99 1238.66L1245.12 1248.26L1219.87 1272.27ZM1278.13 1254.89L1231.82 1206.19L1253.73 1185.35C1256.83 1182.4 1260.28 1180.4 1264.06 1179.37C1267.89 1178.28 1271.65 1178.24 1275.34 1179.24C1278.98 1180.19 1282.21 1182.15 1285.04 1185.12C1287.95 1188.18 1289.85 1191.62 1290.75 1195.45C1291.61 1199.23 1291.45 1203 1290.27 1206.77C1289.09 1210.55 1286.92 1213.93 1283.76 1216.93L1273.12 1227.06L1289.4 1244.17L1278.13 1254.89ZM1305.12 1229.22L1271.83 1219.01L1282.28 1205.76L1318.61 1216.38L1305.12 1229.22ZM1264.52 1218.01L1274.12 1208.88C1275.33 1207.74 1276.13 1206.49 1276.52 1205.14C1276.92 1203.7 1276.89 1202.28 1276.43 1200.86C1276.01 1199.4 1275.21 1198.05 1274.02 1196.79C1272.82 1195.54 1271.51 1194.72 1270.07 1194.32C1268.59 1193.87 1267.07 1193.9 1265.52 1194.41C1264.01 1194.87 1262.52 1195.8 1261.04 1197.22L1252.48 1205.35L1264.52 1218.01Z" fill="black"/>
<path d="M2432.92 1336.49C2136.18 1938.93 1862.87 2198.51 1207.66 2501.92C1616.68 3004.98 1812.23 3193.01 2267.81 3567.16C2841.22 3303.84 3101.93 3087.29 3413.2 2526.7C3053.87 2026.98 2879.01 1806.52 2432.92 1336.49Z" fill="#F65304" stroke="black" stroke-width="30" stroke-linecap="round" stroke-linejoin="round"/>
<path d="M2067.96 3172.77L1564.85 2643.83C2025.76 2365.49 2236.04 2162.08 2533.24 1722.72L3036.35 2251.66C2744.53 2729.99 2532.36 2931.49 2067.96 3172.77Z" fill="white" stroke="black" stroke-width="30" stroke-linecap="round" stroke-linejoin="round"/>
<path d="M2582.92 2521.48L2774.73 2064.4" stroke="black" stroke-width="100" stroke-linecap="round" stroke-linejoin="round"/>
<path d="M2246.7 3153.2L1605.05 2478.62C1667.48 2418.54 1812.84 2374.58 2051.42 2533.65C2149.51 2599.05 2221.2 2684.84 2256.15 2761.22C2332.23 2921.32 2293.04 3059.94 2246.7 3153.2Z" stroke="black" stroke-width="120" stroke-linecap="round"/>
<path d="M2276.26 2546.81L2411.34 2688.83C2437.37 2718.67 2451.74 2727.28 2477.11 2731.85C2521.9 2722.22 2539.25 2705.86 2556.08 2656.73C2554.4 2642.36 2545.12 2627.22 2513.51 2591.65L2378.42 2449.63" stroke="black" stroke-width="100" stroke-linecap="round" stroke-linejoin="round"/>
<path d="M2358.75 1999.23C2339.88 1983.15 2328.45 1975.93 2305.03 1969.59C2263.51 1968.37 2252.97 1980.36 2252.13 2019.91L2438.21 2215.54L2780.4 2575.29C2795.53 2598.27 2798.89 2611.29 2796.95 2634.77C2795.6 2660.47 2791.73 2659.75 2780.59 2680.69C2743.25 2703.1 2739.25 2707.59 2697.5 2694.17" stroke="black" stroke-width="100" stroke-linecap="round" stroke-linejoin="round"/>
<path d="M2476.49 1760.27C2457.61 1744.19 2446.19 1736.97 2422.76 1730.63C2381.25 1729.41 2370.71 1741.4 2369.87 1780.95L2555.95 1976.58L2898.14 2336.33C2913.26 2359.31 2916.63 2372.33 2914.69 2395.81C2913.34 2421.51 2909.46 2420.79 2898.33 2441.73C2860.99 2464.14 2856.99 2468.63 2815.24 2455.21" stroke="black" stroke-width="100" stroke-linecap="round" stroke-linejoin="round"/>
</svg>
