<svg width="4289" height="4385" viewBox="0 0 4289 4385" fill="none" xmlns="http://www.w3.org/2000/svg">
<path d="M568.027 995.348C626.998 1043.05 660.937 1050.11 721.764 1056.13C879.572 1334.43 1014.96 1535.6 1195.64 1721.92C1265.67 1794.14 1316.42 1851.81 1408.62 1930.61C1427.92 1950.89 1438.19 1957.44 1444.09 1983.13C1450.84 2073.33 1439.05 2168.92 1427.68 2271.31C1424.87 2497.27 1478.52 2620.53 1603.98 2829.56C2046.78 3370.97 2312.84 3630.27 2817.75 4017.12C2989.68 4105.62 3084.92 4115.08 3252.92 4066.91C3420.02 3982.42 3513.22 3920.04 3678.54 3778.01C3818.96 3624.96 3883.72 3533.72 3969.82 3359.49C4001.53 3238.06 3994.54 3165.75 3932.13 3028.22C3557.93 2480.02 3315.24 2179.28 2817.78 1655.71C2634.17 1520.96 2519.75 1475.62 2277.84 1453.69C2160.64 1464 2086.47 1469.41 2003.08 1452.12C1984.58 1447.31 1971.23 1438.94 1953.89 1425.07C1873.21 1330.39 1808.23 1245.5 1743.78 1172.25C1432.66 818.635 1286.54 698.87 1152.67 640.753C1123.43 544.552 1093.63 499.376 994.788 448.653C906.544 437.763 865.438 443.229 806.048 472.223C695.907 532.442 641.259 578.055 557.811 682.807C518.33 754.85 506.36 795.186 501.919 867.082C514.978 923.248 529.65 951.237 568.027 995.348Z" fill="#D9D9D9" stroke="black" stroke-width="30"/>
<path d="M654.717 1021.92L594.208 1009.09C502.658 942.365 485.175 889.682 515.723 767.694C536.904 703 561.183 663.461 633.459 585.32C716.62 506.859 762.581 477.944 843.231 456.177C960.461 426.619 1016.69 441.363 1098.15 529.753C1045.25 561.211 1051.98 587.821 1094.61 642.837C1022.2 624.207 1010.88 643.069 1023.97 710.033C951.557 695.205 937.808 720.01 936.655 793.082C859.073 785.225 837.178 807.258 834.128 890.603C764.029 873.525 744.01 889.768 748.266 972.272C682.597 954.021 661.233 963.753 654.717 1021.92Z" fill="#C3C3C3" stroke="black" stroke-width="30" stroke-linecap="round" stroke-linejoin="round"/>
<path d="M530.356 748.255C675.079 662.989 740.687 598.845 833.953 459.482" stroke="black" stroke-width="30" stroke-linecap="round" stroke-linejoin="round"/>
<path d="M1202.3 744.849C1013.58 846.16 927.594 923.778 819 1109.43C866.435 1234.44 914.581 1316.39 1050.42 1457.93C1239.02 1672.48 1332.72 1757 1468.06 1883.22C1494.2 1951.09 1503.08 1984.97 1511.88 2040.29C1499.99 2150.01 1505.26 2204.54 1513.09 2302.74C1540.67 2504.62 1580.22 2609.18 1673.9 2787.39C2102.97 3290.8 2352.43 3536.48 2816.02 3898.18C2935.99 3982.11 2999.49 4006.08 3106.73 4011.56C3075.26 3927.19 3086.27 3920.65 3172.7 4004.01L3233.78 3979.72C3191.77 3863.2 3208.73 3860.42 3300.65 3950.63L3379.52 3908.04C3341.64 3789.95 3365.42 3785.85 3464.28 3856.41L3535.38 3799.12C3475.64 3684.54 3498.21 3682.35 3601.03 3747.72L3662.62 3689.13C3606.06 3558.69 3635.95 3549.63 3743.96 3590.38L3779.17 3540.33C3727.68 3448.87 3732.73 3430 3822.91 3473.87L3868.71 3410.3C3811.24 3332.88 3824.68 3317.66 3902.01 3323.42C3912.03 3239.67 3908.88 3196.48 3886.07 3126.74C3871.37 3084.08 3854.97 3051.73 3807.46 2975.17C3472.59 2486.65 3248.76 2208.69 2786.02 1705.42C2569.49 1570.04 2453.35 1522.04 2259.44 1506.57C2132.68 1519.7 2053.81 1521.2 1895.42 1510.55C1802.33 1322.78 1723.68 1212 1528.64 1003.06C1404.71 885.968 1331.36 822.463 1202.3 744.849Z" fill="#FFB602" stroke="black" stroke-width="30" stroke-linecap="round" stroke-linejoin="round"/>
<path d="M889.348 1114.79C1036.09 1024.4 1104.36 963.205 1191.13 827.743" stroke="black" stroke-width="30" stroke-linecap="round" stroke-linejoin="round"/>
<circle cx="1106.44" cy="1102.9" r="33" transform="rotate(-43.5665 1106.44 1102.9)" fill="#FDE180"/>
<circle cx="1250.4" cy="946.643" r="52" transform="rotate(-43.5665 1250.4 946.643)" fill="#FDE180"/>
<circle cx="1323.91" cy="1174.83" r="52" transform="rotate(-43.5665 1323.91 1174.83)" fill="#FDE180"/>
<circle cx="1877.45" cy="2317.58" r="63.5" transform="rotate(-43.5665 1877.45 2317.58)" fill="#FDE180"/>
<circle cx="1927.66" cy="2176.66" r="27" transform="rotate(-43.5665 1927.66 2176.66)" fill="#FDE180"/>
<circle cx="3652.38" cy="3353.67" r="19.5" transform="rotate(-43.5665 3652.38 3353.67)" fill="#FDE180"/>
<circle cx="2376.13" cy="2062.69" r="46.5" transform="rotate(-43.5665 2376.13 2062.69)" fill="#FDE180"/>
<circle cx="3739.89" cy="3361.52" r="46.5" transform="rotate(-43.5665 3739.89 3361.52)" fill="#FDE180"/>
<circle cx="2006.55" cy="1935.31" r="35.5" transform="rotate(-43.5665 2006.55 1935.31)" fill="#FDE180"/>
<path d="M1249.9 1601.99C1215.5 1632.54 1192.7 1647.04 1146.38 1668.71C1255.82 1790.2 1314.38 1847.9 1414.19 1933.59C1443.72 1909.72 1458.61 1899.41 1480.36 1889.98C1554.55 1919.69 1596.61 1929.63 1672.26 1937.93C1754.61 1928.69 1786.28 1908.85 1847.87 1846.11C1892.41 1786.75 1913.31 1746.72 1916.74 1665.36C1912.84 1598.26 1905.83 1563.22 1884.31 1505.75C1925.19 1488.67 1942.42 1472.14 1963.29 1430.63C1878.26 1322.5 1829.04 1264.24 1738.28 1165.05L1628.15 1269.81C1564 1242.22 1525.65 1236.17 1454.25 1237.17C1393.85 1251.39 1360.39 1268.71 1301.55 1318.93C1260.95 1365.84 1248.69 1393.23 1237.61 1443.24C1231.72 1517.27 1235.93 1550.32 1249.9 1601.99Z" fill="#D8B37C" stroke="black" stroke-width="30" stroke-linecap="round" stroke-linejoin="round"/>
<circle cx="1556.89" cy="1559.79" r="214.5" transform="rotate(-43.5665 1556.89 1559.79)" fill="white" stroke="black" stroke-width="40"/>
<path d="M1452.99 1626.19L1406.67 1577.49L1427.05 1558.11C1430.62 1554.71 1434.47 1552.21 1438.58 1550.59C1442.65 1548.92 1446.79 1548.17 1451 1548.32C1455.25 1548.43 1459.37 1549.41 1463.35 1551.28C1467.33 1553.14 1471.02 1555.86 1474.42 1559.43C1477.81 1563 1480.36 1566.84 1482.07 1570.96C1483.74 1575.03 1484.51 1579.19 1484.41 1583.45C1484.3 1587.61 1483.34 1591.7 1481.52 1595.73C1479.66 1599.71 1476.94 1603.4 1473.37 1606.8L1452.99 1626.19ZM1457.14 1606.87L1453.29 1606.03L1463.09 1596.7C1465.04 1594.84 1466.47 1592.87 1467.39 1590.76C1468.25 1588.61 1468.65 1586.42 1468.57 1584.2C1468.53 1581.94 1468 1579.66 1466.97 1577.37C1465.94 1575.08 1464.44 1572.9 1462.45 1570.81C1460.47 1568.72 1458.36 1567.11 1456.12 1565.97C1453.89 1564.82 1451.64 1564.18 1449.38 1564.03C1447.17 1563.84 1444.99 1564.15 1442.84 1564.95C1440.65 1565.71 1438.58 1567.02 1436.63 1568.87L1426.61 1578.4L1426.3 1574.45L1457.14 1606.87ZM1527.63 1555.98C1523.6 1559.81 1519.23 1562.42 1514.54 1563.8C1509.8 1565.13 1505.15 1565.22 1500.61 1564.06C1496.11 1562.86 1492.1 1560.41 1488.57 1556.7L1460.06 1526.72L1472.02 1515.34L1499.94 1544.69C1501.62 1546.45 1503.53 1547.68 1505.69 1548.37C1507.8 1549.01 1509.93 1549.11 1512.06 1548.66C1514.16 1548.17 1516.04 1547.13 1517.71 1545.54C1519.47 1543.87 1520.65 1542 1521.25 1539.93C1521.84 1537.77 1521.9 1535.6 1521.41 1533.41C1520.88 1531.18 1519.77 1529.18 1518.1 1527.42L1490.18 1498.07L1501.72 1487.09L1530.24 1517.07C1533.77 1520.78 1535.99 1524.93 1536.92 1529.52C1537.89 1534.07 1537.6 1538.68 1536.03 1543.35C1534.42 1547.98 1531.62 1552.18 1527.63 1555.98ZM1559.91 1524.49L1513.59 1475.8L1525.42 1464.55L1571.73 1513.24L1559.91 1524.49ZM1547.67 1500.62L1538.27 1490.74L1563.45 1466.79L1572.85 1476.67L1547.67 1500.62ZM1529.01 1481L1519.09 1470.57L1547.12 1443.9L1557.04 1454.34L1529.01 1481ZM1602.91 1483.59L1556.59 1434.9L1568.42 1423.65L1614.73 1472.34L1602.91 1483.59ZM1590.67 1459.72L1581.27 1449.84L1606.45 1425.89L1615.85 1435.77L1590.67 1459.72ZM1572.01 1440.1L1562.09 1429.67L1590.12 1403.01L1600.04 1413.44L1572.01 1440.1ZM1535.69 1713.14L1489.38 1664.44L1510.87 1644C1514.21 1640.82 1517.5 1638.62 1520.74 1637.39C1523.95 1636.11 1526.99 1635.82 1529.87 1636.53C1532.75 1637.15 1535.38 1638.71 1537.76 1641.21C1540.41 1643.99 1541.94 1647 1542.36 1650.22C1542.82 1653.4 1542.06 1656.55 1540.08 1659.67L1538.69 1658.48C1541.31 1656.87 1543.96 1655.9 1546.64 1655.56C1549.36 1655.17 1551.98 1655.42 1554.5 1656.3C1556.96 1657.13 1559.21 1658.61 1561.24 1660.74C1563.58 1663.2 1565.21 1665.75 1566.14 1668.4C1567.03 1671 1567.28 1673.68 1566.89 1676.43C1566.51 1679.19 1565.53 1681.88 1563.97 1684.51C1562.46 1687.1 1560.43 1689.6 1557.88 1692.03L1535.69 1713.14ZM1537.42 1692.67L1548.07 1682.55C1549.36 1681.31 1550.26 1680.07 1550.74 1678.81C1551.27 1677.51 1551.42 1676.23 1551.18 1674.95C1550.89 1673.63 1550.2 1672.39 1549.1 1671.23C1548.08 1670.17 1546.94 1669.53 1545.68 1669.32C1544.47 1669.06 1543.19 1669.21 1541.87 1669.76C1540.5 1670.27 1539.14 1671.17 1537.79 1672.45L1527.5 1682.24L1537.42 1692.67ZM1519.1 1673.4L1527.79 1665.13C1529 1663.99 1529.84 1662.83 1530.32 1661.67C1530.81 1660.41 1530.93 1659.24 1530.68 1658.14C1530.44 1656.96 1529.83 1655.86 1528.86 1654.84C1527.45 1653.36 1525.84 1652.68 1524.03 1652.82C1522.17 1652.91 1520.22 1653.92 1518.18 1655.86L1509.9 1663.74L1519.1 1673.4ZM1584.46 1666.74L1538.15 1618.05L1572.09 1585.76L1581.69 1595.85L1559.22 1617.22L1586.35 1645.74L1609.51 1623.71L1619.1 1633.79L1584.46 1666.74ZM1571.04 1641.49L1561.91 1631.89L1587.16 1607.87L1596.29 1617.47L1571.04 1641.49ZM1629.3 1624.1L1582.98 1575.41L1616.93 1543.12L1626.52 1553.21L1604.05 1574.58L1631.18 1603.1L1654.34 1581.06L1663.94 1591.15L1629.3 1624.1ZM1615.87 1598.84L1606.74 1589.24L1631.99 1565.23L1641.12 1574.83L1615.87 1598.84ZM1674.13 1581.46L1627.81 1532.76L1649.73 1511.92C1652.83 1508.97 1656.28 1506.97 1660.06 1505.93C1663.89 1504.85 1667.65 1504.81 1671.34 1505.81C1674.98 1506.76 1678.21 1508.72 1681.04 1511.69C1683.95 1514.75 1685.85 1518.19 1686.75 1522.02C1687.61 1525.8 1687.45 1529.57 1686.26 1533.34C1685.08 1537.12 1682.92 1540.5 1679.76 1543.5L1669.12 1553.63L1685.4 1570.74L1674.13 1581.46ZM1701.12 1555.78L1667.83 1545.58L1678.28 1532.33L1714.61 1542.95L1701.12 1555.78ZM1660.52 1544.58L1670.12 1535.45C1671.32 1534.31 1672.13 1533.06 1672.52 1531.71C1672.92 1530.27 1672.89 1528.84 1672.42 1527.43C1672.01 1525.97 1671.21 1524.62 1670.01 1523.36C1668.82 1522.11 1667.51 1521.29 1666.07 1520.89C1664.59 1520.44 1663.07 1520.47 1661.52 1520.98C1660.01 1521.44 1658.52 1522.37 1657.03 1523.79L1648.48 1531.92L1660.52 1544.58Z" fill="black"/>
<path d="M2828.91 1663.06C2532.18 2265.5 2258.87 2525.08 1603.66 2828.49C2012.68 3331.55 2208.22 3519.58 2663.81 3893.73C3237.22 3630.41 3497.93 3413.86 3809.19 2853.27C3449.87 2353.54 3275.01 2133.09 2828.91 1663.06Z" fill="#F65304" stroke="black" stroke-width="30" stroke-linecap="round" stroke-linejoin="round"/>
<path d="M2463.96 3499.34L1960.84 2970.4C2421.76 2692.06 2632.04 2488.65 2929.24 2049.29L3432.35 2578.23C3140.53 3056.56 2928.36 3258.06 2463.96 3499.34Z" fill="white" stroke="black" stroke-width="30" stroke-linecap="round" stroke-linejoin="round"/>
<path d="M2978.92 2848.05L3170.73 2390.96" stroke="black" stroke-width="100" stroke-linecap="round" stroke-linejoin="round"/>
<path d="M2642.69 3479.77L2001.05 2805.19C2063.48 2745.11 2208.84 2701.14 2447.42 2860.21C2545.51 2925.62 2617.2 3011.41 2652.15 3087.79C2728.23 3247.89 2689.04 3386.51 2642.69 3479.77Z" stroke="black" stroke-width="120" stroke-linecap="round"/>
<path d="M2672.26 2873.38L2807.34 3015.4C2833.37 3045.24 2847.74 3053.85 2873.1 3058.42C2917.89 3048.79 2935.24 3032.43 2952.08 2983.3C2950.4 2968.93 2941.12 2953.79 2909.5 2918.22L2774.42 2776.2" stroke="black" stroke-width="100" stroke-linecap="round" stroke-linejoin="round"/>
<path d="M2754.75 2325.8C2735.87 2309.72 2724.45 2302.49 2701.02 2296.16C2659.51 2294.94 2648.97 2306.93 2648.13 2346.48L2834.21 2542.11L3176.4 2901.86C3191.52 2924.84 3194.89 2937.86 3192.95 2961.34C3191.6 2987.04 3187.72 2986.32 3176.59 3007.26C3139.25 3029.67 3135.25 3034.16 3093.5 3020.74" stroke="black" stroke-width="100" stroke-linecap="round" stroke-linejoin="round"/>
<path d="M2872.48 2086.84C2853.61 2070.76 2842.19 2063.53 2818.76 2057.2C2777.25 2055.98 2766.71 2067.97 2765.87 2107.52L2951.95 2303.15L3294.14 2662.9C3309.26 2685.88 3312.62 2698.9 3310.68 2722.38C3309.34 2748.08 3305.46 2747.36 3294.33 2768.3C3256.99 2790.71 3252.98 2795.2 3211.23 2781.78" stroke="black" stroke-width="100" stroke-linecap="round" stroke-linejoin="round"/>
</svg>
