<?xml version="1.0" encoding="UTF-8" standalone="no"?>
<!DOCTYPE svg PUBLIC "-//W3C//DTD SVG 1.1//EN" "http://www.w3.org/Graphics/SVG/1.1/DTD/svg11.dtd">
<svg xmlns="http://www.w3.org/2000/svg" version="1.1" viewBox="0.00 0.00 1080.00 1080.00">
<g stroke-width="2.00" fill="none" stroke-linecap="butt">
<path stroke="#808080" vector-effect="non-scaling-stroke" d="
  M 418.44 851.03
  L 404.66 962.93
  Q 404.59 963.50 404.01 963.46
  Q 397.79 962.97 391.54 962.99
  C 379.72 963.02 376.69 1016.44 376.17 1025.18
  C 375.82 1030.98 375.03 1034.97 382.25 1034.96
  Q 440.71 1034.83 508.42 1041.45
  Q 627.34 1053.09 743.80 1079.75
  C 749.06 1080.95 750.40 1077.91 751.01 1073.34
  C 770.29 928.40 791.75 783.75 810.47 638.75
  C 812.37 624.05 813.49 609.05 815.85 594.62
  Q 821.39 560.69 825.03 531.26
  Q 832.50 470.98 823.23 410.01
  Q 821.49 398.55 819.27 391.01
  C 803.70 338.02 769.45 290.60 719.72 265.32
  Q 719.24 265.08 719.06 264.57
  Q 710.02 239.98 688.72 224.95
  Q 688.25 224.62 688.28 224.04
  L 695.78 68.46
  Q 695.81 67.94 696.27 67.71
  Q 710.94 60.27 714.87 45.10
  C 719.33 27.85 712.38 8.35 695.14 1.95
  C 675.81 -5.22 657.26 9.43 653.88 28.32
  Q 650.03 49.77 666.29 64.15
  Q 666.72 64.54 666.56 65.10
  L 622.45 213.77
  Q 622.33 214.18 621.92 214.29
  Q 597.84 220.89 583.69 241.35
  Q 583.40 241.78 582.88 241.85
  Q 580.43 242.19 578.06 242.75
  C 475.29 266.90 407.13 353.99 404.01 459.56
  Q 403.99 460.10 403.45 460.09
  Q 380.51 459.66 357.58 459.32
  Q 340.47 459.06 337.58 459.21
  C 319.39 460.14 300.49 465.90 286.11 477.27
  C 264.53 494.34 256.31 521.92 253.96 548.00
  Q 251.51 575.09 251.71 603.45
  C 251.77 611.96 250.93 625.29 253.03 635.50
  C 256.72 653.41 266.84 663.16 281.26 675.37
  C 305.75 696.11 332.00 715.39 357.86 734.45
  A 0.96 0.95 20.3 0 1 358.24 735.27
  Q 355.73 772.65 352.99 810.04
  C 352.56 815.96 353.90 817.87 358.36 821.16
  Q 368.82 828.90 373.37 831.34
  Q 394.84 842.88 418.04 850.41
  Q 418.50 850.55 418.44 851.03"
/>
<path stroke="#526061" vector-effect="non-scaling-stroke" d="
  M 664.94 25.44
  C 661.26 35.87 663.15 49.36 672.31 56.57
  Q 672.69 56.87 673.14 56.69
  Q 683.39 52.56 692.74 58.16
  Q 693.17 58.42 693.60 58.15
  C 705.16 51.03 709.40 36.14 704.26 23.74
  C 696.22 4.36 671.72 6.22 664.94 25.44"
/>
<path stroke="#415454" vector-effect="non-scaling-stroke" d="
  M 676.52 66.13
  L 633.70 210.32
  Q 633.57 210.75 634.02 210.69
  C 650.10 208.37 663.97 212.20 678.34 219.02
  Q 678.76 219.22 678.78 218.76
  L 686.05 65.99
  Q 686.08 65.43 685.53 65.28
  Q 681.40 64.16 677.30 65.36
  A 1.14 1.14 0.0 0 0 676.52 66.13"
/>
<path stroke="#808080" vector-effect="non-scaling-stroke" d="
  M 640.61 221.95
  Q 620.32 221.50 603.86 234.10"
/>
<path stroke="#526061" vector-effect="non-scaling-stroke" d="
  M 603.86 234.10
  Q 599.62 236.90 596.25 241.06
  Q 595.85 241.57 596.49 241.58
  L 608.61 241.78"
/>
<path stroke="#808080" vector-effect="non-scaling-stroke" d="
  M 608.61 241.78
  Q 634.63 243.40 658.00 247.00
  Q 675.36 249.68 694.47 254.64"
/>
<path stroke="#526061" vector-effect="non-scaling-stroke" d="
  M 694.47 254.64
  L 705.22 258.82
  Q 705.90 259.09 705.57 258.44
  Q 700.14 247.78 691.34 239.83"
/>
<path stroke="#808080" vector-effect="non-scaling-stroke" d="
  M 691.34 239.83
  Q 672.65 222.41 647.48 221.94"
/>
<path stroke="#526061" vector-effect="non-scaling-stroke" d="
  M 647.48 221.94
  Q 643.75 220.17 640.61 221.95"
/>
<path stroke="#d1dfe0" vector-effect="non-scaling-stroke" d="
  M 647.48 221.94
  Q 672.30 224.60 689.98 239.98
  Q 690.39 240.34 690.87 240.08
  L 691.34 239.83"
/>
<path stroke="#d1dfe0" vector-effect="non-scaling-stroke" d="
  M 694.47 254.64
  Q 680.21 249.10 662.24 246.52
  Q 646.82 244.30 637.74 243.15
  Q 623.31 241.31 623.27 241.31
  Q 615.89 240.72 608.61 241.78"
/>
<path stroke="#d1dfe0" vector-effect="non-scaling-stroke" d="
  M 603.86 234.10
  L 604.07 234.42
  A 0.52 0.52 0.0 0 0 604.81 234.57
  Q 620.12 223.65 640.61 221.95"
/>
<path stroke="#526061" vector-effect="non-scaling-stroke" d="
  M 603.50 463.22
  C 610.56 463.23 617.58 462.94 624.34 464.78
  Q 637.36 468.32 649.44 474.37"
/>
<path stroke="#415454" vector-effect="non-scaling-stroke" d="
  M 649.44 474.37
  Q 676.76 487.34 698.17 508.22"
/>
<path stroke="#526061" vector-effect="non-scaling-stroke" d="
  M 698.17 508.22
  L 712.50 523.78"
/>
<path stroke="#415454" vector-effect="non-scaling-stroke" d="
  M 712.50 523.78
  Q 727.47 542.92 737.46 565.02
  Q 741.44 573.81 741.77 576.50
  Q 745.68 608.19 740.76 639.76"
/>
<path stroke="#526061" vector-effect="non-scaling-stroke" d="
  M 740.76 639.76
  Q 736.01 669.56 724.19 694.94
  Q 718.52 707.11 716.67 712.02"
/>
<path stroke="#415454" vector-effect="non-scaling-stroke" d="
  M 716.67 712.02
  Q 712.93 718.19 709.35 724.51
  Q 704.37 733.27 701.51 736.64
  C 682.82 758.65 655.00 755.16 629.76 751.70"
/>
<path stroke="#526061" vector-effect="non-scaling-stroke" d="
  M 629.76 751.70
  C 610.34 749.44 595.41 745.28 578.28 740.87"
/>
<path stroke="#415454" vector-effect="non-scaling-stroke" d="
  M 578.28 740.87
  Q 569.02 738.70 553.51 736.24
  C 491.08 726.38 430.08 727.80 368.27 736.68
  A 0.44 0.43 87.6 0 0 367.90 737.09
  Q 365.58 773.55 362.86 810.14
  C 362.17 819.36 411.15 837.80 419.23 840.54
  Q 419.63 840.68 419.67 840.26
  L 422.10 813.44
  Q 422.18 812.51 421.28 812.71
  Q 412.57 814.66 404.12 816.63
  C 396.99 818.29 394.63 809.12 402.51 807.05
  Q 418.40 802.87 432.06 801.50
  C 495.21 795.15 560.45 798.08 622.51 811.70
  C 652.24 818.23 674.35 833.83 692.25 858.21"
/>
<path stroke="#526061" vector-effect="non-scaling-stroke" d="
  M 692.25 858.21
  Q 698.86 870.15 702.73 882.53"
/>
<path stroke="#415454" vector-effect="non-scaling-stroke" d="
  M 702.73 882.53
  Q 710.76 911.77 704.87 941.13
  C 702.26 954.08 694.08 964.98 683.93 973.26"
/>
<path stroke="#808080" vector-effect="non-scaling-stroke" d="
  M 683.93 973.26
  Q 673.90 981.11 660.66 985.46"
/>
<path stroke="#415454" vector-effect="non-scaling-stroke" d="
  M 660.66 985.46
  Q 641.89 990.30 624.43 988.84
  C 617.29 988.25 607.37 986.43 599.16 985.66
  C 531.22 979.36 462.68 976.07 394.52 972.81
  Q 394.03 972.79 393.86 973.26
  Q 391.89 978.92 391.45 981.26
  Q 387.35 1002.89 386.00 1024.96
  Q 385.96 1025.57 386.57 1025.54
  C 390.20 1025.34 394.09 1025.21 397.36 1025.27
  C 512.27 1027.38 629.44 1043.79 741.24 1069.06
  Q 741.71 1069.16 741.78 1068.68
  C 756.46 957.97 772.27 847.44 787.58 736.82
  Q 795.78 677.55 803.01 618.16
  C 809.16 567.59 820.07 517.80 818.47 466.49
  C 817.86 447.27 816.40 429.21 813.31 410.32
  C 805.45 362.26 774.91 313.20 734.83 285.68"
/>
<path stroke="#526061" vector-effect="non-scaling-stroke" d="
  M 734.83 285.68
  Q 703.52 264.56 665.99 258.45"
/>
<path stroke="#415454" vector-effect="non-scaling-stroke" d="
  M 665.99 258.45
  Q 627.85 251.15 589.10 251.72
  C 582.60 251.81 577.94 252.56 572.00 254.27
  C 477.23 281.56 416.94 361.18 413.78 459.69
  Q 413.76 460.22 414.28 460.22
  L 603.50 463.22"
/>
<path stroke="#92b2b4" vector-effect="non-scaling-stroke" d="
  M 665.99 258.45
  Q 665.68 258.74 666.19 259.31
  A 1.23 1.19 -15.6 0 0 666.89 259.69
  Q 703.32 265.76 733.96 286.23
  Q 734.34 286.48 734.57 286.10
  L 734.83 285.68"
/>
<path stroke="#c0d3d3" vector-effect="non-scaling-stroke" d="
  M 660.66 985.46
  Q 673.29 983.17 683.61 974.60
  Q 685.25 973.25 683.93 973.26"
/>
<path stroke="#92b2b4" vector-effect="non-scaling-stroke" d="
  M 702.73 882.53
  Q 703.76 881.92 703.20 880.05
  Q 699.31 866.81 692.25 858.21"
/>
<path stroke="#92b2b4" vector-effect="non-scaling-stroke" d="
  M 578.28 740.87
  Q 578.06 740.95 577.92 741.05
  A 0.48 0.48 0.0 0 0 578.07 741.91
  C 594.94 746.59 611.60 750.47 629.02 752.58
  Q 629.47 752.63 629.76 751.70"
/>
<path stroke="#92b2b4" vector-effect="non-scaling-stroke" d="
  M 716.67 712.02
  Q 732.16 684.53 739.54 653.62
  C 740.42 649.94 740.76 645.17 741.88 640.96
  Q 742.03 640.38 741.82 640.06
  Q 741.50 639.58 740.76 639.76"
/>
<path stroke="#92b2b4" vector-effect="non-scaling-stroke" d="
  M 712.50 523.78
  L 713.07 523.54
  Q 713.78 523.23 713.26 522.65
  L 700.63 508.59
  Q 700.26 508.18 699.71 508.06
  Q 698.74 507.86 698.17 508.22"
/>
<path stroke="#92b2b4" vector-effect="non-scaling-stroke" d="
  M 649.44 474.37
  Q 649.66 474.24 649.74 473.99
  Q 649.91 473.49 649.44 473.25
  C 640.98 468.98 631.70 465.39 622.53 463.03
  C 616.08 461.37 609.42 462.29 603.01 462.22
  Q 602.54 462.21 602.29 462.60
  Q 602.06 462.98 602.50 462.98
  Q 603.17 462.99 603.50 463.22"
/>
<path stroke="#808080" vector-effect="non-scaling-stroke" d="
  M 338.97 469.20
  Q 322.63 469.87 308.07 475.81
  C 276.90 488.52 266.82 518.66 263.81 549.51
  C 261.36 574.60 261.60 599.76 261.52 624.93
  Q 261.49 632.79 265.91 642.96"
/>
<path stroke="#526061" vector-effect="non-scaling-stroke" d="
  M 265.91 642.96
  Q 271.13 654.52 283.32 664.44
  Q 325.80 698.99 364.04 726.70
  A 1.62 1.61 -26.2 0 0 364.96 727.01
  Q 366.99 727.04 368.99 726.75
  C 438.53 716.63 507.37 716.71 577.74 730.52"
/>
<path stroke="#808080" vector-effect="non-scaling-stroke" d="
  M 577.74 730.52
  L 607.79 737.90"
/>
<path stroke="#526061" vector-effect="non-scaling-stroke" d="
  M 607.79 737.90
  Q 631.23 743.15 656.01 744.42
  C 680.53 745.68 692.42 736.29 703.27 715.29
  Q 713.26 695.97 719.20 680.84
  Q 738.43 631.90 732.32 579.44
  Q 732.08 577.41 730.91 574.78"
/>
<path stroke="#808080" vector-effect="non-scaling-stroke" d="
  M 730.91 574.78
  C 711.12 525.18 671.27 489.05 619.98 473.73"
/>
<path stroke="#526061" vector-effect="non-scaling-stroke" d="
  M 619.98 473.73
  Q 618.00 473.21 613.25 473.13
  Q 534.28 471.81 455.32 470.49
  Q 431.53 470.10 407.75 470.06"
/>
<path stroke="#808080" vector-effect="non-scaling-stroke" d="
  M 407.75 470.06
  L 360.77 469.65"
/>
<path stroke="#526061" vector-effect="non-scaling-stroke" d="
  M 360.77 469.65
  Q 350.40 468.37 338.97 469.20"
/>
<path stroke="#d1dfe0" vector-effect="non-scaling-stroke" d="
  M 360.77 469.65
  Q 384.13 471.13 407.15 470.91
  A 0.63 0.63 0.0 0 0 407.74 470.46
  Q 407.81 470.24 407.75 470.06"
/>
<path stroke="#d1dfe0" vector-effect="non-scaling-stroke" d="
  M 619.98 473.73
  Q 620.26 474.69 620.68 474.82
  C 656.08 485.56 687.08 507.46 709.16 537.38
  Q 711.62 540.72 715.71 547.53
  Q 724.23 561.76 729.14 573.58
  Q 729.48 574.39 730.91 574.78"
/>
<path stroke="#d1dfe0" vector-effect="non-scaling-stroke" d="
  M 607.79 737.90
  Q 593.35 732.68 578.59 729.76
  Q 578.08 729.66 577.89 730.13
  L 577.74 730.52"
/>
<path stroke="#d1dfe0" vector-effect="non-scaling-stroke" d="
  M 265.91 642.96
  Q 264.35 635.46 263.36 628.58
  C 262.17 620.26 262.97 610.24 262.85 603.06
  Q 262.37 575.94 264.67 551.36
  C 265.91 538.16 268.19 527.25 272.29 515.27
  C 284.03 481.01 317.60 468.08 351.33 470.11
  Q 351.56 470.12 351.45 469.92
  L 351.21 469.47
  A 0.40 0.39 -13.6 0 0 350.86 469.26
  L 338.97 469.20"
/>
<path stroke="#7c7b56" vector-effect="non-scaling-stroke" d="
  M 462.39 851.10
  L 513.45 851.82
  Q 514.00 851.83 514.08 851.28
  L 520.21 809.04
  Q 520.28 808.60 519.83 808.58
  Q 493.68 807.44 467.51 808.66
  Q 467.01 808.69 466.95 809.18
  L 461.98 850.63
  Q 461.92 851.09 462.39 851.10"
/>
<path stroke="#7c7b56" vector-effect="non-scaling-stroke" d="
  M 432.38 811.38
  A 0.30 0.30 0.0 0 0 432.11 811.65
  L 428.40 851.49
  A 0.30 0.30 0.0 0 0 428.71 851.81
  L 451.73 851.40
  A 0.30 0.30 0.0 0 0 452.02 851.14
  L 457.03 809.63
  A 0.30 0.30 0.0 0 0 456.70 809.29
  L 432.38 811.38"
/>
<path stroke="#7c7b56" vector-effect="non-scaling-stroke" d="
  M 528.94 852.31
  Q 553.14 853.16 580.16 856.91
  Q 580.65 856.98 580.71 856.49
  L 585.29 815.30
  Q 585.35 814.74 584.79 814.66
  Q 558.07 810.80 531.13 809.16
  Q 530.13 809.10 529.98 810.09
  L 523.88 851.62
  Q 523.78 852.29 524.47 852.26
  Q 525.79 852.20 528.94 852.31"
/>
<path stroke="#7c7b56" vector-effect="non-scaling-stroke" d="
  M 591.02 858.75
  Q 617.60 863.35 643.07 872.18
  Q 643.61 872.37 643.69 871.80
  L 649.30 832.85
  Q 649.37 832.35 648.94 832.09
  C 632.91 822.45 614.33 819.55 595.49 816.37
  Q 595.00 816.29 594.94 816.78
  L 590.43 857.97
  A 0.72 0.71 -82.3 0 0 591.02 858.75"
/>
<path stroke="#7c7b56" vector-effect="non-scaling-stroke" d="
  M 653.65 875.98
  Q 675.03 884.14 695.30 894.77
  A 0.21 0.21 0.0 0 0 695.60 894.55
  Q 688.57 858.89 658.99 838.04
  A 0.43 0.42 -68.5 0 0 658.33 838.33
  L 653.18 875.18
  Q 653.10 875.77 653.65 875.98"
/>
<path stroke="#7c7b56" vector-effect="non-scaling-stroke" d="
  M 427.38 861.60
  A 0.36 0.36 0.0 0 0 427.03 861.92
  L 420.87 912.07
  A 0.36 0.36 0.0 0 0 421.25 912.47
  L 444.96 911.34
  A 0.36 0.36 0.0 0 0 445.30 911.02
  L 450.83 861.55
  A 0.36 0.36 0.0 0 0 450.47 861.15
  L 427.38 861.60"
/>
<path stroke="#7c7b56" vector-effect="non-scaling-stroke" d="
  M 455.21 910.52
  A 0.34 0.34 0.0 0 0 455.55 910.90
  L 507.91 910.47
  A 0.34 0.34 0.0 0 0 508.25 910.16
  L 512.84 861.88
  A 0.34 0.34 0.0 0 0 512.50 861.51
  L 461.06 860.87
  A 0.34 0.34 0.0 0 0 460.72 861.18
  L 455.21 910.52"
/>
<path stroke="#7c7b56" vector-effect="non-scaling-stroke" d="
  M 518.79 910.75
  C 536.89 910.60 555.67 911.91 574.77 914.13
  Q 575.20 914.18 575.24 913.75
  L 579.53 867.25
  Q 579.59 866.68 579.02 866.60
  Q 551.26 862.86 523.25 861.90
  Q 522.60 861.88 522.54 862.53
  L 518.08 909.98
  Q 518.01 910.76 518.79 910.75"
/>
<path stroke="#7c7b56" vector-effect="non-scaling-stroke" d="
  M 585.49 915.98
  C 602.81 917.76 621.33 923.18 637.75 929.03
  A 0.29 0.28 -76.6 0 0 638.13 928.79
  L 642.31 882.80
  A 0.59 0.59 0.0 0 0 641.92 882.19
  Q 616.47 873.37 589.99 868.47
  Q 589.32 868.34 589.26 869.02
  L 584.89 915.26
  Q 584.83 915.92 585.49 915.98"
/>
<path stroke="#7c7b56" vector-effect="non-scaling-stroke" d="
  M 648.12 932.80
  Q 669.19 940.93 688.96 951.86
  A 1.08 1.08 0.0 0 0 690.39 951.49
  C 697.61 940.20 698.25 921.29 697.24 907.39
  Q 697.20 906.87 696.73 906.61
  Q 675.26 895.07 652.61 886.06
  Q 651.86 885.76 651.79 886.56
  L 647.68 932.09
  A 0.69 0.69 0.0 0 0 648.12 932.80"
/>
<path stroke="#7c7b56" vector-effect="non-scaling-stroke" d="
  M 449.83 965.48
  A 0.34 0.34 0.0 0 0 450.15 965.85
  L 505.32 969.09
  A 0.34 0.34 0.0 0 0 505.68 968.76
  L 507.54 920.47
  A 0.34 0.34 0.0 0 0 507.19 920.11
  L 454.48 920.69
  A 0.34 0.34 0.0 0 0 454.14 920.99
  L 449.83 965.48"
/>
<path stroke="#7c7b56" vector-effect="non-scaling-stroke" d="
  M 515.68 969.74
  L 570.03 973.38
  A 0.43 0.43 0.0 0 0 570.49 972.98
  L 574.27 924.24
  Q 574.30 923.81 573.87 923.76
  Q 545.99 920.72 517.94 920.47
  Q 517.34 920.46 517.31 921.06
  L 515.40 969.42
  A 0.31 0.30 -87.1 0 0 515.68 969.74"
/>
<path stroke="#7c7b56" vector-effect="non-scaling-stroke" d="
  M 414.46 963.65
  A 0.31 0.31 0.0 0 0 414.75 964.00
  L 439.65 965.26
  A 0.31 0.31 0.0 0 0 439.98 964.99
  L 444.27 921.44
  A 0.31 0.31 0.0 0 0 443.95 921.10
  L 419.84 922.45
  A 0.31 0.31 0.0 0 0 419.55 922.72
  L 414.46 963.65"
/>
<path stroke="#7c7b56" vector-effect="non-scaling-stroke" d="
  M 580.64 974.23
  Q 592.08 975.18 602.68 976.21
  C 610.42 976.96 624.26 979.39 635.36 979.47
  Q 635.78 979.47 635.79 979.06
  L 637.37 939.71
  Q 637.38 939.27 636.97 939.12
  Q 611.41 930.05 584.66 925.50
  A 0.61 0.60 -82.6 0 0 583.96 926.05
  L 580.21 973.72
  Q 580.18 974.19 580.64 974.23"
/>
<path stroke="#7c7b56" vector-effect="non-scaling-stroke" d="
  M 683.32 959.87
  Q 665.90 950.65 647.69 943.12
  Q 647.10 942.87 647.07 943.51
  L 645.60 978.07
  Q 645.59 978.37 645.89 978.34
  Q 667.70 975.73 683.43 960.61
  Q 683.89 960.17 683.32 959.87"
/>
<path stroke="#526061" vector-effect="non-scaling-stroke" d="
  M 278.82 555.27
  L 278.52 565.99"
/>
<path stroke="#d1dfe0" vector-effect="non-scaling-stroke" d="
  M 278.52 565.99
  Q 277.78 565.78 277.34 566.10
  Q 277.01 566.34 277.01 567.03
  Q 276.90 578.54 277.30 590.03
  C 277.37 592.01 278.18 594.48 278.13 596.07
  C 277.95 601.79 278.77 607.50 279.02 612.04
  Q 279.72 624.48 285.75 636.53
  C 295.92 656.87 314.04 667.91 336.27 670.16
  Q 336.95 670.23 336.78 669.57
  Q 336.69 669.22 336.21 669.08"
/>
<path stroke="#526061" vector-effect="non-scaling-stroke" d="
  M 336.21 669.08
  Q 342.27 669.62 348.25 669.71
  C 407.23 670.56 466.25 673.03 525.19 675.30
  Q 525.54 675.60 526.26 675.52"
/>
<path stroke="#d1dfe0" vector-effect="non-scaling-stroke" d="
  M 526.26 675.52
  Q 526.11 675.67 526.06 675.87
  Q 525.94 676.33 526.41 676.39
  Q 534.12 677.41 541.95 676.27"
/>
<path stroke="#526061" vector-effect="non-scaling-stroke" d="
  M 541.95 676.27
  Q 560.50 676.28 579.07 677.85"
/>
<path stroke="#d1dfe0" vector-effect="non-scaling-stroke" d="
  M 579.07 677.85
  Q 594.71 679.59 607.00 678.77
  Q 631.23 677.16 648.07 660.90
  C 669.29 640.41 675.28 608.64 677.03 580.48
  C 677.97 565.32 677.98 552.36 675.19 538.28
  C 674.73 535.97 673.88 533.69 673.35 531.57
  Q 669.90 517.91 660.53 508.56"
/>
<path stroke="#526061" vector-effect="non-scaling-stroke" d="
  M 660.53 508.56
  Q 656.77 506.31 654.41 502.43"
/>
<path stroke="#d1dfe0" vector-effect="non-scaling-stroke" d="
  M 654.41 502.43
  Q 639.49 488.67 618.03 488.24
  Q 617.51 488.23 617.38 488.72
  L 617.29 489.03"
/>
<path stroke="#526061" vector-effect="non-scaling-stroke" d="
  M 617.29 489.03
  Q 557.68 486.74 481.06 484.69
  Q 441.97 483.64 408.00 484.06"
/>
<path stroke="#d1dfe0" vector-effect="non-scaling-stroke" d="
  M 408.00 484.06
  Q 407.80 483.63 407.53 483.39
  Q 407.18 483.08 406.72 483.08
  Q 383.28 482.76 374.56 483.36
  C 358.42 484.48 349.13 484.33 332.67 486.13
  C 330.02 486.42 325.30 488.03 323.11 488.87
  Q 302.52 496.81 290.32 516.01
  Q 278.35 534.85 278.82 555.27"
/>
<path stroke="#808080" vector-effect="non-scaling-stroke" d="
  M 408.00 484.06
  Q 364.70 484.47 341.05 486.31
  Q 313.20 488.47 296.49 509.23
  Q 281.10 528.35 278.82 555.27"
/>
<path stroke="#808080" vector-effect="non-scaling-stroke" d="
  M 617.29 489.03
  Q 637.55 490.17 654.41 502.43"
/>
<path stroke="#808080" vector-effect="non-scaling-stroke" d="
  M 660.53 508.56
  Q 669.53 520.79 672.94 534.02
  C 676.85 549.21 676.85 563.90 675.93 580.55
  Q 674.90 599.19 671.49 613.99
  C 663.61 648.18 641.80 677.59 603.49 677.68
  Q 586.50 677.73 579.07 677.85"
/>
<path stroke="#808080" vector-effect="non-scaling-stroke" d="
  M 541.95 676.27
  L 526.26 675.52"
/>
<path stroke="#808080" vector-effect="non-scaling-stroke" d="
  M 336.21 669.08
  C 311.35 666.31 290.96 651.73 283.23 627.87
  Q 280.91 620.69 279.92 608.21
  Q 278.24 587.16 278.52 565.99"
/>
<path stroke="#7c7b56" vector-effect="non-scaling-stroke" d="
  M 492.77 637.39
  C 543.41 626.18 594.29 628.02 643.90 643.09
  Q 644.39 643.24 644.67 642.81
  Q 662.63 614.65 661.41 580.91
  C 660.60 558.39 649.81 541.03 631.04 529.54
  C 609.18 516.16 580.17 510.25 554.93 516.86
  C 504.25 530.13 492.43 592.89 492.24 636.96
  Q 492.23 637.51 492.77 637.39"
/>
<path stroke="#7c7b56" vector-effect="non-scaling-stroke" d="
  M 341.34 636.38
  C 386.22 623.25 436.54 619.09 482.36 630.08
  A 0.32 0.32 0.0 0 0 482.75 629.77
  Q 483.33 592.93 496.70 558.69
  Q 496.96 558.04 497.25 555.85
  A 1.64 1.60 36.5 0 0 497.10 554.91
  C 486.98 534.14 465.74 520.28 443.67 516.33
  C 395.90 507.79 346.00 536.86 338.26 586.77
  Q 334.54 610.76 340.77 636.06
  Q 340.88 636.52 341.34 636.38"
/>
<path stroke="#7c7b56" vector-effect="non-scaling-stroke" d="
  M 576.75 561.72
  C 565.42 562.22 556.76 561.08 547.38 562.05
  C 543.32 562.48 540.32 574.76 539.87 578.02
  Q 538.42 588.41 539.07 600.17
  Q 539.13 601.25 540.21 601.25
  L 573.71 601.25
  Q 574.14 601.25 574.10 600.83
  C 573.02 588.17 575.53 572.94 577.23 562.25
  Q 577.32 561.70 576.75 561.72"
/>
<path stroke="#7c7b56" vector-effect="non-scaling-stroke" d="
  M 374.70 595.26
  L 405.26 595.12
  Q 405.85 595.12 405.82 594.54
  C 405.38 582.88 406.89 571.39 408.77 559.90
  Q 408.87 559.30 408.26 559.30
  L 381.51 559.08
  Q 380.09 559.07 379.35 560.29
  C 373.33 570.20 372.69 583.34 373.86 594.50
  Q 373.94 595.26 374.70 595.26"
/>
</g>
<path fill="#ffffff" d="
  M 0.00 0.00
  L 1080.00 0.00
  L 1080.00 1080.00
  L 0.00 1080.00
  L 0.00 0.00
  Z
  M 418.44 851.03
  L 404.66 962.93
  Q 404.59 963.50 404.01 963.46
  Q 397.79 962.97 391.54 962.99
  C 379.72 963.02 376.69 1016.44 376.17 1025.18
  C 375.82 1030.98 375.03 1034.97 382.25 1034.96
  Q 440.71 1034.83 508.42 1041.45
  Q 627.34 1053.09 743.80 1079.75
  C 749.06 1080.95 750.40 1077.91 751.01 1073.34
  C 770.29 928.40 791.75 783.75 810.47 638.75
  C 812.37 624.05 813.49 609.05 815.85 594.62
  Q 821.39 560.69 825.03 531.26
  Q 832.50 470.98 823.23 410.01
  Q 821.49 398.55 819.27 391.01
  C 803.70 338.02 769.45 290.60 719.72 265.32
  Q 719.24 265.08 719.06 264.57
  Q 710.02 239.98 688.72 224.95
  Q 688.25 224.62 688.28 224.04
  L 695.78 68.46
  Q 695.81 67.94 696.27 67.71
  Q 710.94 60.27 714.87 45.10
  C 719.33 27.85 712.38 8.35 695.14 1.95
  C 675.81 -5.22 657.26 9.43 653.88 28.32
  Q 650.03 49.77 666.29 64.15
  Q 666.72 64.54 666.56 65.10
  L 622.45 213.77
  Q 622.33 214.18 621.92 214.29
  Q 597.84 220.89 583.69 241.35
  Q 583.40 241.78 582.88 241.85
  Q 580.43 242.19 578.06 242.75
  C 475.29 266.90 407.13 353.99 404.01 459.56
  Q 403.99 460.10 403.45 460.09
  Q 380.51 459.66 357.58 459.32
  Q 340.47 459.06 337.58 459.21
  C 319.39 460.14 300.49 465.90 286.11 477.27
  C 264.53 494.34 256.31 521.92 253.96 548.00
  Q 251.51 575.09 251.71 603.45
  C 251.77 611.96 250.93 625.29 253.03 635.50
  C 256.72 653.41 266.84 663.16 281.26 675.37
  C 305.75 696.11 332.00 715.39 357.86 734.45
  A 0.96 0.95 20.3 0 1 358.24 735.27
  Q 355.73 772.65 352.99 810.04
  C 352.56 815.96 353.90 817.87 358.36 821.16
  Q 368.82 828.90 373.37 831.34
  Q 394.84 842.88 418.04 850.41
  Q 418.50 850.55 418.44 851.03
  Z"
/>
<path fill="#010101" d="
  M 418.04 850.41
  Q 394.84 842.88 373.37 831.34
  Q 368.82 828.90 358.36 821.16
  C 353.90 817.87 352.56 815.96 352.99 810.04
  Q 355.73 772.65 358.24 735.27
  A 0.96 0.95 20.3 0 0 357.86 734.45
  C 332.00 715.39 305.75 696.11 281.26 675.37
  C 266.84 663.16 256.72 653.41 253.03 635.50
  C 250.93 625.29 251.77 611.96 251.71 603.45
  Q 251.51 575.09 253.96 548.00
  C 256.31 521.92 264.53 494.34 286.11 477.27
  C 300.49 465.90 319.39 460.14 337.58 459.21
  Q 340.47 459.06 357.58 459.32
  Q 380.51 459.66 403.45 460.09
  Q 403.99 460.10 404.01 459.56
  C 407.13 353.99 475.29 266.90 578.06 242.75
  Q 580.43 242.19 582.88 241.85
  Q 583.40 241.78 583.69 241.35
  Q 597.84 220.89 621.92 214.29
  Q 622.33 214.18 622.45 213.77
  L 666.56 65.10
  Q 666.72 64.54 666.29 64.15
  Q 650.03 49.77 653.88 28.32
  C 657.26 9.43 675.81 -5.22 695.14 1.95
  C 712.38 8.35 719.33 27.85 714.87 45.10
  Q 710.94 60.27 696.27 67.71
  Q 695.81 67.94 695.78 68.46
  L 688.28 224.04
  Q 688.25 224.62 688.72 224.95
  Q 710.02 239.98 719.06 264.57
  Q 719.24 265.08 719.72 265.32
  C 769.45 290.60 803.70 338.02 819.27 391.01
  Q 821.49 398.55 823.23 410.01
  Q 832.50 470.98 825.03 531.26
  Q 821.39 560.69 815.85 594.62
  C 813.49 609.05 812.37 624.05 810.47 638.75
  C 791.75 783.75 770.29 928.40 751.01 1073.34
  C 750.40 1077.91 749.06 1080.95 743.80 1079.75
  Q 627.34 1053.09 508.42 1041.45
  Q 440.71 1034.83 382.25 1034.96
  C 375.03 1034.97 375.82 1030.98 376.17 1025.18
  C 376.69 1016.44 379.72 963.02 391.54 962.99
  Q 397.79 962.97 404.01 963.46
  Q 404.59 963.50 404.66 962.93
  L 418.44 851.03
  Q 418.50 850.55 418.04 850.41
  Z
  M 664.94 25.44
  C 661.26 35.87 663.15 49.36 672.31 56.57
  Q 672.69 56.87 673.14 56.69
  Q 683.39 52.56 692.74 58.16
  Q 693.17 58.42 693.60 58.15
  C 705.16 51.03 709.40 36.14 704.26 23.74
  C 696.22 4.36 671.72 6.22 664.94 25.44
  Z
  M 676.52 66.13
  L 633.70 210.32
  Q 633.57 210.75 634.02 210.69
  C 650.10 208.37 663.97 212.20 678.34 219.02
  Q 678.76 219.22 678.78 218.76
  L 686.05 65.99
  Q 686.08 65.43 685.53 65.28
  Q 681.40 64.16 677.30 65.36
  A 1.14 1.14 0.0 0 0 676.52 66.13
  Z
  M 640.61 221.95
  Q 620.32 221.50 603.86 234.10
  Q 599.62 236.90 596.25 241.06
  Q 595.85 241.57 596.49 241.58
  L 608.61 241.78
  Q 634.63 243.40 658.00 247.00
  Q 675.36 249.68 694.47 254.64
  L 705.22 258.82
  Q 705.90 259.09 705.57 258.44
  Q 700.14 247.78 691.34 239.83
  Q 672.65 222.41 647.48 221.94
  Q 643.75 220.17 640.61 221.95
  Z
  M 603.50 463.22
  C 610.56 463.23 617.58 462.94 624.34 464.78
  Q 637.36 468.32 649.44 474.37
  Q 676.76 487.34 698.17 508.22
  L 712.50 523.78
  Q 727.47 542.92 737.46 565.02
  Q 741.44 573.81 741.77 576.50
  Q 745.68 608.19 740.76 639.76
  Q 736.01 669.56 724.19 694.94
  Q 718.52 707.11 716.67 712.02
  Q 712.93 718.19 709.35 724.51
  Q 704.37 733.27 701.51 736.64
  C 682.82 758.65 655.00 755.16 629.76 751.70
  C 610.34 749.44 595.41 745.28 578.28 740.87
  Q 569.02 738.70 553.51 736.24
  C 491.08 726.38 430.08 727.80 368.27 736.68
  A 0.44 0.43 87.6 0 0 367.90 737.09
  Q 365.58 773.55 362.86 810.14
  C 362.17 819.36 411.15 837.80 419.23 840.54
  Q 419.63 840.68 419.67 840.26
  L 422.10 813.44
  Q 422.18 812.51 421.28 812.71
  Q 412.57 814.66 404.12 816.63
  C 396.99 818.29 394.63 809.12 402.51 807.05
  Q 418.40 802.87 432.06 801.50
  C 495.21 795.15 560.45 798.08 622.51 811.70
  C 652.24 818.23 674.35 833.83 692.25 858.21
  Q 698.86 870.15 702.73 882.53
  Q 710.76 911.77 704.87 941.13
  C 702.26 954.08 694.08 964.98 683.93 973.26
  Q 673.90 981.11 660.66 985.46
  Q 641.89 990.30 624.43 988.84
  C 617.29 988.25 607.37 986.43 599.16 985.66
  C 531.22 979.36 462.68 976.07 394.52 972.81
  Q 394.03 972.79 393.86 973.26
  Q 391.89 978.92 391.45 981.26
  Q 387.35 1002.89 386.00 1024.96
  Q 385.96 1025.57 386.57 1025.54
  C 390.20 1025.34 394.09 1025.21 397.36 1025.27
  C 512.27 1027.38 629.44 1043.79 741.24 1069.06
  Q 741.71 1069.16 741.78 1068.68
  C 756.46 957.97 772.27 847.44 787.58 736.82
  Q 795.78 677.55 803.01 618.16
  C 809.16 567.59 820.07 517.80 818.47 466.49
  C 817.86 447.27 816.40 429.21 813.31 410.32
  C 805.45 362.26 774.91 313.20 734.83 285.68
  Q 703.52 264.56 665.99 258.45
  Q 627.85 251.15 589.10 251.72
  C 582.60 251.81 577.94 252.56 572.00 254.27
  C 477.23 281.56 416.94 361.18 413.78 459.69
  Q 413.76 460.22 414.28 460.22
  L 603.50 463.22
  Z
  M 338.97 469.20
  Q 322.63 469.87 308.07 475.81
  C 276.90 488.52 266.82 518.66 263.81 549.51
  C 261.36 574.60 261.60 599.76 261.52 624.93
  Q 261.49 632.79 265.91 642.96
  Q 271.13 654.52 283.32 664.44
  Q 325.80 698.99 364.04 726.70
  A 1.62 1.61 -26.2 0 0 364.96 727.01
  Q 366.99 727.04 368.99 726.75
  C 438.53 716.63 507.37 716.71 577.74 730.52
  L 607.79 737.90
  Q 631.23 743.15 656.01 744.42
  C 680.53 745.68 692.42 736.29 703.27 715.29
  Q 713.26 695.97 719.20 680.84
  Q 738.43 631.90 732.32 579.44
  Q 732.08 577.41 730.91 574.78
  C 711.12 525.18 671.27 489.05 619.98 473.73
  Q 618.00 473.21 613.25 473.13
  Q 534.28 471.81 455.32 470.49
  Q 431.53 470.10 407.75 470.06
  L 360.77 469.65
  Q 350.40 468.37 338.97 469.20
  Z
  M 462.39 851.10
  L 513.45 851.82
  Q 514.00 851.83 514.08 851.28
  L 520.21 809.04
  Q 520.28 808.60 519.83 808.58
  Q 493.68 807.44 467.51 808.66
  Q 467.01 808.69 466.95 809.18
  L 461.98 850.63
  Q 461.92 851.09 462.39 851.10
  Z
  M 432.38 811.38
  A 0.30 0.30 0.0 0 0 432.11 811.65
  L 428.40 851.49
  A 0.30 0.30 0.0 0 0 428.71 851.81
  L 451.73 851.40
  A 0.30 0.30 0.0 0 0 452.02 851.14
  L 457.03 809.63
  A 0.30 0.30 0.0 0 0 456.70 809.29
  L 432.38 811.38
  Z
  M 528.94 852.31
  Q 553.14 853.16 580.16 856.91
  Q 580.65 856.98 580.71 856.49
  L 585.29 815.30
  Q 585.35 814.74 584.79 814.66
  Q 558.07 810.80 531.13 809.16
  Q 530.13 809.10 529.98 810.09
  L 523.88 851.62
  Q 523.78 852.29 524.47 852.26
  Q 525.79 852.20 528.94 852.31
  Z
  M 591.02 858.75
  Q 617.60 863.35 643.07 872.18
  Q 643.61 872.37 643.69 871.80
  L 649.30 832.85
  Q 649.37 832.35 648.94 832.09
  C 632.91 822.45 614.33 819.55 595.49 816.37
  Q 595.00 816.29 594.94 816.78
  L 590.43 857.97
  A 0.72 0.71 -82.3 0 0 591.02 858.75
  Z
  M 653.65 875.98
  Q 675.03 884.14 695.30 894.77
  A 0.21 0.21 0.0 0 0 695.60 894.55
  Q 688.57 858.89 658.99 838.04
  A 0.43 0.42 -68.5 0 0 658.33 838.33
  L 653.18 875.18
  Q 653.10 875.77 653.65 875.98
  Z
  M 427.38 861.60
  A 0.36 0.36 0.0 0 0 427.03 861.92
  L 420.87 912.07
  A 0.36 0.36 0.0 0 0 421.25 912.47
  L 444.96 911.34
  A 0.36 0.36 0.0 0 0 445.30 911.02
  L 450.83 861.55
  A 0.36 0.36 0.0 0 0 450.47 861.15
  L 427.38 861.60
  Z
  M 455.21 910.52
  A 0.34 0.34 0.0 0 0 455.55 910.90
  L 507.91 910.47
  A 0.34 0.34 0.0 0 0 508.25 910.16
  L 512.84 861.88
  A 0.34 0.34 0.0 0 0 512.50 861.51
  L 461.06 860.87
  A 0.34 0.34 0.0 0 0 460.72 861.18
  L 455.21 910.52
  Z
  M 518.79 910.75
  C 536.89 910.60 555.67 911.91 574.77 914.13
  Q 575.20 914.18 575.24 913.75
  L 579.53 867.25
  Q 579.59 866.68 579.02 866.60
  Q 551.26 862.86 523.25 861.90
  Q 522.60 861.88 522.54 862.53
  L 518.08 909.98
  Q 518.01 910.76 518.79 910.75
  Z
  M 585.49 915.98
  C 602.81 917.76 621.33 923.18 637.75 929.03
  A 0.29 0.28 -76.6 0 0 638.13 928.79
  L 642.31 882.80
  A 0.59 0.59 0.0 0 0 641.92 882.19
  Q 616.47 873.37 589.99 868.47
  Q 589.32 868.34 589.26 869.02
  L 584.89 915.26
  Q 584.83 915.92 585.49 915.98
  Z
  M 648.12 932.80
  Q 669.19 940.93 688.96 951.86
  A 1.08 1.08 0.0 0 0 690.39 951.49
  C 697.61 940.20 698.25 921.29 697.24 907.39
  Q 697.20 906.87 696.73 906.61
  Q 675.26 895.07 652.61 886.06
  Q 651.86 885.76 651.79 886.56
  L 647.68 932.09
  A 0.69 0.69 0.0 0 0 648.12 932.80
  Z
  M 449.83 965.48
  A 0.34 0.34 0.0 0 0 450.15 965.85
  L 505.32 969.09
  A 0.34 0.34 0.0 0 0 505.68 968.76
  L 507.54 920.47
  A 0.34 0.34 0.0 0 0 507.19 920.11
  L 454.48 920.69
  A 0.34 0.34 0.0 0 0 454.14 920.99
  L 449.83 965.48
  Z
  M 515.68 969.74
  L 570.03 973.38
  A 0.43 0.43 0.0 0 0 570.49 972.98
  L 574.27 924.24
  Q 574.30 923.81 573.87 923.76
  Q 545.99 920.72 517.94 920.47
  Q 517.34 920.46 517.31 921.06
  L 515.40 969.42
  A 0.31 0.30 -87.1 0 0 515.68 969.74
  Z
  M 414.46 963.65
  A 0.31 0.31 0.0 0 0 414.75 964.00
  L 439.65 965.26
  A 0.31 0.31 0.0 0 0 439.98 964.99
  L 444.27 921.44
  A 0.31 0.31 0.0 0 0 443.95 921.10
  L 419.84 922.45
  A 0.31 0.31 0.0 0 0 419.55 922.72
  L 414.46 963.65
  Z
  M 580.64 974.23
  Q 592.08 975.18 602.68 976.21
  C 610.42 976.96 624.26 979.39 635.36 979.47
  Q 635.78 979.47 635.79 979.06
  L 637.37 939.71
  Q 637.38 939.27 636.97 939.12
  Q 611.41 930.05 584.66 925.50
  A 0.61 0.60 -82.6 0 0 583.96 926.05
  L 580.21 973.72
  Q 580.18 974.19 580.64 974.23
  Z
  M 683.32 959.87
  Q 665.90 950.65 647.69 943.12
  Q 647.10 942.87 647.07 943.51
  L 645.60 978.07
  Q 645.59 978.37 645.89 978.34
  Q 667.70 975.73 683.43 960.61
  Q 683.89 960.17 683.32 959.87
  Z"
/>
<path fill="#a3bec1" d="
  M 664.94 25.44
  C 671.72 6.22 696.22 4.36 704.26 23.74
  C 709.40 36.14 705.16 51.03 693.60 58.15
  Q 693.17 58.42 692.74 58.16
  Q 683.39 52.56 673.14 56.69
  Q 672.69 56.87 672.31 56.57
  C 663.15 49.36 661.26 35.87 664.94 25.44
  Z"
/>
<path fill="#81a6a7" d="
  M 677.30 65.36
  Q 681.40 64.16 685.53 65.28
  Q 686.08 65.43 686.05 65.99
  L 678.78 218.76
  Q 678.76 219.22 678.34 219.02
  C 663.97 212.20 650.10 208.37 634.02 210.69
  Q 633.57 210.75 633.70 210.32
  L 676.52 66.13
  A 1.14 1.14 0.0 0 1 677.30 65.36
  Z"
/>
<path fill="#a3bec1" d="
  M 647.48 221.94
  Q 672.30 224.60 689.98 239.98
  Q 690.39 240.34 690.87 240.08
  L 691.34 239.83
  Q 700.14 247.78 705.57 258.44
  Q 705.90 259.09 705.22 258.82
  L 694.47 254.64
  Q 680.21 249.10 662.24 246.52
  Q 646.82 244.30 637.74 243.15
  Q 623.31 241.31 623.27 241.31
  Q 615.89 240.72 608.61 241.78
  L 596.49 241.58
  Q 595.85 241.57 596.25 241.06
  Q 599.62 236.90 603.86 234.10
  L 604.07 234.42
  A 0.52 0.52 0.0 0 0 604.81 234.57
  Q 620.12 223.65 640.61 221.95
  Q 643.75 220.17 647.48 221.94
  Z"
/>
<path fill="#ffffff" d="
  M 640.61 221.95
  Q 620.12 223.65 604.81 234.57
  A 0.52 0.52 0.0 0 1 604.07 234.42
  L 603.86 234.10
  Q 620.32 221.50 640.61 221.95
  Z"
/>
<path fill="#ffffff" d="
  M 647.48 221.94
  Q 672.65 222.41 691.34 239.83
  L 690.87 240.08
  Q 690.39 240.34 689.98 239.98
  Q 672.30 224.60 647.48 221.94
  Z"
/>
<path fill="#ffffff" d="
  M 694.47 254.64
  Q 675.36 249.68 658.00 247.00
  Q 634.63 243.40 608.61 241.78
  Q 615.89 240.72 623.27 241.31
  Q 623.31 241.31 637.74 243.15
  Q 646.82 244.30 662.24 246.52
  Q 680.21 249.10 694.47 254.64
  Z"
/>
<path fill="#81a6a7" d="
  M 665.99 258.45
  Q 665.68 258.74 666.19 259.31
  A 1.23 1.19 -15.6 0 0 666.89 259.69
  Q 703.32 265.76 733.96 286.23
  Q 734.34 286.48 734.57 286.10
  L 734.83 285.68
  C 774.91 313.20 805.45 362.26 813.31 410.32
  C 816.40 429.21 817.86 447.27 818.47 466.49
  C 820.07 517.80 809.16 567.59 803.01 618.16
  Q 795.78 677.55 787.58 736.82
  C 772.27 847.44 756.46 957.97 741.78 1068.68
  Q 741.71 1069.16 741.24 1069.06
  C 629.44 1043.79 512.27 1027.38 397.36 1025.27
  C 394.09 1025.21 390.20 1025.34 386.57 1025.54
  Q 385.96 1025.57 386.00 1024.96
  Q 387.35 1002.89 391.45 981.26
  Q 391.89 978.92 393.86 973.26
  Q 394.03 972.79 394.52 972.81
  C 462.68 976.07 531.22 979.36 599.16 985.66
  C 607.37 986.43 617.29 988.25 624.43 988.84
  Q 641.89 990.30 660.66 985.46
  Q 673.29 983.17 683.61 974.60
  Q 685.25 973.25 683.93 973.26
  C 694.08 964.98 702.26 954.08 704.87 941.13
  Q 710.76 911.77 702.73 882.53
  Q 703.76 881.92 703.20 880.05
  Q 699.31 866.81 692.25 858.21
  C 674.35 833.83 652.24 818.23 622.51 811.70
  C 560.45 798.08 495.21 795.15 432.06 801.50
  Q 418.40 802.87 402.51 807.05
  C 394.63 809.12 396.99 818.29 404.12 816.63
  Q 412.57 814.66 421.28 812.71
  Q 422.18 812.51 422.10 813.44
  L 419.67 840.26
  Q 419.63 840.68 419.23 840.54
  C 411.15 837.80 362.17 819.36 362.86 810.14
  Q 365.58 773.55 367.90 737.09
  A 0.44 0.43 87.6 0 1 368.27 736.68
  C 430.08 727.80 491.08 726.38 553.51 736.24
  Q 569.02 738.70 578.28 740.87
  Q 578.06 740.95 577.92 741.05
  A 0.48 0.48 0.0 0 0 578.07 741.91
  C 594.94 746.59 611.60 750.47 629.02 752.58
  Q 629.47 752.63 629.76 751.70
  C 655.00 755.16 682.82 758.65 701.51 736.64
  Q 704.37 733.27 709.35 724.51
  Q 712.93 718.19 716.67 712.02
  Q 732.16 684.53 739.54 653.62
  C 740.42 649.94 740.76 645.17 741.88 640.96
  Q 742.03 640.38 741.82 640.06
  Q 741.50 639.58 740.76 639.76
  Q 745.68 608.19 741.77 576.50
  Q 741.44 573.81 737.46 565.02
  Q 727.47 542.92 712.50 523.78
  L 713.07 523.54
  Q 713.78 523.23 713.26 522.65
  L 700.63 508.59
  Q 700.26 508.18 699.71 508.06
  Q 698.74 507.86 698.17 508.22
  Q 676.76 487.34 649.44 474.37
  Q 649.66 474.24 649.74 473.99
  Q 649.91 473.49 649.44 473.25
  C 640.98 468.98 631.70 465.39 622.53 463.03
  C 616.08 461.37 609.42 462.29 603.01 462.22
  Q 602.54 462.21 602.29 462.60
  Q 602.06 462.98 602.50 462.98
  Q 603.17 462.99 603.50 463.22
  L 414.28 460.22
  Q 413.76 460.22 413.78 459.69
  C 416.94 361.18 477.23 281.56 572.00 254.27
  C 577.94 252.56 582.60 251.81 589.10 251.72
  Q 627.85 251.15 665.99 258.45
  Z"
/>
<path fill="#a3bec1" d="
  M 665.99 258.45
  Q 703.52 264.56 734.83 285.68
  L 734.57 286.10
  Q 734.34 286.48 733.96 286.23
  Q 703.32 265.76 666.89 259.69
  A 1.23 1.19 -15.6 0 1 666.19 259.31
  Q 665.68 258.74 665.99 258.45
  Z"
/>
<path fill="#a3bec1" d="
  M 649.44 474.37
  Q 637.36 468.32 624.34 464.78
  C 617.58 462.94 610.56 463.23 603.50 463.22
  Q 603.17 462.99 602.50 462.98
  Q 602.06 462.98 602.29 462.60
  Q 602.54 462.21 603.01 462.22
  C 609.42 462.29 616.08 461.37 622.53 463.03
  C 631.70 465.39 640.98 468.98 649.44 473.25
  Q 649.91 473.49 649.74 473.99
  Q 649.66 474.24 649.44 474.37
  Z"
/>
<path fill="#a3bec1" d="
  M 360.77 469.65
  Q 384.13 471.13 407.15 470.91
  A 0.63 0.63 0.0 0 0 407.74 470.46
  Q 407.81 470.24 407.75 470.06
  Q 431.53 470.10 455.32 470.49
  Q 534.28 471.81 613.25 473.13
  Q 618.00 473.21 619.98 473.73
  Q 620.26 474.69 620.68 474.82
  C 656.08 485.56 687.08 507.46 709.16 537.38
  Q 711.62 540.72 715.71 547.53
  Q 724.23 561.76 729.14 573.58
  Q 729.48 574.39 730.91 574.78
  Q 732.08 577.41 732.32 579.44
  Q 738.43 631.90 719.20 680.84
  Q 713.26 695.97 703.27 715.29
  C 692.42 736.29 680.53 745.68 656.01 744.42
  Q 631.23 743.15 607.79 737.90
  Q 593.35 732.68 578.59 729.76
  Q 578.08 729.66 577.89 730.13
  L 577.74 730.52
  C 507.37 716.71 438.53 716.63 368.99 726.75
  Q 366.99 727.04 364.96 727.01
  A 1.62 1.61 -26.2 0 1 364.04 726.70
  Q 325.80 698.99 283.32 664.44
  Q 271.13 654.52 265.91 642.96
  Q 264.35 635.46 263.36 628.58
  C 262.17 620.26 262.97 610.24 262.85 603.06
  Q 262.37 575.94 264.67 551.36
  C 265.91 538.16 268.19 527.25 272.29 515.27
  C 284.03 481.01 317.60 468.08 351.33 470.11
  Q 351.56 470.12 351.45 469.92
  L 351.21 469.47
  A 0.40 0.39 -13.6 0 0 350.86 469.26
  L 338.97 469.20
  Q 350.40 468.37 360.77 469.65
  Z
  M 278.82 555.27
  L 278.52 565.99
  Q 277.78 565.78 277.34 566.10
  Q 277.01 566.34 277.01 567.03
  Q 276.90 578.54 277.30 590.03
  C 277.37 592.01 278.18 594.48 278.13 596.07
  C 277.95 601.79 278.77 607.50 279.02 612.04
  Q 279.72 624.48 285.75 636.53
  C 295.92 656.87 314.04 667.91 336.27 670.16
  Q 336.95 670.23 336.78 669.57
  Q 336.69 669.22 336.21 669.08
  Q 342.27 669.62 348.25 669.71
  C 407.23 670.56 466.25 673.03 525.19 675.30
  Q 525.54 675.60 526.26 675.52
  Q 526.11 675.67 526.06 675.87
  Q 525.94 676.33 526.41 676.39
  Q 534.12 677.41 541.95 676.27
  Q 560.50 676.28 579.07 677.85
  Q 594.71 679.59 607.00 678.77
  Q 631.23 677.16 648.07 660.90
  C 669.29 640.41 675.28 608.64 677.03 580.48
  C 677.97 565.32 677.98 552.36 675.19 538.28
  C 674.73 535.97 673.88 533.69 673.35 531.57
  Q 669.90 517.91 660.53 508.56
  Q 656.77 506.31 654.41 502.43
  Q 639.49 488.67 618.03 488.24
  Q 617.51 488.23 617.38 488.72
  L 617.29 489.03
  Q 557.68 486.74 481.06 484.69
  Q 441.97 483.64 408.00 484.06
  Q 407.80 483.63 407.53 483.39
  Q 407.18 483.08 406.72 483.08
  Q 383.28 482.76 374.56 483.36
  C 358.42 484.48 349.13 484.33 332.67 486.13
  C 330.02 486.42 325.30 488.03 323.11 488.87
  Q 302.52 496.81 290.32 516.01
  Q 278.35 534.85 278.82 555.27
  Z"
/>
<path fill="#ffffff" d="
  M 338.97 469.20
  L 350.86 469.26
  A 0.40 0.39 -13.6 0 1 351.21 469.47
  L 351.45 469.92
  Q 351.56 470.12 351.33 470.11
  C 317.60 468.08 284.03 481.01 272.29 515.27
  C 268.19 527.25 265.91 538.16 264.67 551.36
  Q 262.37 575.94 262.85 603.06
  C 262.97 610.24 262.17 620.26 263.36 628.58
  Q 264.35 635.46 265.91 642.96
  Q 261.49 632.79 261.52 624.93
  C 261.60 599.76 261.36 574.60 263.81 549.51
  C 266.82 518.66 276.90 488.52 308.07 475.81
  Q 322.63 469.87 338.97 469.20
  Z"
/>
<path fill="#ffffff" d="
  M 360.77 469.65
  L 407.75 470.06
  Q 407.81 470.24 407.74 470.46
  A 0.63 0.63 0.0 0 1 407.15 470.91
  Q 384.13 471.13 360.77 469.65
  Z"
/>
<path fill="#ffffff" d="
  M 619.98 473.73
  C 671.27 489.05 711.12 525.18 730.91 574.78
  Q 729.48 574.39 729.14 573.58
  Q 724.23 561.76 715.71 547.53
  Q 711.62 540.72 709.16 537.38
  C 687.08 507.46 656.08 485.56 620.68 474.82
  Q 620.26 474.69 619.98 473.73
  Z"
/>
<path fill="#ffffff" d="
  M 408.00 484.06
  Q 364.70 484.47 341.05 486.31
  Q 313.20 488.47 296.49 509.23
  Q 281.10 528.35 278.82 555.27
  Q 278.35 534.85 290.32 516.01
  Q 302.52 496.81 323.11 488.87
  C 325.30 488.03 330.02 486.42 332.67 486.13
  C 349.13 484.33 358.42 484.48 374.56 483.36
  Q 383.28 482.76 406.72 483.08
  Q 407.18 483.08 407.53 483.39
  Q 407.80 483.63 408.00 484.06
  Z"
/>
<path fill="#010101" d="
  M 408.00 484.06
  Q 441.97 483.64 481.06 484.69
  Q 557.68 486.74 617.29 489.03
  Q 637.55 490.17 654.41 502.43
  Q 656.77 506.31 660.53 508.56
  Q 669.53 520.79 672.94 534.02
  C 676.85 549.21 676.85 563.90 675.93 580.55
  Q 674.90 599.19 671.49 613.99
  C 663.61 648.18 641.80 677.59 603.49 677.68
  Q 586.50 677.73 579.07 677.85
  Q 560.50 676.28 541.95 676.27
  L 526.26 675.52
  Q 525.54 675.60 525.19 675.30
  C 466.25 673.03 407.23 670.56 348.25 669.71
  Q 342.27 669.62 336.21 669.08
  C 311.35 666.31 290.96 651.73 283.23 627.87
  Q 280.91 620.69 279.92 608.21
  Q 278.24 587.16 278.52 565.99
  L 278.82 555.27
  Q 281.10 528.35 296.49 509.23
  Q 313.20 488.47 341.05 486.31
  Q 364.70 484.47 408.00 484.06
  Z
  M 492.77 637.39
  C 543.41 626.18 594.29 628.02 643.90 643.09
  Q 644.39 643.24 644.67 642.81
  Q 662.63 614.65 661.41 580.91
  C 660.60 558.39 649.81 541.03 631.04 529.54
  C 609.18 516.16 580.17 510.25 554.93 516.86
  C 504.25 530.13 492.43 592.89 492.24 636.96
  Q 492.23 637.51 492.77 637.39
  Z
  M 341.34 636.38
  C 386.22 623.25 436.54 619.09 482.36 630.08
  A 0.32 0.32 0.0 0 0 482.75 629.77
  Q 483.33 592.93 496.70 558.69
  Q 496.96 558.04 497.25 555.85
  A 1.64 1.60 36.5 0 0 497.10 554.91
  C 486.98 534.14 465.74 520.28 443.67 516.33
  C 395.90 507.79 346.00 536.86 338.26 586.77
  Q 334.54 610.76 340.77 636.06
  Q 340.88 636.52 341.34 636.38
  Z"
/>
<path fill="#ffffff" d="
  M 654.41 502.43
  Q 637.55 490.17 617.29 489.03
  L 617.38 488.72
  Q 617.51 488.23 618.03 488.24
  Q 639.49 488.67 654.41 502.43
  Z"
/>
<path fill="#a3bec1" d="
  M 712.50 523.78
  L 698.17 508.22
  Q 698.74 507.86 699.71 508.06
  Q 700.26 508.18 700.63 508.59
  L 713.26 522.65
  Q 713.78 523.23 713.07 523.54
  L 712.50 523.78
  Z"
/>
<path fill="#ffffff" d="
  M 660.53 508.56
  Q 669.90 517.91 673.35 531.57
  C 673.88 533.69 674.73 535.97 675.19 538.28
  C 677.98 552.36 677.97 565.32 677.03 580.48
  C 675.28 608.64 669.29 640.41 648.07 660.90
  Q 631.23 677.16 607.00 678.77
  Q 594.71 679.59 579.07 677.85
  Q 586.50 677.73 603.49 677.68
  C 641.80 677.59 663.61 648.18 671.49 613.99
  Q 674.90 599.19 675.93 580.55
  C 676.85 563.90 676.85 549.21 672.94 534.02
  Q 669.53 520.79 660.53 508.56
  Z"
/>
<path fill="#f6f4aa" d="
  M 643.90 643.09
  C 594.29 628.02 543.41 626.18 492.77 637.39
  Q 492.23 637.51 492.24 636.96
  C 492.43 592.89 504.25 530.13 554.93 516.86
  C 580.17 510.25 609.18 516.16 631.04 529.54
  C 649.81 541.03 660.60 558.39 661.41 580.91
  Q 662.63 614.65 644.67 642.81
  Q 644.39 643.24 643.90 643.09
  Z
  M 576.75 561.72
  C 565.42 562.22 556.76 561.08 547.38 562.05
  C 543.32 562.48 540.32 574.76 539.87 578.02
  Q 538.42 588.41 539.07 600.17
  Q 539.13 601.25 540.21 601.25
  L 573.71 601.25
  Q 574.14 601.25 574.10 600.83
  C 573.02 588.17 575.53 572.94 577.23 562.25
  Q 577.32 561.70 576.75 561.72
  Z"
/>
<path fill="#f6f4aa" d="
  M 482.36 630.08
  C 436.54 619.09 386.22 623.25 341.34 636.38
  Q 340.88 636.52 340.77 636.06
  Q 334.54 610.76 338.26 586.77
  C 346.00 536.86 395.90 507.79 443.67 516.33
  C 465.74 520.28 486.98 534.14 497.10 554.91
  A 1.64 1.60 36.5 0 1 497.25 555.85
  Q 496.96 558.04 496.70 558.69
  Q 483.33 592.93 482.75 629.77
  A 0.32 0.32 0.0 0 1 482.36 630.08
  Z
  M 374.70 595.26
  L 405.26 595.12
  Q 405.85 595.12 405.82 594.54
  C 405.38 582.88 406.89 571.39 408.77 559.90
  Q 408.87 559.30 408.26 559.30
  L 381.51 559.08
  Q 380.09 559.07 379.35 560.29
  C 373.33 570.20 372.69 583.34 373.86 594.50
  Q 373.94 595.26 374.70 595.26
  Z"
/>
<path fill="#010101" d="
  M 374.70 595.26
  Q 373.94 595.26 373.86 594.50
  C 372.69 583.34 373.33 570.20 379.35 560.29
  Q 380.09 559.07 381.51 559.08
  L 408.26 559.30
  Q 408.87 559.30 408.77 559.90
  C 406.89 571.39 405.38 582.88 405.82 594.54
  Q 405.85 595.12 405.26 595.12
  L 374.70 595.26
  Z"
/>
<path fill="#010101" d="
  M 547.38 562.05
  C 556.76 561.08 565.42 562.22 576.75 561.72
  Q 577.32 561.70 577.23 562.25
  C 575.53 572.94 573.02 588.17 574.10 600.83
  Q 574.14 601.25 573.71 601.25
  L 540.21 601.25
  Q 539.13 601.25 539.07 600.17
  Q 538.42 588.41 539.87 578.02
  C 540.32 574.76 543.32 562.48 547.38 562.05
  Z"
/>
<path fill="#ffffff" d="
  M 278.52 565.99
  Q 278.24 587.16 279.92 608.21
  Q 280.91 620.69 283.23 627.87
  C 290.96 651.73 311.35 666.31 336.21 669.08
  Q 336.69 669.22 336.78 669.57
  Q 336.95 670.23 336.27 670.16
  C 314.04 667.91 295.92 656.87 285.75 636.53
  Q 279.72 624.48 279.02 612.04
  C 278.77 607.50 277.95 601.79 278.13 596.07
  C 278.18 594.48 277.37 592.01 277.30 590.03
  Q 276.90 578.54 277.01 567.03
  Q 277.01 566.34 277.34 566.10
  Q 277.78 565.78 278.52 565.99
  Z"
/>
<path fill="#a3bec1" d="
  M 740.76 639.76
  Q 741.50 639.58 741.82 640.06
  Q 742.03 640.38 741.88 640.96
  C 740.76 645.17 740.42 649.94 739.54 653.62
  Q 732.16 684.53 716.67 712.02
  Q 718.52 707.11 724.19 694.94
  Q 736.01 669.56 740.76 639.76
  Z"
/>
<path fill="#ffffff" d="
  M 526.26 675.52
  L 541.95 676.27
  Q 534.12 677.41 526.41 676.39
  Q 525.94 676.33 526.06 675.87
  Q 526.11 675.67 526.26 675.52
  Z"
/>
<path fill="#ffffff" d="
  M 607.79 737.90
  L 577.74 730.52
  L 577.89 730.13
  Q 578.08 729.66 578.59 729.76
  Q 593.35 732.68 607.79 737.90
  Z"
/>
<path fill="#a3bec1" d="
  M 578.28 740.87
  C 595.41 745.28 610.34 749.44 629.76 751.70
  Q 629.47 752.63 629.02 752.58
  C 611.60 750.47 594.94 746.59 578.07 741.91
  A 0.48 0.48 0.0 0 1 577.92 741.05
  Q 578.06 740.95 578.28 740.87
  Z"
/>
<path fill="#f6f4aa" d="
  M 513.45 851.82
  L 462.39 851.10
  Q 461.92 851.09 461.98 850.63
  L 466.95 809.18
  Q 467.01 808.69 467.51 808.66
  Q 493.68 807.44 519.83 808.58
  Q 520.28 808.60 520.21 809.04
  L 514.08 851.28
  Q 514.00 851.83 513.45 851.82
  Z"
/>
<path fill="#f6f4aa" d="
  M 432.38 811.38
  L 456.70 809.29
  A 0.30 0.30 0.0 0 1 457.03 809.63
  L 452.02 851.14
  A 0.30 0.30 0.0 0 1 451.73 851.40
  L 428.71 851.81
  A 0.30 0.30 0.0 0 1 428.40 851.49
  L 432.11 811.65
  A 0.30 0.30 0.0 0 1 432.38 811.38
  Z"
/>
<path fill="#f6f4aa" d="
  M 528.94 852.31
  Q 525.79 852.20 524.47 852.26
  Q 523.78 852.29 523.88 851.62
  L 529.98 810.09
  Q 530.13 809.10 531.13 809.16
  Q 558.07 810.80 584.79 814.66
  Q 585.35 814.74 585.29 815.30
  L 580.71 856.49
  Q 580.65 856.98 580.16 856.91
  Q 553.14 853.16 528.94 852.31
  Z"
/>
<path fill="#f6f4aa" d="
  M 591.02 858.75
  A 0.72 0.71 -82.3 0 1 590.43 857.97
  L 594.94 816.78
  Q 595.00 816.29 595.49 816.37
  C 614.33 819.55 632.91 822.45 648.94 832.09
  Q 649.37 832.35 649.30 832.85
  L 643.69 871.80
  Q 643.61 872.37 643.07 872.18
  Q 617.60 863.35 591.02 858.75
  Z"
/>
<path fill="#f6f4aa" d="
  M 653.65 875.98
  Q 653.10 875.77 653.18 875.18
  L 658.33 838.33
  A 0.43 0.42 -68.5 0 1 658.99 838.04
  Q 688.57 858.89 695.60 894.55
  A 0.21 0.21 0.0 0 1 695.30 894.77
  Q 675.03 884.14 653.65 875.98
  Z"
/>
<path fill="#a3bec1" d="
  M 702.73 882.53
  Q 698.86 870.15 692.25 858.21
  Q 699.31 866.81 703.20 880.05
  Q 703.76 881.92 702.73 882.53
  Z"
/>
<path fill="#f6f4aa" d="
  M 427.38 861.60
  L 450.47 861.15
  A 0.36 0.36 0.0 0 1 450.83 861.55
  L 445.30 911.02
  A 0.36 0.36 0.0 0 1 444.96 911.34
  L 421.25 912.47
  A 0.36 0.36 0.0 0 1 420.87 912.07
  L 427.03 861.92
  A 0.36 0.36 0.0 0 1 427.38 861.60
  Z"
/>
<path fill="#f6f4aa" d="
  M 455.21 910.52
  L 460.72 861.18
  A 0.34 0.34 0.0 0 1 461.06 860.87
  L 512.50 861.51
  A 0.34 0.34 0.0 0 1 512.84 861.88
  L 508.25 910.16
  A 0.34 0.34 0.0 0 1 507.91 910.47
  L 455.55 910.90
  A 0.34 0.34 0.0 0 1 455.21 910.52
  Z"
/>
<path fill="#f6f4aa" d="
  M 574.77 914.13
  C 555.67 911.91 536.89 910.60 518.79 910.75
  Q 518.01 910.76 518.08 909.98
  L 522.54 862.53
  Q 522.60 861.88 523.25 861.90
  Q 551.26 862.86 579.02 866.60
  Q 579.59 866.68 579.53 867.25
  L 575.24 913.75
  Q 575.20 914.18 574.77 914.13
  Z"
/>
<path fill="#f6f4aa" d="
  M 637.75 929.03
  C 621.33 923.18 602.81 917.76 585.49 915.98
  Q 584.83 915.92 584.89 915.26
  L 589.26 869.02
  Q 589.32 868.34 589.99 868.47
  Q 616.47 873.37 641.92 882.19
  A 0.59 0.59 0.0 0 1 642.31 882.80
  L 638.13 928.79
  A 0.29 0.28 -76.6 0 1 637.75 929.03
  Z"
/>
<path fill="#f6f4aa" d="
  M 648.12 932.80
  A 0.69 0.69 0.0 0 1 647.68 932.09
  L 651.79 886.56
  Q 651.86 885.76 652.61 886.06
  Q 675.26 895.07 696.73 906.61
  Q 697.20 906.87 697.24 907.39
  C 698.25 921.29 697.61 940.20 690.39 951.49
  A 1.08 1.08 0.0 0 1 688.96 951.86
  Q 669.19 940.93 648.12 932.80
  Z"
/>
<path fill="#f6f4aa" d="
  M 449.83 965.48
  L 454.14 920.99
  A 0.34 0.34 0.0 0 1 454.48 920.69
  L 507.19 920.11
  A 0.34 0.34 0.0 0 1 507.54 920.47
  L 505.68 968.76
  A 0.34 0.34 0.0 0 1 505.32 969.09
  L 450.15 965.85
  A 0.34 0.34 0.0 0 1 449.83 965.48
  Z"
/>
<path fill="#f6f4aa" d="
  M 515.68 969.74
  A 0.31 0.30 -87.1 0 1 515.40 969.42
  L 517.31 921.06
  Q 517.34 920.46 517.94 920.47
  Q 545.99 920.72 573.87 923.76
  Q 574.30 923.81 574.27 924.24
  L 570.49 972.98
  A 0.43 0.43 0.0 0 1 570.03 973.38
  L 515.68 969.74
  Z"
/>
<path fill="#f6f4aa" d="
  M 414.46 963.65
  L 419.55 922.72
  A 0.31 0.31 0.0 0 1 419.84 922.45
  L 443.95 921.10
  A 0.31 0.31 0.0 0 1 444.27 921.44
  L 439.98 964.99
  A 0.31 0.31 0.0 0 1 439.65 965.26
  L 414.75 964.00
  A 0.31 0.31 0.0 0 1 414.46 963.65
  Z"
/>
<path fill="#f6f4aa" d="
  M 580.64 974.23
  Q 580.18 974.19 580.21 973.72
  L 583.96 926.05
  A 0.61 0.60 -82.6 0 1 584.66 925.50
  Q 611.41 930.05 636.97 939.12
  Q 637.38 939.27 637.37 939.71
  L 635.79 979.06
  Q 635.78 979.47 635.36 979.47
  C 624.26 979.39 610.42 976.96 602.68 976.21
  Q 592.08 975.18 580.64 974.23
  Z"
/>
<path fill="#f6f4aa" d="
  M 683.32 959.87
  Q 683.89 960.17 683.43 960.61
  Q 667.70 975.73 645.89 978.34
  Q 645.59 978.37 645.60 978.07
  L 647.07 943.51
  Q 647.10 942.87 647.69 943.12
  Q 665.90 950.65 683.32 959.87
  Z"
/>
<path fill="#ffffff" d="
  M 683.93 973.26
  Q 685.25 973.25 683.61 974.60
  Q 673.29 983.17 660.66 985.46
  Q 673.90 981.11 683.93 973.26
  Z"
/>
</svg>
