<svg width="2164" height="2073" viewBox="0 0 2164 2073" fill="none" xmlns="http://www.w3.org/2000/svg">
<path d="M682.281 414.257C807.28 340.757 964.472 336.671 1135.78 444.257L1654.28 1334.26C1663.78 1483.26 1651.78 1588.26 1563.28 1692.76C1401.78 1840.26 1179.78 1905.26 924.281 1880.76C629.177 1856.87 483.135 1836.07 277.281 1749.26C49.1904 1620.54 5.78027 1490.76 110.781 1170.76C254.28 835.757 411.78 631.257 682.281 414.257Z" fill="#D41F2A" stroke="#7F090F" stroke-width="50"/>
<path d="M871.974 611.62C967.261 555.56 1087.09 552.444 1217.68 634.502L1612.93 1313.32C1620.17 1426.97 1611.02 1507.05 1543.56 1586.76C1420.45 1699.26 1251.22 1748.84 1056.45 1730.15C831.494 1711.93 720.166 1696.07 563.244 1629.85C389.371 1531.68 356.28 1432.69 436.321 1188.62C545.711 933.107 665.772 777.13 871.974 611.62Z" fill="#EC3D43"/>
<path d="M1135.08 863.265C1196.62 827.016 1274.02 825.002 1358.37 878.06L1613.66 1316.99C1618.34 1390.47 1612.43 1442.26 1568.86 1493.79C1489.34 1566.54 1380.03 1598.59 1254.23 1586.51C1108.93 1574.73 1037.03 1564.47 935.669 1521.66C823.364 1458.18 801.99 1394.17 853.689 1236.35C924.344 1071.14 1001.89 970.285 1135.08 863.265Z" fill="#FD7C8D"/>
<path d="M582.5 1044.76C605 1030.76 674.282 1036.25 720 1056.76C695.396 1107.94 677.807 1137.24 637.5 1162.76C598 1181.76 579.933 1179.88 545.5 1162.76C535.027 1117.72 539.667 1076.93 582.5 1044.76Z" fill="#F0E679" stroke="#AF1B23" stroke-width="30"/>
<path d="M867.5 866.763C890 852.763 959.282 858.254 1005 878.763C980.396 929.945 962.807 959.242 922.5 984.763C883 1003.76 864.933 1001.88 830.5 984.763C820.027 939.715 824.667 898.928 867.5 866.763Z" fill="#F0E679" stroke="#AF1B23" stroke-width="30"/>
<path d="M837.5 1248.76C860 1234.76 929.282 1240.25 975 1260.76C950.396 1311.94 932.807 1341.24 892.5 1366.76C853 1385.76 834.933 1383.88 800.5 1366.76C790.027 1321.72 794.667 1280.93 837.5 1248.76Z" fill="#F0E679" stroke="#C2434F" stroke-width="30"/>
<path d="M1104.82 1113.18C1120.44 1091.78 1186.74 1070.94 1236.82 1072.85C1233.15 1129.52 1227.81 1163.27 1199.98 1202.02C1170.46 1234.42 1153 1239.44 1114.66 1236.45C1088.09 1198.6 1077.13 1159.04 1104.82 1113.18Z" fill="#F0E679" stroke="#C2434F" stroke-width="30"/>
<path d="M483.74 1327.2C509.614 1321.47 573.13 1349.68 609.43 1384.23C569.21 1424.32 542.882 1446.1 496.383 1456.77C452.813 1461.56 436.401 1453.77 409.616 1426.18C414.715 1380.22 432.65 1343.29 483.74 1327.2Z" fill="#F0E679" stroke="#AF1B23" stroke-width="30"/>
<path d="M802.74 1488.2C828.614 1482.47 892.13 1510.68 928.43 1545.23C888.21 1585.32 861.882 1607.1 815.383 1617.77C771.813 1622.56 755.401 1614.77 728.616 1587.18C733.715 1541.22 751.65 1504.29 802.74 1488.2Z" fill="#F0E679" stroke="#AF1B23" stroke-width="30"/>
<path d="M1385.45 514.545C1402.37 555.529 1414.25 602.135 1422.19 653.725C1432.01 623.784 1443.92 595.069 1458.5 567.68C1500.15 489.449 1562.84 423.398 1657.78 370.191L1694.83 349.424L1695 391.902C1695.54 530.995 1681.08 632.746 1646.19 721.582C1621.03 785.65 1585.65 841.948 1539.31 900.004C1609.64 878.735 1674.33 866.005 1741.02 869.819C1834.65 875.171 1929.05 912.799 2047.5 997.134L2085.14 1023.93L2042.11 1040.78C1937.26 1081.83 1852.75 1101.38 1767.19 1101.97C1708.05 1102.38 1649.27 1093.72 1583.92 1077.75C1631.71 1129.21 1668.12 1177.37 1695.83 1229.7C1735.33 1304.27 1756.26 1385.58 1769.32 1494.01L1774.3 1535.38L1735.46 1520.31C1588.53 1463.3 1501.41 1415.62 1447.58 1353.34C1396.53 1294.26 1377.74 1224.65 1361.56 1132C1267.14 1122.36 1192.68 1110.04 1123.64 1085.49C1049.62 1059.16 983.212 1019.28 905.232 955.901L878.132 933.875L907.717 915.321C993.459 861.546 1057.85 822.839 1126.14 807.484C1166.72 798.359 1207.76 797.615 1254.51 805.28C1222.81 765.139 1198.46 715.355 1181.96 662.45C1151.62 565.168 1145.96 451.817 1172.9 354.339L1180.01 328.648L1205.19 337.379C1292.84 367.769 1350.19 429.109 1385.45 514.545Z" fill="#2CA84C" stroke="#0A3E0A" stroke-width="50"/>
<path d="M1428.14 825.39C1430.29 813.672 1432.83 802.013 1435.91 790.67C1448.2 745.409 1469.94 701.64 1513.17 677.415L1535.4 664.955L1535.5 690.441C1535.87 785.944 1531.99 876.393 1491.17 947.156C1519.66 938.528 1547.89 932.32 1576.86 931.939C1621.55 931.353 1666.84 944.57 1717.7 980.78L1740.29 996.86L1714.47 1006.97C1641.83 1035.41 1580.4 1046.19 1510.67 1033.94C1556.72 1094.86 1572.37 1164.32 1581.39 1239.21L1584.38 1264.03L1561.07 1254.98C1497.65 1230.38 1461.16 1200.18 1439.14 1163.44C1419.45 1130.58 1412.23 1093.71 1405.78 1055.51C1321.41 1046.25 1224.61 1022.61 1160.04 970.141L1143.78 956.925L1161.53 945.792C1221.18 908.387 1288.83 897.744 1355.69 908.418C1353.83 905.932 1352 903.391 1350.2 900.807C1334.25 877.905 1319.19 849.484 1306.8 819.698C1294.4 789.902 1284.47 758.291 1279.02 728.909C1273.63 699.873 1272.32 671.511 1278.54 649.003L1282.8 633.589L1297.91 638.828C1318.17 645.851 1337.1 661.509 1353.81 681.031C1370.69 700.759 1386.27 725.54 1399.56 752.572C1410.79 775.407 1420.55 800.203 1428.14 825.39Z" fill="#0A6533" stroke="#0A6533" stroke-width="30"/>
<path d="M1093.48 1595.11C1115.42 1580.25 1184.86 1583.04 1231.34 1601.75C1208.75 1653.85 1192.32 1683.81 1153.03 1710.88C1114.3 1731.41 1096.18 1730.22 1061.1 1714.46C1048.88 1669.86 1051.93 1628.92 1093.48 1595.11Z" fill="#F0E679" stroke="#AF1B23" stroke-width="30"/>
<path d="M1560.5 734C1689.26 639.469 1788.8 597.745 2024.5 544L2033 665C1910.25 664.485 1845.95 678.201 1741.5 734C1680.98 778.518 1647.78 805.373 1591 859.5C1559.68 896.283 1544.2 917.262 1521.5 955.5C1495.07 1012.66 1472.97 1029.83 1432 1016.5C1394.55 1000.55 1392.5 975 1400 919C1428.87 837.182 1475.45 796.874 1560.5 734Z" fill="#0A3E0A"/>
<path d="M1154.96 1345.06C1171.36 1324.24 1238.38 1305.85 1288.35 1309.59C1282.61 1366.08 1276.03 1399.62 1246.81 1437.32C1216.12 1468.62 1198.49 1472.99 1160.29 1468.61C1135.12 1429.81 1125.62 1389.87 1154.96 1345.06Z" fill="#F0E679" stroke="#C2434F" stroke-width="30"/>
<path d="M1439.55 1536.69C1458.16 1517.82 1526.8 1506.96 1576.05 1516.22C1564.09 1571.73 1553.84 1604.33 1520.62 1638.57C1486.65 1666.27 1468.65 1668.66 1431.17 1660.07C1410.45 1618.72 1405.43 1577.98 1439.55 1536.69Z" fill="#F0E679" stroke="#AF1B23" stroke-width="30"/>
<path d="M549.5 650.763C572 636.763 641.282 642.254 687 662.763C662.396 713.945 644.807 743.242 604.5 768.763C565 787.763 546.933 785.877 512.5 768.763C502.027 723.715 506.667 682.928 549.5 650.763Z" fill="#F0E679" stroke="#AF1B23" stroke-width="30"/>
<path d="M264.108 1003.41C279.799 993.657 328.116 997.481 360 1011.76C342.841 1047.4 330.575 1067.79 302.465 1085.56C274.917 1098.79 262.317 1097.48 238.304 1085.56C231 1054.2 234.236 1025.8 264.108 1003.41Z" fill="#F0E679" stroke="#AF1B23" stroke-width="30"/>
<path d="M202.108 1440.41C217.799 1430.66 266.116 1434.48 298 1448.76C280.841 1484.4 268.575 1504.79 240.465 1522.56C212.917 1535.79 200.317 1534.48 176.304 1522.56C169 1491.2 172.236 1462.8 202.108 1440.41Z" fill="#F0E679" stroke="#AF1B23" stroke-width="30"/>
<path d="M523.651 1631.66C541.674 1627.61 586.055 1647.09 611.481 1671.05C583.571 1699.07 565.286 1714.31 532.899 1721.86C502.535 1725.31 491.065 1719.93 472.297 1700.79C475.699 1668.77 488.081 1643.01 523.651 1631.66Z" fill="#F0E679" stroke="#AF1B23" stroke-width="30"/>
<path d="M977.032 537.208C1000.24 549.996 1029.31 613.125 1033.76 663.035C977.08 666.581 942.924 665.552 900.96 642.859C865.08 617.682 857.896 600.997 856 562.593C890.184 531.441 928.037 515.556 977.032 537.208Z" fill="#F0E679" stroke="#AF1B23" stroke-width="30"/>
</svg>
