<svg xmlns="http://www.w3.org/2000/svg" fill-rule="evenodd" stroke-linejoin="round" stroke-miterlimit="1.41" clip-rule="evenodd" viewBox="0 0 145 149"><path fill="#fcebaa" d="M100.17 32.71S112.34 8.73 114.2 2.94c1.14-3.52 6.77-4.3 5.73 0-1.05 4.29-3.53 6.96 0 4.6 3.53-2.35 7.04-6.65 7.43-2.42.4 4.23 7.95 2.54 6.36 5.1-1.6 2.58-2.85 5.17 2.04 3.2 4.9-1.98 5.5-1.01 3.95 2.5-1.54 3.53 6.47 3.7 1.62 6.68-5.4 3.31-19.69 11.81-30.13 18.4-6.79 4.28-12.45-5.55-11.03-8.29z"/><path fill="#e2c64d" fill-rule="nonzero" d="M118.15 0c2.57.08 1.55 4.04.72 6.1-.54 1.33-1.73 3.2.47 1.83 2.54-1.58 3.55-2.93 5.61-4.14a4.98 4.98 0 0 1 .48-.25c.85-.38 1.71.29 1.97 1.87.8 4.05 8.24 1.53 5.88 5.54-.98 1.68-2.7 4.45 3.14 2.21a27.83 27.83 0 0 1 1.5-.5 10.51 10.51 0 0 1 1.06-.23c1.22-.14 1.63 1.36.7 3.58-.25.63-.2.75-.14 1.1.34 1.9 3.15 2.22 3.36 3.64.22 1.47-1.75 1.96-3.31 2.91-9.53 5.78-18.9 11.57-28.55 17.44-4.31 2.55-10.4-1.56-11.05-6.77-.21-1.7 1.16-3.55 2.11-5.46 4.22-8.44 8.95-16.75 12.01-25.65.6-1.77 2.16-3.23 4.04-3.22zM118 1.9c-2.04.05-2.65 3.12-3.8 5.6-3.96 8.62-8.41 16.94-12.93 25.43-.8 1.5-.21-.06-.23.76.04 4.32 5.08 8.7 9.18 6.2 9.86-6.21 19.8-12.67 29.62-18.96-2.23-1.52-3.19-3.1-2.47-5.5 0 0-7.05 3.34-7.56-1.69-.11-1.06.28-2.1.78-3.1-2.37-.61-4.71-1.86-5.4-4.29l-.52.39c-3.01 2.26-8.32 6.75-8.69 1.67-.15-2.16 1.94-4.08 2.1-6.46 0-.09-.04-.05-.08-.05zm22.84 18.3c.14-.18.03-.03 0 0zm-2.79-6.76zm0-.04s.01-.14 0 0zm-5.77-2.28c-.12-.07-.06-.03 0 0zm-.04-.01c-.03-.03 0-.01 0 0zM120.2 8.45c-.05.22.02-.06 0 0zm0-.02zm6.19-2.8zm.06-.02c-.31.05.08-.02 0 0zm-8.19-3.66c-.42-.3-.1-.07 0 0zm-.01 0c-.06-.06-.03-.03 0 0zm-.02-.02s-.04-.03 0 0zm-.01 0s0-.01 0 0zm0-.01s-.01 0 0 0zm-.02 0zm.01 0zm0 0zm0 0s-.01 0 0 0z"/><path fill="url(#_Linear1)" fill-rule="nonzero" d="M81.8 83.73c1.5-3.13 4.36-9.6 4.37-9.62 4.61-8.52 12.98-20 13.86-20.94a32.17 32.17 0 0 1 5.54-4.4c2-1.23 1.28-1.75 1.5-2 .23-.24.65.14 2.25-1.4 1.6-1.53.66-3.55 1.1-4.03.45-.49-9.13-9.08-9.44-8.74-.45.48-2.54-.3-3.94 1.41-1.41 1.72-1 2.11-1.22 2.35-.22.25-.8-.43-1.88 1.65A32.2 32.2 0 0 1 90 43.88c-.88.95-11.66 10.18-19.8 15.44 0 0-6.26 3.37-9.26 5.1-3 1.72-16.94 7.57-25.34 16.64l-31.1 33.6s-2.8 3.3-2.2 5.16c.58 1.85 2.57 7.25 11.98 15.95 9.4 8.71 14.94 10.27 16.83 10.72 1.9.44 4.98-2.61 4.98-2.61l31.08-33.6c8.4-9.07 13.15-23.42 14.64-26.55z"/><clipPath id="a"><path d="M81.8 83.73c1.5-3.13 4.36-9.6 4.37-9.62 4.61-8.52 12.98-20 13.86-20.94a32.17 32.17 0 0 1 5.54-4.4c2-1.23 1.28-1.75 1.5-2 .23-.24.65.14 2.25-1.4 1.6-1.53.66-3.55 1.1-4.03.45-.49-9.13-9.08-9.44-8.74-.45.48-2.54-.3-3.94 1.41-1.41 1.72-1 2.11-1.22 2.35-.22.25-.8-.43-1.88 1.65A32.2 32.2 0 0 1 90 43.88c-.88.95-11.66 10.18-19.8 15.44 0 0-6.26 3.37-9.26 5.1-3 1.72-16.94 7.57-25.34 16.64l-31.1 33.6s-2.8 3.3-2.2 5.16c.58 1.85 2.57 7.25 11.98 15.95 9.4 8.71 14.94 10.27 16.83 10.72 1.9.44 4.98-2.61 4.98-2.61l31.08-33.6c8.4-9.07 13.15-23.42 14.64-26.55z" clip-rule="nonzero"/></clipPath><g clip-path="url(#a)"><path fill="#fdd262" d="M60.21 62.63s14.41 19.61 24.44 19.31c10.02-.3 21.08-30.4 21.08-30.4a13.47 13.47 0 0 1-4.34-1.3c-.8-.44-3.18-.24-4.5-.92-1.3-.66-1.51-2.2-2.4-2.52-5.11-4.77-4.38-6.94-6.26-9.82 0 0-18.87 14.03-28.02 25.65z"/><path fill="#a56a23" d="M51.98 64.94s12.13 23.5 30.1 25.46c2.73-4.09 4.59-9.99 4.59-9.99-2.22 1.57-23.5-15.49-22.63-22.4-7.07 5.14-12.06 6.93-12.06 6.93z"/><path fill="#fff" fill-rule="nonzero" d="M63.7 57.01c-.43 4.96 4.72 9.47 8.9 13.5 4.17 4 8.56 8.3 13.7 10.2.5.18 1.05.38 1.45.12a43.05 43.05 0 0 1-4.88 10.65c-1.7-.2-2.34-.34-3.5-.65-12.91-3.36-22.65-15.56-28.43-26.43 0 0 3.45-1.6 5.93-3.01a75.69 75.69 0 0 0 6.84-4.46V57zm-1.73 3.25a62.12 62.12 0 0 1-9.06 4.68s2.1 3.54 4.4 6.47c6.22 7.96 14.15 15.23 23.71 16.98 0 0-.01.73.7-.66a51.91 51.91 0 0 0 2.06-4.75s-2.52-1.75-4.2-3.02c-6.29-4.73-12.22-10.23-16.02-17a27.24 27.24 0 0 1-1.3-2.88l-.3.18z"/><path fill="#a56a23" d="M76.12 70.06c2.2 2.3.9 7.11-2.9 10.74-3.81 3.64-8.68 4.72-10.87 2.42-2.2-2.3-.9-7.11 2.9-10.74 3.8-3.64 8.68-4.72 10.87-2.42z"/><path fill="#fff" fill-rule="nonzero" d="M72.46 67.9c2.15.02 4.3 1.09 5.19 3.15 2.8 6.53-6.16 16.38-13.62 14.04-4.26-1.33-4.39-7.92-1-12.13 2.25-2.8 5.54-4.93 9.13-5.06h.3zm.45 1.6c-5.8.1-12.32 7.4-9.2 11.87 2.4 3.4 10.76-.45 12.56-6.48.5-1.72.57-4.05-1.32-4.97a4.59 4.59 0 0 0-2.04-.42z"/><path fill="#fff" fill-opacity=".6" fill-rule="nonzero" d="M87.11 53.46l.4.97c-.4 1.05-.82 1.48-1.18 1.87-8.7 9.3-18.05 18.72-29.49 23.81-7.33 3.26-13.55 9.23-20.94 17.01l-5.77 6.17L12 122.63l-.97.45-1-.32-.45-.93.3-1.03c9.36-11.75 18.08-24.14 28.39-34.8 4.6-4.75 9.83-9.02 16.24-11.26 11.76-4.19 21.78-13.1 30.64-21.25l1-.4.97.38z"/></g><path fill="#e2c64d" d="M118.26 41.34a1.93 1.93 0 1 1 0 3.85 1.93 1.93 0 0 1 0-3.85zm.34-10.66a2.95 2.95 0 1 1 0 5.9 2.95 2.95 0 0 1 0-5.9zm14 .38a1.93 1.93 0 1 1 0 3.86 1.93 1.93 0 0 1 0-3.86zM110 26.64a2.95 2.95 0 1 1 0 5.9 2.95 2.95 0 0 1 0-5.9zm-14.46-1.57a1.93 1.93 0 1 1 0 3.86 1.93 1.93 0 0 1 0-3.86zm8.23-3.22a2.95 2.95 0 1 1 0 5.9 2.95 2.95 0 0 1 0-5.9zm12.14-.64a2.95 2.95 0 1 1 0 5.9 2.95 2.95 0 0 1 0-5.9zm26.9-2.01a1.93 1.93 0 1 1 0 3.85 1.93 1.93 0 0 1 0-3.85zm-38.48-5.5a1.93 1.93 0 1 1 0 3.85 1.93 1.93 0 0 1 0-3.86zm-4.88-9.8a1.93 1.93 0 1 1 0 3.86 1.93 1.93 0 0 1 0-3.86z"/><path fill="#f3f4e1" d="M56.8 114.82c.96-1.05.9-2.68-.15-3.64L34.25 90.5a2.58 2.58 0 0 0-3.63.14l-13.76 14.89a2.58 2.58 0 0 0 .15 3.64l22.4 20.68c1.04.97 2.67.9 3.63-.14l13.75-14.9z"/><path fill="#7899b7" fill-rule="nonzero" d="M32.47 89.22c.6.03 1.19.26 1.66.65 7.8 7.03 15.52 14.16 23.15 21.39.96.96 1.03 2.6.14 3.64a827.64 827.64 0 0 1-14.24 15.43 2.74 2.74 0 0 1-3.65.14c-7.8-7.03-15.52-14.15-23.15-21.38a2.74 2.74 0 0 1-.15-3.65 830.7 830.7 0 0 1 14.25-15.42 2.72 2.72 0 0 1 1.98-.8zm.05 2.42c-.12.02-.2.05-.27.13-4.33 4.98-8.64 9.95-13.09 14.84l-.56.6 1.15 1.1 6.22 6.01c4.97 4.85 9.94 9.7 14.9 14.58.63.48.77.21.94.05l6-6.1 8.63-8.75c.9-.86-.04-1.77-.13-1.85-6.93-5.93-13.79-11.96-20.68-17.94-1.03-.9-2-1.85-3.1-2.68 0 0-.17-.07-.01.01z"/><path fill="url(#_Linear3)" fill-rule="nonzero" d="M82.71 84.33c-4.4 10.06-8.51 20.27-16 28.54l-29.3 32.3-.27.27a18.62 18.62 0 0 1-2.32 1.83c-4.28 2.74-10.51-.93-16.15-5.14-7.65-5.71-15.35-12.53-18.39-21.2-.93-2.64.58-5.5 2.5-7.8l11.45-12.56c6.55-7.15 13.09-14.33 19.76-21.4C40.85 72 49.94 67.36 58.8 63c2.94-1.46 6.18-3.34 9.35-5.02l.95-.5.7-.44A163.3 163.3 0 0 0 87.95 43.2c2.83-2.47 3.8-7 6.41-8.29 0 0 1.82-3.68 5.8-3.83 0 0 2.07.12 3.74 1.52 2.63 2.22 5.18 4.38 7.4 7.1 2.62 3.22-.51 7.11-2.86 8.2 0 0-1.18 1.58-2.45 2.37-3.17 2.02-4.34 3-6.73 6.2A153.34 153.34 0 0 0 83.4 82.88c-.23.48-.48.96-.7 1.45zm-51.18 60.3zm-.02 0zm-.01 0zm.04 0zm0 0zm0 0s-.05-.01 0 0zm-.02 0s-.06 0 0 0zm0 0s-.04 0 0 0zm0 0s-.05 0 0 0zM4.45 119.18zm0-.02zm101.1-72.27zm0 0s.04-.05 0 0zm.01-.01c.02-.04 0-.01 0 0zm0 0s.04-.06 0 0zm0-.01s.04-.05 0 0zm1.54-1.73s.08-.03 0 0zm4.77-3.27s0-.04 0 0zm0-.01s0-.06 0 0zm0 0s0-.04 0 0zm-16.26-3.64zm2.07-1.96zm0-.02zm-3.55-.35s0-.06 0 0zm6.23-1.72s-.04-.03 0 0zm-.01 0s-.06-.04 0 0zM31.54 144.62c1.15-.1 2.2-1.1 3.23-2.05 11.1-10.56 21.05-22.23 31.57-33.44 6.59-7.14 10.35-16.5 14.25-25.33a725.5 725.5 0 0 0 4.38-9.88s2.27-4.24 4.4-7.66c4.04-6.5 7.7-13.35 14.2-17.96 2.74-1.93 1.6-2.62 3.5-3.16.95-.26.93-.16 1.49-1.31 1.42-2.92-2.7-5.18-5.85-7.84-.76-.64-1.9-1.53-1.9-1.53-.85.11-.57 0-1.36.11-1.07.16-1.8 2-1.8 2-.25 1.03-1.72 1.62-1.72 1.62-1.38 1.93-3.41 5.96-5.45 7.81-6.82 6.2-13.89 12.17-22.06 16.72-10.8 6.03-22.33 10.58-31.02 20.01l-1.49 1.63a4461.07 4461.07 0 0 1-29.68 31.82c-.9 1.1-1.75 3.04-1.75 3.04 1.88 5.97 6.65 10.74 11.43 15.21 4.64 4.35 9.73 8.7 15.63 10.19.06 0 0 0 0 0z"/><path fill="#9e6240" d="M120.66 11.88c-.62.81-.7 1.49.55 3a23.3 23.3 0 0 0 4.33 3.95c.96.59 2.44 1.33 3.38.2l5.98-7.24-6.35-6.53s-6.67 5.02-7.9 6.62z"/><clipPath id="b"><path d="M120.66 11.88c-.62.81-.7 1.49.55 3a23.3 23.3 0 0 0 4.33 3.95c.96.59 2.44 1.33 3.38.2l5.98-7.24-6.35-6.53s-6.67 5.02-7.9 6.62z"/></clipPath><g clip-path="url(#b)"><path fill="#704229" d="M122.52 17.42l8.86-8.2 4.52 3.08-6.43 8.07s-.5 3.28-6.95-2.95z"/></g><path fill="#d0986a" d="M127.17 6.12s2.21 5.86 7.28 6.44c3.48.4 5.37-2.47 4.91-4.42-.46-1.94-3.13-6.66-7.64-7.25-4.05-.53-4.79 3.7-4.54 5.23z"/><clipPath id="c"><path d="M127.17 6.12s2.21 5.86 7.28 6.44c3.48.4 5.37-2.47 4.91-4.42-.46-1.94-3.13-6.66-7.64-7.25-4.05-.53-4.79 3.7-4.54 5.23z"/></clipPath><g clip-path="url(#c)"><path fill="#efded1" d="M128.77 1.01c-1.12 2.33 4.36 10.03 10.96 9.74a9 9 0 0 1-4.7 2.54c-1.37 1.05-8.77-4.31-8.64-8.44.08-2.64.8-3.75 2.38-3.84z"/></g><defs><linearGradient id="_Linear1" x2="1" gradientTransform="rotate(-137.48 53.7 41.4) scale(39.3564)" gradientUnits="userSpaceOnUse"><stop offset="0" stop-color="#2b7e01"/><stop offset="1" stop-color="#78ff81"/></linearGradient><linearGradient id="_Linear3" x2="1" gradientTransform="rotate(-47.21 159.8 54.3) scale(121.6054)" gradientUnits="userSpaceOnUse"><stop offset="0" stop-color="#45a82a"/><stop offset="1" stop-color="#6edc4f"/></linearGradient></defs></svg>