<svg xmlns="http://www.w3.org/2000/svg" width="602" height="575"><g fill="none"><path fill="#F07A76" d="M476.91 80.76a364.72 364.72 0 0 1 16.41-7.65c8.2-3.56 16.58-6.7 25.1-9.4a230.22 230.22 0 0 1 44.06-9.29 247.36 247.36 0 0 1 28.46-1.53h3.85c-2.54 3.09-4.68 6.48-7.33 9.49-2.2 2.51-4.47 4.92-6.5 7.57a152.41 152.41 0 0 0-11.24 17.22 299.57 299.57 0 0 0-9.34 17.83 334.47 334.47 0 0 0-7.94 17.76c-.23.5-.4 1-.54 1.53a50.86 50.86 0 0 1-2.48 7.79c-1.62 4.24-3.5 8.37-5.64 12.37a86.09 86.09 0 0 1-8.78 13.49c-3.07 3.82-6.31 7.6-11.86 11a42.76 42.76 0 0 1-19.93 6.25c-3.98.52-8.02.52-12 0a18.05 18.05 0 0 1-4.9-1.34 23.37 23.37 0 0 1-4.25-2.73 159.15 159.15 0 0 1-7-5.23 403.32 403.32 0 0 1-20.58-17c-5.08-4.4-9.9-9.07-14.47-14-2.48-2.72-4.76-5.6-7.13-8.43a40.51 40.51 0 0 0-6.56-6.37c-1-.77-2.22-1.25-3.26-2a5.32 5.32 0 0 1-1.47-1.38 1.83 1.83 0 0 1-.29-1.65c.12-.17.28-.32.46-.44.38-.31.78-.61 1.17-.9 3.44-2.55 7-4.91 10.6-7.26 5.52-3.64 11.1-7.19 16.73-10.65a436.25 436.25 0 0 1 18.47-10.8 260.9 260.9 0 0 1 8.18-4.25z" opacity=".5"/><path fill="#F0990F" d="M601 44.74c.07 2.86-2.88 4.91-4.79 6.6l-1.14 1c-.16.14-.41.47-.6.54a3.7 3.7 0 0 1-1 0h-6.71c-1.26 0-2.52 0-3.78.07a244.77 244.77 0 0 0-30.23 2.71c-5.33.8-10.63 1.8-15.89 3a223.05 223.05 0 0 0-19 5.15 262.06 262.06 0 0 0-23.37 8.69 305.46 305.46 0 0 0-16 7.37l-2.54 1.27c-4.43 2.23-8.79 4.6-13.1 7.07a598.07 598.07 0 0 0-32.36 20.15c-2.91 1.95-5.87 3.87-8.64 6a4.3 4.3 0 0 0-.73.61 1.6 1.6 0 0 0 .14 1.73 8 8 0 0 0 3.09 2.4c.86.46 1.67 1 2.43 1.6 2.2 1.8 4.2 3.8 6 6 2.23 2.68 4.41 5.41 6.76 8 4.2 4.57 8.65 8.9 13.32 13a423.04 423.04 0 0 0 19.82 16.53c3.25 2.56 6.53 5.16 10 7.47.74.5 1.48 1 2.23 1.44a12 12 0 0 0 4.42 1.62h.07c.56.14 1.2.25 1.93.37 3.98.52 8.02.52 12 0 2.35-.18 4.7-.52 7-1 4.52-1 8.84-2.74 12.81-5.13A44.43 44.43 0 0 0 535 158a69.47 69.47 0 0 0 3-4c-.38.32-.73.65-1.08 1a93.91 93.91 0 0 0 7.9-13.17 108 108 0 0 0 3.15-6.94l-1.57 4.41-3.64 10.23c-1.46 4.1-3.07 8.17-4.13 12.39a50.17 50.17 0 0 0-1.45 15.08c.4 3.86 1.06 7.68 2 11.44.17.8.33 1.61.48 2.42a94.21 94.21 0 0 1 1.68 24.46c-.2 2.77-.53 5.54-.54 8.32 0 1.64.15 3.29.47 4.9.18.94.43 1.87.74 2.78a32.26 32.26 0 0 0 6.4 10.9c2.44 2.78 5.33 5.09 7.87 7.78a45.51 45.51 0 0 1 3.72 5 134.84 134.84 0 0 1 11.67 20 156.46 156.46 0 0 1 10.09 28.6 214.4 214.4 0 0 1 5.18 30.2 249.06 249.06 0 0 1 1.4 29.54 194.72 194.72 0 0 1-30.23 101.33 201.37 201.37 0 0 1-15.62 21.44 206.5 206.5 0 0 1-18.6 19.51 213.39 213.39 0 0 1-21.16 17.1 166.71 166.71 0 0 1-25.28 15A157 157 0 0 1 449 547.84a178.17 178.17 0 0 1-30 4.81c-10.14.75-20.31.75-30.45 0a235 235 0 0 1-30.12-4.15c-4.87-1-9.69-2.13-14.47-3.48-4.78-1.35-9.49-2.8-14.27-4-8.88-2.3-18.53-4-27.48-1.13a28.17 28.17 0 0 0-6.31 3 52.8 52.8 0 0 0-5.82 4.53c-3.54 3-7.12 5.92-10.8 8.73a102.44 102.44 0 0 1-21.46 13.14 60.78 60.78 0 0 1-24.07 5 71.71 71.71 0 0 1-14.09-1.48 59.35 59.35 0 0 1-13.84-4.34c-8-3.78-14.64-9.62-21.43-15.17-3.37-2.82-6.9-5.44-10.58-7.84a63 63 0 0 0-13.29-6.32c-10.08-3.46-20.69-4.82-31.08-6.94A112.94 112.94 0 0 1 114 528c-4.59-1.7-9.05-3.71-13.38-6A163.06 163.06 0 0 1 77 507.22c-7.44-5.6-14.4-11.8-20.81-18.56a172.67 172.67 0 0 1-31.28-46A228.2 228.2 0 0 1 14 414.42a235.71 235.71 0 0 1-10.54-58.84c-.5-9.8-.4-19.63.3-29.42.7-9.79 2-19.52 3.86-29.16a260.65 260.65 0 0 1 17.87-56.43 272.65 272.65 0 0 1 29.8-50.93c4.08-5.59 8.2-11.15 12.36-16.68a572.8 572.8 0 0 1 15.46-19.73 161.1 161.1 0 0 1 14.07-15.58c1.6-1.49 3.28-2.88 4.92-4.32a355.1 355.1 0 0 0 19.36-18.45c1.4-1.42 2.92-2.7 4.54-3.86 6.23-4.55 13.58-7.54 20.72-10.34l.15-.06c3.8-1.49 7.65-2.83 11.48-4.23.44-.16.92-.31 1.39-.51a5.24 5.24 0 0 0 1.77-1c.18-.15.34-.34.47-.54 1.06-1.65.6-3.75-.11-5.5-.11-.29-.23-.56-.35-.82a39.63 39.63 0 0 0-6.09-8.82c-5.34-6.25-11.47-11.76-17.36-17.46-7.53-7.29-15-14.69-22.54-22-5.84-5.61-11.75-11.21-18.11-16.24-4.42-3.5-9.21-7-14.6-8.83a18.69 18.69 0 0 0-6.1-1.07c-1.48.02-2.95-.05-4.42-.21-.92-.11-3-.26-3.37-1.37-.22-.7.52-1.38 1-1.78.64-.54 1.34-1.01 2.07-1.42.44-.26.89-.5 1.35-.71 1.5-.68 3.03-1.27 4.59-1.78A82.56 82.56 0 0 1 94.46 2.8c8.13-.93 16.35-.87 24.47.18a111.91 111.91 0 0 1 30.34 8.46c6 2.59 11.8 5.6 17.53 8.67a230.57 230.57 0 0 1 21.66 13c7.1 4.86 14.06 10.25 19.78 16.72A19.38 19.38 0 0 0 217 56c2.27.66 4.67.78 7 .36 2.44-.45 4.8-1.26 7-2.4 2.5-1.23 4.81-2.82 7.44-3.8 2.47-.89 5-1.61 7.56-2.16 3.7-.85 7.43-1.57 11.16-2.26 5.16-1 10.33-1.91 15.51-2.79a131 131 0 0 1 26.1-1.53h.3c8.9.34 17.77 1.25 26.56 2.71a290.21 290.21 0 0 1 25.25 5.29c7 1.79 13.94 3.82 20.81 6.1 4.73 1.57 9.45 3.25 14 5.21a39 39 0 0 1 3.7 1.75c.9.56 1.84 1.05 2.81 1.46.64.24 1.32.4 2 .47a7.09 7.09 0 0 0 5.95-2.22c.48-.48.92-1 1.38-1.51a16 16 0 0 1 2-1.83 61.6 61.6 0 0 1 6.84-4.56c3.65-2.2 7.37-4.28 11.09-6.35 5-2.81 10.06-5.66 15.25-8.17a180.19 180.19 0 0 1 26.85-10.39 209.38 209.38 0 0 1 23.69-5.7c10.83-1.9 21.8-2.86 32.79-2.86 10.36 0 20.71.77 30.96 2.29A168.61 168.61 0 0 1 577.12 29c6.14 1.94 12.41 4.28 17.77 7.91 2.59 1.71 6.01 4.37 6.11 7.83z"/><path fill="#9E3207" d="M452.81 544.92c-.13-.32.32-.7.52-.88.63-.54 1.3-1.03 2-1.46 2.61-1.7 5.33-3.24 8-4.83 3.8-2.26 7.58-4.56 11.29-7 3.92-2.55 7.67-5.31 11.43-8.1 1.88-1.4 3.84-2.73 5.63-4.25l5.49-4.64c1.76-1.49 3.5-3 5.16-4.57l5.21-5c1.73-1.65 3.35-3.4 5-5.16 1.65-1.76 3.32-3.51 4.89-5.33 1.57-1.82 3-3.65 4.53-5.46 1.53-1.81 2.95-3.61 4.34-5.49 1.39-1.88 2.87-3.85 4.29-5.79s2.6-3.83 3.88-5.75a231.7 231.7 0 0 0 19.39-35.9 262.78 262.78 0 0 0 9.8-26.77c2.88-9.07 5.16-18.3 6.85-27.67a169.8 169.8 0 0 0 2.4-28.29 179.48 179.48 0 0 0-8.62-55.28 152.81 152.81 0 0 0-10.67-25.71c-4.44-8-9.67-15.54-15.62-22.5a679.52 679.52 0 0 0-19-21.75c-6.43-7.14-12.81-14-19.28-21a2142.99 2142.99 0 0 0-18.83-20l-16.67-17.61a1046.2 1046.2 0 0 1-12.43-13.32c-2.58-2.83-5.19-5.67-7.55-8.69a19 19 0 0 1-1.75-2.51c-.14-.26-.55-.91-.29-1.21.26-.3.89 0 1.15.15.9.41 1.77.9 2.59 1.46 3.17 2 6.16 4.35 9.12 6.68 4.72 3.7 9.32 7.55 13.87 11.45a767.9 767.9 0 0 1 18 15.93 1039.59 1039.59 0 0 1 40.22 38.73 572.82 572.82 0 0 1 19.46 20.58 160.68 160.68 0 0 1 17.09 22.14 147 147 0 0 1 12.18 25c3.3 8.64 5.94 17.5 7.93 26.53a185.6 185.6 0 0 1 3.69 56.56 178.8 178.8 0 0 1-4.7 27.52 271.52 271.52 0 0 1-8.8 27.77 237.82 237.82 0 0 1-25.13 49.27c-2.47 3.67-5 7.3-7.71 10.82-1.47 1.94-3.06 3.8-4.59 5.69-1.53 1.89-3 3.69-4.63 5.45-1.63 1.76-3.22 3.54-4.84 5.3-1.62 1.76-3.4 3.45-5.14 5.13a738.05 738.05 0 0 1-5.1 4.89c-1.71 1.62-3.61 3.08-5.42 4.59-1.81 1.51-3.6 3.13-5.52 4.51l-5.76 4.15c-1.93 1.39-3.85 2.78-5.89 4-2.04 1.22-4.09 2.48-6.13 3.72a131.78 131.78 0 0 1-24.38 11.59 55.55 55.55 0 0 1-7.93 2.29c-.72.16-1.45.25-2.18.26-.2.02-.73.04-.84-.24z" opacity=".7"/><path fill="#DC5412" d="M520.75 367.28a116.55 116.55 0 0 1-10.28-19.21c-1.6-3.66-3-7.42-4.16-11.25a93.79 93.79 0 0 1-2.26-9.85c-1-5.53-1.79-11.41-.83-17 .47-2.77 1.48-5.64 3.64-7.56 2.86-2.54 7.16-2.62 10.75-2.09 3.23.6 6.3 1.87 9 3.72 3.93 2.44 7.86 4.89 11.83 7.27 5.78 3.46 11.71 7 18.1 9.24 4.43 1.53 9.27 2.24 13.63.09a15.55 15.55 0 0 0 7.71-8.6c1-3 .53-6.17-.26-9.2-2.24-8.68-5.87-16.88-9.43-25.07a113.53 113.53 0 0 0-9.19-17.31 186.29 186.29 0 0 0-13.17-17.51c-4.94-5.87-10.16-11.49-15.36-17.14l-16.87-18.32a7152 7152 0 0 0-16.73-18.07c-5.04-5.41-10.1-10.8-15.19-16.16-3.91-4.11-7.83-8.2-11.86-12.19a224.87 224.87 0 0 0-4.14-4 22.6 22.6 0 0 0-2.62-2.18c-.23-.15-1.08-.68-.85 0 .26.58.6 1.13 1 1.62.65 1 1.29 1.92 1.89 2.91a41.48 41.48 0 0 1 5.76 19.81c.12 3.32-.26 7.08-2.59 9.66a11.51 11.51 0 0 1-5.87 3.2c-6.06 1.51-12.73.38-18.61-1.36a56.83 56.83 0 0 1-20.18-10.62 41.26 41.26 0 0 1-7.7-8.41 74.25 74.25 0 0 1-4.76-8.41 79.91 79.91 0 0 0-4.78-8.49c-2.2-3.25-4.8-6.2-7.76-8.77a55.17 55.17 0 0 0-21.83-11.9c-6-1.6-12.48-2.26-18.58-.93a37.21 37.21 0 0 0-12.06 5 28.37 28.37 0 0 0-12.43 16.84c-1.84 7.6-.9 15.6 2.66 22.55a25.79 25.79 0 0 0 16.74 13.75c3.07.89 6.23 1.37 9.35 2.06a17.7 17.7 0 0 1 7.38 3c5.23 4.2 3.68 11.57 2.42 17.24-1.67 7.55-3.91 15.32-1.49 23a11.8 11.8 0 0 0 3.47 5.43 30.15 30.15 0 0 0 5.39 3.49c1.5.78 2.9 1.76 4.15 2.91a3.1 3.1 0 0 1 1.15 2.16c-.1 1.72-2.81 2.21-4.09 2.44-2.8.44-5.65.52-8.47.24a109.4 109.4 0 0 1-11.17-1.9c-4-.74-8-1.42-12.08-1.94a75.63 75.63 0 0 0-17.28-.6 68.23 68.23 0 0 0-16 3.93 70.06 70.06 0 0 0-18.08 9.34c-4.93 3.65-9.11 8.21-11.3 14a46.93 46.93 0 0 1-10.94 17.16 100.39 100.39 0 0 1-1.86-23.45c.17-4.25.62-8.48 1.32-12.67.61-3.68 1.44-7.32 2.26-11 .21-.94.46-1.86.64-2.81.21-.75.28-1.54.2-2.32-.3-1.39-2.32.91-2.64 1.26a40.09 40.09 0 0 0-5.73 8.77 77.22 77.22 0 0 0-7.28 22.62 81.74 81.74 0 0 0-.46 24.34c-2.24-.1-4.41-.85-6.25-2.14-1.12-.9-2.07-2-2.79-3.24-1.57-2.87-2.6-6-3.05-9.25a85.7 85.7 0 0 1-1-10.28c-.14-2.7-.15-5.43-.47-8.11-.06-.51-.29-3.1-1.36-2.49-.42.35-.73.82-.89 1.34a24.7 24.7 0 0 0-.9 2.63c-1.73 5.94-3 12-5 17.86a41.82 41.82 0 0 1-4.11 8.8 13.67 13.67 0 0 1-5.85 5.45c-.69.29-1.41.48-2.15.58 1.04-6.8 1.17-13.7.39-20.52a81.09 81.09 0 0 0-6.12-23.7 63.18 63.18 0 0 0-5-9.32c-1-1.62-2.2-3.09-3.6-4.38-.28-.25-.92-.85-1.35-.64-.43.21-.29 1.06-.25 1.42.29 1.96.7 3.9 1.22 5.82.39 1.74.79 3.48 1.14 5.24a108 108 0 0 1 1.79 12.38 99.39 99.39 0 0 1-1.46 27.2 28.42 28.42 0 0 1-4.24-8.15 79.78 79.78 0 0 0-5.1-11.26c-3.26-5.74-7.76-10.53-12.49-15.08-3.41-3.29-6.92-6.47-10.41-9.68-2.7-2.48-5.36-5-8.23-7.32-6.16-4.9-14.2-7.42-21.92-8.33a57.5 57.5 0 0 0-16.05.31 33.41 33.41 0 0 0-10 3.25 88.29 88.29 0 0 0-9.89 6.37c-5 3.54-10.13 7-15.36 10.3-8 5-16.28 9.76-24.68 14.15a89.45 89.45 0 0 1-10.23 4.76 20.8 20.8 0 0 1-7.5 1.61c-2.09 0-4.1-.78-5.62-2.21-2.43-2.36-3.12-6.08-3.64-9.28a82.15 82.15 0 0 1-.84-18.33c.62-9.06 2.42-18 5.34-26.59a23.37 23.37 0 0 1 2.44-4.48 91.3 91.3 0 0 1 2.9-4.44 68.5 68.5 0 0 1 7.25-8.77 54.82 54.82 0 0 1 9.47-7.74 53.65 53.65 0 0 1 11-5.28 41.15 41.15 0 0 1 8.68-2.14c3.26-.35 6.54-.44 9.81-.28 4.17.14 8.32.47 12.49.61 3.54.12 7.09.12 10.63 0a93.15 93.15 0 0 0 21-3.13 54.16 54.16 0 0 0 18.18-8.65A40 40 0 0 0 180.31 157c1.53-3.5 2.57-7.09 1.91-10.94a15.3 15.3 0 0 0-5.46-9.28 19.37 19.37 0 0 0-12.31-3.78c-2.06.06-4.12.23-6.17.5-2.42.27-4.83.55-7.25.78-3.85.46-7.73.6-11.6.39-2.67-.21-5.55-.75-7.67-2.5-2.67-2.21-3.08-5.7-3-9a37 37 0 0 0 .11-4.34c-.07-.85-.31-1.87-1.24-2.12-1.36-.37-2.78 1.14-3.63 2-2.16 2.1-4.1 4.42-6.15 6.62a130.25 130.25 0 0 1-9.87 9.61c-2.9 2.52-6.14 4.62-8.93 7.27a196.54 196.54 0 0 0-17.41 18.91 321.81 321.81 0 0 0-15 20.35c-5.38 7.76-10.62 15.6-16 23.36a597.16 597.16 0 0 1-13.15 18.31c-1.73 2.29-3.57 4.51-5.17 6.89-.69 1-1.33 2.09-1.93 3.17-2 3.53-3.81 7.17-5.49 10.87-3.9 8.8-7.06 17.9-9.47 27.23-2.13 8-4 16-5.75 24.09a259.11 259.11 0 0 0-4.3 25.92 200.1 200.1 0 0 0-1.08 13.61c-.29 6.67-.24 13.33.13 20 .48 8.83 1.54 17.63 3.17 26.32 1.82 9.42 4.34 18.7 7.52 27.76 1.56 4.51 3 9.06 4.51 13.59 2 5.92 4 11.83 6.29 17.65 1 2.59 2.07 5.17 3.24 7.7a38 38 0 0 0 3 5.53c.52.75 1.43 2.19 2.47 2.28.76.06 1.11-1 1.3-1.59.46-1.5.81-3.04 1.05-4.6.43-2.29.84-4.58 1.31-6.86 1.16-6 2.96-11.87 5.37-17.49A51.33 51.33 0 0 1 56 407.69c1.71-1.54 3.54-2.94 5.31-4.42a333.34 333.34 0 0 0 15.9-14.22c2.67-2.52 5.28-5.09 7.85-7.7 1.46-1.49 2.95-3 4.29-4.58.81-1 1.49-2.07 2.22-3.11 1.13-1.62 2.27-3.25 3.44-4.84a61.38 61.38 0 0 1 7.54-8.78 23.85 23.85 0 0 1 9.21-5.61A24.23 24.23 0 0 1 122 354c3.71.6 7.34 1.63 10.8 3.1 2.73 1.09 5.43 2.27 8.08 3.56a78.26 78.26 0 0 1 16.88 10.91 65.29 65.29 0 0 1 9 9.39 45.6 45.6 0 0 1 6.71 11.26 49.6 49.6 0 0 1 2.2 8.5c.5 2.8 1.44 5.5 2.78 8a34.38 34.38 0 0 0 12.25 12.4 50.21 50.21 0 0 0 15.91 6 84.34 84.34 0 0 0 17.73 1.6 126.6 126.6 0 0 0 17.39-1.39c5.02-.74 9.99-1.74 14.9-3a92.75 92.75 0 0 0 10.24-3.13c.93-.33 1.84-.73 2.71-1.19a8 8 0 0 0 2.28-2.32c1.16-1.54 2.12-3.22 3.23-4.79 2.17-3.08 4.57-6 7-8.87a128.58 128.58 0 0 1 17.13-17.42c3.62-2.92 7.42-5.6 11.37-8.05a65 65 0 0 1 12-6.11 56.92 56.92 0 0 1 23.44-3.4c9.61.63 18.8 3.63 27.65 7.27a170.19 170.19 0 0 1 22.27 11.21c5.8 3.45 11.39 7.22 17 11 4.12 2.96 8.42 5.67 12.87 8.1 3 1.55 6.49 3 10 2.5a9.44 9.44 0 0 0 5.21-2.49c2.21-2.11 3.08-5.14 4.22-7.88a18.44 18.44 0 0 1 6.75-8.61 23.3 23.3 0 0 1 13-3.53c9.13.2 17.93 3.44 25 9.23 1.74 1.38 3.34 2.91 5.08 4.29a63.15 63.15 0 0 0 5.42 3.86 76.6 76.6 0 0 0 11.37 5.89 99.64 99.64 0 0 0 21.6 6.23 67 67 0 0 0 25.82-.64c3.76-.8 7.43-1.98 10.95-3.52 2.72-1.1 5.2-2.69 7.36-4.68 1.18-1.18 2.33-2.8 2.07-4.57a4.8 4.8 0 0 0-1.87-2.88c-1.3-1-2.74-1.83-4.27-2.45-2-.91-4.13-1.66-6.24-2.39-5.34-1.86-10.73-3.57-16-5.66a86.65 86.65 0 0 1-17.23-8.88 50.55 50.55 0 0 1-13.31-13.17z" opacity=".7"/><path fill="#9E3207" d="M36.13 452.41c-.57.27-1.3-.45-1.66-.79-.99-1-1.86-2.1-2.61-3.28A89.73 89.73 0 0 1 25 435.51a175 175 0 0 1-7.33-19A219.62 219.62 0 0 1 12 396a235.76 235.76 0 0 1-5.49-42.5c-.2-5.33-.2-10.64 0-15.91a239.29 239.29 0 0 1 5.03-42.47 255.8 255.8 0 0 1 12.09-40.91 302.91 302.91 0 0 1 8.81-20.46A299.17 299.17 0 0 1 42.43 214a372.84 372.84 0 0 1 11.24-18.79 307.51 307.51 0 0 1 25.34-33.84 312.48 312.48 0 0 1 28.86-29.44c5-4.48 10.14-8.81 15.43-12.93 4.38-3.41 8.85-6.74 13.51-9.76.86-.56 1.72-1.11 2.62-1.61.31-.18 1-.68 1.37-.65.37.03.14.23 0 .42-.4.53-.84 1.03-1.33 1.47-3.77 3.76-7.83 7.24-11.74 10.86a467.98 467.98 0 0 0-14.22 13.73 374.74 374.74 0 0 0-27.26 30.68 323.6 323.6 0 0 0-23.94 34.83 323.8 323.8 0 0 0-19.88 39.32A311.1 311.1 0 0 0 34.38 259a250.07 250.07 0 0 0-13.71 91.2 333.41 333.41 0 0 0 3.46 39.03A375.86 375.86 0 0 0 28 410.84c1.41 6.8 3 13.55 4.7 20.28 1.26 5 2.64 10 3.59 15.12a22 22 0 0 1 .5 4.24c.01.62-.01 1.64-.66 1.93z" opacity=".7"/><path fill="#F07A76" d="M539.1 58.22c4.23-.91 8.48-1.7 12.75-2.37a396.96 396.96 0 0 0-17.31 4.25c-8.54 2.28-17 4.76-25.41 7.61-4 1.37-8 2.87-11.92 4.4a419 419 0 0 0-17.54 7.3c4.5-2.2 9-4.32 13.65-6.3 8.2-3.56 16.58-6.7 25.1-9.4 6.8-2.15 13.71-3.98 20.68-5.49zm51.84-5.34h2.44-3.25zm3.5.03a3.7 3.7 0 0 1-1 0h1z" opacity=".5"/><path fill="#F0990F" d="M549.29 126.67c.39-1.32.64-2.62 1.15-3.89.84-2.09 1.74-4.16 2.64-6.23a511.7 511.7 0 0 0-3.79 10.12z"/><path fill="#F07A76" d="M64 15.27a16.1 16.1 0 0 1 10.52-1.51c3.3.73 6.43 2.11 9.19 4.07 2.88 1.93 5.55 4.19 8.28 6.32l9.23 7.24L114.59 42c2.67 2.13 5.33 4.28 8 6.44 1.32 1.08 2.63 2.17 3.92 3.27.44.38.88.75 1.3 1.15 5 4.75 10 9.59 14.93 14.44 3.64 3.58 7.28 7.18 10.65 11 2 2.1 3.7 4.45 5.07 7a6.8 6.8 0 0 1 .66 4.74 4.91 4.91 0 0 1-1.88 2.78c-1.55.96-3.17 1.8-4.85 2.53a74.79 74.79 0 0 0-17.53 12.84c-1.7 1.64-3.32 3.4-5.16 4.88a8.35 8.35 0 0 1-4.64 2c-3.14.21-5.88-1.55-8-3.67a61 61 0 0 1-7.19-9.41c-4.5-6.6-9.06-13.16-13.7-19.66-3.39-4.75-6.83-9.46-10.26-14.18-2.5-3.43-5-6.86-7.37-10.38a94.75 94.75 0 0 1-5.22-8.53 63.38 63.38 0 0 1-3.78-8.59 103 103 0 0 1-3.8-14.2A104 104 0 0 1 64 15.27z" opacity=".5"/><path fill="#B5CB3B" d="M422.52 275.59c.87-.23 1.8-.03 2.51.53 1.22.78 2.34 1.7 3.33 2.77a48.26 48.26 0 0 1 7 9.34 43 43 0 0 1 6.28 21.69c-.09 4.5-.86 8.96-2.28 13.23-.62 2-1.12 4-1.81 6a71.48 71.48 0 0 1-4.9 11A67.63 67.63 0 0 1 423 353.7a60.34 60.34 0 0 1-15.64 12.14 58.81 58.81 0 0 1-23 6.82 66.26 66.26 0 0 1-21-1.76 81.86 81.86 0 0 1-16.25-5.9 75.48 75.48 0 0 1-9.1-5.13l-3.19-2.16c-1.13-.71-2.2-1.5-3.22-2.38-.3-.27-1.28-1.16-.46-1.39 1.05-.1 2.1.04 3.08.42 1.3.32 2.58.72 3.86 1.12 2 .63 4 1.18 6 1.63a87.05 87.05 0 0 0 17.59 2c7.02.17 14.03-.74 20.78-2.7 7.32-2.12 14-6.04 19.4-11.41 4.63-4.71 8-10.38 11.22-16.09a76.55 76.55 0 0 0 6.4-14.46 71.77 71.77 0 0 0 3.21-23.8 75.53 75.53 0 0 0-.72-8.42 29.3 29.3 0 0 1-.54-4.68 2.05 2.05 0 0 1 1.1-1.96zM93.43 254.31c.19.14-.05.59-.12.74-.23.55-.49 1.08-.71 1.62a16.14 16.14 0 0 0-1.21 5.58c.03 1.8.17 3.58.42 5.36.19 1.86.26 3.73.23 5.6 0 2.11-.33 4.23-.23 6.34.08 1.43.25 2.85.5 4.25a61.87 61.87 0 0 0 3.63 12.58 64.11 64.11 0 0 0 8.54 15.07A57.93 57.93 0 0 0 120 325.54a61 61 0 0 0 19.45 7.66 71.15 71.15 0 0 0 15.69 1.51c3.32-.06 6.62-.35 9.9-.87 2.12-.33 4.22-.79 6.34-1.12.43-.07 2.18-.5 2.26.28.08.78-1.12 1.72-1.6 2.16a43.08 43.08 0 0 1-11.62 7 62.57 62.57 0 0 1-19.42 5.22c-6.67.63-13.4 0-19.84-1.83a62 62 0 0 1-15.85-7.16 77.75 77.75 0 0 1-11.84-9.17 84.21 84.21 0 0 1-7.52-8 53.63 53.63 0 0 1-6.74-10.27 69.42 69.42 0 0 1-5.18-16.17c-.25-1.14-.55-2.27-.77-3.42-.57-3.03-.93-6.1-1.07-9.19-.09-2 0-4-.21-6-.2-1.25-.33-2.52-.37-3.79.09-2.61 2.87-4.06 5-4.93a34.92 34.92 0 0 0 8.93-5.13 42.76 42.76 0 0 0 5.66-5.77c.2-.25 1.8-2.55 2.23-2.24z" opacity=".7"/><path fill="#9E3207" d="M217.86 323.07a165.13 165.13 0 0 0-15.39 11 67.59 67.59 0 0 0-15 17.14 75.09 75.09 0 0 0-6.7 14.35c-.87 2.49-2 4.87-2.86 7.38a57.92 57.92 0 0 0-3.23 18.14c-.05 3.8.4 7.59 1.36 11.27a33.5 33.5 0 0 0 2 5.72 36.68 36.68 0 0 0 3 5c.85 1.3 1.91 2.46 3.14 3.42a29.11 29.11 0 0 0 5.41 3.11 95.29 95.29 0 0 0 9.74 3.76 62.46 62.46 0 0 0 12.6 2.87c4.3.46 8.61.7 12.93.73 4.5.07 9.01.1 13.52.1 4.43 0 8.86-.17 13.28-.1 2.49 0 5.11.41 7.57-.13 2.28-.54 4.44-1.5 6.37-2.81a27.36 27.36 0 0 0 6.38-6.63c4.54-5.9 8.63-12.15 12.24-18.66 3.61-6.76 6-14.09 5.94-21.81A50 50 0 0 0 288 363a77.59 77.59 0 0 0-3.4-9.15 82.55 82.55 0 0 0-8-14.29 61.26 61.26 0 0 0-13.48-14.08c-2.67-2-5.59-3.63-8.12-5.8a30 30 0 0 1-7.19-9.47c-.69-1.39-1.29-2.82-2-4.21a6 6 0 0 0-1.84-2.49c-2-1.3-3.79.81-4.92 2.21a71.74 71.74 0 0 1-6.67 7.76 36.07 36.07 0 0 1-5.94 4.35c-2.85 1.73-5.75 3.42-8.58 5.24z" opacity=".7"/><path fill="#FEFECE" d="M360.89 500.32c-6.77-.42-13.55-.48-20.32-.18a77 77 0 0 0 .31-20.29c-.19-1.65-.42-3.3-.68-4.94 7.75 0 15.49.26 23.21.94-.13-1.27-.15-2.55-.25-3.82v-.37c0-.12 0-.21-.24-.27a9.83 9.83 0 0 0-1.67-.07l-3.1-.08a200.62 200.62 0 0 0-17.63.41h-.36c-.24-.06-.08.16-.21-.2a128.04 128.04 0 0 0-.97-4.91c-.47-2.09-1-4.17-1.64-6.22-.45-1.46-.78-3-1.2-4.42a28.37 28.37 0 0 0-2-4.86 80 80 0 0 1 16.4-4.06c1.17-.18 2.36-.28 3.52-.52a21 21 0 0 1 2.28-.42 43.2 43.2 0 0 0-1.92-4.19c-.1-.27-.22-.54-.37-.79-.15-.2-.14-.16-.44-.1-.27.05-.54.11-.8.19-.9.28-1.8.52-2.72.71a74.85 74.85 0 0 0-15.34 4.53c-.67.29-1.33.59-2 .9-.26.12-.28.23-.46 0a54.33 54.33 0 0 0-.73-1.38 47 47 0 0 0-7.81-10.48 51.4 51.4 0 0 0-12.67-9.31 71 71 0 0 0-12.48-5c-4.6-1.44-9.3-2.56-14.07-3.34-4.64-.68-9.31-1.06-14-1.13-5.63-.14-11.27-.31-16.9-.54-8.89-.37-17.77-.89-26.65-1.51-6.2-.43-12.4-.93-18.6-1.19-5.5-.26-11-.23-16.5.09-7.65.47-15.25 1.57-22.82 2.72a88.3 88.3 0 0 0-12.14 2.46 35.15 35.15 0 0 0-10.22 5.12 52.37 52.37 0 0 0-12.09 12.09c-.2.16-.15.13-.42.07l-.48-.11-2-.44a221.51 221.51 0 0 0-17.49-2.85l-1.22-.06c-.1 0-.55-.12-.63-.07-.08.05-.12.41-.15.5-.22.77-.43 1.54-.62 2.31 1.3.07 1.48 1.6 2.63 1.89.5.09 1 .13 1.5.14l1.64.14 3 .27c3.86.38 7.72.84 11.57 1.35-4.88 7.12-7.68 15.26-9.32 23.68-.49 2.51-.89 5-1.24 7.57a222.3 222.3 0 0 0-13.61-2v2.68c0 .03.6.14.76.21.65.35 1.27.75 1.87 1.19.69.38 1.47.57 2.26.55l2.8.2c1.89.15 3.78.35 5.66.53a77.31 77.31 0 0 0 .15 20c.26 1.88.54 3.76.88 5.63-3.86.32-7.72.64-11.57 1.11.17 1 .34 1.91.52 2.86 0 .1 0 .54.12.59.24 0 .48-.05.71-.12l1.41-.22c1.9-.29 3.81-.54 5.72-.79l2.7-.35.69-.09c.28 0 .29 0 .35.23l.21.93c.3 1.27.63 2.52 1 3.77A47.89 47.89 0 0 0 132 523c3.28 4.2 7.48 8 12.48 10.08 3.69 1.5 7.67 1.84 11.57 2.44 5.27.77 10.4 2.37 15.18 4.72a76.93 76.93 0 0 1 15.77 10.7c4 3.41 7.72 7.1 11.91 10.24a45.55 45.55 0 0 0 15.14 7.5c5.35 1.49 11 1.8 16.49 2.34 6.33.73 12.7 1.07 19.08 1 5.28.01 10.5-1.01 15.38-3.02a22.33 22.33 0 0 0 3.82-2.09c.18-.14.35-.29.51-.45 1.18-1.17 2.31-2.4 3.47-3.59 3.83-3.92 7.71-7.77 11.61-11.62 2-1.94 3.94-3.89 6-5.78a42.76 42.76 0 0 1 3.46-3 20.6 20.6 0 0 1 10-3.9 61.5 61.5 0 0 0 6.9-.8A36.74 36.74 0 0 0 328.69 527a49.23 49.23 0 0 0 6-8.29 44.38 44.38 0 0 0 5.16-13.07l.24-1.12.12-.61c.06-.32.14-.26.46-.26h2.64c3.44.07 6.87.24 10.3.49 3.64.26 7.28.59 10.89 1.08 0-1.2 0-2.41.05-3.61v-.82c.01-.1.01-.19 0-.28-.06-.08-.71-.06-.83-.07-.92 0-1.87-.07-2.83-.12zM472 542.82c-1.27.55-2.56 1.07-3.85 1.57l-1 .37c-.31.17-.65.3-1 .36-.25 0-.65-.48-.85-.62l-.85-.62c-2.22-1.6-4.48-3.16-6.74-4.7-2-1.36-4-2.66-6.05-4a653.8 653.8 0 0 0-3.16-2l-1.56-1c-.25-.11-.5-.25-.72-.42a4 4 0 0 1-.39-.79c-1.33-2.6-2.57-5.24-3.7-7.91a180.4 180.4 0 0 1 22.83 14.23c2.45 1.8 4.8 3.65 7.04 5.53z" opacity=".7"/><path fill="#DC5412" d="M324.12 149.25c.54.9.65 2 .31 3-.4 1.5-1.02 2.93-1.81 4.27a81 81 0 0 1-5.8 8.77c-3.36 4.59-7.11 8.85-10.62 13.32a166.29 166.29 0 0 0-12.14 17.71 192.6 192.6 0 0 0-10 19.5c-1.31 2.92-2.54 5.88-3.87 8.79-.17.36-1.62 4-2.32 3.38-.4-.34-.36-1.31-.38-1.77-.04-1.27.01-2.54.15-3.8.32-3.2.84-6.4 1.54-9.54a126 126 0 0 1 6.6-21.05c2.74-6.7 6-13.16 9.77-19.33a84.81 84.81 0 0 1 9.83-13.52 51.26 51.26 0 0 1 7.73-6.92c1.38-1 2.85-1.9 4.39-2.64a10.57 10.57 0 0 1 4.06-1.17 3 3 0 0 1 2.56 1z" opacity=".7"/><path fill="#FF3400" d="M199.86 400a80 80 0 0 1 13.9-3 73.4 73.4 0 0 1 17.4.37c5.32.67 10.6 1.71 15.77 3.11a80 80 0 0 1 14.07 5.1c3.37 1.63 6.86 3.64 9.27 6.57a8.84 8.84 0 0 1 1.92 3.75c.22.71.18 1.48-.11 2.17a17.37 17.37 0 0 1-3.47 4c-2.13 2-4.37 4-6.63 5.86a506.04 506.04 0 0 1-17.61 13.88 874.9 874.9 0 0 1-8.48 6.33c-2.17 1.6-4.36 3.18-6.56 4.75l-2.15 1.51-.73.5c-.09.06-.36.31-.47.31-.11 0-.64-.53-.79-.66l-1.19-1-3.28-2.76-9.07-7.66-9.79-8.31-7.6-6.47c-3.88-3.1-7.55-6.44-11-10-2-2.26-4-5.17-2.65-8.3a10.33 10.33 0 0 1 4.26-4.32 37.3 37.3 0 0 1 7.17-3.25c2.59-.91 5.2-1.69 7.82-2.48z"/><path fill="#FEFECE" d="M174.45 152.64c-1 .64-2.57-.76-3.27-1.33a45.35 45.35 0 0 1-3.64-3.37c-1.92-1.93-3.68-4-5.61-5.93a69 69 0 0 0-15.83-11.54c-.88-.48-1.78-.95-2.65-1.46-.17-.1-1-.5-.9-.79.1-.29 1.08-.16 1.29-.14 1.05.1 2.1.3 3.12.57a47.85 47.85 0 0 1 17.71 8.84 40.64 40.64 0 0 1 6.09 5.64 24.68 24.68 0 0 1 2.77 4 9 9 0 0 1 1.44 4.32c.03.46-.16.9-.52 1.19zm-12.25 18.17c-.49.26-1.09-.11-1.49-.38a13.65 13.65 0 0 1-2.07-1.86c-1.4-1.45-2.72-3-4-4.49-2.25-2.55-4.44-5.16-6.85-7.56a74 74 0 0 0-20-13.69c-1.14-.56-2.3-1.09-3.43-1.67-.17-.09-1.28-.54-1.18-.84.1-.3 1.38-.11 1.59-.09a29 29 0 0 1 3.85.75 57.84 57.84 0 0 1 22 11.08 46.69 46.69 0 0 1 7.3 7.17 30 30 0 0 1 3.21 5 11.9 11.9 0 0 1 1.66 5.29c.05.5-.18 1-.59 1.29zm-11.46 9.82c-.93.73-2.77-.66-3.51-1.14-1.51-1-3-2-4.45-3a72.54 72.54 0 0 0-7.33-4.63 42.4 42.4 0 0 0-21.52-4.49c-1.54.07-3.08.22-4.62.3-.35 0-1.59.12-.89-.45a10.47 10.47 0 0 1 3.45-1.53c1.55-.5 3.13-.87 4.73-1.13 7.3-1.2 14.8-.27 21.6 2.67a29.49 29.49 0 0 1 7.1 4.22 23.38 23.38 0 0 1 3.69 3.78 9.22 9.22 0 0 1 2.11 4.18c.1.44-.04.9-.36 1.22zm33.62-33.44c-1 .19-1.86-.91-2.38-1.64a21.38 21.38 0 0 1-1.86-3.29c-.67-1.42-1.18-2.92-1.81-4.36a47.4 47.4 0 0 0-7.61-11.9c-.52-.61-1.07-1.21-1.55-1.86-.12-.16-.56-.64-.39-.87.17-.23.79 0 1 .06.72.24 1.42.56 2.08.94a30.64 30.64 0 0 1 10.58 10.08 21.56 21.56 0 0 1 3.11 6.46c.37 1.32.5 2.7.35 4.07-.14.91-.49 2.12-1.52 2.31zm333.33 366.24c-1.1 1-2.19 1.91-3.31 2.85a149 149 0 0 0-13.73-19.41 129.88 129.88 0 0 0-14.26-14.48 119.16 119.16 0 0 0-16.73-12.15 138.43 138.43 0 0 0-20.3-10 230.43 230.43 0 0 0-11-4c-1.94-.65-3.89-1.24-5.84-1.85l-3-.93-.6-.19a3 3 0 0 1-.8-.25c-.07-.09 0-.5 0-.63v-.95l-.11-3.06a282.21 282.21 0 0 1 23 7.18 140.83 140.83 0 0 1 20.78 9.59c6.14 3.48 11.95 7.5 17.38 12a112.81 112.81 0 0 1 27.32 33.7c.45.84.85 1.7 1.2 2.58zm-23 17.37l-1.86 1.2-1 .63a2 2 0 0 1-.34.21c-.13 0-.43-.43-.52-.52l-3.15-3.12a195.54 195.54 0 0 0-20.86-17.85 171.53 171.53 0 0 0-21.79-13.85c-2.9-1.54-5.86-3-8.85-4.31-.8-.36-1.59-.73-2.39-1.07l-1.14-.49c-.12-.05-.49-.14-.57-.24a222.91 222.91 0 0 1-1.12-5.87 154.54 154.54 0 0 1 28.45 13.86 137 137 0 0 1 22.09 17c4.72 4.46 9.08 9.28 13.05 14.42zM41.65 435.25a176.68 176.68 0 0 0-1.51 5.75c-.12.27 0 .13-.25.23a4.3 4.3 0 0 1-.71.16l-1.38.33-2.81.69c-3.23.81-6.45 1.67-9.66 2.58-.25.11-.51.18-.78.22-.2 0-.31-.4-.41-.62l-.7-1.49L22 440a168.93 168.93 0 0 1 19.65-4.75zm371.04-90.89c-.52-.63.25-1.81.57-2.36a33 33 0 0 1 2.81-3.84c2.13-2.63 4.33-5.2 6.39-7.89 2.6-3.39 4.61-7.2 5.92-11.27a61.3 61.3 0 0 0 2.45-14.23c.16-2.19.26-4.39.38-6.58.05-1 .11-1.91.2-2.87a4.2 4.2 0 0 1 .25-1.54c.15-.25.23-.17.36.07.24.53.4 1.09.48 1.66.4 1.98.7 3.99.9 6 1 9 .64 18.41-3.29 26.7a36.05 36.05 0 0 1-10.66 13.36 15.12 15.12 0 0 1-5.26 3c-.47.1-1.19.21-1.5-.21zM99 317.94c-.21.44-.84.48-1.26.47a7.62 7.62 0 0 1-2.48-.57 18.82 18.82 0 0 1-5.36-3.25 26.82 26.82 0 0 1-6.26-7.86c-4.19-7.65-5.57-16.54-5-25.17.13-3.05.62-6.07 1.45-9 .05-.17.3-1.22.6-1.11.3.11.33 1.8.34 2.1.2 3.72.29 7.43.77 11.13a51.37 51.37 0 0 0 3.4 13.22c1.4 3.3 3.21 6.39 5.41 9.21a74.24 74.24 0 0 0 3.88 4.65 44.1 44.1 0 0 1 4.09 4.55c.34.44.72 1.08.42 1.63z" opacity=".7"/><path fill="#9E3207" d="M68.88 8.72c.2-1.17 1.48-1.9 2.45-2.37a24 24 0 0 1 5.82-1.73 98 98 0 0 1 19.13-1.41c8 .04 15.99.63 23.9 1.79a137.33 137.33 0 0 1 22.17 5.1c6.2 2 12.24 4.5 18.05 7.47a134.7 134.7 0 0 1 15 9c4.42 3 8.67 6.29 12.86 9.63 3.92 3.13 7.78 6.33 11.71 9.45a145.2 145.2 0 0 0 11.41 8.32 77.7 77.7 0 0 0 2.95 1.82c.88.52 2.06 1.21 1.92 2.4-.15 1.34-1.75 2.29-2.78 2.91a48.58 48.58 0 0 1-6.79 3.16c-3.18 1.28-6.4 2.48-9.6 3.71-3.76 1.44-7.5 2.92-11.19 4.52A228.2 228.2 0 0 0 174.27 78c-3.06 1.53-6.13 3.05-9.09 4.78-1.8.92-3.45 2.13-4.86 3.58a2.07 2.07 0 0 1-3 .53 14.68 14.68 0 0 1-3.41-3.94c-1.23-1.73-2.45-3.45-3.81-5.08-1.36-1.63-2.74-3.19-4-4.89-1.46-2-2.94-3.93-4.48-5.84a207.09 207.09 0 0 0-9.25-10.69 245.48 245.48 0 0 0-13.6-13.52 190.41 190.41 0 0 0-17.4-14.12 155.29 155.29 0 0 0-20.06-12.19c-2.35-1.19-4.74-2.31-7.11-3.47a23.3 23.3 0 0 1-4.2-2.38 2.27 2.27 0 0 1-1.12-2.05z" opacity=".7"/><path fill="#0A0605" d="M91.8 260.86a34.53 34.53 0 0 1 9.91-14.6A53 53 0 0 1 114.5 238a72.26 72.26 0 0 1 8.57-3.36 63.71 63.71 0 0 1 9.7-2.29 62.78 62.78 0 0 1 17.05-.43 49.68 49.68 0 0 1 19.91 6.67 46.4 46.4 0 0 1 14.49 13.74 53.28 53.28 0 0 1 7.07 15.7 71.31 71.31 0 0 1 2.37 14.9c.2 3.69.17 7.38-.1 11.06a109.3 109.3 0 0 1-1.66 13.62c-1.37 6.82-4.19 13.31-9.39 18.08a33.64 33.64 0 0 1-13.13 7.21 51.83 51.83 0 0 1-16.37 2 69.28 69.28 0 0 1-17.56-2.9 71.13 71.13 0 0 1-16.69-7.3A58.26 58.26 0 0 1 105 313.35a57.3 57.3 0 0 1-10.53-18.15 72.59 72.59 0 0 1-3.8-15.85c-.34-2.53-.5-5.09-.48-7.64-.02-3.68.52-7.34 1.61-10.85z"/><path fill="#FEFECE" d="M546.31 134.85l2.95-8.1a81.63 81.63 0 0 1-2.95 8.1zm46.48-81.92c-1.57 1.91-2.94 4-4.44 5.94-1.75 2.29-3.69 4.37-5.61 6.52-3.22 3.69-6.18 7.6-8.84 11.71a235.87 235.87 0 0 0-15.1 27.06c-2 4.1-3.9 8.23-5.72 12.4 2-5.13 4-10.24 6.4-15.18 2.4-4.94 5.1-9.41 7.75-14 4.69-8.2 9.51-16.4 15.47-23.75 3.1-3.81 6.46-7.4 10.09-10.7z" opacity=".5"/><path fill="#FEFECE" d="M435.62 357.45c.52.11 1.1-1.76 1.22-2.05.8-2 1.51-4 2.27-6a176.07 176.07 0 0 1 8.89-19.92c1.56-2.94 3.23-6 5.82-8.18 3.74-3.13 8.57-4.2 13.14-5.56a266.17 266.17 0 0 0 19.31-6.54l2.89-1.13a99.85 99.85 0 0 0-11.82-.23c-3.88.07-7.76-.39-11.52-1.35a97.51 97.51 0 0 1-10.68-3.8 65.62 65.62 0 0 1-8.57-4 22.2 22.2 0 0 1-7.65-6.84 112.63 112.63 0 0 1-1.24 45.48c-.27 1.15-.66 2.3-.82 3.46-.6 4.27-1.22 8.56-1.49 12.87-.08.97-.08 1.94 0 2.91-.04.24-.03.82.25.88z" opacity=".7"/><g opacity=".7"><path fill="#000" d="M138.44 89.11c-.72.31-1.56-.32-2.09-.74a24.26 24.26 0 0 1-3-3c-2.17-2.45-4.25-5-6.31-7.51-3.37-4.14-6.56-8.41-9.93-12.55-4.34-5.32-9-10.4-13.71-15.35-4.71-4.95-9.92-10-14.89-15a235.65 235.65 0 0 1-6.41-6.63c-.78-.85-1.57-1.71-2.28-2.62-.17-.21-.92-1-.81-1.32.2-.61 3.27 1.48 3.53 1.64 2.53 1.64 5 3.42 7.39 5.21A299.42 299.42 0 0 1 106.3 44c5.3 4.4 10.37 9.07 15.18 14 3.77 3.81 7.23 7.92 10.35 12.29 1.9 2.7 3.57 5.55 5 8.52.72 1.47 1.32 3 1.8 4.56.41 1.23.62 2.53.62 3.83.01.73-.13 1.62-.81 1.91z" opacity=".3"/></g><path fill="#2CD7EF" d="M73.79 298.51c.72-.17 1.24.7 1.54 1.22a26.74 26.74 0 0 1 1.68 3.92 121.5 121.5 0 0 0 5.47 13 53.91 53.91 0 0 0 11.08 14.91 49.12 49.12 0 0 0 16.68 10 65.89 65.89 0 0 0 17.12 3.6c4.66.39 9.34.39 14 0 2.48-.21 4.94-.53 7.39-1a98.2 98.2 0 0 0 11.51-2.86 60.06 60.06 0 0 0 15.15-6.81 37.26 37.26 0 0 0 5.77-4.86 13 13 0 0 1 1.38-1.24c.2-.15.7-.57 1-.38.3.19 0 1.15-.05 1.43a35.92 35.92 0 0 1-3.37 7.32 80.62 80.62 0 0 1-5.9 9.19c-3.16 4.23-7.06 7.75-10.72 11.53a156.29 156.29 0 0 0-13.76 16.6 246 246 0 0 0-9.17 13.26c-2.88 4.54-5.76 9.32-8.7 13.94-3.5 5.5-7.07 11-10.77 16.34-1.51 2.19-3.12 4.33-4.5 6.6-1.4 2.43-2.51 5-3.35 7.67-1.74 5.4-2.78 11-3.09 16.67a212.3 212.3 0 0 0 0 23.74 345.33 345.33 0 0 0 3.57 37.72 254.63 254.63 0 0 0 2.41 13.42c0 .19.31.86.23 1-.08.14-.93.25-1.15.24a6 6 0 0 1-1.86-.49 34.13 34.13 0 0 1-5.75-3.24c-5.54-3.6-10.91-7.48-16.31-11.29a504.32 504.32 0 0 1-27.34-20.42c-6-4.76-11.8-9.69-17.78-14.44-3.9-3.1-8.28-6.27-9.57-11.35a38.4 38.4 0 0 1 1.48-20.05A80.54 80.54 0 0 0 42 429a166.7 166.7 0 0 1 3.66-16.55c1.07-3.88 2.36-7.7 3.85-11.45 1.29-3.18 2.75-6.28 4.12-9.43a353.9 353.9 0 0 0 6.77-16.95c2.36-6.35 4.76-12.7 6.93-19.12a103.2 103.2 0 0 0 3.74-13.92 126 126 0 0 0 2.06-22.17c0-5.05-.28-10.09-.41-15.14-.08-1.36-.04-2.73.12-4.08.09-.59.26-1.52.95-1.68zm230.85 19.65a93.47 93.47 0 0 0-.43 22.43 88 88 0 0 0 7 26.41 248.6 248.6 0 0 0 11.66 22.6c3.38 5.93 7 11.73 10.65 17.48 3 4.72 6.07 9.44 8.82 14.32a146.83 146.83 0 0 1 11.44 26 165.62 165.62 0 0 1 5.71 22.73c1 5.63 1.72 11.31 2.31 17 .5 5.45.68 10.92.5 16.39a474.1 474.1 0 0 1-.92 19.58c-.35 5.56-.77 11.11-1.08 16.67-.1 1.78-.2 3.55-.2 5.33-.15 1 .06 2 .59 2.86a7.09 7.09 0 0 0 3.74 2.23c1.8.47 3.64.7 5.5.7 2.56 0 5.09-.29 7.63-.5a17 17 0 0 1 4.26 0 42 42 0 0 0 4.61.58c4.81.29 9.64.14 14.45 0 8.81-.26 17.62-.7 26.41-1.21 5.49-.32 11-.67 16.46-1.24 2.52-.19 5.03-.58 7.49-1.17.84-.11 1.6-.52 2.17-1.15.2-.38.31-.8.34-1.23a7.82 7.82 0 0 0-1-4.41 50 50 0 0 0-3.32-5.33c-1-1.45-2-2.86-2.93-4.33a43.42 43.42 0 0 1-3.13-6 81.57 81.57 0 0 1-3.58-10.44 175.52 175.52 0 0 1-3.68-16.66 375.27 375.27 0 0 1-3.45-24.74 848.3 848.3 0 0 1-2.25-23.06c-.68-8.3-1.17-16.62-1.37-25-.24-9.55 0-19.09.27-28.63.24-7.64.47-15.29 1.1-22.91a113 113 0 0 1 2.56-17.05c.82-3.44 1.91-6.8 2.94-10.18a77.25 77.25 0 0 0 1.54-5.6c.38-1.22.5-2.5.35-3.77-.4-1.76-2.07-.38-2.79.31a76.1 76.1 0 0 0-5.21 6.08 88.88 88.88 0 0 1-14.2 14.08 76.26 76.26 0 0 1-13 8 68.37 68.37 0 0 1-20.91 6.35c-8.38 1.08-16.9.4-25-2A68 68 0 0 1 338 361a94.47 94.47 0 0 1-12.82-10.37A81.39 81.39 0 0 1 310.85 332a83.44 83.44 0 0 1-6.21-13.84z"/><path fill="#34B2D4" d="M361.12 540c-.76-.19-.91-1.39-1-2-.21-1.7-.28-3.4-.21-5.11.08-6 .48-12 .68-18 .22-6.85.24-13.72 0-20.57-.32-7.72-1-15.45-1.93-23.12-.92-7.73-2.6-15.35-5-22.76a111.22 111.22 0 0 0-9.11-20.29c-3.82-6.66-7.86-13.21-11.79-19.81-3.47-5.84-6.93-11.68-10.32-17.57-3.16-5.5-6.32-11-9-16.78a40.14 40.14 0 0 1-2.14-5.22c-.24-.78-.69-2-.3-2.83.81-1.67 4.49 1.78 5.08 2.29a110 110 0 0 1 11.37 12 328.4 328.4 0 0 1 12.79 16.06 459.01 459.01 0 0 1 12.73 17.88A127.2 127.2 0 0 1 364 433c3.1 6.86 5.46 14.04 7.05 21.4a130.57 130.57 0 0 1 2.65 22.53c.33 7.4.2 14.8-.39 22.17a140.6 140.6 0 0 1-3.12 20 76.76 76.76 0 0 1-5.68 17 15 15 0 0 1-1.9 3.07c-.35.34-.91.98-1.49.83zm88.41 6.55c-.67.33-1.61-.6-2-1a25.83 25.83 0 0 1-3.38-4.08 113.4 113.4 0 0 1-9.46-16.73 198.2 198.2 0 0 1-8.34-20.37 227.3 227.3 0 0 1-6.61-22.84 236.43 236.43 0 0 1-6.17-49.07c-.19-7.98.05-15.97.72-23.93.66-7.9 1.79-15.76 3.36-23.53a165.6 165.6 0 0 1 5.73-21.24c1-2.82 2-5.62 3.28-8.34a46.7 46.7 0 0 1 2.33-4.58 10.39 10.39 0 0 1 2.07-2.75c2.37-2 1.93 4.37 1.88 5.23-.32 6.07-1.19 12.13-1.88 18.17-.85 7.5-1.6 15-2.1 22.53-.54 8.05-.81 16.12-.76 24.19.05 8.26.39 16.51 1 24.76.67 8.37 1.62 16.7 2.86 25 1.16 7.6 2.56 15.16 4.2 22.67a422.62 422.62 0 0 0 4.75 19.58c1.81 6.79 3.8 13.52 5.72 20.28.79 2.77 1.57 5.54 2.25 8.34a33 33 0 0 1 1 5.44c.13.65.26 1.93-.45 2.27zM38.59 464.69c-.7-.08-1-1.06-1.24-1.61a17.9 17.9 0 0 1-.76-4.23 77.05 77.05 0 0 1 .54-15.5 151.85 151.85 0 0 1 9.23-36.56c2.48-6.34 5.3-12.55 8.44-18.59 3.1-5.9 5.86-11.98 8.25-18.2a169.19 169.19 0 0 0 8.6-36.66c.75-5.62 1.25-11.27 2.07-16.89a35.4 35.4 0 0 1 1-5c.21-.72.52-1.91 1.3-2.25.61-.26 1.13.29 1.47.73a12.42 12.42 0 0 1 1.66 3.39A61.26 61.26 0 0 1 82 327a113.19 113.19 0 0 1-7.37 54.92c-2.48 6.2-5.65 12.05-8.72 18a292.5 292.5 0 0 0-15.39 35.76c-2 5.64-3.9 11.34-5.85 17a133.7 133.7 0 0 1-2.44 6.69 22.81 22.81 0 0 1-2 4.08c-.35.48-.92 1.33-1.64 1.24zm76.95 63.85c-.56.22-1.2-.44-1.54-.78a16.8 16.8 0 0 1-2.28-3.06 63.92 63.92 0 0 1-4.14-8.06 124.19 124.19 0 0 1-6.76-20.05 146.53 146.53 0 0 1-3.64-21.08c-.79-7.67-.9-15.4-.35-23.08.63-7.83 2.03-15.59 4.17-23.15a130.32 130.32 0 0 1 8.87-22.69c3.56-7.1 7.57-13.98 12-20.57a153.57 153.57 0 0 1 32.31-35.34 108 108 0 0 1 16.18-10.87c1.53-.83 3.1-1.58 4.72-2.23 1.02-.46 2.1-.77 3.21-.91.47 0 1.17 0 1.27.56.1.56-.52 1.52-.88 2a58.27 58.27 0 0 1-6.13 6.87c-2.2 2.27-4.41 4.52-6.59 6.81a289.54 289.54 0 0 0-15.62 17.58 193.93 193.93 0 0 0-14.12 19.68 239.54 239.54 0 0 0-11.86 21.26 140.31 140.31 0 0 0-9 23 124.9 124.9 0 0 0-4.35 23.42c-.66 7.96-.75 15.95-.27 23.92a237.4 237.4 0 0 0 2.32 22.08c1 6.45 2.29 12.88 3 19.36.18 1.22.24 2.45.19 3.68-.11.56-.16 1.44-.71 1.65z" opacity=".7"/><path fill="#1D1D1D" d="M285 539.19c.29.25 0 .88-.08 1.15-.35.82-.8 1.6-1.33 2.31a40.83 40.83 0 0 1-6.61 7.12 60.53 60.53 0 0 1-19 11.17 63.76 63.76 0 0 1-46.27-1.02 54 54 0 0 1-9.49-5.15 20 20 0 0 1-5.22-4.6c-.18-.26-.59-.8-.38-1.14.21-.34.91-.18 1.22-.12.94.23 1.86.53 2.76.89 1.43.53 2.85 1.08 4.28 1.6a92 92 0 0 0 20.12 5.24c8 1.05 16.1.76 24-.86a76.61 76.61 0 0 0 19.75-7.21c3-1.57 5.88-3.33 8.71-5.17l3.79-2.49a21.5 21.5 0 0 1 2.57-1.53c.24-.15.86-.48 1.18-.19z" opacity=".3"/><path fill="#FEFECE" d="M144.19 263.31a18.81 18.81 0 1 1-37.62-.13 18.81 18.81 0 0 1 37.62.13z" opacity=".9"/><path fill="#FEFECE" d="M132.73 260a10.64 10.64 0 1 1-8.59-10.44 10.74 10.74 0 0 1 8.59 10.44z" opacity=".9"/><path fill="#0A0605" d="M339 257.58a52 52 0 0 1 21.29-5.06c6.71-.05 13.4.78 19.89 2.48 6.16 1.5 12.19 3.49 18.22 5.46 5.2 1.7 10.59 3.43 15.16 6.53a25.79 25.79 0 0 1 8.94 10.83 36.93 36.93 0 0 1 3 14.45 58 58 0 0 1-2.12 16.12 74.6 74.6 0 0 1-16.12 29.9 68.36 68.36 0 0 1-12.57 10.82 75.35 75.35 0 0 1-15.51 8 66.05 66.05 0 0 1-17.29 4.06 52.7 52.7 0 0 1-17.65-1.28 47.28 47.28 0 0 1-16.44-7.76A51.06 51.06 0 0 1 315.47 339a56.13 56.13 0 0 1-9.08-34.27 53.54 53.54 0 0 1 4.35-17.73 58.12 58.12 0 0 1 9.26-14.68 60.66 60.66 0 0 1 12.42-11c2.1-1.4 4.3-2.64 6.58-3.74z"/><path fill="#FEFECE" d="M371.77 287.87a18.81 18.81 0 1 1-37.62-.13 18.81 18.81 0 0 1 37.62.13z" opacity=".9"/><path fill="#FEFECE" d="M360.3 284.6a10.64 10.64 0 1 1-8.59-10.44 10.74 10.74 0 0 1 8.59 10.44z" opacity=".9"/><path fill="#FEFECE" d="M321 188.82a7.7 7.7 0 0 0-3.73 4.37 25.81 25.81 0 0 0-1.6 5.83c-.56 4.42.09 8.91 1.86 13a45.1 45.1 0 0 0 7.06 11.55c2.51 3.1 5.36 5.9 8.49 8.36a34 34 0 0 0 7.34 4.43 38.46 38.46 0 0 0 7.87 2.36c3.16.63 6.36 1 9.56 1.36 4.12.46 8.24.89 12.35 1.41a265.4 265.4 0 0 1 16.34 2.56 335.54 335.54 0 0 1 44.96 12c10.3 3.52 20.4 7.6 30.26 12.24a260.2 260.2 0 0 1 25.33 13.81 47.2 47.2 0 0 0 5.57 3.23c.63.28 1.71.71 2-.18.18-.99.05-2-.38-2.91a29.83 29.83 0 0 0-2.28-4.91 81.06 81.06 0 0 0-9.76-13.56 97.86 97.86 0 0 0-15.66-14.54 72.44 72.44 0 0 0-20.23-10.71 54.92 54.92 0 0 0-11.4-2.52c-3.24-.3-6.5-.33-9.75-.11-3.42.18-6.82.36-10.25.22a88.29 88.29 0 0 1-14.71-2 120 120 0 0 1-25.68-8.6 109.88 109.88 0 0 1-18-10.62 179.16 179.16 0 0 1-18.87-16.28c-2.19-2.1-4.37-4.24-6.69-6.19a20 20 0 0 0-5.45-3.57 5.83 5.83 0 0 0-4.55-.03zm-127.69-19.65c3.12 1.11 4.7 4.3 5.8 7.19 1.3 3.3 1.8 6.87 1.47 10.41-.73 7.48-4.5 14.58-9.25 20.28-3.82 4.58-8.56 8.41-14.28 10.27-5.29 1.72-10.94 1.82-16.45 1.79-7.24 0-14.47-.19-21.71.37-8.01.63-15.95 2.02-23.7 4.15a134.27 134.27 0 0 0-19.33 7c-5.22 2.34-10.29 5-15.25 7.85-3.77 2.16-7.46 4.46-11.23 6.64-2.27 1.31-4.72 2.86-7.32 3.38a3.5 3.5 0 0 1-2.26-.15 3 3 0 0 1-1.47-2.35c-.17-1.7.05-3.43.63-5.05a32.91 32.91 0 0 1 3-6.64 52.1 52.1 0 0 1 11.82-14c4.55-3.79 10-7 15.79-8.28 4.65-1 9.53-.71 14.26-.94 4-.2 7.92-.6 11.87-1.12 3.95-.52 7.94-1.06 11.87-1.78a85.5 85.5 0 0 0 24.81-8.07 77.87 77.87 0 0 0 16.85-12.25c4-3.8 7.71-8 11.53-12a49.41 49.41 0 0 1 4.53-4.33 12.87 12.87 0 0 1 4.13-2.43 6.11 6.11 0 0 1 3.89.06z" opacity=".7"/><path fill="#DC5412" d="M355.21 47.35A66.61 66.61 0 0 1 352 66a105.1 105.1 0 0 1-7.92 18.51c-3.4 6.28-7.42 12.2-12 17.68a96.86 96.86 0 0 1-14.58 14.13 64.14 64.14 0 0 1-7.78 5.26c-1.02.6-2.08 1.12-3.18 1.56-.45.17-1.25.54-1.74.35-.9-.35 1.36-2.77 1.61-3.07 2-2.42 4.13-4.75 6.14-7.17a135.89 135.89 0 0 0 12-16.62A117.8 117.8 0 0 0 334 77.2c2.2-5.9 3.97-11.97 5.28-18.13a382.58 382.58 0 0 1 3.2-13.26l.33-1.26c.1-.36.16-.28.49-.2l.81.18a213.57 213.57 0 0 1 11.1 2.82z" opacity=".7"/><path fill="#FEFECE" d="M328.38 42.28c-.68 0-1 1.53-1.07 2-.43 1.67-.69 3.38-1 5.08-.65 4-1.28 8-2 12a165.48 165.48 0 0 1-4.72 19.3 114 114 0 0 1-24.36 42.1 140.84 140.84 0 0 1-7.75 7.9c-1 1-2 1.9-3 2.87-.12.12-1.21 1-1.09 1.24.2.41 4.29-2.48 4.55-2.66a87.87 87.87 0 0 0 8.42-6.88 106.23 106.23 0 0 0 15.89-18.41 112.17 112.17 0 0 0 11.3-21.34 97 97 0 0 0 5.51-19 81.05 81.05 0 0 0 1.26-12 57.9 57.9 0 0 0-.13-5.89 23.32 23.32 0 0 0-.71-4.64c-.16-.44-.48-1.68-1.1-1.67zm40.51 9.4a65.68 65.68 0 0 1-1.84 6.6 90.26 90.26 0 0 1-2.26 6.54c-1.6 4.23-3.48 8.35-5.62 12.34-3.72 7-8.24 13.53-13.47 19.47a65.37 65.37 0 0 1-3.54 3.71 9.26 9.26 0 0 1-2 1.73c-.5.24-.12-.32 0-.53.61-1 1.32-1.88 2-2.81a140.23 140.23 0 0 0 12.27-19.9 112.4 112.4 0 0 0 9-25.56c.24-1.07.45-2.15.68-3.23a225 225 0 0 1 4.78 1.64z" opacity=".7"/><path fill="#DC5412" d="M235.6 63.54a105.18 105.18 0 0 0-.83 32.73c.62 4.92 1.53 9.81 2.63 14.65.53 2.34 1.12 4.66 1.6 7 .17.75.3 1.5.38 2.26.09.42.07.86-.05 1.28-.34.7-1.22-.4-1.47-.68a28.79 28.79 0 0 1-3.12-4.51 79.36 79.36 0 0 1-6-12.68 97 97 0 0 1-6.18-31.88c-.14-5.35.2-10.7 1-16l.31-1.94c.05-.7.16-1.4.35-2.08.11-.28 0-.11.23-.25.19-.09.39-.15.59-.2l1-.34 2.06-.69c2.67-.89 5.38-1.72 8.15-2.51l4-1.12a119.42 119.42 0 0 0-4.65 16.96z" opacity=".7"/><path fill="#FEFECE" d="M255.59 43a147.06 147.06 0 0 0-9.68 34.08 138.11 138.11 0 0 0-.06 37.92c.36 2.73.78 5.45 1.2 8.18 0 .26.69 3.31.3 3.43-.39.12-1.2-2.71-1.27-2.92a86.76 86.76 0 0 1-2.22-8 121 121 0 0 1 .23-55.97 105.98 105.98 0 0 1 3.69-12.25c.27-.7.54-1.4.83-2.09l.24-.58c.12-.29.1-.31.37-.43a7.1 7.1 0 0 1 1.44-.32c1.63-.38 3.27-.73 4.93-1.05zm-32.71 64.2c-.45.18-2.4-4.8-2.54-5.12a107 107 0 0 1-3.65-10.64 122.3 122.3 0 0 1-4.61-40.52c1 .94 2 1.9 2.92 2.87.19.19.46.61.74.69.37.02.74-.05 1.08-.2-.6 8.3-.42 16.64.53 24.91.9 7.36 2.3 14.64 4.19 21.81.38 1.48.78 3 1.13 4.44.03.2.48 1.66.21 1.76z" opacity=".7"/><path fill="#DC5412" d="M306.43 39.41c-2.68 8.5-5.91 16.83-9.12 25.14-2.37 6.13-4.78 12.25-7.18 18.37a508.22 508.22 0 0 0-7.27 19.77c-2.71 7.94-5.18 16-7.48 24a623.42 623.42 0 0 0-6.75 25.79 940.94 940.94 0 0 0-6 26.78c-1.76 8.45-3.41 16.92-5 25.4-1.33 6.91-2.63 13.82-4.06 20.71-.82 4.48-1.9 8.9-3.27 13.25-.18.53-1.47 4.5-2.55 3.07a7 7 0 0 1-.92-2.65c-.36-1.7-.63-3.42-.81-5.15-.64-5.49-.91-11-1.08-16.56-.24-7.58-.24-15.18-.08-22.76a510.38 510.38 0 0 1 7.97-79.34 345.27 345.27 0 0 1 5.48-24.61 260.15 260.15 0 0 1 5.75-19.15 139.32 139.32 0 0 1 15.88-31.6c.22-.23.41-.19.75-.22l1.9-.13 3.37-.18c2.32-.1 4.65-.18 7-.21 4.47-.04 8.96.05 13.47.28zm6.63 158.83c-.65-1.05-2.85-.2-3.67.1-1.73.66-3.37 1.5-4.9 2.54a40.92 40.92 0 0 0-7 6 72.73 72.73 0 0 0-13.13 18.58 34.85 34.85 0 0 0-1.5 3.47c-.09.24-.61 1.4-.36 1.65.42.43 3-3.09 3.24-3.38a121.51 121.51 0 0 1 15.41-16.44c2.21-1.91 4.5-3.72 6.7-5.64 1.17-1 2.3-2.06 3.36-3.17a7.42 7.42 0 0 0 1.89-2.73c.12-.32.1-.67-.04-.98zm-36.3-17.6c-1.05-.52-2.4 1.27-2.92 1.92a24 24 0 0 0-2.82 4.72 39.55 39.55 0 0 0-2.74 8.62A73.53 73.53 0 0 0 267 219c.16 1.47.36 2.93.64 4.38.14.9.37 1.79.69 2.64.14.32.33.65.52.18.24-.83.36-1.7.35-2.56.29-3.49.49-7 1-10.45.52-3.97 1.28-7.91 2.26-11.8.78-3.07 1.78-6.06 2.73-9.08a109.5 109.5 0 0 0 1.55-5.36c.54-1.63.8-3.34.76-5.05-.01-.52-.3-1-.74-1.26zm-81.82-32.75c-1.78 1.73-.74 4.94-.07 6.93a68.21 68.21 0 0 0 3.69 8.45c2.22 4.46 4.85 8.68 7 13.16a86.38 86.38 0 0 1 6.44 18.23c1.35 6.1 2.2 12.3 2.54 18.55a75 75 0 0 0 .58 7.8c.06.37.14 1.22.56 1.39.42.17.81-.38 1-.64a20.14 20.14 0 0 0 2.7-6.45c.74-2.57 1.3-5.18 1.7-7.82a77.6 77.6 0 0 0-3.76-37.83 49.3 49.3 0 0 0-6.4-12.61 35.39 35.39 0 0 0-5.94-6.42c-2-1.68-4.63-3.5-7.36-3.63a3.52 3.52 0 0 0-2.68.89zm36.45 34.97c-1.09.32-1.11 2.28-1.17 3.15a49.72 49.72 0 0 0 0 5.18c.08 2.94.33 5.86.24 8.8a52 52 0 0 1-1.46 10.68c-.78 3.03-1.78 6-3 8.87-.38.83-.71 1.67-1 2.53-.07.25-.24.69.16.62.4-.07 1-.81 1.35-1.15.72-.81 1.4-1.68 2-2.58a42.53 42.53 0 0 0 7.08-18.48c.44-2.81.53-5.67.27-8.51a22.8 22.8 0 0 0-1.06-4.87 8.59 8.59 0 0 0-2.19-3.83 1.39 1.39 0 0 0-1.22-.41z" opacity=".7"/><path fill="#FEFECE" d="M339 146.25c.88.75 2.56-.33 3.33-.77 1.41-.8 2.76-1.74 4.09-2.67 2.21-1.55 4.33-3.23 6.6-4.69a54.87 54.87 0 0 1 18.27-7.2c1-.21 2-.39 2.91-.65.2-.06.93-.17.79-.5-.14-.33-1.24-.46-1.54-.51a22.93 22.93 0 0 0-3.37-.29 42 42 0 0 0-19.36 4.44 33.55 33.55 0 0 0-6.72 4.19 22.48 22.48 0 0 0-3.33 3.41 8.59 8.59 0 0 0-2 4c-.1.44.03.9.33 1.24zm1.66 14.75c.43.34 1.09.08 1.52-.1.85-.39 1.66-.85 2.43-1.38 1.75-1.12 3.47-2.27 5.25-3.34a48.31 48.31 0 0 1 8.78-4.36c8.25-2.89 17-2.16 25.21.6 1.63.55 3.22 1.22 4.84 1.81.46.17 1.52.55.84-.27a14.46 14.46 0 0 0-3.58-2.77 37.68 37.68 0 0 0-29.83-4.19 29.2 29.2 0 0 0-8.44 4 24.92 24.92 0 0 0-4.54 4 10.86 10.86 0 0 0-2.75 4.71c-.15.45-.05.94.27 1.29zm2.91 10.41c.28.43.93.43 1.38.4a13 13 0 0 0 2.53-.5c2-.52 3.89-1.13 5.85-1.68 3.12-.94 6.3-1.66 9.52-2.16 8.15-.95 16.4.27 23.92 3.53 1.59.65 3.13 1.4 4.71 2.08.28.12 1.67.8 1.15 0a12.22 12.22 0 0 0-3.15-2.86 42.86 42.86 0 0 0-27.76-7.98c-3.13.17-6.21.8-9.16 1.84a26.2 26.2 0 0 0-5 2.49 10.75 10.75 0 0 0-3.81 3.54c-.28.37-.35.86-.18 1.3zm2.27 14.52c.15.5.75.69 1.2.8.82.17 1.65.25 2.49.24h5.57c2.78 0 5.56-.08 8.33.16 7.66.76 15.02 3.4 21.42 7.68 1.11.72 2.2 1.48 3.3 2.23.37.25.74.51 1.12.75.2.17.44.3.69.37.61.07-.22-1.09-.34-1.27a24.25 24.25 0 0 0-3.38-3.91 42.11 42.11 0 0 0-20.17-10.82 34 34 0 0 0-9.69-.86c-1.9.12-3.8.45-5.63 1-1.66.4-3.2 1.2-4.46 2.36-.37.31-.54.8-.45 1.27z" opacity=".7"/><path fill="#9E3207" d="M597 46.51a9.58 9.58 0 0 1-4.54 5 9.81 9.81 0 0 1-6.35.41c-.96-.22-1.94-.35-2.93-.41-2.87-.1-5.75.03-8.6.39-3.89.42-7.76 1-11.61 1.74a299.8 299.8 0 0 0-10.25 2.07l-.85.19a396.96 396.96 0 0 0-17.31 4.25c-8.54 2.28-17 4.76-25.41 7.61-4 1.37-8 2.87-11.92 4.4a419 419 0 0 0-17.54 7.3l-3.85 1.72-3.37 1.57c-10 4.68-18.89 10.74-28.24 16.51-4.23 2.61-7.79 5.35-12 8a197 197 0 0 0-8.26 5.49c-.5.34-.98.73-1.42 1.15-1.4 1.43-3 1.66-5.28 1.25a4.21 4.21 0 0 1-2.64-2.13 24.53 24.53 0 0 1-2.08-4.68 150.1 150.1 0 0 0-5.73-14.76 76.24 76.24 0 0 0-8.52-13.65 40.61 40.61 0 0 0-7.07-7.67 34.46 34.46 0 0 0-12-6c-7.93-2.41-14.63-3.54-29.59-5.8 0 0-14.66-2.48-27.66-3.76-2.49-.24-5-.55-7.48-.77-2.33-.19-4.67-.33-7-.48-4.58-.29-9.18-.4-13.77-.37-9.55.05-19.07.8-28.51 2.24A286.06 286.06 0 0 0 236 63.44a267.2 267.2 0 0 0-29.51 9.44 300.76 300.76 0 0 0-45 21.99l-1.77 1c-2 1.18-3.98 2.38-5.93 3.59-2.91 1.78-5.79 3.61-8.71 5.39-.87.53-1.74 1.06-2.64 1.54-.31.17-1 .63-1.35.57-.63-.1 1-1.85 1.21-2a62.05 62.05 0 0 1 4.55-4.33l1.44-1.24a195.6 195.6 0 0 1 13.56-10.58 261.46 261.46 0 0 1 30-18.44c8.92-4.7 18.13-8.84 27.57-12.37 1.52-.56 3-1.12 4.57-1.65a314.05 314.05 0 0 1 25.5-7.83 210.73 210.73 0 0 1 30.78-5.87 189.56 189.56 0 0 1 28.8-1.03c9.86.27 19.69 1.26 29.41 2.94 5.23 1 10.43 2 15.59 3.28 5 1.24 9.88 2.62 14.73 4.23 4.63 1.51 9.2 3.26 13.65 5.23 3.3 1.39 6.47 3.1 9.43 5.12.85.55 1.6 1.23 2.26 2 .4.41.57.99.47 1.55.94-.42 1.8-1 2.57-1.69a25.49 25.49 0 0 1 2.93-2.08l.55-.36c2.26-1.46 4.57-2.85 6.9-4.2A276.61 276.61 0 0 1 430.29 46a265 265 0 0 1 31.26-12.11c3.93-1.23 7.9-2.31 11.9-3.28a255.37 255.37 0 0 1 51.61-6.95 182.3 182.3 0 0 1 33.66 2.09 136 136 0 0 1 22.84 5.6 53.19 53.19 0 0 1 10 4.42c2.36 1.4 5.07 3.31 5.94 6.06a6.87 6.87 0 0 1-.5 4.68zm-54.53 177.57a18.7 18.7 0 0 1-1.25 4.5l-.1.22a4.88 4.88 0 0 1-2.09 2.47c-2.28 1.07-4.65-1.7-6-3.16-3.45-3.81-6.46-8-9.73-12-4-4.82-8.2-9.45-12.6-13.88a287.96 287.96 0 0 0-21.09-18.87c-2.28-1.89-4.6-3.75-6.77-5.77-1.13-1.07-2.61-2.33-3.11-3.87-.17-.42-.15-.9.06-1.31a2 2 0 0 1 2-.74c.24 0 .48 0 .72.07l.46.08h.07c1.03.74 2.1 1.4 3.22 2l.28.13c.75.36 1.54.62 2.36.77h.33c.56.14 1.2.25 1.93.37 3.98.52 8.02.52 12 0 2.35-.18 4.7-.52 7-1a43 43 0 0 0 12.98-5.09A44.43 44.43 0 0 0 535 158a69.47 69.47 0 0 0 3-4c.21-.2.43-.38.66-.56.23-.18 1-.79 1.48-.71.69.11.55 1 .42 1.45a29.78 29.78 0 0 1-1.59 3.94 49.82 49.82 0 0 0-2.25 6.23 30.71 30.71 0 0 0-.67 15.11c.56 2.22 1.22 4.4 2 6.55a108.98 108.98 0 0 1 2.45 8.1 90.25 90.25 0 0 1 2.5 16.06 60 60 0 0 1-.53 13.91z" opacity=".7"/><path fill="#79240D" d="M222.78 403.3c-1 0-1.62 1-2 1.76a9.8 9.8 0 0 0-.79 3.43c-.03 1.3.05 2.58.24 3.86a95.2 95.2 0 0 0 1.7 10.87c.13.62.3 1.23.51 1.83.08.22.22.74.47.84.59.24.94-1.54 1-1.84a67.38 67.38 0 0 0 1.5-10.72c.11-1.31.24-2.63.25-3.94 0-1.79-.24-4.44-1.74-5.66a1.84 1.84 0 0 0-1.14-.43z"/><path fill="#147BA1" d="M454.45 544.92c-.33.2-1.8-2.16-1.93-2.35-1.06-1.58-2-3.21-3-4.85-1.92-3.3-3.64-6.68-5.27-10.13a159.13 159.13 0 0 1-13.85-46.89 306.56 306.56 0 0 1-2.18-25.32 628.8 628.8 0 0 1-.85-26.42 458.04 458.04 0 0 1 4.6-68.26 340.9 340.9 0 0 1 5.72-30.67c.36-1.46.73-2.92 1.18-4.36.13-.42.26-.83.43-1.24 0-.11.16-.49.29-.54.33-.11.16 1.33.15 1.5-.12 1.61-.34 3.22-.55 4.82-.8 6.13-1.65 12.26-2.42 18.4a695.48 695.48 0 0 0-2.31 20.85 587.01 587.01 0 0 0-2.54 45.72c-.14 8.71 0 17.41.24 26.12s.56 17.31 1.16 25.95c.5 8.33 1.51 16.62 3 24.83 1.5 7.89 3.54 15.66 6.12 23.26a235.57 235.57 0 0 0 8.76 21.92c.72 1.59 1.46 3.17 2.16 4.76.16.23 1.42 2.71 1.09 2.9zm-89.87-44.34c-.13 8.3-.65 16.59-1.47 24.86-.65 6.51-1.45 13-2.7 19.46a30.7 30.7 0 0 1-.52 2.35c0 .14-.17.9-.37.93-.38.07-.24-2.43-.23-2.64.07-2.29.23-4.58.36-6.86.41-6.78.78-13.56 1-20.34.31-8.33.36-16.68 0-25a208.4 208.4 0 0 0-2.44-25.3 121.13 121.13 0 0 0-6.69-25c-1.65-4-3.55-7.89-5.7-11.64l-6.25-11.4c-4.12-7.48-8.2-15-12.61-22.3-4.41-7.3-9.21-14.06-13.41-21.32a82.54 82.54 0 0 1-8.74-22.67 73.19 73.19 0 0 1-2-19.94c.06-1.5.2-3 .41-4.49.07-.44.14-.88.25-1.31.02-.24.1-.48.22-.69.27-.27.28.42.3.62.11 1.09.13 2.19.18 3.28a97.1 97.1 0 0 0 2.83 19.47 87.38 87.38 0 0 0 9 22.59c2.06 3.51 4.39 6.88 6.67 10.25 2.4 3.55 4.8 7.09 7.09 10.71 4.54 7.15 8.69 14.56 12.83 21.94a1811 1811 0 0 1 6.31 11.36c2.08 3.77 4.16 7.53 5.87 11.48a110.54 110.54 0 0 1 7.14 24.65 181.93 181.93 0 0 1 2.53 25.46c.16 3.83.2 7.66.14 11.49zM190.51 320.07a81.1 81.1 0 0 1-8.32 18.13c-4.44 7.12-10 13.57-15.68 19.74-2.91 3.17-6 6.18-8.87 9.37a170.95 170.95 0 0 0-8.42 10c-5.26 6.77-10 14-14.61 21.22a230.46 230.46 0 0 0-13.08 22.8 92.26 92.26 0 0 0-7.72 24.67 159.33 159.33 0 0 0-2.15 25.5c-.07 8.38.38 16.76 1.34 25.09.87 7.74 2.14 15.41 3.48 23.08.24 1.35.48 2.71.65 4.07 0 .15.27 1.44 0 1.52-.45.15-1.74-4.37-1.84-4.69a166 166 0 0 1-5.14-22.65 190.53 190.53 0 0 1-2.35-24.73 151.4 151.4 0 0 1 1.34-25.62 96.08 96.08 0 0 1 6.86-25.11 179.3 179.3 0 0 1 12.61-23 340.18 340.18 0 0 1 14.43-21.24c5.23-6.9 10.98-13.4 17.2-19.43 6.09-5.9 11.77-12.2 17-18.86A89.85 89.85 0 0 0 188 321.3c1.26-2.88 2.38-5.82 3.54-8.74.16-.4.32-.81.5-1.2.05-.11.19-.51.33-.55.14-.04.14.7.12.86a42.76 42.76 0 0 1-1.98 8.4zM75.06 317.9a151.7 151.7 0 0 1-5.66 37.19c-3.72 13-9.48 25.28-14.26 37.89a429.3 429.3 0 0 0-11.75 35.87 718.23 718.23 0 0 0-4.68 17.68c-.6 2.37-1.19 4.75-1.83 7.11-.3 1.32-.7 2.62-1.17 3.89-.15.36-.45.94-.55.24-.08-1.2-.03-2.4.15-3.6.53-5.52 1.52-11 2.58-16.44a299.76 299.76 0 0 1 9.49-36.12c2-6.21 4.29-12.34 6.67-18.43 2.47-6.31 5.16-12.54 7.55-18.89a166.9 166.9 0 0 0 9.29-37.9c.75-5.91 1.19-11.86 1.43-17.82.17-4.26.18-8.53.26-12.8-.05-.9.01-1.81.18-2.7.24-.91.64.79.69 1a53 53 0 0 1 1 7.09c.24 2.48.4 5 .5 7.46.17 3.1.2 6.19.11 9.28z"/><path fill="#0A0605" d="M230.75 498c0 2.33-.06 4.67-.17 7 0 .24 0 .55-.13.65-.3.07-.62.1-.93.07a54.49 54.49 0 0 0-5.44.72A269.23 269.23 0 0 1 223 479c-.11-7.08.28-14.16 1.18-21.19.1-1.7.53-3.35 1.26-4.89.55-.9 1.16-.38 1.53.37a20.16 20.16 0 0 1 1.46 5.46c.56 3.14.92 6.33 1.22 9.5a280.48 280.48 0 0 1 1.1 29.75z"/><path fill="#0A0605" d="M281.72 531c-.29.17-.74-.2-1-.36-.62-.5-1.2-1.04-1.72-1.64a312.73 312.73 0 0 0-3.53-3.75 73.74 73.74 0 0 0-9-8.09A57.8 57.8 0 0 0 243 506.51a50.21 50.21 0 0 0-26.9 2.08 59.6 59.6 0 0 0-20.66 13.7c-2.42 2.38-4.66 4.92-6.94 7.43-.24.27-2.5 3-2.78 1.76a3.7 3.7 0 0 1 .2-1.58c.26-.93.6-1.83 1-2.71a52.43 52.43 0 0 1 9.7-13.71 51.64 51.64 0 0 1 20.77-13 52.62 52.62 0 0 1 27-1.31 55 55 0 0 1 23.21 11.26 51.72 51.72 0 0 1 8.18 8.39 37.11 37.11 0 0 1 5.48 9.36c.18.39 1.11 2.44.46 2.82z"/><path fill="#79240D" d="M249 403.3c-.29.5-1.12.44-1.61.41-1.11-.1-2.21-.29-3.29-.56-3.62-.8-7.22-1.7-10.88-2.33a79.92 79.92 0 0 0-14.7-1.19c-4.35.1-8.7.47-13 1.1-1.53.2-3.06.43-4.59.58-.92.15-1.85.15-2.77 0-2.53-.6 1.81-3.57 2.44-4a35.31 35.31 0 0 1 11.67-4.31 46.63 46.63 0 0 1 14.73-.6c4.49.52 8.87 1.72 13 3.55 1.9.84 3.7 1.86 5.41 3.05a10.5 10.5 0 0 1 3.42 3.31c.22.28.28.65.17.99zm-4.12-10.65c-.31-.32 1.32-2.1 1.49-2.31 1.46-1.86 2.94-3.7 4.35-5.6a82.48 82.48 0 0 0 16.07-41.25c.24-2.34.4-4.68.56-7 0-.27 0-2.72.44-2.77.44-.05.69 2.12.73 2.37.33 2.26.48 4.55.45 6.84a66.65 66.65 0 0 1-15 41.35 57.41 57.41 0 0 1-4.67 5.05 21.41 21.41 0 0 1-3.77 3.1c-.07.05-.53.36-.65.22zm9.82 9.83c-.22-.38 1.42-1.5 1.63-1.67 1.54-1.24 3.1-2.44 4.62-3.7a80.37 80.37 0 0 0 8.3-7.91 71.81 71.81 0 0 0 13.5-21.93c.71-1.81 1.36-3.64 2.05-5.46.08-.22.63-2 1-1.89.37.11.12 2.11.09 2.4a37.35 37.35 0 0 1-1.16 5.76 54.08 54.08 0 0 1-12.09 21.76 55.75 55.75 0 0 1-8.75 7.87 46.91 46.91 0 0 1-4.83 3.06 16.22 16.22 0 0 1-3.78 1.69c-.08.04-.49.17-.58.02zm-70.4-3.28c-.49 0-.54-2.75-.56-3-.13-2.44-.1-4.89.06-7.33a90.79 90.79 0 0 1 2.34-15.46A85.75 85.75 0 0 1 199 344c.58-.83 1.19-1.65 1.84-2.43.34-.43.73-.83 1.16-1.17.51-.36.4.14.28.49a22 22 0 0 1-1.17 2.56c-.69 1.4-1.39 2.79-2.07 4.19a139 139 0 0 0-10.7 29.5c-1.1 4.73-1.93 9.51-2.61 14.31l-.67 4.86a12.3 12.3 0 0 1-.49 2.56c-.06.13-.13.34-.27.33zm16.37-9.82c-.45.11-1-1.63-1.08-1.88a36.74 36.74 0 0 1-1.39-5 61.09 61.09 0 0 1-1.28-10.79c-.35-7.76.8-15.52 3.39-22.85.36-1.2.9-2.35 1.61-3.39.27-.34.49-.38.54.08a8 8 0 0 1-.17 2c-.16 1.13-.36 2.25-.55 3.38a121.57 121.57 0 0 0-1.81 22.75c.08 3.41.33 6.81.63 10.2.1 1.14.21 2.27.28 3.41.1.61.1 1.24 0 1.85-.02.05-.05.21-.17.24z"/><path fill="#0A0605" d="M192.49 168.35c-.88-.85-2.34-.55-3.38-.25a27.15 27.15 0 0 0-5.49 2.47c-4.1 2.25-8.06 4.79-12 7.28l-10.94 6.85c-3.92 2.44-7.82 5-11.94 7.08a192.3 192.3 0 0 1-13.3 6.31c-4.69 2-9.49 3.7-14.35 5.21-9.44 2.87-19.1 5-28.87 6.38-4.24.62-8.51 1.1-12.76 1.67-1.3.13-2.6.35-3.87.66-.31.08-1.21.28-.87.76.34.48 1.66.79 2.28 1 1.62.42 3.26.73 4.91.95 4.28.6 8.59.93 12.91 1a145.11 145.11 0 0 0 44.5-6.28c4.74-1.45 9.34-3.19 13.93-5.06 4.42-1.85 8.71-3.98 12.86-6.38a84 84 0 0 0 10.24-6.69c3.64-2.78 7-5.9 10.06-9.31a44.28 44.28 0 0 0 4.29-5.62 16.25 16.25 0 0 0 2.3-5 3.19 3.19 0 0 0-.51-3.03zm129.34 18.01c-1.12.85-.54 2.89-.21 4a30.27 30.27 0 0 0 3.6 7.27A74.5 74.5 0 0 0 338.6 213a85.59 85.59 0 0 0 13.09 9.66c4.45 2.64 9.07 4.98 13.83 7 3.13 1.33 6.32 2.47 9.52 3.62 1.65.59 3.37 1 5 1.49s3.35 1 5.05 1.39a150 150 0 0 0 16.11 2.78c2.55.27 5.14.38 7.7.56 2.78.2 5.62.12 8.4.07a128.4 128.4 0 0 0 30.47-4.22 88.58 88.58 0 0 0 16.35-5.78c.74-.36 1.47-.74 2.17-1.17a4 4 0 0 0 1.1-.83c.51-.66-1-.55-1.33-.53-1.95.11-3.89.49-5.81.8-3.12.5-6.24.95-9.37 1.38-6.65.9-13.34 1.4-20.05 1.48-3.55 0-7.1-.06-10.65-.28a109.2 109.2 0 0 1-10-1c-2.46-.35-4.95-.74-7.38-1.23-2-.39-3.9-.89-5.85-1.33-1.77-.4-3.5-.93-5.25-1.45-1.75-.52-3.33-.9-4.94-1.51-1.61-.61-3.35-1.25-5-1.86-1.65-.61-3.21-1.3-4.81-2-3-1.3-5.94-2.72-8.82-4.27a157.85 157.85 0 0 1-11.38-6.83 267.17 267.17 0 0 1-15.62-11.09c-2.57-1.94-5.1-3.93-7.66-5.88a54.31 54.31 0 0 0-7.28-5c-1.14-.56-3.1-1.58-4.36-.61z"/><path fill="#2C1405" d="M74.67 11.24c8.92-3.24 18.67-3.31 28-2.87 10.22.43 20.37 1.81 30.33 4.14 9.33 2.3 18.4 5.53 27.09 9.65a221 221 0 0 1 25 14 240.33 240.33 0 0 1 26.97 19.99c-7.29 3-14.43 6.35-21.44 10a442.92 442.92 0 0 0-26.76 15.18l-2.88 1.8-1.36.88c-.3.19-.63.31-.92.5.06-.17-.5-.55-.6-.68-.24-.31-.44-.65-.68-1a279.03 279.03 0 0 0-6.15-7.63 329.41 329.41 0 0 0-25.19-27.01 290.29 290.29 0 0 0-18.5-16.27 207.6 207.6 0 0 0-10.06-7.63A101.58 101.58 0 0 0 87.68 18c-2.55-1.4-5.18-2.64-7.8-3.9-1.11-.53-2.22-1.06-3.32-1.62a6.34 6.34 0 0 1-1.79-1s-.22-.19-.1-.24zM111 96.9a653.3 653.3 0 0 1-12.7-17.48c-4.12-5.9-8-11.82-11.79-17.9a229.6 229.6 0 0 1-10.23-18c-1.55-3.1-3-6.25-4.3-9.47-1.3-3.22-2.24-6.26-3.31-9.42-.81-2.41-2.41-5.59-1-8.07 1.17-2.06 3.82-1.87 5.81-1.39a34 34 0 0 1 8.57 3.61 93.23 93.23 0 0 1 8.34 5.44 244.63 244.63 0 0 1 16.48 12.83 379.27 379.27 0 0 1 15.62 14.11 529.23 529.23 0 0 1 15.42 15.29c5 5.2 10 10.47 14.71 16a64.92 64.92 0 0 0 3.45 3.78 247.87 247.87 0 0 0-26.73 19.41c-2.4 2-4.76 4.02-7.09 6.06-3.7-4.97-7.46-9.9-11.25-14.8zm489.72-53.63a12.56 12.56 0 0 0-3.87-8 26.9 26.9 0 0 0-7.85-4.92 87.42 87.42 0 0 0-8.5-3.14 145.64 145.64 0 0 0-13.8-3.75c-9.43-2.08-19-3.38-28.65-3.89a189.4 189.4 0 0 0-29.14.77 236.58 236.58 0 0 0-28.82 4.86 248.23 248.23 0 0 0-27.37 8A238 238 0 0 0 427.09 44 220.83 220.83 0 0 0 403 57.75c-2 1.33-3.97 2.69-5.91 4.07-.64.46-1.14 1.08-2 .91a10 10 0 0 1-2.49-1.19c-2.14-1.12-4.38-2.06-6.58-3s-4.43-1.93-6.67-2.84a223.06 223.06 0 0 0-56.08-14.78A217.48 217.48 0 0 0 294 39.15c-9.83.08-19.64.85-29.36 2.3a224.21 224.21 0 0 0-45.82 11.99c-.86.42-1.77.76-2.7 1a.7.7 0 0 1-.52 0 5.2 5.2 0 0 1-.9-.91 190.5 190.5 0 0 0-23.17-19.71A230.2 230.2 0 0 0 169 19.47c-7.81-4.4-16-8.08-24.48-11A149.76 149.76 0 0 0 89.43.87c-7.7.48-16 1.41-22.6 5.69A15 15 0 0 0 60 15.38c-1 4.28.46 8.71 1.9 12.72 1.56 4.34 3.23 8.61 5.18 12.78a176.3 176.3 0 0 0 6.43 12.34 270.4 270.4 0 0 0 15 23.42c5.44 7.63 11.2 15 17.17 22.26 3.13 3.79 6.32 7.52 9.5 11.27.65.77 1.29 1.55 2 2.26a13.14 13.14 0 0 1 1.64 2c.14.26.1.07 0 .27-.1.1-.2.2-.31.28l-.67.61-1.31 1.18-2.53 2.39c-7 6.51-13.7 13.41-20.09 20.54a524.18 524.18 0 0 0-18.37 21.8 1118.25 1118.25 0 0 0-17.44 22.25 376.33 376.33 0 0 0-16.16 22.65 251.79 251.79 0 0 0-14.06 24.25A203.85 203.85 0 0 0 16.74 257c-1.55 4.55-3 9.11-4.68 13.62a182.63 182.63 0 0 0-9.75 40.94A204 204 0 0 0 1 340.33a283 283 0 0 0 2.26 29.15c1.2 9.45 2.77 18.85 4.87 28.14 2.09 9.22 4.72 18.3 7.87 27.21a204.83 204.83 0 0 0 11.27 26.11 169 169 0 0 0 14.85 23.7 143.82 143.82 0 0 0 18.47 20.3A215.06 215.06 0 0 0 83 512.15c7.08 4.94 14.56 9.3 22.36 13 7.82 3.7 16.03 6.49 24.48 8.33 9.25 2 18.77 2.65 27.88 5.31a55.26 55.26 0 0 1 21.74 12.1c3.3 3 6.17 6.47 9.64 9.28a54.86 54.86 0 0 0 11.79 7.1 75.23 75.23 0 0 0 20 5.93 97.75 97.75 0 0 0 25.86 0 85.42 85.42 0 0 0 22.67-5.62c3.44-1.4 6.7-3.18 9.75-5.3a36.52 36.52 0 0 0 4.1-3.37c.8-.77 1.53-1.6 2.31-2.39a79.1 79.1 0 0 1 12.18-10 43 43 0 0 1 8.26-4.49A19 19 0 0 1 310 541c1.7-.23 3.41-.27 5.12-.14a38 38 0 0 1 10.1 2.14c3.93 1.34 7.78 2.88 11.73 4.15 5.7 1.79 11.5 3.16 17.39 4.11a300.84 300.84 0 0 0 27.76 3.38c9.76.74 19.56.92 29.34.54 9.51-.36 18.99-1.36 28.36-3 9.2-1.62 18.24-4.07 27-7.31a143.8 143.8 0 0 0 25.31-12.5 188.09 188.09 0 0 0 22.71-16.52 212.13 212.13 0 0 0 19.67-19.07 252.37 252.37 0 0 0 17.09-21 215.91 215.91 0 0 0 15.31-23.74c4.34-8.27 7.9-16.92 10.63-25.84 5.69-17.5 9.31-35.6 10.79-53.94.49-5.94.78-11.9.77-17.86a181.83 181.83 0 0 0-7.44-51.27 224.71 224.71 0 0 0-9.12-25.59 130.29 130.29 0 0 0-12.83-23.84c-2-2.88-4.24-5.59-6.69-8.1a40.31 40.31 0 0 1-4.71-5.67 28 28 0 0 1-4.25-9.77c-.66-3.1-.39-6.29-.33-9.44.11-5.59.41-11.18.54-16.77a61.8 61.8 0 0 0-1.61-14.47c-.87-4-2.63-7.72-3.49-11.73-.97-4.51-.9-9.18.2-13.66 1.1-4.54 3.27-8.7 5.23-12.91a88.33 88.33 0 0 0 4.81-13.28c1.3-4.62 2.72-9.17 4.39-13.68 1.67-4.51 3.43-9.09 5.22-13.6 1.79-4.51 3.64-8.93 5.55-13.36.9-2.08 1.81-4.15 2.84-6.17a53.42 53.42 0 0 1 3.55-5.84c2.64-3.9 5.48-7.65 8.52-11.25 3-3.53 6.23-6.9 9.4-10.29 2.9-2.93 5.62-6.03 8.14-9.29 2.37-3.24 4.18-7.06 3.72-11.15zm-40.33 47.46a128.9 128.9 0 0 0-6 13.3c-1.86 4.57-3.83 9.09-5.73 13.65-1.9 4.56-3.76 9.27-5.24 14-.73 2.33-1.36 4.7-2.09 7a65.23 65.23 0 0 1-2.66 7.07c-2 4.48-4.37 8.82-5.86 13.5a38.17 38.17 0 0 0-1.8 14.44 40.8 40.8 0 0 0 1.19 7.31 67.28 67.28 0 0 0 2.42 6.89 38.49 38.49 0 0 1 2.21 9.09c.41 3.9.63 7.82.65 11.74a188.46 188.46 0 0 1-.35 16.13 1300.19 1300.19 0 0 0-72.56-73.64 613.03 613.03 0 0 0-22-19.66c-5.88-5-11.9-9.83-18.08-14.45a406.36 406.36 0 0 0-27.53-18.82 244.74 244.74 0 0 0-11.44-6.83c-1.2-.66-2.4-1.32-3.64-1.9-.39-.18-.78-.36-1.18-.5-.16-.05-.47-.21-.64-.15-.17.06 0 .36.11.52.46.5.95.95 1.48 1.36 2.1 1.77 4.3 3.44 6.46 5.14 8 6.3 16 12.7 23.73 19.39a416.05 416.05 0 0 1 18.64 17.24c7.81 7.62 15.61 15.24 23.56 22.71 8.67 8.15 17.43 16.19 26.14 24.29 8.71 8.1 17.46 16.35 25.95 24.78a568.9 568.9 0 0 1 24.48 25.9c8.12 9.12 16.16 18.4 23.35 28.28A135.1 135.1 0 0 1 570.67 289a169.67 169.67 0 0 1 9 33.15 193.14 193.14 0 0 1 2.62 37 218.38 218.38 0 0 1-4.14 37.1 235.9 235.9 0 0 1-9.8 35.28 127.76 127.76 0 0 1-7.26 16.44 163.08 163.08 0 0 1-9.44 15.29 257.49 257.49 0 0 1-22.3 28.31 205.29 205.29 0 0 1-26.65 24.6c-9.5 7.3-19.8 13.5-30.7 18.5a135.22 135.22 0 0 1-32.72 10 221.7 221.7 0 0 1-16 2.13 287 287 0 0 1-29.16 1.53 232.28 232.28 0 0 1-33.22-2.52c-3.39-.49-6.81-.64-10.19-1.21a48.48 48.48 0 0 1-8.41-2.15c-2.6-.94-5.18-1.91-7.76-2.88-6-2.25-11.89-4.7-18.32-5.16a26.63 26.63 0 0 0-9.4.57 47.73 47.73 0 0 0-10.53 4.77 87.7 87.7 0 0 0-10.38 7.05 43.31 43.31 0 0 0-7.17 6.73 20.47 20.47 0 0 1-3 3.12 25.22 25.22 0 0 1-4 2.67 48.42 48.42 0 0 1-10 3.9 106.33 106.33 0 0 1-20 3.44c-4.32.39-8.67.41-13 .06-10.26-.86-20.61-3.41-29.55-8.63a42.35 42.35 0 0 1-5.3-3.58 71.9 71.9 0 0 1-6.12-5.71 67.41 67.41 0 0 0-12.54-10.12 60.77 60.77 0 0 0-14.97-6.68 139.75 139.75 0 0 0-17.62-3.5 160.55 160.55 0 0 1-17.85-3.58 108.42 108.42 0 0 1-17.32-6.36c-10.87-5.09-20.82-12-30.45-19.09a170.31 170.31 0 0 1-13.71-11.1 128.54 128.54 0 0 1-12.41-13.16 162.74 162.74 0 0 1-19.8-30.55A208 208 0 0 1 17.81 411a272.32 272.32 0 0 1-7.92-35.22A185.82 185.82 0 0 1 7.73 357a227 227 0 0 1-.2-19 247.3 247.3 0 0 1 12.54-72.15c1.8-5.65 3.89-11.2 6.26-16.64 2.48-5.57 5.53-10.86 8.55-16.14 3.11-5.44 6.3-10.83 9.52-16.2a374.72 374.72 0 0 1 9.71-15.47c6.91-10.31 14.82-19.94 22.59-29.6a604.8 604.8 0 0 1 23.14-27.41 318.86 318.86 0 0 1 25.38-25.19c9.26-8.14 19-15.72 29.15-22.7a386.35 386.35 0 0 1 31.23-19.28 290 290 0 0 1 32.79-15.87 221.21 221.21 0 0 1 35.86-11 218.4 218.4 0 0 1 37.27-4.86 209 209 0 0 1 37.69 2 234.11 234.11 0 0 1 52.97 13.94c2.82 1.1 5.62 2.24 8.39 3.46l1.54.67c.73.34 1.68 1.21 2.53 1a9.54 9.54 0 0 0 2.53-1.52c1.29-.78 2.63-1.48 3.94-2.22a307.56 307.56 0 0 1 24.99-12.68 260.64 260.64 0 0 1 34.3-12.64c8.8-2.56 17.72-4.74 26.74-6.53 6-1.18 11.94-2.08 18-2.76a249.43 249.43 0 0 1 27.75-1.52c5 0 9.91.1 14.87.59A115.4 115.4 0 0 1 574 32.83a71.46 71.46 0 0 1 14 6.4c1.69 1 4 2.42 4.64 4.42.21.56.19 1.18-.07 1.72-.65 1.22-2.28 1.88-3.47 2.39a65.34 65.34 0 0 1-12.1 3.4c-8.06 1.71-16.27 2.26-24.4 3.54a269.2 269.2 0 0 0-28.46 5.91 317.62 317.62 0 0 0-29.33 9.56 249.91 249.91 0 0 0-13 5.22 300.75 300.75 0 0 0-31.15 16.32 389.1 389.1 0 0 0-18.72 11.81c-2.66 1.79-5.31 3.6-7.89 5.51-1 .72-2 1.45-2.87 2.25-.24.21-1.24.91-1.18 1.32.09.62 3.62-1.28 3.91-1.43 2.79-1.46 5.5-3.06 8.21-4.66 2.24-1.33 4.47-2.68 6.71-4 3.86-2.33 7.88-4.43 11.83-6.59a431.32 431.32 0 0 1 33-16.44 297.41 297.41 0 0 1 33.87-12.52 277.14 277.14 0 0 1 35.63-8.2c11.42-1.84 22.92-3 34.44-4.09-7.88 8.76-15.65 17.69-22.12 27.56a150.28 150.28 0 0 0-5.09 8.5z"/><path fill="#0A0605" d="M191 252.6c-3.78-7-8.69-13.64-15.12-18.47a39.85 39.85 0 0 0-5-3.18 42.46 42.46 0 0 0-5.56-2.4 33.08 33.08 0 0 0-6-1.5 48.31 48.31 0 0 0-6.39-.62 68.86 68.86 0 0 0-23.85 3.85 87.51 87.51 0 0 0-20.6 10.09 72.28 72.28 0 0 0-8.37 6.48c-2.94 2.65-5.65 5.53-8.45 8.32a74.18 74.18 0 0 1-9 7.84 52.6 52.6 0 0 1-10.57 5.77 60.1 60.1 0 0 1-11.36 3.36c-3.12.61-6.26.94-9.41 1.32-.21 0-2.24.18-2.05.57.11.22.79.3 1 .35a32.46 32.46 0 0 0 6.8.43c3.08-.12 6.15-.44 9.21-.78a2.33 2.33 0 0 1 1.58.15 3.5 3.5 0 0 1 1.41 1.59c.88 2.14 1.4 4.42 1.52 6.73.42 3.41.72 6.84 1.21 10.24a66.8 66.8 0 0 0 6.89 22.11A73 73 0 0 0 87 326.74a64.92 64.92 0 0 0 36.71 22.03 70.24 70.24 0 0 0 23.8.77 65 65 0 0 0 19.91-6.09A58.73 58.73 0 0 0 185 330.14a56.53 56.53 0 0 0 11.74-20.78 69.54 69.54 0 0 0 3-23.81A78.19 78.19 0 0 0 191 252.6zm1 40.73a58.05 58.05 0 0 1-4 17.84 49.83 49.83 0 0 1-9.62 15.1A54.29 54.29 0 0 1 150 341.93a63.42 63.42 0 0 1-34.9-2.35 61.35 61.35 0 0 1-26.58-19.4A73.28 73.28 0 0 1 73.58 281c-.16-2.84-.19-5.68-.25-8.52 0-.25-.05-.25.13-.37.12-.05.24-.1.37-.12l.94-.32 2.08-.79a54.16 54.16 0 0 0 11.88-6.81c5-3.75 9.35-8.26 14.06-12.36a71.8 71.8 0 0 1 13.49-9.16c10.64-5.65 22.8-9.52 34.95-9.31a34.08 34.08 0 0 1 17.67 4.82 41.76 41.76 0 0 1 12.44 12.79A70.71 70.71 0 0 1 192 293.33zm309.93 12.55c.08.49-2.09 1-2.35 1.09a52.88 52.88 0 0 1-6.89 1.45 82.73 82.73 0 0 1-16.81.88 77.9 77.9 0 0 1-17.94-3 64.6 64.6 0 0 1-8.84-3.37 57.33 57.33 0 0 1-8.19-4.51 52.76 52.76 0 0 1-7.15-5.84c-2.21-2.13-4.3-4.39-6.52-6.52-4.45-4.18-9.2-8.02-14.24-11.47-10-7-21-13.06-32.78-16.57a62.37 62.37 0 0 0-18.72-2.81 47 47 0 0 0-9.1 1 46.22 46.22 0 0 0-8.65 2.85 46.82 46.82 0 0 0-14.55 10.38 71.52 71.52 0 0 0-11.13 15.09 113.6 113.6 0 0 0-7.88 17.56 57.59 57.59 0 0 0-2.27 7.8c-.52 2.64-.9 5.31-1.13 8a156 156 0 0 0-.55 16.5c.1 5.52.79 11 2.07 16.37a120.26 120.26 0 0 0 9.69 25.72c1.26 2.55 2.61 5.06 3.84 7.62.12.25 1.58 3.12.51 2.82a4.27 4.27 0 0 1-1.54-1.24 34.56 34.56 0 0 1-2.56-3 71.3 71.3 0 0 1-4.88-7.19 79.63 79.63 0 0 1-6.73-14.55 99.17 99.17 0 0 1-5.1-25.41 103.4 103.4 0 0 1 0-15.14 96.73 96.73 0 0 1 2.39-16.6c1.56-6.1 3.67-12.06 6.3-17.79 5.07-11.1 12.19-21.47 22.16-28.7a50.3 50.3 0 0 1 16.63-8 55.09 55.09 0 0 1 18.42-1.53c12.09.95 23.76 5.35 34.36 11.08 5.39 2.93 10.58 6.2 15.53 9.82a120.4 120.4 0 0 1 13.89 11.58c4.24 4.18 7.94 9 12.77 12.54a62 62 0 0 0 16.73 8.55c10.32 3.49 21.14 4.47 32 4.31 2.25 0 4.49-.12 6.74-.13.27.03 2.39-.14 2.47.36z"/><path fill="#0A0605" d="M438.07 287.87c.36-.12.84.9 1 1.1.6 1.14 1.1 2.33 1.49 3.55 1 2.93 1.73 5.94 2.22 9 1.23 7.42 1.17 15-.18 22.39a62.54 62.54 0 0 1-8.74 22.15 61.75 61.75 0 0 1-15.93 16.72 68.53 68.53 0 0 1-21.41 10.12 80.42 80.42 0 0 1-25.13 3.1 60.4 60.4 0 0 1-12.47-2 70.4 70.4 0 0 1-11.64-4.15 79.22 79.22 0 0 1-19.42-12.65 74.92 74.92 0 0 1-13.29-15.35 68.45 68.45 0 0 1-8.67-19.27 39.42 39.42 0 0 1-1.57-9.13c0-.35-.15-1.57.22-1.82s.7.65.8.86c1.29 2.69 2.18 5.58 3.35 8.33a92.94 92.94 0 0 0 4.1 8.53 77.26 77.26 0 0 0 34.27 32.55 63.44 63.44 0 0 0 24.07 6.54c4.27.17 8.54-.07 12.76-.71a81.28 81.28 0 0 0 12-2.6 62.12 62.12 0 0 0 20.73-10.57A57.31 57.31 0 0 0 431.51 337a62.66 62.66 0 0 0 7.17-23.45c.63-6.8.5-13.63-.36-20.4-.15-1.28-.32-2.56-.42-3.85-.02-.2-.2-1.3.17-1.43zM139.28 388.56c-.31-.19 0-1 .05-1.24.32-1.03.73-2.04 1.22-3a70 70 0 0 1 3.45-6.15 108.34 108.34 0 0 1 16.81-20.64c2.27-2.16 4.57-4.3 6.7-6.59a90.79 90.79 0 0 0 10.31-13.68c3.2-5.14 5.96-10.55 8.24-16.16a99.63 99.63 0 0 0 5.62-18.2 77.7 77.7 0 0 0-1.14-34.83 115.33 115.33 0 0 0-5.22-15.17 67.67 67.67 0 0 1-2.59-6.41c-.07-.24-.38-1 0-1.23.38-.23.86.39 1.06.56a26.32 26.32 0 0 1 4.29 5.28 63.88 63.88 0 0 1 3.52 5.88c2.57 4.86 4.58 10 6 15.3a75.52 75.52 0 0 1 .49 36.41 102.88 102.88 0 0 1-6.11 18.12 99.48 99.48 0 0 1-8.58 15.6 87 87 0 0 1-10.62 13.06c-4.21 4.2-9 7.76-13.29 11.87a199.5 199.5 0 0 0-12.08 12.81l-4.1 4.72c-.87 1-1.72 2-2.68 2.91-.28.22-.98 1.02-1.35.78zm78.52 44.88a11.71 11.71 0 0 0-5.59-3.91c-1.97-.8-4.13-1-6.21-.53a4.3 4.3 0 0 0-2.77 2.48A97.59 97.59 0 0 1 185 415.89l-3-3.27a10.8 10.8 0 0 0-2-1.82c-.36-.22-.67-.25-.68.24.06.79.26 1.56.59 2.28 1.16 3 2.63 5.88 4.38 8.58a66.77 66.77 0 0 0 7.56 9.8 67.66 67.66 0 0 0 8.72 7.95 31.09 31.09 0 0 0 8.33 4.67c1.78.68 3.66 1.09 5.56 1.2 1.23 0 2.7-.06 3.41-1.2.35-.56.89-1 1.23-1.61.34-.62.57-1.3.68-2a9.11 9.11 0 0 0-.6-4.8c-.36-.88-.82-1.7-1.38-2.47zm55.73-20.32c-.43-.21-1.22.82-1.45 1.06-.95 1-1.82 2.11-2.73 3.17a75.12 75.12 0 0 1-8.9 9 59.55 59.55 0 0 1-11.62 7.59l-1.52.73-.71.32-.38.17c-.2.09-.21.12-.4 0-.35-.18-.67-.55-1-.76a7.8 7.8 0 0 0-1.32-.65 10.49 10.49 0 0 0-6.34-.23c-3.32.87-6.8 3.42-7.27 7.05a5.26 5.26 0 0 0 1.83 4.8c1.52 1.1 3.84 1.12 5.62 1.05a27.15 27.15 0 0 0 11.52-3.25 52.12 52.12 0 0 0 10.75-7.53 52.86 52.86 0 0 0 9.16-10.76 45.09 45.09 0 0 0 3-5.38c.87-1.7 1.5-3.52 1.88-5.4 0-.2.14-.86-.12-.98z"/><g opacity=".7"><path fill="#000" d="M447.9 125.78c-.78-1-.18-2.53.3-3.53a24.3 24.3 0 0 1 3.79-5.32 80.37 80.37 0 0 1 11.33-10.35 140 140 0 0 1 21.52-13.24c9.48-4.9 19.22-9.3 29.16-13.19 10.12-4 20.47-7.39 31-10.15 3.89-1 7.81-1.94 11.76-2.66 1.35-.25 2.7-.47 4.07-.63.84-.13 1.7-.17 2.54-.14.26 0 .8 0 .78.4-.02.4-.81.86-1.11 1.05a55.79 55.79 0 0 1-7.1 3.65c-8.89 4.16-17.87 8.12-26.66 12.49a487.59 487.59 0 0 0-29.16 15.76c-7.41 4.36-14.59 9.07-21.92 13.55a246.67 246.67 0 0 1-13.39 7.7c-2.28 1.2-4.58 2.37-6.94 3.39a25.58 25.58 0 0 1-6.35 2.06c-1.21.18-2.8.24-3.62-.84z" opacity=".3"/></g></g></svg>