<svg xmlns="http://www.w3.org/2000/svg" fill-rule="evenodd" stroke-linejoin="round" stroke-miterlimit="1.41" clip-rule="evenodd" viewBox="0 0 146 147"><path fill="#fbbe92" d="M22.9 100.46s-3.53 6.54-4.52 9.33c-4.62 13.04 21.7 41.03 30.15 35.83 5.35-3.3 4.94-6.32 16.45-7.23 16.49-3.56 48.33-35.23 50.85-42.15 1.4-2.9-.5-8.06-4.12-7.08 15.1-11.13 4.26-18.51 0-17.48 6.02-7.88-5.47-15.39-14.59-9.44 1.31-5.66-2.61-9.57-9.62-7.9-7.37 1.74-28.01 17.81-29.53 18.15 4.96-10.6 1.97-16.54-2.19-18.95-3-.64-4.77.45-5.84 2.49-1.12 2.99-2.19 4.49-23.5 25.57-3.72 4.9-5.41 13.86-3.55 18.86z"/><path fill="#0d1a2b" d="M61.06 70a101.4 101.4 0 0 1 5.15-3.77c6.53-4.43 12.93-9.43 20.75-11.75 2.26-.67 4.53-.93 7.08-.15a6.1 6.1 0 0 1 4.04 7.24c4.84-3.13 14.23-3.15 15.33 4.45a7.61 7.61 0 0 1-1.7 5.66c3.9-.9 8.94 3.46 8.22 7.78-.65 3.9-3.9 6.81-7.35 9.37l.02.03c1.47-.37 1.66-.08 2.23.17 3.38 1.46 2.84 6.2.76 9.35-9.84 14.93-26.48 27.31-40.62 36.43-3.6 2.33-7.17 4.6-12.06 5.02-6.22.54-9.22 2.77-14.48 5.85-3.08 1.74-7.11-.52-9.67-2.15a34 34 0 0 1-1.73-1.16c-8.7-6.29-15.85-15.25-18.48-24.58-1.7-6 1.18-11.7 3.32-17.24 0 0-1.16-11.21 4.48-18.83l.1-.12c7.4-7.32 15.43-14.17 21.69-22.37 1.95-2.56 2.75-6.5 7.23-5.77 3.19.52 5.47 5.72 5.14 10.24a24.28 24.28 0 0 1-2.13 7.89l.35-.23 1.97-1.24a.75.75 0 0 1 .36-.11zm33.74-7.63a5.14 5.14 0 0 1-.1-2.3 5.26 5.26 0 0 0 .04-.65c-.01-.85-.62-1.73-1.7-2.03-3.75-.97-7.38 1.16-10.8 2.98-7.56 4.04-15.03 8.38-21.38 13.84 0 0-.36.42-.98.79-2.55 2.13-7.6 6.29-9.2 7.26-1.38.84-2.78 1.66-4.18 2.48l-1.19.26-1.01-.48-.29-.99c1.25-2.4 2.75-3.06 4.06-4.23l5.53-4.43 1.74-1.24c-.12-.58-.2-1.49.08-2.56.33-.76.67-2.68.93-3.47a22.53 22.53 0 0 0 .86-3.44 14.68 14.68 0 0 0 .15-1.95c.02-2.09-.56-4.42-2.49-5.9 0 0-.55-.14-.95-.04-.73.18-1.2 1.09-1.2 1.09-1.63 4.1-5.15 7.16-8.44 10.49-5.16 5.21-10.48 10.3-15.77 15.42-3.66 4.8-4.78 12.13-3.13 16.85 0 0 .31.33 0 1.45l-3.4-1.31 3.4 1.3c-2.35 6.28-6.43 11.66-3.21 18.94 3.92 8.87 11.12 17.39 19.66 21.78a15.84 15.84 0 0 0 2.19.92 8.3 8.3 0 0 0 .93.23c2.74.5 4.3-2.41 7.77-3.6 4-1.37 6.28-2.6 10.65-3 0 0 5.55-1.83 10.07-4.85 13.32-8.9 27.41-19.8 36.76-32.18 1.35-1.78 2.82-3.56 3.63-5.55 0 0 .52-1.22-.14-2.13a.5.5 0 0 0-.1-.1v.04c-3.05-.91-5.26 2-6.4 2.88l-3.23 2.5-3.13 2.33c-4.13 2.95-8.17 6.15-12.9 8.14-.36.16-.95.3-.95.3s-1.5-.02-1.85-1.05l.11-1s3.83-2.6 6.72-4.9c1.9-1.5 3.78-3.04 5.7-4.57 0 0 3.26-2.56 4.88-3.8 2.18-1.68 4.97-4.07 7.25-5.82.38-.64.93-1.26 1.61-1.8 2.76-2.26 6.14-5.34 4.84-8.23-.55-1.24-2.14-2.38-3.37-2.12l-.48.03a22 22 0 0 0-7.68 3.65l-4.81 3.54c-6.23 4.44-12.45 9.06-19.44 12.34-.45.21-1.14.48-1.14.48l-1.13-.05-.85-.74-.07-1.02.72-.76c5.3-2.34 9.76-6.78 14.69-10.47l2.96-2.18 1.31-.98c4.1-2.98 7.43-5.68 11.55-8.64.1-.27.25-.54.44-.8l.17-.27c1.3-2.07.43-5.97-3.82-6.18a8.26 8.26 0 0 0-4.4 1.12l-.01.01c-2.35 2.04-11.6 7.97-14.73 10.34l-3.78 2.77c-1.6 1.12-3.86 2.64-3.86 2.64-3.19 2.09-6.27 4.52-9.88 5.78l-1.13-.03-.86-.74-.08-1.01s3.8-2.8 6.84-5.16l5.72-4.5 3.44-2.64c4.06-3.05 8.14-6.1 12.24-9.08z"/><path fill="#8d4e21" fill-opacity=".4" d="M36.2 140.6s8.67-5.98 18.23-6.27C64 134.04 97.4 89.9 90.05 68.12 36.8 102.86 30.31 135.23 36.2 140.6z"/><path fill="#fdcaa5" d="M2.65 99.53S.73 107.65.42 110.96c-1.48 15.44 30.8 37.33 37.85 29.12 4.47-5.21 6.18-6.7 17.22-11.25 15.3-8.96 35.74-54.56 36.59-62.78.69-3.54-1.16-9.04-4.46-6.86 12.17-16.66-1.9-19.73-5.83-17.3 4.05-10.35-7.75-16.05-15.28-6.83-.05-6.48-4.97-9.17-11.43-5.2-6.8 4.17-23.24 27.86-24.65 28.69 2.37-12.93-1.94-18.38-6.57-19.68-3.08.26-4.56 1.97-5.13 4.5-.4 3.56-1.09 5.5-17.01 34.8-2.5 6.42-2.06 16.56.93 21.36z"/><clipPath id="a"><path d="M2.65 99.53S.73 107.65.42 110.96c-1.48 15.44 30.8 37.33 37.85 29.12 4.47-5.21 6.18-6.7 17.22-11.25 15.3-8.96 35.74-54.56 36.59-62.78.69-3.54-1.16-9.04-4.46-6.86 12.17-16.66-1.9-19.73-5.83-17.3 4.05-10.35-7.75-16.05-15.28-6.83-.05-6.48-4.97-9.17-11.43-5.2-6.8 4.17-23.24 27.86-24.65 28.69 2.37-12.93-1.94-18.38-6.57-19.68-3.08.26-4.56 1.97-5.13 4.5-.4 3.56-1.09 5.5-17.01 34.8-2.5 6.42-2.06 16.56.93 21.36z"/></clipPath><g clip-path="url(#a)"><path fill="#8d4e21" fill-opacity=".4" d="M31.39 140.94s3.53-12.18 11.29-12.63c6.93-.4 9.53-5.13 12.06-7.3 5.52-4.72 35.2-46.9 35.4-57.13.2-9.9 2.05 4.93 2.05 4.93-2.54 26.95-19.22 44.8-37.45 61.64 0 0-12.66 11.05-23.35 10.5zm57.76-96.13s-20.8 32.04-23.71 40.36 6.63-4.58 6.63-4.58S97.4 47.03 89.15 44.8zm-8.22-7.87S55.8 63.12 54.35 74.62c1.65.58 3.26 0 3.26 0l23.32-32.41s2.65-3.85 0-5.27zM41.44 68.11s18.43-37.53 22.48-35.52c4.06 2.01 1.83 4.35 1.83 4.35S43.49 68.1 41.45 68.11zM22.95 41.96s3.7 7.05 1.82 23.5c5.6.01 5.32-5.43 5.32-5.43s2.27-16.5-7.14-18.07z"/></g><path fill="#0d1a2b" d="M32.88 54.93a108.6 108.6 0 0 1 4.15-5.66c5.35-6.8 10.45-14.16 17.55-19.09 2.06-1.42 4.22-2.4 6.9-2.37 3.15.1 5.59 2.88 5.64 6.52 4-4.86 13.18-7.8 16.04.02.77 2.12.47 4.48-.35 6.61 3.6-2.19 9.56.94 9.86 5.8.28 4.39-2.23 8.54-5 12.36l.02.02c1.35-.86 1.61-.6 2.23-.51 3.64.52 4.22 5.79 2.93 9.82a162.12 162.12 0 0 1-28.22 51.85c-3 3.63-5.95 7.18-10.63 9.15-5.96 2.51-11.39 5.78-15.81 10.72-2.6 2.83-7.08 1.65-9.96.7-.66-.21-1.32-.45-1.96-.71C16.28 136.1 7.2 128.7 2.44 119.5c-3.04-5.9-1.57-12.94-.77-19.56 0 0-3.75-11.68-.01-21.63l.06-.15C7.24 68 13.5 58.12 17.72 47.37c1.31-3.36 1.17-7.85 5.72-8.45 3.24-.43 6.69 4.44 7.42 9.4.45 3.02.24 6.1-.24 9.14l.29-.36 1.64-1.94c.1-.11.21-.2.33-.23zm31.21-18.71a5.96 5.96 0 0 1-.63-2.44 5.93 5.93 0 0 0-.11-.71c-.21-.91-1-1.67-2.15-1.65-3.88.12-6.94 3.54-9.86 6.56-6.45 6.7-12.74 13.68-17.68 21.52 0 0-.26.57-.77 1.15-2 3.09-5.97 9.13-7.3 10.67a341.71 341.71 0 0 1-3.52 3.97l-1.1.65-1.1-.2-.51-.98c.65-2.97 1.97-4.14 2.97-5.8l4.38-6.49 1.42-1.87a6.7 6.7 0 0 1-.53-2.77c.15-.92.03-3.1.1-4.02a28.59 28.59 0 0 0 .04-3.96 17.58 17.58 0 0 0-.3-2.15c-.48-2.25-1.58-4.58-3.82-5.57 0 0-.57.03-.94.26-.67.42-.92 1.54-.92 1.54-.63 4.91-3.37 9.3-5.8 13.9-3.84 7.2-7.85 14.33-11.83 21.47-2.47 6.3-1.85 14.53.87 19.1 0 0 .39.25.34 1.55l-3.62-.35 3.62.35c-.83 7.47-3.57 14.52 1.28 21.34 5.9 8.31 14.93 15.23 24.32 17.28a13.59 13.59 0 0 0 2.35.31 8.16 8.16 0 0 0 .97-.03c2.8-.32 4.35-4.16 7.46-6.51 3.6-2.72 7.84-4.46 12.03-6.25 0 0 5-3.7 8.71-8.34 10.96-13.7 19.19-29.88 25.44-46.1.9-2.33 1.93-4.7 2.25-7.09 0 0 .22-1.47-.63-2.25a.45.45 0 0 0-.12-.07l.01.05c-3.2-.04-4.68 3.77-5.6 5.08l-2.56 3.7a830.43 830.43 0 0 1-2.52 3.47c-3.35 4.45-6.56 9.15-10.71 12.76-.33.28-.87.63-.87.63s-1.48.43-2.05-.57l-.13-1.11s3.14-3.98 5.43-7.34l4.5-6.7s2.6-3.76 3.9-5.6c1.73-2.48 3.9-5.92 5.73-8.5.22-.81.62-1.65 1.15-2.45 2.17-3.27 4.76-7.64 2.81-10.34-.83-1.16-2.65-1.9-3.79-1.23l-.46.19a24.6 24.6 0 0 0-6.66 6.3l-3.88 5.31c-5.06 6.7-10.07 13.6-16.14 19.3-.38.37-1 .87-1 .87l-1.12.3-1-.53-.3-1.08.52-1.03c4.65-4.16 7.96-10.32 11.92-15.83l2.39-3.26 1.06-1.46c3.32-4.47 5.94-8.41 9.27-12.87a4.83 4.83 0 0 1 .36-1.34c.78-2.63-.98-6.56-5.19-5.46a8.62 8.62 0 0 0-4.04 2.57v.02c-1.83 2.93-9.5 12.18-12 15.69l-3.05 4.15a330.1 330.1 0 0 1-3.17 4.05c-2.62 3.23-5.07 6.8-8.3 9.27l-1.12.33-1.02-.52-.3-1.07s3.05-4.18 5.48-7.67l4.54-6.62 2.75-3.9c3.26-4.54 6.54-9.09 9.85-13.57z"/><path fill="#00c15a" d="M128.2 85.26l-2.6 3.19 13.96 7.17 5.5-5.4-16.87-4.96zm.7-24.81v5.33l16.45.7V56.9l-16.44 3.54zm-9.28-30.95l6.13 2.87 14.91-6.23-4.52-6.9-16.52 10.26zm-98.3-15.9l7.73-3 7.67 13.59-4.68 2.44L21.32 13.6zm76.86 4.16l2.58 1.1 8.28-14.2-7.05-4.14-3.8 17.24zM55.74 2.36L64.84 0l4.3 16.82-4.3 2.05-9.1-16.51z"/></svg>