<?xml version="1.0" encoding="UTF-8" standalone="no"?>
<!DOCTYPE svg PUBLIC "-//W3C//DTD SVG 1.1//EN" "http://www.w3.org/Graphics/SVG/1.1/DTD/svg11.dtd">
<svg xmlns="http://www.w3.org/2000/svg" version="1.1" viewBox="0.00 0.00 512.00 512.00">
<g stroke-width="2.00" fill="none" stroke-linecap="butt">
<path stroke="#797974" vector-effect="non-scaling-stroke" d="
  M 248.56 142.43
  Q 236.34 141.95 228.06 142.36
  Q 195.88 143.95 163.69 145.07
  C 137.60 145.99 112.12 151.78 85.71 157.31
  C 78.01 158.92 70.97 162.24 69.05 170.01
  C 67.17 177.59 64.96 185.89 64.14 193.09
  Q 62.42 208.27 65.25 224.50
  Q 71.82 262.27 82.21 296.22
  C 87.44 313.30 95.91 332.13 106.95 346.14
  C 122.14 365.41 144.16 380.25 166.99 388.62
  C 195.42 399.03 221.88 399.12 253.46 400.79
  C 285.11 402.46 311.11 393.99 335.29 373.73
  C 364.54 349.22 385.44 316.41 393.79 279.00
  C 401.00 246.73 401.05 213.11 396.24 180.51
  C 393.62 162.78 380.14 158.04 364.98 154.56
  C 347.71 150.59 330.26 149.34 312.75 147.04
  Q 289.92 144.05 248.56 142.43"
/>
<path stroke="#747470" vector-effect="non-scaling-stroke" d="
  M 426.31 222.56
  C 433.30 216.71 441.42 226.62 444.22 232.45
  Q 444.44 232.91 444.94 232.86
  Q 452.79 232.04 459.14 236.61
  C 469.23 243.86 473.44 253.15 474.16 265.83
  C 475.51 289.49 465.50 305.41 445.43 317.68
  Q 433.09 325.23 418.24 323.75
  Q 417.72 323.70 417.44 324.13
  C 414.20 329.05 405.29 339.70 399.11 334.49
  C 392.19 328.66 416.25 320.59 408.45 311.84
  C 405.59 308.63 399.95 310.92 396.93 312.90
  Q 396.51 313.18 396.30 313.65
  Q 389.31 329.53 379.64 343.94
  A 0.52 0.52 0.0 0 0 379.87 344.71
  C 395.21 351.04 411.47 348.19 427.27 344.32
  Q 433.09 342.89 439.29 339.78
  C 478.15 320.30 510.57 282.18 497.56 235.92
  C 490.67 211.40 463.71 199.77 440.17 201.07
  C 430.40 201.62 421.97 205.52 412.78 210.04
  A 0.78 0.77 -15.0 0 0 412.35 210.78
  Q 413.57 230.56 411.31 250.26
  A 0.99 0.97 23.0 0 0 411.67 251.13
  C 421.03 258.57 439.64 247.37 434.10 235.74
  C 432.81 233.03 422.25 225.97 426.31 222.56"
/>
<path stroke="#747470" vector-effect="non-scaling-stroke" d="
  M 443.46 409.30
  Q 437.22 404.57 429.69 402.28
  C 400.66 393.44 369.01 389.53 338.74 388.72
  Q 338.24 388.71 337.83 388.99
  C 314.84 405.02 287.22 414.63 258.93 413.80
  C 218.71 412.63 177.20 410.62 141.36 391.19
  C 135.28 387.90 128.97 383.19 122.94 378.99
  Q 122.53 378.70 122.03 378.78
  Q 110.07 380.67 98.31 383.54
  C 87.06 386.30 75.10 388.33 64.46 391.18
  Q 45.97 396.14 28.16 403.24
  C 24.77 404.58 21.49 406.66 18.14 408.31
  Q 17.54 408.61 18.16 408.87
  C 27.98 412.95 38.33 413.77 48.52 415.37
  Q 57.27 416.76 65.56 417.55
  C 111.30 421.90 159.21 425.89 202.68 430.10
  Q 212.02 431.01 221.86 430.96
  Q 246.28 430.82 270.69 429.97
  C 291.85 429.23 313.13 430.27 334.22 428.87
  Q 366.44 426.72 398.38 421.99
  Q 413.22 419.79 418.06 418.71
  C 425.88 416.98 436.14 414.55 443.41 410.18
  Q 444.08 409.78 443.46 409.30"
/>
<path stroke="#747470" vector-effect="non-scaling-stroke" d="
  M 249.44 443.80
  C 277.30 443.86 307.49 445.14 325.44 444.46
  C 352.54 443.42 377.91 440.16 405.73 436.37
  C 415.61 435.03 449.74 432.41 448.40 417.90
  Q 448.35 417.34 447.85 417.59
  C 434.60 424.17 417.38 427.87 401.60 430.02
  Q 365.52 434.93 329.17 436.97
  C 312.26 437.92 290.80 436.88 277.81 437.29
  C 247.55 438.22 222.07 439.99 197.58 437.24
  Q 185.18 435.84 167.82 434.41
  C 156.21 433.45 140.09 431.52 125.46 430.28
  Q 108.86 428.87 92.29 427.07
  C 80.41 425.77 66.81 424.86 54.08 423.35
  C 45.59 422.34 36.09 419.92 26.99 418.50
  Q 23.75 418.00 13.51 413.29
  Q 13.07 413.09 12.80 413.50
  C 5.72 424.45 42.89 432.58 48.74 433.33
  C 89.75 438.52 131.54 440.65 172.81 442.68
  Q 193.37 443.68 249.44 443.80"
/>
<path stroke="#545551" vector-effect="non-scaling-stroke" d="
  M 328.01 457.04
  C 251.99 456.93 175.61 456.86 99.81 450.69
  Q 97.53 450.51 99.56 451.56
  C 114.74 459.48 130.47 465.37 147.76 469.24
  Q 165.60 473.23 183.49 477.06
  Q 188.58 478.15 193.75 478.76
  C 207.98 480.43 222.71 482.99 236.93 482.75
  C 263.88 482.28 291.57 480.21 318.05 475.00
  C 337.81 471.11 354.75 465.69 371.39 453.95
  Q 372.18 453.39 371.22 453.49
  Q 336.97 457.06 328.01 457.04"
/>
<path stroke="#797974" vector-effect="non-scaling-stroke" d="
  M 252.82 149.49
  C 225.92 148.10 199.76 145.94 172.82 148.87
  C 147.80 151.59 123.57 154.32 99.65 162.62
  C 92.01 165.27 79.09 169.07 78.54 178.79
  C 77.80 191.82 99.49 197.88 108.97 199.18
  C 149.53 204.75 190.67 204.84 231.51 203.82
  C 244.73 203.48 259.76 201.47 274.01 200.98
  C 293.72 200.31 313.12 198.76 332.69 197.84
  Q 346.45 197.19 351.56 195.88
  C 359.66 193.81 385.26 182.56 374.32 170.18
  C 369.53 164.75 363.60 162.22 356.03 160.24
  C 339.60 155.94 324.23 153.65 306.50 152.93
  C 288.57 152.20 270.73 150.41 252.82 149.49"
/>
<path stroke="#797974" vector-effect="non-scaling-stroke" d="
  M 171.70 318.48
  C 169.96 344.59 187.24 358.11 210.58 363.24
  C 217.36 364.73 225.63 364.47 232.54 364.03
  C 266.37 361.87 289.29 340.82 302.02 310.56
  C 309.52 292.76 308.53 274.20 299.46 257.36
  C 292.77 244.95 281.85 233.05 267.27 231.08
  C 257.84 229.80 248.67 232.74 239.02 235.80
  C 219.77 241.91 207.42 250.33 194.03 265.29
  Q 173.74 287.96 171.70 318.48"
/>
<path stroke="#696965" vector-effect="non-scaling-stroke" d="
  M 258.69 159.28
  C 238.88 158.27 218.23 156.09 200.06 156.84
  Q 173.20 157.94 159.75 159.26
  Q 131.46 162.02 100.75 171.53
  Q 95.27 173.22 91.55 175.57
  C 85.59 179.34 88.59 181.93 92.87 184.94
  Q 93.30 185.24 93.71 184.91
  Q 101.86 178.42 113.76 175.78
  Q 135.30 170.99 155.40 171.72
  C 164.82 172.06 177.53 174.27 188.66 175.11
  C 197.11 175.74 206.90 174.64 215.47 173.51
  C 233.65 171.11 251.68 170.20 269.97 171.76
  Q 281.95 172.77 286.00 172.29
  C 304.66 170.04 321.27 168.48 339.41 171.61
  C 347.09 172.93 356.07 175.09 363.04 178.22
  A 1.67 1.66 75.6 0 0 364.72 175.37
  C 354.66 167.77 340.85 166.59 328.62 164.42
  Q 321.19 163.10 313.13 162.66
  Q 297.74 161.83 282.35 160.96
  C 275.25 160.56 266.58 159.68 258.69 159.28"
/>
<path stroke="#44231c" vector-effect="non-scaling-stroke" d="
  M 254.82 179.77
  C 231.38 179.32 208.03 186.17 184.75 184.22
  C 173.25 183.26 158.86 180.13 147.17 180.13
  Q 123.70 180.14 101.24 187.72
  Q 100.75 187.89 101.26 188.01
  Q 107.46 189.50 109.50 189.72
  C 145.84 193.65 181.01 193.72 217.74 192.98
  C 236.13 192.61 256.71 190.08 273.19 189.40
  Q 306.63 188.02 340.06 186.32
  Q 346.06 186.01 350.82 184.69
  Q 351.49 184.51 350.82 184.29
  C 330.03 177.60 310.66 178.31 289.29 181.64
  Q 286.54 182.07 284.20 181.92
  C 274.37 181.31 264.67 179.96 254.82 179.77"
/>
<path stroke="#44231c" vector-effect="non-scaling-stroke" d="
  M 183.73 329.49
  C 188.43 346.31 206.87 352.60 222.31 353.06
  Q 251.65 353.95 273.37 333.62
  C 279.70 327.70 284.24 320.05 288.23 312.46
  C 298.38 293.16 298.13 271.88 283.30 254.78
  C 276.28 246.68 270.93 241.50 259.31 243.10
  Q 235.95 246.31 215.44 258.96
  Q 212.70 260.65 211.70 261.69
  Q 202.85 270.93 194.66 280.71
  C 184.89 292.37 179.65 314.86 183.73 329.49"
/>
<path stroke="#44231c" vector-effect="non-scaling-stroke" d="
  M 230.95 306.20
  C 234.93 302.09 239.29 302.37 245.99 301.99
  C 259.75 301.20 274.78 288.52 272.17 273.37
  C 271.45 269.18 267.36 265.76 264.04 270.33
  Q 261.20 274.23 258.84 279.42
  C 254.16 289.68 245.12 289.06 235.75 290.19
  C 219.40 292.16 211.11 310.94 211.24 325.74
  Q 211.28 330.59 215.16 334.33
  A 1.24 1.20 -24.0 0 0 216.08 334.67
  C 218.51 334.49 219.49 332.19 219.77 329.76
  Q 221.34 316.10 230.95 306.20"
/>
</g>
<path fill="#000000" d="
  M 193.48 49.83
  L 197.78 46.75
  A 0.99 0.97 -65.6 0 1 198.22 46.58
  C 210.09 45.21 203.50 66.63 188.85 61.60
  Q 184.79 60.21 181.10 55.70
  C 169.52 41.57 179.67 23.64 194.75 18.26
  C 205.80 14.31 215.02 18.30 221.97 27.31
  C 234.66 43.76 224.97 57.92 215.62 73.09
  C 210.26 81.78 207.53 92.54 212.00 102.09
  C 214.17 106.74 219.03 110.64 222.99 114.24
  C 224.73 115.83 223.62 117.48 221.87 118.29
  Q 215.02 121.46 209.18 116.53
  C 189.16 99.67 197.80 76.15 210.08 57.81
  C 216.64 48.01 216.49 35.66 204.45 30.30
  C 196.53 26.77 181.80 41.94 192.58 49.83
  A 0.76 0.76 0.0 0 0 193.48 49.83
  Z"
/>
<path fill="#000000" d="
  M 223.54 67.31
  C 237.22 47.26 273.49 72.25 252.64 88.56
  C 248.76 91.60 244.02 93.84 240.41 89.17
  C 238.20 86.32 238.51 82.80 241.78 81.00
  C 242.86 80.40 244.28 80.38 245.61 79.86
  Q 246.06 79.69 246.26 79.24
  C 247.83 75.58 246.07 72.61 242.22 71.93
  C 231.34 70.02 230.71 82.68 233.12 90.01
  Q 236.11 99.06 240.62 107.45
  C 242.08 110.17 241.80 114.39 237.69 113.66
  Q 230.65 112.42 226.71 105.79
  C 219.65 93.89 215.21 79.52 223.54 67.31
  Z"
/>
<path fill="#000000" d="
  M 512.00 254.33
  L 512.00 257.56
  C 511.57 261.62 511.48 266.02 510.75 269.80
  Q 503.57 306.85 474.35 331.37
  C 461.83 341.87 447.63 350.87 432.03 355.46
  C 412.64 361.18 391.25 363.48 372.25 354.98
  Q 371.82 354.79 371.51 355.14
  L 352.39 375.93
  A 0.47 0.46 22.8 0 0 352.71 376.71
  Q 363.90 377.27 375.15 378.79
  C 396.74 381.70 452.96 386.12 460.44 412.50
  C 466.69 434.50 443.10 443.02 426.93 445.90
  Q 409.98 448.92 396.36 450.51
  Q 395.86 450.57 395.52 450.94
  Q 391.74 455.07 390.17 456.17
  C 380.72 462.87 370.86 469.91 360.64 474.59
  Q 340.01 484.04 317.50 488.03
  C 297.65 491.55 276.75 493.73 256.61 494.50
  C 244.67 494.95 232.79 496.05 220.89 494.48
  C 206.54 492.58 191.98 491.11 177.95 488.28
  Q 159.30 484.52 148.01 481.93
  C 123.09 476.22 96.78 464.89 76.16 448.87
  Q 75.52 448.36 74.25 448.24
  Q 56.60 446.48 37.35 442.75
  C 23.86 440.14 1.63 432.82 0.00 416.19
  L 0.00 415.19
  Q 0.96 407.21 7.22 402.20
  C 23.37 389.27 47.86 383.23 67.73 379.16
  Q 89.65 374.68 111.64 370.45
  Q 112.40 370.31 111.83 369.79
  C 89.56 349.42 76.32 322.26 68.03 293.08
  Q 58.66 260.12 52.76 224.75
  C 49.35 204.30 52.11 186.49 57.39 166.73
  C 60.22 156.12 68.03 150.14 78.11 146.69
  C 103.52 137.97 129.34 134.64 156.17 133.16
  Q 184.53 131.61 212.86 129.78
  C 258.86 126.82 303.56 132.57 345.59 138.14
  C 362.07 140.32 392.11 144.58 402.00 159.94
  C 409.75 171.95 410.17 187.27 411.79 200.82
  Q 411.87 201.44 412.38 201.09
  C 420.41 195.67 429.37 190.99 439.15 190.16
  Q 466.08 187.87 488.08 203.91
  C 504.66 216.01 511.42 234.26 512.00 254.33
  Z
  M 248.56 142.43
  Q 236.34 141.95 228.06 142.36
  Q 195.88 143.95 163.69 145.07
  C 137.60 145.99 112.12 151.78 85.71 157.31
  C 78.01 158.92 70.97 162.24 69.05 170.01
  C 67.17 177.59 64.96 185.89 64.14 193.09
  Q 62.42 208.27 65.25 224.50
  Q 71.82 262.27 82.21 296.22
  C 87.44 313.30 95.91 332.13 106.95 346.14
  C 122.14 365.41 144.16 380.25 166.99 388.62
  C 195.42 399.03 221.88 399.12 253.46 400.79
  C 285.11 402.46 311.11 393.99 335.29 373.73
  C 364.54 349.22 385.44 316.41 393.79 279.00
  C 401.00 246.73 401.05 213.11 396.24 180.51
  C 393.62 162.78 380.14 158.04 364.98 154.56
  C 347.71 150.59 330.26 149.34 312.75 147.04
  Q 289.92 144.05 248.56 142.43
  Z
  M 426.31 222.56
  C 433.30 216.71 441.42 226.62 444.22 232.45
  Q 444.44 232.91 444.94 232.86
  Q 452.79 232.04 459.14 236.61
  C 469.23 243.86 473.44 253.15 474.16 265.83
  C 475.51 289.49 465.50 305.41 445.43 317.68
  Q 433.09 325.23 418.24 323.75
  Q 417.72 323.70 417.44 324.13
  C 414.20 329.05 405.29 339.70 399.11 334.49
  C 392.19 328.66 416.25 320.59 408.45 311.84
  C 405.59 308.63 399.95 310.92 396.93 312.90
  Q 396.51 313.18 396.30 313.65
  Q 389.31 329.53 379.64 343.94
  A 0.52 0.52 0.0 0 0 379.87 344.71
  C 395.21 351.04 411.47 348.19 427.27 344.32
  Q 433.09 342.89 439.29 339.78
  C 478.15 320.30 510.57 282.18 497.56 235.92
  C 490.67 211.40 463.71 199.77 440.17 201.07
  C 430.40 201.62 421.97 205.52 412.78 210.04
  A 0.78 0.77 -15.0 0 0 412.35 210.78
  Q 413.57 230.56 411.31 250.26
  A 0.99 0.97 23.0 0 0 411.67 251.13
  C 421.03 258.57 439.64 247.37 434.10 235.74
  C 432.81 233.03 422.25 225.97 426.31 222.56
  Z
  M 402.35 300.13
  C 410.86 298.70 417.76 304.01 419.63 312.03
  A 0.83 0.82 -7.5 0 0 420.47 312.67
  C 427.27 312.34 432.57 312.02 438.79 308.29
  C 449.48 301.88 459.40 292.86 461.99 280.51
  C 465.26 264.96 463.36 247.82 446.35 241.44
  A 0.76 0.76 0.0 0 0 445.32 242.07
  C 443.57 257.55 424.76 268.04 410.74 260.86
  Q 410.00 260.48 409.86 261.30
  C 407.66 274.09 405.61 286.74 401.71 299.40
  A 0.57 0.57 0.0 0 0 402.35 300.13
  Z
  M 443.46 409.30
  Q 437.22 404.57 429.69 402.28
  C 400.66 393.44 369.01 389.53 338.74 388.72
  Q 338.24 388.71 337.83 388.99
  C 314.84 405.02 287.22 414.63 258.93 413.80
  C 218.71 412.63 177.20 410.62 141.36 391.19
  C 135.28 387.90 128.97 383.19 122.94 378.99
  Q 122.53 378.70 122.03 378.78
  Q 110.07 380.67 98.31 383.54
  C 87.06 386.30 75.10 388.33 64.46 391.18
  Q 45.97 396.14 28.16 403.24
  C 24.77 404.58 21.49 406.66 18.14 408.31
  Q 17.54 408.61 18.16 408.87
  C 27.98 412.95 38.33 413.77 48.52 415.37
  Q 57.27 416.76 65.56 417.55
  C 111.30 421.90 159.21 425.89 202.68 430.10
  Q 212.02 431.01 221.86 430.96
  Q 246.28 430.82 270.69 429.97
  C 291.85 429.23 313.13 430.27 334.22 428.87
  Q 366.44 426.72 398.38 421.99
  Q 413.22 419.79 418.06 418.71
  C 425.88 416.98 436.14 414.55 443.41 410.18
  Q 444.08 409.78 443.46 409.30
  Z
  M 249.44 443.80
  C 277.30 443.86 307.49 445.14 325.44 444.46
  C 352.54 443.42 377.91 440.16 405.73 436.37
  C 415.61 435.03 449.74 432.41 448.40 417.90
  Q 448.35 417.34 447.85 417.59
  C 434.60 424.17 417.38 427.87 401.60 430.02
  Q 365.52 434.93 329.17 436.97
  C 312.26 437.92 290.80 436.88 277.81 437.29
  C 247.55 438.22 222.07 439.99 197.58 437.24
  Q 185.18 435.84 167.82 434.41
  C 156.21 433.45 140.09 431.52 125.46 430.28
  Q 108.86 428.87 92.29 427.07
  C 80.41 425.77 66.81 424.86 54.08 423.35
  C 45.59 422.34 36.09 419.92 26.99 418.50
  Q 23.75 418.00 13.51 413.29
  Q 13.07 413.09 12.80 413.50
  C 5.72 424.45 42.89 432.58 48.74 433.33
  C 89.75 438.52 131.54 440.65 172.81 442.68
  Q 193.37 443.68 249.44 443.80
  Z
  M 328.01 457.04
  C 251.99 456.93 175.61 456.86 99.81 450.69
  Q 97.53 450.51 99.56 451.56
  C 114.74 459.48 130.47 465.37 147.76 469.24
  Q 165.60 473.23 183.49 477.06
  Q 188.58 478.15 193.75 478.76
  C 207.98 480.43 222.71 482.99 236.93 482.75
  C 263.88 482.28 291.57 480.21 318.05 475.00
  C 337.81 471.11 354.75 465.69 371.39 453.95
  Q 372.18 453.39 371.22 453.49
  Q 336.97 457.06 328.01 457.04
  Z"
/>
<path fill="#f2f1e7" d="
  M 248.56 142.43
  Q 289.92 144.05 312.75 147.04
  C 330.26 149.34 347.71 150.59 364.98 154.56
  C 380.14 158.04 393.62 162.78 396.24 180.51
  C 401.05 213.11 401.00 246.73 393.79 279.00
  C 385.44 316.41 364.54 349.22 335.29 373.73
  C 311.11 393.99 285.11 402.46 253.46 400.79
  C 221.88 399.12 195.42 399.03 166.99 388.62
  C 144.16 380.25 122.14 365.41 106.95 346.14
  C 95.91 332.13 87.44 313.30 82.21 296.22
  Q 71.82 262.27 65.25 224.50
  Q 62.42 208.27 64.14 193.09
  C 64.96 185.89 67.17 177.59 69.05 170.01
  C 70.97 162.24 78.01 158.92 85.71 157.31
  C 112.12 151.78 137.60 145.99 163.69 145.07
  Q 195.88 143.95 228.06 142.36
  Q 236.34 141.95 248.56 142.43
  Z
  M 252.82 149.49
  C 225.92 148.10 199.76 145.94 172.82 148.87
  C 147.80 151.59 123.57 154.32 99.65 162.62
  C 92.01 165.27 79.09 169.07 78.54 178.79
  C 77.80 191.82 99.49 197.88 108.97 199.18
  C 149.53 204.75 190.67 204.84 231.51 203.82
  C 244.73 203.48 259.76 201.47 274.01 200.98
  C 293.72 200.31 313.12 198.76 332.69 197.84
  Q 346.45 197.19 351.56 195.88
  C 359.66 193.81 385.26 182.56 374.32 170.18
  C 369.53 164.75 363.60 162.22 356.03 160.24
  C 339.60 155.94 324.23 153.65 306.50 152.93
  C 288.57 152.20 270.73 150.41 252.82 149.49
  Z
  M 171.70 318.48
  C 169.96 344.59 187.24 358.11 210.58 363.24
  C 217.36 364.73 225.63 364.47 232.54 364.03
  C 266.37 361.87 289.29 340.82 302.02 310.56
  C 309.52 292.76 308.53 274.20 299.46 257.36
  C 292.77 244.95 281.85 233.05 267.27 231.08
  C 257.84 229.80 248.67 232.74 239.02 235.80
  C 219.77 241.91 207.42 250.33 194.03 265.29
  Q 173.74 287.96 171.70 318.48
  Z"
/>
<path fill="#000000" d="
  M 252.82 149.49
  C 270.73 150.41 288.57 152.20 306.50 152.93
  C 324.23 153.65 339.60 155.94 356.03 160.24
  C 363.60 162.22 369.53 164.75 374.32 170.18
  C 385.26 182.56 359.66 193.81 351.56 195.88
  Q 346.45 197.19 332.69 197.84
  C 313.12 198.76 293.72 200.31 274.01 200.98
  C 259.76 201.47 244.73 203.48 231.51 203.82
  C 190.67 204.84 149.53 204.75 108.97 199.18
  C 99.49 197.88 77.80 191.82 78.54 178.79
  C 79.09 169.07 92.01 165.27 99.65 162.62
  C 123.57 154.32 147.80 151.59 172.82 148.87
  C 199.76 145.94 225.92 148.10 252.82 149.49
  Z
  M 258.69 159.28
  C 238.88 158.27 218.23 156.09 200.06 156.84
  Q 173.20 157.94 159.75 159.26
  Q 131.46 162.02 100.75 171.53
  Q 95.27 173.22 91.55 175.57
  C 85.59 179.34 88.59 181.93 92.87 184.94
  Q 93.30 185.24 93.71 184.91
  Q 101.86 178.42 113.76 175.78
  Q 135.30 170.99 155.40 171.72
  C 164.82 172.06 177.53 174.27 188.66 175.11
  C 197.11 175.74 206.90 174.64 215.47 173.51
  C 233.65 171.11 251.68 170.20 269.97 171.76
  Q 281.95 172.77 286.00 172.29
  C 304.66 170.04 321.27 168.48 339.41 171.61
  C 347.09 172.93 356.07 175.09 363.04 178.22
  A 1.67 1.66 75.6 0 0 364.72 175.37
  C 354.66 167.77 340.85 166.59 328.62 164.42
  Q 321.19 163.10 313.13 162.66
  Q 297.74 161.83 282.35 160.96
  C 275.25 160.56 266.58 159.68 258.69 159.28
  Z
  M 254.82 179.77
  C 231.38 179.32 208.03 186.17 184.75 184.22
  C 173.25 183.26 158.86 180.13 147.17 180.13
  Q 123.70 180.14 101.24 187.72
  Q 100.75 187.89 101.26 188.01
  Q 107.46 189.50 109.50 189.72
  C 145.84 193.65 181.01 193.72 217.74 192.98
  C 236.13 192.61 256.71 190.08 273.19 189.40
  Q 306.63 188.02 340.06 186.32
  Q 346.06 186.01 350.82 184.69
  Q 351.49 184.51 350.82 184.29
  C 330.03 177.60 310.66 178.31 289.29 181.64
  Q 286.54 182.07 284.20 181.92
  C 274.37 181.31 264.67 179.96 254.82 179.77
  Z"
/>
<path fill="#d2d2ca" d="
  M 258.69 159.28
  C 266.58 159.68 275.25 160.56 282.35 160.96
  Q 297.74 161.83 313.13 162.66
  Q 321.19 163.10 328.62 164.42
  C 340.85 166.59 354.66 167.77 364.72 175.37
  A 1.67 1.66 75.6 0 1 363.04 178.22
  C 356.07 175.09 347.09 172.93 339.41 171.61
  C 321.27 168.48 304.66 170.04 286.00 172.29
  Q 281.95 172.77 269.97 171.76
  C 251.68 170.20 233.65 171.11 215.47 173.51
  C 206.90 174.64 197.11 175.74 188.66 175.11
  C 177.53 174.27 164.82 172.06 155.40 171.72
  Q 135.30 170.99 113.76 175.78
  Q 101.86 178.42 93.71 184.91
  Q 93.30 185.24 92.87 184.94
  C 88.59 181.93 85.59 179.34 91.55 175.57
  Q 95.27 173.22 100.75 171.53
  Q 131.46 162.02 159.75 159.26
  Q 173.20 157.94 200.06 156.84
  C 218.23 156.09 238.88 158.27 258.69 159.28
  Z"
/>
<path fill="#884637" d="
  M 254.82 179.77
  C 264.67 179.96 274.37 181.31 284.20 181.92
  Q 286.54 182.07 289.29 181.64
  C 310.66 178.31 330.03 177.60 350.82 184.29
  Q 351.49 184.51 350.82 184.69
  Q 346.06 186.01 340.06 186.32
  Q 306.63 188.02 273.19 189.40
  C 256.71 190.08 236.13 192.61 217.74 192.98
  C 181.01 193.72 145.84 193.65 109.50 189.72
  Q 107.46 189.50 101.26 188.01
  Q 100.75 187.89 101.24 187.72
  Q 123.70 180.14 147.17 180.13
  C 158.86 180.13 173.25 183.26 184.75 184.22
  C 208.03 186.17 231.38 179.32 254.82 179.77
  Z"
/>
<path fill="#e7e7e0" d="
  M 426.31 222.56
  C 422.25 225.97 432.81 233.03 434.10 235.74
  C 439.64 247.37 421.03 258.57 411.67 251.13
  A 0.99 0.97 23.0 0 1 411.31 250.26
  Q 413.57 230.56 412.35 210.78
  A 0.78 0.77 -15.0 0 1 412.78 210.04
  C 421.97 205.52 430.40 201.62 440.17 201.07
  C 463.71 199.77 490.67 211.40 497.56 235.92
  C 510.57 282.18 478.15 320.30 439.29 339.78
  Q 433.09 342.89 427.27 344.32
  C 411.47 348.19 395.21 351.04 379.87 344.71
  A 0.52 0.52 0.0 0 1 379.64 343.94
  Q 389.31 329.53 396.30 313.65
  Q 396.51 313.18 396.93 312.90
  C 399.95 310.92 405.59 308.63 408.45 311.84
  C 416.25 320.59 392.19 328.66 399.11 334.49
  C 405.29 339.70 414.20 329.05 417.44 324.13
  Q 417.72 323.70 418.24 323.75
  Q 433.09 325.23 445.43 317.68
  C 465.50 305.41 475.51 289.49 474.16 265.83
  C 473.44 253.15 469.23 243.86 459.14 236.61
  Q 452.79 232.04 444.94 232.86
  Q 444.44 232.91 444.22 232.45
  C 441.42 226.62 433.30 216.71 426.31 222.56
  Z"
/>
<path fill="#000000" d="
  M 210.58 363.24
  C 187.24 358.11 169.96 344.59 171.70 318.48
  Q 173.74 287.96 194.03 265.29
  C 207.42 250.33 219.77 241.91 239.02 235.80
  C 248.67 232.74 257.84 229.80 267.27 231.08
  C 281.85 233.05 292.77 244.95 299.46 257.36
  C 308.53 274.20 309.52 292.76 302.02 310.56
  C 289.29 340.82 266.37 361.87 232.54 364.03
  C 225.63 364.47 217.36 364.73 210.58 363.24
  Z
  M 183.73 329.49
  C 188.43 346.31 206.87 352.60 222.31 353.06
  Q 251.65 353.95 273.37 333.62
  C 279.70 327.70 284.24 320.05 288.23 312.46
  C 298.38 293.16 298.13 271.88 283.30 254.78
  C 276.28 246.68 270.93 241.50 259.31 243.10
  Q 235.95 246.31 215.44 258.96
  Q 212.70 260.65 211.70 261.69
  Q 202.85 270.93 194.66 280.71
  C 184.89 292.37 179.65 314.86 183.73 329.49
  Z"
/>
<path fill="#884637" d="
  M 222.31 353.06
  C 206.87 352.60 188.43 346.31 183.73 329.49
  C 179.65 314.86 184.89 292.37 194.66 280.71
  Q 202.85 270.93 211.70 261.69
  Q 212.70 260.65 215.44 258.96
  Q 235.95 246.31 259.31 243.10
  C 270.93 241.50 276.28 246.68 283.30 254.78
  C 298.13 271.88 298.38 293.16 288.23 312.46
  C 284.24 320.05 279.70 327.70 273.37 333.62
  Q 251.65 353.95 222.31 353.06
  Z
  M 230.95 306.20
  C 234.93 302.09 239.29 302.37 245.99 301.99
  C 259.75 301.20 274.78 288.52 272.17 273.37
  C 271.45 269.18 267.36 265.76 264.04 270.33
  Q 261.20 274.23 258.84 279.42
  C 254.16 289.68 245.12 289.06 235.75 290.19
  C 219.40 292.16 211.11 310.94 211.24 325.74
  Q 211.28 330.59 215.16 334.33
  A 1.24 1.20 -24.0 0 0 216.08 334.67
  C 218.51 334.49 219.49 332.19 219.77 329.76
  Q 221.34 316.10 230.95 306.20
  Z"
/>
<path fill="#000000" d="
  M 230.95 306.20
  Q 221.34 316.10 219.77 329.76
  C 219.49 332.19 218.51 334.49 216.08 334.67
  A 1.24 1.20 -24.0 0 1 215.16 334.33
  Q 211.28 330.59 211.24 325.74
  C 211.11 310.94 219.40 292.16 235.75 290.19
  C 245.12 289.06 254.16 289.68 258.84 279.42
  Q 261.20 274.23 264.04 270.33
  C 267.36 265.76 271.45 269.18 272.17 273.37
  C 274.78 288.52 259.75 301.20 245.99 301.99
  C 239.29 302.37 234.93 302.09 230.95 306.20
  Z"
/>
<path fill="#e7e7e0" d="
  M 443.41 410.18
  C 436.14 414.55 425.88 416.98 418.06 418.71
  Q 413.22 419.79 398.38 421.99
  Q 366.44 426.72 334.22 428.87
  C 313.13 430.27 291.85 429.23 270.69 429.97
  Q 246.28 430.82 221.86 430.96
  Q 212.02 431.01 202.68 430.10
  C 159.21 425.89 111.30 421.90 65.56 417.55
  Q 57.27 416.76 48.52 415.37
  C 38.33 413.77 27.98 412.95 18.16 408.87
  Q 17.54 408.61 18.14 408.31
  C 21.49 406.66 24.77 404.58 28.16 403.24
  Q 45.97 396.14 64.46 391.18
  C 75.10 388.33 87.06 386.30 98.31 383.54
  Q 110.07 380.67 122.03 378.78
  Q 122.53 378.70 122.94 378.99
  C 128.97 383.19 135.28 387.90 141.36 391.19
  C 177.20 410.62 218.71 412.63 258.93 413.80
  C 287.22 414.63 314.84 405.02 337.83 388.99
  Q 338.24 388.71 338.74 388.72
  C 369.01 389.53 400.66 393.44 429.69 402.28
  Q 437.22 404.57 443.46 409.30
  Q 444.08 409.78 443.41 410.18
  Z"
/>
<path fill="#e7e7e0" d="
  M 249.44 443.80
  Q 193.37 443.68 172.81 442.68
  C 131.54 440.65 89.75 438.52 48.74 433.33
  C 42.89 432.58 5.72 424.45 12.80 413.50
  Q 13.07 413.09 13.51 413.29
  Q 23.75 418.00 26.99 418.50
  C 36.09 419.92 45.59 422.34 54.08 423.35
  C 66.81 424.86 80.41 425.77 92.29 427.07
  Q 108.86 428.87 125.46 430.28
  C 140.09 431.52 156.21 433.45 167.82 434.41
  Q 185.18 435.84 197.58 437.24
  C 222.07 439.99 247.55 438.22 277.81 437.29
  C 290.80 436.88 312.26 437.92 329.17 436.97
  Q 365.52 434.93 401.60 430.02
  C 417.38 427.87 434.60 424.17 447.85 417.59
  Q 448.35 417.34 448.40 417.90
  C 449.74 432.41 415.61 435.03 405.73 436.37
  C 377.91 440.16 352.54 443.42 325.44 444.46
  C 307.49 445.14 277.30 443.86 249.44 443.80
  Z"
/>
<path fill="#a8a9a2" d="
  M 99.81 450.69
  C 175.61 456.86 251.99 456.93 328.01 457.04
  Q 336.97 457.06 371.22 453.49
  Q 372.18 453.39 371.39 453.95
  C 354.75 465.69 337.81 471.11 318.05 475.00
  C 291.57 480.21 263.88 482.28 236.93 482.75
  C 222.71 482.99 207.98 480.43 193.75 478.76
  Q 188.58 478.15 183.49 477.06
  Q 165.60 473.23 147.76 469.24
  C 130.47 465.37 114.74 459.48 99.56 451.56
  Q 97.53 450.51 99.81 450.69
  Z"
/>
</svg>
