<svg xmlns="http://www.w3.org/2000/svg" xmlns:xlink="http://www.w3.org/1999/xlink" width="147" height="148"><defs><path id="a" d="M1.2 29.29s-2.4-5.95 1.8-9.4C5.87 17.53 1.65 2.25 6.55.45c5.42-2 11.03 18.8 21.4 21.11"/><linearGradient id="c" x1="78.1%" x2="19.49%" y1="74.6%" y2="44.43%"><stop offset="0%" stop-color="#CD8D35"/><stop offset="100%" stop-color="#DDB557"/></linearGradient><linearGradient id="d" x1="22.33%" x2="76.14%" y1="15.73%" y2="92.44%"><stop offset="0%" stop-color="#E5C477"/><stop offset="25%" stop-color="#D0A146"/><stop offset="100%" stop-color="#DCBA69"/></linearGradient><linearGradient id="e" x1="92.59%" x2="47.94%" y1="61.63%" y2="66.57%"><stop offset="0%" stop-color="#BF862F"/><stop offset="100%" stop-color="#CA9C47"/></linearGradient><linearGradient id="f" x1="98.84%" x2="19.56%" y1="64.15%" y2="18.38%"><stop offset="0%" stop-color="#CDA44C"/><stop offset="100%" stop-color="#E4C37C"/></linearGradient><linearGradient id="g" x1="81.98%" x2="7.43%" y1="21.36%" y2="93.45%"><stop offset="0%" stop-color="#DBC99A"/><stop offset="36%" stop-color="#D8C592"/><stop offset="51%" stop-color="#D1BC83"/><stop offset="64%" stop-color="#CBB374"/><stop offset="83%" stop-color="#E2D1A3"/><stop offset="100%" stop-color="#EADCB5"/></linearGradient><linearGradient id="h" x1="65.72%" x2="8.22%" y1="78.57%" y2="41.71%"><stop offset="0%" stop-color="#E8DDBA"/><stop offset="100%" stop-color="#DAC898" stop-opacity="0"/></linearGradient><linearGradient id="i" x1="81.57%" x2="6.73%" y1="3.23%" y2="39.56%"><stop offset="0%" stop-color="#F4D8A1"/><stop offset="62%" stop-color="#F6DFB1" stop-opacity=".96"/><stop offset="82%" stop-color="#FAEED7" stop-opacity=".85"/><stop offset="100%" stop-color="#FFF" stop-opacity=".74"/></linearGradient><linearGradient id="j" x1="78.73%" x2="13.03%" y1="90.92%" y2="51.58%"><stop offset="0%" stop-color="#DCCC98"/><stop offset="100%" stop-color="#FDFBF1"/></linearGradient><linearGradient id="k" x1="81.89%" x2="24.35%" y1="94.78%" y2="18.47%"><stop offset="0%" stop-color="#F4DEB5"/><stop offset="100%" stop-color="#F1D398"/></linearGradient><linearGradient id="l" x1="88.25%" x2="1.5%" y1="23.84%" y2="94.8%"><stop offset="0%" stop-color="#AA6C19"/><stop offset="100%" stop-color="#B59D57"/></linearGradient><path id="m" d="M.35 22.76C13.25 20.36 20.75.84 30.02.19c10.29-.73 11.67 30 7.05 35.35 1.22 2.16 2.39 6.5 0 8.74 1.45 2.34.4 5.74-1.64 5.26 1.73 1.6 1.48 4.21 0 5.93C17.41 42.09.35 22.76.35 22.76z"/><linearGradient id="o" x1="22.3%" x2="90.89%" y1="57.84%" y2="37.8%"><stop offset="0%" stop-color="#BD872B"/><stop offset="100%" stop-color="#C2954A"/></linearGradient><path id="p" d="M.55 29.04S17.04.34 19.08.5c4.39.34 10.83 15.97 3.84 35.46.56 4.73-4.18 5.79-2.86 6.3 1.3.5 1.64 2.29.96 5.72-.6 3.01-24.94-10.9-20.47-18.94z"/><linearGradient id="q" x1="39.98%" x2="77.42%" y1="54.07%" y2="51.77%"><stop offset="0%" stop-color="#BB7A36"/><stop offset="100%" stop-color="#C18C3C"/></linearGradient><radialGradient id="s" cx="47.01%" cy="48.83%" r="1.97%" fx="47.01%" fy="48.83%" gradientTransform="matrix(.88749 0 0 1 .05 0)"><stop offset="0%" stop-color="#FFF" stop-opacity=".53"/><stop offset="100%" stop-color="#DAB668" stop-opacity="0"/></radialGradient><linearGradient id="t" x1="95.12%" x2="13.18%" y1="48.53%" y2="44.62%"><stop offset="0%" stop-color="#291E1C"/><stop offset="100%" stop-color="#473328"/></linearGradient><linearGradient id="u" x1="6.11%" x2="82.59%" y1="38.24%" y2="53.81%"><stop offset="0%" stop-color="#484439" stop-opacity=".8"/><stop offset="100%" stop-color="#967B50" stop-opacity=".8"/></linearGradient><linearGradient id="v" x1="86.1%" x2="54.24%" y1="91.51%" y2="21%"><stop offset="0%" stop-color="#CDA44C"/><stop offset="100%" stop-color="#E6CB86"/></linearGradient><linearGradient id="w" x1="88.19%" x2="7.32%" y1="52.57%" y2="58.76%"><stop offset="0%" stop-color="#DDC889"/><stop offset="100%" stop-color="#F2F1DF"/></linearGradient><radialGradient id="x" cx="36.75%" cy="68.69%" r="4.4%" fx="36.75%" fy="68.69%" gradientTransform="matrix(.65984 0 0 1 .13 0)"><stop offset="0%" stop-color="#4B473B"/><stop offset="100%" stop-color="#979073"/></radialGradient><linearGradient id="y" x1="9.75%" x2="88.87%" y1="63.78%" y2="52.74%"><stop offset="0%" stop-color="#51492D"/><stop offset="100%" stop-color="#B2A473" stop-opacity=".47"/></linearGradient><linearGradient id="z" x1="87.66%" x2="13.68%" y1="84.85%" y2="61.61%"><stop offset="0%" stop-color="#665737"/><stop offset="100%" stop-color="#2B292A"/></linearGradient><linearGradient id="A" x1="49.84%" x2="38.8%" y1="83.72%" y2="31.43%"><stop offset="0%" stop-color="#3A3132"/><stop offset="100%" stop-color="#564D4E"/></linearGradient><path id="B" d="M10.27.31C.37-.19-4.6 14.47 9.51 17.2c12.5 2.42 21.6-15.81.76-16.89z"/><linearGradient id="D" x1="91.05%" x2="33.04%" y1="74.17%" y2="27.3%"><stop offset="0%" stop-color="#695F60"/><stop offset="100%" stop-color="#AAA1A2"/></linearGradient><linearGradient id="E" x1="61.56%" x2="42.56%" y1="94%" y2="6.22%"><stop offset="0%" stop-color="#1E1818"/><stop offset="50%" stop-color="#201A1A"/><stop offset="100%" stop-color="#423A45"/></linearGradient></defs><g fill="none" fill-rule="evenodd" transform="matrix(-1 0 0 1 147 0)"><path fill="#F0CF8A" d="M42.2 31.29s-2.4-5.95 1.8-9.4c2.87-2.36-1.35-17.64 3.55-19.44 5.42-2 11.03 18.8 21.4 21.11"/><g transform="translate(41 2)"><mask id="b" fill="#fff"><use xlink:href="#a"/></mask><g mask="url(#b)"><path fill="url(#c)" d="M.92 28.6s-1.04-5.34 1.63-6.04c2.67-.69-.5-20.25 3.21-20.13 3.7.12 11.2 19.76 14.5 20.13C23.58 22.94.92 28.6.92 28.6z" transform="translate(4 -1)"/><path fill="#E8A54E" d="M19.22 20.97S9.23 9.79 6.48.09c-.73-2.55 18.04 20.88 18.04 20.88s-4.66 1.27-5.32 0h.02z"/></g></g><path fill="#A56B17" fill-rule="nonzero" d="M48.47 3.76c-.46-.1-.6-1.13-1.52 1.4a7.22 7.22 0 0 0-.38 1.62c-.05.32-.09.65-.12.98-.43 4.52.85 9.4-.49 13.47-.4 1.24-1.63 2.01-2.27 3.13-1.1 1.95-.85 4.49-.08 6.39l-.02 1.15-.86.8-1.15-.03-.78-.83c-1.3-3.54-1-8.14 2.1-10.83.72-.63.18 0 .39-.43 1.77-3.75-.4-9.16.7-14.93.54-2.86 3.53-6.23 6.9-3.84 6 4.24 7.7 13.65 15.13 18.8 1.19.82 3.27 1.49 3.27 1.49l.93.66.19 1.15-.67.93-1.13.2C58.51 22.7 55.18 9.24 49.52 4.39a4.16 4.16 0 0 0-1.05-.63z"/><path fill="url(#d)" d="M145.18 147.83s.77-3.64-1.56-5.52a7.1 7.1 0 0 0-1.09-8.61c.14-2.48-.23-3.32-1.76-4.07 1.66-2.73 4.06-6.37 0-8.75 1.17-2.34 4.66-4.74 1.76-9.82.78-1.33 1.15-5.82-1.76-6.75 1.3-2.34.82-5.73-1.26-5.9.63-1.87.75-5.54-1.68-6.32 1.69-1.97.77-6.05-1.08-6.05.92-1.95-1.11-5.37-2.55-5.47 1.52-3.36-.16-8.48-2.57-9.36 1.5-1.95.88-8.26-.89-8.53 1.49-2.48-.17-7.32-.73-7.22.28-4.36-3.31-8.08-5.98-9.23-6.3-.35-30.14-19.67-30.14-19.67s-5.3-1.28-9.05-1.28c-3.75 0-14.49-1.87-16.19-2.16-6.24-1.07-12.93-.29-16.36 2.16-3.42 2.45-18.51 9.12-18.51 9.12s-7.28 1.3-8.64 5.98c-.7 2.45-1.43 3.18-2.97 4.26-3.6 2.52-4.04 6.45-2.77 7.77-4.92 5.22-3.69 9.46-2.85 10.27.83.8-3.1 2.64-2.8 11.34 1.07 2.22-3.95 7.44-1.8 10.6 2.16 3.17-1.45 2.62 0 4.55 1.46 1.93-1.86 3.83 0 5.94 1.73 1.94-2.42 6.08 2.76 8.1a15.12 15.12 0 0 1-.97 5.12c-.46 1.14-5.22 7.56-1.03 9.75-4.07 4.29-3.34 10.57-2 10.7 1.36.11-3.24 7.45 1.25 7.51 1.5.1-3.38 6.7.75 11.54"/><path fill="url(#e)" d="M120.62 80.57s8.4-.82 5.18 2.86c2.66 1.03 4.3 2.59 0 4.85 6.94.78 6.2 4.21 3.65 5.19 3.35.89 2.33 3.37-1.01 4.65 2.16.57 6.7 2.29-1.37 5.57 6.12 3.04 4.85 5.76 1.37 9.9 2.56 3.3 2.14 8.5-5.82 8.34 3.47 1.13 2.14 4.54-7.32 4.6-21.08.03-13.2-2.18-13.2-2.18l-11.5-10.77s12.7-31.82 30.02-33.01z"/><path fill="url(#f)" d="M92.11 95.91c1.2 3.19 34.71-6.9 30.5-23.65-.5-2.07.31-6.57 0-7.7-.3-1.15-3.13 4.76-8.94-2 .96 4.23-8.46 5.43-15.4 2 6.54-.32 6.13-5.4 0-5.06 9-4.01 5.21-6.81-2.96-6.46 7.46-4.56-2.85-7.6-9.05-9.88 10.03-4.31 8.47-8.8 1.5-13.78-5.98-4.28-33.32-4.5-39.2 1.58 0 0-17.64 7.32-21.58 12.2-3.94 4.87-4.78 6.64-5.39 12.52a74.1 74.1 0 0 0 0 12.47s30.54 59.36 70.52 27.76z"/><path fill="url(#g)" d="M16.54 71.21l5.63 2.8 5.36 16.94 27.16 6.3L65.43 83.9l56.89-7.93s2.26 4.82-1.7 7.93c3.99 2.79 2.17 8.2-4.76 10.02 5.23 6.8-5.77 8-5.77 8s5.73 2.36 1.53 5.08c-4.21 2.71-9.3 1.48-9.3 1.48s10.23 2.59 1.56 4.88c5.16 1.16 6.43 6.96 0 7.15-2.5.07 15.96-.4 7.74 3.28-3.06 1.89 8.89.2 3.3 4.9-3.61 3.16 9.21.1 7.4 4.76 7.84 1.09 12.17 1.2 6.94 5.92 6.99 4.65-2.32 8.28-2.32 8.28H13.58l-1.48-14.2V115.9l4.45-7.4-2.97-8.7-1.48-10.25s-.53-13.81 4.45-18.34h-.01z"/><path fill="url(#h)" d="M92.8 147.66c-46.62.64-2.03-37.24 11.12-34.32 6.76 2.52 4.84 6.76 0 7.44 14.15-.55 9 1.97 7.24 3.74 4.96.76 5.37 1.94 4.54 2.79-2.64 2.65-8.54 2.2-8.16 2.42 3.2 1.85 5.66-.57 7.38-1.02-3.61 3.15 9.21.1 7.4 4.75 7.84 1.09 12.17 1.2 6.94 5.92 6.99 4.65-2.32 8.28-2.32 8.28H92.8z"/><path fill="url(#i)" fill-rule="nonzero" d="M91.17 28.23l-.28 1.13-.97.6c-5.96 1.02-12.29.04-18.22-1.34a25.8 25.8 0 0 0-2.65-.49c-7.22-1-14.69.94-20.84 4.75-4.5 2.79-8.87 6.05-13.74 7.72-1.53.52-3.93.32-3.93.32-.31 1.48-.12 1.86-.46 2.42-.73 1.16-2.92 1.83-2.92 1.83.47 2.36 1.23 1.8-.09 3.74-1.02 1.51-3.46 2.73-3.46 2.73.36 1.17.32 1.39.32 2.04.02 4.6-3.63 8.15-3.42 14.2 0 .53-.02.6-.07.9-.34 1.92-1.97 3.64-2.3 5.23 0 0 .57 1.34.43 2.59-.2 1.72-1.18 3-1.95 4.72 0 0 1.54 1.75 1.67 3.69.19 2.77-3.48 5.42-1.97 6.95 0 0 1.16 1.27 1.25 2.82.1 1.68-1.18 4-1.18 4 1.08.46.9-.6 2.07 2.16.65 1.52.79 4.01.79 4.01 1.3-.24 1.41-.16 1.98.21 2.38 1.56-1.47 8.23 4.3 9.06 0 0 1.61.53 1.88 2.49.18 1.16 1.02 1.9 2.4 1.46 0 0 3.28-.2 2.27 2.96-.2.7.1 1.69 1.14 1.77.66.05.02.04.2 0 0 0 2-.09 2.39 2.16.35 1.86.55.66.55.66 1.12-.94 2.83-.31 2.96 1.41.06.74 1.13 1.25 1.13 1.25 1.61-1.65 5.06-3.32 6.37 1.37.58 1.97 2.12 2.2 1.7 2.19-.17 0 1.55.14 1.63 1.4l-.37 1.1-1.02.51c-2.76.2-4.35-2.97-5.19-4.99l-1.13 1.15c-1.7 1.68-4.37.13-5.52-1.24 0 0-1.28.44-2.36-.15-1.43-.77-2.24-3.25-2.24-3.25a5.1 5.1 0 0 1-4.09-4.25s-3.81-1.01-4.64-4.33c-3.59-1.04-5.93-4.87-5.88-8.81-2.42-.76-2.67-4.3-3.2-6.2l-.6-.12s-2.49-1.24-2.27-3.64c.16-1.8 1.44-4.03 1.44-4.03-2-2.08-2.3-5.5-.23-7.82.25-.28.5-.61.66-.97.42-.87-.57-2.14-.57-2.14-1.65-1.73-.83-4.06.56-6.74l.17-.34c.79-1.67-.25-1.04-.1-3.3.17-2.35 2.43-4.18 2.37-6.42-.1-4.18 1.18-7.85 3.03-11.94.49-1.11.27-2.78.27-2.78-.62-2.37 1.31-4.36 3.78-5.93 0 0-.8-4.32 2.86-5.73 0 0 .85-3.66 3.74-4.25 1.51-.31 3.08.1 4.65-.6 7.36-3.2 13.79-8.79 21.65-10.81 6.18-1.6 12.63-.93 18.91.56 4.79 1.1 9.8 1.8 14.61 1.11l1.12.28.6.96h.01z"/><path fill="url(#j)" fill-rule="nonzero" d="M13.57 73.77c.17-2.34 4.9-1.35 4.56.24 0 0 .58 1.34.44 2.59-.2 1.72-1.18 3-1.95 4.72 0 0 1.54 1.75 1.67 3.69.19 2.77-3.48 5.42-1.97 6.95 0 0 1.16 1.27 1.25 2.82.1 1.68-1.18 4-1.18 4 1.08.46.9-.6 2.07 2.16.65 1.52.79 4.01.79 4.01 1.3-.24 1.41-.16 1.98.21 2.38 1.56-1.47 8.23 4.3 9.06 0 0 1.61.53 1.88 2.49.18 1.16 1.02 1.9 2.4 1.46 0 0 3.28-.2 2.27 2.96-.2.7.1 1.69 1.14 1.77.66.05.02.04.2 0 0 0 2-.09 2.39 2.16.35 1.86.55.66.55.66 1.12-.94 2.83-.31 2.96 1.41.06.74 1.13 1.25 1.13 1.25 1.61-1.65 5.06-3.32 6.37 1.37.58 1.97 2.12 2.2 1.7 2.19-.17 0 1.55.14 1.63 1.4l-.37 1.1-1.02.51c-2.76.2-4.35-2.97-5.19-4.99l-1.13 1.15c-1.7 1.68-4.37.13-5.52-1.24 0 0-1.28.44-2.36-.15-1.43-.77-2.24-3.25-2.24-3.25a5.1 5.1 0 0 1-4.09-4.25s-3.81-1.01-4.64-4.33c-3.59-1.04-5.93-4.87-5.88-8.81-2.42-.76-2.67-4.3-3.2-6.2l-.6-.12s-2.49-1.24-2.27-3.64c.16-1.8 1.44-4.03 1.44-4.03-2-2.08-2.3-5.5-.23-7.82.25-.28.5-.61.66-.97.42-.87-.57-2.14-.57-2.14-1.65-1.73-.83-4.06.56-6.74l.17-.34c.79-1.67-.25-1.04-.1-3.3v-.01z"/><path fill="url(#k)" fill-rule="nonzero" d="M132.18 86.16c.32-.94.52-.35-.08-1.72-.5-1.14-1.9-2.26-1.9-2.26-.47-.6-.39-.7-.4-.95-.06-1.27 2.16-1.38 1.13-3.66-.77-1.72-2.4-3-4.11-3.91 0 0-1.99-1.97.24-2.79 1.4-.64.89-5.66-2.57-7.58 0 0-1.65-2.07 1-2.4 1.62-.24.75-2.98-.94-3.92 0 0-1.25-1.42.67-2.32 1.27-.62 1.02-2.33-.78-4.03l-.13-1.53 1.49-.09c2.03 1.77 7.32 10.55 4.67 12.99.08.07 2.18 6.09.46 8.88 3.18 2.1 5.87 5.84 3.76 8.97 1.16 1.27 2.42 3.97 2.32 5.64.33.27 1.63 4.59.64 6.15l2.6 6.54c.75.37-.23 5.48 0 5.8.16.22 4.31 1.55 1.75 7.18 3.85 5.47-2.23 8.2 0 11.28 0 0 .46 5.29-1.05 7.14 1.87 2.87 5 7.57 2.59 12.08 0 0 1.37 4.3 1.24 6.28h-5.06c.06-1.05-1.51-3.66-2.71-3.87 0 0-1.65-1.07-.15-2.26 2.07-1.76-.56-6.56-3.36-6.89 0 0-1.97-.8-.14-2.83 1.8-2.02 3.53-4.72 3.01-7.2-.2-.95-1.17-.69-1.68-1.32-1.57-1.94 5.56-3.9 3.22-8.61-.64-1.28-1.71-.35-2.22-1.6-.45-1.14 1.3-2.13 1.56-2.2.95-.32-.06-2.75-1.56-3.02 0 0-1.18-.3-1.41-1.2-.51-2 3.01-1.52 1.88-4.05-.53-1.19-2.7-1.29-2.7-1.29-1.4-.32-1.72-1.9-.34-3.16 1.03-.96 1.6-2.9.12-3.32 0 0-1.94-2.07-.28-2.91 1.04-.54.76-.25 1.13-1.6.37-1.38-1.34-2.83-1.34-2.83-.4-.35-.73-.63-.57-1.6v-.01z"/><path fill="#FFF9ED" fill-rule="nonzero" d="M16.6 109.64c-.59 1.86-.2 5.05.3 8.15.12.78-.34 1.38-.7 2.02a40.08 40.08 0 0 0-1.98 4.88l1.94-.4c1.48-.58 3.06-.46 1.78 1.7-1.26 2.14-2.84 4.72-2.88 6.24 0 .1 1.1.32 1.1.32 1.39.68 1.11 1.23.53 3.03-1.3 4.1-2.46 8.67-.27 12.25H13.1c-1.69-.22-2.98-8.14-.52-11.62 0 0-3.31-2.1-2.4-3.98 0 0 1.36-3.67.81-4.68-1.5-2.77-1.33-6.73 2.1-10.14-.23-1.57-3.6-5.67 1.51-8.47l1.35-.65.65 1.34v.01z"/><path fill="url(#l)" fill-rule="nonzero" d="M139.57 103.02c.67-1.32.67-3.56-.2-3.63 0 0-.99-.52-.96-3.85 0-.4-.04-.8-.12-1.19-.18-.8-1.17-1.37-1.17-1.37-1.73-1.1-.6-1.98-.25-2.61.86-1.64-.65-3.27-.65-3.27-1.72-.79-.58-1.97-.9-3.2-.55-2.22-1.8-2.26-1.8-2.26-1.35-.77-.94-1.55-.6-2.57.77-2.57-.62-6.1-1.81-6.61 0 0-1.46-.98-.66-2.8.7-1.85.6-3.9-.29-5.67 0 0-1.5-1.01-.77-2.62.6-1.42.28-3.18-.39-4.7 0 0-1.19-6.72-5.4-8.86 0 0-6.97-2.7-11.92-5.94A253.88 253.88 0 0 1 93.3 28.46s-4.26-1.3-8.68-1.33c-1.6-.03-2.2-.12-3.3-.24-4.43-.47-8.84-1.24-13.27-1.97-1.23-.2-1.34-.2-1.94-.25-4.76-.46-9.7.24-13.5 2.6-5.61 3.44-11.83 5.96-17.92 8.65 0 0-6.62 1.15-7.95 5.33-1.28 3.89-7.54 5.87-6.12 9.63.77 2.03.9 1.54-.53 3.2-1.75 2.06-3.4 5.01-2.3 7.12 0 0 .95 1.58-.5 3.97-1.46 2.41-1.9 5.29-1.87 8.08 0 0-.08 2.88-.73 4.39-.9 2.06-2.3 4.22-1.18 6.03.73 1.21.55 3.33.55 3.33-.75 1.82-.76-.09-.24 2.05.4 1.62-1.6 3.54-.64 4.66 0 0 .59.81.71 1.64.36 2.47-1.95 4.65 1.36 5.98 0 0 1.02.7.86 2.47-.27 2.98-2 5.35-3.33 8.9-.16.44-.28.9-.37 1.35-.18 1.16 1.12 2.37 1.12 2.37 1.5 1.37-.3 2.23-1.2 3.72-1.23 2.07-1.95 4.87-1.14 6.78 0 0 .7.31.92.95.65 1.84-1.56 4.02-.92 6.18.03.1.08.18.16.23.3.18-.55.1.67.13 0 0 1 .14 1.3.96.47 1.31-.44 2.71-.82 4.23-.56 2.25-.61 4.78 1.02 6.76l-.13 1.5s-1.8 0-2.73-2c-1.33-2.84-.55-6.2.27-9.16 0 0-1.25-.5-1.75-1.34-1.21-2.03-.06-4.2.46-6.34 0 0-1.61-3.06-1.1-6.03.33-1.9 1.09-3.7 2.21-5.27 0 0-.7-.84-.95-1.73-1.03-3.55 2.17-6.87 2.96-9.83.27-1.02.42-2.54.42-2.54-1.84-.98-1.76-1.32-2.13-1.97-.95-1.68-.06-3.92-.2-5.75-.06-.87-1.33-2.12-.9-3.74.3-1.17 1-2.07.58-2.66-.75-1.12-.5-2.49.49-3.62-.32-1-.97-1.5-1.16-2.54-.6-3.18 2.09-6.16 2.33-8.8.1-1.06-.2-2.21-.13-3.4.18-2.87.97-5.69 2.54-8.22 0 0-.89-6.7 2.63-10.95a5 5 0 0 1-.2-.76c-.6-3.5 2-6.55 4.68-8.62 1.4-1.1 1.27-2.95 2.76-5.06 2.5-3.55 7.3-4.32 10.94-5.97 5.5-2.48 11.2-4.78 16.07-8.04 5.78-3.77 13.53-2.93 20.2-1.83 7.9 1.3 15.75 1.41 22.57 3l.33.1s7.13 5.6 13.08 9.9c4.88 3.52 9.77 7.45 15.25 9.33a9.1 9.1 0 0 0 1.63.37s2.85 1.54 4.3 3.2a11.27 11.27 0 0 1 2.9 6.9s1.92 3.94 1.05 7.33c0 0 2.14 4.57.93 8.5 2.37 2.18 3.16 5.9 2.42 9.09 0 0 2.49 2.5 2.4 5.29 0 0 1.14 1.23 1.47 2.46.42 1.56-.16 3.98-.16 3.98l.3.33c1.21 1.47 1.39 3.57 1.1 5.48 0 0-.3-.5.72.82 1.17 1.53 1.14 3.68.6 5.4 2.1 1.67 2.28 4.88 1.5 7.23 0 0 1.7 4.04 0 7.17-.7 1.3-1.95 1.95-1.23 2.66 2.1 2.15 1.12 5.81-.38 8.29 0 0 1.32 2.1 1.27 3.96 0 0 .8 1 1.25 1.97.98 2.13.97 4.65.03 6.8 0 0 1.8 3.8 1.27 6.67l-2.22.01c.3-1.57.1-4.5-1.16-5.51 0 0-.49-.79.05-2.04.9-2.19.5-4.87-1.25-6.54 0 0-.24-2.68-.65-3.21-.4-.53-.8-.46-1.16-.83-1.4-1.4 1.35-3.9 1.7-5.22.42-1.58-1.67-3.34-1.67-3.34-2.79-2.77 5.06-3.7 1.4-10.07 0 0 .47-3.52.23-4.5-.26-1.05-1.45-1.63-1.45-1.63-1.23-.77-.65-1.82-.54-2.02h.01zm-9.2-38.97l.05.01-.05-.01z"/><path fill="#CAAC5E" d="M66.93 140.9c-1.76 1.77 2.83 7.25 4.95 4.69 2.14-2.59-3.8-5.83-4.95-4.69zM32 144.8c2.46-.17 1.82-7-.49-6.83-2.3.18-1.1 6.93.5 6.83H32zm32.91-10.45s2.2-.24 2.11-3.1c3.47-.4 4.93-.76 7.89-1.43 2.91-.82 3.52-2.35 5.46-2.25 1.95.1 7.44 4.3-.47 5.35 2.54 2.96-2.98 5.39-8.62 2.32.71 4.03-3.47 4.53-6.37 3.44.04 2.4-2.82 4.2-6.52 1.07-.1-.09-.2-.05-.2-.05s-.27 1.89-1.35 2.98c-2.88 2.92-10.33-4-10.33-4l-7.53-.93S35.6 140.5 32.9 136c-1.88 1.97-5.6 1.02-6.04-6.18-2.1 1.53-3.71.18-4.27-5.01-4.28.04-2.97-6.95-2.97-6.95a6.27 6.27 0 0 1 7.24 2.84l2.16 4.1 7.54 6.44 2.41 1.68 4.75-1.68s2.25 2.19 3.89 3.11c1.63.93 5.65-1.43 5.65-1.43l3.57 1.43h8.08z"/><path fill="#B19243" fill-rule="nonzero" d="M16.04 104.02a8.8 8.8 0 0 0 .04 1.55c.14 1.3.46 2.8 1.7 2.84 0 0 1.5.67 2.03 4.93.26 2.12 1.64 4 4.07 3.78 1.88.2 2.5 2.94.4 2.7-2.85.17-5.47-.02-7.08-2.7a9.5 9.5 0 0 1-1.54-5.28 4.4 4.4 0 0 1-1.05-.76c-1.93-1.87-1.89-5.05-1.25-7.5l1.56-1.12 1.12 1.56z"/><path fill="#AC7524" fill-rule="nonzero" d="M142.63 125.67c-.13 1.2-.65 2.8-.72 2.98-.35.7-.86 1.31-1.48 1.79-3.05 2.88-7.26 4.6-9.66 4.82-.86-.15-.7-.54 0-1.06 0 0 6.48-4.48 7.74-5.55 1.29-1.14 3.1-3.34 3.1-3.34s.37-.98 1.02.36z"/><path fill="#E1B25D" d="M88.35 28.76c12.9-2.4 20.4-21.92 29.67-22.57 10.29-.73 11.67 30 7.05 35.35 1.22 2.16 2.39 6.5 0 8.74 1.45 2.34.4 5.74-1.64 5.26 1.73 1.6 1.48 4.21 0 5.93-18.02-13.38-35.08-32.71-35.08-32.71z"/><g transform="translate(88 6)"><mask id="n" fill="#fff"><use xlink:href="#m"/></mask><g mask="url(#n)"><path fill="url(#o)" d="M8.55 29.04S25.04.34 27.08.5c4.39.34 10.83 15.97 3.84 35.46.56 4.73-4.18 5.79-2.86 6.3 1.3.5 1.64 2.29.96 5.72-.6 3.01-24.94-10.9-20.47-18.94z" transform="translate(1 2)"/><g transform="translate(9 2)"><mask id="r" fill="#fff"><use xlink:href="#p"/></mask><path fill="url(#q)" d="M23.56 4.23s-1.66 3.04-2.45 3.61c2.2.22 2.77 2.57 1.12 4.04 2.02.36 1.89 2.28.77 3.68 1.98 0 3.1 1.11 3.2 2.44.07 1.33 1.66-10.12-2.65-13.77h.01z" mask="url(#r)"/></g><path fill="#CA8935" d="M2.86 23.09s6.08 6.26 6.69 6.78c.6.5 13-20.07 14-24.68-5.65.26-12.5 12.69-20.69 17.9"/><path fill="#EAA64B" d="M3.53 25.3c1.45 2.1 14-7.93 15.79-12.94 1.68-4.71 4.2-5.3 1.6-4.3S1.82 22.6 1.82 22.6l1.7 2.7h.01z"/><path fill="#92652A" fill-opacity=".6" d="M24.9 23.9s7-4.47 4.9 1.55c.21 1.75 1 3.37 0 4.4-1.7 4.2-1.74 4.5-3.5 6.1 1.68 1.1 2.5 4.18-2.34 5.8-6.6.43-6.97-2.58-6.97-2.58s8.62-7.8 7.91-9.31c-.7-1.5 1.66-5.98 0-5.96z"/></g></g><path fill="#8E6810" fill-rule="nonzero" d="M38.57 129.16c.77.85.87 2.53 2.64 2.34 1.12-.13 1.4-1.35 1.88-1.76.96-.81 1.78.5 1.95 1 .7 1.91 2.75 3.41 4.45 2.66 1.6-.7 2.5.94-.52 1.84-2 .38-3.92-.9-5.14-2.33 0 0-4.2 1.95-5.87-.95 0 0-4.02.04-5.19-2.8 0 0-1.52-.13-2.36-.91-1.25-1.17-1.24-3.85-1.73-3.87-1.48-.1-4.07-2.36-2.55-3.15.85-.45 1.57 1.78 3.36 1.05 0 0 1.05-.68 1.44 1.44.27 1.45.08 3.26 2.52 2.81 0 0 1.23-.37 1.76 1.28-.13 1.65 2.04 2.03 3.36 1.35zm23.52 4.15c-.65 1.62-2.4 2.66-4.68 2.55-.6-.04-3.64-.67-4.67-2.38l-.03-1.1s6.45 2.4 8.1.13l1.05-.25.23 1.05z"/><path fill="#8E6810" fill-rule="nonzero" d="M67.96 131.26c-.06 2.85-2.8 6.25-6.14 3.44-.8-.68-1.86-2.5-1.86-2.5-.29-.62.31-.83.63-.94 0 0 3.66 3.48 5.9-.32.23-.76 1.57-.93 1.47.32zm-27.5 2.13l.07.33c.73 2.82 1.77 3.3 2.83 3.32 1.32-.52 1.96 1.5.4 2.1-2.25 1-5.36-.2-5.61-3.72-.07-.89.38-3.13.38-3.13s1.6.74 1.93 1.1zm7.32 4.34c.05.08.1.16.17.23 2.04 2.5 2.75 1.3 4.3.75.83-.3 1.23-.1 1.5.28 0 0-.2 1.74-1.9 2.76-.9.52-.96.4-.96.4a4.3 4.3 0 0 1-5.12-3.72c-.45-.88 1.05-1.9 2-.7h.01z"/><path fill="#8E6810" fill-rule="nonzero" d="M52.3 140.2l.17.31c1.44 2.4 2.8 1.88 4.05 1.46 1.5-1.3 2.53.59 1.03 1.87-.99.95-2.2 1.69-3.76 1.5-1.13-.14-2.57-1.59-2.68-1.76-.68-1.07-.87-2.93-.87-2.93l.8-1.26 1.26.81zm34.32-15.1c.53 2.07-1.13 5.2-4.59 3.99-.84-.3-2.11-1.35-2.11-1.35-.38-.38.1-.69.34-.84 0 0 3.88 1.63 5.03-1.67.04-.61 1.16-1.06 1.33-.13zm-9.12 4.04c.54-.3.97.76.6 1.1-1.57 1.87-5 2.49-6.73 0-.58-.83-.71-2.41-.71-2.41-.03-.44.1-.69.33-.78l2.5 1.9c1.02.77 2.65.65 4.01.19z"/><path fill="#A66B16" fill-rule="nonzero" d="M101.79 115.03c1.5.31.8 2.77 0 3.45-1.9 1.63-4.35 1.76-6.72 1-1.13-.36-1.14-1.8 0-1.7 1.11.1 4.24-.01 4.87-1.3.79-1.62 1.5-1.52 1.85-1.45zm7 14.14s4.67.65 5.67-1.28c.21-.41.56.55-.24-.73 0 0-.85-3.58 2.78-1.95 1.81.79 4.13.7 5.38-.85.54-1.31 2.37-.23 1.85 1.03-1.16 2.35-3.99 3.6-6.68 3.24 0 0-2.4 3.85-7.51 3.14-1.1-.15-2.3-.45-2.92-1.3-1.03-1.43.45-1.73 1.68-1.3h-.01zm4.37-24a3.74 3.74 0 0 1-1.84 4.06c-1.16.65-3.77.87-5.45.6-2.56-.33-5-1.24-7.15-2.66-.64-.69-.21-1.58.62-1.22 1.2.52 3.28 1.57 6.84 1.76 1.8.1 5.34-.7 5.77-2.3.16-.6.69-1.27 1.21-.24zm3.7-11.33c2.63 2.4 3.44 7.33-2.72 8.57-1.52.31-3.13.32-4.73.17-3.39-.33-2.47-2.34-.08-2.1 2.24-.36 4.75-.58 6.4-2.15 1-.96-.48-3.13-.48-3.13-.82-.85-.04-2.6 1.62-1.36h-.01zm-1.11-9.7c3.26.03 7.57.15 7.73 3.5.1 2.01-2.12 3.54-4.11 4.54-1.29.74-2.25-1.15-1.11-1.8l.32-.24c.94-.73 2.24-2.02 1.82-2.2-3.47-1.47-7.37-.74-10-.82-.81-.03-1.63-.05-2.45-.06-1.76-.58-1.33-1.31-.16-2.1l1.06-.18c1.55-.25 3.09-.49 4.65-.59 1.38-.08.31-.06 2.24-.06l.01.01zm14.56 30.99c-.05.31-.13.62-.24.9-.98 2.55-4.37 3.46-6.34 3.48-1.03.02-2.5-.14-2.5-.14-1.8-.26-3.16-.65-4.57-1.16-1.47-.31-.93-2.36.45-2.07.39.09.78.08 1.18.11 3.7.25 8.58.96 9.94-1.58.2-.8 2.06-.87 2.08.46zm-1.19-11.15c.6.17 2.69.55 3.93 2.5.8 1.24.67 2.97-.6 4.07-.77.66-2.43 1.04-2.43 1.04-1.78-.04-1.6-1.56-.67-2 .02-.03 1.74-.93 1.1-1.86a9.47 9.47 0 0 0-2.45-2.43c-.57-.8-.1-1.38.93-1.37.07 0 .13.03.2.05h-.01zm-9.49-35.48c.77.01 1.54.06 2.3.15l.7.12c2.17.46 4.7 3.2 1.9 5.69-.9.8-2.65.95-1.44 1.47 1.17.53 2.2 1.62 1.86 3.01-.4 1.66-2.76 3.02-2.76 3.02-1.45.09-1.93-.44-1.14-1.77l.28-.22c.95-.77 1.58-1.75.86-2.2-2.37-1.48-4.83-.1-8.05 0-.98.04-1.2-.89 0-1.06 3.2-.46 8.8-2.32 8.63-4.86 0 0-2.04-.67-3.58-.79-1.55-.12-3.1-.1-4.64-.04-1.32-.74-1.38-1.44-.19-2.1l.71-.1c1.52-.19 3.04-.33 4.56-.32z"/><path fill="#7E531A" d="M112.45 30.92l-.53.38a22.6 22.6 0 0 1-4.78 2.49c-2.8.7-2.9-.66 0-2.49 1.86-1.18 9.53-7.5 11-9.6 1.19-1.7 2.46-.3 1.69 1.28a43.24 43.24 0 0 1-3.52 4.47c-.74.76-1.38 1.44-2.22 2.17.9 1.34 1.3 3.1-.38 4.8 1.35 4.46-6.15 6.4-6.7 9.47-.15.9.25 1.8.7 2.56 0 0-1.14 1.01-1.48.46-1.62-2.73-.04-5.63 3.3-8.4 1.16-.98 3.62-3 1.78-4.1 1.05-.53 1.64-1.67 1.14-3.49zm2.73 9.1c-.17-1.25 2.44-3.46 3.91-4.7 1.49-1.27 3.55.46 1.3 2.34 0 0-4.45 3.67-5.21 2.37v-.01zm2-7.17c-.28-1.03 1.47-3.23 2.46-4.48 1-1.26 2.82-.1 1.31 1.79 0 0-3 3.68-3.76 2.7l-.01-.01z"/><path fill="#A56B17" fill-rule="nonzero" d="M123.82 54.17c-1.76-.04.3.76.44-1.2.12-1.87-.7-2.9-.7-2.9.24-1.06.36-.42.93-1.53 1.05-2 .14-4.42-.88-6.19l-.1-1.39c5.31-11.24 3.61-25.03-2.58-31.64-3.28-3.5-9.83 2.46-13.98 6.75C101.97 21.24 97 27.13 90.8 30c-1.42.66-3.16-1.56-2.24-1.94 8.91-3.68 14.7-14.82 23.14-21.05 3.52-2.6 8.55-3.82 11.96-.28 3.64 3.8 4.76 9.47 5.39 15.02.77 6.82 1.1 14.34-1.93 19.78 0 0 2.25 5.47-.24 9-.11.16.43 1.28.34 2.55-.12 1.5-1.62 3.16-1.51 3.44.66 1.97.09 4.2-1.29 5.78l-1.82.15-.15-1.82c.92-1.13 1.25-2.92.09-4.01 0 0-.63-.69-.47-1.4.23-1 1.92-1.01 1.74-1.05h.02-.01z"/><path fill="#A56B17" fill-rule="nonzero" d="M121.9 6.59l-1.14 1.43c-.66.1-.8.16-1.16.29-5.92 2.12-8.92 9.86-11.6 14.7-1.03 1.8-2.04 3.6-3.08 5.38-1.95 3.36-2.34 3.83-3.33 5.14-1.36 1.8-2.99 3.68-5.15 3.7l-1.35-1.24s1.89-1.4 1.29-1.35c.14-.02 3.25-3.65 4.55-6.15.43-.83 2.85-5.72 4.89-9.39 0 0 4.94-7.7 7.6-10.14 1.95-1.79 4.36-3.3 7.05-3.51l1.43 1.14z"/><path fill="#A56B17" fill-rule="nonzero" d="M87.08 26.76c7.3.17 10.56 10.9 15.76 11 1.86-.03 2.37 2.53.45 2.56-4.8.93-8.54-3.83-12.3-8.26-1.2-1.4-2.82-2.58-4.71-2.69-1.64-1.2-1.6-2.05-.05-2.58l.32-.02h.53v-.01z"/><path fill="#A56B17" fill-rule="nonzero" d="M100.48 40.71c2.9 3.65 7.56 5.75 12.13 6.34 1.78.75 2 1.6-.02 2.59-1.38.14-.02.36-3.57.02-2.06-.2-4.97-1.49-4.97-1.49a13.98 13.98 0 0 1-5.8-6.16c-1.51-1.88.23-3.23 2.23-1.3zm10.38 9.75c3.4 1.36 6.53 3.3 9.24 5.76 3.14 2.92 5.2 7 5.11 11.16-.75 1.81-1.61 1.8-2.58.15a10.65 10.65 0 0 0-.92-2.99 17.4 17.4 0 0 0-3.85-5.19 40.27 40.27 0 0 0-8.12-6.56c-1.52-.8-.34-3.07 1.12-2.33z"/><path fill="#AD7828" fill-rule="nonzero" d="M53.11 18.33c1.41 1.9 3.55 3.49 5.16 3.76l1.2 1.07-1.18 1.23c-3.56.72-6.15-2.23-7.14-4.9-.8-1.3.32-3.17 1.96-1.16z"/><ellipse cx="78.8" cy="64.53" fill="url(#s)" rx="25.42" ry="22.56"/><path fill="#E6DDB6" d="M62.28 56.78s.27 6.47 4 2.16c1.2-1.4 3.6 2.77 3.6 2.77h11.5s3.51.07 4.1-1.15c1.36-2.84 1.63-8.83-6.17-11.18-3.86-1.17-1.08-1.54-1.08-1.54s-1.05-1.96-6.12-1.38c-2.21.06-.7-2.06-2.68-1.6-2.62.61-6.88 2.72-7.15 11.92z"/><path fill="#EAD6A1" d="M42.77 52.12s2.36 1.52 3.6 0c1.23-1.53 1.13-.54 2.25 0 1.36.64 6.02-3.76 5.6-5.42 1.39-3.11.82-5.82-1.7-8.13-2.29-1.33-3.6-.56-4.5 1.1-2.38-1.92-3.75-.98-3.94 3.31-2.46-.34-3.52.28-3.05 1.95 0 0-5.02 3.32-3.1 5.42 1.92 2.09 4.84 1.77 4.84 1.77z"/><path fill="#DBD4CC" d="M67.53 63.65s4.76-7.72 9.26-7.48c5.49.3 7.85 3.09 8.24 5.42.7 4.08-13.65 9.42-17.5 2.06"/><path fill="#AB9A90" d="M69.84 63.65s1.48 3.92 5.55 3.64c4.06-.28 0-1.67 0-1.67s-4.35-1.25-5.55-1.97z"/><path fill="#3A3227" d="M80.08 56.92c3.05.54 5.06 3.6 4.48 6.84C84 67 81.05 69.18 78 68.64s-5.06-3.6-4.48-6.84c.57-3.23 3.51-5.42 6.56-4.88z"/><circle cx="77.96" cy="62.53" r="2.39" fill="#19170B"/><circle cx="79.58" cy="60.85" r="1.22" fill="#FFF" fill-opacity=".3"/><path fill="#FFF" d="M72.6 60.24c.27.92 4.69 1.14 4.81-.54.1-1.37-1.52-1.63-2.32-1.6-1.23.04-3.2 1.32-2.5 2.14h.01z"/><path fill="url(#t)" fill-rule="nonzero" d="M77.3 54.23c4.05.05 7.5 3.07 9.5 6.85.16 9-16.66 12.32-20.72 3.51-.05-.1-.15-.21-.13-.33.42-2.75 2.86-6.2 5.27-8.09a9.88 9.88 0 0 1 6.07-1.94h.01zm-.54 3.11c-3.73-.32-6.58 2.1-8.57 6.43 3.48 5.62 14.6 3.12 15.19-1.87 0 0-2.47-4.5-6.47-4.56h-.15z"/><path fill="#C9C0B7" d="M32.92 54.23c-.53 5.41 4.1 12.05 12.86 2.7 2.25-9.28-9.85-12.32-12.86-2.7z"/><path fill="#342C1F" d="M42.56 50.33c2.23.75 3.26 3.69 2.3 6.54-.97 2.85-3.57 4.55-5.8 3.8-2.25-.77-3.28-3.7-2.31-6.55.97-2.85 3.57-4.55 5.8-3.8l.01.01z"/><path fill="#1B180F" d="M43.24 51.5c1.26.28 1.95 2.03 1.54 3.9-.41 1.89-1.77 3.19-3.03 2.91-1.26-.27-1.95-2.02-1.54-3.9.41-1.88 1.77-3.18 3.03-2.9v-.01z"/><path fill="#FFF" fill-opacity=".3" d="M41.75 52.18c.5.24.7.88.43 1.43-.26.55-.89.8-1.39.55-.5-.24-.69-.88-.42-1.43.26-.55.88-.8 1.38-.55z"/><path fill="#FFF" d="M37.66 51.52c1.03-.33 2.03-.1 2.22.5.19.6-.5 1.35-1.52 1.68-1.03.32-2.02.1-2.22-.5-.19-.6.5-1.35 1.52-1.68z"/><path fill="#372517" fill-rule="nonzero" d="M39.98 48.33c3.88.07 6.76 4.14 5.85 8.38 0 0-1.53 3.35-6.14 4.67-3.7 1.05-7.26-1.72-6.77-7.15 1.04-3.27 3.72-5.91 7.05-5.9h.01zm-.7 2.67c-.74 0-1.52.3-2.15.72-1.21.78-2.56 2.47-2.52 3.01.35 5.01 3.5 7.3 9.45 1.24 0 0-.44-5.4-4.77-4.97h-.01z"/><path fill="#BB9D67" fill-opacity=".5" d="M25.13 94.43s-2.68 14.24 9.72 12.08c1.68 1.12 5.42 3.66 8.91 0 1.9 3.12 9.58 2.6 12.68 0 6.21 1.46 9-2.18 7.5-4.62-1.52-2.43-5.94-1.88-9.96-1.84-4.01.03-17.8-5.62-17.8-5.62l-4.1-1s-5.2 2.19-6.95 1z"/><path fill="#B08842" d="M51.24 113.36s.26-.3.1-1.3c-.45-1.17 1.54-1.97 1.06 1.5-.14 1.03-1.43 2.09-1.43 2.09-3.2 2.01-7.81 1.74-11.08-.2 0 0-3.66 1.56-7.07-.54a9.92 9.92 0 0 1-3.46-3.52s-3.07-.47-4.6-3.42a20.8 20.8 0 0 1-1.17-2.85 9.8 9.8 0 0 1-.19-3.62l.32-.31s1.07 2.5 1.74 3.83c.92 1.83 3.03 3.8 3.03 3.8.57-1.03.1-1.05 1.15-1.3 2.17-.5 1.63 3.8 6.27 5.4.9.31 1.9.67 2.64-.38 0 0 1.05-.75 2.97.55 3.14 2.12 8.4 1.73 9.72.27zm11.96-2.6c1.15-.68 1.1.58.6 1.05-2.32 1.97-6.46 2.54-9.22.95-.49-.22-.17-1.2.38-.95 2.12.26 6.54-.03 8.24-1.05zm11.44-4.8c1-.9 2.74.06 1.6 1.48-1.88 2.37-8.73 1.88-9.85 1.62-.52-.12-.5-.7.3-.73 2.62-.08 6.49-1.04 7.95-2.36v-.01z"/><path fill="url(#u)" d="M27.65 95.31s-3.47 6.47 1.55 5.98c1.65 3.18 4.95 6.5 7.42 3.14 2.8 3.23 5.33 1.14 4.92-1.06 3.2 3.84 8.46 3.25 7.05 1.06 1.75.92 6.07.84 4.12-1.06 7.64 1.1 15.21-1 14.92-6.27-14.7 5.05-24.63 0-24.63 0l-9.54-3.09-5.81 1.3z"/><path fill="#F2EDD7" d="M22 75.98s-8.23-6.11-3.67-8.16c-1.66-1.99.2-3.03 2.16-2.9-.53-2.47-.47-4.1 1.5-3.63-.81-2.73.53-3.6 1.53-2.9-1.45-4.21 1.45-4.72 2.46-3.98 1.01.74-2.2-2.65-.46-1.9.63.26 1.84.64 2.02 0 .6-2.18 2.2-1.21 3.08 1.9.55 1.97-3.29-.14-1.38 3.18 1.92 3.32-3.63-.14-.87 3.7 1.33 1.86.99 2.04-.3 2.07-.34 1.23.99 3.68 3.18 4.46 4.24 1.51-7.93 10.07-9.26 8.16H22z"/><path fill="#000" fill-opacity=".4" fill-rule="nonzero" d="M19.43 82.41c.78.01 1.93.13 1.93.13l.3.38s-3.86.52-6.04.98l-1.2.27a45.95 45.95 0 0 0-12.96 5.62s-1.15-.05.15-.96c5.13-3.5 10.95-6.25 17.26-6.41h.55l.01-.01zm-3.36-4.46c1.75.02 3.5.19 5.22.46l.38.4s-4.95.26-6.98.3c-4.2.14-8.56.56-12.2 2.55 0 0-1.82.1.79-1.27 3.85-2.01 8.42-2.45 12.8-2.44h-.01zm-9-3.68c4.9.05 9.78 1.38 14.3 3.15l.28.46s-8.85-1.9-12.58-2.47c-1.4-.25-2.83-.35-4.25-.29l-.4-.3s1.45-.55 2.66-.55h-.01zM5 58.24c8.21 1.97 14.93 8.41 19.35 15.25.45.71-.49.54-.49.54-4.9-6.62-11.18-12.81-19.17-15.15 0 0-.66-.19.17-.67l.14.03z"/><path fill="url(#v)" d="M50.03 56.7s1.12-4.93-4.2.97c-5.33 5.9-20.93 12.36-24.67 21.6-3.66 9.03-.26 12.5 3.15 13.29 3.92.91 9.11 0 9.11 0l10.4 5.16C49.12 99.27 65.88 99 67 96.7c.3-.6 1.56-4.14 1.56-4.14.89-.43-1.58-16.43-4.33-17.36-1.95-.67 4.5.46 2.77-2.1-1.72-2.57-8.43-3.44-7-6.23 1.42-2.8 3.06-7.91 0-6.42-3.07 1.5 0-3.2 0-3.2s.33-3.63-3.4-.54c-3.74 3.08-1.86 0-1.86 0 .74-1.68-.87-5.53-4.71 0v-.01z"/><path fill="url(#w)" d="M30.25 71.5c-6.09 1.03-17.02 15.57-6.79 20.92 5.38 2.81 9.1 0 9.1 0l12.04 4.82s4.14-.33 2.34-2.36c4.44 4.05 6.95.03 4.5-1.1 5.13 3.76 8.25-.2 3.25-3.37 5.46 2.88 6.78-1.14 3.02-2.81 3.3.66 3.22-2.2 0-4.95-2.86-2.44 2.07.24 1.03-2-.81-1.77-5.26-5.48-12.54-6.13a96.4 96.4 0 0 1-15.95-3.02z"/><path fill="url(#x)" d="M38.05 95.59l6.5 1.89s2.49-2.11-1.18-3.28c1.94-1.15.22-3.44-1.48-4.28 2.62.5 3.22-1.8 1.48-3.12 2.37.92 4.48-1.88 2.4-3.67-2.08-1.78-18 .78-18 .78s-5.85 2.5-2.1 5.02c-.85 1.1-3.48 2.37 0 5.27 3.98.31 8.36-1.46 12.38 1.39z"/><path fill="#E6DDB6" d="M72.55 120.12c-.5.08-.41.62 0 1.42 0 0 1.52 3.21 6.28 2.36-.16-3.51-3.08-4.98-4.34-5.77-1.26-.8 1.1 2.47 0 1.99-1.1-.49-1.94 0-1.94 0zm1.87-5.04s5.37 7.14 11.8 5.5c2.81-.71-.52-2.13-.52-2.13s6.73 1.8 6.98-1.21c.79-.52 1.97-.94 1.37-2.15-.97-1.97-10.56-5.63-12.8-5.33-.4.05 2.18 2.15.93 2.26 0 0-4.24-.58-5.09-.82-.84-.24 5.6 3.12 4.15 3.51-1.24.34-3.45.82-6.82.38v-.01zm10.52-5.94c1.24 1.43 3.63 2.48 8.86 2.6 3.96-.22 3-1.33 1.2-2.6l-2.5-1.4c5.35-.45 6.81-1.38 3.59-2.91-3.22-.84-6.58-1-9.87-.48 0 0 2.27 2.75-1.28 2.17-3.55-.59 3.35 2.4 0 2.62zm6.44-6.54c-1.5-.2-.94.55-.7.67 2.5 1.23 7.58.32 13.33-1.46 2.71-.84 2.07-2.05-.75-2.4 4.94-.96 7.62-1.87 4.72-2.63-4-1.05-9.68-.03-9.77 0-2.47.67-1.88 1.3.39 1.91-1.62.92-3.66 1.15-5.72 1.36-.27.52.49.88 3.1.97.17.3-1.73 1.68-4.6 1.58zm-16.8-8.09s4.33 5.77-5.03.75c-7.4-3.98-3.78-13.7-3.78-13.7h1.32c-.62-2.36-1.44-4.75 0-6.66 0 0 12.88 6.05 8.43 1.93 3.3-.58 8.43 2.7 9.73 1.5a7.18 7.18 0 0 0-2.1-1.88c5.4-.05 7.54-.84 2.1-1.55 0 0 5.24-.91 4.02-1.98-1.22-1.06-2.05-1.11-2.05-1.11s3.05-.04 4.22-.57c1.54-.7 1.01-1.97-2.17-2.46-3.83.01 14.2-5.63 6.91-.7 7.58-2.08 9.13 2 .72 4.84 4.43.95 11.33-1.11 11.33-1.11 6.73-1.2 8.24-.31 3.46 3.1h4.5s-2.28 3.58-5.35 5c.47.63 2.82 0 2.82 0s-2.23 4.68-15.2 8.91c1.17.3 2.83.48 2.83.48s-1.06 2.46-8.52 5.21c-.58.73 1.66.75 1.66.75-1.4 1.92-4.05 3.13-7.21 4.06.5.44 1.16.67 2.05.64 0 0-5.9 3.88-13.75 2.16-.7-1.13 3.36-2.16 3.36-2.16-1.3-.32-2.18-.77-1.88-1.57 0 0 11.28-1.22 10.22-2.28-.76-.76-2.93-.85-2.93-.85s5.42-1.14 4.98-2.56c-2.34-.54 3.35-.79 5.16-2.74-3.01.86-6.77 2.24-9.18.89-.08 3.36-.77 5.2-10.67 3.66zm26.7-1.11c-.62.6-.74 1.05.42 1.11 3.55.31 6.69-.36 9.53-1.72.89-.78.86-1.29-.5-1.4 0 0-6.12.42-9.44 2l-.01.01z"/><path fill="url(#y)" d="M49.45 93.9c.5 0 .9.42.9.94s-.4.94-.9.94-.9-.42-.9-.94.4-.95.9-.95v.01zm3.07-.61c.5 0 .9.42.9.94 0 .53-.4.95-.9.95s-.9-.42-.9-.95c0-.52.4-.94.9-.94zm-6.16-.2c.5 0 .9.43.9.95s-.4.95-.9.95-.9-.43-.9-.95.4-.94.9-.94v-.01zM59.74 93c.41 0 .75.35.75.78 0 .43-.34.78-.75.78a.76.76 0 0 1-.74-.78c0-.43.34-.78.74-.78zm-4.08-.26c.4 0 .74.34.74.77s-.33.78-.74.78a.76.76 0 0 1-.75-.78c0-.43.34-.77.75-.77zm-10.48-2.2c.5 0 .9.42.9.94s-.4.95-.9.95-.9-.43-.9-.95.4-.95.9-.95v.01zm2.91-.66c.5 0 .9.42.9.94 0 .53-.4.95-.9.95s-.9-.42-.9-.95c0-.52.4-.94.9-.94zm2.89-.6c.5 0 .9.43.9.95s-.4.95-.9.95-.9-.43-.9-.95.4-.94.9-.94v-.01zm6.17-.32c.41 0 .75.35.75.78 0 .43-.34.77-.75.77a.76.76 0 0 1-.74-.77c0-.43.34-.78.74-.78zm-2.9-.07c.4 0 .73.34.73.77s-.33.78-.74.78a.76.76 0 0 1-.74-.78c0-.43.33-.77.74-.77h.01zM43.8 87.83c.5 0 .9.42.9.94s-.4.95-.9.95-.9-.43-.9-.95.4-.94.9-.94zm2.93-.62c.5 0 .9.42.9.95 0 .52-.4.94-.9.94s-.9-.42-.9-.94c0-.53.4-.95.9-.95zm3.07-1.8c.5 0 .9.43.9.95s-.4.95-.9.95-.9-.43-.9-.95.4-.94.9-.94v-.01zm2.47-.63c.4 0 .74.35.74.78 0 .43-.33.77-.74.77a.76.76 0 0 1-.74-.77c0-.43.33-.78.74-.78zm5.34-.6c.4 0 .74.36.74.79 0 .43-.33.77-.74.77a.76.76 0 0 1-.74-.77c0-.43.33-.78.74-.78v-.01zm-2.5-.4c.41 0 .75.35.75.78 0 .43-.34.77-.75.77a.76.76 0 0 1-.74-.77c0-.43.33-.78.74-.78z"/><path fill="#1F1A17" d="M28.94 95.32l4.48-1.5 8.69 3.57s-10.58 3.78-13.17-2.07z"/><path fill="url(#z)" d="M27.51 95.24a6.92 6.92 0 0 1-4-1.56c-.82-.39-.27-1.64.49-1.29 2.18 1.02 5.16 1.65 7.77.42-.14-.62-.47-3.94 0-6.23l1.28-1.04.8 1.04c-.53.77-.23 4.7.6 6.23 1.88 1.2 4.2 2.04 6.9 2.87 8.3 2.54 17.06 3.23 25.22.73l.52-.15 1.15.58-.6 1.14c-.62.22-1.23.45-1.84.7-7.99 3-17.38 2.57-25.04-.06-2.52 1.3-6.68 2.47-10.72-.66a8.79 8.79 0 0 1-2.53-2.72zm10.3 2.22a28.5 28.5 0 0 1-5.2-2.97s-1.36.54-3.16.72c1.9 2.09 5.19 2.54 8.37 2.25h-.01z"/><path fill="#B38D4E" fill-rule="nonzero" d="M47.52 56.61c-6.55 8.52-17.46 13.02-24.4 20.94-1.39 1.58-2.44 3.57-2.38 5.72.04 1.02-1.97 1.2-2.1.16-.44-3.63.15-3.79 1-5.47 2.28-4.53 6.72-7.52 10.65-10.31 0 0 3.49-2.4 5.87-4.12 3.45-2.45 6.81-5.05 9.65-8.17.97-1.23 2.7-.54 1.71 1.25z"/><path fill="#AA8745" fill-rule="nonzero" d="M19.68 86.03l.06.35.08.4.28 1.06c.42 1.47.63 2.93 1.85 2.78 1.45-.18 1.79 1.07 1.15 1.48 0 0-2.4 1.59-4.08-.93-.96-1.45-1.11-3.37-.86-5.12.12-1.1 1.43-1.21 1.52-.02z"/><path fill="url(#A)" d="M34.27 70.31c-9.9-.5-14.87 14.16-.76 16.89 12.5 2.42 21.6-15.81.76-16.89z"/><g transform="translate(24 70)"><mask id="C" fill="#fff"><use xlink:href="#B"/></mask><g mask="url(#C)"><path fill="#9E9898" d="M11.83 9.3s-2.78 6.46 6.07 5.51c1.81-1.18 0-2.53 0-2.53-1.06.09-5.5.36-6.07-2.97V9.3zm-9.2 2.74s4.85 1.58 4.21-3.24c-.89 1.73-1.4 1.5-2.22 1.44-.85-.06-1.97 0-1.99 0-.77-.18-.73 1.62 0 1.8z"/><path fill="url(#D)" d="M.08 5.15c2.26-.96 12.82-1.61 15.82.75a12.69 12.69 0 0 1 3.52 4.02l1.7-2.76-1.7-4.6L6.58.1S.93 2.13.08 5.15z" transform="translate(2)"/></g></g><path fill="url(#E)" fill-rule="nonzero" d="M36.3 69.13a25.34 25.34 0 0 1 4.14.37c4.08.78 8.59 3.97 7.67 8.92-1.08 5.36-5 10.73-10.96 10.4-1.78-.1-4.05-1.05-4.59-.92-2.36.54-5.03.03-6.61-1.95-3.33-4.15-2.86-11.35.21-14.28 2.67-2.56 6.82-2.55 10.13-2.54h.01zm-1.23 2.54c-1.25 0-2.5.09-3.73.25-3.09.47-4.77 2.32-4.8 5.03 0 .55 1.47.68 1.9 0 .8-1.3 2.17-.75 2.3 2.12.05 1-.82 1.99-1.73 1.7-2.79-.9-2.48 0-2.44.4.02.25.06.5.1.75.38 2.3 2.2 3.86 5.12 3.47 1.07-.15.35-2.2 1.43-2.39.87-.15.62 2.31 1.37 2.95 1.21 1.03 6 1.02 7.8-1.79.59-.92-1.58-1.94-2.95-1.67-2.43.48-3.8-1.77-3.65-3.05.37-3.21 4.85-3.05 5.4.4.53 2.6 3.73 1.07 4.16 0 .57-1.44.84-3.5-.86-5.2-2.3-2.29-6.42-2.98-9.42-2.97z"/><path fill="#F4D08C" d="M55.8 51.25s2.38-5.09 4.5-3.44c1.4-.9 1.47-2.91 0-4.13-1.8-1.49-4 3.81-4.5 7.57zm5.45-10.84s2.2-2.51 4.38-.7c.41-2.18 4.9-5.4 5.85-2.84.91-.93.91-2.41 0-3.34-.63-.5-4.24 0-4.24 0l-3.06 1.22s-2.64 3.07-2.93 5.66z"/><path fill="#A9813B" d="M60.68 45.15c-.23-.02-.97-1.8-2.01-.61-1.5 2.42-1.6 3.8-2.58 7.38-.02.05-.08.07-.13.1-.42.35-1.17.64-1.3-.38-1.03-7.78 5.96-14.2 6.02-6.5v.01zm0-4.45c.3.7.61.8.96 0 0 0 1.89-4.49 3.71-5.02.06 1 .3 1.85.56 1.93.62.2.56-.45.56-.45.33-2.27 2.93-4.82 5.35-2.88.18-.84-.63-2.54-2.8-2.6-2.37-.08-2.83 1.5-2.83 1.5-2.75-.87-5.85 2.64-5.51 7.52z"/><path fill="#000" fill-opacity=".4" fill-rule="nonzero" d="M62.16 84.46c10.47.08 21.24 3.5 27.9 11.74 0 0 .55 1.6-1.22-.3C81.1 87.74 68.42 84.86 58 85.35l-.5-.31s.1-.37.86-.43a44.2 44.2 0 0 1 3.79-.15h.01zm-7.52 4.82A29.5 29.5 0 0 1 65.23 100a33.9 33.9 0 0 1 2.13 4.86l-.2.46s-1.72-3-2.82-4.79a37.8 37.8 0 0 0-10.07-10.67l-.14-.5s.42-.14.51-.1v.02z"/></g></svg>