<svg width="2064" height="2065" viewBox="0 0 2064 2065" fill="none" xmlns="http://www.w3.org/2000/svg">
<path d="M1708.98 1041.66C1727.98 1463.16 1728.98 1781.16 1768.98 2003.16C1370.84 2084.38 1146 2084.79 741.977 2003.16L650.477 690.665L619.477 363.164C615.658 327.23 634.868 280.666 673.477 214.165C765.977 113.164 807.977 82.6643 909.977 37.1646C1007.98 -11.8354 1130.73 -12.938 1286.48 37.1646C1435.98 117.318 1499.64 187.999 1586.48 348.165C1668.23 529.859 1693.2 686.56 1708.98 1041.66Z" fill="#DFE9ED"/>
<path d="M1744.5 2006C1647.97 2024.66 1593.37 2032.82 1495.5 2044C1538.1 1747.57 1559.09 1577.13 1585.5 1235.5C1587.33 961.454 1612.62 811.91 1583.5 556L1561 343C1612.98 470.058 1632.55 528.863 1654 645C1677.5 768.791 1668.26 907.078 1684.5 1213.5C1690.98 1572 1707.5 1770.5 1744.5 2006Z" fill="#C0CDD2" stroke="#C0CDD2" stroke-width="10"/>
<path d="M841.154 85.5C764.744 129.976 725.75 160.784 664.654 228.5C656.154 247 668.894 279.706 691.154 306C705.154 322.538 735.628 332.143 764.154 339C834.752 348.5 874.536 347.984 945.154 339C1009.57 317.617 1042.52 299.319 1095.15 255C1131.4 226.438 1152.87 208.116 1187.15 167C1207.47 145.211 1217.15 103.5 1204.65 72C1159.18 47.1978 1127.55 39.1568 1064.15 37C961.175 40.9951 910.841 50.1908 841.154 85.5Z" fill="#F5F8FE"/>
<path d="M580 456C581.672 399.288 584.523 366.696 606.5 301.5C659.695 218.531 701.12 175.454 803 107C878.267 52.1982 941.633 23.431 1056 16C1232.65 25.7997 1318.57 49.5441 1431.5 153C1565.99 297.412 1628.43 410.285 1670 678.5C1689.6 794.393 1682.23 929.208 1698.5 1203.5L1717.5 1647C1724.88 1823.11 1738.83 1883.35 1755.5 2010" stroke="#596266" stroke-width="30"/>
<path d="M739.196 362.376C789.872 359.366 813.621 360.702 841.696 372.376L653.697 728.876C620.073 723.028 601.148 714.601 567.196 684.876C538.438 647.922 531.911 619.663 536.196 556.876C543.472 479.063 561.985 444.095 621.696 398.376C658.496 377.327 685.358 370.317 739.196 362.376Z" fill="#C0CCD4" stroke="#596266" stroke-width="30"/>
<path d="M592 540.5C615.692 580.173 659.85 590.451 761.5 571.5" stroke="#596266" stroke-width="30" stroke-linecap="round"/>
<path d="M1386.88 1404.9C1358.95 1365.96 1325.43 1362.88 1260.68 1402.33" stroke="#596266" stroke-width="30" stroke-linecap="round"/>
<path d="M1326.5 732.5V884L762 970L1001 488C1023.5 599 1148.5 685.8 1270 687.5C1345.41 688.555 1383.92 640.78 1458 562.5C1440.5 664 1387.42 708.587 1326.5 732.5Z" fill="#C0CCD4"/>
<path d="M1458 532.624C1429.96 645.75 1374.89 691 1261.23 691C1122.5 673 1074.05 643 1087 532.624C1103.57 391.38 1149.08 341.387 1261.23 336C1384.9 350.006 1442.98 403.337 1458 532.624Z" fill="#FFFFFD"/>
<path d="M1331.5 428C1283.5 428 1245 462.5 1245 512.5C1245 565.5 1279.5 596 1331.5 596C1379 596 1416 560 1416 512.5C1416 464 1376 428 1331.5 428Z" fill="#804102"/>
<path d="M1243 509C1245.1 535.003 1247.5 540.5 1252 549C1266 547 1288 527.5 1296 502.5C1296 485 1284 462 1269 453C1257.5 461.5 1248 481 1243 509Z" fill="#CEB095"/>
<path d="M1264.5 330C1177 330 1087.24 389.851 1076 537C1076.52 689.625 1181.2 753.146 1264.5 751C1342.86 748.982 1455.22 669.365 1465 537C1465 433.5 1366 330 1264.5 330Z" stroke="#596266" stroke-width="30"/>
<path d="M1225 1017L945 1322.5C993.408 1395.98 1021.24 1434.5 1073.5 1493C1136.5 1553 1211.5 1500 1217 1366L1225 1017Z" fill="#DA8B14" stroke="#984D0A" stroke-width="30"/>
<path d="M1205 1224.5C1097.5 1249.5 1077.19 1273.81 1001.5 1379C1025.05 1411.99 1038.45 1430.33 1063 1458.5C1131 1474.5 1152 1435 1202 1346.5L1205 1224.5Z" fill="#FCAB19"/>
<path d="M1149 1283V1371" stroke="#984D0A" stroke-width="30" stroke-linecap="round"/>
<path d="M1055 1353L1076.95 1401.69" stroke="#984D0A" stroke-width="30" stroke-linecap="round"/>
<path d="M183.5 1815C164.554 1894.33 151.57 1917.92 127 1947.5C268.612 2078.69 400.209 2091.08 711.5 2023.5C726 1949.5 748.5 1884 763 1815L821 1622C855.043 1529.45 878.156 1476.97 936 1381L1099 1170.5L1256.5 1039C1276.28 1009.83 1276.4 993.487 1256.5 966.003H1168.5L1340.5 899.503C1376.65 878.239 1389.42 865.236 1397 840.003C1387.09 806.394 1374.49 796.941 1340.5 795.503C1296.57 795.503 1266.43 789.003 1222.5 789.003C1146.43 792.048 1104.39 800.691 1030.5 829.503L890 878.003L982 713.503L1086 513.003L1144 360.003C1140.21 293.653 1126.96 273.093 1076.5 276.503L1018.5 317.003L975 347.003V229.003C952.057 192.917 934.786 187.888 897 203.003L813 298.503L725.5 437.003L580.5 713.503L527 829.503L478 658.003C449.257 601.653 433.283 581.061 405 561.503C384.153 597.952 387.858 619.317 386 658.003C400.196 759.907 402.632 818.649 405 924.003C397.105 1020 387.871 1070.43 375 1155C305 1415 255.938 1550.86 183.5 1815Z" fill="#9EB1BA"/>
<path d="M711 2022.5C609.071 2044.87 551.729 2053.93 449 2063.5C532.994 2002.99 572.001 1963.63 626 1883C691.512 1764.49 723.796 1690.75 773 1545.5C824.893 1405.8 853.644 1340.02 904 1257C975.021 1172.99 1022.59 1130.66 1131.5 1070C1191.59 1036.48 1241.11 1013.96 1264.5 987.5L1280 1010.5L1204.5 1084L1087.5 1180L921.5 1413L802.5 1687.5L711 2022.5Z" fill="#8FA2AB"/>
<path d="M459.687 1225.47C450.043 1124.4 430.076 1127.98 376.187 1209.97C296.179 1449.52 249.796 1583.09 187.187 1830.97C181.037 1857.52 183.399 1870.88 197.687 1893.47C248.776 1919.73 270.925 1911.11 300.687 1860.47C363.936 1738.09 394.952 1657.27 442.187 1489.97C456.894 1389.73 462.188 1332.39 459.687 1225.47Z" fill="#C1D0D6"/>
<path d="M848.563 343.05C853.987 291.956 845.217 292.146 814.752 328.677C758.453 441.57 726.312 504.381 676.577 622.814C671.486 635.541 671.228 642.383 675.14 654.77C694.251 671.914 704.416 669.389 721.744 646.549C759.957 590.653 780.65 552.885 816.32 473.352C831.95 424.614 839.574 396.483 848.563 343.05Z" fill="#C1D0D6"/>
<path d="M993.561 409.114C1002.18 365.577 995.899 365.516 970.734 395.967C920.014 491.035 891.21 543.907 844.666 643.878C839.845 654.627 839.025 660.469 840.67 671.157C852.734 686.298 860.232 684.4 874.737 665.317C907.238 618.51 925.535 586.753 958.413 519.676C974.111 478.412 982.173 454.56 993.561 409.114Z" fill="#C1D0D6"/>
<path d="M944.351 888.807C899.087 912.02 903.528 917.787 948.875 918.976C1070.53 897.332 1138.61 885.837 1261.68 856.891C1274.78 853.611 1280.62 850.189 1289.04 841.065C1294 819.274 1286.93 813.8 1259.42 814.207C1194.14 818.007 1152.53 824.005 1068.78 841.925C1020.49 857.072 993.306 866.75 944.351 888.807Z" fill="#C1D0D6"/>
<path d="M645 1286L592 1395.5" stroke="#758892" stroke-width="30" stroke-linecap="round"/>
<path d="M664.573 1613.33L637 1707" stroke="#758892" stroke-width="30" stroke-linecap="round"/>
<path d="M465.459 1718.88L453.702 1839.96" stroke="#758892" stroke-width="30" stroke-linecap="round"/>
<path d="M140 1938C168.643 1896.71 169.013 1876.29 186.5 1809C196.405 1740.77 210.521 1692.49 239 1602.5C279.088 1510.31 299.844 1451.5 332 1326.5L393 1064C399.454 963.685 407.809 910.022 397.5 804C390.402 731 389.962 687.451 382.5 616.5C380 569 410.5 558 433 583C462.056 636.552 473 664.5 492.5 721C502 759.5 498.966 769.193 507.08 794L521.08 871" stroke="#596266" stroke-width="30" stroke-linecap="round"/>
<path d="M702.5 2013C722.045 1981.06 730.104 1973.51 738 1919.8C785.965 1726.44 819.135 1616.86 916.5 1414.3C990.386 1294.13 1033.8 1226.92 1170 1111.8C1202.87 1083.08 1224.91 1066.61 1269.5 1036.8C1289 1016.3 1280 948.921 1247 957.802C1091.95 999.53 1012.03 1027.93 879.5 1085.8" stroke="#596266" stroke-width="30" stroke-linecap="round"/>
<path d="M489 976.105C521.025 886.609 537 835.604 578 741.604L808 309.605C821.5 286.5 846 255.5 884 227.605C884 227.605 942 187.5 969.5 204C997 220.5 986.5 268.605 986.5 268.605C925.658 448.136 873.5 549.5 776.5 716.5" stroke="#596266" stroke-width="30" stroke-linecap="round"/>
<path d="M762 739.374C852.5 597.375 891.12 488.783 989.5 326.374C1054.5 246.875 1153.5 283.876 1127.5 378.874C1054.02 565.879 995.55 679.118 877.043 886.672C876.563 887.513 877.421 888.512 878.305 888.118C1048.58 812.215 1240.46 785.963 1325 801.874C1381 810.875 1401.5 869.375 1363.5 889.374C1165.09 999.359 1017.5 1018 875.5 1087.5" stroke="#596266" stroke-width="30" stroke-linecap="round"/>
</svg>
