<?xml version="1.0" encoding="UTF-8" standalone="no"?>
<!DOCTYPE svg PUBLIC "-//W3C//DTD SVG 1.1//EN" "http://www.w3.org/Graphics/SVG/1.1/DTD/svg11.dtd">
<svg xmlns="http://www.w3.org/2000/svg" version="1.1" viewBox="0.00 0.00 512.00 512.00">
<g stroke-width="2.00" fill="none" stroke-linecap="butt">
<path stroke="#e35f42" vector-effect="non-scaling-stroke" d="
  M 262.92 56.06
  Q 243.22 76.44 229.97 100.46
  Q 204.95 145.82 200.22 197.52
  Q 199.53 205.04 198.81 212.57
  C 198.24 218.53 198.22 222.62 192.49 224.44
  C 184.50 226.98 178.29 220.22 172.61 215.80"
/>
<path stroke="#f1863b" vector-effect="non-scaling-stroke" d="
  M 295.79 509.40
  Q 295.81 508.86 296.11 508.49
  Q 296.34 508.22 296.89 508.12
  C 362.03 495.46 404.35 442.30 398.67 375.06
  C 394.87 329.99 373.63 286.84 343.27 253.98
  C 334.93 244.96 325.33 238.63 320.41 255.50
  C 317.67 264.91 315.99 272.20 309.67 281.26
  Q 309.44 281.58 309.34 281.20
  Q 303.47 258.56 290.20 239.25
  Q 286.17 233.39 282.11 227.54
  C 271.50 212.30 265.45 195.91 262.76 177.04"
/>
<path stroke="#eb7f39" vector-effect="non-scaling-stroke" d="
  M 262.76 177.04
  Q 262.88 174.75 262.32 171.45
  C 261.37 165.77 256.40 162.33 251.56 166.78
  C 215.23 200.24 197.31 243.86 195.81 293.07"
/>
<path stroke="#f1863b" vector-effect="non-scaling-stroke" d="
  M 195.81 293.07
  Q 185.21 282.88 178.28 269.49"
/>
<path stroke="#eb7f39" vector-effect="non-scaling-stroke" d="
  M 178.28 269.49
  Q 174.90 260.82 172.85 256.68
  C 169.57 250.03 161.65 250.73 158.13 256.83
  Q 130.63 304.51 124.91 358.09
  C 123.04 375.54 123.83 392.33 126.26 409.98
  C 132.67 456.54 164.74 489.23 208.79 503.42"
/>
<path stroke="#f1863b" vector-effect="non-scaling-stroke" d="
  M 208.79 503.42
  C 216.89 505.74 224.13 507.74 232.53 508.54"
/>
<path stroke="#f19f4c" vector-effect="non-scaling-stroke" d="
  M 232.53 508.54
  L 240.42 510.37
  Q 241.31 510.58 240.41 510.77
  L 239.98 510.87"
/>
<path stroke="#e35f42" vector-effect="non-scaling-stroke" d="
  M 188.22 499.78
  Q 188.47 498.70 187.70 498.29
  C 143.59 475.28 114.51 438.28 105.60 388.68
  C 92.62 316.46 108.87 240.75 143.47 176.43
  Q 143.89 175.65 145.10 175.68"
/>
<path stroke="#ee9c2a" vector-effect="non-scaling-stroke" d="
  M 262.76 177.04
  Q 236.87 204.83 225.31 240.23
  Q 218.38 261.44 215.82 285.75
  C 215.17 291.99 210.97 295.72 204.57 295.47
  Q 199.67 295.27 195.81 293.07"
/>
<path stroke="#f4bc3d" vector-effect="non-scaling-stroke" d="
  M 281.87 510.53
  Q 301.03 506.61 316.93 496.82
  C 377.71 459.40 355.96 378.19 315.18 335.82
  C 312.48 333.02 308.13 328.93 304.23 332.87
  Q 302.00 335.12 301.47 337.57
  Q 299.13 348.39 294.36 355.71
  Q 293.87 356.46 293.65 355.59
  Q 289.49 339.01 281.72 328.26
  C 272.42 315.39 265.79 305.27 263.36 289.23
  C 262.57 284.04 262.04 270.91 252.81 280.00
  Q 218.53 313.79 217.03 362.88
  A 0.51 0.51 0.0 0 1 216.13 363.20
  Q 207.48 353.47 202.44 341.28
  C 199.47 334.08 194.32 334.33 190.58 340.87
  Q 169.00 378.61 168.20 422.21
  C 168.11 427.02 169.05 432.78 169.35 437.23
  C 171.53 469.19 191.24 492.99 220.49 504.35
  C 223.74 505.61 228.54 506.89 232.53 508.54"
/>
<path stroke="#ee9c2a" vector-effect="non-scaling-stroke" d="
  M 208.79 503.42
  L 208.75 502.66
  Q 208.72 502.13 208.26 501.87
  Q 175.54 483.69 160.93 450.26
  C 154.10 434.62 151.52 417.46 150.49 400.00
  Q 149.32 380.07 151.26 361.75
  Q 156.33 313.93 178.28 269.49"
/>
<path stroke="#efdf9b" vector-effect="non-scaling-stroke" d="
  M 266.10 512.00
  Q 284.29 510.41 297.43 499.91
  C 326.01 477.07 311.86 434.29 290.30 412.71
  C 284.23 406.63 282.49 421.62 279.89 424.49
  Q 279.49 424.92 279.34 424.36
  Q 277.00 415.86 271.52 407.57"
/>
<path stroke="#f6de78" vector-effect="non-scaling-stroke" d="
  M 271.52 407.57
  Q 263.87 397.56 262.10 384.22
  C 261.78 381.86 260.79 380.01 257.95 381.57
  A 2.53 2.33 6.8 0 0 257.41 381.96
  Q 237.51 400.71 236.85 428.41
  A 0.39 0.39 0.0 0 1 236.16 428.65
  Q 231.61 423.41 228.84 416.94
  C 226.75 412.07 223.54 413.68 221.49 417.38
  C 211.98 434.53 207.49 454.46 210.52 474.00
  C 213.27 491.66 224.94 503.12 241.26 509.22
  Q 244.97 510.60 250.50 510.65"
/>
<path stroke="#efdf9b" vector-effect="non-scaling-stroke" d="
  M 250.50 510.65
  L 255.22 511.27
  Q 255.93 511.36 255.29 511.69
  L 254.68 512.00"
/>
<path stroke="#f1e8c5" vector-effect="non-scaling-stroke" d="
  M 271.52 407.57
  Q 257.58 422.85 257.03 443.31
  A 0.39 0.39 0.0 0 1 256.37 443.58
  Q 251.47 438.96 248.46 432.77
  C 247.26 430.30 244.63 428.91 242.78 431.55
  C 232.62 446.03 227.54 466.24 230.88 484.23
  C 233.37 497.62 240.47 502.83 250.50 510.65"
/>
</g>
<path fill="#d8553a" d="
  M 184.12 67.63
  C 163.14 49.16 163.53 19.99 183.58 0.69
  A 1.20 1.19 -47.1 0 1 185.17 0.63
  C 206.39 18.29 205.43 49.55 185.05 67.62
  A 0.70 0.70 0.0 0 1 184.12 67.63
  Z"
/>
<path fill="#d8553a" d="
  M 262.92 56.06
  Q 243.22 76.44 229.97 100.46
  Q 204.95 145.82 200.22 197.52
  Q 199.53 205.04 198.81 212.57
  C 198.24 218.53 198.22 222.62 192.49 224.44
  C 184.50 226.98 178.29 220.22 172.61 215.80
  C 173.22 210.86 172.83 205.65 173.35 201.10
  Q 173.77 197.43 174.14 193.78
  Q 183.11 106.20 246.04 46.31
  Q 249.64 42.88 252.51 42.19
  C 258.32 40.81 261.64 45.31 262.48 50.53
  Q 263.02 53.90 262.92 56.06
  Z"
/>
<path fill="#ed694a" d="
  M 262.92 56.06
  Q 266.77 87.10 280.39 112.71
  C 286.00 123.28 295.61 135.21 302.28 145.20
  Q 318.60 169.70 326.46 200.32
  A 0.08 0.08 0.0 0 0 326.60 200.34
  C 331.82 192.47 335.88 184.30 338.29 175.00
  C 340.16 167.83 342.64 153.14 351.13 150.65
  C 360.26 147.97 371.18 161.41 376.71 167.67
  C 414.38 210.31 439.93 263.42 446.57 319.93
  C 458.34 420.18 392.97 495.85 295.79 509.40
  Q 295.81 508.86 296.11 508.49
  Q 296.34 508.22 296.89 508.12
  C 362.03 495.46 404.35 442.30 398.67 375.06
  C 394.87 329.99 373.63 286.84 343.27 253.98
  C 334.93 244.96 325.33 238.63 320.41 255.50
  C 317.67 264.91 315.99 272.20 309.67 281.26
  Q 309.44 281.58 309.34 281.20
  Q 303.47 258.56 290.20 239.25
  Q 286.17 233.39 282.11 227.54
  C 271.50 212.30 265.45 195.91 262.76 177.04
  Q 262.88 174.75 262.32 171.45
  C 261.37 165.77 256.40 162.33 251.56 166.78
  C 215.23 200.24 197.31 243.86 195.81 293.07
  Q 185.21 282.88 178.28 269.49
  Q 174.90 260.82 172.85 256.68
  C 169.57 250.03 161.65 250.73 158.13 256.83
  Q 130.63 304.51 124.91 358.09
  C 123.04 375.54 123.83 392.33 126.26 409.98
  C 132.67 456.54 164.74 489.23 208.79 503.42
  C 216.89 505.74 224.13 507.74 232.53 508.54
  L 240.42 510.37
  Q 241.31 510.58 240.41 510.77
  L 239.98 510.87
  Q 213.53 508.17 188.22 499.78
  Q 188.47 498.70 187.70 498.29
  C 143.59 475.28 114.51 438.28 105.60 388.68
  C 92.62 316.46 108.87 240.75 143.47 176.43
  Q 143.89 175.65 145.10 175.68
  Q 154.77 198.42 172.61 215.80
  C 178.29 220.22 184.50 226.98 192.49 224.44
  C 198.22 222.62 198.24 218.53 198.81 212.57
  Q 199.53 205.04 200.22 197.52
  Q 204.95 145.82 229.97 100.46
  Q 243.22 76.44 262.92 56.06
  Z"
/>
<path fill="#d8553a" d="
  M 329.87 116.35
  C 315.63 102.83 315.48 81.56 330.37 68.59
  Q 330.68 68.32 331.00 68.59
  C 346.16 81.55 345.73 103.64 331.19 116.38
  Q 330.52 116.97 329.87 116.35
  Z"
/>
<path fill="#d8553a" d="
  M 443.18 141.92
  Q 443.73 141.27 444.37 141.83
  C 465.40 159.86 464.86 190.83 444.18 208.84
  A 0.61 0.61 0.0 0 1 443.36 208.82
  Q 432.55 198.47 431.77 183.07
  C 431.09 169.80 434.24 152.34 443.18 141.92
  Z"
/>
<path fill="#d8553a" d="
  M 145.10 175.68
  Q 143.89 175.65 143.47 176.43
  C 108.87 240.75 92.62 316.46 105.60 388.68
  C 114.51 438.28 143.59 475.28 187.70 498.29
  Q 188.47 498.70 188.22 499.78
  C 136.37 482.16 93.41 443.87 81.27 388.99
  C 64.60 313.68 83.15 233.14 121.05 167.31
  C 124.46 161.38 130.38 157.68 136.88 161.56
  C 141.41 164.26 143.53 170.63 145.10 175.68
  Z"
/>
<path fill="#e89528" d="
  M 262.76 177.04
  Q 236.87 204.83 225.31 240.23
  Q 218.38 261.44 215.82 285.75
  C 215.17 291.99 210.97 295.72 204.57 295.47
  Q 199.67 295.27 195.81 293.07
  C 197.31 243.86 215.23 200.24 251.56 166.78
  C 256.40 162.33 261.37 165.77 262.32 171.45
  Q 262.88 174.75 262.76 177.04
  Z"
/>
<path fill="#d8553a" d="
  M 60.16 174.27
  Q 60.60 173.70 61.16 174.16
  C 76.39 186.75 75.57 209.29 61.10 222.20
  A 0.58 0.58 0.0 0 1 60.33 222.19
  C 48.23 210.90 50.57 186.51 60.16 174.27
  Z"
/>
<path fill="#f4a32c" d="
  M 262.76 177.04
  C 265.45 195.91 271.50 212.30 282.11 227.54
  Q 286.17 233.39 290.20 239.25
  Q 303.47 258.56 309.34 281.20
  Q 309.44 281.58 309.67 281.26
  C 315.99 272.20 317.67 264.91 320.41 255.50
  C 325.33 238.63 334.93 244.96 343.27 253.98
  C 373.63 286.84 394.87 329.99 398.67 375.06
  C 404.35 442.30 362.03 495.46 296.89 508.12
  Q 296.34 508.22 296.11 508.49
  Q 295.81 508.86 295.79 509.40
  Q 288.88 510.98 281.87 510.53
  Q 301.03 506.61 316.93 496.82
  C 377.71 459.40 355.96 378.19 315.18 335.82
  C 312.48 333.02 308.13 328.93 304.23 332.87
  Q 302.00 335.12 301.47 337.57
  Q 299.13 348.39 294.36 355.71
  Q 293.87 356.46 293.65 355.59
  Q 289.49 339.01 281.72 328.26
  C 272.42 315.39 265.79 305.27 263.36 289.23
  C 262.57 284.04 262.04 270.91 252.81 280.00
  Q 218.53 313.79 217.03 362.88
  A 0.51 0.51 0.0 0 1 216.13 363.20
  Q 207.48 353.47 202.44 341.28
  C 199.47 334.08 194.32 334.33 190.58 340.87
  Q 169.00 378.61 168.20 422.21
  C 168.11 427.02 169.05 432.78 169.35 437.23
  C 171.53 469.19 191.24 492.99 220.49 504.35
  C 223.74 505.61 228.54 506.89 232.53 508.54
  C 224.13 507.74 216.89 505.74 208.79 503.42
  L 208.75 502.66
  Q 208.72 502.13 208.26 501.87
  Q 175.54 483.69 160.93 450.26
  C 154.10 434.62 151.52 417.46 150.49 400.00
  Q 149.32 380.07 151.26 361.75
  Q 156.33 313.93 178.28 269.49
  Q 185.21 282.88 195.81 293.07
  Q 199.67 295.27 204.57 295.47
  C 210.97 295.72 215.17 291.99 215.82 285.75
  Q 218.38 261.44 225.31 240.23
  Q 236.87 204.83 262.76 177.04
  Z"
/>
<path fill="#e89528" d="
  M 178.28 269.49
  Q 156.33 313.93 151.26 361.75
  Q 149.32 380.07 150.49 400.00
  C 151.52 417.46 154.10 434.62 160.93 450.26
  Q 175.54 483.69 208.26 501.87
  Q 208.72 502.13 208.75 502.66
  L 208.79 503.42
  C 164.74 489.23 132.67 456.54 126.26 409.98
  C 123.83 392.33 123.04 375.54 124.91 358.09
  Q 130.63 304.51 158.13 256.83
  C 161.65 250.73 169.57 250.03 172.85 256.68
  Q 174.90 260.82 178.28 269.49
  Z"
/>
<path fill="#f4d44e" d="
  M 281.87 510.53
  L 273.67 512.00
  L 266.10 512.00
  Q 284.29 510.41 297.43 499.91
  C 326.01 477.07 311.86 434.29 290.30 412.71
  C 284.23 406.63 282.49 421.62 279.89 424.49
  Q 279.49 424.92 279.34 424.36
  Q 277.00 415.86 271.52 407.57
  Q 263.87 397.56 262.10 384.22
  C 261.78 381.86 260.79 380.01 257.95 381.57
  A 2.53 2.33 6.8 0 0 257.41 381.96
  Q 237.51 400.71 236.85 428.41
  A 0.39 0.39 0.0 0 1 236.16 428.65
  Q 231.61 423.41 228.84 416.94
  C 226.75 412.07 223.54 413.68 221.49 417.38
  C 211.98 434.53 207.49 454.46 210.52 474.00
  C 213.27 491.66 224.94 503.12 241.26 509.22
  Q 244.97 510.60 250.50 510.65
  L 255.22 511.27
  Q 255.93 511.36 255.29 511.69
  L 254.68 512.00
  L 251.20 512.00
  L 239.98 510.87
  L 240.41 510.77
  Q 241.31 510.58 240.42 510.37
  L 232.53 508.54
  C 228.54 506.89 223.74 505.61 220.49 504.35
  C 191.24 492.99 171.53 469.19 169.35 437.23
  C 169.05 432.78 168.11 427.02 168.20 422.21
  Q 169.00 378.61 190.58 340.87
  C 194.32 334.33 199.47 334.08 202.44 341.28
  Q 207.48 353.47 216.13 363.20
  A 0.51 0.51 0.0 0 0 217.03 362.88
  Q 218.53 313.79 252.81 280.00
  C 262.04 270.91 262.57 284.04 263.36 289.23
  C 265.79 305.27 272.42 315.39 281.72 328.26
  Q 289.49 339.01 293.65 355.59
  Q 293.87 356.46 294.36 355.71
  Q 299.13 348.39 301.47 337.57
  Q 302.00 335.12 304.23 332.87
  C 308.13 328.93 312.48 333.02 315.18 335.82
  C 355.96 378.19 377.71 459.40 316.93 496.82
  Q 301.03 506.61 281.87 510.53
  Z"
/>
<path fill="#f7e7a1" d="
  M 271.52 407.57
  Q 257.58 422.85 257.03 443.31
  A 0.39 0.39 0.0 0 1 256.37 443.58
  Q 251.47 438.96 248.46 432.77
  C 247.26 430.30 244.63 428.91 242.78 431.55
  C 232.62 446.03 227.54 466.24 230.88 484.23
  C 233.37 497.62 240.47 502.83 250.50 510.65
  Q 244.97 510.60 241.26 509.22
  C 224.94 503.12 213.27 491.66 210.52 474.00
  C 207.49 454.46 211.98 434.53 221.49 417.38
  C 223.54 413.68 226.75 412.07 228.84 416.94
  Q 231.61 423.41 236.16 428.65
  A 0.39 0.39 0.0 0 0 236.85 428.41
  Q 237.51 400.71 257.41 381.96
  A 2.53 2.33 6.8 0 1 257.95 381.57
  C 260.79 380.01 261.78 381.86 262.10 384.22
  Q 263.87 397.56 271.52 407.57
  Z"
/>
<path fill="#eae9e8" d="
  M 271.52 407.57
  Q 277.00 415.86 279.34 424.36
  Q 279.49 424.92 279.89 424.49
  C 282.49 421.62 284.23 406.63 290.30 412.71
  C 311.86 434.29 326.01 477.07 297.43 499.91
  Q 284.29 510.41 266.10 512.00
  L 254.68 512.00
  L 255.29 511.69
  Q 255.93 511.36 255.22 511.27
  L 250.50 510.65
  C 240.47 502.83 233.37 497.62 230.88 484.23
  C 227.54 466.24 232.62 446.03 242.78 431.55
  C 244.63 428.91 247.26 430.30 248.46 432.77
  Q 251.47 438.96 256.37 443.58
  A 0.39 0.39 0.0 0 0 257.03 443.31
  Q 257.58 422.85 271.52 407.57
  Z"
/>
</svg>
