<svg xmlns="http://www.w3.org/2000/svg" fill-rule="evenodd" stroke-linejoin="round" stroke-miterlimit="1.41" clip-rule="evenodd" viewBox="0 0 147 149"><path fill="url(#_Linear1)" d="M11.8 83.69v41.02s53.51 25.32 74.76 20.88c.68-14.6 0-39.63 0-39.63L11.8 83.7"/><path fill="#f6d28a" d="M11.66 123.16l65.43 14.36 4.71-31.26h5.35v38.96l-41.55-5.37s-29.16-9.73-33.94-16.7z"/><path fill="#ffe4ab" d="M138.57 76.9v41.03s-35.96 23.26-52.14 26.3c-.67-14.6 0-39.62 0-39.62l52.14-27.7"/><path fill="#fff8ec" d="M87.43 136.7l42.86-22.84 3.56-34h4.02v36.37s-1 8.52-50.44 28.35c-.77-4.57 0-7.89 0-7.89z"/><path fill="#24140e" fill-rule="nonzero" d="M141 76.3v42.59c-17.1 12.5-35.82 22.8-55.8 29.49 0 0-3.1-.19-5.24-.51-24.05-3.72-48.1-10.2-69.57-21.25l-.77-.4c-.86-14.68-.38-29.45-.01-44.26v-.35c0-2.07-2.06-6.11 0-6.2 43.76-1.77 87.6.59 131.38.88zM12.71 81.6c-.18 14.05-.34 28.11.41 42.03l.01.23C35.42 134.8 59.88 140.85 84.25 144h.01c18.58-6.4 35.98-16 52.01-27.48l.07-22.8.01-12.82-14.94-.13-15.64-.23c-18.46-.33-36.9-.7-55.34-1.08l-.23-.57-37.4-.28-.08 3z"/><path fill="url(#_Linear2)" d="M5.44 58.83V81.4l76.47 22.85V78.21L5.44 58.83z"/><path fill="#f6d28a" d="M6.05 79.74L73.57 95.8l3.9-17.57 4.62 1.5v26.22L6.05 82.02v-2.28z"/><path fill="#ffe4ab" d="M82.46 77.82v27.33l61.94-31.12V49.74L82.46 77.82z"/><path fill="#fff8ec" d="M82.95 99.95l52.88-30.1 3.32-17.9h4.02v21.58s-14.74 9.55-60.21 32.16c-.77-4.56 0-5.74 0-5.74z"/><path fill="url(#_Radial3)" d="M5.72 58.1l74.69 19.72 64.17-28.67-71.45-22.89L5.72 58.11z"/><path fill="#24140e" fill-rule="nonzero" d="M146 48v27.87l-62.4 32.29-79.66-25.6V56.97l68.04-32.6L146.01 48zM6.2 59.85l.44 20.74 10.08 3.24.18-.17c22.11 6.64 44.23 13.26 66.33 19.99l22.76-11.82 1.71-.78c11.69-6.26 21.44-12.19 33.19-18.3l-.03-2.93c.04-7.21.05-7.21.15-14.43l.07-3.8-16.39-5.23.2-.23-36.15-12.3-16.49-5.62L6.2 59.85z"/><path fill="#24140e" fill-rule="nonzero" d="M84.83 105.37c.1-3.35 3.17-1.4 3.2-.72a496.26 496.26 0 0 1 .26 24.03c-.02 1.27-.1 3.68-.14 4.9-.19 5.43-.22 5.95-.47 11.6l-1.24 1.5-1.24-1.5-.27-6.18c-.18-4.87-.34-8.17-.37-14.47a486.71 486.71 0 0 1 .27-19.16zm58.73-55.55l-.86 1.62c-19.87 9.8-39.8 19.62-59.72 29.26l-.66.32c-.92.35-.45.37-1.7.17l-2.02-.5-3.81-.99c-7.75-2.04-20.62-5.76-32.81-9.26L5.12 59.88l-.79-1.35 1.35-.79 36.53 8.72c8.3 1.98 16.59 3.95 24.88 5.97 2.07.5 5.24 1.3 7.37 1.86 1.5.4 3.72 1.03 3.72 1.03l2.85.76 1.46-.67 9.35-4.14c16.6-7.3 33.26-14.58 49.93-21.84l1.8.39z"/><path fill="#24140e" fill-rule="nonzero" d="M82.72 77.93s.5.89.52 1.19c.32 3.5.6 6.1.74 10.7.1 3.34 0 7.49-.16 9.3-.24 2.84-.28 3.11-.59 6.07l-.53 1.34-1.03.55-1-.55-.54-1.34-.34-3.24c-.96-10.78-.27-16.51.34-22.93l.51-1.1 1.05-.45 1.03.46z"/><path fill="#931805" d="M71.56 1.45c-6.03-5.3-39.84 6.14-8.77 40.98 27.28 30.6 8.77-40.98 8.77-40.98z"/><path fill="#550e03" fill-rule="nonzero" d="M67.34.22c1.75.04 3.8-.44 4.52 2.46 3.18 12.94 6.52 26.3 5.77 39.2-.2 3.35-.76 7.43-3.62 8.08-3.8.86-6.62-2.78-8.94-5.1-9.94-9.99-20.1-23.69-13.27-35.82C54.83 3.65 61.07.16 67.34.22zm-.03 1.97c-7.72.13-15.15 6.36-14.95 14.7.26 11.17 8.9 20.8 16.13 27.35 1.73 1.56 4.3 4.83 5.5 2.12 2-4.57 1.06-10.4.5-16.12a232.4 232.4 0 0 0-4.56-27.53s-1.51-.53-2.62-.52zm6.13 45zm0 0c.01 0 0 0 0 0z"/><path fill="url(#_Linear4)" d="M68.42 53.4S24.66 67.9 7.73 54.8C-4.37 40 2.4 27.11 9.72 22.38c10.07-6.5 41 .79 61.23 21.01 5.6 5.59-2.53 4.52-2.53 4.52S28.82 22.6 20.38 34.49C10.27 48.75 35.82 50.63 65.3 47.91c5.2.46 1.73 5.23 3.12 5.49"/><path fill="#550e03" fill-opacity=".45" d="M17.98 42.5S14 61.1 35.58 59.96c21.6-1.12 22.06-6.79 27.87-8.1 5.81-1.3 0-4.02 0-4.02S29.56 53.3 17.98 42.5"/><path fill="#550e03" fill-rule="nonzero" d="M20.26 18.72c19.1.15 37.99 10.11 51.45 23.43 1.66 1.65 3.83 3.94 2 6.02-1.35 1.53-4.63 1.2-4.63 1.2.48 1.58.1 3.87-.1 3.41-.52-1.02-.1.11-.1.11l.43.22.03.49s-.53.66-1.65 1.02c-15.42 4.88-31.92 8.5-47.38 6.2-4.68-.68-9.33-2.09-13.1-4.88 0 0-3.18-3.63-4.97-7.38C-2.84 37.92.53 22 14.32 19.23c1.96-.39 3.95-.52 5.94-.51zm-.63 2.71c-9.3.11-19.15 8.32-16.95 20.47.8 4.44 3.07 8.47 5.86 11.97l.05.07c7.8 5.96 18.95 5.76 29.17 4.82a148.8 148.8 0 0 0 29.3-5.9s1.85-3.6-1.74-3.97c0 0-1.97.19-4.06.36C48.94 50.27 36 51.38 24.93 48c-3.75-1.15-7.9-3.18-8.04-7.66-.17-6.12 5.57-10.64 12.4-10.3 14.1.74 27.81 9.2 39.43 16.4l2.75-.07c-.5-1.32-1.79-2.27-2.93-3.35-13.26-12.56-31.34-21.38-48.3-21.58h-.6zm8.13 11.19c-3.25.07-6.22 1.64-7.73 4.92-.6 1.32-.96 2.91-.3 4.29 1.83 3.8 7.62 4.64 12.64 5.3 10.53 1.4 21.25.78 31.9-.11-9.27-5.5-18.98-10.76-29.34-13.4a28.21 28.21 0 0 0-7.17-1z"/><path fill="#e52100" d="M86.7 39.52s18.71-30.29 35.5-29.73c16.8.57 20.35 7.9 23.97 16.7 3.61 8.8-6.75 27.79-47.22 27.2-17.92-.26-14.39-9.73-12.25-14.17zm20.83-2.48s-3.08 6.64 3.27 5.06c6.34-1.58 28.62-13.14 23.7-16.81-6.88-2.49-20.5 3.04-26.97 11.75z"/><path fill="#550e03" fill-opacity=".7" d="M104.35 43.39s19.05-6.15 21.37-7.28c14.2-6.95 9.67-11.89 9.67-11.89l10.07 3.07c.37 6-1.55 9.7-4.4 12.45-9.86 11.38-23.6 11.47-36.71 13.37V43.4z"/><path fill="#550e03" fill-rule="nonzero" d="M122.01 9.79c7.46.2 15.32 1.96 19.91 8.36 2.78 3.87 5.14 8.38 4.9 12.57-.62 10.77-12.94 18.07-26.13 21-10 2.23-20.85 4.02-30.31.75-3.34-1.15-6.08-4.61-5.25-8.61.96-4.62 4.3-8.6 7.37-12.6 7.65-9.98 16.74-21.1 28.92-21.47h.59zm-.53 2.58c-7.08.11-13.36 5.33-18.54 10.33A103.95 103.95 0 0 0 88.6 40.02s-3.12 5-1.02 8.13c2.31 3.44 7.12 3.15 10.62 3.2 15.1.21 32.17-.98 42.33-13.05a18.45 18.45 0 0 0 1.97-2.84c.2-.39.4-.78.58-1.2 2.72-6.3-1.85-14.85-7.52-18.49-4.1-2.62-9.2-3.42-14.08-3.4zm9.63 9.52c1.8.04 4.34.74 4.34.74.48.22.25-.12 1.2.8a4.43 4.43 0 0 1 1.23 4.3c-1.43 5.45-8.26 8.1-13.95 10.78-7.3 3.43-17 8.02-18.85 2.37-.61-1.86.74-4.6.74-4.6 4.72-8.6 17.28-14.47 25.3-14.4zm-.68 2.8c-8.94.19-18.06 5.37-22.9 12.35-.04.06-1.38 2.55-.23 3.73 1.68 1.72 4.34.17 6.9-.8 7.05-2.64 14.34-5.5 19.59-10.9a10.41 10.41 0 0 0 .87-1.03c.58-.86.89-2.42-.48-2.86-1.21-.38-2.48-.5-3.75-.49z"/><path fill="#ec2d0e" d="M69.89 49.54c-14.76 3.98-25.34 9.2-33.67 15.07-3.5 4.66-3.35 68.16 2.76 72.98 3.34 2.63 11.88 4.68 13.7 4.28 2.22-.5-4.96-70.96-1.46-71.61 5.61-5.91 14.18-9.28 22.74-10.69 0 0 .65-9.33-4.07-10.03z"/><path fill="#ff8f8f" fill-opacity=".8" d="M35.53 65.5l15.86 4.65C57.33 64.4 65.29 60.67 75.3 59l-3.45-9.45s-18.83 3.6-36.33 15.95z"/><path fill="#550e03" fill-rule="nonzero" d="M70.9 48.9c2.9.48 3.89 4.19 4.16 6.48.17 1.5.1 3.68.1 3.68l-.84.14c-8.13 1.44-15.86 5.06-21.72 10.94-1.6.35-1.15 4.43-1.21 8.5-.33 19.97 2.15 39.89 1.76 59.87-.05 2.24 1.5 4.59-3.13 3.88-5.28-.81-11.62-1.66-13.54-6.89-1.65-4.5-2.08-9.41-2.56-14.3-1.75-17.61-2.66-35.57.06-52.9.27-1.76 1.17-4.12 1.17-4.12 10.72-7.2 22.87-11.93 35.33-15.19 0 0 .3-.1.42-.08zm-.3 2c-11.9 3.3-23.5 7.96-33.68 14.87-.81 2.24-.9 4.82-1.09 7.33a254.9 254.9 0 0 0 1.1 50.36c.5 4.19.62 8.68 2.7 12.25 1.12 1.91 6.12 3.08 10.41 3.83 0 0 .23.8.28-.7.19-8.54-.36-17.08-.7-25.64l-.07-1.54c-.46-12.82-1.59-25.84-.33-38.27.2-1.97.33-4.17 2-5.2 5.88-5.7 13.64-9.35 21.88-10.85 0 0 .53-4.68-1.76-6.3-.2-.14.45.1-.44-.22l-.3.08z"/><path fill="url(#_Linear5)" d="M86.76 48.9c15.65 4.03 23.62 7.3 32.45 13.26 3.7 4.72 6.52 57.85 5.2 68.22-2.26 3.86-8.35 6.87-14.8 7.06-2.42.07-.9-66.64-4.6-67.3-5.95-5.99-13.5-9.65-22.58-11.08 0 0-.69-9.46 4.33-10.16z"/><path fill="#550e03" fill-rule="nonzero" d="M88.2 49.27c10.95 2.85 21.98 5.8 31.46 12.06 0 0 2.09 5.48 2.7 10.47a327.57 327.57 0 0 1 2.31 55 77.99 77.99 0 0 1-.27 3.58c-2.8 4.74-8.91 6.87-14.8 7.06-.82-.02-.74-2.58-.9-4.77-1.39-18.46-.3-37.06-2.05-55.57-.2-2.06-.3-4.15-1.01-6.1-.04-.12-.1-.23-.15-.35-.4-.8-1.06-1.08-1.62-1.6-5.87-5.42-13.46-8.71-21.44-9.99-.26-4.25.3-9.5 4.27-10.15 0 0 .9.2 1.5.36zm-1.5 1.55c-.2.07-.1-.33-.9.67-1.24 1.56-1.34 3.8-1.38 5.8 0 0 3.94.77 6.98 1.8a40.48 40.48 0 0 1 14.69 8.79s1.6 1.32 2.13 3.36c4.95 19.1 1.14 40.69 3.45 63.06l.01.14c3.85-.54 7.8-2.02 10-4.99 0 0 .36-5.67.38-10.23.1-16.03-.27-32.17-2.2-48.14-.33-2.7-.57-5.58-1.51-7.86v-.01c-9.27-6.27-20.3-9.31-31.27-12.3 0 0-.32-.1-.38-.09z"/><path fill="url(#_Linear6)" d="M72.73 44.92S58.17 12.88 63.5 3.32c3.12-4.22 19.47-.7 19.4 2.59-.2 9.72-1.97 18.78 2.21 27.92 4.19 9.13-4.39 10.44-12.38 11.1"/><path fill="#ff8a7f" fill-opacity=".45" d="M82.81 8.46S70.92 2.03 70.23 10.8C69.54 19.57 74 40.34 74 40.34h-3.76S62.8 17.62 62.35 10.8C61.9 4 64.6 2.38 64.6 2.38S86.77-.07 82.8 8.46z"/><path fill="#550e03" fill-rule="nonzero" d="M70.01 0c4.44.05 9.17.7 12.66 3.24 3.38 2.47 1.25 8.78 1.1 14.3-.18 5.73.8 11.32 2.86 16.79 1.17 3.18.61 7.1-2.18 8.91-3.27 2.13-7.4 2.31-11.26 2.59l-1.3-.52C66.63 34.08 61.48 22.26 61.01 10c-.1-2.43.07-4.92 1.15-7.08C62.64 2 66.84.05 69.59 0H70zm-.4 2.77a18.86 18.86 0 0 0-1.93.13c-1.22.16-2.54.18-3.13 1.36-2.44 5.07-.53 11.42 1.16 17.87a159.2 159.2 0 0 0 7.53 21.62s5.96-.26 9.01-1.76c2.57-1.25 3.13-4.65 1.55-8.1-.48-1.07-.52-1.21-.73-1.78-3.03-8.08-1.84-17.18-1.6-25.79 0 0-.22-.67-.8-1.03-3.16-1.94-7.19-2.52-11.06-2.52z"/><path fill="#e52100" d="M67.67 39.95s-8.63 5.8-3.59 11.11c5.05 5.32 3.32 3.8 3.59 7.37.27 3.58 11.46 0 11.46 0s7.57-20.6-11.46-18.48"/><path fill="#550e03" fill-rule="nonzero" d="M67.57 39.02c4.68-.62 9.95-.03 12.63 4.2 2.98 4.7 1.93 11 .25 15.69 0 0-10.8 5.16-13.66.97-.9-1.31-.23-3.83-.43-4.23-1.57-3.13-6.43-5.63-4.52-10.48.99-2.52 3.05-4.48 5.27-5.97 0 0 .22.12.46-.18zm2.04 1.77c-2.3.03-4.09 2.12-5.13 3.9-1.54 2.63.86 5.06 3.82 9.17 1.1 1.52.71 4.48.71 4.49 1.14 1.05 5.15.05 9-1.05 0 0 1.44-5.25 1.2-8.64-.23-3.13-2.08-6.31-5.3-7.31a12.69 12.69 0 0 0-4.3-.56zm-.6 17.58s0-.01 0 0zm0 0s0-.01 0 0zm0 0s0-.02 0 0zm0 0s0-.01 0 0zm0 0s0-.01 0 0zm0-.02zm0 0zm0 0l.01.02v-.02zm.01 0zm0 0zm0 0zm0 0zm0 0zm0 0zm0 0zm0 0zm0 0zm0 0z"/><path fill="#931805" d="M85.13 28.28s-10.2-6.74-10.67 11.67c-.32 12.41 3.15 15.28 4.68 15.97 8.55 3.87 32.5-6.81 5.98-27.64z"/><path fill="#550e03" fill-rule="nonzero" d="M81.3 27.08c1.63.05 3.82 1.2 3.82 1.2 7.43 5.86 15.62 14.28 10.8 22.15-4.17 6.84-15.73 9.03-19.22 3.08-3.82-6.5-3.3-16.13-.78-22.26.9-2.2 2.55-4.2 5.38-4.17zm-.05 2c-3.1.12-3.73 4.08-4.03 6.39-.82 6.2-1.13 13.8 2.5 17.5 1.92 1.95 6.23 1 9.27-.33 3.3-1.45 6.3-4.56 5.46-8.84-1.07-5.5-5.69-9.9-10.19-13.8 0 0-1.63-.95-3-.92z"/><path fill="url(#_Linear7)" d="M76.48 58.27c10.5-10.1 17.68-21.78 3.83-31.2h22.05c8.51 5.9 10.2 24.72-6.16 34.67-19.18 1.4-19.23-.37-19.72-3.48z"/><path fill="#550e03" fill-rule="nonzero" d="M102.47 27.14c7.24 4.5 9.08 15.34 4.96 23.46-2.42 4.77-6.56 8.5-11.23 11.14-5.77.42-11.81 1.46-17.1-.11-1.42-.43-2.38-1.83-2.61-3.37 6.51-8.4 15.14-18.56 7.8-27.63a18.68 18.68 0 0 0-3.98-3.55h22.05l.11.06zm-15.64 2.69c4.55 6.62.97 16.1-3.24 22.21a110.8 110.8 0 0 1-5.1 6.72c.52 2.12.08.4.24.56.24.26-.22-.05.33.2 2.95 1.29 6.78.6 10.48.35 1.87-.12 3.74-.28 5.61-.45 0 0 15.09-9.84 11.01-22.89a12.93 12.93 0 0 0-4.63-6.65l-8.65-.05s-6.34-.41-6.05 0z"/><path fill="#550e03" fill-rule="nonzero" d="M130.54 21.86a23.49 23.49 0 0 1 14.89 5.3l.24 1.41-1.31.12c-8.19-6.3-20.72-3.7-27-.1a47.78 47.78 0 0 0-9.27 7.09l-1.32.03s-.35-.96.45-1.85c4.54-4.97 9.8-9.23 16.67-11.12 2.2-.6 4.03-.89 6.65-.89zM19.27 37.58c-.63 1.77-1.36 8.57.56 12.25 3.13 6.02 10.85 8.2 17.1 9.14l.85 1.02-1.03.83c-8.08-.46-18.28-1.67-20.5-13.23a18.35 18.35 0 0 1 1.26-10.65l1.24-.57.52 1.2z"/><defs><linearGradient id="_Linear1" x2="1" gradientTransform="rotate(-143.45 53.2 52.38) scale(57.2048)" gradientUnits="userSpaceOnUse"><stop offset="0" stop-color="#d4a46a"/><stop offset="1" stop-color="#9b501e"/></linearGradient><linearGradient id="_Linear2" x2="1" gradientTransform="rotate(-150.2 41.07 36.16) scale(44.4645)" gradientUnits="userSpaceOnUse"><stop offset="0" stop-color="#cd8e3e"/><stop offset="1" stop-color="#9b501e"/></linearGradient><radialGradient id="_Radial3" cx="0" cy="0" r="1" gradientTransform="translate(75.15 52.04) scale(39.2217)" gradientUnits="userSpaceOnUse"><stop offset="0" stop-color="#931805"/><stop offset="1" stop-color="#e4a960"/></radialGradient><linearGradient id="_Linear4" x2="1" gradientTransform="rotate(-111.64 27.44 16.4) scale(27.123)" gradientUnits="userSpaceOnUse"><stop offset="0" stop-color="#e52100"/><stop offset="1" stop-color="#ff6a51"/></linearGradient><linearGradient id="_Linear5" x2="1" gradientTransform="scale(-39.9674 39.9674) rotate(-62.73 .43 3.43)" gradientUnits="userSpaceOnUse"><stop offset="0" stop-color="#e52100"/><stop offset=".53" stop-color="#f84428"/><stop offset="1" stop-color="#ff5137"/></linearGradient><linearGradient id="_Linear6" x2="1" gradientTransform="rotate(-99.11 56.62 -14.03) scale(36.9188)" gradientUnits="userSpaceOnUse"><stop offset="0" stop-color="#e52100"/><stop offset="1" stop-color="#f8573c"/></linearGradient><linearGradient id="_Linear7" x2="1" gradientTransform="rotate(-86.13 73.36 -24.5) scale(11.32173)" gradientUnits="userSpaceOnUse"><stop offset="0" stop-color="#e52100"/><stop offset="1" stop-color="#ff6a51"/></linearGradient></defs></svg>