<svg xmlns="http://www.w3.org/2000/svg" xmlns:xlink="http://www.w3.org/1999/xlink" width="145" height="125"><defs><path id="a" d="M9.65 14.62s.7-4.72-.21-6.28c-.92-1.57-1.77-2.12-1.77-2.12l-5.4 1.61s-2.62.8-1.99-1.2c.64-1.99.24-2.72 2.16-3.57 1.92-.85 5.38-4 7.28-1.8 1.9 2.2 1.92 3.13 3.86 3.33 1.93.2 4.55-1.26 4.55-1.26l1.1 7s-5.61 9.7-9.58 4.3z"/><path id="c" d="M.67 7.6c1.91-.71 3.8-1.46 7.38.6 0 0 1.66 5.43 7.51 6.23 4.72.64 3.3-1.34 2.5-1.82-7.58-4.52-3.84-11.08-1.49-11.2C18.92 1.29 2.12.74 2.12.74S.38 7.34.67 7.6z"/><linearGradient id="e" x1="30.8%" x2="14.55%" y1="22.79%" y2="95.63%"><stop offset="0%" stop-color="#9AB1C7"/><stop offset="100%" stop-color="#527496"/></linearGradient><path id="f" d="M34.96.06l.43 7.9s1.33-.8-1.15 1.91c-2.48 2.72-6.53 13.2-11.06 14.48-4.53 1.28-3.26 9.19-3.26 9.19C4.08 51.98-2.78 68.79 1.02 83.67l29.7-1.81c-1.81-17.1.87-29.7 10.35-35.53a20.9 20.9 0 0 1 6.04-10l28.64-1.35 2.88-4.76 1.66-2.74 47.2.05V21.6l15.2-.05c1.1-.18 1.68-.83 1.75-1.57l-.02-7.96a1.52 1.52 0 0 0-1.7-1.42l-2.28-.05c-.48-1.7-1.58-3.18-2.72-4.65-1.63-1.03-2.52-.46-3.73-.2l-2.55 2.35L77.6 7.9l-4-2.42-22.28-.54-1.3-2.26-10.06.4L37.91 0l-2.95.06z"/></defs><g fill="none" fill-rule="evenodd"><path fill="#4B647A" d="M24.65 44.62s.7-4.72-.21-6.28a6.63 6.63 0 0 0-1.77-2.12l-5.4 1.61s-2.62.8-1.99-1.2c.63-1.99.24-2.72 2.16-3.57 1.92-.85 5.38-4 7.28-1.8 1.9 2.2 1.93 3.13 3.86 3.33 1.93.2 4.55-1.26 4.55-1.26l1.1 7s-5.61 9.7-9.58 4.3z"/><g transform="translate(15 30)"><mask id="b" fill="#fff"><use xlink:href="#a"/></mask><path fill="#88A2BB" d="M-.63 6.08s6.8-3.35 8.54-2.6c1.73.75 3.33 4.14 5.52 4.78 2.2.64 6.06-3.02 6.06-3.02l-1.4-3.71L7.93-.97s-9.06.1-8.57 7.05z" mask="url(#b)"/></g><path fill="#35485A" fill-rule="nonzero" d="M34.02 31.9c.87.93.83 2.04.96 2.93l.54 4.1.1.8c.07 1.42.15.83-.89 2.26-2.4 3.32-6.11 7.28-9.98 4.33-.62-.47-1.28-1.38-1.28-1.38-.9-1.45.3-4.45-.4-6.45-.2-.53.54.57-.54-.74l-.03-.05c-2.98.99-6.38 2.92-7.94-.56-.54-1.2-.57-1.03-.17-2.7.58-2.23 2.98-3.32 5.13-4.54 2.54-1.45 5.36-1.96 8.55 2.2l.2.24c.83.92 3.14-.74 3.14-.74.74-.32 1.26-.7 2.61.3zm-1.53 1.74c-2.15 1.15-4.78 1.83-6.28-.1-.4-.52-.07-1.59-2.24-2.4-2.5-.93-4.94 1.7-6.32 2.46-2.16 1.22-2.18 3.71.7 2.95l4.58-1.04c2.17 1.48 2.22 5.38 1.8 8.45 0 0 .97 1.48 2.39 1.55 3.2.16 5.04-3.17 6.39-5.43 0 0-.68-6.62-1.02-6.44z"/><path fill="#4B647A" d="M42.67 60.6c1.91-.71 3.8-1.46 7.38.6 0 0 1.66 5.43 7.52 6.23 4.7.64 3.3-1.34 2.49-1.82-7.58-4.52-3.84-11.08-1.49-11.2 2.35-.12-14.45-.67-14.45-.67s-1.74 6.6-1.45 6.86z"/><g transform="translate(42 53)"><mask id="d" fill="#fff"><use xlink:href="#c"/></mask><path fill="#2C3C4B" d="M19.22 14.05s-1.54 1.72-4.65-1.3c-3.24-3.16-5.1-7.02-3.96-9.66 1.13-2.64 5.54-1.2 5.54-1.2l3.07 12.16z" mask="url(#d)"/></g><path fill="url(#e)" d="M34.96.06l.43 7.9s1.33-.8-1.15 1.91c-2.48 2.72-6.53 13.2-11.06 14.48-4.53 1.28-3.26 9.19-3.26 9.19C4.08 51.98-2.78 68.79 1.02 83.67l29.7-1.81c-1.81-17.1.87-29.7 10.35-35.53a20.9 20.9 0 0 1 6.04-10l28.64-1.35 2.88-4.76 1.66-2.74 47.2.05V21.6l15.2-.05c1.1-.18 1.68-.83 1.75-1.57l-.02-7.96a1.52 1.52 0 0 0-1.7-1.42l-2.28-.05c-.48-1.7-1.58-3.18-2.72-4.65-1.63-1.03-2.52-.46-3.73-.2l-2.55 2.35L77.6 7.9l-4-2.42-22.28-.54-1.3-2.26-10.06.4L37.91 0l-2.95.06z" transform="translate(0 20)"/><g transform="translate(0 20)"><mask id="g" fill="#fff"><use xlink:href="#f"/></mask><g mask="url(#g)"><path fill="#0D1A2B" d="M22.93 23.14S24.15 37.5 40.96 46.5c-9 17.35-8.5 37.57-8.5 37.57L-.12 85.35C-7.68 78.33 3 36.2 16.16 34.33c1.75-2.96-3.86-13.68 6.77-11.2z"/><path fill="#6A7B8E" fill-rule="nonzero" d="M21.27 29.84c3.7 4.7.32 7.04-1.69 9.77a135 135 0 0 0-5.18 7.62c-5.58 8.9-10.87 18.88-9.31 29.4l-.74 1.07-1.05-.74c-.29-1.34-.32-1.71-.4-2.56-1.61-15.78 10.48-29.9 17.6-39.62.95-1.32.95-3.36.77-4.94 0 0-.35-.25 0 0z"/><path fill="#000" d="M26.6 80.23c-1.96-10.53-3.1-22.47 4.91-31.44a13.58 13.58 0 0 1 5.65-4l1.26.55s-.34 1.04-.77 1.23C28.86 50.59 27.72 64.75 28 73.7c.07 2.2.24 4.4.48 6.6l-.77 1.05-1.03-.78-.07-.35z"/><path fill="#000" d="M28.29 78.66l-1.01 1.01-2.96.5c-2.33.37-3.9.65-6.93.97-3.8.4-8.67.72-14.06.96l-1.08-.81.9-1.01 3.3-.53c1.92-.28 2.63-.4 4.52-.65 3.93-.52 8.6-.93 10.5-1.02 2.64-.12 2.89-.12 5.63-.22l1.19.8z"/></g></g><path fill="#FFF" fill-opacity=".5" fill-rule="nonzero" d="M143.7 36.13c.94.86.42 2.58-.94 2.67l-63.97.64c-1.52-.07-2.31-2.86-.03-3.02l63.97-.63c.64.03.44-.05.97.34z"/><path fill="#FFF" fill-opacity=".4" d="M38.8 23.58l.47 5.72s-11.2 19.93-15.8 18.09c-.2-.9-.83-1.08-.52-2.2 2.66-2.05 9.82-10.23 12.81-16.58 1.4-2.98-1.01-5.13.06-6.83 1.42-2.25 2.98 1.8 2.98 1.8z"/><path fill="#9AB1C7" fill-rule="nonzero" d="M24.17 45.9c3.56 7.2 8.98 13.94 15.03 18.23l.45 1.12-.98.23c-7.24-4-12.7-11.21-15.76-18.91l-.05-.15.37-.93s.87.26.94.4z"/><path fill="#FFF" fill-rule="nonzero" d="M78.13 30.14c4.56-.1 9.1-.22 13.66-.3 3.82-.08 6.27-.11 10.04-.16 5.2-.05 10.25-.12 17.56-.06 3.14.02 6.28.07 9.41.11l4.38.08 1.32-2.09 1-.28.21 1.01-1.53 2.61c-.2.2.04.2-.57.28l-3.75.1c-5.01.12-9.15.24-17.17.3a1361.2 1361.2 0 0 1-20.59-.02c-4.65-.04-9.3-.1-13.96-.16l-.92-.7s.49-.7.91-.72zm-3.5-3.94l-.82.74-4.42.4c-3.03.25-5.52.5-10.37.78-3.5.2-6.86.38-12.45.56-2.81.09-5.63.15-8.45.23l-.87-.67.8-.75 4.94-.42c2.86-.23 3.93-.32 6.75-.52 5.87-.42 12.83-.75 15.66-.82 2.78-.08 5.56-.14 8.34-.2l.9.66z"/><path fill="#35485A" d="M39.61 67.34c-8.05 6.2-9.79 18.78-9.33 28.7.08 1.94.24 3.88.45 5.82l-29.7 1.81c-3.3-13.03 2.44-27.13 9.53-37.86 2.83-4.29 6-8.36 9.36-12.27-.54-3.66-.35-7.96 3.47-9.25 4.03-3.24 12-16.32 12-16.32l-.43-7.91 2.95-.06 2.05 3.08 10.06-.39 1.3 2.26 23.32-1.19 2.95 4.14 53.85.14 2.55-2.35c1.41-.31 2.45-.57 3.65.16 0 0 2.18 2.54 2.8 4.68l2.28.06c.86-.05 1.64.55 1.7 1.41l.02 7.96c-.12 1.03-1.74 1.58-1.74 1.58l-15.2.05-.01 5.94-47.2-.05-4.54 7.5-.74.04c.16 3.54-4.18 15.3-8.95 16.33 0 0-11.78.92-18.6-.06-4.37-.62-6.72-2.6-7.85-3.95zm96.38-39.46c-.26-.1-.77.14-.77.14l-2.36 2.12c-.46.26-.53.36-1.43.42l-3.84-.02-46.17-.41-3.83-.04a3.04 3.04 0 0 1-1.1-.35l-2.47-3.86-22.74 1.06-1.65-1.01-.7-1.26-8.9.3-1.6-.87-1.54-2.24.45 5.03s.07 2.17-1.78 4.34c-3.15 5.1-6.8 11.1-11.43 14.93-2.3.85-2.57 4.11-2.16 7 0 0-.2 1.4-1.19 2.6C9.91 68.82-.16 84.37 2.9 100.95l.45.01 24.57-1.5c-1.1-12.8-.03-27.35 10.84-34.83 1.25-4.14 3.51-8.83 7.1-10.7a4.96 4.96 0 0 1 1.12-.35l27.17-1.28c2.11-3.4 3.78-6.25 3.78-6.25s1.03-1.22 2.36-1.33l24.63.05 19.85.03.01-3.22c.2-2.19.7-2.52 2.7-2.7l6.29-.02h8.02v-5.7l-1.82-.07c-1.84-.5-1.77-1.26-2.23-2.42-.49-1.18-1.46-2.69-1.75-2.8zm-68.57 27.5l-20.3.95a23.63 23.63 0 0 0-3.42 4.11c-2.54 5.82 5.87 7.35 5.87 7.35s11.1 1.4 15.1.36c4.02-1.02 4.63-8.2 4.34-10.33-.12-.9-.83-1.76-1.6-2.45z"/><path fill="#35485A" fill-rule="nonzero" d="M53.65 25.8l-2.12 1.13c-4.49.29-12.81.96-14.67 1.3l-.54-1.27.97-.91c.02.32 8.94-.1 14.4-.58 0 0 1.58 0 1.96.32z"/><path fill="#22334A" d="M17 86.3a2.82 2.82 0 1 1-2.93 4.82 2.82 2.82 0 0 1 2.92-4.82z"/><path fill="#7997B3" d="M71.17 30.09l-21.15.42a9.37 9.37 0 0 0-9.18 9.8v.01a9.7 9.7 0 0 0 10.1 9.25l21.02-.88-.8-18.6z"/><path fill="#ACC3D8" d="M71.17 30.09l-23.06.75-5.26 3.15-1.92 5.7 30.06-.93z"/><path fill="#FFF" fill-rule="nonzero" d="M46.83 31.91c-.33 3.89-.65 10.45.77 14.58l-.24 1.27s-.8-.02-1.12-.56c-2.46-4.5-2.02-10.36-.85-15.42l.85-.7.6.83z"/><path fill="#35485A" fill-rule="nonzero" d="M48.15 31.47c-.29 4.24-.52 11.4 1.18 15.94l-.24 1.39s-.92-.04-1.29-.65c-2.88-4.97-2.5-11.36-1.29-16.86l.95-.75.7.93zm81.81 8.84l-1.09.92c-4 .1-8 .22-12 .3a713.53 713.53 0 0 1-21.93.13 1544.76 1544.76 0 0 1-16.84-.44l-1.11-.9 1.1-.92 6.31-.2c4.31-.1 7.87-.25 14.77-.26a792.77 792.77 0 0 1 17.7.15l12 .3s.69.51 1.1.92z"/><path fill="#35485A" fill-rule="nonzero" d="M77.88 29.66l.36 2.35a72.1 72.1 0 0 1 .87 10.43c-.02 1.83-.03 2-.08 3.9l-.83 1.17-.98-1.04-.34-2.06c-.78-5.13-.89-8.63-.81-14.57l.84-1.03.97.85z"/><path fill="#FFF" d="M70.19 40.51c1.06.74.72 2.61-.72 2.76-4.67.24-9.35.21-14.03.32-1.1 0-1.13-.36-1.36-.8-.47-.88.14-2.1 1.21-2.21 4.67-.24 9.36-.21 14.03-.32.3 0 .45-.01.87.25zm-.37-8.36c1.05.73.79 2.6-.71 2.76-4.68.23-9.36.2-14.04.31-.8 0-.88-.22-1.12-.46-.77-.8-.3-2.42.97-2.55 4.68-.24 9.36-.21 14.04-.32.3 0 .44 0 .86.25z"/><path fill="#35485A" d="M70.88 42.08c1.06.74.73 2.6-.71 2.76-4.67.23-9.36.21-14.04.31-1.1 0-1.13-.35-1.36-.8-.47-.87.15-2.1 1.21-2.2 4.68-.24 9.36-.22 14.04-.32.3 0 .44-.02.86.25zm-.36-8.37c1.05.74.78 2.6-.72 2.76-4.67.24-9.35.21-14.03.32-.8 0-.89-.22-1.12-.47-.78-.8-.31-2.41.97-2.55 4.67-.23 9.35-.2 14.03-.3.3 0 .44-.02.87.24z"/><path fill="#35485A" fill-rule="nonzero" d="M72.26 48.94c-7.22.3-14.44.65-21.66.9-6.57.16-12.36-7.25-9.74-13.83a10.22 10.22 0 0 1 9.08-6.3l21.48-.41.84 19.64zm-14.23-17.9c-5.27.18-11.27-.35-14.27 3.4a8.45 8.45 0 0 0-1.82 5.64c.26 5.3 4.68 8.07 8.72 7.93l1.92-.09c5.55-.2 11.07-.37 15.81-.5h2.21l-.19-7.24-.18-9.62-12.2.47z"/><path fill="#9AB1C7" d="M39.12 48.76l3.24 1.76c1.2.58.61 1.85-.66 1.24a57.17 57.17 0 0 0-4.08-1.71l1.5-1.29z"/><path fill="#35485A" fill-rule="nonzero" d="M44.14 49.92c1.4 1.85-.73 4.47-3.83 3.07a47.1 47.1 0 0 1-3.1-1.56c-.58-.3-.59-.28-.8-.68-.38-.68.22-1.64.32-1.74l1.99-1.3c.41-.12.98.08.98.08 1.41.54 1.95.72 3.38 1.35 0 0 .56.19 1.06.78zm-1.35.91a1.55 1.55 0 0 0-.43-.3l-3.24-1.77-1.5 1.29c2.13.8 4.56 2.58 5.28 1.62.19-.24.11-.58-.1-.84z"/><path fill="#9AB1C7" d="M38.69 46.9c1 1.15.85 2.9-.32 3.91-1.16 1-2.92.88-3.92-.28-1-1.16-.85-2.91.32-3.92 1.16-1 2.92-.88 3.91.28z"/><path fill="#35485A" fill-rule="nonzero" d="M39.25 46.52c1.85 2.33-.72 7.03-4.22 5.3-2.42-1.2-2.49-5.7.72-6.48 1.29-.3 2.54.04 3.5 1.18zm-.95.63c-1.52-1.25-4.97.56-3 2.78 1.24 1.41 4.33-.67 3.07-2.69l-.07-.1z"/></g></svg>