<svg xmlns="http://www.w3.org/2000/svg" fill-rule="evenodd" stroke-linejoin="round" stroke-miterlimit="1.41" clip-rule="evenodd" viewBox="0 -20 150 169"><path fill="#a10c38" d="M12.37 72.11l52.92 52.92c5.87 4.92 13.66 5.1 19.42 0l52.92-52.92a42.24 42.24 0 1 0-59.74-59.74c-2.29 2.3-2.89 3.3-2.89 3.3s-1.82-2.22-2.9-3.3a42.24 42.24 0 1 0-59.73 59.74z"/><clipPath id="a"><path d="M12.37 72.11l52.92 52.92c5.87 4.92 13.66 5.1 19.42 0l52.92-52.92a42.24 42.24 0 1 0-59.74-59.74c-2.29 2.3-2.89 3.3-2.89 3.3s-1.82-2.22-2.9-3.3a42.24 42.24 0 1 0-59.73 59.74z"/></clipPath><g clip-path="url(#a)"><path fill="url(#_Linear2)" d="M12.37 72.11l52.92 52.92c5.87 4.92 13.66 5.1 19.42 0l52.92-52.92a42.24 42.24 0 1 0-59.74-59.74c-2.29 2.3-2.89 3.3-2.89 3.3s-1.82-2.22-2.9-3.3a42.24 42.24 0 1 0-59.73 59.74z"/></g><path fill="none" d="M12.37 72.11l52.92 52.92c5.87 4.92 13.66 5.1 19.42 0l52.92-52.92a42.24 42.24 0 1 0-59.74-59.74c-2.29 2.3-2.89 3.3-2.89 3.3s-1.82-2.22-2.9-3.3a42.24 42.24 0 1 0-59.73 59.74z"/><clipPath id="b"><path d="M12.37 72.11l52.92 52.92c5.87 4.92 13.66 5.1 19.42 0l52.92-52.92a42.24 42.24 0 1 0-59.74-59.74c-2.29 2.3-2.89 3.3-2.89 3.3s-1.82-2.22-2.9-3.3a42.24 42.24 0 1 0-59.73 59.74z"/></clipPath><g clip-path="url(#b)"><path fill="url(#_Linear4)" d="M12.37 72.11l52.92 52.92c5.87 4.92 13.66 5.1 19.42 0l52.92-52.92a42.24 42.24 0 1 0-59.74-59.74c-2.29 2.3-2.89 3.3-2.89 3.3s-1.82-2.22-2.9-3.3a42.24 42.24 0 1 0-59.73 59.74z"/><path fill="url(#_Radial5)" d="M12.37 72.11l52.92 52.92c5.87 4.92 13.66 5.1 19.42 0l52.92-52.92a42.24 42.24 0 1 0-59.74-59.74c-2.29 2.3-2.89 3.3-2.89 3.3s-1.82-2.22-2.9-3.3a42.24 42.24 0 1 0-59.73 59.74z"/><path fill="url(#_Radial6)" d="M12.37 72.11l52.92 52.92c5.87 4.92 13.66 5.1 19.42 0l52.92-52.92a42.24 42.24 0 1 0-59.74-59.74c-2.29 2.3-2.89 3.3-2.89 3.3s-1.82-2.22-2.9-3.3a42.24 42.24 0 1 0-59.73 59.74z"/><path fill="url(#_Radial7)" d="M12.37 72.11l52.92 52.92c5.87 4.92 13.66 5.1 19.42 0l52.92-52.92a42.24 42.24 0 1 0-59.74-59.74c-2.29 2.3-2.89 3.3-2.89 3.3s-1.82-2.22-2.9-3.3a42.24 42.24 0 1 0-59.73 59.74z"/></g><path fill="url(#_Radial8)" d="M67.86 40.38s7.21-23.47 20.09-29.9c2.42-1.2-7.45 1.8-12.95 7.2-3.32.18-5.23-6.03-7.14-7.2C54.15 2.14 39.54.06 30.1 5.69c-14.14 8.44.02 73.61 37.76 34.7z"/><path fill="#5a123a" fill-rule="nonzero" d="M107.94 0c19.44-.21 37.38 14.27 41.13 33.43 2.7 13.76-1.48 28.66-11.46 38.68l-53.02 52.92c-5.32 4.65-13.66 4.79-19.46 0-17.73-17.7-35.52-35.35-53.2-53.11C-1.45 58.3-3.95 35.62 6.4 19.44 14.5 6.84 29.6-.6 44.58.08c11.61.52 22.83 6 30.1 15.22 0 0 .2.26.32.1C82.05 5.7 95.04.1 107.43 0h.5zm-.48 5c-10.68.1-21.52 4.6-28.27 13.21-.2.26-.1.15-.1.15s-1.43 1.9-3.4 2.24c-3.8.63-6.33-4.1-9.74-6.95-12.23-10.22-31.3-11.3-44.62-2.39C7.5 20.5 1.28 39.62 7.06 55.2a37.61 37.61 0 0 0 8.61 13.38l52.84 52.74c3.55 2.88 9.05 3.15 12.66.05 17.69-17.65 35.43-35.25 53.06-52.97 11.12-11.3 13.87-29.9 6.28-43.88A37.98 37.98 0 0 0 108.13 5h-.67z"/><path fill="#f35ca0" fill-opacity=".5" fill-rule="nonzero" d="M38.57 9.27a5.18 5.18 0 0 1 .43 10.2c-9.45 3.16-17.16 11.48-18.65 21.16 0 0-3.28 6.43-7.8 3.51-3.6-2.3-2.04-8.45.2-13.53A38.61 38.61 0 0 1 36.47 9.57c.68-.2 1.37-.33 2.1-.3z"/><path fill="#ed67ab" fill-opacity=".7" fill-rule="nonzero" d="M33.25 11.3a5.2 5.2 0 0 1 1.48 10.02c-5.02 2.62-9.04 6.79-11.92 11.87 0 0-4.42 4.38-7.86 1.27a5.25 5.25 0 0 1-1.1-6.15c.84-1.55 1.16-2.01 1.8-2.98a38.77 38.77 0 0 1 15.27-13.51s.8-.52 2.33-.52z"/><path fill="#f2a5cb" fill-opacity=".7" fill-rule="nonzero" d="M28.14 14.36c4.26.11 6.7 6.52 2.6 9.45-3.33 2.45-5.55 6.3-9.02 5.79-3.7-.54-5.66-5.48-2.85-8.73 2.66-3.08 5.7-6.53 9.27-6.51zm2.59 9.45z"/><path fill="#f8d4e3" fill-opacity=".6" fill-rule="nonzero" d="M28.13 14.36c4.27.08 7.2 6.79 2.42 9.56-2.42 2.63-7.68 1.68-8.7-2.15-.94-3.57 2.74-7.44 6.28-7.41zm-.4 10.41z"/><path fill="#d4346d" fill-rule="nonzero" d="M99.58 11.3c4.33.15 7.1 6.94 2.3 9.6a30.42 30.42 0 0 0-12.73 12.3s-2.32 2.9-5.09 2.54a5.27 5.27 0 0 1-3.87-7.42c.84-1.55 1.16-2.01 1.8-2.98a38.78 38.78 0 0 1 15.26-13.51s.8-.52 2.34-.52z"/><path fill="#e456a1" fill-rule="nonzero" d="M94.47 14.36c4.29.11 6.7 6.52 2.59 9.45-2.85 2.1-4.77 5.38-7.53 5.79-4.14.62-7.6-4.96-4.33-8.72 2.66-3.09 5.7-6.54 9.27-6.52zm2.58 9.45z"/><defs><linearGradient id="_Linear2" x2="1" gradientTransform="rotate(-136.71 81.42 31.8) scale(120.5508)" gradientUnits="userSpaceOnUse"><stop offset="0" stop-color="#5a123a"/><stop offset="1" stop-color="#f0346b" stop-opacity="0"/></linearGradient><linearGradient id="_Linear4" x2="1" gradientTransform="rotate(14.56 -171.65 -8.54) scale(85.3975)" gradientUnits="userSpaceOnUse"><stop offset="0" stop-color="#d0005c"/><stop offset="1" stop-color="#f0346b" stop-opacity="0"/></linearGradient><radialGradient id="_Radial5" cx="0" cy="0" r="1" gradientTransform="translate(28.06 16.9) scale(36.244)" gradientUnits="userSpaceOnUse"><stop offset="0" stop-color="#d23a6a"/><stop offset="1" stop-color="#f0346b" stop-opacity="0"/></radialGradient><radialGradient id="_Radial6" cx="0" cy="0" r="1" gradientTransform="translate(26.02 16.9) scale(44.9879)" gradientUnits="userSpaceOnUse"><stop offset="0" stop-color="#e777a7"/><stop offset="1" stop-color="#f0346b" stop-opacity="0"/></radialGradient><radialGradient id="_Radial7" cx="0" cy="0" r="1" gradientTransform="translate(96.43 18.95) scale(40.663)" gradientUnits="userSpaceOnUse"><stop offset="0" stop-color="#d23a6a"/><stop offset="1" stop-color="#f0346b" stop-opacity="0"/></radialGradient><radialGradient id="_Radial8" cx="0" cy="0" r="1" gradientTransform="translate(75 2.52) scale(41.5018)" gradientUnits="userSpaceOnUse"><stop offset="0" stop-color="#5a123a"/><stop offset="1" stop-color="#5a123a" stop-opacity="0"/></radialGradient></defs></svg>