<svg xmlns="http://www.w3.org/2000/svg" fill-rule="evenodd" stroke-linejoin="round" stroke-miterlimit="1.41" clip-rule="evenodd" viewBox="0 0 148 148"><circle cx="73.73" cy="73.85" r="72.27" fill="url(#_Linear1)"/><circle cx="73.73" cy="73.85" r="65.18" fill="url(#_Linear2)"/><path fill="#995c1c" fill-rule="nonzero" d="M74.2 0c26.68.26 52.47 15.94 64.88 39.45 10.64 20.14 11.2 45.34 1.4 66-13.8 29.07-47.85 47.23-80.72 40.92-22.7-4.35-42.88-20.05-52.78-40.92-9.79-20.6-9.25-45.84 1.4-66C20.76 15.99 46.34.25 73.25 0h.96zm-.93 2.18C46.12 2.85 20.25 20.16 9.5 44.87c-11.46 26.35-4.96 59.38 16.75 79.39 19.42 17.9 49.64 23.54 75.07 12.79 21.57-9.13 37.84-29.82 41.57-53 3.55-21.97-4.11-45.46-19.97-61.21a71.78 71.78 0 0 0-49.2-20.67l-.46.01z"/><path fill="#895119" d="M44.7 55.62c2.3.38 3.04-.36 3.44 5.33.32 4.5 5.93 8.24 12.64 4.72 5.15-2.7 4.37-12.05-2.4-15.39-7.01-3.45-16.83-3.4-27.5 2.82-3.17 2.88 10.7 2 13.82 2.52zm60.16 17.05c2.3.38 3.05-.35 3.44 5.33.32 4.5 5.93 8.25 12.65 4.73 5.14-2.7 4.36-12.06-2.42-15.4-7-3.45-16.82-3.4-27.48 2.82-3.18 2.88 10.7 2 13.81 2.52z"/><path fill="#895119" fill-rule="nonzero" d="M44.9 29.96a24.6 24.6 0 0 1 18.85 9.54l.37 1.25-.55 1.12-1.18.37-1.17-.54c-7.76-7.83-20.8-7.55-27.58-2.82a29.96 29.96 0 0 0-5.25 4.76l-1.16.63-1.21-.3-.6-1.08c.44-1.9.83-2.08 1.19-2.57 3.97-5.56 9.94-10.14 17.58-10.36h.72zm83.48 22.69a24.6 24.6 0 0 1 10.06 18.57l-.4 1.24-1.1.61-1.18-.37-.66-1.11c-1.92-10.86-12.8-18.06-21.06-18.02-2.37 0-4.73.36-7.03.92l-1.3-.15-.83-.93.12-1.23c1.45-1.32 1.86-1.24 2.44-1.44 6.43-2.3 13.95-2.68 20.35 1.5l.6.4z"/><path fill="url(#_Linear3)" d="M31.96 72.7s37.82 21.94 78.67 21.77c6.84-.02 5.2 4.16 5.2 4.16-7.33 20.25-24.63 33.54-57.34 25.57-31.04-10.77-35.55-30.06-32.38-48.35 0 0 .02-5.34 5.85-3.14z"/><path fill="url(#_Radial4)" d="M25.18 80.6s29.31 33.1 85.77 25.53c2.16-3.95 3.76-10.6 3.76-10.6S83.98 93.92 69.4 89.5c-14.67-4.45-42.82-18.55-42.82-18.55l-1.4 9.65z"/><path fill="#995c1c" fill-rule="nonzero" d="M27.74 69.6c2.82.07 5.4 2.2 8.18 3.62C59.15 85.14 85 93.2 110.78 93.42c3.09.03 7.16-.18 7.1 3.4-.04 1.94-1.25 3.96-2.17 5.97-5.15 11.28-14.58 20.46-27.26 23.55-9.9 2.42-20.34 1.35-30.13-1.05-4.52-1.11-9.04-3.49-13.33-5.96-12-6.91-20.9-19.16-21.65-33.17a58.9 58.9 0 0 1 .83-12.64c.03-1.92 1.18-3.94 3.57-3.93zm.06 3.45l-.18 1.5c-1.31 9.82-.28 20.2 5.4 28.37 6.11 8.8 16.15 14.28 26.33 17.54 13.14 2.79 27.68 4.17 39.6-4.35 6.1-4.36 10.46-10.85 13.32-17.82 0 0-2.86-.03-5.28-.16-27.17-1.4-54.04-10.34-78.15-24.9-.15-.1-.98-.34-1.04-.18zm86.22 25.45c-.11-.05-.03-.01 0 0zm0 0c-.12-.05-.03-.01 0 0zm-.01 0c-.1-.06-.03-.02 0 0zm-.07-.04c.07.03-.01 0 0 0zm.04.03c-.08-.05-.03-.02 0 0zm-.04-.02s-.04-.03 0 0zm0 0s-.01-.02 0 0zM27.63 73.01c-.02-.05.06 0 0 0zm.02 0c-.09.05.04 0 0 0zm.15.02s.03-.07 0 0zm-.14-.02s.02 0 0 0zm.01 0zm.14 0s0-.02 0 0zm-.2 0zm.06 0zm0 0s.01 0 0 0zm.01 0zm0 0zm0 0s-.01 0 0 0z"/><defs><linearGradient id="_Linear1" x2="1" gradientTransform="rotate(79.05 30.3 41.05) scale(142.7438)" gradientUnits="userSpaceOnUse"><stop offset="0" stop-color="#fdd262"/><stop offset=".1" stop-color="#ffde8e"/><stop offset=".21" stop-color="#ffe19a"/><stop offset=".57" stop-color="#ffc338"/><stop offset="1" stop-color="#fab12f"/></linearGradient><linearGradient id="_Linear2" x2="1" gradientTransform="rotate(95.27 33.64 48.11) scale(43.19138)" gradientUnits="userSpaceOnUse"><stop offset="0" stop-color="#fff" stop-opacity=".75"/><stop offset="1" stop-color="#fff" stop-opacity="0"/></linearGradient><linearGradient id="_Linear3" x2="1" gradientTransform="rotate(106.76 -1.5 72.85) scale(25.1335)" gradientUnits="userSpaceOnUse"><stop offset="0" stop-color="#4b3013"/><stop offset=".52" stop-color="#6a3f1a"/><stop offset="1" stop-color="#d07132"/></linearGradient><radialGradient id="_Radial4" cx="0" cy="0" r="1" gradientTransform="translate(67.5 93.34) scale(42.2827)" gradientUnits="userSpaceOnUse"><stop offset="0" stop-color="#f3f4e1"/><stop offset=".6" stop-color="#d5d8ca"/><stop offset=".81" stop-color="#909696"/><stop offset="1" stop-color="#49525f"/></radialGradient></defs></svg>