<svg width="3708" height="3713" viewBox="0 0 3708 3713" fill="none" xmlns="http://www.w3.org/2000/svg">
<path d="M1401.5 1382C1025.33 1422.12 823.429 1411.11 475 1348C407.785 1505.93 389.215 1607.93 384 1809.5C1058.44 2089.93 1324.22 2331.1 1477.5 3001C1521.69 3192.98 1459.94 3221.33 1273 3201.5C1749.2 3383.79 2004.48 3392.61 2434 3201.5C2236.6 3231.79 2184.49 3192.66 2218.5 3001C2381.77 2347.03 2623.8 2086.31 3323 1809.5C3327.61 1639.05 3308.84 1539.08 3213.5 1348C2912.66 1410.55 2713.16 1418.67 2302 1382H1401.5Z" fill="#222222"/>
<path d="M2517 1844.04C2517 1474.23 2197.47 1181 1853.86 1181C1548.92 1181 1190 1443.59 1190 1844.04C1190 2223.34 1510.26 2510 1853.86 2510C2238.32 2510 2517 2177.39 2517 1844.04Z" fill="#B1B1B1"/>
<path d="M2308.5 1844.5C2308.5 1591 2089.5 1390 1854 1390C1645 1390 1399 1570 1399 1844.5C1399 2104.5 1618.5 2301 1854 2301C2117.5 2301 2308.5 2073 2308.5 1844.5Z" fill="#BB0000" stroke="#990000" stroke-width="40"/>
<path d="M987.524 1687.65C987.524 1599.72 911.549 1530 829.849 1530C757.343 1530 672 1592.44 672 1687.65C672 1777.84 748.149 1846 829.849 1846C921.263 1846 987.524 1766.91 987.524 1687.65Z" fill="#B1B1B1"/>
<path d="M1854.73 200C2709.41 200 3507.41 934.78 3507.41 1852.42C3507.41 2684.46 2807.51 3513 1854.73 3513C999.025 3513 200 2795.58 200 1852.42C200 862.404 1093.98 200 1854.73 200Z" stroke="#252525" stroke-width="400"/>
<path d="M1854.72 100C2762.05 100 3607.41 877.002 3607.41 1852.42C3607.41 2734.1 2868.17 3613 1854.72 3613C946.889 3613 100 2853.85 100 1852.42C100 798.019 1048.38 100 1854.72 100Z" stroke="#444444" stroke-width="200"/>
<path d="M2952.3 1733.5C2914.58 1698.64 2861.87 1695.66 2837.36 1722.18C2815.61 1745.72 2816.78 1798.18 2857.63 1835.93C2896.31 1871.69 2948.4 1873.99 2972.91 1847.47C3000.34 1817.79 2986.29 1764.93 2952.3 1733.5Z" fill="#B1B1B1"/>
<path d="M3125.3 1691.5C3087.58 1656.64 3034.87 1653.66 3010.36 1680.18C2988.61 1703.72 2989.78 1756.18 3030.63 1793.93C3069.31 1829.69 3121.4 1831.99 3145.91 1805.47C3173.34 1775.79 3159.29 1722.93 3125.3 1691.5Z" fill="#B1B1B1"/>
<path d="M2858.3 1536.5C2820.58 1501.64 2767.87 1498.66 2743.36 1525.18C2721.61 1548.72 2722.78 1601.18 2763.63 1638.93C2802.31 1674.69 2854.4 1676.99 2878.91 1650.47C2906.34 1620.79 2892.29 1567.93 2858.3 1536.5Z" fill="#B1B1B1"/>
<path d="M3030.3 1505.5C2992.58 1470.64 2939.87 1467.66 2915.36 1494.18C2893.61 1517.72 2894.78 1570.18 2935.63 1607.93C2974.31 1643.69 3026.4 1645.99 3050.91 1619.47C3078.34 1589.79 3064.29 1536.93 3030.3 1505.5Z" fill="#B1B1B1"/>
<path d="M799 1635.5L743.5 1621.5L719 1701.5L776 1718L761.5 1773.5L850.5 1797L863 1743.5L920.5 1758.5L941 1667.5L886 1654L898.5 1597L812 1579L799 1635.5Z" fill="#111111"/>
</svg>
