<svg width="714" height="708" viewBox="0 0 714 708" fill="none" xmlns="http://www.w3.org/2000/svg">
<path d="M317.599 321.092L372.336 403.444L437.428 346.242L545.915 256C576.697 230.492 593.695 216.058 622.349 189.428C650.966 162.247 664.549 145.456 682.511 111.515C699.708 67.4401 710.125 25.7114 703.222 6.97266L606.076 97.7074C574.517 122.364 533.587 144.554 486.741 173.155L420.662 230.851L317.599 321.092Z" fill="#E6E7E8"/>
<path d="M343.688 421.351L290.163 354.745L287.183 350.878L323.533 319.787L376.452 398.745L343.688 421.351Z" fill="#E9E9E9"/>
<path d="M464.739 245.349L341.562 351.71L320.768 324.153L340.545 305.832L423.931 234.094L497.5 169.041L561.716 130.123L635.167 77.4856C616.234 110.512 601.487 126.476 571.706 152.799L464.739 245.349Z" fill="url(#paint0_linear_123_37)"/>
<path d="M75.676 527.218C45.3207 559.131 29.4439 577.036 4.17306 609.076C1.17602 618.502 1.37702 624.146 4.17306 634.719C15.6271 660.802 23.4528 675.161 40.1711 699.811C67.9828 707.722 77.1434 706.471 85.0453 696.852L88.4972 639.157C97.9446 633.047 102.942 628.981 111.181 620.418C125.568 611.431 137.08 601.61 159.507 581.461L223.613 527.218L264.049 497.63L279.336 478.398L305.472 451.277C305.472 451.277 316.813 443.387 320.265 443.88C323.717 444.373 335.059 439.442 335.059 439.442L260.597 354.131L237.421 376.815L215.723 392.595C195.839 406.845 175.8 429.566 157.041 448.318C119.407 482.154 101.637 499.43 75.676 527.218Z" fill="url(#paint1_linear_123_37)"/>
<path d="M264.342 323.558C254.864 325.383 251.713 327.813 246.096 340.324L360.501 482.837C371.519 479.126 373.486 475.992 378.253 464.591L264.342 323.558Z" fill="#555555"/>
<path d="M240.773 427.676C231.482 426.472 219.945 434.922 218.677 444.703C217.41 454.483 225.371 465.957 235.577 467.777C247.803 469.361 257.511 459.68 258.778 449.899C260.172 439.14 251.043 429.007 240.773 427.676Z" fill="#828181"/>
<path d="M167.791 494.741C158.499 493.537 146.962 501.987 145.695 511.767C144.428 521.548 152.388 533.022 162.595 534.842C174.821 536.426 184.528 526.745 185.796 516.964C187.19 506.205 178.061 496.072 167.791 494.741Z" fill="#828181"/>
<path d="M93.8226 562.792C84.531 561.588 72.9938 570.038 71.7264 579.819C70.459 589.599 78.4199 601.073 88.6262 602.893C100.852 604.477 110.56 594.796 111.827 585.015C113.221 574.256 104.092 564.123 93.8226 562.792Z" fill="#828181"/>
<path d="M243.877 340.324L256.2 357.861C256.486 358.268 256.425 358.827 256.063 359.167C237.854 376.245 224.447 385.357 207.386 399.006L163.005 441.414L84.1052 517.849C54.1726 550.214 38.4266 567.806 13.0954 597.735C8.80633 603.988 7.0604 607.565 5.94507 612.035C5.96444 623.48 6.83934 628.626 9.15037 636.691C20.9213 664.249 35.2859 688.962 46.6278 698.825C67.205 705.278 82.1327 702.77 88.0501 693.401L91.502 636.691C102.512 629.95 107.509 625.593 114.679 616.966C124.048 614.994 137.363 600.693 152.156 585.9L188.647 559.764L224.152 525.245C240.644 514.48 252.829 505.341 264.481 496.601L265.082 496.151L306.504 449.304C312.667 442.692 320.311 438.456 322.777 442.894L357.789 484.316C362.72 489.247 383.185 464.098 377.76 457.194L348.173 419.717C358.444 410.478 362.559 408.21 375.541 403.444C436.485 348.71 471.706 318.522 536.299 265.369C578.117 232.074 601.615 213.284 649.225 166.745C672.511 136.808 683.569 119.099 695.578 83.8998C706.507 46.9674 712.518 16.0295 704.628 5.78178C704.284 5.33482 703.633 5.33085 703.235 5.73093L623.582 85.8723C577.47 123.248 542.129 142.869 490.924 171.297L488.466 172.662L289.491 347.228L266.314 320.599C262.862 317.64 240.918 334.407 243.877 340.324Z" stroke="#141313" stroke-width="10"/>
<defs>
<linearGradient id="paint0_linear_123_37" x1="330.477" y1="341.323" x2="643.707" y2="69.1445" gradientUnits="userSpaceOnUse">
<stop stop-color="#E2E2E2"/>
<stop offset="1" stop-color="#ABABAB"/>
</linearGradient>
<linearGradient id="paint1_linear_123_37" x1="246.096" y1="333.913" x2="1.99998" y2="716.084" gradientUnits="userSpaceOnUse">
<stop stop-color="#1D1C19"/>
<stop offset="1" stop-color="#5A5953"/>
</linearGradient>
</defs>
</svg>
