<svg width="2552" height="2552" viewBox="0 0 2552 2552" fill="none" xmlns="http://www.w3.org/2000/svg">
<g clip-path="url(#clip0_122_50)">
<path d="M1271.34 2519.58C1959.58 2519.58 2517.51 1961.65 2517.51 1273.41C2517.51 585.173 1959.58 27.2441 1271.34 27.2441C583.104 27.2441 25.1748 585.173 25.1748 1273.41C25.1748 1961.65 583.104 2519.58 1271.34 2519.58Z" fill="url(#paint0_linear_122_50)"/>
<path d="M1271.34 2397.33C1892.07 2397.33 2395.26 1894.13 2395.26 1273.41C2395.26 652.693 1892.07 149.499 1271.34 149.499C650.623 149.499 147.43 652.693 147.43 1273.41C147.43 1894.13 650.623 2397.33 1271.34 2397.33Z" fill="url(#paint1_linear_122_50)"/>
<path d="M1279.45 0C1739.5 4.48324 2184.2 274.857 2398.19 680.246C2581.66 1027.52 2591.31 1462.05 2422.33 1818.3C2184.37 2319.56 1597.24 2632.7 1030.46 2523.89C639.034 2448.89 291.066 2178.17 120.358 1818.3C-48.4536 1463.09 -39.1423 1027.87 144.498 680.246C357.97 275.719 799.052 4.31081 1263.07 0H1279.62H1279.45ZM1263.41 37.5903C795.258 49.1432 349.176 347.624 163.811 773.704C-33.7969 1228.06 78.2842 1797.61 452.635 2142.65C787.499 2451.3 1308.59 2548.55 1747.09 2363.19C2119.02 2205.76 2399.57 1848.99 2463.89 1449.29C2525.1 1070.46 2393.02 665.417 2119.54 393.836C1893.06 170.417 1589.26 42.7811 1271.17 37.4178L1263.24 37.5903H1263.41Z" fill="#995C1C"/>
<path fill-rule="evenodd" clip-rule="evenodd" d="M536.661 1500.24C536.661 1500.24 1270.4 1673.56 1943.77 1466.84C2056.57 1432.36 2050.36 1509.54 2050.36 1509.54C2030.47 1880.35 1811.28 2186.06 1231.62 2217.8C665.545 2195 494.814 1899.13 455.832 1581.43C455.832 1581.43 429.506 1493.2 536.711 1500.41L536.661 1500.24Z" fill="url(#paint2_linear_122_50)"/>
<path fill-rule="evenodd" clip-rule="evenodd" d="M464.194 1664.47C464.194 1664.47 1113.18 2064.47 2007.26 1657.69C2023.19 1581.71 2016.4 1463.96 2016.4 1463.96C2016.4 1463.96 1501.17 1590.79 1238.47 1590.62C974.126 1590.41 439.128 1498.21 439.128 1498.21L464.194 1664.47Z" fill="url(#paint3_radial_122_50)"/>
<path d="M451.536 1470.14C498.429 1457.22 551.644 1479.49 604.616 1489.05C1047.53 1569.83 1514.41 1573.82 1941.01 1448.76C1992.16 1433.83 2058.28 1410.04 2075.16 1469.43C2084.19 1501.65 2074.3 1541.03 2069.15 1578.8C2040.46 1790.68 1930.64 1989.27 1736.79 2103.57C1585.47 2192.93 1407.82 2227.38 1234.25 2236.64C1154.11 2240.89 1067.63 2224.17 984.493 2204.82C751.94 2150.67 543.896 1992.91 461.581 1765.43C437.514 1696.49 420.952 1625.15 412.182 1552.66C403.092 1520.82 411.989 1481.74 451.486 1469.98L451.536 1470.14ZM469.748 1526.78L474.265 1552.44C501.664 1721.06 570.481 1887.23 705.012 1993.72C849.786 2108.47 1042.85 2148.79 1227.14 2151.78C1457.94 2132.24 1704.81 2082.43 1859.02 1882.31C1937.94 1779.89 1977.5 1651.01 1989.91 1521.7C1989.91 1521.7 1942.56 1535.48 1901.96 1545.41C1446.54 1657.94 958.426 1644.52 487.812 1524.56C484.837 1523.66 469.94 1523.84 469.748 1526.78ZM2019.84 1516.43C2019.3 1516.41 2017.78 1516.15 2019.84 1516.43ZM2019.84 1516.43C2019.3 1516.41 2017.61 1516.2 2019.84 1516.43ZM2019.68 1516.48C2019.08 1516.3 2017.73 1515.99 2019.68 1516.48ZM2018.32 1516.17C2019.63 1516.31 2018.16 1516.22 2018.32 1516.17ZM2019.13 1516.46C2018.54 1516.28 2017.56 1516.04 2019.13 1516.46ZM466.743 1526.97C467.733 1526.67 466.163 1526.25 466.743 1526.97ZM467.073 1526.87C467.733 1526.67 465.837 1528.15 467.073 1526.87Z" fill="#905920"/>
<path d="M722.772 1079C558.802 1094.88 487.788 1152.36 392.567 1255.93C363.098 1314.9 381.988 1358 416.747 1358C517.205 1285.12 590.265 1261.99 752.997 1255.93C898.885 1269.65 967.591 1294.49 1093.78 1308.1C1127.78 1308.1 1130.8 1257.44 1114.18 1231.73C1006.13 1107.73 902.124 1081.75 722.772 1079Z" fill="url(#paint4_radial_122_50)" stroke="#4E2400" stroke-width="5"/>
<path d="M1779.23 1079C1943.2 1094.88 2014.21 1152.36 2109.43 1255.93C2138.9 1314.9 2120.01 1358 2085.25 1358C1984.79 1285.12 1911.73 1261.99 1749 1255.93C1603.11 1269.65 1534.41 1294.49 1408.22 1308.1C1374.22 1308.1 1371.2 1257.44 1387.82 1231.73C1495.87 1107.73 1599.88 1081.75 1779.23 1079Z" fill="url(#paint5_radial_122_50)" stroke="#4E2400" stroke-width="5"/>
<path d="M442.147 908.303C365.572 999.944 305.05 1117.47 310.679 1167.43C307.865 1183.62 331.277 1223.46 352.201 1206.84C397.24 1125.21 444.336 1063.77 539.397 982.352C633.769 920.892 671.7 892.975 766.706 852.158C785.707 828.934 743.95 794.231 721.666 786.71C597.104 793.747 551.421 824.249 442.147 908.303Z" fill="url(#paint6_radial_122_50)" stroke="#4E2400" stroke-width="5"/>
<path d="M2088.57 908.303C2165.15 999.944 2225.67 1117.47 2220.04 1167.43C2222.85 1183.62 2199.44 1223.46 2178.52 1206.84C2133.48 1125.21 2086.38 1063.77 1991.32 982.352C1896.95 920.892 1859.02 892.975 1764.01 852.158C1745.01 828.934 1786.77 794.231 1809.05 786.71C1933.61 793.747 1979.3 824.249 2088.57 908.303Z" fill="url(#paint7_radial_122_50)" stroke="#4E2400" stroke-width="5"/>
<path d="M8.0328 1726.57C112.911 1441.99 317.032 1340.68 508.346 1221.47C511.146 1219.73 514.833 1221.09 515.766 1224.26C583.686 1454.71 600.272 1749.42 529.418 1888.45C435.579 2072.59 277.157 2103.61 167.888 2051C37.0354 2003.79 -22.9957 1840.56 8.0328 1726.57Z" fill="url(#paint8_linear_122_50)" stroke="#408CC0" stroke-width="12"/>
<path d="M164.995 1658.75C222.833 1501.67 334.975 1444.96 440.586 1379.3C443.389 1377.56 447.081 1378.93 448.001 1382.1C485.064 1509.89 493.866 1672.02 454.772 1748.8C402.618 1851.24 314.569 1868.5 253.84 1839.23C181.114 1812.97 147.75 1722.16 164.995 1658.75Z" fill="url(#paint9_linear_122_50)"/>
<path d="M2535.21 1756.57C2430.33 1471.99 2226.21 1370.68 2034.9 1251.47C2032.1 1249.73 2028.41 1251.09 2027.48 1254.26C1959.56 1484.71 1942.97 1779.42 2013.83 1918.45C2107.67 2102.59 2266.09 2133.61 2375.36 2081C2506.21 2033.79 2566.24 1870.56 2535.21 1756.57Z" fill="url(#paint10_linear_122_50)" stroke="#408CC0" stroke-width="12"/>
<path d="M2378.25 1688.75C2320.41 1531.67 2208.27 1474.96 2102.66 1409.3C2099.86 1407.56 2096.16 1408.93 2095.24 1412.1C2058.18 1539.89 2049.38 1702.02 2088.47 1778.8C2140.63 1881.24 2228.67 1898.5 2289.4 1869.23C2362.13 1842.97 2395.49 1752.16 2378.25 1688.75Z" fill="url(#paint11_linear_122_50)"/>
</g>
<defs>
<linearGradient id="paint0_linear_122_50" x1="1118.17" y1="60.4222" x2="1585.72" y2="2476.98" gradientUnits="userSpaceOnUse">
<stop stop-color="#FDD262"/>
<stop offset="0.1" stop-color="#FFDE8E"/>
<stop offset="0.21" stop-color="#FFE19A"/>
<stop offset="0.57" stop-color="#FFC338"/>
<stop offset="1" stop-color="#FAB12F"/>
</linearGradient>
<linearGradient id="paint1_linear_122_50" x1="1459.41" y1="328.157" x2="1391" y2="1069.77" gradientUnits="userSpaceOnUse">
<stop stop-color="white" stop-opacity="0.75"/>
<stop offset="1" stop-color="white" stop-opacity="0"/>
</linearGradient>
<linearGradient id="paint2_linear_122_50" x1="1241.36" y1="1694.12" x2="1241.87" y2="2127.5" gradientUnits="userSpaceOnUse">
<stop stop-color="#4B3013"/>
<stop offset="0.52" stop-color="#6A3F1A"/>
<stop offset="1" stop-color="#D07132"/>
</linearGradient>
<radialGradient id="paint3_radial_122_50" cx="0" cy="0" r="1" gradientUnits="userSpaceOnUse" gradientTransform="translate(1226.28 1663.49) rotate(-16.828) scale(729.091 729.091)">
<stop stop-color="#F3F4E1"/>
<stop offset="0.6" stop-color="#D5D8CA"/>
<stop offset="0.81" stop-color="#909696"/>
<stop offset="1" stop-color="#49525F"/>
</radialGradient>
<radialGradient id="paint4_radial_122_50" cx="0" cy="0" r="1" gradientUnits="userSpaceOnUse" gradientTransform="translate(751.275 1319.44) rotate(-90) scale(351.585 940.081)">
<stop offset="0.252581" stop-color="#9E7639"/>
<stop offset="0.568697" stop-color="#4F2502"/>
</radialGradient>
<radialGradient id="paint5_radial_122_50" cx="0" cy="0" r="1" gradientUnits="userSpaceOnUse" gradientTransform="translate(1750.72 1319.44) rotate(-90) scale(351.585 940.081)">
<stop offset="0.252581" stop-color="#9E7639"/>
<stop offset="0.568697" stop-color="#4F2502"/>
</radialGradient>
<radialGradient id="paint6_radial_122_50" cx="0" cy="0" r="1" gradientUnits="userSpaceOnUse" gradientTransform="translate(574.134 1039.32) rotate(-128.446) scale(270.049 722.524)">
<stop offset="0.0446819" stop-color="#9E7639"/>
<stop offset="0.33935" stop-color="#62401D"/>
</radialGradient>
<radialGradient id="paint7_radial_122_50" cx="0" cy="0" r="1" gradientUnits="userSpaceOnUse" gradientTransform="translate(1956.58 1039.32) rotate(-51.5536) scale(270.049 722.524)">
<stop offset="0.0446819" stop-color="#9E7639"/>
<stop offset="0.33935" stop-color="#62401D"/>
</radialGradient>
<linearGradient id="paint8_linear_122_50" x1="443.144" y1="1304.34" x2="194.255" y2="2026.72" gradientUnits="userSpaceOnUse">
<stop stop-color="#72CAF1"/>
<stop offset="0.726444" stop-color="#2DA9E3"/>
</linearGradient>
<linearGradient id="paint9_linear_122_50" x1="406.822" y1="1423.86" x2="131.782" y2="2153.37" gradientUnits="userSpaceOnUse">
<stop offset="0.061629" stop-color="#EBF5FB"/>
<stop offset="1" stop-color="#2DA9E3"/>
</linearGradient>
<linearGradient id="paint10_linear_122_50" x1="2100.1" y1="1334.34" x2="2348.99" y2="2056.72" gradientUnits="userSpaceOnUse">
<stop stop-color="#72CAF1"/>
<stop offset="0.726444" stop-color="#2DA9E3"/>
</linearGradient>
<linearGradient id="paint11_linear_122_50" x1="2136.42" y1="1453.86" x2="2411.46" y2="2183.37" gradientUnits="userSpaceOnUse">
<stop offset="0.061629" stop-color="#EBF5FB"/>
<stop offset="1" stop-color="#2DA9E3"/>
</linearGradient>
<clipPath id="clip0_122_50">
<rect width="2552" height="2552" fill="white"/>
</clipPath>
</defs>
</svg>
