<svg xmlns="http://www.w3.org/2000/svg" xmlns:serif="http://www.serif.com/" fill-rule="evenodd" stroke-linejoin="round" stroke-miterlimit="1.41" clip-rule="evenodd" viewBox="0 0 151 148"><g serif:id="MLG 3"><path fill="#f5b386" d="M26.02 38.52S11.39 19.54 18.9.65c11.9 5.11 39.61 12.42 36.72 21.88-3.66 11.97-29.61 16-29.61 16z"/><clipPath id="a"><path d="M26.02 38.52S11.39 19.54 18.9.65c11.9 5.11 39.61 12.42 36.72 21.88-3.66 11.97-29.61 16-29.61 16z"/></clipPath><g clip-path="url(#a)"><path fill="#93463c" d="M21.3 28.81c-.14-3.54 3.18-15.83 25.64-12.3C39 8.76 13.65-4.5 13.65-4.5c-3.2-3.2-2.56 20.02 7.64 33.31z"/></g><path fill="#522720" d="M19.2.77l.28.12.3.12.29.12.3.13.31.12.32.12.31.13.33.13.33.12.33.13.34.13.68.26.7.27.72.26.73.27.74.28.76.27 1.53.57 1.58.57.79.3.8.3.8.29.81.3.81.3.81.32.4.15.41.16.4.16.41.15.4.16.4.16.4.16.41.16.4.16.4.17.4.16.4.17.39.16.39.17.39.16.39.17.38.17.39.17.38.17.38.17.37.17.38.17.37.17.36.18.37.17.36.18.36.17.35.18.35.18.35.18.34.18.33.18.34.18.33.18.32.18.16.1.16.09.16.09.15.1.16.08.15.1.16.09.15.1.15.09.15.09.15.1.14.09.15.09.14.1.14.09.15.1.13.09.14.1.14.09.13.1.14.09.13.1.13.09.13.1.12.1.13.09.12.1.13.1.12.09.12.1.11.1.12.1.11.1.12.09.1.1.12.1.1.1.1.1.11.1.1.1.1.1.1.1.1.1.1.1.08.1.1.1.08.1.09.1.08.1.08.1.09.1.07.1.08.1.07.1.08.1.07.1.07.11.06.1.06.1.07.11.06.1.05.1.06.11.05.1.05.1.05.11.05.1.04.11.04.1.04.11.04.1.03.12.04.1.02.1.03.11.03.1.02.12.02.1.02.11.01.1.02.11v.11l.01.11v.1l.01.12v.32l-.02.11v.11l-.02.11-.02.1-.01.12-.03.1-.02.12-.03.1-.03.12-.03.11-.04.14-.05.14-.05.14-.05.14-.05.13-.05.14-.06.14-.06.13-.06.13-.06.14-.06.13-.07.13-.06.13-.07.13-.07.13-.07.13-.08.13-.07.13-.08.13-.08.12-.08.13-.09.12-.08.13-.09.12-.08.12-.1.13-.08.12-.1.12-.1.12-.09.12-.1.12-.1.12-.1.11-.1.12-.1.12-.1.11-.1.12-.11.1-.11.12-.11.12-.11.1-.12.12-.11.1-.12.12-.11.1-.12.12-.12.1-.12.11-.12.1-.12.12-.13.1-.12.1-.13.1-.13.11-.13.1-.13.1-.13.1-.13.1-.13.1-.13.1-.14.1-.14.1-.13.1-.14.1-.14.1-.14.1-.14.09-.14.1-.14.09-.14.09-.15.1-.14.08-.15.1-.15.08-.14.1-.15.08-.15.1-.15.08-.15.09-.15.09-.15.08-.15.09-.16.08-.15.09-.15.08-.16.08-.15.09-.16.08-.15.08-.16.08-.16.08-.15.08-.32.16-.32.15-.32.15-.32.16-.32.14-.32.15-.33.14-.32.14-.33.14-.32.14-.33.13-.33.13-.33.13-.32.13-.33.12-.33.13-.32.12-.33.12-.32.11-.33.12-.32.1-.32.12-.33.1-.32.11-.31.1-.32.1-.31.1-.32.1-.3.1-.32.09-.3.09-.3.09-.3.09-.3.08-.3.08-.3.08-.29.08-.28.08-.29.07-.27.08-.28.07-.27.07-.27.06-.26.07-.26.06-.26.06-.25.06-.24.06-.48.1-.46.1-.43.1-.41.1-.4.07-.36.08-.34.06-.3.06-.29.06-.25.04-.23.04-.19.04-.16.02-.22.04-.07.01-.04-.05-.13-.17-.08-.12-.1-.14-.13-.17-.14-.2-.15-.22-.16-.24-.18-.27-.2-.3-.1-.15-.1-.16-.1-.16-.1-.17-.12-.18-.1-.18-.12-.19-.12-.19-.12-.2-.12-.2-.12-.2-.13-.22-.12-.21-.13-.23-.13-.22-.13-.24-.13-.23-.13-.24-.13-.25-.13-.25-.14-.26-.13-.26-.14-.26-.13-.27-.14-.27-.14-.28-.13-.28-.14-.29-.14-.29-.13-.29-.14-.3-.13-.3-.14-.3-.13-.31-.13-.32-.14-.31-.13-.33-.13-.32-.13-.33-.13-.33-.12-.33-.13-.34-.12-.34-.12-.35-.12-.35-.12-.35-.12-.35-.05-.18-.06-.18-.06-.18-.05-.18-.06-.18-.05-.18-.06-.19-.05-.18-.05-.18-.05-.19-.06-.19-.05-.18-.05-.19-.05-.19-.04-.19-.05-.18-.05-.2-.05-.18-.04-.2-.05-.19-.04-.19-.04-.2-.05-.19-.04-.2-.04-.19-.04-.2-.04-.19-.03-.2-.04-.2-.04-.19-.03-.2-.04-.2-.03-.2-.03-.2-.03-.2-.04-.2-.03-.2-.02-.2-.03-.2-.03-.2-.02-.21-.03-.2-.02-.2-.02-.21-.02-.2-.02-.21-.02-.21-.02-.2-.02-.22-.01-.2-.02-.21v-.21l-.02-.2-.01-.22-.01-.2v-.22l-.02-.2v-1.92l.01-.21v-.22l.02-.21v-.22l.02-.21.01-.22.02-.22.02-.21.01-.22.02-.22.03-.21.02-.22.02-.22.03-.21.03-.22.03-.22.03-.22.03-.22.03-.22.04-.21.04-.22.03-.22.05-.22.04-.22.04-.22.05-.22.05-.22.05-.22.05-.22.05-.22.05-.22.06-.22.06-.22.06-.23.06-.22.06-.22.07-.22.07-.22.07-.22.07-.22.07-.22.08-.23.07-.22.08-.22.08-.22.09-.22.08-.22.09-.22.28.12zm2.1 5.76l-.05.18-.05.2-.05.18-.04.2-.05.18-.04.19-.04.19-.04.19-.04.19-.04.19-.03.19-.03.18-.04.2-.03.18-.03.2-.03.18v.05l-.03.14-.02.2-.03.18-.02.2-.02.18-.02.2-.02.18-.02.2-.02.18-.01.2-.02.18-.01.19-.02.19v.19l-.02.19v.19l-.01.19v.19l-.01.19v.18l-.01.2v1.11l.01.2v.18l.01.19.01.18.01.2.01.18.02.19v.18l.02.19.02.18.01.19.02.19.01.18.02.19.02.18.02.18.02.19.02.18.03.19.02.18.02.18.03.18.03.19.02.18.03.18.03.18.03.18.03.18.03.18.03.18.04.18.03.18.03.18.04.17.04.18.03.18.04.17.04.18.04.17.04.18.04.17.04.18.04.17.04.17.04.17.04.17.05.17.04.17.1.34.08.34.1.33.1.33.1.33.1.33.1.32.1.32.1.32.11.3.1.32.12.3.1.31.12.3.1.3.12.3.11.28.12.29.11.28.12.28.11.27.12.28.11.26.12.27.11.26.12.25.11.25.11.25.12.24.11.24.11.23.12.23.1.22.12.22.1.22.11.2.1.21.11.2.1.2.1.18.1.19.1.18.1.17.1.17.08.16.1.16.08.15.16.29.16.26.07.12.3-.07.32-.08.35-.1.37-.1.4-.1.41-.12.44-.13.46-.13.24-.07.24-.07.24-.08.25-.07.25-.08.26-.08.26-.08.26-.09.27-.08.27-.1.27-.08.28-.1.28-.09.28-.1.28-.1.29-.1.29-.1.29-.1.3-.11.29-.1.3-.12.3-.11.29-.12.3-.12.3-.12.3-.12.3-.12.31-.12.3-.13.31-.13.3-.13.31-.13.3-.13.3-.14.31-.14.3-.14.3-.14.31-.15.3-.14.3-.15.3-.15.3-.15.29-.15.3-.16.28-.16.3-.15.28-.16.28-.17.14-.08.14-.08.14-.08.14-.09.14-.08.14-.08.13-.09.14-.08.13-.09.14-.08.13-.09.13-.08.13-.1.13-.08.13-.09.13-.08.13-.09.13-.09.12-.09.13-.09.12-.09.12-.08.12-.1.12-.08.12-.1.12-.09.12-.09.11-.09.12-.09.1-.09.12-.1.11-.08.11-.1.1-.09.12-.1.1-.08.1-.1.1-.09.1-.1.1-.09.1-.1.1-.09.1-.09.1-.1.09-.09.09-.09.09-.1.08-.09.09-.1.08-.09.09-.1.08-.09.08-.09.08-.1.08-.09.07-.09.07-.1.08-.09.07-.1.07-.08.06-.1.07-.09.06-.1.07-.08.06-.1.06-.09.06-.09.05-.09.06-.1.05-.08.05-.1.05-.08.05-.1.05-.08.04-.1.05-.08.04-.1.04-.08.04-.09.03-.09.04-.08.03-.1.04-.08.03-.09.03-.08.02-.09.03-.09.03-.08.02-.09.02-.08.02-.09.02-.08v-.03l.02-.07-.03.1.01-.07.01-.07-.02.1.01-.07v-.06l-.01.1v-.13.1-.13l-.01.1v-.12.1l-.01-.06v-.06.1l-.01-.06-.01-.06v.1-.06l-.02-.06.01.1v-.07l-.02-.06.01.1-.01-.07-.02-.06.02.1-.02-.07-.01-.02-.01-.01-.01-.02-.02-.03-.01-.02-.02-.03-.01-.02-.02-.03-.02-.03-.02-.03-.02-.03-.03-.04-.02-.04-.03-.03-.03-.04-.03-.05-.03-.04-.04-.04-.04-.05-.03-.05-.05-.04-.04-.05-.05-.05-.04-.06-.05-.05-.06-.06-.05-.05-.06-.06-.06-.06-.06-.06-.06-.06-.07-.06-.07-.06-.07-.06-.07-.06-.08-.07-.08-.06-.07-.07-.09-.06-.08-.07-.09-.07-.09-.07-.09-.06-.09-.07-.1-.07-.1-.07-.09-.07-.1-.07-.1-.07-.1-.07-.11-.08-.11-.07-.11-.07-.12-.07-.11-.07-.12-.08-.12-.07-.12-.07-.06-.04-.06-.04-.12-.07-.13-.08-.12-.07-.13-.08-.13-.07-.13-.08-.14-.07-.13-.08-.14-.08-.14-.07-.14-.08-.14-.07-.14-.08-.15-.07-.14-.08-.15-.07-.3-.16-.3-.15-.31-.15-.32-.15-.32-.15-.33-.15-.33-.16-.33-.15-.34-.15-.34-.15-.35-.15-.35-.14-.36-.15-.36-.15-.15-.06-.21-.09-.37-.15-.36-.15-.37-.15-.38-.15-.37-.15-.38-.15-.38-.15-.39-.15-.16-.07-.22-.08-.39-.15-.38-.16-.4-.15-.38-.15-.4-.15-.39-.15-.34-.13-.05-.02-.4-.16-.39-.16-.4-.16-.38-.16-.8-.31-.22-.09-.57-.23-.78-.33-.79-.32-.78-.31-.24-.1-.54-.23-1.54-.64-1.52-.63-.74-.31-.74-.31-.73-.3-.71-.3-.7-.3-.04-.02-.37-.17-.02.09z"/><path fill="url(#_Linear2)" d="M14.31 51.1c16.26-11.05 14-38.9 60.2-46.46 2.84.25 4.63 1.59 0 5.28 2-1.6 9.88-5.52 12.06-5.28 2.02.23-1.81 3.2 0 3.59 1.65.35 7.11-1.9 8.6-1.44 11.72 3.58 18.1 9.7 18.1 9.7s15.9 36.88 31.53 44.94c.92 3.28-16.31 7.78-4.3 8.46 2.24.12 1.64 4.48-6.88 8.4-3.5 1.61-.96 2.76 3.03 2.79 3.24.02-15.3 16.06-34.59 22.28-19.73 6.37-68.4 10.05-89.33-27.8-2.73-4.94 7.73-2.66 7.73-2.66-9.38-5.8-8.75-6.46-8.62-8.42 1.52-2.18 3.68-2.07 8.62-3.07C10.7 58.5 8.9 54.05 14.3 51.09z"/><clipPath id="b"><path d="M14.31 51.1c16.26-11.05 14-38.9 60.2-46.46 2.84.25 4.63 1.59 0 5.28 2-1.6 9.88-5.52 12.06-5.28 2.02.23-1.81 3.2 0 3.59 1.65.35 7.11-1.9 8.6-1.44 11.72 3.58 18.1 9.7 18.1 9.7s15.9 36.88 31.53 44.94c.92 3.28-16.31 7.78-4.3 8.46 2.24.12 1.64 4.48-6.88 8.4-3.5 1.61-.96 2.76 3.03 2.79 3.24.02-15.3 16.06-34.59 22.28-19.73 6.37-68.4 10.05-89.33-27.8-2.73-4.94 7.73-2.66 7.73-2.66-9.38-5.8-8.75-6.46-8.62-8.42 1.52-2.18 3.68-2.07 8.62-3.07C10.7 58.5 8.9 54.05 14.3 51.09z"/></clipPath><g clip-path="url(#b)"><path fill="url(#_Linear4)" d="M17.54 63.4c36.86 3.05 26.71-17.84 59.71-11.25 10.48 2.8 24.27 26.24 50.86 4.21 1.65-1.37 4.26-3.9 7.47-2.48 10.09 4.48 2.26 30.85-2.2 36.36-19.47 24.06-98.27 33.53-119.71-15.64-.67-1.53 9.17-.18 8.4-1.7-1.64-3.23-15.8-7.62-4.53-9.5z"/></g><path fill="#522720" fill-rule="nonzero" d="M86.41 4.63c2.18.08-5.11 5.04 6.29 2.4 2.22-.5 4.34.33 6.36 1.11 5.14 2 10.14 4.65 14.13 8.29l1.18 2.52c6.8 14.7 14.12 30.06 26.59 39.95 1.45 1.15 3.82 2.41 3.86 2.64.55 4.2-9.17 4.52-8.58 7.23.45 2.05 4.14.44 5.08 1.47 1.45 1.57-.86 3.64-2.72 5.1-2.17 1.72-6.85 2.15-6.64 4.42.26 2.72 6.77-.31 4.54 2.62-2.58 3.38-6.32 5.87-9.97 8.42a91.87 91.87 0 0 1-58.25 16.44c-21-1.2-42.1-10.28-53.64-28.46a63.2 63.2 0 0 1-1.54-2.56c-.59-1.03-2.93-3.48 1.94-3.82 1.77-.12 3.55.13 5.3.48 0 0-7.72-3.71-8.5-6.91-1.06-4.43 4.62-3.77 8.39-4.52 0 0 1.44.38-1.1-.46a31.81 31.81 0 0 1-3.48-1.44 16.73 16.73 0 0 1-1.8-1.06 10.52 10.52 0 0 1-.95-.76c-1.42-1.28-2.12-3.72-.36-5.39 1.35-1.28 3.51-2.45 4.95-3.81C25.8 40.66 29.85 29 38.34 20.79c9.32-9.02 22.14-13.72 35.1-15.97C73.6 4.8 76.77 4 77.3 6c.49 1.8-1.52 2.9-2.8 3.93 2.04-1.6 2.4-1.53 3.24-1.98 2.79-1.48 5.68-3.33 8.66-3.3zm-15.44 4C56.85 11.3 43.36 17.73 34.6 29c-6.23 8-10.13 17.73-18.67 23.6-.54.37-2.57 2.2-2.18 1.67-.33.47 0-.07-.16.27-.52 1.1-.03.05-.05.2-.15 1.11-.02.03.02.19.33 1.34-.58-.3.62.89 1.78 1.74 4.44 2.55 6.98 3.28 0 0 1.54.72 1.7 2.03.39 3.23-6.43 2.88-8.4 4.26-.66.48 3.34 2.68 7.03 4.9 0 0 2.03 1.52 1.68 3.2-.51 2.47-4.34 1.73-7.2 1.75 0 0 1.63 2.68 3.05 4.6C32.27 97.66 57 104.57 78.86 103.18c17.7-1.13 34.78-7.76 49.37-19.64 0 0-3.3-6.45 2.96-9.58.84-.42 1.92-1.18 1.92-1.18s-3.43-3.9-.67-7.58c1.1-1.49 2.78-2.43 4.35-3.34 0 0-4.8-4.71-8.1-9.06-7.75-10.24-13.7-21.8-18.84-33.68 0 0-8.45-6.16-15.31-8.47 0 0-3.07.67-5.22 1.09-2.38.46-5.17.66-6.59-2.24a33.38 33.38 0 0 0-5.96 3.05s-1.9 1.24-3.55.58c-1.67-.67-2.49-2.64-1.94-4.49 0 0 .43-.16-.3-.03zm63.7 67.35zm-.05-.02c.1.04-.13-.04 0 0zm.01 0zm-120.18-.55c.06-.03.02 0 0 0zm.03-.01s.02 0 0 0zm0 0s.04-.02 0 0zm122.3-5.25c.02-.03.01-.01 0 0zM94.65 10.59s.02 0 0 0zm-.06 0zm-4.95-1.95c-.14.3.05-.1 0 0zm-3.3-.34zm.01 0zm.05 0c-.4.03.04-.01 0 0z"/><path fill="url(#_Linear5)" d="M101.05 20.55C124.46 8.75 128.3 3.63 143.8 2.5c7.7 23.81-4.43 46.08-14.9 52.62"/><clipPath id="c"><path d="M101.05 20.55C124.46 8.75 128.3 3.63 143.8 2.5c7.7 23.81-4.43 46.08-14.9 52.62"/></clipPath><g clip-path="url(#c)"><path fill="#93463c" d="M111.66 14.84c-.22 3.85 5.42 9.63 17.2 7.04 4.98-1.1 5.87 6.86 8.39 10.77 1.75 2.71 5.32 2.04 7.3 1 6-3.15 4.42-28.12 0-32.14-4.43-4.02-25.25 4.07-32.89 13.33z"/></g><path fill="#522720" d="M144.02.07l.4.07.39.14.35.2.32.25.27.3.22.35.15.38.1.28.1.29.1.3.08.28.1.3.08.28.1.3.06.21.02.07.08.3.08.28.07.3.08.28.07.3.07.29.07.28.07.3.05.18.02.1.06.3.06.28.06.3.05.28.05.3.06.28.05.29.05.29.04.28.03.2.02.1.04.28.04.29.04.28.03.29.04.29.03.28.03.29.03.28.03.29.02.28.03.29.02.23V13l.02.28.02.28.02.29.01.28.01.28.02.28v.28l.02.28v.28l.01.28v2.22l-.01.27-.01.27-.01.28-.02.27v.27l-.02.28-.02.27-.02.27-.01.27-.02.27v.05l-.03.22-.02.26-.03.27-.02.27-.03.27-.03.26-.03.27-.03.26-.03.27-.04.26-.03.26-.04.27-.04.26-.04.26-.04.26-.04.26-.04.26-.05.26-.04.26-.05.25-.04.26-.05.25-.05.26-.05.25-.06.26-.05.25-.05.25-.06.25-.06.26-.05.25-.06.24-.06.25-.06.25-.06.25-.07.25-.06.24-.07.25-.06.24-.07.24-.07.25-.07.24-.07.24-.07.24-.07.24-.07.24-.08.24-.07.23-.08.24-.08.23-.07.24-.08.23-.08.24-.08.23-.09.23-.04.13-.04.1-.08.23-.09.23-.08.23-.09.22-.09.23-.08.22-.1.23-.08.22-.1.23-.09.22-.09.22-.1.22-.09.22-.09.21-.1.22-.1.22-.09.21-.1.22-.1.21-.1.22-.1.2-.1.22-.1.2-.1.22-.1.2-.1.21-.1.2-.11.21-.1.2-.11.21-.1.2-.12.2-.1.2-.11.2-.11.2-.11.2-.11.2-.11.19-.11.2-.12.19-.1.19-.12.2-.12.18-.1.19-.12.19-.12.19-.12.18-.11.19-.12.18-.12.18-.11.19-.12.18-.12.18-.12.18-.12.17-.12.18-.12.17-.12.18-.12.17-.12.17-.12.18-.13.17-.12.16-.12.17-.13.17-.12.16-.12.17-.13.16-.12.16-.13.16-.12.16-.1.11-.03.05-.13.16-.12.15-.13.16-.13.15-.13.16-.12.15-.13.15-.13.15-.13.14-.13.15-.13.15-.13.14-.13.14-.13.15-.13.14-.13.14-.13.13-.13.14-.13.14-.13.13-.13.13-.13.14-.14.13-.13.13-.13.12-.13.13-.13.13-.14.12-.13.12-.13.13-.13.12-.14.11-.13.12-.13.12-.13.11-.14.12-.13.11-.13.11-.14.11-.13.11-.13.1-.13.11-.14.1-.13.11-.13.1-.14.1-.13.1-.13.1-.14.1-.13.09-.13.1-.14.09-.13.09-.13.09-.13.08-.14.1-.13.08-.13.08-.14.08-.13.08-.13.08-.13.08-1.48-.33.34-1.49.11-.08.12-.07.11-.08.11-.09.12-.08.11-.08.11-.09.12-.08.11-.1.12-.08.11-.1.12-.09.11-.09.12-.1.11-.09.12-.1.11-.1.12-.1.11-.1.12-.1.11-.1.12-.11.11-.1.12-.12.11-.1.12-.12.11-.1.12-.12.11-.12.12-.11.11-.12.12-.12.11-.12.11-.12.12-.12.11-.13.12-.12.11-.13.12-.12.1-.13.12-.13.12-.13.1-.14.12-.13.11-.13.12-.14.11-.14.11-.13.11-.14.12-.14.1-.15.12-.14.11-.14.11-.15.11-.14.11-.15.11-.15.11-.15.11-.15.1-.15.12-.15.1-.16.04-.05.07-.1.11-.16.11-.16.1-.15.11-.16.11-.16.1-.17.11-.16.1-.16.11-.17.1-.16.11-.17.1-.17.1-.16.11-.17.1-.17.1-.18.1-.17.1-.17.1-.18.1-.17.1-.18.1-.18.1-.17.1-.18.1-.18.1-.19.1-.18.09-.18.1-.19.09-.18.1-.19.09-.18.09-.19.1-.19.08-.19.1-.19.08-.19.1-.2.08-.19.1-.19.08-.2.09-.19.08-.2.1-.2.08-.2.08-.2.08-.2.09-.2.08-.2.08-.2.08-.2.08-.2.08-.2.08-.21.08-.2.08-.22.07-.2.08-.21.07-.21.08-.21.07-.21.07-.21.07-.22.08-.2.07-.22.06-.22.07-.21.07-.22.07-.21.06-.22.07-.22.03-.1.03-.12.07-.22.06-.22.06-.22.06-.22.06-.22.06-.22.06-.22.06-.23.06-.22.05-.23.06-.22.05-.23.05-.22.05-.23.05-.23.05-.23.05-.23.05-.23.05-.23.04-.23.05-.23.04-.23.05-.23.04-.23.04-.24.04-.23.04-.24.03-.23.04-.24.03-.23.04-.24.03-.24.03-.23.03-.24.03-.24.03-.24.03-.24.03-.24.02-.24.03-.24.02-.24.02-.24.02-.25.02-.24.02-.24.02-.25.01-.24.02-.25.01-.24.01-.25.01-.24.01-.25.01-.24v-.25l.01-.25.01-.24v-.5l.01-.25v-1.25l-.02-.25v-.25l-.01-.25-.01-.25-.01-.26-.01-.25-.02-.25-.01-.25-.02-.26-.02-.25-.02-.25-.02-.26-.02-.25-.02-.26-.03-.25-.03-.26-.02-.25-.03-.26v-.05l-.03-.2-.03-.26-.03-.26-.04-.26-.03-.25-.04-.26-.04-.26-.04-.26-.04-.25-.04-.26-.04-.26-.05-.26-.01-.09-.03-.17-.05-.26-.05-.26-.05-.26-.05-.26-.05-.26-.05-.26-.06-.26-.06-.26-.05-.27-.03-.09-.03-.17-.06-.26-.06-.26-.06-.27-.06-.26-.07-.27-.06-.26-.07-.26-.07-.27-.02-.06-.05-.2-.01-.06h-.05l-.32.03-.32.03-.32.03-.31.03-.31.03-.31.04-.3.03-.3.04-.3.04-.3.04-.29.04-.28.04-.29.05-.28.04-.28.05-.28.05-.28.05-.12.02-.15.03-.27.05-.27.06-.27.05-.27.06-.26.06-.26.06-.27.06-.26.07-.26.06-.25.07-.26.07-.26.07-.25.07-.26.08-.25.07-.25.08-.26.08-.25.08-.25.08-.25.09-.25.08-.26.1-.25.08-.25.1-.26.09-.25.1-.25.1-.26.1-.25.1-.26.1-.26.1-.26.11-.26.11-.26.11-.26.12-.26.11-.27.12-.26.12-.27.12-.27.12-.26.12h-.01l-.28.14-.27.13-.28.13-.28.13-.28.14-.29.13-.29.14-.58.29-.6.3-.6.3-.61.3-.63.33-.64.32-.65.34-.67.35-1.4.71-1.44.75-.76.39-.77.4-.79.4-.8.4-.84.43-.85.43-.88.44-.9.44-.91.46-.95.46-.48.24-.49.24-.5.24-.5.24-.5.24-.51.25-.52.25-.53.25-.53.25-.55.26-.54.25-.56.26-1.44-.47.47-1.44.54-.3.53-.28.52-.29.51-.28.51-.28.5-.28.5-.27.49-.28.48-.27.47-.26.47-.27.47-.26.9-.52.89-.5.86-.5.84-.49.82-.48.8-.46.78-.46.76-.45.75-.44.72-.43 1.4-.83 1.34-.8.66-.39.63-.38.63-.36.61-.37.6-.35.6-.34.59-.34.57-.33.29-.16.28-.16.29-.16.28-.15.28-.16.28-.15.27-.15h.02l.26-.14.27-.15.28-.14.27-.15.27-.14.27-.14.27-.13.27-.14.27-.13.27-.13.27-.13.27-.13.27-.13.27-.12.27-.12.27-.12.27-.12.27-.12.27-.11.27-.12.27-.1.27-.12.27-.1.27-.11.28-.1.27-.11.28-.1.28-.1.28-.1.28-.1.28-.09.28-.09.28-.09.29-.09.29-.09.29-.08.29-.08.3-.09.29-.08.3-.07.3-.08.16-.04.13-.04.3-.07.31-.07.31-.07.31-.06.31-.07.32-.06.32-.06.32-.06.32-.06.33-.06.33-.06.33-.05.34-.05.34-.05.34-.05.35-.05.35-.04.35-.05.36-.04.36-.04.3-.04h.06l.37-.04.37-.03h.4z"/><path fill="#f3f4e1" d="M104.66 33.33s28.63-22.63 34.08-21.1c2.02.57 5.94 27.68-12.04 39.35-5.42 3.52-7.56 0-7.56 0 2.18-1.16 2.62-5.07 1.95-7.31-2.96 1.45-6.52 3.83-11.75 2.84 0 0-14.45-3.46-4.68-13.78z"/><path fill="url(#_Linear7)" d="M25.78 55.46l-4.67-.42.86-6.25-5.41-.36.97-7.05-4.31-.24 1.63-10.07 114.01 6.32-1.63 10.07-7.4-.4-1.11 7.86-7.12-.45-1.06 7.5-7.05-.45-.71 5.05-22.67-1.43.72-5.06-6.2-.4 1.05-7.49-6.7-.42 1.06-7.48-12.06-.67-1.02 7.44-9.31-.6-.94 6.84-5.56-.49-.77 5.18-15.37-1.28.77-5.25z"/><path d="M92.55 55.15l-5.03-.33-.65 4.7 5.03.33.65-4.7zm-4.44-5.03l-5.02-.33-.65 4.7 5.02.33.65-4.7zm-4.4-5.04l-5.02-.32-.65 4.7 5.03.33.65-4.7z"/><path fill="#fff" d="M92.55 55.15l-.65 4.7-5.03-.33.65-4.7 5.03.33zm-4.44-5.03l-.65 4.7-5.02-.33.64-4.7 5.03.32zm-4.4-5.04l-.64 4.7-5.03-.32.65-4.7 5.03.32z"/><path d="M36.75 51.07l-5.03-.33-.64 4.7 5.02.33.65-4.7zm-4.43-5.03l-5.03-.33-.65 4.7 5.03.33.65-4.7zM27.92 41l-5.02-.33-.65 4.7 5.02.33.65-4.7z"/><path fill="#fff" d="M36.75 51.07l-.65 4.7-5.03-.33.65-4.7 5.03.33zm-4.43-5.03l-.65 4.7-5.03-.33.65-4.7 5.03.33zM27.92 41l-.65 4.7-5.02-.33.65-4.7 5.02.33z"/><path fill="#f3f4e1" d="M69.95 51.75l-31.56-1.93S34.52 70.67 64.95 77"/><clipPath id="d"><path d="M69.95 51.75l-31.56-1.93S34.52 70.67 64.95 77"/></clipPath><g clip-path="url(#d)"><path fill="url(#_Linear9)" d="M45.14 69.5s14.78 1.08 16.66-17.17c-6.18-1.06-23.62-2.5-23.62-2.5S36.4 65.38 45.13 69.5z"/></g><path fill="#874c48" fill-rule="nonzero" d="M41.06 48.18L70 50.88l.8.92-.9.8-19.16-.5-8.34-.11-2.2-.13c.13 12.26 11.88 21.03 24.92 24.29l.68 1.02-1.03.66c-10.85-1.87-22.1-6.19-26.83-17.34a19.64 19.64 0 0 1-1.45-10.92s.28-1.61 2.02-1.62l2.55.23z"/><path fill="#fff" fill-opacity=".3" d="M51.7 55.55a1.5 1.5 0 0 0-1.36-1.63l-5.97-.54a1.5 1.5 0 0 0-.27 2.99l5.97.54a1.5 1.5 0 0 0 1.63-1.36z"/><path fill="#fff" fill-opacity=".3" d="M49.46 55.35a1.5 1.5 0 0 0-1.36-1.63l-3.73-.34a1.5 1.5 0 0 0-.27 2.99l3.73.34a1.5 1.5 0 0 0 1.63-1.36z"/><path fill="#fff" fill-opacity=".4" d="M47.22 55.14a1.5 1.5 0 0 0-1.36-1.63l-1.5-.13a1.5 1.5 0 0 0-.26 2.99l1.5.13a1.5 1.5 0 0 0 1.62-1.36z"/><g fill-rule="nonzero"><path fill="url(#_Linear10)" d="M4.97 141.37h12.6l3.47-27.2 7.9 27.2h8.44l7.9-27.2 3.49 27.2h12.6l-6.84-46.88H41.4l-8.23 28.6-8.24-28.6H11.8l-6.83 46.88z"/><path fill="url(#_Linear11)" d="M66.52 141.37H93.7v-11.25H79.64V94.49H66.52v46.88z"/><path fill="url(#_Linear12)" d="M119.7 114.18v10.31h12.19c-1.07 4.82-5.16 7.9-10.45 7.9-6.7 0-12.52-5.02-12.52-14.4 0-9.24 5.89-13.59 12.05-13.59 4.49 0 8.1 2.14 9.85 5.56l11.58-5.43c-1.67-3.08-7.1-11.38-21.76-11.38-15 0-24.85 9.78-24.85 25.11 0 15.8 11.52 24.45 25.78 24.45 21.1 0 24.25-17.48 23.31-28.53H119.7z"/></g><path fill="url(#_Linear13)" fill-rule="nonzero" d="M120.83 88.15c10.07.07 20.22 4.4 25.4 13 1.67 2.78 1.32 6.5-1.95 8.03 0 0 2.7 0 4.17 1.5a5 5 0 0 1 1.24 2.12c.3 1.07.28 2.22.31 3.36.33 10.5-3.37 21.56-11.83 27.11-11.38 7.47-29.5 5.69-39.46-4.35l-.03 2.97a5.3 5.3 0 0 1-4.97 4.48H66.5c-1.74-.1-1.32-.07-2.5-.67l-.69.27a5.2 5.2 0 0 1-1.96.4H48.77a5.29 5.29 0 0 1-4.96-4.37l-.43-3.35-1.2 4.11s-.33 1.04-.9 1.75c-.91 1.12-1.68 1.75-3.9 1.86h-8.43a5.3 5.3 0 0 1-4.8-3.6l-1.2-4.12-.43 3.35s-.18 1.12-.67 1.94a5.27 5.27 0 0 1-4.29 2.43H4.97a5.26 5.26 0 0 1-4.95-5.72l6.83-46.88a5.29 5.29 0 0 1 4.95-4.28h13.13a5.3 5.3 0 0 1 4.8 3.61l3.44 11.92L36.6 93.1s.33-1.03.9-1.75c.92-1.13 1.68-1.75 3.9-1.86h13.13a5.29 5.29 0 0 1 4.95 4.28l2.04 14V94.49s.95-4.79 5-5h13.12a5.26 5.26 0 0 1 5 5v30.63h6.83l-.14-.7c-2.42-13.51 3.81-28.74 16.8-33.97a33.7 33.7 0 0 1 12.7-2.3zm-.37 5c-9 .07-18 4.58-21.93 12.5-5.8 11.64-2.78 27.44 9.27 33.85 10.1 5.37 25.63 4.24 32.41-4.95 4.17-5.65 5.25-13.23 4.67-20.37H119.7v10.31h12.19c-1.87 8.2-13.98 11.94-20.86 2.04-5.44-7.83-1.4-22.48 10.36-22.12 3.8.11 7.6 2.07 9.39 5.47l11.62-5.35c-4.17-7.61-13.29-11.4-21.94-11.38zM11.8 94.49l-6.83 46.88h12.6l3.47-27.2 7.9 27.2h8.44l7.9-27.2 3.49 27.2h12.6l-6.84-46.88H41.4l-8.23 28.6-8.24-28.6H11.8zm54.72 0v46.88H93.7v-11.25H79.64V94.49H66.52z"/><path fill="#fff" d="M122.04 135.62a2 2 0 1 0 0 4 2 2 0 0 0 0-4zm-7.14-1.18a2 2 0 1 0 0 4 2 2 0 0 0 0-4zm13.8-.45a2 2 0 1 0 0 4 2 2 0 0 0 0-4zm-41.72-.03a2 2 0 1 0 0 4 2 2 0 0 0 0-4zm-6.99 0a2 2 0 1 0 0 4 2 2 0 0 0 0-4zm-6.98 0a2 2 0 1 0 0 4 2 2 0 0 0 0-4zm-40-.78a2 2 0 1 1 0 4 2 2 0 0 1 0-4zm21.15-.14a2 2 0 1 0 0 4 2 2 0 0 0 0-4zm-42.1 0a2 2 0 1 1 0 4 2 2 0 0 1 0-4zm96.67-1.42a2 2 0 1 0 0 4 2 2 0 0 0 0-4zM134.5 130a2 2 0 1 0 0 4 2 2 0 0 0 0-4zm-29.77-3.68a2 2 0 1 0 0 4 2 2 0 0 0 0-4zm-51.6-.1a2 2 0 1 0 0 4 2 2 0 0 0 0-4zm-40.04 0a2 2 0 1 1 0 4 2 2 0 0 1 0-4zm17.53-.03a2 2 0 1 1 0 4 2 2 0 0 1 0-4zm5.2 0a2 2 0 1 0 0 3.99 2 2 0 0 0 0-4zm37.19-.2a2 2 0 1 0 0 3.99 2 2 0 0 0 0-4zm64.8-1.66a2 2 0 1 0 .01 4 2 2 0 0 0 0-4zm-35.08-4.56a2 2 0 1 0 0 4 2 2 0 0 0 0-4zm-88.67-.53a2 2 0 1 1 0 4 2 2 0 0 1 0-4zm38.1 0a2 2 0 1 0 0 4 2 2 0 0 0 0-4zm-24.29-.17a2 2 0 1 1 0 4 2 2 0 0 1 0-4zm10.69 0a2 2 0 1 0 0 4 2 2 0 0 0 0-4zm34.45-.08a2 2 0 1 0 0 4 2 2 0 0 0 0-4zm65.8-1.54a2 2 0 1 0 0 4 2 2 0 0 0 0-4zm-12.88 0a2 2 0 1 0 0 4 2 2 0 0 0 0-4zm6.54 0a2 2 0 1 0 0 4 2 2 0 0 0 0-4zm-29.74-4.68a2 2 0 1 0 0 4 2 2 0 0 0 0-4zm-87.64-.52a2 2 0 1 1 0 4 2 2 0 0 1 0-4zm36.04 0a2 2 0 1 0 0 4 2 2 0 0 0 0-4zm21.87-.02a2 2 0 1 0 0 3.99 2 2 0 0 0 0-4zm-47.2 0a2 2 0 1 1 0 3.99 2 2 0 0 1 0-4zm14.82 0a2 2 0 1 0 0 3.99 2 2 0 0 0 0-4zm64.69-6.86a2 2 0 1 0 0 4 2 2 0 0 0 0-4zm-32.3-.13a2 2 0 1 0 0 4 2 2 0 0 0 0-4zm-22.84-.13a2 2 0 1 0 0 4 2 2 0 0 0 0-4zm-27.67 0a2 2 0 1 1 0 4 2 2 0 0 1 0-4zm21.42 0a2 2 0 1 0 0 4 2 2 0 0 0 0-4zm-27.87 0a2 2 0 1 1 0 4 2 2 0 0 1 0-4zm115.23-5.34a2 2 0 1 0 0 4 2 2 0 0 0 0-4zm-21.02 0a2 2 0 1 0 0 4 2 2 0 0 0 0-4zm-91.75-1.01a2 2 0 1 1 0 4 2 2 0 0 1 0-4zm28.63 0a2 2 0 1 0 0 4 2 2 0 0 0 0-4zm25.86 0a2 2 0 1 0 0 3.99 2 2 0 0 0 0-4zm44.04-1.77a2 2 0 1 0 0 4 2 2 0 0 0 0-4zm7.63 0a2 2 0 1 0 0 4 2 2 0 0 0 0-4z"/></g><defs><linearGradient id="_Linear2" x2="1" gradientTransform="rotate(-108.41 76.07 -10.37) scale(43.5937)" gradientUnits="userSpaceOnUse"><stop offset="0" stop-color="#e98067"/><stop offset="1" stop-color="#f5b386"/></linearGradient><linearGradient id="_Linear4" x2="1" gradientTransform="rotate(77.74 .74 93.47) scale(40.30465)" gradientUnits="userSpaceOnUse"><stop offset="0" stop-color="#f3f4e1"/><stop offset="1" stop-color="#e98067"/></linearGradient><linearGradient id="_Linear5" x2="1" gradientTransform="rotate(45.39 25.42 137.5) scale(38.5133)" gradientUnits="userSpaceOnUse"><stop offset="0" stop-color="#f4af83"/><stop offset="1" stop-color="#ea866b"/></linearGradient><linearGradient id="_Linear7" x2="1" gradientTransform="rotate(-165.41 58.73 18.51) scale(88.731)" gradientUnits="userSpaceOnUse"><stop offset="0"/><stop offset="1" stop-color="#112733"/></linearGradient><linearGradient id="_Linear9" x2="1" gradientTransform="rotate(-130.68 41.3 19.27) scale(16.33)" gradientUnits="userSpaceOnUse"><stop offset="0" stop-color="#5a123a"/><stop offset="1" stop-color="#8c4d36"/></linearGradient><linearGradient id="_Linear10" x2="1" gradientTransform="rotate(-90 121.68 32.2) scale(59.4004)" gradientUnits="userSpaceOnUse"><stop offset="0" stop-color="#fdd262"/><stop offset=".24" stop-color="#fcb309"/><stop offset=".44" stop-color="#f1e3be"/><stop offset=".59" stop-color="#fcb309"/><stop offset=".78" stop-color="#f1e3be"/><stop offset="1" stop-color="#fef97c"/></linearGradient><linearGradient id="_Linear11" x2="1" gradientTransform="rotate(-90 121.68 32.2) scale(59.4004)" gradientUnits="userSpaceOnUse"><stop offset="0" stop-color="#fdd262"/><stop offset=".24" stop-color="#fcb309"/><stop offset=".44" stop-color="#f1e3be"/><stop offset=".59" stop-color="#fcb309"/><stop offset=".78" stop-color="#f1e3be"/><stop offset="1" stop-color="#fef97c"/></linearGradient><linearGradient id="_Linear12" x2="1" gradientTransform="rotate(-90 121.68 32.2) scale(59.4004)" gradientUnits="userSpaceOnUse"><stop offset="0" stop-color="#fdd262"/><stop offset=".24" stop-color="#fcb309"/><stop offset=".44" stop-color="#f1e3be"/><stop offset=".59" stop-color="#fcb309"/><stop offset=".78" stop-color="#f1e3be"/><stop offset="1" stop-color="#fef97c"/></linearGradient><linearGradient id="_Linear13" x2="1" gradientTransform="rotate(-90 108.83 35.48) scale(54.2042)" gradientUnits="userSpaceOnUse"><stop offset="0" stop-color="#5a123a"/><stop offset=".46" stop-color="#c8013a"/><stop offset="1" stop-color="#a43d93"/></linearGradient></defs></svg>