<svg xmlns="http://www.w3.org/2000/svg" fill-rule="evenodd" stroke-linejoin="round" stroke-miterlimit="1.41" clip-rule="evenodd" viewBox="0 0 148 138"><path fill="#5b8104" d="M56.46.25a2.14 2.14 0 0 0-2.88.89L.25 102.28a2.13 2.13 0 0 0 .89 2.88l61.3 32.32c1.03.55 2.33.15 2.88-.89l53.33-101.14a2.14 2.14 0 0 0-.9-2.88L56.47.25z"/><path fill="#3c5a00" fill-rule="nonzero" d="M54.28.36a2.2 2.2 0 0 1 2.14-.14A2742.18 2742.18 0 0 1 117.8 32.6a2.2 2.2 0 0 1 .87 2.81A4517.01 4517.01 0 0 1 65.3 136.64a2.21 2.21 0 0 1-2.81.87A2739.93 2739.93 0 0 1 1.1 105.14a2.21 2.21 0 0 1-.87-2.81A4514.87 4514.87 0 0 1 53.61 1.09c.17-.3.4-.54.67-.73zM4.8 102.46l57.82 30.48 51.5-97.66L56.28 4.79 4.8 102.45z"/><path fill="#7db009" d="M55.55 17.7a7.92 7.92 0 0 0 9.27-3.39l37.05 19.54a7.93 7.93 0 0 0 1.68 9.93l-38.94 73.85a7.93 7.93 0 0 0-11.1 5.48l-37.64-19.84a7.93 7.93 0 0 0 .39-11.06l39.29-74.5z"/><path fill="#3c5a00" fill-rule="nonzero" d="M55.66 17.74a8.17 8.17 0 0 0 9.06-3.26l37.15 19.37c-.46.83-.45.89-.58 1.26a8.14 8.14 0 0 0 2.17 8.6l-38.85 73.92c-.61-.28-.72-.3-1.08-.4a8.2 8.2 0 0 0-10.03 5.88l-37.63-19.84.25-.26a8.18 8.18 0 0 0 .14-10.8l39.29-74.5.1.03zm-34.62 74.2c1.53 2.96 1.77 6.5.68 9.63l29.96 15.95a12.33 12.33 0 0 1 10.76-4.68l36.2-68.53s-2.34-4.5-1.78-8.36L65.74 19.43a12.16 12.16 0 0 1-7.93 2.78L21.04 91.94z"/><path fill="#333f1c" fill-opacity=".43" d="M18.34 67.66l73.22-49.12 11.65 6.18-84.86 42.94zM12.36 79.2l22.75 44.07-8.6-4.6-15.46-37.08 1.3-2.39z"/><path fill="#5b8104" d="M115.35 20.27a2.14 2.14 0 0 0-2.87-.92L10.78 71.59a2.13 2.13 0 0 0-.93 2.88l31.67 61.63a2.14 2.14 0 0 0 2.87.93l101.7-52.25a2.13 2.13 0 0 0 .93-2.88l-31.67-61.63z"/><path fill="#3c5a00" fill-rule="nonzero" d="M113.5 19.11a2.2 2.2 0 0 1 1.82 1.11 2740.57 2740.57 0 0 1 31.72 61.73c.46 1 .06 2.26-.9 2.8a4513.68 4513.68 0 0 1-101.8 52.3 2.2 2.2 0 0 1-2.8-.9A2734.21 2734.21 0 0 1 9.83 74.42a2.21 2.21 0 0 1 .9-2.8 4515.73 4515.73 0 0 1 101.8-52.3c.3-.14.63-.21.97-.21zM14.4 74.34l29.86 58.14 98.2-50.45-29.86-58.14-98.2 50.45z"/><path fill="#7db009" d="M104.59 34.04a7.92 7.92 0 0 0 9.54 2.55l19.14 37.25a7.93 7.93 0 0 0-4.32 9.1L54.68 121.1a7.93 7.93 0 0 0-12.24-1.88L23 81.37a7.94 7.94 0 0 0 6.67-8.84l74.92-38.49z"/><path fill="#3c5a00" fill-rule="nonzero" d="M104.65 34.13a8.17 8.17 0 0 0 9.3 2.53l19.32 37.18c-.86.41-.88.47-1.2.7a8.14 8.14 0 0 0-3.15 8.28L54.68 121.1c-.34-.58-.41-.66-.64-.95a8.2 8.2 0 0 0-11.6-.93L23 81.37l.35-.07a8.18 8.18 0 0 0 6.32-8.77l74.92-38.49.06.1zM33.73 75.05a12.29 12.29 0 0 1-4.96 8.28l15.39 30.25a12.33 12.33 0 0 1 11.5 2.35l68.96-35.38s.67-5.03 3.34-7.86L111.94 41.3c-2.84.24-5.75-.59-8.09-2.28L33.73 75.05z"/><circle cx="79.26" cy="78.08" r="20.4" fill="#547604"/><path fill="#304603" fill-rule="nonzero" d="M79.4 57.68c9.37.09 18.19 7.3 19.92 16.66 1.7 9.14-3.71 19.1-12.35 22.63-10.64 4.35-24.47-2.18-27.46-13.8-3-11.65 6.24-25.04 19.1-25.48l.79-.01zm-.24 4.1c-7.47.07-14.47 5.76-15.9 13.21-1.79 9.3 6.18 19.32 15.9 19.39 7.28.04 14.25-5.34 15.96-12.52 2.2-9.29-5.14-19.78-15.44-20.08h-.52z"/><path fill="#90c613" fill-rule="nonzero" d="M89.73 78.68c.86 1.76.93 3.41.22 4.95-.7 1.55-2.2 2.93-4.47 4.14l1.25 2.56-1.59.77-1.22-2.5c-2.13.93-4 1.24-5.61.9-1.61-.34-3.06-1.36-4.34-3.06l3.4-2.5a4.6 4.6 0 0 0 2.27 1.87c.8.24 1.74.16 2.8-.24l-2.78-5.7-.25.04-.25.08c-1.75.4-3.15.56-4.19.46a5.89 5.89 0 0 1-2.77-.96 6.03 6.03 0 0 1-2-2.44 5.02 5.02 0 0 1-.16-4.56c.68-1.43 2.07-2.7 4.16-3.82l-.95-1.95 1.59-.78.95 1.96c1.3-.58 2.46-.9 3.48-.95a5.43 5.43 0 0 1 2.82.56 9.1 9.1 0 0 1 2.7 2.32l-3.58 2.45a4.23 4.23 0 0 0-1.81-1.55 3.2 3.2 0 0 0-2.22.03l2.5 5.13.18-.05c.28-.14 1.25-.32 2.92-.56a7.21 7.21 0 0 1 4.22.5 6 6 0 0 1 2.73 2.9zm-14.17-7.2c-1.74 1.01-2.26 2.23-1.57 3.65.2.43.46.74.75.95a2 2 0 0 0 1 .38c.37.05 1.1 0 2.19-.15l-2.37-4.84zm10.4 9.1a2.65 2.65 0 0 0-.83-1.05c-.33-.22-.7-.35-1.14-.38-.43-.03-1.28.07-2.57.3l2.61 5.35c2.08-1.2 2.73-2.6 1.94-4.21z"/></svg>