<?xml version="1.0" encoding="UTF-8" standalone="no"?>
<!DOCTYPE svg PUBLIC "-//W3C//DTD SVG 1.1//EN" "http://www.w3.org/Graphics/SVG/1.1/DTD/svg11.dtd">
<svg xmlns="http://www.w3.org/2000/svg" version="1.1" viewBox="0.00 0.00 962.00 962.00">
<g stroke-width="2.00" fill="none" stroke-linecap="butt">
<path stroke="#4e0f2d" vector-effect="non-scaling-stroke" d="
  M 463.91 64.00
  A 31.91 31.91 0.0 0 0 432.00 32.09
  A 31.91 31.91 0.0 0 0 400.09 64.00
  A 31.91 31.91 0.0 0 0 432.00 95.91
  A 31.91 31.91 0.0 0 0 463.91 64.00"
/>
<path stroke="#6d0c36" vector-effect="non-scaling-stroke" d="
  M 509.43 41.47
  C 553.91 74.28 590.42 115.11 617.62 163.23
  A 0.43 0.42 66.4 0 0 618.11 163.43
  C 655.52 152.26 694.93 170.22 712.07 205.28
  C 732.48 247.05 711.89 297.16 669.18 314.17
  A 1.21 1.21 0.0 0 0 668.43 315.46
  Q 674.42 357.21 673.11 399.38
  Q 673.09 400.00 673.71 400.00
  L 892.29 400.00
  Q 892.97 400.00 892.83 399.34
  Q 888.64 379.66 882.64 360.46
  Q 882.45 359.88 881.89 360.11
  Q 873.02 363.84 869.18 364.91
  C 829.31 376.04 788.75 356.05 773.29 317.90
  C 758.42 281.23 773.25 240.32 806.70 220.07
  Q 807.16 219.79 806.82 219.37
  C 731.49 126.69 626.57 63.92 509.69 40.89
  A 0.33 0.32 -21.1 0 0 509.43 41.47"
/>
<path stroke="#76465a" vector-effect="non-scaling-stroke" d="
  M 663.11 281.74
  C 685.99 268.84 694.69 240.93 682.13 217.43
  C 672.89 200.14 653.64 189.48 633.36 192.84
  A 0.51 0.50 -17.2 0 0 632.98 193.55
  Q 652.34 235.91 662.39 281.42
  A 0.49 0.49 0.0 0 0 663.11 281.74"
/>
<path stroke="#76465a" vector-effect="non-scaling-stroke" d="
  M 816.26 323.73
  C 831.67 337.24 852.86 339.95 871.13 329.68
  Q 871.65 329.39 871.43 328.84
  Q 853.60 284.97 826.84 245.93
  Q 826.58 245.56 826.18 245.77
  C 796.40 261.26 790.82 301.41 816.26 323.73"
/>
<path stroke="#380f24" vector-effect="non-scaling-stroke" d="
  M 928.00 432.68
  A 0.68 0.68 0.0 0 0 927.32 432.00
  L 640.68 432.00
  A 0.68 0.68 0.0 0 0 640.00 432.68
  L 640.00 463.32
  A 0.68 0.68 0.0 0 0 640.68 464.00
  L 927.32 464.00
  A 0.68 0.68 0.0 0 0 928.00 463.32
  L 928.00 432.68"
/>
<path stroke="#7d5e26" vector-effect="non-scaling-stroke" d="
  M 586.19 800.79
  A 0.82 0.82 0.0 0 1 587.23 801.31
  L 597.03 830.71
  A 0.51 0.51 0.0 0 1 596.71 831.35
  Q 557.68 844.95 516.25 845.73
  C 470.61 846.59 427.99 823.52 405.60 783.51
  A 0.47 0.45 67.5 0 0 405.07 783.28
  C 290.90 815.58 170.84 801.44 70.75 736.54
  A 0.11 0.11 0.0 0 0 70.60 736.70
  C 141.25 841.03 255.72 911.66 381.94 925.18
  C 642.10 953.06 868.55 757.36 879.66 496.43
  A 0.41 0.41 0.0 0 0 879.25 496.00
  L 685.02 496.00
  Q 684.37 496.00 684.20 496.63
  Q 659.86 581.88 604.23 649.75
  Q 599.09 656.02 591.73 656.02
  Q 525.18 655.95 458.50 656.02
  Q 457.93 656.02 458.18 656.53
  Q 474.95 690.35 491.96 724.05
  C 498.24 736.47 497.17 744.97 484.36 751.67
  Q 461.47 763.64 437.10 772.83
  Q 436.58 773.03 436.88 773.50
  C 469.52 824.38 537.71 817.37 586.19 800.79"
/>
<path stroke="#7d5e26" vector-effect="non-scaling-stroke" d="
  M 703.86 608.15
  A 0.17 0.17 0.0 0 0 703.69 608.00
  L 672.51 608.00
  Q 672.01 608.00 672.02 608.50
  C 672.08 643.22 694.72 673.36 727.34 684.13
  C 778.07 700.88 831.82 662.82 831.96 608.47
  Q 831.96 608.00 831.49 608.00
  L 800.50 608.00
  A 0.65 0.65 0.0 0 0 799.85 608.62
  C 798.33 642.93 764.48 666.07 732.36 651.40
  Q 706.54 639.61 703.86 608.15"
/>
</g>
<path fill="#000000" d="
  M 428.31 0.00
  L 434.80 0.00
  Q 449.16 1.00 463.48 2.24
  C 679.78 20.92 883.82 181.24 925.35 399.40
  Q 925.45 399.94 926.01 399.96
  C 943.35 400.28 960.04 396.30 960.01 420.40
  Q 959.99 448.46 960.00 476.52
  C 960.00 490.66 953.40 496.05 939.68 496.01
  Q 925.76 495.97 911.90 496.01
  A 0.36 0.36 0.0 0 0 911.54 496.36
  C 903.75 708.30 757.30 892.52 551.18 944.90
  C 417.28 978.93 274.38 954.60 161.34 874.50
  Q 62.33 804.35 8.33 693.68
  Q 2.50 681.75 0.00 673.04
  L 0.00 671.19
  C 2.04 656.30 17.16 651.24 28.09 661.52
  Q 34.96 667.97 41.96 674.26
  C 157.16 777.82 319.49 794.70 457.87 729.37
  A 0.83 0.82 64.0 0 0 458.25 728.25
  Q 437.87 687.51 417.51 646.75
  C 413.47 638.66 417.74 628.56 425.93 625.27
  Q 429.09 624.00 436.26 624.00
  Q 509.94 624.00 583.28 624.00
  A 1.43 1.41 -70.7 0 0 584.40 623.45
  Q 629.35 566.27 650.80 496.70
  Q 650.99 496.07 650.33 496.06
  Q 639.57 495.88 628.97 495.99
  C 614.71 496.12 607.96 491.01 607.99 476.18
  Q 608.03 448.53 607.99 420.89
  Q 607.97 413.20 609.34 409.80
  C 614.45 397.15 629.56 400.01 640.05 400.00
  Q 641.09 400.00 641.12 398.97
  C 645.08 272.69 597.97 149.06 495.63 71.33
  A 0.28 0.27 22.5 0 0 495.19 71.51
  C 489.67 116.75 439.77 142.13 400.29 119.73
  C 367.19 100.94 357.37 57.27 379.90 26.42
  Q 397.35 2.53 428.31 0.00
  Z
  M 463.91 64.00
  A 31.91 31.91 0.0 0 0 432.00 32.09
  A 31.91 31.91 0.0 0 0 400.09 64.00
  A 31.91 31.91 0.0 0 0 432.00 95.91
  A 31.91 31.91 0.0 0 0 463.91 64.00
  Z
  M 509.43 41.47
  C 553.91 74.28 590.42 115.11 617.62 163.23
  A 0.43 0.42 66.4 0 0 618.11 163.43
  C 655.52 152.26 694.93 170.22 712.07 205.28
  C 732.48 247.05 711.89 297.16 669.18 314.17
  A 1.21 1.21 0.0 0 0 668.43 315.46
  Q 674.42 357.21 673.11 399.38
  Q 673.09 400.00 673.71 400.00
  L 892.29 400.00
  Q 892.97 400.00 892.83 399.34
  Q 888.64 379.66 882.64 360.46
  Q 882.45 359.88 881.89 360.11
  Q 873.02 363.84 869.18 364.91
  C 829.31 376.04 788.75 356.05 773.29 317.90
  C 758.42 281.23 773.25 240.32 806.70 220.07
  Q 807.16 219.79 806.82 219.37
  C 731.49 126.69 626.57 63.92 509.69 40.89
  A 0.33 0.32 -21.1 0 0 509.43 41.47
  Z
  M 663.11 281.74
  C 685.99 268.84 694.69 240.93 682.13 217.43
  C 672.89 200.14 653.64 189.48 633.36 192.84
  A 0.51 0.50 -17.2 0 0 632.98 193.55
  Q 652.34 235.91 662.39 281.42
  A 0.49 0.49 0.0 0 0 663.11 281.74
  Z
  M 816.26 323.73
  C 831.67 337.24 852.86 339.95 871.13 329.68
  Q 871.65 329.39 871.43 328.84
  Q 853.60 284.97 826.84 245.93
  Q 826.58 245.56 826.18 245.77
  C 796.40 261.26 790.82 301.41 816.26 323.73
  Z
  M 928.00 432.68
  A 0.68 0.68 0.0 0 0 927.32 432.00
  L 640.68 432.00
  A 0.68 0.68 0.0 0 0 640.00 432.68
  L 640.00 463.32
  A 0.68 0.68 0.0 0 0 640.68 464.00
  L 927.32 464.00
  A 0.68 0.68 0.0 0 0 928.00 463.32
  L 928.00 432.68
  Z
  M 586.19 800.79
  A 0.82 0.82 0.0 0 1 587.23 801.31
  L 597.03 830.71
  A 0.51 0.51 0.0 0 1 596.71 831.35
  Q 557.68 844.95 516.25 845.73
  C 470.61 846.59 427.99 823.52 405.60 783.51
  A 0.47 0.45 67.5 0 0 405.07 783.28
  C 290.90 815.58 170.84 801.44 70.75 736.54
  A 0.11 0.11 0.0 0 0 70.60 736.70
  C 141.25 841.03 255.72 911.66 381.94 925.18
  C 642.10 953.06 868.55 757.36 879.66 496.43
  A 0.41 0.41 0.0 0 0 879.25 496.00
  L 685.02 496.00
  Q 684.37 496.00 684.20 496.63
  Q 659.86 581.88 604.23 649.75
  Q 599.09 656.02 591.73 656.02
  Q 525.18 655.95 458.50 656.02
  Q 457.93 656.02 458.18 656.53
  Q 474.95 690.35 491.96 724.05
  C 498.24 736.47 497.17 744.97 484.36 751.67
  Q 461.47 763.64 437.10 772.83
  Q 436.58 773.03 436.88 773.50
  C 469.52 824.38 537.71 817.37 586.19 800.79
  Z"
/>
<circle fill="#9b1e5a" cx="432.00" cy="64.00" r="31.91"/>
<path fill="#d9176c" d="
  M 617.62 163.23
  C 590.42 115.11 553.91 74.28 509.43 41.47
  A 0.33 0.32 -21.1 0 1 509.69 40.89
  C 626.57 63.92 731.49 126.69 806.82 219.37
  Q 807.16 219.79 806.70 220.07
  C 773.25 240.32 758.42 281.23 773.29 317.90
  C 788.75 356.05 829.31 376.04 869.18 364.91
  Q 873.02 363.84 881.89 360.11
  Q 882.45 359.88 882.64 360.46
  Q 888.64 379.66 892.83 399.34
  Q 892.97 400.00 892.29 400.00
  L 673.71 400.00
  Q 673.09 400.00 673.11 399.38
  Q 674.42 357.21 668.43 315.46
  A 1.21 1.21 0.0 0 1 669.18 314.17
  C 711.89 297.16 732.48 247.05 712.07 205.28
  C 694.93 170.22 655.52 152.26 618.11 163.43
  A 0.43 0.42 66.4 0 1 617.62 163.23
  Z"
/>
<path fill="#000000" d="
  M 280.58 192.61
  A 0.35 0.35 0.0 0 0 280.33 192.01
  Q 236.91 191.98 193.41 192.02
  C 170.12 192.04 170.29 160.02 192.87 160.01
  Q 256.11 159.99 319.34 160.00
  C 331.57 160.01 341.34 173.24 333.69 184.59
  Q 332.50 186.36 329.61 189.25
  Q 280.48 238.42 231.44 287.41
  A 0.35 0.35 0.0 0 0 231.69 288.00
  Q 275.49 288.00 319.41 288.00
  C 341.54 288.00 341.36 319.98 319.66 319.99
  Q 256.97 320.00 194.28 320.01
  Q 188.54 320.01 185.43 318.68
  C 177.29 315.21 173.27 304.50 177.66 296.54
  Q 178.91 294.28 183.81 289.36
  Q 232.17 240.83 280.58 192.61
  Z"
/>
<path fill="#eb8cb3" d="
  M 682.13 217.43
  C 694.69 240.93 685.99 268.84 663.11 281.74
  A 0.49 0.49 0.0 0 1 662.39 281.42
  Q 652.34 235.91 632.98 193.55
  A 0.51 0.50 -17.2 0 1 633.36 192.84
  C 653.64 189.48 672.89 200.14 682.13 217.43
  Z"
/>
<path fill="#eb8cb3" d="
  M 816.26 323.73
  C 790.82 301.41 796.40 261.26 826.18 245.77
  Q 826.58 245.56 826.84 245.93
  Q 853.60 284.97 871.43 328.84
  Q 871.65 329.39 871.13 329.68
  C 852.86 339.95 831.67 337.24 816.26 323.73
  Z"
/>
<path fill="#000000" d="
  M 456.58 384.61
  A 0.35 0.35 0.0 0 0 456.33 384.01
  Q 428.91 383.97 401.42 384.02
  C 378.14 384.07 378.26 352.03 400.88 352.01
  Q 447.94 351.98 494.98 352.01
  Q 499.85 352.02 502.68 353.28
  C 510.13 356.62 514.12 366.07 511.23 373.41
  Q 509.79 377.06 503.12 383.74
  Q 471.25 415.66 439.44 447.41
  A 0.35 0.35 0.0 0 0 439.69 448.00
  Q 467.06 448.00 494.53 448.00
  C 517.97 448.01 517.43 479.96 495.53 479.98
  Q 448.20 480.03 400.87 479.98
  C 389.37 479.97 380.51 469.39 384.75 458.66
  Q 386.23 454.93 393.18 447.96
  Q 424.87 416.16 456.58 384.61
  Z"
/>
<rect fill="#6f1d48" x="640.00" y="432.00" width="288.00" height="32.00" rx="0.68"/>
<path fill="#f9bb4b" d="
  M 586.19 800.79
  C 537.71 817.37 469.52 824.38 436.88 773.50
  Q 436.58 773.03 437.10 772.83
  Q 461.47 763.64 484.36 751.67
  C 497.17 744.97 498.24 736.47 491.96 724.05
  Q 474.95 690.35 458.18 656.53
  Q 457.93 656.02 458.50 656.02
  Q 525.18 655.95 591.73 656.02
  Q 599.09 656.02 604.23 649.75
  Q 659.86 581.88 684.20 496.63
  Q 684.37 496.00 685.02 496.00
  L 879.25 496.00
  A 0.41 0.41 0.0 0 1 879.66 496.43
  C 868.55 757.36 642.10 953.06 381.94 925.18
  C 255.72 911.66 141.25 841.03 70.60 736.70
  A 0.11 0.11 0.0 0 1 70.75 736.54
  C 170.84 801.44 290.90 815.58 405.07 783.28
  A 0.47 0.45 67.5 0 1 405.60 783.51
  C 427.99 823.52 470.61 846.59 516.25 845.73
  Q 557.68 844.95 596.71 831.35
  A 0.51 0.51 0.0 0 0 597.03 830.71
  L 587.23 801.31
  A 0.82 0.82 0.0 0 0 586.19 800.79
  Z
  M 703.86 608.15
  A 0.17 0.17 0.0 0 0 703.69 608.00
  L 672.51 608.00
  Q 672.01 608.00 672.02 608.50
  C 672.08 643.22 694.72 673.36 727.34 684.13
  C 778.07 700.88 831.82 662.82 831.96 608.47
  Q 831.96 608.00 831.49 608.00
  L 800.50 608.00
  A 0.65 0.65 0.0 0 0 799.85 608.62
  C 798.33 642.93 764.48 666.07 732.36 651.40
  Q 706.54 639.61 703.86 608.15
  Z"
/>
<path fill="#000000" d="
  M 248.56 560.59
  A 0.34 0.34 0.0 0 0 248.32 560.01
  Q 228.88 559.96 209.36 560.03
  C 186.21 560.10 186.23 528.02 208.87 528.01
  Q 248.11 527.99 287.33 528.01
  C 298.16 528.01 304.55 535.55 304.01 546.49
  C 303.83 550.23 300.61 554.24 297.56 557.29
  Q 272.47 582.45 247.43 607.40
  A 0.35 0.35 0.0 0 0 247.68 608.00
  Q 267.37 607.99 287.15 608.01
  C 309.70 608.04 309.32 639.97 287.77 639.98
  Q 249.03 640.01 210.28 640.01
  Q 204.54 640.01 201.43 638.68
  C 191.29 634.37 188.64 621.04 196.64 612.88
  Q 222.50 586.49 248.56 560.59
  Z"
/>
<path fill="#000000" d="
  M 703.86 608.15
  Q 706.54 639.61 732.36 651.40
  C 764.48 666.07 798.33 642.93 799.85 608.62
  A 0.65 0.65 0.0 0 1 800.50 608.00
  L 831.49 608.00
  Q 831.96 608.00 831.96 608.47
  C 831.82 662.82 778.07 700.88 727.34 684.13
  C 694.72 673.36 672.08 643.22 672.02 608.50
  Q 672.01 608.00 672.51 608.00
  L 703.69 608.00
  A 0.17 0.17 0.0 0 1 703.86 608.15
  Z"
/>
</svg>
