<svg xmlns="http://www.w3.org/2000/svg" fill-rule="evenodd" stroke-linejoin="round" stroke-miterlimit="1.41" clip-rule="evenodd" viewBox="0 0 147 146"><path fill="#bacad9" d="M20.32 121.53S.46 71.1.02 56.4c-.44-14.7 7.34-16.47 10.46-15.7 10.49 2.63 17.77 37.82 17.77 37.82l-7.93 43z"/><path fill="#e1ebf3" d="M7.16 51.68c2.43-.93 7.13 5.42 10.5 14.18s4.13 16.63 1.7 17.56c-2.42.93-7.13-5.42-10.5-14.18-3.36-8.76-4.12-16.63-1.7-17.56z"/><path fill="#112733" fill-rule="nonzero" d="M9.21 40.56c3.97.07 6.83 4.24 8.87 7.87 5.15 9.18 7.91 19.57 10.15 30l-7.9 43.1C13.2 103.37 6.11 84.95 1.62 66.15c-2.39-10-2.96-22.79 5.5-25.29.68-.2 1.38-.3 2.08-.3zm-.12 3.65c-.5.01-1 .12-1.44.33-4.78 2.13-4.33 8.98-4.06 12.67 1 13.97 6.28 24.47 11.8 36.5 2.06 4.5 3.17 9.38 4.81 14.05l.12.34 1.09-8.64 3.09-18.93.32-1.87-.3-1.27c-2.57-10.22-5.19-20.85-11-29.39-1.22-1.8-2.83-3.8-4.44-3.78z"/><path fill="#e1ebf3" d="M13.62 145.33c5.46-30.05 1.88-66.74 23.54-90.12 19.45-20.98 64.89-15.79 72.95 15.5 2.2 8.57 7.5 26.35-2.4 74.62"/><clipPath id="a"><path d="M13.62 145.33c5.46-30.05 1.88-66.74 23.54-90.12 19.45-20.98 64.89-15.79 72.95 15.5 2.2 8.57 7.5 26.35-2.4 74.62"/></clipPath><g clip-path="url(#a)"><path fill="#bacad9" d="M65.03 42.74s25.88 5.47 29.17 27.98c3.3 22.5-8.55 77.27-8.55 77.27h25.45l7.56-71.12s-2.9-33.92-53.62-34.13z"/></g><path fill="#112733" fill-rule="nonzero" d="M69.5 40.77c18.7.23 37.45 10.98 42.25 29.32 6.23 24.3 2.5 50.28-2.86 75.48l-4.13-.03c4.74-24.22 10.14-49.77 4.07-72.83l-.5-1.9C100.97 44.17 58.9 35.9 39.22 55.6c-14.37 14.36-18.08 36.82-20.27 56.58-1.2 10.9-3.2 32.92-3.2 32.92h-3.31c4.8-27.84 1.63-57.9 16.83-82.38A46.98 46.98 0 0 1 69.5 40.77z"/><path fill="#e1ebf3" d="M100.76 110.39c-.99 4.58.08 15.13 13.09 8.01 16.06-8.78 31.11-50.36 32.15-55.63 1.8-9.15-10.37-11.67-17.37-5.06-4.66 4.4-23.5 32.55-27.87 52.68z"/><clipPath id="b"><path d="M100.76 110.39c-.99 4.58.08 15.13 13.09 8.01 16.06-8.78 31.11-50.36 32.15-55.63 1.8-9.15-10.37-11.67-17.37-5.06-4.66 4.4-23.5 32.55-27.87 52.68z"/></clipPath><g clip-path="url(#b)"><path fill="#bacad9" d="M113.85 83.75c-1.32 5.07-2.61 10.14-2.46 14.69 0 0-.29 9.99 7 0s18.72-32.04 10.85-39.83c-7.88-7.79 17.95-13.2 17.2-1.15-.77 12.06-14.6 42.98-14.9 43.13-.3.16-17.24 32.6-30.32 17.63-5.27-6.04 6.96-27.58 12.63-34.47z"/></g><path fill="#112733" fill-rule="nonzero" d="M138.06 54c4.84.1 9.36 3.98 7.59 10.16-5.15 17.94-13.57 36.1-24.76 48.4-3.78 4.14-8.61 8.21-14.44 8.24-4.67.02-6.6-6.35-5.58-10.89a58.33 58.33 0 0 1 1.48-5.37 135.24 135.24 0 0 1 24.94-45.38A14.1 14.1 0 0 1 138.06 54zm-.46 3.64c-6.67.2-10.85 7.77-15.03 14-7.83 11.66-15.15 23.66-19.04 37.67-1.15 4.16-1.31 9.97 4.36 8.57 12.48-3.09 19.88-20.1 25.08-31.24 3.55-7.6 6.92-15.52 9.18-23.48.72-2.55-.57-5.38-4.08-5.51h-.47z"/><path fill="url(#_Linear3)" d="M61.66 79.15c11.88 1.47 19.7 12.07 17.48 23.67-2.23 11.59-13.69 19.8-25.56 18.34-11.88-1.47-19.7-12.07-17.47-23.66 2.23-11.6 13.68-19.82 25.55-18.35z"/><clipPath id="c"><path d="M61.66 79.15c11.88 1.47 19.7 12.07 17.48 23.67-2.23 11.59-13.69 19.8-25.56 18.34-11.88-1.47-19.7-12.07-17.47-23.66 2.23-11.6 13.68-19.82 25.55-18.35z"/></clipPath><g clip-path="url(#c)"><path fill="#a10c38" d="M74.26 99.07c5.38 1.16 8.96 5.76 7.99 10.27-.97 4.51-6.13 7.24-11.5 6.08-5.39-1.15-8.97-5.76-8-10.27.97-4.51 6.13-7.24 11.5-6.08z"/><path fill="#0d1a2b" fill-rule="nonzero" d="M71.47 98.02c6.45.1 14.92 6.4 9.6 13.78-.24.32-.5.63-.78.92-5.55 5.65-18.4 2.54-18.53-6.45a7.44 7.44 0 0 1 .6-3.02c1.48-3.43 5.12-5.25 9.11-5.23zm.69 2.66c-3.81.05-8.4 2.73-6.37 7 2.5 5.26 13.32 6.2 13.38-.6.02-3.03-2.85-5.4-5.58-6.27 0 0-.75-.13-1.43-.13z"/></g><path fill="#112733" fill-rule="nonzero" d="M59.23 79c11.59.12 22.13 10.72 20.56 22.65-1.43 10.8-11.91 19.65-23.05 19.71-11.56.06-22.29-10.45-20.87-22.38 1.29-10.75 11.43-19.74 22.8-19.97h.56zm.49 2.5c-12.17.07-24.05 12.02-19.57 24.96 3.79 10.92 20.37 15.27 30.54 5.68.74-.7 1.44-1.46 2.07-2.27 4.83-6.12 5.26-15.4.55-21.55a18.4 18.4 0 0 0-11.59-6.73s-1.13-.1-2-.1z"/><path fill="#0d1a2b" d="M80.47 65.66c2.23.34 3.67 3.05 3.2 6.05-.46 3-2.64 5.15-4.87 4.8-2.24-.34-3.67-3.05-3.2-6.05.46-3 2.64-5.15 4.88-4.8zM44.3 60.77c2.23.34 3.66 3.06 3.2 6.05-.46 3-2.65 5.16-4.88 4.81-2.23-.34-3.67-3.06-3.2-6.05.46-3 2.65-5.16 4.88-4.81z"/><path fill="#112733" d="M119.06 5.67c.99 5.2-2.24 6.6-5.6 4.01-.85-.65-1.46-1.7-1.99-2.54-.68-1.07-2.8-.37-3.58.55-4.94 5.88-5.81 19.8 1.31 19.28a12.75 12.75 0 0 0 6.25-2.47c2.84-2.27 5.51.45 4.47 3.65-1.02 3.1-8.66 5.92-13.23 5.02-9.87-1.94-9.8-11.85-9.21-17.27C98.14 9.84 103.1.8 110.29.55c5.21-.18 8.22 3.3 8.77 5.12zM2.53 1.65c.8-1.84 3.73-2.1 3.91 0 .17 1.97.6 10.18.74 12.5.04.75 1.32.8 1.8.78 1.67-.08 5.84-.01 7.26-.25.77-.12.62-.73.64-1.82.03-2.52.4-10.06 3.02-12.19.67-.54 2.55-.78 2.78.63.76 4.71 2.24 23.53 1.36 28.36-.87 4.81-5 4.4-5.62 1.2-.3-1.5-.76-6.51-1.12-8.13-.18-.79-.26-1.5-1.06-1.6a37.58 37.58 0 0 0-7 0c-1.12.2-1.42.49-1.53 1.08-.28 1.42-.24 7.23-.53 8.94-.4 2.34-4.04 2.85-4.9 1.22-2.2-4.11-2.41-24.6.25-30.72zm51.5.23c.4-1.62 3.36-1.69 3.9-.53.97 2.12 1.44 10.82 1.95 13.22.13.65.34 1.6.85 1.69.5.08 1.63.11 2.15 0 .88-.2.8-.32 1.03-1.05.72-2.2 1.14-10.16 2.89-12.15.74-.85 3.8-1.45 3.82 1.3.07 18.79 1.23 22.03.52 26.8-.26 1.75-4.1 3.11-5.04 1.18-.71-1.48-1.07-6.84-1.54-8.55-.25-.89-.58-1.4-1.5-1.5-.96-.12-2.85.57-4.19.73-1.4.16-3.74.22-4.84-.73-1.1-.96-1.36-3.37-1.41-5.3-.1-3.42.77-12.52 1.4-15.11zm-26.6 1.6c.61-4.65 6.04-4.63 7.19 0 .51 2.1.07 8.67 0 10.52-.03.63.5.87.6.53.84-2.78 5.42-12.08 7.86-13.78 1.98-1.38 5.21-.08 5.73 2.73.9 4.95 1.79 23.2.96 27.65-.4 2.07-5.29 2.38-6.2.49-1.17-2.4-.73-13.63-1.04-16.13-.06-.45-.82-.71-.97-.28-1.18 3.54-6.23 14.24-8.37 16.9-.86 1.07-3.6 1.55-4.3-.5-1.56-4.58-2.06-23.45-1.45-28.13zm96.24 0c.6-4.65 6.04-4.63 7.18 0 .52 2.1.07 8.67 0 10.52-.02.63.5.87.6.53.84-2.78 5.42-12.08 7.87-13.78 1.98-1.38 5.2-.08 5.72 2.73.9 4.95 1.8 23.2.96 27.65-.39 2.07-5.28 2.38-6.2.49-1.17-2.4-.72-13.63-1.04-16.13-.06-.45-.82-.71-.96-.28-1.18 3.54-6.24 14.24-8.37 16.9-.87 1.07-3.61 1.55-4.3-.5-1.57-4.58-2.06-23.45-1.46-28.13zM85.81.42c6.33 0 11.06 4.39 9.89 15.67-.92 8.85-2.78 16.74-11.1 16.83-6.32.07-11.2-6.42-11.2-15.32S79.48.41 85.8.41zm-2.38 7.07c1.55-1.18 3.94-1.67 4.75.53 1.9 5.12 1.44 14.35-2.37 17.92-1.16.52-1.93.38-2.38 0-4.57-1.67-5.19-14.48 0-18.45z"/><defs><linearGradient id="_Linear3" x2="1" gradientTransform="rotate(-157.56 51.44 46.17) scale(39.653)" gradientUnits="userSpaceOnUse"><stop offset="0" stop-color="#5a123a"/><stop offset="1" stop-color="#24140e"/></linearGradient></defs></svg>