<?xml version="1.0" encoding="UTF-8" standalone="no"?>
<!DOCTYPE svg PUBLIC "-//W3C//DTD SVG 1.1//EN" "http://www.w3.org/Graphics/SVG/1.1/DTD/svg11.dtd">
<svg xmlns="http://www.w3.org/2000/svg" version="1.1" viewBox="0.00 0.00 512.00 512.00">
<g stroke-width="2.00" fill="none" stroke-linecap="butt">
<path stroke="#bc7744" vector-effect="non-scaling-stroke" d="
  M 202.71 33.11
  Q 200.38 37.21 199.86 41.78
  A 1.34 1.34 0.0 0 0 200.13 42.77
  Q 203.72 47.50 206.04 52.99
  A 1.77 1.77 0.0 0 0 206.75 53.82
  L 219.11 61.30"
/>
<path stroke="#c68d5f" vector-effect="non-scaling-stroke" d="
  M 219.11 61.30
  Q 226.52 66.89 235.20 73.51
  C 242.85 79.35 247.02 89.15 242.55 97.94
  C 236.46 109.89 222.46 109.59 211.63 105.89"
/>
<path stroke="#bc7744" vector-effect="non-scaling-stroke" d="
  M 211.63 105.89
  L 205.05 102.54
  A 0.51 0.50 -67.3 0 0 204.35 102.83
  Q 195.77 127.15 182.67 149.16
  C 168.84 172.41 148.53 203.76 128.40 236.63
  Q 122.99 245.46 117.28 254.10
  C 115.87 256.23 113.57 258.50 111.40 259.14
  Q 89.23 265.62 65.93 265.12"
/>
<path stroke="#c68d5f" vector-effect="non-scaling-stroke" d="
  M 65.93 265.12
  Q 58.97 264.41 54.02 260.88
  Q 52.55 259.83 51.73 261.44
  Q 37.71 288.79 30.50 317.50
  Q 26.70 332.64 25.56 347.11"
/>
<path stroke="#bc7744" vector-effect="non-scaling-stroke" d="
  M 25.56 347.11
  Q 20.33 394.82 39.11 439.09
  Q 39.67 440.42 41.05 440.00
  C 48.22 437.83 54.90 436.88 63.06 436.43
  Q 79.53 435.52 96.00 434.77
  Q 113.80 433.96 127.39 437.23
  C 130.46 437.97 131.81 436.19 134.93 438.32
  Q 137.48 440.08 141.23 442.37"
/>
<path stroke="#c68d5f" vector-effect="non-scaling-stroke" d="
  M 141.23 442.37
  Q 146.69 447.21 157.54 454.17
  Q 194.72 477.99 235.14 491.51
  C 270.36 503.29 323.93 516.04 350.59 481.13"
/>
<path stroke="#bc7744" vector-effect="non-scaling-stroke" d="
  M 350.59 481.13
  L 355.54 473.79
  A 0.48 0.48 0.0 0 0 354.97 473.07
  Q 343.16 477.61 330.15 475.74"
/>
<path stroke="#c68d5f" vector-effect="non-scaling-stroke" d="
  M 330.15 475.74
  Q 327.31 474.53 326.53 472.44
  C 325.19 468.79 329.67 467.01 332.31 465.76"
/>
<path stroke="#c69f84" vector-effect="non-scaling-stroke" d="
  M 332.31 465.76
  Q 338.74 464.20 345.42 462.85
  C 366.62 458.58 387.69 444.81 390.13 421.63"
/>
<path stroke="#bc7744" vector-effect="non-scaling-stroke" d="
  M 390.13 421.63
  L 389.87 405.50
  A 0.67 0.67 0.0 0 0 388.92 404.91
  Q 378.92 409.56 368.02 407.26"
/>
<path stroke="#c68d5f" vector-effect="non-scaling-stroke" d="
  M 368.02 407.26
  C 356.37 400.92 367.34 396.76 373.35 395.94"
/>
<path stroke="#c69f84" vector-effect="non-scaling-stroke" d="
  M 373.35 395.94
  Q 387.44 395.64 398.52 386.77
  C 413.38 374.87 419.32 357.48 411.73 339.25"
/>
<path stroke="#c68d5f" vector-effect="non-scaling-stroke" d="
  M 411.73 339.25
  L 410.96 337.16"
/>
<path stroke="#bc7744" vector-effect="non-scaling-stroke" d="
  M 410.96 337.16
  Q 408.38 330.12 403.78 323.00
  A 0.81 0.79 -31.4 0 0 402.70 322.75
  C 391.64 329.26 379.60 332.08 367.35 327.35"
/>
<path stroke="#c68d5f" vector-effect="non-scaling-stroke" d="
  M 367.35 327.35
  Q 365.40 326.29 364.03 324.81
  C 360.89 321.44 363.54 317.79 367.75 317.70
  Q 377.07 317.51 386.35 316.11"
/>
<path stroke="#c69f84" vector-effect="non-scaling-stroke" d="
  M 386.35 316.11
  Q 398.24 314.52 406.27 306.72
  Q 424.50 289.01 416.71 263.52
  C 410.35 242.69 397.27 229.53 377.12 222.64
  Q 353.24 214.47 327.78 219.18"
/>
<path stroke="#c68d5f" vector-effect="non-scaling-stroke" d="
  M 327.78 219.18
  L 315.67 222.48"
/>
<path stroke="#bc7744" vector-effect="non-scaling-stroke" d="
  M 315.67 222.48
  L 297.66 228.30
  A 0.87 0.86 -48.1 0 0 297.75 229.97
  Q 318.33 234.21 339.96 231.23"
/>
<path stroke="#c68d5f" vector-effect="non-scaling-stroke" d="
  M 339.96 231.23
  C 342.77 231.65 348.20 232.17 350.47 234.16
  A 1.02 1.01 24.3 0 1 350.82 235.06
  C 350.24 239.97 338.37 243.73 334.22 244.39"
/>
<path stroke="#c69f84" vector-effect="non-scaling-stroke" d="
  M 334.22 244.39
  C 319.81 246.48 304.28 243.40 289.74 239.51
  Q 269.15 234.00 252.61 220.59
  Q 252.19 220.26 251.70 220.46
  C 250.29 221.04 249.16 222.21 247.79 222.42
  Q 244.74 222.89 243.17 220.28
  C 224.41 189.01 256.67 156.86 272.68 132.17
  Q 291.37 103.36 279.90 70.50
  Q 269.56 40.89 241.34 29.32
  C 228.70 24.14 212.23 19.63 202.71 33.11"
/>
<path stroke="#ffeedb" vector-effect="non-scaling-stroke" d="
  M 334.22 244.39
  Q 335.13 244.74 334.82 245.72
  Q 334.67 246.18 334.19 246.24
  Q 324.47 247.65 320.25 247.13
  Q 305.47 245.33 299.77 245.14
  Q 277.72 244.41 258.57 233.72
  Q 255.32 231.91 244.63 223.60
  C 235.71 216.67 233.44 199.37 234.69 188.91
  Q 235.21 184.53 237.51 179.08
  Q 240.11 172.89 242.77 166.73
  C 248.42 153.64 255.96 141.22 263.02 128.77
  Q 270.88 114.90 272.62 109.02
  Q 280.76 81.53 267.76 58.06
  C 257.05 38.70 242.08 32.51 221.51 27.75
  Q 210.85 25.29 205.31 33.60"
/>
<path stroke="#f5d7bf" vector-effect="non-scaling-stroke" d="
  M 205.31 33.60
  Q 204.66 34.30 203.46 34.52
  Q 202.88 34.63 202.82 34.05
  L 202.71 33.11"
/>
<path stroke="#f5c69b" vector-effect="non-scaling-stroke" d="
  M 339.96 231.23
  Q 330.02 222.03 317.22 223.43
  Q 315.51 223.62 315.67 222.48"
/>
<path stroke="#ffeedb" vector-effect="non-scaling-stroke" d="
  M 327.78 219.18
  Q 327.82 220.56 329.00 220.56
  C 361.07 220.60 399.03 231.21 408.88 266.22
  C 414.12 284.83 408.21 302.08 391.68 312.72
  Q 389.67 314.02 385.15 314.28
  A 0.68 0.68 0.0 0 0 384.55 314.75
  L 384.46 315.02
  Q 384.31 315.47 384.77 315.62
  L 386.35 316.11"
/>
<path stroke="#f5c69b" vector-effect="non-scaling-stroke" d="
  M 367.35 327.35
  Q 366.16 333.39 371.56 337.22
  Q 384.50 346.39 400.76 343.28
  C 403.58 342.74 408.73 341.54 410.04 339.08
  Q 410.48 338.25 410.96 337.16"
/>
<path stroke="#ffeedb" vector-effect="non-scaling-stroke" d="
  M 411.73 339.25
  Q 410.77 340.66 410.83 342.92
  Q 410.89 345.14 410.47 346.52
  C 408.31 353.63 407.41 362.00 404.92 368.01
  C 401.90 375.29 397.59 381.97 391.34 386.92
  Q 385.67 391.42 380.49 393.14
  Q 379.10 393.60 374.07 394.37
  A 0.83 0.83 0.0 0 0 373.39 394.98
  Q 373.27 395.46 373.35 395.94"
/>
<path stroke="#f5c69b" vector-effect="non-scaling-stroke" d="
  M 368.02 407.26
  C 367.36 417.46 381.23 421.47 388.99 420.96"
/>
<path stroke="#ffeedb" vector-effect="non-scaling-stroke" d="
  M 388.99 420.96
  C 388.41 422.70 388.05 424.37 386.76 425.84
  C 374.65 439.67 363.97 450.65 347.27 455.36
  C 342.35 456.75 337.32 457.65 334.50 461.34
  Q 333.26 462.97 331.81 464.36
  Q 331.39 464.76 331.78 465.19
  L 332.31 465.76"
/>
<path stroke="#f5c69b" vector-effect="non-scaling-stroke" d="
  M 330.15 475.74
  C 331.30 477.73 332.29 479.90 334.30 481.06
  Q 341.58 485.24 349.23 480.44
  Q 349.95 479.99 350.59 481.13"
/>
<path stroke="#f5c69b" vector-effect="non-scaling-stroke" d="
  M 141.23 442.37
  Q 134.05 422.11 121.29 407.45
  C 117.33 402.89 112.74 401.21 106.34 400.49
  Q 80.15 397.54 54.00 394.26
  Q 45.98 393.26 43.10 386.57
  Q 30.92 358.24 25.56 347.11"
/>
<path stroke="#f5c69b" vector-effect="non-scaling-stroke" d="
  M 65.93 265.12
  Q 67.56 265.69 70.75 267.40
  Q 81.41 273.09 94.25 274.01
  C 103.78 274.70 108.77 283.42 113.96 291.03
  Q 115.71 293.59 118.01 292.31
  C 121.97 290.09 123.34 286.42 124.16 281.67
  Q 126.39 268.80 130.07 256.26
  Q 130.69 254.14 131.81 252.26
  Q 157.75 208.50 183.74 164.76
  Q 200.80 136.06 210.87 112.20
  C 211.79 110.02 211.75 108.18 211.63 105.89"
/>
<path stroke="#f5c69b" vector-effect="non-scaling-stroke" d="
  M 219.11 61.30
  Q 219.51 48.78 212.03 38.44
  C 210.33 36.09 207.84 34.96 205.31 33.60"
/>
<path stroke="#f5d7bf" vector-effect="non-scaling-stroke" d="
  M 390.13 421.63
  Q 389.17 420.05 388.99 420.96"
/>
<path stroke="#bc7744" vector-effect="non-scaling-stroke" d="
  M 207.65 93.26
  C 213.22 96.65 219.41 100.11 226.10 98.70
  C 234.96 96.82 239.05 89.32 231.59 81.82
  Q 222.22 72.43 209.67 66.18
  Q 208.77 65.73 208.87 66.73
  Q 210.26 79.40 207.02 91.70
  A 1.40 1.40 0.0 0 0 207.65 93.26"
/>
</g>
<path fill="#8d3e08" d="
  M 322.13 512.00
  L 271.00 512.00
  Q 263.43 511.54 258.98 510.54
  C 211.35 499.81 166.54 477.64 127.78 448.15
  A 1.26 1.24 -29.8 0 0 126.88 447.91
  C 115.50 449.48 101.21 447.37 92.75 447.35
  Q 81.89 447.32 64.62 449.67
  C 57.61 450.62 49.11 452.60 41.26 453.73
  C 36.56 454.41 32.12 454.41 29.17 450.80
  Q 28.85 450.41 28.86 449.91
  C 28.89 447.88 29.04 446.34 28.22 444.40
  C 2.37 383.47 5.13 310.09 44.63 255.64
  Q 47.96 251.04 51.02 248.34
  A 0.79 0.79 0.0 0 1 52.04 248.32
  L 55.99 251.57
  A 0.97 0.97 0.0 0 0 56.75 251.79
  Q 62.10 251.11 67.37 251.70
  C 80.86 253.23 94.07 251.91 107.28 248.93
  Q 107.79 248.81 108.01 248.34
  C 113.29 237.18 119.32 227.59 126.02 217.31
  Q 130.86 209.89 134.94 203.20
  Q 151.27 176.43 178.82 131.77
  Q 187.99 116.91 194.76 99.95
  Q 195.44 98.25 196.13 94.47
  C 196.60 91.88 197.84 89.51 198.21 87.14
  Q 200.46 72.45 197.91 57.79
  Q 197.81 57.24 197.44 56.82
  L 194.29 53.32
  A 0.57 0.56 -37.7 0 1 194.40 52.48
  Q 196.16 51.29 196.61 49.28
  A 0.90 0.89 22.9 0 0 196.22 48.33
  C 194.93 47.48 194.00 46.94 193.60 45.33
  C 190.28 32.01 196.58 22.63 208.29 16.58
  C 236.86 1.79 267.99 26.19 283.02 49.33
  C 299.93 75.38 298.43 106.73 284.30 133.86
  C 278.32 145.36 267.61 158.07 259.20 169.71
  Q 249.13 183.65 248.15 201.20
  C 247.99 204.09 248.68 204.97 251.04 206.61
  Q 267.43 218.04 285.75 226.03
  A 2.30 2.29 37.3 0 0 288.11 225.72
  C 311.41 207.00 350.11 202.59 377.95 212.39
  C 399.04 219.81 417.99 235.95 425.34 257.29
  C 432.33 277.60 427.93 301.48 411.69 316.10
  A 0.17 0.17 0.0 0 0 411.67 316.34
  Q 420.17 325.56 423.40 335.68
  C 431.71 361.75 421.46 386.92 398.26 400.35
  A 0.65 0.65 0.0 0 0 398.00 401.20
  C 406.07 417.05 400.85 436.35 390.44 449.21
  Q 381.37 460.42 366.00 468.27
  Q 365.53 468.50 365.42 469.01
  C 364.85 471.57 364.51 474.37 363.79 476.61
  C 359.13 491.18 346.80 501.77 333.43 508.65
  Q 327.78 511.55 322.13 512.00
  Z
  M 202.71 33.11
  Q 200.38 37.21 199.86 41.78
  A 1.34 1.34 0.0 0 0 200.13 42.77
  Q 203.72 47.50 206.04 52.99
  A 1.77 1.77 0.0 0 0 206.75 53.82
  L 219.11 61.30
  Q 226.52 66.89 235.20 73.51
  C 242.85 79.35 247.02 89.15 242.55 97.94
  C 236.46 109.89 222.46 109.59 211.63 105.89
  L 205.05 102.54
  A 0.51 0.50 -67.3 0 0 204.35 102.83
  Q 195.77 127.15 182.67 149.16
  C 168.84 172.41 148.53 203.76 128.40 236.63
  Q 122.99 245.46 117.28 254.10
  C 115.87 256.23 113.57 258.50 111.40 259.14
  Q 89.23 265.62 65.93 265.12
  Q 58.97 264.41 54.02 260.88
  Q 52.55 259.83 51.73 261.44
  Q 37.71 288.79 30.50 317.50
  Q 26.70 332.64 25.56 347.11
  Q 20.33 394.82 39.11 439.09
  Q 39.67 440.42 41.05 440.00
  C 48.22 437.83 54.90 436.88 63.06 436.43
  Q 79.53 435.52 96.00 434.77
  Q 113.80 433.96 127.39 437.23
  C 130.46 437.97 131.81 436.19 134.93 438.32
  Q 137.48 440.08 141.23 442.37
  Q 146.69 447.21 157.54 454.17
  Q 194.72 477.99 235.14 491.51
  C 270.36 503.29 323.93 516.04 350.59 481.13
  L 355.54 473.79
  A 0.48 0.48 0.0 0 0 354.97 473.07
  Q 343.16 477.61 330.15 475.74
  Q 327.31 474.53 326.53 472.44
  C 325.19 468.79 329.67 467.01 332.31 465.76
  Q 338.74 464.20 345.42 462.85
  C 366.62 458.58 387.69 444.81 390.13 421.63
  L 389.87 405.50
  A 0.67 0.67 0.0 0 0 388.92 404.91
  Q 378.92 409.56 368.02 407.26
  C 356.37 400.92 367.34 396.76 373.35 395.94
  Q 387.44 395.64 398.52 386.77
  C 413.38 374.87 419.32 357.48 411.73 339.25
  L 410.96 337.16
  Q 408.38 330.12 403.78 323.00
  A 0.81 0.79 -31.4 0 0 402.70 322.75
  C 391.64 329.26 379.60 332.08 367.35 327.35
  Q 365.40 326.29 364.03 324.81
  C 360.89 321.44 363.54 317.79 367.75 317.70
  Q 377.07 317.51 386.35 316.11
  Q 398.24 314.52 406.27 306.72
  Q 424.50 289.01 416.71 263.52
  C 410.35 242.69 397.27 229.53 377.12 222.64
  Q 353.24 214.47 327.78 219.18
  L 315.67 222.48
  L 297.66 228.30
  A 0.87 0.86 -48.1 0 0 297.75 229.97
  Q 318.33 234.21 339.96 231.23
  C 342.77 231.65 348.20 232.17 350.47 234.16
  A 1.02 1.01 24.3 0 1 350.82 235.06
  C 350.24 239.97 338.37 243.73 334.22 244.39
  C 319.81 246.48 304.28 243.40 289.74 239.51
  Q 269.15 234.00 252.61 220.59
  Q 252.19 220.26 251.70 220.46
  C 250.29 221.04 249.16 222.21 247.79 222.42
  Q 244.74 222.89 243.17 220.28
  C 224.41 189.01 256.67 156.86 272.68 132.17
  Q 291.37 103.36 279.90 70.50
  Q 269.56 40.89 241.34 29.32
  C 228.70 24.14 212.23 19.63 202.71 33.11
  Z
  M 207.65 93.26
  C 213.22 96.65 219.41 100.11 226.10 98.70
  C 234.96 96.82 239.05 89.32 231.59 81.82
  Q 222.22 72.43 209.67 66.18
  Q 208.77 65.73 208.87 66.73
  Q 210.26 79.40 207.02 91.70
  A 1.40 1.40 0.0 0 0 207.65 93.26
  Z"
/>
<path fill="#ffffff" d="
  M 334.22 244.39
  Q 335.13 244.74 334.82 245.72
  Q 334.67 246.18 334.19 246.24
  Q 324.47 247.65 320.25 247.13
  Q 305.47 245.33 299.77 245.14
  Q 277.72 244.41 258.57 233.72
  Q 255.32 231.91 244.63 223.60
  C 235.71 216.67 233.44 199.37 234.69 188.91
  Q 235.21 184.53 237.51 179.08
  Q 240.11 172.89 242.77 166.73
  C 248.42 153.64 255.96 141.22 263.02 128.77
  Q 270.88 114.90 272.62 109.02
  Q 280.76 81.53 267.76 58.06
  C 257.05 38.70 242.08 32.51 221.51 27.75
  Q 210.85 25.29 205.31 33.60
  Q 204.66 34.30 203.46 34.52
  Q 202.88 34.63 202.82 34.05
  L 202.71 33.11
  C 212.23 19.63 228.70 24.14 241.34 29.32
  Q 269.56 40.89 279.90 70.50
  Q 291.37 103.36 272.68 132.17
  C 256.67 156.86 224.41 189.01 243.17 220.28
  Q 244.74 222.89 247.79 222.42
  C 249.16 222.21 250.29 221.04 251.70 220.46
  Q 252.19 220.26 252.61 220.59
  Q 269.15 234.00 289.74 239.51
  C 304.28 243.40 319.81 246.48 334.22 244.39
  Z"
/>
<path fill="#ffdcb6" d="
  M 334.22 244.39
  C 338.37 243.73 350.24 239.97 350.82 235.06
  A 1.02 1.01 24.3 0 0 350.47 234.16
  C 348.20 232.17 342.77 231.65 339.96 231.23
  Q 330.02 222.03 317.22 223.43
  Q 315.51 223.62 315.67 222.48
  L 327.78 219.18
  Q 327.82 220.56 329.00 220.56
  C 361.07 220.60 399.03 231.21 408.88 266.22
  C 414.12 284.83 408.21 302.08 391.68 312.72
  Q 389.67 314.02 385.15 314.28
  A 0.68 0.68 0.0 0 0 384.55 314.75
  L 384.46 315.02
  Q 384.31 315.47 384.77 315.62
  L 386.35 316.11
  Q 377.07 317.51 367.75 317.70
  C 363.54 317.79 360.89 321.44 364.03 324.81
  Q 365.40 326.29 367.35 327.35
  Q 366.16 333.39 371.56 337.22
  Q 384.50 346.39 400.76 343.28
  C 403.58 342.74 408.73 341.54 410.04 339.08
  Q 410.48 338.25 410.96 337.16
  L 411.73 339.25
  Q 410.77 340.66 410.83 342.92
  Q 410.89 345.14 410.47 346.52
  C 408.31 353.63 407.41 362.00 404.92 368.01
  C 401.90 375.29 397.59 381.97 391.34 386.92
  Q 385.67 391.42 380.49 393.14
  Q 379.10 393.60 374.07 394.37
  A 0.83 0.83 0.0 0 0 373.39 394.98
  Q 373.27 395.46 373.35 395.94
  C 367.34 396.76 356.37 400.92 368.02 407.26
  C 367.36 417.46 381.23 421.47 388.99 420.96
  C 388.41 422.70 388.05 424.37 386.76 425.84
  C 374.65 439.67 363.97 450.65 347.27 455.36
  C 342.35 456.75 337.32 457.65 334.50 461.34
  Q 333.26 462.97 331.81 464.36
  Q 331.39 464.76 331.78 465.19
  L 332.31 465.76
  C 329.67 467.01 325.19 468.79 326.53 472.44
  Q 327.31 474.53 330.15 475.74
  C 331.30 477.73 332.29 479.90 334.30 481.06
  Q 341.58 485.24 349.23 480.44
  Q 349.95 479.99 350.59 481.13
  C 323.93 516.04 270.36 503.29 235.14 491.51
  Q 194.72 477.99 157.54 454.17
  Q 146.69 447.21 141.23 442.37
  Q 134.05 422.11 121.29 407.45
  C 117.33 402.89 112.74 401.21 106.34 400.49
  Q 80.15 397.54 54.00 394.26
  Q 45.98 393.26 43.10 386.57
  Q 30.92 358.24 25.56 347.11
  Q 26.70 332.64 30.50 317.50
  Q 37.71 288.79 51.73 261.44
  Q 52.55 259.83 54.02 260.88
  Q 58.97 264.41 65.93 265.12
  Q 67.56 265.69 70.75 267.40
  Q 81.41 273.09 94.25 274.01
  C 103.78 274.70 108.77 283.42 113.96 291.03
  Q 115.71 293.59 118.01 292.31
  C 121.97 290.09 123.34 286.42 124.16 281.67
  Q 126.39 268.80 130.07 256.26
  Q 130.69 254.14 131.81 252.26
  Q 157.75 208.50 183.74 164.76
  Q 200.80 136.06 210.87 112.20
  C 211.79 110.02 211.75 108.18 211.63 105.89
  C 222.46 109.59 236.46 109.89 242.55 97.94
  C 247.02 89.15 242.85 79.35 235.20 73.51
  Q 226.52 66.89 219.11 61.30
  Q 219.51 48.78 212.03 38.44
  C 210.33 36.09 207.84 34.96 205.31 33.60
  Q 210.85 25.29 221.51 27.75
  C 242.08 32.51 257.05 38.70 267.76 58.06
  Q 280.76 81.53 272.62 109.02
  Q 270.88 114.90 263.02 128.77
  C 255.96 141.22 248.42 153.64 242.77 166.73
  Q 240.11 172.89 237.51 179.08
  Q 235.21 184.53 234.69 188.91
  C 233.44 199.37 235.71 216.67 244.63 223.60
  Q 255.32 231.91 258.57 233.72
  Q 277.72 244.41 299.77 245.14
  Q 305.47 245.33 320.25 247.13
  Q 324.47 247.65 334.19 246.24
  Q 334.67 246.18 334.82 245.72
  Q 335.13 244.74 334.22 244.39
  Z"
/>
<path fill="#eaaf7f" d="
  M 202.71 33.11
  L 202.82 34.05
  Q 202.88 34.63 203.46 34.52
  Q 204.66 34.30 205.31 33.60
  C 207.84 34.96 210.33 36.09 212.03 38.44
  Q 219.51 48.78 219.11 61.30
  L 206.75 53.82
  A 1.77 1.77 0.0 0 1 206.04 52.99
  Q 203.72 47.50 200.13 42.77
  A 1.34 1.34 0.0 0 1 199.86 41.78
  Q 200.38 37.21 202.71 33.11
  Z"
/>
<path fill="#eaaf7f" d="
  M 226.10 98.70
  C 219.41 100.11 213.22 96.65 207.65 93.26
  A 1.40 1.40 0.0 0 1 207.02 91.70
  Q 210.26 79.40 208.87 66.73
  Q 208.77 65.73 209.67 66.18
  Q 222.22 72.43 231.59 81.82
  C 239.05 89.32 234.96 96.82 226.10 98.70
  Z"
/>
<path fill="#eaaf7f" d="
  M 211.63 105.89
  C 211.75 108.18 211.79 110.02 210.87 112.20
  Q 200.80 136.06 183.74 164.76
  Q 157.75 208.50 131.81 252.26
  Q 130.69 254.14 130.07 256.26
  Q 126.39 268.80 124.16 281.67
  C 123.34 286.42 121.97 290.09 118.01 292.31
  Q 115.71 293.59 113.96 291.03
  C 108.77 283.42 103.78 274.70 94.25 274.01
  Q 81.41 273.09 70.75 267.40
  Q 67.56 265.69 65.93 265.12
  Q 89.23 265.62 111.40 259.14
  C 113.57 258.50 115.87 256.23 117.28 254.10
  Q 122.99 245.46 128.40 236.63
  C 148.53 203.76 168.84 172.41 182.67 149.16
  Q 195.77 127.15 204.35 102.83
  A 0.51 0.50 -67.3 0 1 205.05 102.54
  L 211.63 105.89
  Z"
/>
<path fill="#ffffff" d="
  M 386.35 316.11
  L 384.77 315.62
  Q 384.31 315.47 384.46 315.02
  L 384.55 314.75
  A 0.68 0.68 0.0 0 1 385.15 314.28
  Q 389.67 314.02 391.68 312.72
  C 408.21 302.08 414.12 284.83 408.88 266.22
  C 399.03 231.21 361.07 220.60 329.00 220.56
  Q 327.82 220.56 327.78 219.18
  Q 353.24 214.47 377.12 222.64
  C 397.27 229.53 410.35 242.69 416.71 263.52
  Q 424.50 289.01 406.27 306.72
  Q 398.24 314.52 386.35 316.11
  Z"
/>
<path fill="#eaaf7f" d="
  M 315.67 222.48
  Q 315.51 223.62 317.22 223.43
  Q 330.02 222.03 339.96 231.23
  Q 318.33 234.21 297.75 229.97
  A 0.87 0.86 -48.1 0 1 297.66 228.30
  L 315.67 222.48
  Z"
/>
<path fill="#eaaf7f" d="
  M 410.96 337.16
  Q 410.48 338.25 410.04 339.08
  C 408.73 341.54 403.58 342.74 400.76 343.28
  Q 384.50 346.39 371.56 337.22
  Q 366.16 333.39 367.35 327.35
  C 379.60 332.08 391.64 329.26 402.70 322.75
  A 0.81 0.79 -31.4 0 1 403.78 323.00
  Q 408.38 330.12 410.96 337.16
  Z"
/>
<path fill="#ffffff" d="
  M 411.73 339.25
  C 419.32 357.48 413.38 374.87 398.52 386.77
  Q 387.44 395.64 373.35 395.94
  Q 373.27 395.46 373.39 394.98
  A 0.83 0.83 0.0 0 1 374.07 394.37
  Q 379.10 393.60 380.49 393.14
  Q 385.67 391.42 391.34 386.92
  C 397.59 381.97 401.90 375.29 404.92 368.01
  C 407.41 362.00 408.31 353.63 410.47 346.52
  Q 410.89 345.14 410.83 342.92
  Q 410.77 340.66 411.73 339.25
  Z"
/>
<path fill="#eaaf7f" d="
  M 25.56 347.11
  Q 30.92 358.24 43.10 386.57
  Q 45.98 393.26 54.00 394.26
  Q 80.15 397.54 106.34 400.49
  C 112.74 401.21 117.33 402.89 121.29 407.45
  Q 134.05 422.11 141.23 442.37
  Q 137.48 440.08 134.93 438.32
  C 131.81 436.19 130.46 437.97 127.39 437.23
  Q 113.80 433.96 96.00 434.77
  Q 79.53 435.52 63.06 436.43
  C 54.90 436.88 48.22 437.83 41.05 440.00
  Q 39.67 440.42 39.11 439.09
  Q 20.33 394.82 25.56 347.11
  Z"
/>
<path fill="#eaaf7f" d="
  M 390.13 421.63
  Q 389.17 420.05 388.99 420.96
  C 381.23 421.47 367.36 417.46 368.02 407.26
  Q 378.92 409.56 388.92 404.91
  A 0.67 0.67 0.0 0 1 389.87 405.50
  L 390.13 421.63
  Z"
/>
<path fill="#ffffff" d="
  M 388.99 420.96
  Q 389.17 420.05 390.13 421.63
  C 387.69 444.81 366.62 458.58 345.42 462.85
  Q 338.74 464.20 332.31 465.76
  L 331.78 465.19
  Q 331.39 464.76 331.81 464.36
  Q 333.26 462.97 334.50 461.34
  C 337.32 457.65 342.35 456.75 347.27 455.36
  C 363.97 450.65 374.65 439.67 386.76 425.84
  C 388.05 424.37 388.41 422.70 388.99 420.96
  Z"
/>
<path fill="#eaaf7f" d="
  M 350.59 481.13
  Q 349.95 479.99 349.23 480.44
  Q 341.58 485.24 334.30 481.06
  C 332.29 479.90 331.30 477.73 330.15 475.74
  Q 343.16 477.61 354.97 473.07
  A 0.48 0.48 0.0 0 1 355.54 473.79
  L 350.59 481.13
  Z"
/>
</svg>
