<svg width="1554" height="1554" viewBox="0 0 1554 1554" fill="none" xmlns="http://www.w3.org/2000/svg">
<g clip-path="url(#clip0_125_2)">
<path d="M773.115 1522.19C1188.44 1522.19 1525.12 1185.5 1525.12 770.175C1525.12 354.851 1188.44 18.165 773.115 18.165C357.791 18.165 21.105 354.851 21.105 770.175C21.105 1185.5 357.791 1522.19 773.115 1522.19Z" fill="url(#paint0_linear_125_2)"/>
<path d="M767.655 1396.08C1101.39 1396.08 1371.93 1125.54 1371.93 791.805C1371.93 458.073 1101.39 187.53 767.655 187.53C433.923 187.53 163.38 458.073 163.38 791.805C163.38 1125.54 433.923 1396.08 767.655 1396.08Z" fill="url(#paint1_linear_125_2)"/>
<path d="M7.2343e-10 769.124C1.365 486.674 170.205 211.889 421.155 83.3691C638.085 -27.8259 907.935 -27.7209 1124.66 83.3691C1416.14 232.679 1594.64 580.229 1532.9 913.184C1478.93 1204.87 1243.09 1454.56 952.035 1523.76C695.205 1584.66 408.975 1502.76 223.23 1314.81C80.1638 1169.21 -0.000278093 973.249 7.2343e-10 769.124ZM18.06 774.059C22.68 1051.78 192.78 1319.01 441.945 1439.23C646.59 1538.14 897.645 1536.15 1100.61 1432.62C1426.11 1266.51 1594.11 848.819 1449.31 490.874C1406.11 386.448 1339.84 293.148 1255.47 217.96C1171.09 142.771 1070.81 87.642 962.115 56.6991C631.05 -34.6509 244.44 132.299 89.985 458.429C44.542 555.006 20.031 660.099 18.06 766.814V774.164V774.059Z" fill="#491812"/>
<path d="M777.42 122.43C865.821 123.292 953.144 141.949 1034.18 177.289C1115.21 212.629 1188.3 263.928 1249.08 328.125C1437.03 529.62 1476.61 855.75 1336.23 1097.36C1223.67 1291.19 1005.27 1419.5 777.21 1420.13C689.406 1419.96 602.529 1402.17 521.727 1367.81C440.925 1333.45 367.842 1283.22 306.81 1220.1C153.72 1059.77 91.3499 817.845 148.785 603.33C221.235 332.64 480.9 125.895 769.44 122.43H777.525H777.42ZM762.93 193.83C542.64 195.93 329.28 330.54 234.675 529.2C152.46 701.715 160.44 913.71 253.995 1080.56C331.404 1217.1 457.941 1319 607.845 1365.53C614.88 1367.63 692.37 1384.85 758.1 1385.06C1045.06 1385.9 1320.38 1166.34 1360.8 861.525C1394.82 605.325 1249.71 335.055 986.79 234.57C915.302 207.357 839.422 193.512 762.93 193.725V193.83Z" fill="url(#paint2_linear_125_2)"/>
<path d="M286.44 1214.75C305.13 1216.53 313.635 1239.21 327.81 1255.69C385.245 1322.89 470.4 1369.73 562.38 1386.21C562.38 1386.21 571.095 1388.31 575.715 1393.25C588.945 1407.32 577.08 1432.62 546.315 1426.84C429.765 1404.27 320.355 1338.43 264.39 1246.77C264.39 1246.77 257.355 1213.8 286.44 1214.75Z" fill="#FFFBCC"/>
<path fill-rule="evenodd" clip-rule="evenodd" d="M237.3 1165.92C240.664 1165.93 243.993 1166.61 247.096 1167.91C250.199 1169.21 253.016 1171.11 255.385 1173.5C257.755 1175.89 259.63 1178.72 260.905 1181.83C262.18 1184.95 262.829 1188.28 262.815 1191.64C262.801 1195.01 262.125 1198.34 260.825 1201.44C259.524 1204.54 257.626 1207.36 255.237 1209.73C252.848 1212.1 250.016 1213.98 246.902 1215.25C243.789 1216.52 240.454 1217.17 237.09 1217.16C233.725 1217.14 230.398 1216.46 227.298 1215.15C224.197 1213.84 221.384 1211.94 219.02 1209.54C216.656 1207.15 214.786 1204.31 213.517 1201.2C212.249 1198.08 211.607 1194.75 211.627 1191.38C211.648 1188.02 212.331 1184.69 213.638 1181.59C214.945 1178.49 216.849 1175.68 219.243 1173.31C221.636 1170.95 224.472 1169.08 227.589 1167.81C230.705 1166.54 234.04 1165.9 237.405 1165.92H237.3Z" fill="#FFFBCC"/>
<path fill-rule="evenodd" clip-rule="evenodd" d="M608.739 532.537C604.65 564.999 619.347 579.471 651.194 577.745L756.704 516.985C756.704 516.985 783.192 502.848 783.77 514.14C786.307 555.638 687.226 1121.15 687.226 1121.15C687.226 1121.15 685.003 1173.28 732.592 1182.47C780.181 1191.66 808.234 1153.84 821.828 1136.6C835.58 1118.94 918.062 405.145 918.062 405.145C918.062 405.145 915.127 344.429 881.054 342.334C846.981 340.238 660.193 445.426 608.739 532.537Z" fill="#FFE4A4"/>
<path fill-rule="evenodd" clip-rule="evenodd" d="M612.342 545.081C608.454 575.95 622.43 589.712 652.714 588.071L753.046 530.292C753.046 530.292 778.234 516.849 778.784 527.587C781.197 567.048 686.978 1104.81 686.978 1104.81C686.978 1104.81 684.863 1154.38 730.117 1163.12C775.371 1171.86 802.048 1135.9 814.974 1119.5C828.052 1102.7 906.487 423.94 906.487 423.94C906.487 423.94 903.695 366.203 871.294 364.211C838.894 362.218 661.271 462.244 612.342 545.081Z" fill="#7D2A01"/>
</g>
<defs>
<linearGradient id="paint0_linear_125_2" x1="1113.65" y1="123.149" x2="491.323" y2="1372.98" gradientUnits="userSpaceOnUse">
<stop stop-color="#DC7A1F"/>
<stop offset="1" stop-color="#FFE280"/>
</linearGradient>
<linearGradient id="paint1_linear_125_2" x1="847.13" y1="179.203" x2="633.405" y2="1021.98" gradientUnits="userSpaceOnUse">
<stop stop-color="#DC7B1F"/>
<stop offset="1" stop-color="#FDD973"/>
</linearGradient>
<linearGradient id="paint2_linear_125_2" x1="1132.26" y1="1323.01" x2="625.987" y2="150.282" gradientUnits="userSpaceOnUse">
<stop stop-color="#522720"/>
<stop offset="0.47" stop-color="#983E39"/>
<stop offset="0.74" stop-color="#E5B271"/>
<stop offset="1" stop-color="#FFDA84"/>
</linearGradient>
<clipPath id="clip0_125_2">
<rect width="1554" height="1554" fill="white"/>
</clipPath>
</defs>
</svg>
