<svg xmlns="http://www.w3.org/2000/svg" fill-rule="evenodd" stroke-linejoin="round" stroke-miterlimit="1.41" clip-rule="evenodd" viewBox="0 0 149 143"><path fill="#fcb309" d="M55.77 4.07a2 2 0 0 0-2.98 1.74v17.8c15.63 8.51 29.34 4.65 42.93 0V5.9a2 2 0 0 0-3.02-1.72l-6.57 3.9a2 2 0 0 1-2.04 0L75.53 3a2 2 0 0 0-2.04 0L64.9 8.08a2 2 0 0 1-2 .02l-7.13-4.03z"/><path fill="#112733" fill-rule="nonzero" d="M74.6 0c.35.02.68.12.98.3 3.1 2 6.13 4.1 9.2 6.16.65.42 1.5.44 2.16.04 2.45-1.57 4.82-3.28 7.26-4.86 1.23-.74 3.03.22 3.06 1.7v22c-9.58 3.69-19.73 7.07-29.93 5.83a40.16 40.16 0 0 1-15.69-5.6l-.39-.23c0-7.39-.12-14.78 0-22.16.07-1.39 1.76-2.38 3.02-1.66 2.63 1.62 5.2 3.32 7.8 4.98.64.4 1.47.4 2.12.02 3.11-2 6.15-4.12 9.23-6.18.35-.23.76-.35 1.18-.34zm-2.47 6.12l-5.85 3.77c-.78.45-1.06.54-1.6.68-1.6.42-3.06.28-4.7-.74L55.11 6.6l.22 13.33v3.03A36.12 36.12 0 0 0 78.6 26.5c4.87-.86 9.57-2.47 14.18-4.22l-.02-8.83.02-5.54-3.37 2.2a6.22 6.22 0 0 1-7-.02l-1.33-.9-6.61-4.58-2.33 1.51zm24.46-.72s.06-.04 0 0zM75.7 3.8s.01 0 0 0z"/><path fill="#112733" d="M23.3 5.86c15.64 0 30.86 13.05 33.96 29.12 3.1 16.08-7.1 29.13-22.74 29.13-15.65 0-30.87-13.05-33.97-29.13-3.1-16.07 7.1-29.13 22.74-29.13zm102.18 0c-15.65 0-30.87 13.05-33.96 29.12-3.1 16.08 7.09 29.13 22.74 29.13 15.64 0 30.86-13.05 33.96-29.13 3.1-16.07-7.1-29.13-22.74-29.13zM8.18 141.95h32.08s10.33-8.21 9.32-14.9c-.87-5.73-24.76-16.25-24.76-16.25S8.17 136.26 8.17 141.97zm95.96 0c0-.13-9.57-12.15-6-18.37 3.55-6.22 21.04-10.72 21.04-10.72s25.21 5.49 25.21 29.1c0 0-40.25.13-40.25 0z"/><ellipse cx="74.2" cy="73.85" fill="#fff" rx="68.02" ry="55.38"/><path fill="#112733" fill-rule="nonzero" d="M74.66 16.07c19.77.16 39.53 7.03 53.44 20.5 14.78 14.3 20.93 37.32 12.68 56.47-9.36 21.74-33.85 35.17-55.84 37.92-30.83 3.87-65.15-9.67-77.32-37.92a49.2 49.2 0 0 1 .9-40.37c11.15-23.1 38.37-36.39 65.22-36.6h.92zm-.9 3.77c-18.5.27-37.1 6.66-50.33 19.46-16.18 15.65-20.94 42.15-5.77 62.13 19.85 26.13 60.1 31.53 88.03 19.37 16.28-7.1 30.82-20.92 34.18-39.26 2.77-15.1-3.4-31.16-14.57-42.07-13.23-12.9-32.01-19.4-50.66-19.63h-.88z"/><path fill="#112733" d="M35.35 54.07a15.92 15.92 0 1 1-.01 31.85 15.92 15.92 0 0 1 .01-31.85zm3.79 7.73a5.3 5.3 0 1 1 0 10.6 5.3 5.3 0 0 1 0-10.6zm70.58-7.73a15.92 15.92 0 1 0 .01 31.85 15.92 15.92 0 0 0-.01-31.85zm-3.79 7.73a5.3 5.3 0 1 0 .01 10.6 5.3 5.3 0 0 0 0-10.6zM62.3 87.46c-2.05 0-2.96-3.74.78-6.57 2.61-1.98 5.55-2.37 8.79-2.27 4.26.14 8.78 1.8 10.34 2.91 1.56.73 2.37 4.53-.5 4.5-2.24.25-7.61.47-7.03 2.1.85 2.44-1.46 4.92-1.46 4.92s-2.39 1.15-3.59-1.07c-1.5-2.78.3-2.97-1.05-3.85-2.71-1.76-5.02-.46-6.28-.67z"/></svg>