<svg xmlns="http://www.w3.org/2000/svg" fill-rule="evenodd" stroke-linejoin="round" stroke-miterlimit="1.41" clip-rule="evenodd" viewBox="0 0 147 148"><path fill="#ffb5e0" d="M106.92 83.47c11 17.12 11.34 64.9-52.22 64.03C5.52 148.16.28 112.56.55 93.1.83 72.73 8.49 58.27 19.3 47.8c2.33-2.26-19.64-14.78-8.06-26.2 13.8-10.52 20.32 16.57 22.87 15.07a105.47 105.47 0 0 1 11.4-5.8c2.5-1.06-15.63-20 0-27.6 17.62-2.52 13.03 23 15.65 22.27 23.57-6.48 53.04-8.98 65.83-6.06 17.81 4.7 20.96 22.03 18.3 32.7-2.65 10.66-17.34 21.86-38.36 31.29z"/><path fill="#ff92d1" d="M21.43 75.64c7.88-2.6 17.45 2.04 20.32 10.76 2.86 8.71.21 16.64-7.67 19.23-7.88 2.6-16.6-2.37-19.47-11.1-2.86-8.7-1.06-16.3 6.82-18.89z"/><path fill="#d44c88" fill-rule="nonzero" d="M95.67 96.16l1.1.89.2 1.43c-2.78 10.72-9.8 21.97-23.02 22.32-9.86.26-19.98-5.55-24.12-14.33l-.08-1.45.94-1.08 1.42-.08c1.8 1.54 1.81 2.27 2.38 3.06 9.27 12.95 31.81 13.5 38.85-9.45l.91-1.13s1.29-.22 1.42-.18z"/><path fill="#eb7bbc" fill-rule="nonzero" d="M120.42 19.18l.72 1.25-.38 1.37-1.23.73-.37.06c-7.02 1.23-8.94 10.52-8.06 16.64 1.5 10.37 7.9 22.5 18.92 21.06 3.8-.5 7.26-2.77 10.17-5.41l1.36-.5 1.3.56.01.02.5 1.33-.58 1.32c-6 5.87-14.89 9.46-22.92 4.7-10.37-6.16-14.85-20.45-12.9-31.16 1.08-5.96 5.33-11.56 12.07-12.35l1.4.39z"/><path fill="#eb7bbc" fill-rule="nonzero" d="M113.12 18.28c10.27.04 21.68 1.4 28.28 10.94 5.9 8.5 6.66 20.62 1.09 29.13-5.08 7.77-13.2 13.23-21.48 18a158.64 158.64 0 0 1-14.08 7.13c.68 1.07.78 1.28 1.11 1.91 9.15 17.25 4.2 41.32-13.14 52.7-14.67 9.64-34.11 10.52-49.68 9.06-14.58-1.37-29.38-7.48-37.46-21.45-13.8-23.86-8.32-56.95 9.47-75.8C37.36 28.58 69.3 21.59 98.11 19c5-.45 9.99-.72 15.01-.72zm.57 4.17c-27.19.07-55.37 4.73-78.56 18.94-12.09 7.4-22.18 18.26-26.8 31.75-3.56 10.44-4.13 21.83-2.56 32.72 1.8 12.44 7.74 24.72 19.53 31.32 15.89 8.9 36.46 7.72 51.16 4.45 11.8-2.63 23.43-9.17 28.99-20.4 5.59-11.28 5.29-25.87-1.07-36.14l2.55-1.61-2.55 1.61-.45-1.97c.4-1.88.88-1.9 1.76-2.4 11.26-5.23 22.5-11.26 30.55-20.06a22.8 22.8 0 0 0 6.08-17.72c-.82-8.69-6.7-16.85-15.64-19.36-4.12-1.15-8.6-1.13-12.98-1.13z"/><path fill="#eb7bbc" d="M17.02 17.07c9.57.27 16.32 11.57 19.53 21.15.68 2.04 1.24 4.1 1.7 6.2L38 45.85s-1.06.82-1.16.84l-1.4-.24-.85-1.15c-2.2-8.65-5.84-17.96-13.06-22.43-3.6-2.22-9.08-1.87-11.22 1.95-3.4 6.07 3.42 14.08 8.74 20.16a116.1 116.1 0 0 0 7.9 8.25l.6 1.3-.5 1.36-1.29.6-1.35-.48c-7.86-7.05-16.33-14.65-18.9-24.32-1.8-6.74 3.05-14.38 10.88-14.62h.63zM47.54 0c5.58.07 10.53 3.88 12.78 9.45 3.08 7.6 3.03 16.15 1.62 24.26l-.77 1.22s-1.3.36-1.4.34l-1.2-.75-.35-1.4c1.2-8.5 1.52-17.93-3.54-24.9-2.67-3.68-8.6-5.4-11.86-1.77-5.21 5.8.5 16.45 4.43 24a106 106 0 0 0 3.9 6.92l.24 1.43-.82 1.18-1.4.23-1.18-.8C43 31.75 38.3 23.5 36.77 14.9 35.6 8.32 39.42.17 47.22 0l.32-.01z"/><path fill="#fff" d="M55.84 41.18c5.7 0 10.07 4.8 9.76 10.71-.3 5.9-5.17 10.7-10.87 10.7-5.7 0-10.08-4.8-9.77-10.7.3-5.9 5.18-10.7 10.88-10.7z"/><path fill="#eb7bbc" fill-rule="nonzero" d="M56.07 39.5c4.66.09 8.9 3.55 10.2 8.13 2.38 8.24-5.23 19.02-14.61 16.23-6.27-1.86-9.51-10.05-6.82-16.51 1.88-4.5 6.1-7.9 11.23-7.86zm-.25 3c-6.3.38-10.88 8.54-7.25 14.62C51.6 62.2 60.82 61.2 63 53.93c1.47-4.87-1.62-11.26-7.07-11.43h-.11z"/><path fill="#fff" d="M82.6 30.4c5.78 0 10.34 4.87 10.17 10.87-.17 6-5 10.86-10.78 10.86-5.78 0-10.33-4.87-10.16-10.86.16-6 5-10.87 10.77-10.87z"/><path fill="#eb7bbc" fill-rule="nonzero" d="M82.78 29.58c7.64.14 14.02 8.7 10.51 16.23-3.27 7.04-14.07 9.39-19.76 3.72-6.28-6.26-1.89-19.62 8.78-19.95h.47zm-.27 3.01c-5.66.31-10.78 6.49-8.05 12.14 2.34 4.83 9 4.97 13.25 1.08 6.08-5.54-.55-13.4-5.08-13.22h-.12z"/><path fill="#0d1a2b" d="M52.84 48.42a4.12 4.12 0 1 1 0 8.23 4.12 4.12 0 0 1 0-8.23zm27.11-10.85a4.12 4.12 0 1 1 0 8.23 4.12 4.12 0 0 1 0-8.23z"/><path fill="#d44c88" d="M121.19 37.27a4 4 0 0 1 4 4.02 4 4 0 0 1-4 4.02 4 4 0 0 1-4-4.02 4 4 0 0 1 4-4.02zm11.11-1.16a4 4 0 0 1 4 4.02 4 4 0 0 1-4 4.02 4 4 0 0 1-4-4.02 4 4 0 0 1 4-4.02z"/></svg>