<svg width="2000" height="2000" viewBox="0 0 2000 2000" fill="none" xmlns="http://www.w3.org/2000/svg">
<path d="M333.84 811.132L49.917 632.671C48.7208 631.919 48.2183 630.414 48.7048 629.087C71.2192 567.699 90.6618 538.136 141.283 500.071C141.413 499.974 141.559 499.882 141.703 499.807C341.228 395.376 382.687 451.019 374.348 683.316C374.34 683.559 374.301 683.809 374.234 684.043L338.321 809.418C337.77 811.339 335.532 812.195 333.84 811.132Z" fill="url(#paint0_linear_119_3270)" stroke="black" stroke-width="20"/>
<path d="M1080.82 25.2349C1199.4 37.0412 1233.76 110.257 1199.12 190.26C1198.75 191.112 1197.98 191.757 1197.08 191.98C892.085 267.376 735.039 356.723 475.289 581.378C406.216 650.978 373.212 698.845 343.633 777.451C340.309 790.877 335.774 803.577 330.222 815.747C334.69 802.142 339.121 789.439 343.633 777.451C354.559 733.311 352.392 681.311 330.222 614.416C301.38 540.753 272.114 520.087 207.774 521.485C207.503 521.491 207.222 521.536 206.962 521.615C135.3 543.353 101.649 566.37 58.4594 622.381C56.7563 624.589 53.4993 623.522 53.8212 620.751C58.8434 577.526 114.305 483.551 147.993 452.836C341.068 276.801 341.073 260.797 737.018 89.9242C845.603 54.8548 1006.66 21.8877 1080.82 25.2349Z" fill="url(#paint1_linear_119_3270)"/>
<path d="M1080.82 25.2349C1199.4 37.0412 1233.76 110.257 1199.12 190.26C1198.75 191.112 1197.98 191.757 1197.08 191.98C892.085 267.376 735.039 356.723 475.289 581.378C395.681 661.593 363.984 712.94 330.222 815.747C354.025 763.569 359.136 701.66 330.222 614.416C301.38 540.753 272.114 520.087 207.774 521.485C207.503 521.491 207.222 521.536 206.962 521.615C135.3 543.353 101.649 566.37 58.4594 622.381C56.7563 624.589 53.4993 623.522 53.8212 620.751C58.8434 577.526 114.305 483.551 147.993 452.836C341.068 276.801 341.073 260.797 737.018 89.9242C845.603 54.8548 1006.66 21.8877 1080.82 25.2349Z" stroke="black" stroke-width="20"/>
<path d="M321.509 797.646C423.011 532.311 950.019 217.588 1201.16 193.473C1202.38 193.357 1203.48 194.022 1204.04 195.107C1256.91 297.645 1289.13 355.311 1358.27 455.222C1358.41 455.429 1358.59 455.625 1358.78 455.79C1394.26 486.586 1408.37 510.248 1419.41 552.073C1431.96 591.834 1439.36 616.751 1462.77 658.934L1550.01 864.394C1569.7 913.789 1581.79 938.117 1604.07 978.727C1604.17 978.905 1604.25 979.1 1604.31 979.294C1617.02 1020.52 1625.39 1041.04 1641.9 1073.98C1688.93 1143.81 1709.61 1186.23 1735.18 1268.09C1735.28 1268.42 1735.45 1268.75 1735.67 1269.03C1758.79 1299.19 1771.37 1325.88 1792.13 1405.92C1807.33 1447.01 1816.18 1474.07 1845.81 1512.27C1860.75 1527.23 1867.43 1538.1 1875.64 1557.17C1876.58 1559.37 1876.85 1564.97 1877.44 1567.3C1880.21 1578.16 1892.53 1604.12 1904.66 1618.09C1927.02 1642.1 1931.47 1664.55 1935.13 1701.07C1935.2 1701.82 1935.56 1702.52 1936.12 1703.02C1951.95 1717.41 1959.35 1730.35 1960.91 1748.99C1960.93 1749.14 1960.93 1749.29 1960.92 1749.44C1958.53 1783.22 1941.8 1811.18 1924.8 1818.91C1909.02 1823.83 1906.33 1834.93 1906.73 1861.76L1912.92 1905.12C1917.03 1924.63 1913.69 1937.33 1910.9 1960.5C1910.87 1960.75 1910.81 1960.99 1910.73 1961.22C1903.38 1979.99 1882.68 1981.22 1877.82 1954.68C1876.19 1936.13 1874.87 1925.93 1877.82 1905.12C1879.25 1886.56 1879.27 1875.5 1877.82 1854.53C1877.83 1838.8 1875.53 1829.75 1862.33 1812.71C1828.31 1779.37 1808.15 1761.16 1768.9 1730.12C1755.35 1718.38 1738.75 1715.2 1731.41 1723.18C1731.28 1723.33 1731.16 1723.5 1731.06 1723.67C1723.22 1737.39 1718.51 1742.79 1713.78 1756.61C1713.7 1756.84 1713.59 1757.07 1713.45 1757.28C1703.7 1772.32 1698.21 1769.88 1688.6 1745.68C1688.45 1745.3 1688.37 1744.87 1688.39 1744.46C1688.99 1727.3 1688.49 1716.36 1685.34 1694.47C1685.29 1694.15 1685.19 1693.83 1685.04 1693.54C1678.92 1681.43 1674.06 1674.25 1662.55 1660.94C1636.04 1632.45 1619.59 1616.52 1586.15 1588.15C1560.2 1565.34 1542.51 1556.01 1509.58 1539.8C1509.35 1539.69 1509.1 1539.6 1508.85 1539.55C1489.34 1535.62 1482.41 1538.8 1476.8 1553.33C1476.74 1553.48 1476.69 1553.65 1476.66 1553.81C1469.52 1589.75 1473.89 1622.74 1479.24 1666.77C1479.27 1667.01 1479.27 1667.26 1479.24 1667.51C1474.98 1701.8 1469.88 1716.13 1444.46 1729.97C1444.28 1730.06 1444.08 1730.15 1443.89 1730.21C1418.39 1737.84 1406.48 1734.66 1391.4 1712.12C1391.15 1711.74 1390.98 1711.29 1390.92 1710.84C1388.01 1688.09 1388.66 1674.3 1395.14 1648.03L1433.86 1546.34C1438.95 1529.7 1440.3 1520.01 1437.57 1502.08C1437.51 1501.65 1437.35 1501.23 1437.11 1500.88C1420.62 1475.92 1408.16 1463.04 1381.57 1442.34C1381.33 1442.16 1381.05 1442 1380.77 1441.9C1362.62 1435.22 1355.87 1441.99 1349.71 1470.97C1347.59 1488.87 1343.61 1498.63 1333.54 1507.83C1333.31 1508.03 1333.05 1508.2 1332.77 1508.33C1308.37 1519.31 1286.35 1511.16 1279.58 1487.25C1279.53 1487.07 1279.5 1486.87 1279.48 1486.68C1278.23 1470.59 1280.26 1460.84 1289.83 1442.06C1296.74 1426.3 1292.5 1418.89 1274.86 1407.47L1198.65 1354.95C1198.52 1354.86 1198.38 1354.78 1198.24 1354.71C1184.24 1348.09 1177.4 1349.82 1168.61 1369.06C1168.55 1369.2 1168.5 1369.34 1168.45 1369.49C1155.69 1414.6 1162.25 1448.03 1153.16 1496.62C1153.07 1497.06 1152.9 1497.48 1152.63 1497.83C1148.66 1503.06 1116.83 1543.2 1120.51 1481.81C1124.43 1416.42 1133.29 1383.46 1133.41 1313.76C1133.41 1313.6 1133.4 1313.43 1133.37 1313.28C1131.7 1303.69 1121.51 1302.76 1117.41 1313.52L1103.47 1358.43C1097.91 1370.55 1079.99 1372.79 1073.91 1364.65C1073.65 1364.3 1073.5 1363.88 1073.44 1363.45C1071.77 1351.21 1071.65 1343.63 1073.53 1329C1077.57 1305.45 1075.68 1294.38 1059.08 1281.51C1029.66 1256.3 1009.49 1241.86 964.605 1215.43L921.242 1194.78C912.371 1191.34 907.625 1190.74 901.516 1198.88C901.247 1199.23 901.068 1199.65 900.988 1200.09L882.527 1301.63C882.521 1301.66 882.521 1301.66 882.516 1301.7C876.182 1345.62 869.9 1361.38 855.407 1376.24C854.92 1376.74 854.261 1377.05 853.566 1377.11C834.782 1378.61 825.385 1370 813.003 1329.56C812.893 1329.2 812.849 1328.8 812.88 1328.43C815.52 1296.37 820.138 1278.3 835.031 1246.41C848.504 1217.96 852.748 1200.04 854.648 1163.81C856.712 1151.94 827.803 1139.55 793.732 1121.99C777.213 1112.7 766.888 1110.64 762.242 1123.54C755.17 1156.24 750.41 1166.76 741.251 1173.63C740.804 1173.96 740.258 1174.15 739.7 1174.19C717.933 1175.44 705.646 1170.03 684.784 1145.8C684.465 1145.43 684.233 1144.97 684.128 1144.49C680.135 1126.38 680.325 1116.09 688.781 1098.57C688.883 1098.36 688.964 1098.13 689.014 1097.9C695.099 1070.25 691.138 1055.51 684.291 1047.66C677.064 1036.82 657.963 1033.72 652.801 1047.66C646.742 1059.83 645.366 1072.51 645.057 1101.34C640.786 1168.01 640.184 1201.5 631.635 1263.96C627.076 1305.96 619.284 1329.13 604.564 1357.86C604.375 1358.23 604.106 1358.57 603.78 1358.82C587.381 1371.78 566.922 1369.86 551.726 1329.29C551.657 1329.1 551.603 1328.9 551.572 1328.7C546.76 1298.24 546.312 1278.71 551.619 1237.63C561.921 1156.76 581.988 1076.92 582.077 1030.41C582.077 1030.2 582.055 1030 582.008 1029.79C578.139 1013.15 550.81 1013.17 546.005 1029.87C545.962 1030.02 545.932 1030.19 545.914 1030.34C543.941 1048.04 538.966 1053.66 525.311 1064.28C524.962 1064.55 524.551 1064.75 524.116 1064.82C515.032 1066.38 505.872 1058.52 508.772 1047.66C514.45 1013.07 518.893 995.772 512.902 980.546C507.254 966.683 431.127 906.345 403.389 907.73C403.081 907.745 402.795 907.817 402.51 907.934C381.274 916.645 372.487 932.704 372.487 957.316L383.259 1047.09C383.304 1047.46 383.276 1047.85 383.176 1048.22C378.854 1064.07 372.667 1064.36 355.998 1063.22C355.315 1063.17 354.653 1062.88 354.153 1062.41C338.603 1047.84 335.117 1040.32 331.742 1013.37C331.717 1013.18 331.712 1012.97 331.727 1012.77L344.593 845.515C344.604 845.368 344.604 845.216 344.594 845.068C343.057 824.172 336.217 815.878 322.131 800.712C321.356 799.877 321.102 798.709 321.509 797.646Z" fill="#FCD23E" stroke="black" stroke-width="20"/>
<path d="M1065.28 332.339C923.536 377.316 904.502 502.149 983.442 583.152C1010.61 611.029 1115.08 626 1169.29 602.769C1260.05 570.279 1289.51 461.542 1236.04 387.725C1235.94 387.576 1235.81 387.434 1235.68 387.308C1177.16 331.876 1139.45 321.697 1065.77 332.228C1065.61 332.251 1065.44 332.29 1065.28 332.339Z" fill="#CF594B" stroke="black" stroke-width="14"/>
<path d="M1150.64 529.534C1131.52 536.76 1128.99 556.503 1139.72 569.332C1143.42 573.765 1157.67 576.146 1165.07 572.452C1177.38 567.313 1181.43 550.181 1174.29 538.446C1174.2 538.294 1174.09 538.149 1173.97 538.018C1166.14 529.424 1161.02 527.792 1151.19 529.388C1151.01 529.418 1150.82 529.468 1150.64 529.534Z" fill="#F6A18C" stroke="black" stroke-width="5"/>
<path d="M1047.89 448.816C1035.08 453.771 1033.4 467.19 1040.61 475.917C1043.11 478.939 1052.72 480.563 1057.71 478.044C1065.99 474.551 1068.73 462.93 1063.98 454.931C1063.89 454.779 1063.78 454.634 1063.66 454.503C1058.43 448.726 1054.99 447.608 1048.45 448.667C1048.26 448.697 1048.07 448.748 1047.89 448.816Z" fill="#F6A18C" stroke="black" stroke-width="5"/>
<path d="M968.393 464.304C955.578 469.258 953.895 482.677 961.111 491.404C963.611 494.427 973.223 496.05 978.21 493.531C986.491 490.038 989.225 478.417 984.476 470.418C984.385 470.266 984.276 470.121 984.157 469.99C978.934 464.214 975.488 463.096 968.947 464.154C968.76 464.184 968.57 464.235 968.393 464.304Z" fill="#F6A18C" stroke="black" stroke-width="5"/>
<path d="M1007.63 543.803C994.812 548.758 993.128 562.177 1000.35 570.904C1002.84 573.926 1012.46 575.549 1017.44 573.031C1025.72 569.538 1028.46 557.917 1023.71 549.918C1023.62 549.766 1023.51 549.621 1023.39 549.489C1018.17 543.713 1014.72 542.595 1008.18 543.654C1007.99 543.684 1007.8 543.735 1007.63 543.803Z" fill="#F6A18C" stroke="black" stroke-width="5"/>
<path d="M1078.71 529.244C1069.5 532.901 1068.3 542.705 1073.51 549.087C1075.32 551.304 1082.28 552.494 1085.89 550.647C1091.87 548.095 1093.86 539.623 1090.47 533.759C1090.38 533.606 1090.27 533.462 1090.15 533.33C1086.42 529.165 1083.93 528.34 1079.27 529.091C1079.08 529.121 1078.89 529.173 1078.71 529.244Z" fill="#F6A18C" stroke="black" stroke-width="5"/>
<path d="M1213.96 409.478C1204.75 413.135 1203.55 422.939 1208.76 429.321C1210.57 431.538 1217.53 432.728 1221.15 430.881C1227.12 428.328 1229.11 419.856 1225.72 413.993C1225.63 413.84 1225.52 413.696 1225.4 413.564C1221.67 409.399 1219.18 408.574 1214.52 409.325C1214.33 409.355 1214.14 409.407 1213.96 409.478Z" fill="#F6A18C" stroke="black" stroke-width="5"/>
<path d="M1108.65 355.79C1099.44 359.447 1098.24 369.251 1103.45 375.633C1105.26 377.85 1112.22 379.04 1115.83 377.193C1121.81 374.64 1123.8 366.168 1120.41 360.305C1120.32 360.152 1120.21 360.008 1120.09 359.876C1116.36 355.711 1113.87 354.886 1109.21 355.637C1109.02 355.667 1108.83 355.719 1108.65 355.79Z" fill="#F6A18C" stroke="black" stroke-width="5"/>
<path d="M1031.05 378.403C1025.45 380.764 1024.74 386.95 1027.94 390.986C1029.06 392.397 1033.37 393.154 1035.61 391.979C1039.28 390.366 1040.52 385.043 1038.48 381.315C1038.4 381.161 1038.3 381.018 1038.18 380.887C1035.93 378.333 1034.41 377.802 1031.62 378.243C1031.42 378.273 1031.23 378.327 1031.05 378.403Z" fill="#DA965C" stroke="black" stroke-width="5"/>
<path d="M1138.43 409.376C1132.82 411.738 1132.11 417.924 1135.32 421.96C1136.44 423.37 1140.75 424.128 1142.98 422.952C1146.65 421.34 1147.89 416.016 1145.86 412.288C1145.78 412.135 1145.67 411.992 1145.56 411.86C1143.31 409.307 1141.78 408.775 1138.99 409.216C1138.8 409.247 1138.61 409.3 1138.43 409.376Z" fill="#DA965C" stroke="black" stroke-width="5"/>
<path d="M1182.82 480.617C1177.22 482.978 1176.51 489.164 1179.71 493.2C1180.83 494.61 1185.14 495.368 1187.38 494.192C1191.05 492.58 1192.29 487.257 1190.26 483.529C1190.17 483.375 1190.07 483.232 1189.95 483.101C1187.71 480.547 1186.18 480.016 1183.39 480.456C1183.2 480.487 1183 480.54 1182.82 480.617Z" fill="#DA965C" stroke="black" stroke-width="5"/>
<path d="M1097.15 480.56C1093.81 482.114 1093.4 486.033 1095.35 488.599C1096.04 489.506 1098.69 489.993 1100.07 489.237C1102.3 488.212 1103.07 484.855 1101.88 482.463C1101.8 482.309 1101.7 482.167 1101.59 482.035C1100.28 480.494 1099.35 480.144 1097.74 480.387C1097.54 480.417 1097.34 480.474 1097.15 480.56Z" fill="#DA965C" stroke="black" stroke-width="5"/>
<path d="M1035.21 510.502C1031.86 512.056 1031.45 515.975 1033.4 518.541C1034.09 519.447 1036.75 519.934 1038.12 519.179C1040.35 518.154 1041.13 514.797 1039.93 512.405C1039.86 512.251 1039.76 512.108 1039.64 511.977C1038.33 510.436 1037.4 510.086 1035.79 510.329C1035.59 510.359 1035.39 510.416 1035.21 510.502Z" fill="#DA965C" stroke="black" stroke-width="5"/>
<path d="M1641.06 1076C1504.83 1131.3 1495.17 1256.27 1579.2 1331.13C1607.77 1356.58 1715.3 1358.08 1768.75 1332.48C1770.27 1331.75 1770.81 1329.91 1770.01 1328.43L1737.51 1268.8C1737.44 1268.67 1737.38 1268.53 1737.33 1268.39L1710.56 1194.78L1680.1 1131.8L1644.72 1077.14C1643.94 1075.94 1642.39 1075.47 1641.06 1076Z" fill="#CF594B" stroke="black" stroke-width="14"/>
<path d="M1634.02 1192.58C1621.58 1198.43 1620.85 1211.93 1628.66 1220.13C1631.37 1222.96 1641.07 1223.91 1645.87 1221.04C1653.88 1216.97 1655.79 1205.19 1650.49 1197.54C1650.39 1197.4 1650.27 1197.26 1650.14 1197.14C1644.53 1191.75 1641.01 1190.87 1634.56 1192.39C1634.37 1192.43 1634.19 1192.5 1634.02 1192.58Z" fill="#F6A18C" stroke="black" stroke-width="5"/>
<path d="M1555.81 1213.63C1543.37 1219.48 1542.64 1232.98 1550.46 1241.18C1553.16 1244.02 1562.86 1244.96 1567.66 1242.1C1575.68 1238.03 1577.58 1226.24 1572.28 1218.6C1572.18 1218.45 1572.06 1218.32 1571.93 1218.19C1566.32 1212.8 1562.8 1211.93 1556.35 1213.45C1556.17 1213.49 1555.98 1213.55 1555.81 1213.63Z" fill="#F6A18C" stroke="black" stroke-width="5"/>
<path d="M1600.55 1290.17C1588.12 1296.02 1587.38 1309.52 1595.2 1317.72C1597.91 1320.55 1607.61 1321.5 1612.4 1318.63C1620.42 1314.56 1622.33 1302.78 1617.02 1295.13C1616.92 1294.99 1616.8 1294.85 1616.68 1294.73C1611.06 1289.34 1607.54 1288.46 1601.09 1289.98C1600.91 1290.02 1600.72 1290.09 1600.55 1290.17Z" fill="#F6A18C" stroke="black" stroke-width="5"/>
<path d="M1670.43 1270.63C1661.5 1274.93 1660.99 1284.79 1666.64 1290.79C1668.6 1292.88 1675.63 1293.57 1679.1 1291.48C1684.88 1288.51 1686.27 1279.92 1682.47 1274.31C1682.37 1274.16 1682.26 1274.03 1682.13 1273.9C1678.11 1270.01 1675.57 1269.36 1670.97 1270.44C1670.79 1270.48 1670.6 1270.55 1670.43 1270.63Z" fill="#F6A18C" stroke="black" stroke-width="5"/>
<path d="M1725.04 1299.37C1716.11 1303.67 1715.6 1313.54 1721.25 1319.54C1723.22 1321.62 1730.24 1322.32 1733.71 1320.22C1739.49 1317.25 1740.88 1308.66 1737.08 1303.05C1736.99 1302.9 1736.87 1302.77 1736.74 1302.64C1732.72 1298.75 1730.18 1298.11 1725.58 1299.18C1725.4 1299.23 1725.21 1299.29 1725.04 1299.37Z" fill="#F6A18C" stroke="black" stroke-width="5"/>
<path d="M1612.25 1123.53C1606.83 1126.28 1606.56 1132.5 1610.04 1136.3C1611.25 1137.63 1615.61 1138.08 1617.75 1136.75C1621.3 1134.88 1622.16 1129.48 1619.87 1125.91C1619.78 1125.76 1619.66 1125.63 1619.54 1125.5C1617.12 1123.11 1615.56 1122.69 1612.81 1123.33C1612.62 1123.37 1612.43 1123.44 1612.25 1123.53Z" fill="#DA965C" stroke="black" stroke-width="5"/>
<path d="M1685.39 1220.77C1682.17 1222.56 1682.04 1226.49 1684.16 1228.92C1684.92 1229.77 1687.59 1230.07 1688.91 1229.22C1691.07 1228.04 1691.6 1224.64 1690.24 1222.34C1690.16 1222.19 1690.05 1222.05 1689.93 1221.93C1688.5 1220.48 1687.56 1220.2 1685.96 1220.56C1685.77 1220.6 1685.57 1220.67 1685.39 1220.77Z" fill="#DA965C" stroke="black" stroke-width="5"/>
<path d="M1625.71 1255.01C1622.48 1256.79 1622.35 1260.73 1624.48 1263.15C1625.23 1264.01 1627.91 1264.31 1629.23 1263.46C1631.39 1262.28 1631.92 1258.87 1630.56 1256.57C1630.47 1256.42 1630.36 1256.29 1630.24 1256.16C1628.82 1254.72 1627.88 1254.44 1626.28 1254.79C1626.08 1254.84 1625.89 1254.91 1625.71 1255.01Z" fill="#DA965C" stroke="black" stroke-width="5"/>
<path d="M677.551 577.975C499.858 634.324 475.987 790.789 574.926 892.314C608.972 927.248 739.895 946.01 807.826 916.897C921.593 876.173 958.502 739.856 891.444 647.347C891.336 647.198 891.211 647.056 891.078 646.93C817.704 577.405 770.434 564.649 678.038 577.864C677.876 577.887 677.707 577.926 677.551 577.975Z" fill="#CF594B" stroke="black" stroke-width="14"/>
<path d="M784.532 825.094C760.506 834.128 757.314 858.901 770.768 874.994C775.413 880.549 793.274 883.533 802.541 878.903C817.994 872.455 823.053 850.937 814.067 836.23C813.974 836.078 813.864 835.932 813.744 835.801C803.888 824.966 797.46 822.924 785.083 824.947C784.898 824.977 784.708 825.028 784.532 825.094Z" fill="#F6A18C" stroke="black" stroke-width="5"/>
<path d="M784.532 825.094C760.506 834.128 757.314 858.901 770.768 874.994C775.413 880.549 793.274 883.533 802.541 878.903C817.994 872.455 823.053 850.937 814.067 836.23C813.974 836.078 813.864 835.932 813.744 835.801C803.888 824.966 797.46 822.924 785.083 824.947C784.898 824.977 784.708 825.028 784.532 825.094Z" fill="#F6A18C" stroke="black" stroke-width="5"/>
<path d="M655.764 723.937C639.642 730.125 637.514 746.974 646.57 757.926C649.703 761.714 661.749 763.748 667.999 760.591C678.396 756.206 681.816 741.594 675.816 731.568C675.725 731.416 675.616 731.271 675.497 731.14C668.907 723.836 664.581 722.438 656.319 723.788C656.132 723.818 655.941 723.869 655.764 723.937Z" fill="#F6A18C" stroke="black" stroke-width="5"/>
<path d="M556.136 743.345C540.013 749.533 537.885 766.382 546.942 777.334C550.074 781.122 562.12 783.156 568.37 780C578.767 775.614 582.188 761.002 576.187 750.977C576.096 750.825 575.987 750.68 575.869 750.548C569.278 743.244 564.953 741.847 556.69 743.196C556.503 743.226 556.313 743.277 556.136 743.345Z" fill="#F6A18C" stroke="black" stroke-width="5"/>
<path d="M605.303 842.974C589.181 849.162 587.053 866.011 596.109 876.963C599.242 880.751 611.288 882.785 617.538 879.629C627.935 875.243 631.355 860.631 625.355 850.606C625.264 850.454 625.155 850.308 625.036 850.177C618.446 842.873 614.12 841.475 605.858 842.825C605.671 842.855 605.48 842.906 605.303 842.974Z" fill="#F6A18C" stroke="black" stroke-width="5"/>
<path d="M694.38 824.728C682.775 829.29 681.255 841.609 687.799 849.623C690.068 852.401 698.79 853.893 703.316 851.578C710.824 848.37 713.308 837.706 709.013 830.355C708.924 830.203 708.816 830.058 708.698 829.927C703.974 824.641 700.85 823.611 694.939 824.575C694.75 824.606 694.559 824.658 694.38 824.728Z" fill="#F6A18C" stroke="black" stroke-width="5"/>
<path d="M863.879 674.637C852.274 679.199 850.754 691.518 857.298 699.532C859.567 702.31 868.289 703.802 872.815 701.487C880.323 698.28 882.807 687.615 878.512 680.264C878.423 680.112 878.315 679.967 878.197 679.836C873.473 674.55 870.349 673.521 864.438 674.484C864.249 674.515 864.058 674.567 863.879 674.637Z" fill="#F6A18C" stroke="black" stroke-width="5"/>
<path d="M731.903 607.355C720.298 611.917 718.778 624.237 725.322 632.25C727.59 635.028 736.313 636.52 740.839 634.205C748.347 630.998 750.831 620.333 746.536 612.983C746.447 612.83 746.339 612.686 746.221 612.554C741.497 607.268 738.373 606.239 732.462 607.203C732.273 607.233 732.082 607.285 731.903 607.355Z" fill="#F6A18C" stroke="black" stroke-width="5"/>
<path d="M634.66 635.692C627.574 638.63 626.663 646.416 630.694 651.49C632.098 653.258 637.498 654.207 640.299 652.734C644.92 650.705 646.466 643.986 643.872 639.312C643.787 639.159 643.683 639.015 643.568 638.883C640.709 635.618 638.787 634.956 635.228 635.532C635.034 635.563 634.841 635.617 634.66 635.692Z" fill="#DA965C" stroke="black" stroke-width="5"/>
<path d="M769.224 674.508C762.138 677.446 761.227 685.232 765.257 690.307C766.662 692.074 772.062 693.024 774.863 691.55C779.484 689.521 781.03 682.803 778.436 678.128C778.351 677.975 778.247 677.832 778.132 677.7C775.273 674.434 773.351 673.772 769.792 674.348C769.598 674.379 769.405 674.433 769.224 674.508Z" fill="#DA965C" stroke="black" stroke-width="5"/>
<path d="M824.86 763.786C817.775 766.724 816.863 774.51 820.894 779.584C822.298 781.352 827.698 782.301 830.5 780.828C835.12 778.799 836.667 772.081 834.073 767.406C833.988 767.253 833.884 767.109 833.769 766.978C830.91 763.712 828.988 763.05 825.429 763.626C825.235 763.657 825.042 763.711 824.86 763.786Z" fill="#DA965C" stroke="black" stroke-width="5"/>
<path d="M717.499 763.712C713.241 765.638 712.712 770.585 715.171 773.818C716.035 774.955 719.358 775.565 721.082 774.618C723.9 773.325 724.86 769.072 723.323 766.071C723.245 765.917 723.145 765.775 723.034 765.644C721.34 763.644 720.172 763.209 718.084 763.539C717.883 763.571 717.684 763.628 717.499 763.712Z" fill="#DA965C" stroke="black" stroke-width="5"/>
<path d="M639.866 801.235C635.609 803.161 635.079 808.108 637.538 811.341C638.402 812.478 641.725 813.088 643.449 812.141C646.267 810.848 647.227 806.595 645.69 803.594C645.612 803.44 645.513 803.298 645.401 803.167C643.707 801.167 642.539 800.732 640.451 801.062C640.25 801.094 640.051 801.151 639.866 801.235Z" fill="#DA965C" stroke="black" stroke-width="5"/>
<path d="M1360.08 586.37C1183.76 646.882 1163.58 803.865 1264.88 903.035C1299.73 937.159 1431.06 952.836 1498.29 922.135C1589.81 870.745 1514.56 803.899 1481.71 704.094C1481.66 703.955 1481.6 703.811 1481.54 703.68C1418.88 578.441 1452.51 570.85 1360.57 586.246C1360.41 586.273 1360.24 586.317 1360.08 586.37Z" fill="#CF594B" stroke="black" stroke-width="14"/>
<path d="M1472.84 830.904C1449.04 840.501 1446.43 865.342 1460.26 881.114C1465.03 886.558 1482.96 889.121 1492.11 884.275C1507.41 877.465 1511.96 855.834 1502.63 841.342C1502.54 841.193 1502.42 841.05 1502.3 840.921C1492.19 830.321 1485.72 828.431 1473.39 830.744C1473.21 830.779 1473.02 830.834 1472.84 830.904Z" fill="#F6A18C" stroke="black" stroke-width="5"/>
<path d="M1341.73 732.804C1325.76 739.369 1324.03 756.263 1333.34 766.999C1336.56 770.712 1348.65 772.463 1354.83 769.16C1365.12 764.531 1368.19 749.843 1361.96 739.961C1361.86 739.811 1361.75 739.669 1361.63 739.54C1354.87 732.393 1350.51 731.098 1342.28 732.641C1342.1 732.676 1341.91 732.731 1341.73 732.804Z" fill="#F6A18C" stroke="black" stroke-width="5"/>
<path d="M1437.18 621.729C1420.96 628.215 1419.16 645.237 1428.52 656.033C1431.75 659.746 1443.84 661.496 1450.01 658.194C1460.12 653.644 1444.43 625.598 1443.65 624.223C1443.62 624.178 1443.6 624.148 1443.58 624.105C1441.39 620.707 1439.96 620.252 1437.18 621.729Z" fill="#F6A18C" stroke="black" stroke-width="5"/>
<path d="M1242.59 754.55C1226.62 761.115 1224.88 778.009 1234.2 788.745C1237.42 792.458 1249.51 794.209 1255.68 790.906C1265.97 786.277 1269.05 771.589 1262.81 761.707C1262.72 761.557 1262.61 761.415 1262.48 761.286C1255.72 754.139 1251.37 752.844 1243.14 754.387C1242.95 754.422 1242.76 754.478 1242.59 754.55Z" fill="#F6A18C" stroke="black" stroke-width="5"/>
<path d="M1294.08 852.995C1278.11 859.56 1276.38 876.454 1285.69 887.19C1288.91 890.904 1301 892.654 1307.18 889.351C1317.47 884.722 1320.54 870.034 1314.31 860.153C1314.22 860.003 1314.1 859.86 1313.98 859.732C1307.22 852.585 1302.86 851.289 1294.64 852.832C1294.45 852.867 1294.26 852.923 1294.08 852.995Z" fill="#F6A18C" stroke="black" stroke-width="5"/>
<path d="M1382.71 832.659C1371.21 837.493 1369.98 849.844 1376.72 857.702C1379.05 860.426 1387.8 861.712 1392.27 859.291C1399.7 855.908 1401.94 845.188 1397.47 837.941C1397.38 837.79 1397.27 837.648 1397.15 837.52C1392.3 832.347 1389.15 831.391 1383.26 832.493C1383.08 832.528 1382.89 832.585 1382.71 832.659Z" fill="#F6A18C" stroke="black" stroke-width="5"/>
<path d="M1318.56 645.079C1311.54 648.183 1310.82 655.988 1314.97 660.966C1316.41 662.7 1321.83 663.522 1324.6 661.984C1329.17 659.847 1330.56 653.094 1327.85 648.481C1327.77 648.33 1327.66 648.189 1327.54 648.06C1324.6 644.863 1322.67 644.246 1319.12 644.906C1318.93 644.941 1318.74 645 1318.56 645.079Z" fill="#DA965C" stroke="black" stroke-width="5"/>
<path d="M1472.02 693.495C1464.75 696.515 1463.95 704.457 1468.15 709.499C1469.6 711.234 1475.02 712.056 1477.78 710.517L1472.02 693.495Z" fill="#DA965C" stroke="black" stroke-width="5"/>
<path d="M1404.39 771.117C1400.17 773.142 1399.76 778.1 1402.3 781.275C1403.19 782.39 1406.52 782.922 1408.22 781.935C1411.01 780.576 1411.87 776.302 1410.26 773.337C1410.18 773.186 1410.08 773.046 1409.96 772.917C1408.22 770.958 1407.05 770.551 1404.97 770.93C1404.77 770.966 1404.57 771.028 1404.39 771.117Z" fill="#DA965C" stroke="black" stroke-width="5"/>
<path d="M1327.66 810.454C1323.45 812.479 1323.03 817.438 1325.57 820.612C1326.46 821.728 1329.79 822.26 1331.5 821.273C1334.28 819.914 1335.14 815.639 1333.53 812.675C1333.45 812.524 1333.35 812.384 1333.24 812.255C1331.5 810.296 1330.32 809.889 1328.24 810.268C1328.04 810.304 1327.84 810.366 1327.66 810.454Z" fill="#DA965C" stroke="black" stroke-width="5"/>
<path d="M838.133 431.634C808.633 442.518 805.33 470.633 822.384 488.44C828.266 494.582 850.399 497.434 861.718 491.934C880.638 484.195 886.308 459.712 874.794 443.357C874.689 443.208 874.567 443.067 874.436 442.941C861.937 430.938 853.94 428.826 838.643 431.496C838.471 431.526 838.296 431.573 838.133 431.634Z" fill="#DE9F0C" stroke="black" stroke-width="5"/>
<path d="M1082.83 673.632C1063.67 680.755 1061.54 699.059 1072.65 710.658C1076.48 714.664 1090.92 716.525 1098.31 712.937C1110.62 707.901 1114.33 691.994 1106.89 681.325C1106.79 681.176 1106.66 681.035 1106.53 680.91C1098.44 673.161 1093.23 671.781 1083.34 673.494C1083.17 673.524 1083 673.571 1082.83 673.632Z" fill="#DE9F0C" stroke="black" stroke-width="5"/>
<path d="M1446.13 989.566C1426.96 996.689 1424.83 1014.99 1435.94 1026.59C1439.78 1030.6 1454.21 1032.46 1461.6 1028.87C1473.91 1023.84 1477.62 1007.93 1470.18 997.26C1470.08 997.111 1469.96 996.97 1469.83 996.845C1461.74 989.096 1456.53 987.716 1446.64 989.429C1446.46 989.459 1446.29 989.506 1446.13 989.566Z" fill="#DE9F0C" stroke="black" stroke-width="5"/>
<path d="M1541.93 1046.94C1529.99 1051.44 1528.67 1062.89 1535.63 1070.15C1538.03 1072.66 1547.1 1073.83 1551.73 1071.58C1559.43 1068.43 1561.77 1058.52 1557.18 1051.82C1557.07 1051.67 1556.95 1051.53 1556.82 1051.41C1551.81 1046.63 1548.55 1045.76 1542.44 1046.81C1542.26 1046.84 1542.09 1046.88 1541.93 1046.94Z" fill="#DE9F0C" stroke="black" stroke-width="5"/>
<path d="M1433.74 1243.55C1414.57 1250.68 1412.44 1268.98 1423.55 1280.58C1427.39 1284.59 1441.82 1286.45 1449.21 1282.86C1461.52 1277.82 1465.23 1261.92 1457.79 1251.25C1457.69 1251.1 1457.57 1250.96 1457.44 1250.83C1449.35 1243.08 1444.14 1241.7 1434.25 1243.42C1434.07 1243.44 1433.9 1243.49 1433.74 1243.55Z" fill="#DE9F0C" stroke="black" stroke-width="5"/>
<path d="M1019.36 840.181C994.925 849.223 992.195 872.533 1006.34 887.299C1011.22 892.395 1029.58 894.761 1038.97 890.198C1054.66 883.783 1059.37 863.501 1049.85 849.93C1049.75 849.782 1049.62 849.641 1049.49 849.515C1039.15 839.596 1032.52 837.843 1019.87 840.044C1019.7 840.074 1019.53 840.121 1019.36 840.181Z" fill="#DE9F0C" stroke="black" stroke-width="5"/>
<path d="M1713.18 1474.11C1688.74 1483.16 1686.01 1506.47 1700.15 1521.23C1705.03 1526.33 1723.4 1528.69 1732.79 1524.13C1748.47 1517.72 1753.18 1497.43 1743.67 1483.86C1743.56 1483.71 1743.44 1483.57 1743.31 1483.45C1732.97 1473.53 1726.34 1471.78 1713.69 1473.98C1713.52 1474.01 1713.34 1474.05 1713.18 1474.11Z" fill="#DE9F0C" stroke="black" stroke-width="5"/>
<path d="M1327.83 1310.83C1419.96 1149.2 1347.58 978.295 1192.35 961.395C1064.32 947.456 1007.54 1005.43 960.561 1062.58C882.009 1158.14 1047.13 1193.45 1146.61 1269.72C1288.37 1352.83 1267.69 1379.9 1327.83 1310.83Z" fill="#CF594B" stroke="black" stroke-width="14"/>
<path d="M1059.35 1143.01C1070.66 1119.85 1054.29 1094.59 1031.89 1087.64C1024.15 1085.24 1008.35 1093.33 1004.84 1103.35C998.016 1118.88 1010.54 1142.27 1028.55 1150.62C1028.7 1150.69 1028.85 1150.75 1029.01 1150.79C1044.71 1154.99 1051.15 1153.01 1058.98 1143.58C1059.13 1143.41 1059.25 1143.22 1059.35 1143.01Z" fill="#F6A18C" stroke="black" stroke-width="5"/>
<path d="M1233.72 1159.73C1241.19 1144.07 1230.03 1126.92 1214.87 1122.14C1209.62 1120.48 1198.94 1125.92 1196.6 1132.71C1192.04 1143.2 1200.57 1159.09 1212.76 1164.85C1212.91 1164.92 1213.06 1164.98 1213.22 1165.02C1223.77 1167.89 1228.12 1166.59 1233.34 1160.31C1233.49 1160.13 1233.62 1159.93 1233.72 1159.73Z" fill="#F6A18C" stroke="black" stroke-width="5"/>
<path d="M1241.95 1322.14C1249.73 1306.4 1238.52 1289.06 1223.26 1284.24C1218.01 1282.59 1207.33 1288.02 1204.99 1294.81C1200.49 1305.17 1233.87 1322.92 1235.12 1323.57C1235.16 1323.59 1235.17 1323.6 1235.21 1323.62L1235.22 1323.62C1239.45 1325.59 1240.89 1325.19 1241.95 1322.14Z" fill="#F6A18C" stroke="black" stroke-width="5"/>
<path d="M1294.5 1080.62C1301.98 1064.97 1290.81 1047.82 1275.65 1043.03C1270.4 1041.38 1259.73 1046.81 1257.39 1053.6C1252.83 1064.1 1261.36 1079.99 1273.54 1085.75C1273.69 1085.82 1273.85 1085.88 1274 1085.92C1284.55 1088.79 1288.9 1087.48 1294.13 1081.2C1294.27 1081.03 1294.4 1080.83 1294.5 1080.62Z" fill="#F6A18C" stroke="black" stroke-width="5"/>
<path d="M1181.63 1016.76C1189.1 1001.1 1177.94 983.955 1162.78 979.168C1157.53 977.511 1146.85 982.947 1144.51 989.737C1139.95 1000.23 1148.48 1016.12 1160.67 1021.88C1160.82 1021.95 1160.97 1022.01 1161.13 1022.05C1171.68 1024.92 1176.03 1023.62 1181.26 1017.34C1181.4 1017.16 1181.53 1016.96 1181.63 1016.76Z" fill="#F6A18C" stroke="black" stroke-width="5"/>
<path d="M1127.96 1088.33C1133.24 1076.96 1125.06 1064.45 1114.03 1060.9C1110.2 1059.67 1102.46 1063.59 1100.78 1068.53C1097.52 1076.15 1103.77 1087.75 1112.63 1092.03C1112.78 1092.1 1112.93 1092.16 1113.09 1092.2C1120.69 1094.31 1123.85 1093.39 1127.59 1088.91C1127.73 1088.73 1127.86 1088.53 1127.96 1088.33Z" fill="#F6A18C" stroke="black" stroke-width="5"/>
<path d="M1316.68 1230C1319.77 1222.92 1314.56 1215.06 1307.67 1212.74C1305.27 1211.93 1300.46 1214.33 1299.45 1217.43C1297.48 1222.18 1301.44 1229.49 1306.98 1232.29C1307.13 1232.36 1307.28 1232.42 1307.43 1232.46C1312.09 1233.81 1314.06 1233.28 1316.31 1230.59C1316.46 1230.41 1316.59 1230.21 1316.68 1230Z" fill="#DA965C" stroke="black" stroke-width="5"/>
<path d="M1161.77 1273.99C1165.17 1266.83 1159.9 1258.76 1152.91 1256.41C1150.5 1255.6 1145.69 1258.01 1144.68 1261.1L1161.77 1273.99Z" fill="#DA965C" stroke="black" stroke-width="5"/>
<path d="M1156.74 1159.93C1158.46 1155.53 1155.11 1150.58 1150.81 1149.04C1149.29 1148.49 1146.31 1149.95 1145.72 1151.89C1144.56 1154.85 1147.1 1159.48 1150.57 1161.35C1150.71 1161.42 1150.85 1161.48 1151 1161.52C1153.81 1162.39 1155.04 1162.1 1156.36 1160.55C1156.52 1160.37 1156.65 1160.16 1156.74 1159.93Z" fill="#DA965C" stroke="black" stroke-width="5"/>
<path d="M1187.1 1077.18C1188.82 1072.78 1185.48 1067.83 1181.18 1066.29C1179.66 1065.75 1176.68 1067.2 1176.09 1069.15C1174.93 1072.1 1177.46 1076.73 1180.93 1078.6C1181.07 1078.67 1181.22 1078.73 1181.37 1078.78C1184.18 1079.64 1185.4 1079.36 1186.73 1077.8C1186.88 1077.62 1187.01 1077.41 1187.1 1077.18Z" fill="#DA965C" stroke="black" stroke-width="5"/>
<path d="M1716.75 1615C1751.3 1646.21 1781.38 1645.03 1817.94 1680.04C1860.92 1731.68 1883.56 1749.55 1920.15 1752.83" stroke="black" stroke-width="14" stroke-linecap="round"/>
<path d="M1315.13 1361.01C1353.87 1387.13 1372.07 1396.92 1400.3 1408.5" stroke="black" stroke-width="14" stroke-linecap="round"/>
<path d="M1472 1449C1507.19 1467.24 1522.57 1478.2 1542.82 1498.59C1553.27 1508.05 1559.18 1513.4 1569.53 1522.76C1569.76 1522.97 1570.03 1523.15 1570.31 1523.28C1588.5 1531.49 1598.24 1534.29 1614.51 1536.51C1614.69 1536.54 1614.88 1536.58 1615.06 1536.64C1634.65 1543.22 1645.02 1550.12 1662 1569" stroke="black" stroke-width="14" stroke-linecap="round"/>
<path d="M330.155 792.121L385.908 819.998" stroke="black" stroke-width="14" stroke-linecap="round"/>
<path d="M414.575 838.582L460.344 859.059C460.535 859.145 460.717 859.251 460.887 859.374L518.498 901.407L550.775 930.661C550.884 930.759 550.985 930.866 551.078 930.979L572.34 956.854C572.596 957.166 572.912 957.422 573.269 957.609L600.608 971.883" stroke="black" stroke-width="14" stroke-linecap="round"/>
<path d="M628.538 985.192L649.178 1002.56C649.511 1002.84 649.901 1003.05 650.321 1003.16L704.935 1018.05L755.411 1037.21L821.577 1067.33L893.881 1107.02" stroke="black" stroke-width="14" stroke-linecap="round"/>
<defs>
<linearGradient id="paint0_linear_119_3270" x1="39.0857" y1="636.819" x2="359.913" y2="506.095" gradientUnits="userSpaceOnUse">
<stop offset="0.28912" stop-color="#DFA354"/>
<stop offset="0.461032" stop-color="#F3BA85"/>
</linearGradient>
<linearGradient id="paint1_linear_119_3270" x1="596.531" y1="131.344" x2="751.401" y2="371.392" gradientUnits="userSpaceOnUse">
<stop stop-color="#DFA354"/>
<stop offset="0.22414" stop-color="#D39A49"/>
<stop offset="0.781039" stop-color="#C28735"/>
<stop offset="1" stop-color="#B27427"/>
</linearGradient>
</defs>
</svg>
