<svg xmlns="http://www.w3.org/2000/svg" width="145" height="149"><defs><linearGradient id="a" x1="87.4%" x2="3.86%" y1="90.16%" y2="7.53%"><stop offset="0%" stop-color="#96AAC0"/><stop offset="100%" stop-color="#FFF"/></linearGradient><linearGradient id="b" x1="87.48%" x2="1.62%" y1="89.52%" y2="6.72%"><stop offset="0%" stop-color="#6A2446"/><stop offset="100%" stop-color="#B47D7D"/></linearGradient></defs><g fill="none" fill-rule="evenodd"><path fill="url(#a)" d="M5.97 52.03c40.37 20.4 84.53 20.72 132.65 0l-16.41 82.33c-9.02 16.84-92.28 18.08-100.23 0l-16-82.33z"/><path fill="#BA2D2D" d="M67.55 144.27h-9.71l-.23-91.62h9.71l.23 91.62zm15.94 0h-9.71l5.32-91.62h9.7l-5.31 91.62zm16.93-2.95a96.18 96.18 0 0 1-9.95 2.34l9.28-91.01h9.71l-9.04 88.67zm-49.55 1.92a114.2 114.2 0 0 1-9.82-2.3l-4.1-88.3h9.71l4.2 90.6zm67.16-9.09a93.35 93.35 0 0 1-10.4 4.74l12.67-86.24h9.7l-11.97 81.5zm-84.04 4.55a69.57 69.57 0 0 1-10.12-4.4l-7.46-81.65h9.7L34 138.7z"/><path fill="url(#b)" fill-rule="nonzero" d="M122.21 134.36c-3.47 6.37-12.3 8.3-19.66 9.95-22.16 4.96-46.15 5.44-67.27-1.17-5.34-1.68-11.1-3.9-13.3-8.78l-16-82.33a145.46 145.46 0 0 0 89.76 13.1c14.75-2.57 29.18-7.22 42.88-13.1l-16.41 82.33zM19.39 101.82l6.4 31.15c2.8 4.89 10.24 6.25 16.55 7.55 1.6.33 3.2.61 4.8.85 19.7 3 40.36 2.7 59.2-2.81 4.35-1.28 9.17-2.82 11.56-5.95l3.17-15.85 7.67-37.96 4-19.68c-22.7 8.61-46.8 13.4-71.28 11.82a142.83 142.83 0 0 1-51.26-13.4l9.2 44.28z"/><path fill="#FEF97C" d="M.7 52.1c.24 3.27 1.06 9.35 9.4 5.54-1.09 13.23 9.45 11.96 14.15 5.96 2.83-.5 7.3 4.97 10.8 2.43 4.28 11.77 12.1 9.99 20.97 4.13 4.75 6.14 9.55 11.63 15.72 0 1.41 6.67 20.82 12.26 20.32-.93-.18-4.65 8.65-1.98 8.65-1.98-.37 6.57 13.29 5.33 18.13-3.65 2.04.33 5.21-1.8 7.06.02 8.5 8.4 24.6-7.4 13.15-11.52-2.66-2.06 3.47-9.95 0-8.86-1.94.71-4.83.68-11.61-2.42h-2.5c.4-4.06-2.28-9.45-7.52-6.46-2.27 1.3 1.42-7.11 1.42-7.11-4.74 1.32-9.94-1.13-15.11-3.32l-8.33 5.03-7.56-7.01-3.7-7.22c-2.28 2.36-6.51 3.52-16.52 1.1H61l-9.66 6.12-7.26 3.5-9.03-3.5-8.97 3.5 2.67 10.92-6.89 1.6-2.6 4.15h-4.1l-3.31 5.46S.37 45.47.68 52.1m1.06-31.9l7.43 6.53H12l1.87 3.77 5.51-3.77s6.26-6.6-7.38-10.8c-7.52-2.32-1.37.57-5.67 1.2-2.37.36-4.3.7-4.6 3.08zm27.54-7.59l10.42 6 6.84-6-3.58-8.29-1.54-3.02-10.5 3.02-1.64 2.89v5.4zm73.01-5.4l-1.94 3.15 1.94 5.43s.98 4.26 7.38 1.33c6.41-2.92 6.05-5.64 9.03-6.76 3.15-1.19 3.47-3.15 3.47-3.15L116 1.4l-9.58 1.23v4.6h-4.12z"/><path fill="#D3C614" d="M76.22 71.1s9.79 2.7 11.33 0c1.53-2.71.8-8.41 3.62-7.78 2.82.62 9.45 2.72 9.45 2.72l-9.45 5.05v2.67l-8.66 4.4s-8.13-3.9-6.3-7.07zm-22.2-4.41s-11.37 5.75-13.58 5.78c-2.21.02 14 8.71 13.58-5.78zm11.94 6.85s-1-1.73 4.65-6.85c5.66-5.12 5.93-4.8 7.94-4.24 2 .55 3.33-2.1 2.86 1.07-.47 3.17.09 5.47-2.86 6.55-2.96 1.08-12.2 1.44-12.59 3.47zm44.95-3.43h-8.39l-1.45-2.78 5.7-5.25s8.75 1.97 12.18-1.1c3.43-3.08 2.16 1.1 2.16 1.1l-10.2 8.03zm26.91-17.28s7.79 1.86 0 8.14-9 4.53-9 4.53c1.92 2.82 5.4 2.8 11.43-1.84 0 0 7.95-11.26-2.43-10.83zM21.17 64.03s3.05-7.8 11.73-6.33c8.69 1.46 7.54 2.68 7.54 2.68l-4.4 3.65s-1.85 1.32-14.87 0zm-9.72-6.64V51S1.7 53.35 1.43 51c-.27-2.34-2.55 12.13 10.02 6.4zm82.73-18.93s4.28 1.65 2.32 5.46c-1.97 3.8-2.32 6.69-2.32 6.69v2.58c3.27 2.75 6.56 2.1 9.9-2.58l2.01-6.7s-1.23-6.34-11.9-5.45zm-53.74 7.66s-3.3-4.08 2.16-3.97c5.46.12 5.7-.02 8.49 0s0 3.97 0 3.97-3.48 9.29-10.65 0zM70.23 34.7s2.14 4.4-1.56 6.45c-3.7 2.06-4.27 2.8-5.48 2.9-1.2.07-3.97 2.1-3.97 2.1l1.71 4s3.54-.46 6.35 0c2.8.46 7.3-3.1 7.3-3.1v-3l2.1-2.07s.88.87 0-.83c-.9-1.7 1.24-1.7 2.68-.86 1.45.83 1.45 2.42 4.39 0 2.93-2.42 3.98-4.39 3.98-4.39s-1.45-6.33-6.89-5.91c-5.44.41-6.44 1.52-7.8 2.72-1.37 1.2-2.81 1.99-2.81 1.99zm44.44 12.16s-1.46.47 1.56-1.62c3.03-2.1 0-8.26 0-8.26.05-3.17 5.22-2.17 5.22-2.17l3.08 6.58-4.03 5.47h-5.83zm-58.9-23.25s9.42-5.35 11.5-4.81c2.1.54 1.3 3.25 1.3 3.25l-6.8 3.24-3.41 1.78-2.59-3.46zM122 8.81c-1.95.28-7.4 5.62-8.89 4.86 2.26-4.75-5.48-9.62-5.48-9.62s4.92-3.3 9.28-2.62c3.52.56 4.56 4.98 5.1 7.38z"/><path fill="#B48609" d="M51.05 20.6a8.83 8.83 0 0 1 7.48-4.79c.7-.1.21.28.5-.8 0 0 .97-2.6 5.66-2.23a4.97 4.97 0 0 1 3.84 2.59c3.48.25 7.01.46 10.34-.57 1.63-.5 2.83-1.48 4.69-1.48 3.18.06 5.06 3.95 4.94 7.72a18.98 18.98 0 0 1 6.76 6.32c1.4-.96 2.93-1.74 4.17-2.48 1.89-1.12 3.5-2.75 5.57-2.73 1.15.06 1.72.35 3.44.6 1.35.23 2.79.84 3.3 2.29 3.22 1.66 8.04-.52 8.59 2.6.34 1.9-.39 3.68-1.47 5.38 1.95-.44 3.86-.43 5.48.55 1.72 1.03 1.79 3.44 1.22 6.6l.31-.05c3.29-.47 6.45 2.52 8.22 2.49 1.22-.02 1.5-.32 3.66-.76 1.13-.22 2.5-.17 3.17.86.2.3.12.2.16.28 1.02 2.32-.86 5.24-1.74 7.84 0 0 1.35 0 2.26.45 4.72 2.36 3.24 11-2.85 15.36a11.6 11.6 0 0 1-12.8.44c-1.3-.77-3.3-1.81-3.3-1.81h-3.67c-2.26 4.74-8.02 7.52-13.1 7.76-2.97.13-6.42-1.45-6.96-4.92 0 0-2.45.27-4.55.93.27.1.55.59.58 2.23.05 2.42-2.08 4.03-3.7 5.48-4.35 3.91-12.38 3.7-15.58-1.18a16 16 0 0 1-3.63-3.44 62.58 62.58 0 0 0-2.49 3.04l-.13.28a5.42 5.42 0 0 1-3.9 3.1c-3.36.5-6.96-1.68-8.26-4.06 0 0-.9-2.82-1.38-2.08-3.15 4.63-10.56 5.04-14.61 3.65-1.27-.43-2.53-1.32-2.83-2.75l-.37-.16c-.33-.14-.66-.3-.97-.47-2.07-1.12-3.94-3.08-3.57-5.52l-3.17.49c-1.24.34-1.47-.33-2-1-1.05-1.3-2.49-2.31-4.33-1.38-1.47.74-2.94 2.8-2.94 2.8-.43.66.25.29-1.5 1.02-5.3 2.21-12.57-3.4-10.68-9.72 0 0-5.56 2.36-7.77-1.98-1.3-2.57-1.82-5.9.26-8.4a7.9 7.9 0 0 1 9.74-1.7l.62-2.57c.85-2.42 2.74-4.78 5.5-4.92h.33c.62.02 1.19.19 1.69.48.57-2.76 4.28-4.86 8.3-5.2l-.14-.03c-2.22-2.74-3.64-6.65-1.72-9.85 2.5-4.18 8.47-5.26 12.35-4.67a8.47 8.47 0 0 1 5.95 3.58c1.3-2.2 2.99-3.77 5.2-3.9h.29a4.2 4.2 0 0 1 1.54.38zm35.46 3.05l-.74-.25c-1.5-.5-2.8 1.11-4.63 3.07 0 0 1.84 2.14.24 4.37-.82 1.15-2.2 1.8-3.65 1.2-3.1-1.27-5.99 1.9-2.72 5.89.91 1.1 2.07 2.6 2.07 2.6l-.1 1.13-1.12-.1c-2.4-2.6-6.47-4.79-5.18-8.54.76-2.19 2.95-3.48 4.95-4.23 0 0-.39-.9-.19-1.7.18-.68.5-1.31.95-1.9l-.57.24c-1-.24-2.03-.35-3.06-.34-2.1.01-4.91.72-5.38.81-2.53.54-5.12.85-7.64 1.6.45.74.66 1.52.5 2.39-.25 1.46-1.38 2.57-2.48 3.45l-1.13-.02 1.2-4.06c-.67-1.2-2.9-1.61-6.52-3.84-1-.62-1.87-1.53-2.76-1.02a8.3 8.3 0 0 0-1.52 1.14l.1.28c-.47 1.21-1.25 1.7-1.9 1.88a38.1 38.1 0 0 0-2.61 4.84 5.3 5.3 0 0 1 3.6-.28c4.28 1.05 9.6-1.67 11.11 6.88.3 1.8.13 2.2.05 2.72-.47 2.8-3.9 4.23-5.4 6.12-.98 1.2-1.7 2.79-3.32 3.08l-.25.04a22 22 0 0 1 1.13 1.22c.2.23.38.5.52.77l.1 1.17-1.22.03c-.29-.05-.6-.07-.9-.04-1.65.17-1.35.55-2.48.3-.88-.17-2.18-.14-2.18-.14l-1.08-.31.3-1.1a8.24 8.24 0 0 1 1.92-1.67c.5-.31.71-.5 1.04-.6-1.99-.69-3.84-2.15-5.18-3.3l-.16-1.17 1.12-.13.28.17c2.01 1.12 4.52 2.76 6.41 2.01 0 0 2.67-3.88 4.2-5.2 1.09-.95 1.4-2.24.98-4.9-.34-2.1-3-1.87-6.49-3.1-1.63-.57-3.45-1.13-4.84.07.1 2.26-1.03 4.87-2.11 6.95l-1.07.46-.41-1.07.11-.4c.55-2.05 1.16-4.35.44-6.29-.58-1.55.15-.64-.07-.19-.05.1-.14.17-.29.2-2.23.49-5.02 2.3-5.02 2.3-1.64.76-3.35 1.6-5.14 1.43 0 0-3.44-.26-4.95.17-1.2.34-2.4 1.26-2.48 2.7v.25l-.15.22a6 6 0 0 1 .42 3.55c-.05.34-1.4.41 2.05.85 5.37.71 10 2.93 13.95 6 0 0 .51.92.5 1.36l-.31 5.38-.8 1.11-.8-1.11-.3-4.52v-.47c-4.4-2.5-8.95-3.38-13.97-3.88-2.64-.3-4.77-2.35-3.7-6.53l.08-.41c.18-.98-2.82.37-3.8 2.26l-.4 1.04-1.92 5.01-1 .53-.52-1.02.65-2.69c-2.18-.31-8.8-.84-9 4.3-.16 3.91 1.5 6.84 8.01 3.74 1.05-.49 2.56-.09 2.34 1.13-.18.96-.96 1.71-1.2 2.73-.93 4.02 4.12 8.27 7.94 6.21 0 0 4.69-6.3 9.24-3.7.99.56 2.17 1.8 2.17 1.8a22.83 22.83 0 0 1 .83-.22l.7-.14a5.63 5.63 0 0 1 2.84.23l.08-.3c1.97-1.71 4.24-2.6 7.29-3.12 2.5-.45 1.9-.02 5.82-.84a14.33 14.33 0 0 0 3.65-1.5l1.1-.28.26 1.12c-1.88 4.06-7.89 5.6-11.2 5.25-1.95-.21-3.9-.1-5.72.6.39.5.6 1.21.49 2.16-.2 1.78 1.98 2.56 4.08 3.17 0 0 1.4.5 1.14 1.96 0 0 11.94 2.63 11.98-4.6 0-1.39-.67-.61.41-1.84.74-.85 2.16-.7 2.85.31l3.2 5.72s4.5 4.77 5.97 1.26c0 0 2.78-3.98 4.45-5.44 1.26-1.1 4.01-1.44 4.3 1.12.1.9.48.93.92 1.31l.01-.36c2-2.19 3.84-2.93 4.74-4.87.5-1.05.61-1.12.53-1.01.03-.05.03-.06 0 0-.1.1-.41.4-.78.01a22.62 22.62 0 0 1-1.68-2.18c-3.65 1.03-7.14 5.48-10.73 2.48-1.96-1.64-1.58-5.09-3.44-7.34 0 0-2.6 2.22-5.68 4.16l-.42.25-1.12-.18.2-1.14c2.76-2.3 5.22-6.05 7.24-5.97.22 0 .15 0 .24.02 3.47.48 3.83 5.92 4.97 7.01-.18.06-.1.04.04.04a.45.45 0 0 1-.04-.04c.33-.12 1.62-.54 5.37-2 1.83-.7 3.75-1.5 5.43.03l2.13 3.34c1.68 2.62-1.55 5.59-3.64 6.99-.47.3-.94.62-1.4.94l-.36.25c-.26.18-.51.39-.51.39h-.2a26.2 26.2 0 0 0 1.56 1.19l.49.48s1.06 1.31 2.38 1.88a7.3 7.3 0 0 0 8.13-1.79s-1.47-1.81 0-4.45c1.65-2.96 5.19-4.2 9.05-4.33 1.2-.04 2.34.03 3.31.98l.63-.79a84.4 84.4 0 0 0 3.85-5.25s-3.27.86-5.31 1.06c-3.53.34-4.82-4.1-10.04-6.7-3.3-1.65-6.96 1.47-9.98 2.77L79.7 56s.15-.94.6-1.23c2.92-1.96 5.24-4.66 9.04-4.63 3 .08 5.63 1.95 7.77 4.03.73-1.67 1.25-3.43 2.82-4.75a6.07 6.07 0 0 1 3.75-1.14c1.28.02 3.06.58 3.06.58l.76.88-.9.73a12 12 0 0 0-.37.07 11.32 11.32 0 0 0-3.51 1.79c-1.7 1.51-2.6 2.03-4.28 3.22l.42.46c1.94 2.07 9.46-2.93 11.14.8 0 0 .19.5.12 1.01-.24 1.8-1.93 3.1-3.3 4.57a108.9 108.9 0 0 1-4.08 4.05l-.66.03c.36 1.26 1.51 3.4 5.13 2.75 3.89-.69 7.75-2.52 9.15-6.34 0 0 .6-.89 1.5-.96h1.72a8.7 8.7 0 0 1-.82-.66c-1.76-1.54-3.24-3.88-2.5-6.31.45-1.47.44-3.3 1.62-4.38 1.31-1.18 2.82-1.3 4.82-1.27 1.99.04 4.7.92 4.7.92l.54 1-1 .55c-2.27-.27-5.01-.14-6.47 1.28-.46.46-.34.26-.1.1.37-.25 1.03-.38-.16 2.62-.9 2.3 1.08 4.45 3.08 6.21 2.65.45 4.87 3.62 8.01 3.95 6.35.66 12.75-6.98 9.87-11.58-.97-1.55-3.97.41-4.57-1.84-.72-2.65 2.54-5.19 2.38-8.42 0 0-2 .3-3.35.56-1.7.31-3.24.07-5.86-1.86a5.18 5.18 0 0 0-4.64-.58l-.16.68-.86.84s-.42-.43-.63-.73a6.6 6.6 0 0 0-2.75 3.66c-.25.95.42.27-.97.95a5.93 5.93 0 0 1-8.3-3.84l.53-1 1 .55c.18.6.22.67.36.96.95 1.97 3.56 2.78 5.7 1.65 0 0 1.31-3.07 4.04-4.78-.24-1.31-.51-2.6-.8-4.07 0 0-.83-.94-2.1-1.19-1-.2-2.33-.27-3.18-.3l-1.07 1.43s-.38.43-.81.53l-1.72.27-5.72.87-1.23-.57.92-1.02 5.03-1.35 1.66-.41a32.78 32.78 0 0 0 2.53-5.77c-.68.06-1.36.07-2.04.03-2.56-.12-5.42-.4-6.46-2.82 0 0-1.26-.13-3.29-.9 0 0-3.83 1.75-6.67 3.07-2.8 1.33-2.9 1.66-3.55 2.3-1.09 1.06-1.53 2.8-.56 4.14l1.2.04s7.5-.89 8.02 2.45c.38 2.45-1.86 4.08-2.49 7.34-.25 1.22-.45 1.28-.68 1.55-.62.68-1.26.86-2.4 1.06l-1-.57s2.15-1.74 1.85-1.75c-1.29-.06 1.14-6.11 1.14-6.11-1.21.05-2.42.12-3.63.1-.72 0-.77-.02-1.03-.04-2.83-.21-5.97-.8-8.2-.26 0 0-.54 2.78-1.57 4.82l-1.04.44-.43-1.05c.66-2.22-.14-4.6 1.06-5.99 1.64-1.88 4.35-2.12 7.12-2.08a4.6 4.6 0 0 1-.5-2.63 6.78 6.78 0 0 1 2.4-4.26c-1.4-1.8-3.78-3.3-6.1-4.3l-.09.14-1.1.19-.06-.84zM74.9 69.3zm19.48-.26c-.24-.09-.47.15-.47.15l.47-.15zm-24.44-7.61c.09.08.19.13.3.15 0-.14-.17-.15-.3-.15zm4.32-17.6c2.35 2.7-.62 7.08-5.4 8.68-1.15.4-.5.19-1.26.33 0 0-2.27.22-3.6.12-2.1-.16-3.1-2.4-5.48-4.7l-.23-1.17 1.11-.2c1.4.75 2.43 2.26 3.8 2.85 0 0 3.69-.9 4.65-1.1l.81-.16c2.29-.52 5.3-1.5 4.28-3.75l.2-1.14 1.12.23zm47.9-7.17s.52.16 0-.03c0 0-.04-.1 0 .03zm-79.4-9.96c-.78-.93-1.51-2.11-3.32-2.5-3.47-.73-7.42.66-9.82 1.84-2.45 1.22-2.49 5.02-.88 8.06l-.15.9c1.3-.17 3.16-1.53 3.16-1.53 3.14-1.45 7.15-3.43 9.16-1.06a43.88 43.88 0 0 1 1.84-5.7zM.58 19.95c.32-2.57 3.6-2.8 5.56-2.97l-.2-.77c1.58-3.12 6.46-1.9 8.95-.6a57.8 57.8 0 0 1 5.88 3.71s2.14 1.66 2.22 4.12c.24 7.37-11.47 12.77-13.07 4.7 0 0-1.13.19-1.83-.05-2.43-.82-3.7-3.14-6.12-5.36a5.66 5.66 0 0 1-1.4-2.6v-.18zm2.18.16l-.02.05c-.06.21.87.74 1.61 1.26 1.23.86 1.46 1.06 2.13 1.6l2.35 1.91c1.16-.95 2.56-1.74 3.69-.33.86 1.08.54 2.87 1.4 3.7.78.78-1.15 1.28 2.45-.78 2.2-1.26 4.15-4.05 2.55-5.55-2.72-2.35-5.5-5.09-8.9-5.87-1.23-.29-2.7.92-2.7.92l-.51.14.61.51-.7.89a12.86 12.86 0 0 0-.8.16c-1.74.39-3.19 1.51-3.16 1.4v-.02.01zM117 28.05zm-38.83-2.03zM67.7 21.84a6.84 6.84 0 0 0-2.04-5.11c-.57-.58.17-.26-.9-.22-3.52.15-1.94.43-2.5 1.39 0 0-.38.6-1.1.98-1.63.88-3.59.04-5.24.47a6.06 6.06 0 0 0-3.18 2.27c.39.3.66.55.75.62 1.61 1.29 3.47 2.44 4.84 3.66a21.89 21.89 0 0 1 7.77-3.88s.33-.13 1.6-.18zm18.25-1.73c-.31-1.19-.78-2.32-1.5-2.91-1.38-1.16-3.64 1.82-7.81 1.56a34.45 34.45 0 0 1-7.2-1.3c.4 1.43.49 2.98.24 4.4 2.3.15 4.56.8 6.56 1.96l.5.94c1.2-1.34 2.97-2.5 4.85-3.79a4.85 4.85 0 0 1 3.07-1.01c.43.01.86.07 1.29.15zM40.82.1c1.44.03 2.92.7 3.46 2.11.46 1.19-.13 2.72.06 3.43 1.14 4.11 7.5 7.72 1.84 11.04-1.18.68-1.72 1.3-3.45 2.61-1.57 1.2-3.82 2-5.64.48-2.5-2.03-5.33-3.64-8.02-5.43 0 0-2.48-3.5-.38-6.33 0 0-.14-1.54.31-2.55 1.17-2.6 4.4-3.36 6.83-4.39 1-.41 1.2-.45 1.78-.6a11.9 11.9 0 0 1 3.2-.37zm60.49 7.04l-.49.13s-.55-1.17.31-1.57c1.08-.49 2.74 1.22 2.74 1.22.44.14.52.05.4.05 3.62-.18.84-.3.88-.53.13-.7 1.23.65-.87-1.87 0 0-.63-1.32.49-1.88 4.2-1.82 8.56-4.04 12.8-1.61 3.58 2.04 3.97 3.2 5.92 6.79.84 1.56.12 2.18-2 2.82-2.51.76-1.43 2.47-4.13 2.6-1.77.1-2.88 6.03-7.76 6.06-2.35.01-4.73-.15-7.05-.54-1.2-.2-2.32-.93-1.92-2.97.4-2.3-2.86-3.62.03-7.08l1.11-.14s.26.96.07 1.24c-1.85 2.57-.3 1.13.74 4.2.3.9.2 2.33.2 2.33 4.12.39 7.85 1.14 11.13-4.77 1.34-2.34 1.91-4.56 4.87-3.8 0 0-1.08-4.65-5.76-5.07-1.38-.12-1.8.36-2.58.6-1.42.43-3.62.88-3.43 1.39.92 2.6-2.2 5.63-4.95 3.13-2.3-2.17-.28-.67-.28-.67l-.47-.06.28-.08c-.36-.25-1.05-.71-.28.08zm-60.12-3.6a2.17 2.17 0 0 0-1.32-.43c-2.39-.05-4.74.78-6.91 1.4-1.43.43-3.24 1.5-1.65 1.59 1.32.12 2.51 1.17 4.04 1.45l.8.92-.88.7c-1.62-.11-3.92-.97-3.92-.97-.96 1.04-1.64 2.54-.77 3.83.42.6.78.48 1.2.7 2.54 1.33 5.12 2.6 7.45 4.22 1.54-.02 2.77-2.48 4.74-3.67-1.59-2.4-2.86-5.07-3.15-7.93 0 0 .23-1.35.37-1.8zm60.4 3.52l.2.14c.5-.27.2-.23-.2-.14zm-60.18-3.3c.4.44.28.77-.13-.34-.02-.05-.05 0-.09.13.09.07.16.13.22.2z"/><path fill="#B48609" fill-rule="nonzero" d="M23.39 48.7c.95.02 2.29.24 2.29.24l.83.77-.75.85c-1.46.57-2.66 1.9-4.1 2.4-.4.14-2.54.8-3.77 1.7l-1.13.2s-.07-1.87 1.13-3.53c2.28-3.17 3.68-2.63 5.5-2.62zm37.59-11.24s-.55-.12.06-.27c1.72-.41 3.42-1.06 5.14-1.34l4.3-.22c1.5-.8.32.1.32.1l.35-1.08s1.33.05 1.28 1.24c-.11 3.04-5.02 3.84-5.02 3.84-.44.11-2.13.16-3.9-.04 0 0-4.68-.48-3.86-2.05.4-.75 1.55.06 1.33-.18zm-.1 1.2l.3-.87s-.44.95-.3.88zm70.98 18.24c1.78.08 4.01 1.77 4.01 1.77l.35 1.1-1.09.33a7.21 7.21 0 0 0-2.01-.16c-1.53.12-1.56 1.32-1.56 1.32l-2.48 5.04-.98.63-.59-.98c.04-2.04.23-4.9.23-4.9.3-3.07-.37-3.97 3.84-4.14h.28zm-34.2-1.17c.44 2.19-2.19 4.5-4.15 5.27 0 0-2.2.4-3.57.59-3.23.5-2.28.5-2.28.5l-1.11-.19.19-1.13a13.4 13.4 0 0 1 1.7-1.52c1.14-.87 3.03-1.81 3.03-1.81 1.57-.65.62 0 2.95-.58 1.57-.39 1.65-1.05 1.65-1.05l.76-.85.83.77z"/><path fill="#FFF" d="M64.34 59.12c.84.14.4-.32 1.33.74 0 0 .4 2.45.61 3.43.12.53.3 1.05.55 1.54l.05 1.17-1.27-.07c-1.24-.75-2.56-2.5-2.56-2.5l-1.63.52-1.49.45-1.08-.31.33-1.13c1.47-1.35 1.95-2.1 3.98-3.55.39-.27.8-.3 1.18-.3zm-48.4 2.38c.44.1.96.02 1.45-.05l1.09.4-.58 1.2c-1.62 1.28-4.2 1.77-5.4-.59a6.65 6.65 0 0 1-.43-2.14c.2-1.92 1.4-3.62 2.66-5.25l1.07-.45.4 1.07a22.9 22.9 0 0 0-.1.95c-.14 1.56-.02 3.79-.05 4.03-.5 4.34-.8.46-.44.7l.34.13zm107.82-4l2.37.67c1.71.53.74-.4 2.1.96l1.15 1.31c.74.98 1.4 1.95 1.82 3.1l-1.36.05c-2.16-.56-2.15-.59-2.15-.59l-1.87-.7a2.84 2.84 0 0 1-.92-.84l-1.4-1.76-.65-.86-.22-1.12s1-.25 1.13-.22zm-107.82 4a1.19 1.19 0 0 1-.33-.13c-.36-.23-.05 3.64.44-.7l-.1.83zm72.2-6.88c1.45.03 3.44.95 3.44.95 1.1.54-.57-.52 3.11 2.25.95.72 2.58 1.73 2.58 1.73l.62.97-.97.6c-2-.01-4.06-.56-5.98-1.35l-1.45-.87-.83-.77c-3.41-3-2.18-.87-2.18-.87-.3.21-.2.13-.2.13l-1.06.4-.4-1.07c.37-1.28 1.76-2.11 3.31-2.1zm-62.71-3.15c1.7.06 4.14.48 4.14.48 2.41.57 1.01-.79 3.65 2.4.75.92 1.47 2 1.45 3.15l-.62.97-1.06-.8c-1.41-1.32-3.9-1.68-3.9-1.68-1.44-.85-2.68-2-4.14-2.96L24.4 52s.87-.54 1.03-.53zm-20-1.85l1.2.3s-.63 3.05-.66 2.34c-.5.3-.34.71-.38 1.22l-.24 1.16-1.23-.38c-.97-.52-1.85-1.51-1.7-2.86 0 0 1.07-1.8 3-1.78zm18.75-9.51c1.43-1.23 3.63-.97 5.6-.7l.86.8-.79.82-.55.12c-1.12.24-2.68.86-2.68.86 0 .24-.58.08 1.32.7 1.7.54 5.05 1.67 7.85 3.74l.35 1.12-1.08.32-.45-.13c-2.32-.64-4.74-.84-7.13-1.13-.19-.02-2.5-.32-3.8-1.67l-.65-1.47c-.05-.56.1-1.12.31-1.63.24-.53-.88.13.77-1.7l.07-.05zm101.04 3.18c1.25.04 2.09.7 2.09.7l.25 1.11c-2.62.63-.88 1-.88 1 .07 1.63.15.6-1.82.6l-1.13-1.13c.09-2.91 1.15-2.28 1.28-2.28h.2zm-34.46-4.13c1.18.05 2.28.58 3.22 1.26l.65.98-1 .6c-.63.12.05-.26-1.63.5-3.65 1.63-2.8 1.5-2.8 1.5l-.82.78-.78-.83c-.52-1.79.34-4.15 2.16-4.7 0 0 .53-.1 1-.09zM26.3 42.28a.13.13 0 0 0-.04.03l.04-.03h.05l-.03-.01-.02.01zm79-13.6c.74 2 3.4 1.35 4.78 1.51 2.4.37 6.7 1.91 3.66 4.1l-1.17-.03s1.45-1.27-2.42-.39c-.89.17-1.75.43-3.48-.27-2.02-.85-3.66-2.95-3.01-5.22l.89-.76.72.93.03.13zm7.36 4.24c0-.06 0-.09-.02-.03l.02.03c0 .14-.04.44-.04.44s.1-.32.04-.44zm-77.3-7.37c2.05.03 2.34.24 3.15.44.72.18 1.76.54 1.76.54l.71.9-.87.71a18.11 18.11 0 0 0-2.25.55c-1.02.32-2.53.9-2.53.9-1.4.23-3.07.2-4.17 1.35l-1.08.38-.3-1.24c.68-2.53 3.3-4.55 5.59-4.53zm36.67 1.5l-.48 1.06c-1.27 1.02-1.6 1.91-3.72 2.72-.47.18-.86.3-3.77.46-1.16.06-1.16-.02-2.27-.33l.74-1.15c1.88-1.53 3.73-2.9 6.02-3.08 3.03-.23 2.83.02 3.48.32zm-61.56-9.71c3.66.08 2.95-1.12 4.64 3.52l.05 1.2-1.32-.1a50.2 50.2 0 0 0-2.69-.68c-1.32-.65-2.1-2.4-2.1-2.4l-.48-1.03 1.01-.49a21.11 21.11 0 0 1 .88-.02zm25.52-5.42c1.34.26 3.24.53 3.24.53.47-1.65.63-4.05.63-4.05l.46-1.06 1.08.56c1.47 2.53 2.58 6.3.49 8.03-2.13 1.76-2.87.57-6.76-2.56l-.41-1.1s.83-.44 1.27-.35zm76.47.22l-.3 1.15c-.43.54-.45.56-.65.77-.92.97-1.98 1.9-3.5 2.19 0 0-4.74-.28-3.8-4.96l.78-.84s1.34 1.62 1.45 1.73c.78.77 1.23.25 2.6.12.77-.07 1.53-.19 2.27-.37l1.15.21zm-72.26.31s-.66.43.2.04c0 0-.04-.05-.2-.04z"/></g></svg>