<svg xmlns="http://www.w3.org/2000/svg" fill-rule="evenodd" stroke-linejoin="round" stroke-miterlimit="1.41" clip-rule="evenodd" viewBox="0 0 145 138"><path fill="#9e9c87" d="M144.5 27.63C91.73-12.97 44.44-5.25 0 27.63l12 109.14c40.08 1.48 80.26 1.2 120.5 0l12-109.14z"/><clipPath id="a"><path d="M144.5 27.63C91.73-12.97 44.44-5.25 0 27.63l12 109.14c40.08 1.48 80.26 1.2 120.5 0l12-109.14z"/></clipPath><g clip-path="url(#a)"><path fill="#bfbdb0" d="M15.87 21.3S88.53-1.66 135.22 31c2.2 21.63-12.17 93.16-12.42 101.16h7.35l13.39-102.83S82.18-22.72 15.87 21.3z"/></g><path fill="#444440" fill-rule="nonzero" d="M73.07 0c25.48.09 50.42 11.64 70.81 27.16l.62.47-12 109.14c-40.14 1.19-80.52 1.45-120.5 0L0 27.63C21.17 12.02 45.48.31 71.94 0h1.13zm1.34 4.39C49.84 4.46 26.2 15.5 6.46 30.05l-.21.15 3.12 24.87 4.01 32.13c1.15 9.5 2.05 16.76 3.09 26.15.48 4.4.93 8.81 1.4 13.22l.3 3.6c36.09 1.5 72.5 1.96 108.53 1.63l1.46-.02 6.88-54.4 6.25-48.37a176.14 176.14 0 0 0-5.37-3.76C118.02 13.23 97.17 4.6 75.22 4.4h-.81z"/><path fill="#bfbdb0" d="M80.12 49.76l.67 1.48.02.2c.26 4.18.5 7.58.7 11.68a285.13 285.13 0 0 1 .3 21.37 127.9 127.9 0 0 1-.22 4.88c-.32 5.4-.38 5.92-.8 11.53l-.7 1.81-1.41.76-1.4-.76-.7-1.8-.46-6.16c-1-15.7-.68-25 0-36.45l.45-7.05.68-1.49 1.45-.62 1.42.62zm25.46-4.68c10.52.2 22.01 5.63 19.27 19.54-.8 4.07-2.83 8.11-6.81 10.14-5.24 2.65-11.49 1.81-17 1.98l.6 12.63v11.32l-.47 1.4-2.6.58-1.02-.58-.47-1.4-.48-12.35c-.49-13.1-.98-26.22-1.33-39.27 0 0 .32-2.23 1.77-3 .56-.3 1-.35 1-.35 2.51-.46 4.72-.68 7.54-.64zM47.7 76.68c-2.92.15-5.88-.02-8.66.06l.48 24.25-.48 1.39-2.47.29-1.97-.3-.48-1.4.48-12.63c-.49-13.1-.98-26.22-1.33-39.27 0 0 .41-2.28 1.77-3 .55-.3 1-.35 1-.35a36.4 36.4 0 0 1 7.54-.64c10.52.2 22.01 5.63 19.27 19.54-.8 4.07-2.83 8.11-6.81 10.14a16.85 16.85 0 0 1-4.6 1.5c.8 2.27.5 3.57 1.79 6.54a59.86 59.86 0 0 0 10.5 16.57l.46 1.1-.36 1.05-1.01.43c-2-.64-2-1.05-2.51-1.48a36.72 36.72 0 0 1-7.25-8.13 34.42 34.42 0 0 1-5.36-15.66zm56.89-24.6c-1.1 0-2.75.1-2.75.1l-.1 4.92-.5 14.74-.07 1.68c6.56-.68 14.48.04 17.3-5.45 2.65-5.14 2.03-11.98-3.02-14.36-3.31-1.56-7.17-1.65-10.86-1.64zm-62 0c-1.11 0-2.75.1-2.75.1l-.1 4.92-.5 13.05-.07 1.69c6.56-.7 14.47 1.72 17.3-3.77 2.65-5.14 2.03-11.98-3.02-14.36-3.31-1.56-7.17-1.65-10.86-1.64z"/><path fill="#2f2f29" d="M77.12 46.76l.67 1.48.02.2c.26 4.18.5 7.58.7 11.68a285.13 285.13 0 0 1 .3 21.37 127.9 127.9 0 0 1-.22 4.88c-.32 5.4-.38 5.92-.8 11.53l-.7 1.81-1.41.76-1.4-.76-.7-1.8-.46-6.16c-1-15.7-.68-25 0-36.45l.45-7.05.68-1.49 1.45-.62 1.42.62zm25.46-4.68c10.52.2 22.01 5.63 19.27 19.54-.8 4.07-2.83 8.11-6.81 10.14-5.24 2.65-11.49 1.81-17 1.98l.6 12.63v11.32l-.47 1.4-2.6.58-1.02-.58-.47-1.4-.48-12.35c-.49-13.1-.98-26.22-1.33-39.27 0 0 .32-2.23 1.77-3 .56-.3 1-.35 1-.35 2.51-.46 4.72-.68 7.54-.64zM44.7 73.68c-2.92.15-5.88-.02-8.66.06L36.52 98l-.48 1.39-2.47.29-1.97-.3-.48-1.4.48-12.63c-.49-13.1-.98-26.22-1.33-39.27 0 0 .41-2.28 1.77-3 .55-.3 1-.35 1-.35a36.4 36.4 0 0 1 7.54-.64c10.52.2 22.01 5.63 19.27 19.54-.8 4.07-2.83 8.11-6.81 10.14a16.85 16.85 0 0 1-4.6 1.5c.8 2.27.5 3.57 1.79 6.54a59.86 59.86 0 0 0 10.5 16.57l.46 1.1-.36 1.05-1.01.43c-2-.64-2-1.05-2.51-1.48a36.72 36.72 0 0 1-7.25-8.13 34.42 34.42 0 0 1-5.36-15.66zm56.89-24.6c-1.1 0-2.75.1-2.75.1l-.1 4.92-.5 14.74-.07 1.68c6.56-.68 14.48.04 17.3-5.45 2.65-5.14 2.03-11.98-3.02-14.36-3.31-1.56-7.17-1.65-10.86-1.64zm-62 0c-1.11 0-2.75.1-2.75.1l-.1 4.92-.5 13.05-.07 1.69c6.56-.7 14.47 1.72 17.3-3.77 2.65-5.14 2.03-11.98-3.02-14.36-3.31-1.56-7.17-1.65-10.86-1.64z"/></svg>