<svg width="5015" height="5243" viewBox="0 0 5015 5243" fill="none" xmlns="http://www.w3.org/2000/svg">
<path d="M1302.67 3622.66L1298.13 3845.45L1052.79 4142.45L912.458 4095.03L785.181 4011.36L632.88 3885.55L540.574 3557.18L513.907 3227.31L538.185 2991.13L636.86 2871.68L750.953 2940.35L941.331 3072.04L1132.31 3280.96L1259.5 3437.18L1302.67 3622.66Z" fill="#38B54A"/>
<path d="M1096.15 3983.24C782.496 3746.09 713.806 3524.77 762.342 2989.04L650.492 2896.65L528.669 2917.5L521.838 3226.55L541.872 3597.07C561.195 3694.03 603.805 3891.22 619.659 3904.32L843.088 4088.88L1059.07 4134.84L1096.15 3983.24Z" fill="#30AB3E"/>
<path fill-rule="evenodd" clip-rule="evenodd" d="M1323.93 3813.15C1333.8 3735.51 1335.3 3688.28 1328.72 3595.59C1316.58 3457.54 1279.32 3369.04 1167.48 3194.74C973.921 2965.32 748.39 2802.39 640.294 2796.68C513.953 2803.56 496.73 2858.55 460.075 2975.59C458.87 2979.44 457.643 2983.36 456.39 2987.34C389.964 3397.11 415.729 3592.8 550.011 3894.11C647.373 4011.97 712.574 4067.67 852.441 4143.94C910.942 4173.35 943.704 4179.56 1001.94 4174.72L1043.1 4128.5L1043.76 4129.05L1292.25 3852.01C1292.22 3850.94 1292.19 3849.88 1292.16 3848.82L1323.93 3813.15ZM1292.16 3848.82C1287.1 3679.02 1282.48 3622.42 1212.1 3465.25C1050.61 3236.15 934.997 3133.86 697.539 2984C693.977 2983.68 690.65 2983.36 687.536 2983.06C648.264 2979.31 642.909 2978.8 627.997 3012.34C591.319 3348.57 613.651 3518.93 666.401 3817.32C742.636 3966.81 790.201 4008.83 994.622 4088.46L1043.1 4128.5L1292.16 3848.82Z" fill="black"/>
<path d="M1328.72 3595.59L1329.21 3595.55L1329.21 3595.54L1328.72 3595.59ZM1323.93 3813.15L1324.3 3813.48L1324.4 3813.36L1324.42 3813.21L1323.93 3813.15ZM1167.48 3194.74L1167.9 3194.47L1167.88 3194.45L1167.86 3194.42L1167.48 3194.74ZM640.294 2796.68L640.321 2796.18L640.294 2796.18L640.267 2796.18L640.294 2796.68ZM460.075 2975.59L460.552 2975.74L460.552 2975.74L460.075 2975.59ZM456.39 2987.34L455.913 2987.19L455.903 2987.23L455.897 2987.26L456.39 2987.34ZM550.011 3894.11L549.555 3894.32L549.583 3894.38L549.626 3894.43L550.011 3894.11ZM852.441 4143.94L852.201 4144.38L852.209 4144.39L852.216 4144.39L852.441 4143.94ZM1001.94 4174.72L1001.98 4175.22L1002.18 4175.21L1002.32 4175.06L1001.94 4174.72ZM1043.76 4129.05L1043.44 4129.43L1043.81 4129.74L1044.13 4129.38L1043.76 4129.05ZM1292.25 3852.01L1292.63 3852.34L1292.76 3852.19L1292.75 3851.99L1292.25 3852.01ZM1212.1 3465.25L1212.56 3465.04L1212.54 3465L1212.51 3464.96L1212.1 3465.25ZM697.539 2984L697.806 2983.58L697.704 2983.52L697.584 2983.5L697.539 2984ZM687.536 2983.06L687.584 2982.57L687.584 2982.57L687.536 2983.06ZM627.997 3012.34L627.54 3012.14L627.509 3012.21L627.5 3012.29L627.997 3012.34ZM666.401 3817.32L665.909 3817.41L665.922 3817.48L665.956 3817.55L666.401 3817.32ZM994.622 4088.46L994.94 4088.07L994.878 4088.02L994.803 4087.99L994.622 4088.46ZM1328.22 3595.62C1334.8 3688.28 1333.3 3735.48 1323.43 3813.08L1324.42 3813.21C1334.3 3735.53 1335.8 3688.27 1329.21 3595.55L1328.22 3595.62ZM1167.06 3195.01C1278.87 3369.28 1316.09 3457.7 1328.22 3595.63L1329.21 3595.54C1317.07 3457.38 1279.76 3368.8 1167.9 3194.47L1167.06 3195.01ZM640.268 2797.18C667.191 2798.6 701.483 2809.82 740.827 2829.47C780.163 2849.12 824.511 2877.17 871.539 2912.22C965.595 2982.32 1070.34 3080.38 1167.1 3195.07L1167.86 3194.42C1071.06 3079.68 966.26 2981.57 872.137 2911.42C825.076 2876.34 780.676 2848.25 741.274 2828.58C701.881 2808.9 667.445 2797.61 640.321 2796.18L640.268 2797.18ZM460.552 2975.74C478.891 2917.18 492.334 2874.29 516.934 2845.15C541.491 2816.06 577.223 2800.61 640.322 2797.18L640.267 2796.18C577.025 2799.62 540.974 2815.12 516.17 2844.5C491.41 2873.84 477.914 2916.96 459.598 2975.44L460.552 2975.74ZM456.867 2987.49C458.12 2983.51 459.347 2979.59 460.552 2975.74L459.598 2975.44C458.392 2979.29 457.166 2983.21 455.913 2987.19L456.867 2987.49ZM550.468 3893.91C483.339 3743.28 443.348 3619.08 428.432 3481.34C413.516 3343.6 423.674 3192.29 456.884 2987.42L455.897 2987.26C422.68 3192.17 412.508 3343.58 427.438 3481.45C442.369 3619.33 482.401 3743.63 549.555 3894.32L550.468 3893.91ZM852.68 4143.5C712.871 4067.26 647.719 4011.61 550.397 3893.8L549.626 3894.43C647.027 4012.34 712.276 4068.07 852.201 4144.38L852.68 4143.5ZM1001.9 4174.23C972.808 4176.64 950.109 4176.3 927.39 4171.69C904.668 4167.07 881.897 4158.19 852.665 4143.5L852.216 4144.39C881.486 4159.1 904.347 4168.03 927.191 4172.67C950.037 4177.3 972.84 4177.64 1001.98 4175.22L1001.9 4174.23ZM1042.73 4128.17L1001.57 4174.39L1002.32 4175.06L1043.47 4128.84L1042.73 4128.17ZM1044.08 4128.66L1043.42 4128.12L1042.78 4128.89L1043.44 4129.43L1044.08 4128.66ZM1291.88 3851.67L1043.39 4128.71L1044.13 4129.38L1292.63 3852.34L1291.88 3851.67ZM1291.66 3848.83C1291.69 3849.89 1291.72 3850.96 1291.75 3852.02L1292.75 3851.99C1292.72 3850.93 1292.69 3849.86 1292.66 3848.8L1291.66 3848.83ZM1323.55 3812.81L1291.79 3848.49L1292.53 3849.15L1324.3 3813.48L1323.55 3812.81ZM1211.65 3465.45C1246.83 3544.02 1265.56 3597.42 1276.13 3652.39C1286.71 3707.37 1289.13 3763.93 1291.66 3848.83L1292.66 3848.8C1290.13 3763.91 1287.71 3707.27 1277.11 3652.2C1266.52 3597.13 1247.75 3543.64 1212.56 3465.04L1211.65 3465.45ZM697.272 2984.43C934.682 3134.25 1050.25 3236.5 1211.69 3465.53L1212.51 3464.96C1050.98 3235.8 935.312 3133.46 697.806 2983.58L697.272 2984.43ZM687.488 2983.56C690.602 2983.86 693.931 2984.18 697.494 2984.5L697.584 2983.5C694.024 2983.18 690.698 2982.86 687.584 2982.57L687.488 2983.56ZM628.454 3012.55C635.923 2995.75 640.924 2987.68 648.834 2984.18C652.795 2982.42 657.53 2981.79 663.758 2981.84C669.989 2981.89 677.662 2982.62 687.488 2983.56L687.584 2982.57C677.774 2981.63 670.051 2980.89 663.766 2980.84C657.479 2980.79 652.58 2981.42 648.429 2983.26C640.115 2986.95 634.984 2995.4 627.54 3012.14L628.454 3012.55ZM666.894 3817.24C614.148 3518.87 591.823 3348.55 628.494 3012.4L627.5 3012.29C590.815 3348.58 613.154 3518.99 665.909 3817.41L666.894 3817.24ZM994.803 4087.99C892.596 4048.18 829.667 4017.79 782.762 3978.7C735.868 3939.63 704.955 3891.82 666.847 3817.1L665.956 3817.55C704.082 3892.31 735.069 3940.26 782.122 3979.47C829.163 4018.67 892.227 4049.11 994.44 4088.92L994.803 4087.99ZM1043.42 4128.12L994.94 4088.07L994.303 4088.84L1042.78 4128.89L1043.42 4128.12ZM1291.79 3848.49L1042.73 4128.17L1043.47 4128.84L1292.53 3849.15L1291.79 3848.49Z" fill="black"/>
<path d="M1525.53 3629.32L1777.82 3323.91L2178.53 3654.92L2083.44 3770.03L1943.75 3892.14L1569.23 4345.51L1048.27 4976.16C803.069 4961.79 721.649 4899.92 690.186 4680.36L1131.95 4105.77L1525.53 3629.32Z" fill="#8EC73F" stroke="black"/>
<path d="M1083.83 4552.45L1425.94 4205.21L1795.07 3758.36L1898.23 3633.48L1972.05 3583.92L2142.34 3625.48L2162.3 3674.86L1660.18 4282.7L1152.9 4896.79L1030 4972.03L863.5 4972.88L754.754 4910.45L786.507 4863.74C787.769 4861.68 789.38 4859.32 791.314 4856.67C830.005 4803.61 997.735 4636.28 1083.83 4552.45Z" fill="#86BB36"/>
<path d="M1684.02 3444.65L1814.8 3326.14C1737.36 3337.16 1696.33 3352.53 1628.1 3398.45C1498.45 3520.75 1435.43 3586.15 1335.79 3698.67L915.297 4207.7C777.384 4383.01 714.614 4471.97 618.693 4620.38C586.516 4765.87 593.375 4825.56 642.302 4899.77C711.725 4981.65 756.157 5014.2 839.397 5062.58C1004.42 5079.14 1091.58 5061.45 1239.85 4978.67C1413.62 4780.32 1501.67 4695.8 1703.63 4417.25C1931.42 4141.18 2058.63 3980.78 2283.76 3675.16C2245.44 3635.04 2224.78 3620.26 2192.7 3638.31L2095.73 3702.07C2044.46 3739 2018.06 3764.95 1973.32 3816.53L1479.9 4447.56L1148.89 4848.27C1041.06 4908.54 982.213 4919.06 880.684 4892.07C823.048 4870.29 797.899 4849.41 765.576 4796.98C768.907 4717.82 774.995 4676.87 803.039 4617.83C824.628 4558.74 845.789 4517.64 911.251 4419.93C948.38 4339.98 983.488 4291.15 1059.9 4200.18L1418.05 3766.62L1684.02 3444.65Z" fill="black" stroke="black"/>
<ellipse cx="3531.34" cy="1436.18" rx="807.434" ry="909.199" transform="rotate(39.5591 3531.34 1436.18)" fill="#F25977"/>
<path d="M3410.89 848.03C3297.4 847.22 3242.44 856.528 3154.49 884.436L3212.59 1818.7L3305.4 1851.43L3839.98 1874.21L4175.37 1886.69L4267.8 1840.11L4289.09 1652.49L4306.08 1416.91L4270.34 1265.38C4193.11 1157.48 4139.47 1104.52 4028.48 1021.18C3918.72 942.359 3903.95 938.412 3749.21 888.176C3598.58 852.552 3525.73 845.082 3410.89 848.03Z" fill="#E3445B"/>
<path d="M3923.87 505.413C3575.66 428.834 3406.91 477.32 3148.38 732.6L3185.84 763.548C3401.82 636.067 3507.71 558.064 3848.97 596.087C4030.55 653.828 4093.19 710.142 4178.55 868.342C4297.57 1226.03 4297.78 1408.5 4234.74 1731.41L4181.94 1899.26L4286.22 1875.33L4395.89 1640.27C4432.16 1318.06 4410.07 1137.44 4298.79 815.119C4190.95 627.101 4111.56 554.608 3923.87 505.413Z" fill="black" stroke="black"/>
<path d="M2439.73 370.412C2257.85 594.978 1917.1 1160.27 1735.35 1703.17L1748.1 1984.62L3264.29 1954.64C3287.33 1769.62 3291.32 1661.8 3277.08 1459.66C3220.06 1205.34 3172.66 1053.82 3031.53 750.819C2868.84 510.513 2804.13 384.143 2667.98 299.679C2588.32 232.455 2522.33 252.785 2439.73 370.412Z" fill="#CC3A4B" stroke="#CC3A4B"/>
<path d="M2128.14 1115.61L1980.01 1716.26L1667.05 1723.55L1752.87 1487.52L1881.49 1191.38L2035.78 889.049L2189.54 620.532L2501.04 243.445L2561.68 252.427L2658.87 332.713L2354.09 701.655L2128.14 1115.61Z" fill="#BA2D41"/>
<path d="M2052.62 674.049C1855.44 1098.8 1732.55 1341.9 1658.72 1717.05L1701.84 1720.7L1924.69 1174.47L2135.1 794.254C2212.11 639.596 2271.75 547.605 2426.42 368.066C2510.75 252.544 2572.54 260.567 2701.77 370.353C2829.52 491.46 2872.9 544.063 2925.04 624.219C3067.86 866.164 3118.64 1012.87 3173.12 1288.17C3213.57 1557.22 3247.53 1675.96 3210.36 1865.65L3270.81 1862.15C3378.18 1623.44 3396.12 1485.13 3343.11 1229.46C3279.39 917.317 3220.5 751.416 3039.86 485.221C2945.49 342.497 2880.74 276.243 2741.01 186.278C2574.64 67.8705 2489.04 65.0897 2354.92 213.548C2198.92 417.682 2129.57 520.528 2052.62 674.049Z" fill="black"/>
<path d="M3832.81 1971.59L4831.65 1909.72L4888.66 1956.81L4885.91 2009.35L4822.09 2161.25L4681.47 2331.47L4319.74 2769.37L3947.43 3096.22L3397.54 3481L2777.38 3752.93L2303.76 3764.52L1953.23 3611.07L1526.44 3211.01L1269.83 2596.64L1253.72 2112.44L1451.3 1873.27L1584.35 1778.56L1844.94 1809.76L3832.81 1971.59Z" fill="#CC3A4B" stroke="black"/>
<path d="M1474.42 2761.99L1307.46 2676.6L1395.81 2997.59L1781.38 3469.11L2141.91 3766.93L2764.99 3785.62L3218.12 3600.89L3875.78 3168.57L4189.91 2858.52L4019.52 2918.27L3149.81 3127.92C2808.59 3168.93 2609.15 3169.8 2240.69 3136.47C1920.61 3033.96 1751.26 2955.28 1474.42 2761.99Z" fill="#BA2D41"/>
<path d="M4502.88 1890.26L4828.99 1910.72L4641.2 1940.12L4442.11 1963.83L3814.04 2000.39L3242.63 1972.78L2039.49 1872.27C1848.26 1833.12 1742.07 1819.24 1561.26 1861.79C1446.7 1946.87 1415.36 2002.09 1366.15 2097.98C1322.94 2334.6 1326.41 2464.34 1361.76 2692.68C1458.43 2923.79 1521.82 3039 1642.76 3232.19C1807.79 3385.7 1908.46 3462.01 2104 3578.95C2333.63 3665.45 2474.33 3691.94 2769.13 3658.42C3073.53 3533.82 3241.52 3456.68 3529.08 3286.39L4102.26 2815.34L4667.24 2260.79L4851.13 2006.66L4834.82 1903.66L4925.76 1978.79C4907.01 2073.1 4890.16 2124.85 4850 2215.37C4757.64 2358.73 4704.91 2429.56 4609.52 2542.42C4455.7 2704.71 4372.59 2786.84 4229.04 2920.07C4047.59 3103.28 3943.01 3191.79 3753.59 3335.29C3499.88 3507.31 3346.55 3592.85 3056.77 3729.32C2822.27 3829.52 2692.57 3862.47 2464.52 3876.77C2286.47 3844.19 2184.99 3810.8 1999.04 3706C1851.25 3605.08 1769.48 3544.76 1633.36 3403.92C1455.12 3236.63 1370.36 3119.07 1269.79 2830.01C1182.8 2608.78 1149.58 2474.57 1201.46 2162.44C1213.18 2041.55 1243.27 1964.86 1411.11 1784.8C1538.96 1724.1 1619.93 1708.99 1772.6 1698.84L2942.6 1819.02L4502.88 1890.26Z" fill="black" stroke="black"/>
</svg>
