<?xml version="1.0" encoding="UTF-8" standalone="no"?>
<!DOCTYPE svg PUBLIC "-//W3C//DTD SVG 1.1//EN" "http://www.w3.org/Graphics/SVG/1.1/DTD/svg11.dtd">
<svg xmlns="http://www.w3.org/2000/svg" version="1.1" viewBox="0.00 0.00 512.00 512.00">
<g stroke-width="2.00" fill="none" stroke-linecap="butt">
<path stroke="#d20a17" vector-effect="non-scaling-stroke" d="
  M 256.54 96.32
  Q 256.67 97.42 256.21 97.95
  A 0.85 0.82 -25.3 0 0 256.00 98.50
  L 256.00 191.77
  A 0.93 0.93 0.0 0 0 256.92 192.70
  C 289.92 193.08 318.97 220.18 319.38 253.75
  Q 319.68 278.39 319.47 353.25"
/>
<path stroke="#821921" vector-effect="non-scaling-stroke" d="
  M 319.47 353.25
  L 256.00 353.25"
/>
<path stroke="#f83c17" vector-effect="non-scaling-stroke" d="
  M 256.00 353.25
  L 256.01 194.05
  Q 256.01 192.86 254.82 192.89
  C 224.47 193.59 198.13 216.01 193.59 246.29
  Q 192.78 251.68 192.76 266.25
  Q 192.73 309.63 192.76 353.48"
/>
<path stroke="#962832" vector-effect="non-scaling-stroke" d="
  M 192.76 353.48
  L 96.47 353.46"
/>
<path stroke="#640f0a" vector-effect="non-scaling-stroke" d="
  M 415.73 352.74
  Q 415.67 353.25 415.25 353.25
  Q 367.40 353.25 319.47 353.25"
/>
<path stroke="#8a410a" vector-effect="non-scaling-stroke" d="
  M 256.00 353.25
  Q 256.00 353.37 255.99 353.49"
/>
<path stroke="#9e501c" vector-effect="non-scaling-stroke" d="
  M 255.99 353.49
  L 192.76 353.48"
/>
<path stroke="#282d26" vector-effect="non-scaling-stroke" d="
  M 443.89 417.19
  L 256.77 417.24
  A 0.78 0.78 0.0 0 1 255.99 416.46
  L 255.99 353.49"
/>
<path stroke="#505049" vector-effect="non-scaling-stroke" d="
  M 256.05 512.00
  L 256.00 418.27
  Q 256.00 417.74 255.47 417.74
  L 67.32 417.64"
/>
</g>
<path fill="#ff6400" d="
  M 254.57 0.00
  L 257.55 0.00
  C 267.82 1.98 270.96 8.65 270.99 18.46
  Q 271.04 39.81 270.99 47.00
  C 270.86 66.71 241.12 67.77 241.02 45.25
  Q 240.96 31.88 241.01 18.53
  C 241.04 8.62 244.15 1.92 254.57 0.00
  Z"
/>
<path fill="#ff6400" d="
  M 145.06 35.94
  Q 147.14 37.62 148.06 39.19
  Q 159.82 59.21 164.56 67.70
  C 172.63 82.16 154.47 97.44 141.85 86.40
  Q 139.78 84.59 136.66 79.24
  Q 129.81 67.50 123.07 55.68
  C 114.46 40.60 131.45 24.89 145.06 35.94
  Z"
/>
<rect fill="#ff6400" x="-14.95" y="-30.86" transform="translate(368.46,61.20) rotate(30.3)" width="29.90" height="61.72" rx="14.39"/>
<path fill="#f0142d" d="
  M 256.54 96.32
  Q 256.67 97.42 256.21 97.95
  A 0.85 0.82 -25.3 0 0 256.00 98.50
  L 256.00 191.77
  A 0.93 0.93 0.0 0 0 256.92 192.70
  C 289.92 193.08 318.97 220.18 319.38 253.75
  Q 319.68 278.39 319.47 353.25
  L 256.00 353.25
  L 256.01 194.05
  Q 256.01 192.86 254.82 192.89
  C 224.47 193.59 198.13 216.01 193.59 246.29
  Q 192.78 251.68 192.76 266.25
  Q 192.73 309.63 192.76 353.48
  L 96.47 353.46
  Q 96.52 302.11 96.50 250.75
  Q 96.49 240.04 99.16 226.32
  C 113.96 150.27 179.29 97.10 256.54 96.32
  Z"
/>
<path fill="#b40000" d="
  M 256.54 96.32
  C 337.82 96.77 405.78 157.86 414.84 238.72
  Q 415.67 246.09 415.70 258.69
  Q 415.81 305.72 415.73 352.74
  Q 415.67 353.25 415.25 353.25
  Q 367.40 353.25 319.47 353.25
  Q 319.68 278.39 319.38 253.75
  C 318.97 220.18 289.92 193.08 256.92 192.70
  A 0.93 0.93 0.0 0 1 256.00 191.77
  L 256.00 98.50
  A 0.85 0.82 -25.3 0 1 256.21 97.95
  Q 256.67 97.42 256.54 96.32
  Z"
/>
<path fill="#ff6400" d="
  M 84.06 139.69
  C 96.59 148.37 87.69 169.45 72.34 166.32
  Q 69.73 165.78 63.64 162.26
  Q 52.11 155.59 40.58 148.90
  C 22.70 138.53 36.66 112.75 55.72 123.15
  Q 76.74 134.61 84.06 139.69
  Z"
/>
<rect fill="#ff6400" x="-30.86" y="-14.93" transform="translate(450.81,143.54) rotate(-30.2)" width="61.72" height="29.86" rx="14.39"/>
<path fill="#ff6400" d="
  M 256.00 353.25
  Q 256.00 353.37 255.99 353.49
  L 192.76 353.48
  Q 192.73 309.63 192.76 266.25
  Q 192.78 251.68 193.59 246.29
  C 198.13 216.01 224.47 193.59 254.82 192.89
  Q 256.01 192.86 256.01 194.05
  L 256.00 353.25
  Z"
/>
<path fill="#ff6400" d="
  M 0.00 257.67
  L 0.00 254.21
  C 2.25 243.75 8.97 241.04 19.05 241.01
  Q 31.78 240.97 44.48 241.03
  Q 50.07 241.05 52.72 242.12
  C 64.65 246.92 65.20 264.55 53.43 269.62
  Q 50.31 270.97 43.25 270.98
  Q 31.29 271.01 19.34 271.01
  C 9.09 271.01 2.23 268.37 0.00 257.67
  Z"
/>
<path fill="#ff6400" d="
  M 512.00 254.57
  L 512.00 257.55
  C 510.02 267.86 503.34 270.96 493.51 270.99
  Q 481.32 271.02 469.14 271.00
  Q 462.52 270.99 459.95 270.11
  C 446.59 265.54 446.76 246.35 460.11 241.87
  Q 462.70 241.00 468.47 241.00
  Q 480.84 241.00 493.21 241.00
  C 503.22 241.00 510.03 244.01 512.00 254.57
  Z"
/>
<path fill="#141e14" d="
  M 415.73 352.74
  C 416.57 353.49 417.14 353.15 417.97 353.29
  C 427.21 354.77 431.52 360.87 431.75 369.77
  Q 432.12 384.44 432.01 399.12
  C 431.93 407.99 435.63 413.55 443.89 417.19
  L 256.77 417.24
  A 0.78 0.78 0.0 0 1 255.99 416.46
  L 255.99 353.49
  Q 256.00 353.37 256.00 353.25
  L 319.47 353.25
  Q 367.40 353.25 415.25 353.25
  Q 415.67 353.25 415.73 352.74
  Z"
/>
<path fill="#3c3c37" d="
  M 192.76 353.48
  L 255.99 353.49
  L 255.99 416.46
  A 0.78 0.78 0.0 0 0 256.77 417.24
  L 443.89 417.19
  Q 450.27 417.44 462.99 417.45
  C 474.59 417.47 480.00 424.61 480.00 435.30
  Q 480.00 464.99 479.99 494.67
  C 479.99 503.55 476.54 509.53 467.67 512.00
  L 256.05 512.00
  L 256.00 418.27
  Q 256.00 417.74 255.47 417.74
  L 67.32 417.64
  Q 75.79 414.25 78.79 407.47
  Q 80.27 404.14 80.26 396.33
  Q 80.25 386.16 80.24 375.99
  Q 80.23 365.90 81.82 362.23
  Q 85.40 353.99 96.47 353.46
  L 192.76 353.48
  Z"
/>
<path fill="#64645a" d="
  M 67.32 417.64
  L 255.47 417.74
  Q 256.00 417.74 256.00 418.27
  L 256.05 512.00
  L 45.70 512.00
  C 36.06 510.23 32.25 503.93 32.25 494.69
  Q 32.25 464.68 32.26 434.66
  C 32.26 421.65 39.83 417.67 51.75 417.70
  Q 59.67 417.72 67.32 417.64
  Z"
/>
</svg>
