<?xml version="1.0" encoding="UTF-8" standalone="no"?>
<!DOCTYPE svg PUBLIC "-//W3C//DTD SVG 1.1//EN" "http://www.w3.org/Graphics/SVG/1.1/DTD/svg11.dtd">
<svg xmlns="http://www.w3.org/2000/svg" version="1.1" viewBox="0.00 0.00 512.00 512.00">
<g stroke-width="2.00" fill="none" stroke-linecap="butt">
<path stroke="#602d33" vector-effect="non-scaling-stroke" d="
  M 102.13 96.49
  Q 85.59 101.11 71.57 109.76
  C 57.16 118.65 35.56 157.93 43.34 174.15
  C 51.30 190.72 72.16 188.58 84.06 177.72
  C 95.32 167.43 103.18 160.44 115.28 153.47
  C 123.49 148.74 129.09 139.54 134.99 132.96"
/>
<path stroke="#83605d" vector-effect="non-scaling-stroke" d="
  M 134.99 132.96
  Q 135.90 135.20 135.79 137.34"
/>
<path stroke="#6b5257" vector-effect="non-scaling-stroke" d="
  M 135.79 137.34
  C 134.95 152.76 125.80 157.69 113.90 165.40
  C 105.29 170.99 98.05 177.45 90.86 184.39
  A 1.30 1.28 -32.6 0 0 90.55 185.76
  Q 95.81 199.78 97.25 214.81"
/>
<path stroke="#83605d" vector-effect="non-scaling-stroke" d="
  M 97.25 214.81
  Q 99.80 243.17 81.59 263.68
  C 74.27 271.93 77.26 276.22 82.69 285.00
  C 87.49 292.77 94.01 296.93 100.63 302.21
  Q 102.65 303.82 105.20 304.63
  Q 128.40 312.00 147.51 326.54"
/>
<path stroke="#6b5257" vector-effect="non-scaling-stroke" d="
  M 147.51 326.54
  Q 156.22 333.20 163.67 340.83
  C 169.23 346.52 186.64 347.66 194.27 347.40
  Q 194.78 347.39 195.09 346.98
  Q 199.18 341.64 204.69 337.25"
/>
<path stroke="#82788c" vector-effect="non-scaling-stroke" d="
  M 204.69 337.25
  Q 219.22 328.74 236.48 328.35
  C 244.03 328.17 251.59 322.84 258.27 318.37"
/>
<path stroke="#a18f97" vector-effect="non-scaling-stroke" d="
  M 258.27 318.37
  Q 273.92 309.88 290.93 310.17"
/>
<path stroke="#82788c" vector-effect="non-scaling-stroke" d="
  M 290.93 310.17
  Q 302.55 311.24 310.89 316.13
  Q 311.46 316.47 311.95 316.02
  Q 330.84 298.90 354.04 290.98"
/>
<path stroke="#6b5257" vector-effect="non-scaling-stroke" d="
  M 354.04 290.98
  Q 358.32 289.74 359.19 288.69
  Q 375.65 268.56 383.16 242.70"
/>
<path stroke="#83605d" vector-effect="non-scaling-stroke" d="
  M 383.16 242.70
  Q 389.01 224.66 389.94 204.75
  Q 390.11 201.15 389.46 198.21
  A 3.74 3.73 -88.1 0 0 386.87 195.44
  L 372.58 191.21
  Q 372.06 191.06 371.69 191.45
  L 370.27 192.95"
/>
<path stroke="#a18f97" vector-effect="non-scaling-stroke" d="
  M 370.27 192.95
  Q 363.87 203.03 361.96 205.46
  C 354.67 214.75 343.80 212.07 332.00 210.50
  Q 323.63 209.39 309.71 209.85
  Q 309.25 209.87 309.14 210.32
  L 308.39 213.35"
/>
<path stroke="#82788c" vector-effect="non-scaling-stroke" d="
  M 308.39 213.35
  C 304.50 220.85 294.86 233.00 286.25 232.81
  Q 277.28 232.60 266.81 228.45"
/>
<path stroke="#a18f97" vector-effect="non-scaling-stroke" d="
  M 266.81 228.45
  L 261.66 225.05
  Q 261.25 224.77 260.77 224.83
  C 240.96 226.91 223.92 244.09 208.72 256.04
  C 192.03 269.17 174.43 274.32 152.82 273.00
  C 140.71 272.26 128.02 266.20 135.83 251.55
  Q 140.58 242.65 142.70 237.75
  A 0.39 0.39 0.0 0 0 142.15 237.25
  C 139.44 238.72 136.88 240.17 133.85 240.08
  C 117.93 239.62 121.05 215.27 123.33 206.01
  C 130.16 178.25 146.84 152.27 165.18 130.70
  Q 172.76 121.79 182.29 115.05
  Q 188.39 110.73 194.48 113.74
  Q 206.23 119.56 217.76 131.22"
/>
<path stroke="#83605d" vector-effect="non-scaling-stroke" d="
  M 217.76 131.22
  Q 251.81 162.84 263.47 208.20
  Q 263.60 208.70 264.04 208.44
  Q 277.36 200.60 292.76 198.74
  Q 293.40 198.66 293.00 198.16
  C 275.50 175.84 265.85 147.19 262.12 119.09"
/>
<path stroke="#a18f97" vector-effect="non-scaling-stroke" d="
  M 262.12 119.09
  C 261.04 111.77 258.63 97.21 268.76 95.45
  Q 279.72 93.54 290.96 93.80
  Q 291.62 93.81 291.12 93.39
  L 283.40 86.89"
/>
<path stroke="#83605d" vector-effect="non-scaling-stroke" d="
  M 283.40 86.89
  Q 272.87 76.53 261.50 67.70
  C 242.19 52.71 218.42 44.37 194.07 42.80
  C 187.71 42.39 182.62 40.66 177.11 37.98
  C 164.70 31.98 166.42 48.74 167.66 55.53
  Q 167.75 56.01 168.20 56.20
  C 171.79 57.70 176.22 59.50 178.74 62.47
  A 1.43 1.43 0.0 0 1 177.88 64.81
  C 171.87 65.77 164.10 64.04 158.00 63.28
  C 148.08 62.04 133.39 64.93 121.75 66.21
  C 113.81 67.08 106.98 65.19 99.70 61.97
  C 96.29 60.47 94.45 61.21 93.59 64.85
  C 90.76 76.81 94.64 87.38 102.13 96.49"
/>
<path stroke="#e1d1c5" vector-effect="non-scaling-stroke" d="
  M 283.40 86.89
  Q 275.11 86.05 267.31 86.43
  C 245.32 87.50 249.18 109.74 262.12 119.09"
/>
<path stroke="#e1d1c5" vector-effect="non-scaling-stroke" d="
  M 217.76 131.22
  Q 215.14 121.41 209.43 113.32
  C 193.96 91.43 170.52 100.39 158.08 119.06
  Q 147.88 134.35 138.93 150.43
  Q 138.74 150.77 138.09 151.06"
/>
<path stroke="#ab9485" vector-effect="non-scaling-stroke" d="
  M 138.09 151.06
  Q 137.98 143.81 135.79 137.34"
/>
<path stroke="#a06f61" vector-effect="non-scaling-stroke" d="
  M 134.99 132.96
  C 138.73 120.49 134.46 103.29 121.18 98.34
  Q 112.33 95.05 102.13 96.49"
/>
<path stroke="#aaabb4" vector-effect="non-scaling-stroke" d="
  M 137.72 152.41
  Q 125.95 172.86 116.31 194.12"
/>
<path stroke="#ab9485" vector-effect="non-scaling-stroke" d="
  M 114.32 198.22
  Q 107.81 208.81 97.25 214.81"
/>
<path stroke="#e0e8f4" vector-effect="non-scaling-stroke" d="
  M 266.81 228.45
  C 283.94 244.34 306.45 237.42 308.39 213.35"
/>
<path stroke="#e1d1c5" vector-effect="non-scaling-stroke" d="
  M 370.27 192.95
  C 383.92 200.11 381.98 213.06 379.01 225.50
  Q 375.54 240.08 369.96 253.98
  Q 369.85 254.28 370.23 255.07"
/>
<path stroke="#c9c2bf" vector-effect="non-scaling-stroke" d="
  M 370.23 255.07
  Q 369.54 255.06 368.96 256.25"
/>
<path stroke="#e0e8f4" vector-effect="non-scaling-stroke" d="
  M 368.96 256.25
  Q 355.67 273.30 340.67 283.91
  Q 318.68 299.48 290.93 310.17"
/>
<path stroke="#e0e8f4" vector-effect="non-scaling-stroke" d="
  M 258.27 318.37
  C 225.83 324.04 195.60 326.01 162.70 325.47"
/>
<path stroke="#e1d1c5" vector-effect="non-scaling-stroke" d="
  M 162.70 325.47
  C 138.91 316.25 111.27 301.14 94.21 281.76
  C 89.13 275.99 89.82 267.44 92.80 261.06
  C 97.19 251.69 101.78 242.19 104.97 232.62
  Q 110.58 215.72 114.32 198.22"
/>
<path stroke="#c9c2bf" vector-effect="non-scaling-stroke" d="
  M 114.32 198.22
  Q 115.78 196.97 116.31 194.12"
/>
<path stroke="#e0e8f4" vector-effect="non-scaling-stroke" d="
  M 116.31 194.12
  Q 117.17 194.41 117.52 193.76
  Q 125.54 179.02 133.58 166.58
  Q 137.28 160.86 137.72 152.41"
/>
<path stroke="#c9c2bf" vector-effect="non-scaling-stroke" d="
  M 137.72 152.41
  Q 138.27 151.43 138.09 151.06"
/>
<path stroke="#c2baba" vector-effect="non-scaling-stroke" d="
  M 162.70 325.47
  Q 162.80 325.63 162.89 325.79"
/>
<path stroke="#ab9485" vector-effect="non-scaling-stroke" d="
  M 162.89 325.79
  Q 155.00 325.17 147.51 326.54"
/>
<path stroke="#aaabb4" vector-effect="non-scaling-stroke" d="
  M 204.69 337.25
  Q 182.80 333.55 162.89 325.79"
/>
<path stroke="#ab9485" vector-effect="non-scaling-stroke" d="
  M 383.16 242.70
  Q 375.42 246.97 370.23 255.07"
/>
<path stroke="#aaabb4" vector-effect="non-scaling-stroke" d="
  M 354.04 290.98
  Q 362.45 273.92 368.96 256.25"
/>
<path stroke="#512731" vector-effect="non-scaling-stroke" d="
  M 282.89 73.06
  C 288.78 79.06 302.24 92.81 310.50 93.15
  C 320.11 93.54 334.67 91.81 337.21 80.45"
/>
<path stroke="#602d33" vector-effect="non-scaling-stroke" d="
  M 337.21 80.45
  Q 337.67 75.67 332.37 74.10
  C 316.97 69.52 302.76 61.89 287.95 54.60
  C 275.40 48.42 265.29 45.82 251.76 49.55
  Q 251.37 49.65 251.73 49.86
  Q 263.72 56.65 273.53 65.24
  Q 279.50 70.46 282.89 73.06"
/>
<path stroke="#6d3635" vector-effect="non-scaling-stroke" d="
  M 337.21 80.45
  C 320.37 85.16 299.71 78.66 282.89 73.06"
/>
<path stroke="#602d33" vector-effect="non-scaling-stroke" d="
  M 284.60 169.17
  C 287.36 175.52 302.22 202.23 309.51 202.02
  Q 326.74 201.52 343.73 204.30
  C 355.29 206.19 359.31 195.55 364.37 187.69
  Q 364.68 187.22 364.22 186.91
  C 350.15 177.32 344.13 155.83 339.33 139.84"
/>
<path stroke="#512731" vector-effect="non-scaling-stroke" d="
  M 339.33 139.84
  L 335.10 124.82
  A 1.19 1.18 -1.2 0 0 334.23 123.99
  Q 302.92 116.67 271.46 123.43
  A 0.77 0.77 0.0 0 0 270.86 124.31
  Q 274.74 147.40 284.60 169.17"
/>
<path stroke="#6d3635" vector-effect="non-scaling-stroke" d="
  M 339.33 139.84
  Q 338.13 146.16 337.95 152.00
  Q 337.92 153.36 336.96 155.50
  A 0.44 0.44 0.0 0 1 336.25 155.63
  C 324.56 143.65 301.38 134.90 294.23 157.64"
/>
<path stroke="#512731" vector-effect="non-scaling-stroke" d="
  M 294.23 157.64
  Q 292.16 159.50 291.64 163.06"
/>
<path stroke="#6d3635" vector-effect="non-scaling-stroke" d="
  M 291.64 163.06
  L 284.60 169.17"
/>
<path stroke="#602d33" vector-effect="non-scaling-stroke" d="
  M 291.64 163.06
  C 290.34 170.25 292.56 176.44 299.67 178.62
  C 312.16 182.45 328.44 183.42 339.25 174.66
  Q 343.16 171.50 338.15 171.91
  C 326.31 172.90 316.26 173.96 304.54 170.64
  C 299.13 169.11 295.94 162.75 294.23 157.64"
/>
<path stroke="#602d33" vector-effect="non-scaling-stroke" d="
  M 131.66 203.14
  Q 128.94 214.25 129.44 224.68
  C 130.00 236.39 136.69 231.55 142.21 227.21
  C 145.97 224.24 150.76 226.15 151.00 231.02
  C 151.47 240.90 146.15 248.28 142.15 256.87
  C 139.10 263.44 147.74 264.91 152.11 265.23
  C 169.69 266.53 187.76 262.69 201.83 251.57
  C 218.31 238.55 235.05 221.79 256.39 217.38
  Q 257.25 217.21 257.07 216.35
  Q 252.87 195.63 243.44 177.28"
/>
<path stroke="#512731" vector-effect="non-scaling-stroke" d="
  M 243.44 177.28
  Q 232.16 156.08 215.01 139.51
  Q 214.63 139.15 214.14 139.30
  C 196.63 144.58 179.45 156.34 165.70 168.19
  Q 145.23 185.83 131.66 203.14"
/>
<path stroke="#6d3635" vector-effect="non-scaling-stroke" d="
  M 243.44 177.28
  Q 231.97 177.30 220.57 179.50"
/>
<path stroke="#512731" vector-effect="non-scaling-stroke" d="
  M 220.57 179.50
  Q 216.92 176.66 212.64 177.25"
/>
<path stroke="#6d3635" vector-effect="non-scaling-stroke" d="
  M 212.64 177.25
  C 187.14 165.59 168.49 190.70 157.81 209.73
  Q 157.58 210.14 157.11 210.12
  Q 144.10 209.52 131.66 203.14"
/>
<path stroke="#602d33" vector-effect="non-scaling-stroke" d="
  M 212.64 177.25
  C 215.68 183.28 223.14 188.59 215.67 195.45
  Q 203.99 206.16 190.38 211.01
  C 181.36 214.22 170.82 216.84 162.51 221.35
  A 0.69 0.69 0.0 0 0 162.54 222.58
  C 180.15 231.03 219.56 211.35 227.42 194.23
  C 230.44 187.67 226.12 183.43 220.57 179.50"
/>
<path stroke="#a18f97" vector-effect="non-scaling-stroke" d="
  M 387.48 260.68
  C 392.04 261.00 395.85 260.74 400.94 262.03
  C 415.62 265.75 424.48 275.08 425.31 290.87
  A 0.90 0.89 -69.3 0 0 425.57 291.45
  L 426.09 291.97
  A 0.51 0.51 0.0 0 0 426.96 291.61
  C 426.94 278.95 424.02 269.74 417.74 257.74
  C 413.33 249.31 398.74 226.69 404.57 217.82
  C 410.49 208.81 416.87 199.92 408.27 190.46
  C 401.81 183.35 389.86 178.22 380.60 183.31
  Q 380.03 183.63 380.66 183.80
  C 395.59 187.90 400.35 190.56 399.21 207.70
  Q 397.40 234.85 387.11 260.08
  Q 386.88 260.64 387.48 260.68"
/>
<path stroke="#a18f97" vector-effect="non-scaling-stroke" d="
  M 58.75 206.75
  Q 58.66 208.33 57.79 209.59
  Q 57.48 210.03 57.03 209.74
  C 51.21 206.13 48.38 198.84 41.57 196.41
  C 32.65 193.22 23.97 197.20 19.09 205.01
  C 15.58 210.63 13.49 220.92 17.76 226.93
  C 22.62 233.76 34.35 236.64 37.13 244.48
  C 38.30 247.78 37.06 251.76 37.22 254.75
  Q 38.23 273.84 41.94 292.58
  C 42.78 296.83 43.07 300.52 42.83 304.48
  A 1.17 1.17 0.0 0 1 40.96 305.34
  C 34.22 300.21 30.88 286.53 29.93 278.57"
/>
<path stroke="#82788c" vector-effect="non-scaling-stroke" d="
  M 29.93 278.57
  Q 27.36 263.08 28.17 247.64
  Q 28.20 247.10 27.77 246.77
  L 24.09 243.96
  Q 23.23 243.31 23.00 244.36
  Q 19.32 261.16 18.26 277.74"
/>
<path stroke="#a18f97" vector-effect="non-scaling-stroke" d="
  M 18.26 277.74
  Q 14.34 337.56 40.66 390.79"
/>
<path stroke="#82788c" vector-effect="non-scaling-stroke" d="
  M 40.66 390.79
  C 54.24 418.61 75.53 443.84 103.11 458.49
  Q 103.68 458.79 103.64 458.15
  C 103.35 453.48 104.79 445.67 101.89 441.88
  Q 96.15 434.37 90.49 426.81
  Q 74.07 404.89 61.96 379.43"
/>
<path stroke="#a18f97" vector-effect="non-scaling-stroke" d="
  M 61.96 379.43
  C 59.24 373.16 57.06 366.21 57.60 359.10
  A 1.03 1.03 0.0 0 1 59.35 358.44
  Q 62.92 361.97 65.49 366.76
  C 71.77 378.46 78.33 391.49 84.68 401.76
  Q 95.63 419.48 108.99 435.52
  C 111.62 438.67 113.04 442.65 112.98 447.12
  C 112.85 457.76 112.52 471.20 124.18 476.33
  C 135.39 481.25 152.72 478.88 158.44 466.44
  Q 159.98 463.10 162.67 453.39"
/>
<path stroke="#82788c" vector-effect="non-scaling-stroke" d="
  M 162.67 453.39
  L 164.31 451.29
  A 1.55 1.54 -36.4 0 1 166.98 451.69
  Q 169.95 459.52 168.19 467.77
  Q 168.08 468.25 168.58 468.28
  Q 202.16 469.97 235.72 467.96
  Q 236.28 467.92 235.87 467.54
  C 212.02 444.98 198.08 411.42 192.09 379.83
  Q 189.98 368.73 191.17 357.43
  Q 191.21 357.04 190.82 357.00
  L 176.78 355.72
  A 0.24 0.24 0.0 0 0 176.56 356.11
  C 184.26 365.90 191.96 378.87 191.42 391.59
  A 1.32 1.31 -71.5 0 1 189.36 392.62
  C 184.60 389.31 178.87 377.53 175.64 372.01"
/>
<path stroke="#a18f97" vector-effect="non-scaling-stroke" d="
  M 175.64 372.01
  C 157.33 340.61 124.92 316.69 88.25 310.47
  Q 78.67 308.85 68.73 307.23
  A 1.60 1.60 0.0 0 1 68.11 304.31
  L 68.87 303.81"
/>
<path stroke="#82788c" vector-effect="non-scaling-stroke" d="
  M 68.87 303.81
  Q 75.72 301.17 83.96 301.58
  Q 84.42 301.60 84.09 301.28
  Q 76.88 294.08 70.99 283.53
  C 64.31 271.58 68.78 264.55 76.33 255.20
  C 91.37 236.58 90.37 212.63 82.41 191.22
  Q 82.22 190.72 81.74 190.96
  Q 69.63 197.02 56.17 195.00
  Q 55.57 194.91 55.95 195.39
  Q 59.73 200.26 58.75 206.75"
/>
<path stroke="#e0e8f4" vector-effect="non-scaling-stroke" d="
  M 68.87 303.81
  C 50.55 291.63 58.06 262.29 68.16 247.02
  C 72.89 239.89 73.34 233.78 70.49 225.50
  Q 66.56 214.06 58.75 206.75"
/>
<path stroke="#e0e8f4" vector-effect="non-scaling-stroke" d="
  M 175.64 372.01
  Q 181.35 387.77 182.92 403.51
  Q 183.76 411.97 182.21 420.99
  C 180.38 431.63 175.28 435.48 167.18 441.93
  Q 161.85 446.17 162.67 453.39"
/>
<path stroke="#e0e8f4" vector-effect="non-scaling-stroke" d="
  M 61.96 379.43
  Q 61.25 384.30 59.93 388.49
  C 56.68 398.90 48.74 397.45 42.15 391.06
  Q 41.80 390.72 41.31 390.75
  L 40.66 390.79"
/>
<path stroke="#e0e8f4" vector-effect="non-scaling-stroke" d="
  M 18.26 277.74
  C 24.97 272.05 24.24 275.27 29.93 278.57"
/>
<path stroke="#a18f97" vector-effect="non-scaling-stroke" d="
  M 277.05 212.19
  A 1.46 1.45 39.2 0 0 277.28 214.42
  Q 283.69 218.74 290.97 219.97
  C 295.00 220.65 300.26 211.39 301.31 208.49
  A 1.70 1.70 0.0 0 0 299.71 206.22
  C 293.81 206.25 281.37 207.80 277.05 212.19"
/>
<path stroke="#512731" vector-effect="non-scaling-stroke" d="
  M 374.06 285.39
  C 370.52 292.76 368.93 302.29 378.08 306.01
  C 389.77 310.76 415.30 312.46 415.86 293.73"
/>
<path stroke="#602d33" vector-effect="non-scaling-stroke" d="
  M 415.86 293.73
  C 416.48 273.87 399.37 268.24 382.99 270.46
  Q 382.48 270.53 382.22 270.98
  L 374.06 285.39"
/>
<path stroke="#6d3635" vector-effect="non-scaling-stroke" d="
  M 415.86 293.73
  Q 404.54 298.37 394.32 297.15
  Q 382.76 295.77 374.06 285.39"
/>
<path stroke="#602d33" vector-effect="non-scaling-stroke" d="
  M 328.00 350.96
  Q 326.41 350.10 324.89 350.95
  A 1.18 1.18 0.0 0 0 324.93 353.02
  C 326.96 354.07 329.03 354.81 330.38 356.71
  Q 335.38 363.74 326.59 368.18"
/>
<path stroke="#512731" vector-effect="non-scaling-stroke" d="
  M 326.59 368.18
  Q 322.55 367.78 319.22 365.83
  Q 318.79 365.58 318.42 365.91
  Q 310.94 372.59 299.05 374.07
  Q 288.18 375.43 278.63 379.83
  A 2.09 2.07 -5.1 0 0 277.49 381.18
  Q 274.43 393.00 276.64 404.92
  C 281.63 431.73 313.85 411.79 326.25 404.74
  Q 331.24 401.90 338.07 400.35
  Q 338.59 400.24 338.97 399.86
  L 344.08 394.79
  Q 344.47 394.41 344.60 393.88
  L 346.65 385.49"
/>
<path stroke="#6b5257" vector-effect="non-scaling-stroke" d="
  M 346.65 385.49
  Q 354.20 378.88 359.28 386.85
  A 0.85 0.85 0.0 0 0 360.83 386.55
  Q 361.23 384.45 361.96 382.61
  C 365.33 374.08 377.36 378.41 375.11 387.16
  A 0.83 0.83 0.0 0 0 376.61 387.82
  C 379.70 383.12 382.86 378.00 389.35 381.36
  Q 389.81 381.60 390.24 381.32
  Q 398.75 375.85 408.43 373.68"
/>
<path stroke="#512731" vector-effect="non-scaling-stroke" d="
  M 408.43 373.68
  C 411.69 373.38 415.00 372.93 418.19 373.21
  Q 435.88 374.77 451.41 383.59
  Q 451.97 383.91 452.42 383.45
  L 457.28 378.59
  Q 457.67 378.20 457.71 377.66
  C 458.07 372.99 460.45 367.67 460.06 363.27
  C 459.67 358.83 457.87 343.02 454.86 340.12"
/>
<path stroke="#602d33" vector-effect="non-scaling-stroke" d="
  M 454.86 340.12
  Q 455.17 339.54 454.80 338.48
  Q 448.60 320.94 434.59 308.63"
/>
<path stroke="#512731" vector-effect="non-scaling-stroke" d="
  M 434.59 308.63
  L 424.76 301.70
  Q 424.27 301.36 424.05 301.92
  C 420.66 310.81 413.25 315.43 404.39 317.74"
/>
<path stroke="#6b5257" vector-effect="non-scaling-stroke" d="
  M 404.39 317.74
  L 399.99 318.41
  Q 399.47 318.49 399.49 319.02
  C 399.63 323.66 399.35 326.97 394.90 329.32"
/>
<path stroke="#83605d" vector-effect="non-scaling-stroke" d="
  M 394.90 329.32
  Q 390.83 330.16 387.90 327.94"
/>
<path stroke="#6b5257" vector-effect="non-scaling-stroke" d="
  M 387.90 327.94
  C 384.82 324.67 385.60 322.16 385.48 318.50
  A 1.18 1.17 -37.9 0 0 383.18 318.22
  L 381.06 325.61"
/>
<path stroke="#83605d" vector-effect="non-scaling-stroke" d="
  M 381.06 325.61
  C 377.13 331.86 368.42 329.84 367.72 322.50
  Q 367.50 320.22 370.15 312.75
  A 0.38 0.38 0.0 0 0 369.80 312.25
  Q 369.66 312.25 369.51 312.24
  A 0.60 0.59 16.1 0 0 368.96 312.54
  C 366.50 316.88 361.15 318.90 357.18 315.29
  C 351.31 309.97 358.18 303.33 361.75 299.49
  A 0.51 0.51 0.0 0 0 361.23 298.66
  Q 337.43 305.67 319.08 322.28
  A 0.11 0.11 0.0 0 0 319.19 322.47
  C 323.11 321.20 328.89 319.85 332.22 322.54
  C 334.91 324.72 335.28 328.75 333.53 331.66
  C 331.79 334.57 327.70 334.98 324.63 335.42
  A 0.47 0.47 0.0 0 0 324.65 336.36
  C 329.17 336.75 337.18 337.37 338.86 342.43
  C 341.22 349.56 334.44 352.84 328.00 350.96"
/>
<path stroke="#ab9485" vector-effect="non-scaling-stroke" d="
  M 381.06 325.61
  Q 384.36 327.58 387.90 327.94"
/>
<path stroke="#ab9485" vector-effect="non-scaling-stroke" d="
  M 394.90 329.32
  Q 402.37 330.19 409.86 327.29"
/>
<path stroke="#a06f61" vector-effect="non-scaling-stroke" d="
  M 409.86 327.29
  Q 415.26 340.48 413.28 354.98"
/>
<path stroke="#ab9485" vector-effect="non-scaling-stroke" d="
  M 413.28 354.98
  C 401.15 353.68 387.42 353.47 377.76 357.72
  Q 363.18 364.15 345.12 377.50"
/>
<path stroke="#a06f61" vector-effect="non-scaling-stroke" d="
  M 345.12 377.50
  C 341.94 365.43 336.26 359.46 328.00 350.96"
/>
<path stroke="#795b59" vector-effect="non-scaling-stroke" d="
  M 346.65 385.49
  L 345.09 377.25"
/>
<path stroke="#88605b" vector-effect="non-scaling-stroke" d="
  M 345.12 377.50
  Q 345.10 377.37 345.09 377.25"
/>
<path stroke="#6d3635" vector-effect="non-scaling-stroke" d="
  M 345.09 377.25
  C 334.13 385.40 321.44 395.33 308.08 398.17
  C 300.53 399.78 289.73 397.87 287.24 389.21
  Q 287.06 388.56 287.73 388.56
  C 303.27 388.62 321.46 384.58 326.59 368.18"
/>
<path stroke="#6d3635" vector-effect="non-scaling-stroke" d="
  M 434.59 308.63
  Q 424.18 321.20 409.86 327.29"
/>
<path stroke="#795b59" vector-effect="non-scaling-stroke" d="
  M 409.86 327.29
  L 404.39 317.74"
/>
<path stroke="#6d3635" vector-effect="non-scaling-stroke" d="
  M 454.86 340.12
  C 453.42 347.12 450.84 353.88 443.51 355.99
  C 435.02 358.43 422.66 356.20 413.40 354.94"
/>
<path stroke="#88605b" vector-effect="non-scaling-stroke" d="
  M 413.40 354.94
  Q 413.34 354.96 413.28 354.98"
/>
<path stroke="#795b59" vector-effect="non-scaling-stroke" d="
  M 408.43 373.68
  Q 412.03 364.49 413.40 354.94"
/>
<path stroke="#83605d" vector-effect="non-scaling-stroke" d="
  M 200.34 363.89
  C 200.21 366.67 200.13 369.28 200.54 372.02
  Q 205.79 407.59 224.05 437.82"
/>
<path stroke="#6b5257" vector-effect="non-scaling-stroke" d="
  M 224.05 437.82
  Q 233.18 453.90 247.46 464.75"
/>
<path stroke="#512731" vector-effect="non-scaling-stroke" d="
  M 247.46 464.75
  C 261.55 476.39 274.67 477.59 292.74 475.41
  C 306.48 473.76 320.33 471.56 333.76 472.17
  C 343.89 472.64 358.86 482.67 368.17 474.03
  C 374.89 467.81 377.37 451.00 379.34 442.05
  Q 380.02 438.99 382.29 431.71
  Q 384.09 425.92 384.65 420.40"
/>
<path stroke="#602d33" vector-effect="non-scaling-stroke" d="
  M 384.65 420.40
  Q 384.77 413.59 383.14 408.08
  C 378.44 392.17 359.66 393.39 349.55 402.59
  C 338.50 412.65 338.64 423.32 334.78 437.92
  Q 334.62 438.52 334.01 438.43
  C 331.28 438.03 330.39 433.68 329.88 431.59"
/>
<path stroke="#512731" vector-effect="non-scaling-stroke" d="
  M 329.88 431.59
  Q 328.51 421.62 331.70 413.08
  A 0.40 0.40 0.0 0 0 331.12 412.60
  C 315.69 421.78 288.76 437.72 273.01 419.77"
/>
<path stroke="#6b5257" vector-effect="non-scaling-stroke" d="
  M 273.01 419.77
  Q 267.21 411.86 266.55 402.15"
/>
<path stroke="#82788c" vector-effect="non-scaling-stroke" d="
  M 266.55 402.15
  Q 265.82 395.28 266.60 388.88
  A 0.18 0.17 67.2 0 0 266.29 388.75
  Q 262.51 393.82 256.37 396.66"
/>
<path stroke="#6b5257" vector-effect="non-scaling-stroke" d="
  M 256.37 396.66
  Q 244.17 401.82 230.77 394.62"
/>
<path stroke="#512731" vector-effect="non-scaling-stroke" d="
  M 230.77 394.62
  Q 235.44 392.87 244.24 391.72
  C 254.72 390.35 259.15 381.48 266.98 375.94
  C 276.65 369.10 288.42 365.80 299.49 364.46
  Q 313.54 362.76 314.99 350.35"
/>
<path stroke="#602d33" vector-effect="non-scaling-stroke" d="
  M 314.99 350.35
  C 317.66 336.58 312.18 323.93 297.47 320.81
  C 279.92 317.08 268.31 323.50 253.81 332.05
  C 246.44 336.39 241.71 337.61 233.58 337.88
  C 219.22 338.35 199.66 346.42 200.34 363.89"
/>
<path stroke="#6d3635" vector-effect="non-scaling-stroke" d="
  M 314.99 350.35
  C 310.07 340.90 296.74 343.51 289.78 348.05
  Q 277.88 355.81 265.74 363.19
  C 253.65 370.54 242.92 371.21 228.32 371.29
  C 219.49 371.33 211.26 376.42 214.45 386.44
  Q 214.92 386.58 214.29 387.57"
/>
<path stroke="#a06f61" vector-effect="non-scaling-stroke" d="
  M 214.29 387.57
  Q 203.72 378.77 200.34 363.89"
/>
<path stroke="#ab9485" vector-effect="non-scaling-stroke" d="
  M 215.55 388.43
  Q 215.41 389.07 215.59 389.41
  C 224.84 406.23 243.02 420.04 260.47 427.60"
/>
<path stroke="#a06f61" vector-effect="non-scaling-stroke" d="
  M 260.47 427.60
  Q 247.55 437.56 245.98 453.74"
/>
<path stroke="#ab9485" vector-effect="non-scaling-stroke" d="
  M 245.98 453.74
  Q 234.69 447.47 224.05 437.82"
/>
<path stroke="#795b59" vector-effect="non-scaling-stroke" d="
  M 230.77 394.62
  Q 223.14 393.80 215.55 388.43"
/>
<path stroke="#91695f" vector-effect="non-scaling-stroke" d="
  M 215.55 388.43
  Q 214.94 387.56 214.29 387.57"
/>
<path stroke="#6d3635" vector-effect="non-scaling-stroke" d="
  M 384.65 420.40
  C 377.03 412.17 366.04 411.85 356.84 417.19
  C 341.37 426.17 349.74 454.59 325.18 449.83
  C 314.40 447.74 298.87 454.79 289.68 457.17
  C 275.88 460.75 259.78 460.75 246.19 453.67"
/>
<path stroke="#88605b" vector-effect="non-scaling-stroke" d="
  M 246.19 453.67
  Q 246.08 453.71 245.98 453.74"
/>
<path stroke="#6d3635" vector-effect="non-scaling-stroke" d="
  M 260.69 427.40
  Q 276.45 434.28 292.96 431.94
  C 305.56 430.15 317.03 429.76 329.88 431.59"
/>
<path stroke="#aaabb4" vector-effect="non-scaling-stroke" d="
  M 256.37 396.66
  L 266.55 402.15"
/>
<path stroke="#795b59" vector-effect="non-scaling-stroke" d="
  M 273.01 419.77
  Q 266.39 422.89 260.69 427.40"
/>
<path stroke="#88605b" vector-effect="non-scaling-stroke" d="
  M 260.69 427.40
  Q 259.91 427.64 260.47 427.60"
/>
<path stroke="#795b59" vector-effect="non-scaling-stroke" d="
  M 247.46 464.75
  Q 245.95 459.36 246.19 453.67"
/>
<path stroke="#512731" vector-effect="non-scaling-stroke" d="
  M 418.63 382.72
  C 409.86 381.38 392.76 387.81 388.27 395.91
  Q 388.01 396.37 388.27 396.84
  Q 395.29 409.28 393.87 423.13
  Q 393.52 426.61 390.75 435.70
  Q 388.43 443.33 387.00 451.13
  A 0.34 0.33 79.8 0 0 387.50 451.48
  C 400.85 443.50 414.99 439.17 430.45 444.04
  C 437.92 446.38 447.50 453.04 455.52 454.49
  Q 470.63 457.21 476.97 441.27
  C 479.84 434.06 482.76 421.64 486.54 412.17
  Q 488.63 406.95 490.70 401.99"
/>
<path stroke="#602d33" vector-effect="non-scaling-stroke" d="
  M 490.70 401.99
  C 494.68 392.42 497.62 381.08 483.07 380.01
  C 466.70 378.81 456.07 390.53 450.51 404.48
  Q 449.33 407.45 447.61 409.27
  A 1.29 1.29 0.0 0 1 445.39 408.52
  Q 444.54 400.46 447.31 392.78
  A 0.75 0.75 0.0 0 0 446.98 391.88
  Q 433.45 384.17 418.63 382.72"
/>
<path stroke="#6d3635" vector-effect="non-scaling-stroke" d="
  M 490.70 401.99
  Q 489.91 398.26 488.72 397.03
  C 484.49 392.69 474.94 389.88 470.23 395.26
  Q 465.03 401.19 459.75 410.59
  C 456.07 417.14 451.16 421.93 443.28 419.20
  Q 431.18 415.02 424.02 413.70
  C 416.73 412.37 400.88 406.76 405.03 396.56
  Q 408.52 388.01 418.63 382.72"
/>
<path stroke="#a18f97" vector-effect="non-scaling-stroke" d="
  M 264.01 273.13
  C 257.77 290.21 275.04 304.65 291.52 301.78
  C 316.18 297.49 326.17 267.22 306.99 250.13
  A 0.56 0.56 0.0 0 1 306.92 249.36
  Q 311.93 242.96 311.09 234.70
  A 1.16 1.16 0.0 0 0 308.97 234.18
  Q 306.65 237.67 304.06 241.35
  C 298.24 249.63 290.70 249.89 282.84 253.88
  C 274.74 258.00 267.10 264.67 264.01 273.13"
/>
<path stroke="#8c3f55" vector-effect="non-scaling-stroke" d="
  M 270.99 276.27
  Q 269.87 281.21 270.78 283.21
  C 278.56 300.39 299.63 296.00 307.21 281.45"
/>
<path stroke="#5a1436" vector-effect="non-scaling-stroke" d="
  M 307.21 281.45
  Q 313.20 265.89 301.07 255.32
  A 1.01 1.01 0.0 0 0 299.91 255.20
  Q 295.79 257.49 291.33 258.91
  Q 277.35 263.37 270.99 276.27"
/>
<path stroke="#a3355c" vector-effect="non-scaling-stroke" d="
  M 307.21 281.45
  Q 290.21 274.59 270.99 276.27"
/>
</g>
<path fill="#431e2f" d="
  M 14.51 237.00
  C 2.49 227.65 4.34 209.16 12.52 197.93
  Q 21.86 185.12 39.27 185.91
  Q 39.96 185.94 39.51 185.42
  C 21.12 164.26 43.02 125.62 58.04 108.79
  C 64.96 101.02 77.45 95.11 87.11 91.68
  Q 87.61 91.50 87.40 91.00
  C 81.96 78.32 81.42 65.38 88.41 53.43
  C 90.96 49.08 94.73 49.15 99.04 51.33
  C 106.60 55.18 113.54 58.01 122.00 56.83
  C 136.57 54.79 145.75 53.38 157.51 53.91
  Q 158.04 53.93 157.96 53.40
  Q 156.19 41.45 161.19 30.84
  C 165.81 21.03 172.24 23.53 179.71 28.51
  Q 186.61 33.11 194.68 33.53
  C 209.91 34.31 224.05 37.65 237.96 43.62
  A 2.97 2.97 0.0 0 0 240.37 43.59
  Q 259.03 35.14 279.25 40.69
  Q 284.42 42.10 300.16 50.16
  C 309.17 54.77 318.87 60.12 328.52 63.14
  C 332.35 64.33 336.56 65.31 339.71 67.30
  C 348.15 72.63 348.39 82.09 343.34 89.98
  Q 337.41 99.24 325.46 100.91
  A 0.61 0.61 0.0 0 0 325.21 102.03
  C 332.78 106.99 342.48 114.96 344.79 124.17
  Q 349.39 142.46 357.38 162.82
  Q 361.52 173.36 369.79 179.58
  A 0.65 0.65 0.0 0 0 370.66 179.51
  C 388.58 160.77 427.19 180.17 421.26 206.01
  Q 419.41 214.04 412.39 222.51
  A 1.16 1.11 -31.3 0 0 412.14 223.45
  C 413.89 232.67 420.40 242.67 425.39 252.18
  C 433.60 267.80 437.37 280.28 436.03 297.28
  A 0.94 0.93 20.9 0 0 436.40 298.10
  C 457.41 313.91 467.83 337.63 469.54 363.51
  Q 469.58 364.01 469.98 364.30
  Q 473.29 366.66 473.11 370.86
  Q 473.09 371.48 473.70 371.38
  Q 474.48 371.25 474.66 370.27
  C 476.51 360.21 489.34 361.54 488.75 370.68
  Q 488.71 371.27 489.27 371.47
  L 491.61 372.30
  Q 492.11 372.48 492.41 372.05
  C 499.44 362.22 511.61 372.27 502.71 381.55
  Q 502.33 381.94 502.46 382.47
  C 506.06 396.99 495.94 411.61 491.96 425.16
  Q 488.07 438.37 485.71 444.69
  C 479.45 461.43 464.05 468.54 447.15 461.81
  C 439.49 458.75 429.49 452.04 419.68 451.24
  C 407.82 450.28 393.90 457.44 384.71 464.53
  C 382.35 466.35 380.65 472.50 379.38 474.74
  C 370.21 491.00 352.76 487.42 338.19 482.63
  Q 334.24 481.33 331.14 481.20
  C 315.33 480.55 295.67 485.76 280.85 486.00
  Q 263.20 486.28 247.77 476.51
  Q 247.34 476.24 246.84 476.29
  Q 205.04 480.10 163.19 477.26
  Q 162.14 477.19 161.16 478.35
  C 152.56 488.56 135.91 489.54 124.03 486.17
  Q 111.56 482.62 106.46 470.83
  Q 106.26 470.37 105.80 470.16
  C 75.60 456.70 52.22 431.99 36.60 403.27
  C 9.29 353.07 0.79 294.61 14.86 238.01
  A 0.99 0.98 -64.3 0 0 14.51 237.00
  Z
  M 102.13 96.49
  Q 85.59 101.11 71.57 109.76
  C 57.16 118.65 35.56 157.93 43.34 174.15
  C 51.30 190.72 72.16 188.58 84.06 177.72
  C 95.32 167.43 103.18 160.44 115.28 153.47
  C 123.49 148.74 129.09 139.54 134.99 132.96
  Q 135.90 135.20 135.79 137.34
  C 134.95 152.76 125.80 157.69 113.90 165.40
  C 105.29 170.99 98.05 177.45 90.86 184.39
  A 1.30 1.28 -32.6 0 0 90.55 185.76
  Q 95.81 199.78 97.25 214.81
  Q 99.80 243.17 81.59 263.68
  C 74.27 271.93 77.26 276.22 82.69 285.00
  C 87.49 292.77 94.01 296.93 100.63 302.21
  Q 102.65 303.82 105.20 304.63
  Q 128.40 312.00 147.51 326.54
  Q 156.22 333.20 163.67 340.83
  C 169.23 346.52 186.64 347.66 194.27 347.40
  Q 194.78 347.39 195.09 346.98
  Q 199.18 341.64 204.69 337.25
  Q 219.22 328.74 236.48 328.35
  C 244.03 328.17 251.59 322.84 258.27 318.37
  Q 273.92 309.88 290.93 310.17
  Q 302.55 311.24 310.89 316.13
  Q 311.46 316.47 311.95 316.02
  Q 330.84 298.90 354.04 290.98
  Q 358.32 289.74 359.19 288.69
  Q 375.65 268.56 383.16 242.70
  Q 389.01 224.66 389.94 204.75
  Q 390.11 201.15 389.46 198.21
  A 3.74 3.73 -88.1 0 0 386.87 195.44
  L 372.58 191.21
  Q 372.06 191.06 371.69 191.45
  L 370.27 192.95
  Q 363.87 203.03 361.96 205.46
  C 354.67 214.75 343.80 212.07 332.00 210.50
  Q 323.63 209.39 309.71 209.85
  Q 309.25 209.87 309.14 210.32
  L 308.39 213.35
  C 304.50 220.85 294.86 233.00 286.25 232.81
  Q 277.28 232.60 266.81 228.45
  L 261.66 225.05
  Q 261.25 224.77 260.77 224.83
  C 240.96 226.91 223.92 244.09 208.72 256.04
  C 192.03 269.17 174.43 274.32 152.82 273.00
  C 140.71 272.26 128.02 266.20 135.83 251.55
  Q 140.58 242.65 142.70 237.75
  A 0.39 0.39 0.0 0 0 142.15 237.25
  C 139.44 238.72 136.88 240.17 133.85 240.08
  C 117.93 239.62 121.05 215.27 123.33 206.01
  C 130.16 178.25 146.84 152.27 165.18 130.70
  Q 172.76 121.79 182.29 115.05
  Q 188.39 110.73 194.48 113.74
  Q 206.23 119.56 217.76 131.22
  Q 251.81 162.84 263.47 208.20
  Q 263.60 208.70 264.04 208.44
  Q 277.36 200.60 292.76 198.74
  Q 293.40 198.66 293.00 198.16
  C 275.50 175.84 265.85 147.19 262.12 119.09
  C 261.04 111.77 258.63 97.21 268.76 95.45
  Q 279.72 93.54 290.96 93.80
  Q 291.62 93.81 291.12 93.39
  L 283.40 86.89
  Q 272.87 76.53 261.50 67.70
  C 242.19 52.71 218.42 44.37 194.07 42.80
  C 187.71 42.39 182.62 40.66 177.11 37.98
  C 164.70 31.98 166.42 48.74 167.66 55.53
  Q 167.75 56.01 168.20 56.20
  C 171.79 57.70 176.22 59.50 178.74 62.47
  A 1.43 1.43 0.0 0 1 177.88 64.81
  C 171.87 65.77 164.10 64.04 158.00 63.28
  C 148.08 62.04 133.39 64.93 121.75 66.21
  C 113.81 67.08 106.98 65.19 99.70 61.97
  C 96.29 60.47 94.45 61.21 93.59 64.85
  C 90.76 76.81 94.64 87.38 102.13 96.49
  Z
  M 282.89 73.06
  C 288.78 79.06 302.24 92.81 310.50 93.15
  C 320.11 93.54 334.67 91.81 337.21 80.45
  Q 337.67 75.67 332.37 74.10
  C 316.97 69.52 302.76 61.89 287.95 54.60
  C 275.40 48.42 265.29 45.82 251.76 49.55
  Q 251.37 49.65 251.73 49.86
  Q 263.72 56.65 273.53 65.24
  Q 279.50 70.46 282.89 73.06
  Z
  M 284.60 169.17
  C 287.36 175.52 302.22 202.23 309.51 202.02
  Q 326.74 201.52 343.73 204.30
  C 355.29 206.19 359.31 195.55 364.37 187.69
  Q 364.68 187.22 364.22 186.91
  C 350.15 177.32 344.13 155.83 339.33 139.84
  L 335.10 124.82
  A 1.19 1.18 -1.2 0 0 334.23 123.99
  Q 302.92 116.67 271.46 123.43
  A 0.77 0.77 0.0 0 0 270.86 124.31
  Q 274.74 147.40 284.60 169.17
  Z
  M 131.66 203.14
  Q 128.94 214.25 129.44 224.68
  C 130.00 236.39 136.69 231.55 142.21 227.21
  C 145.97 224.24 150.76 226.15 151.00 231.02
  C 151.47 240.90 146.15 248.28 142.15 256.87
  C 139.10 263.44 147.74 264.91 152.11 265.23
  C 169.69 266.53 187.76 262.69 201.83 251.57
  C 218.31 238.55 235.05 221.79 256.39 217.38
  Q 257.25 217.21 257.07 216.35
  Q 252.87 195.63 243.44 177.28
  Q 232.16 156.08 215.01 139.51
  Q 214.63 139.15 214.14 139.30
  C 196.63 144.58 179.45 156.34 165.70 168.19
  Q 145.23 185.83 131.66 203.14
  Z
  M 387.48 260.68
  C 392.04 261.00 395.85 260.74 400.94 262.03
  C 415.62 265.75 424.48 275.08 425.31 290.87
  A 0.90 0.89 -69.3 0 0 425.57 291.45
  L 426.09 291.97
  A 0.51 0.51 0.0 0 0 426.96 291.61
  C 426.94 278.95 424.02 269.74 417.74 257.74
  C 413.33 249.31 398.74 226.69 404.57 217.82
  C 410.49 208.81 416.87 199.92 408.27 190.46
  C 401.81 183.35 389.86 178.22 380.60 183.31
  Q 380.03 183.63 380.66 183.80
  C 395.59 187.90 400.35 190.56 399.21 207.70
  Q 397.40 234.85 387.11 260.08
  Q 386.88 260.64 387.48 260.68
  Z
  M 58.75 206.75
  Q 58.66 208.33 57.79 209.59
  Q 57.48 210.03 57.03 209.74
  C 51.21 206.13 48.38 198.84 41.57 196.41
  C 32.65 193.22 23.97 197.20 19.09 205.01
  C 15.58 210.63 13.49 220.92 17.76 226.93
  C 22.62 233.76 34.35 236.64 37.13 244.48
  C 38.30 247.78 37.06 251.76 37.22 254.75
  Q 38.23 273.84 41.94 292.58
  C 42.78 296.83 43.07 300.52 42.83 304.48
  A 1.17 1.17 0.0 0 1 40.96 305.34
  C 34.22 300.21 30.88 286.53 29.93 278.57
  Q 27.36 263.08 28.17 247.64
  Q 28.20 247.10 27.77 246.77
  L 24.09 243.96
  Q 23.23 243.31 23.00 244.36
  Q 19.32 261.16 18.26 277.74
  Q 14.34 337.56 40.66 390.79
  C 54.24 418.61 75.53 443.84 103.11 458.49
  Q 103.68 458.79 103.64 458.15
  C 103.35 453.48 104.79 445.67 101.89 441.88
  Q 96.15 434.37 90.49 426.81
  Q 74.07 404.89 61.96 379.43
  C 59.24 373.16 57.06 366.21 57.60 359.10
  A 1.03 1.03 0.0 0 1 59.35 358.44
  Q 62.92 361.97 65.49 366.76
  C 71.77 378.46 78.33 391.49 84.68 401.76
  Q 95.63 419.48 108.99 435.52
  C 111.62 438.67 113.04 442.65 112.98 447.12
  C 112.85 457.76 112.52 471.20 124.18 476.33
  C 135.39 481.25 152.72 478.88 158.44 466.44
  Q 159.98 463.10 162.67 453.39
  L 164.31 451.29
  A 1.55 1.54 -36.4 0 1 166.98 451.69
  Q 169.95 459.52 168.19 467.77
  Q 168.08 468.25 168.58 468.28
  Q 202.16 469.97 235.72 467.96
  Q 236.28 467.92 235.87 467.54
  C 212.02 444.98 198.08 411.42 192.09 379.83
  Q 189.98 368.73 191.17 357.43
  Q 191.21 357.04 190.82 357.00
  L 176.78 355.72
  A 0.24 0.24 0.0 0 0 176.56 356.11
  C 184.26 365.90 191.96 378.87 191.42 391.59
  A 1.32 1.31 -71.5 0 1 189.36 392.62
  C 184.60 389.31 178.87 377.53 175.64 372.01
  C 157.33 340.61 124.92 316.69 88.25 310.47
  Q 78.67 308.85 68.73 307.23
  A 1.60 1.60 0.0 0 1 68.11 304.31
  L 68.87 303.81
  Q 75.72 301.17 83.96 301.58
  Q 84.42 301.60 84.09 301.28
  Q 76.88 294.08 70.99 283.53
  C 64.31 271.58 68.78 264.55 76.33 255.20
  C 91.37 236.58 90.37 212.63 82.41 191.22
  Q 82.22 190.72 81.74 190.96
  Q 69.63 197.02 56.17 195.00
  Q 55.57 194.91 55.95 195.39
  Q 59.73 200.26 58.75 206.75
  Z
  M 277.05 212.19
  A 1.46 1.45 39.2 0 0 277.28 214.42
  Q 283.69 218.74 290.97 219.97
  C 295.00 220.65 300.26 211.39 301.31 208.49
  A 1.70 1.70 0.0 0 0 299.71 206.22
  C 293.81 206.25 281.37 207.80 277.05 212.19
  Z
  M 374.06 285.39
  C 370.52 292.76 368.93 302.29 378.08 306.01
  C 389.77 310.76 415.30 312.46 415.86 293.73
  C 416.48 273.87 399.37 268.24 382.99 270.46
  Q 382.48 270.53 382.22 270.98
  L 374.06 285.39
  Z
  M 328.00 350.96
  Q 326.41 350.10 324.89 350.95
  A 1.18 1.18 0.0 0 0 324.93 353.02
  C 326.96 354.07 329.03 354.81 330.38 356.71
  Q 335.38 363.74 326.59 368.18
  Q 322.55 367.78 319.22 365.83
  Q 318.79 365.58 318.42 365.91
  Q 310.94 372.59 299.05 374.07
  Q 288.18 375.43 278.63 379.83
  A 2.09 2.07 -5.1 0 0 277.49 381.18
  Q 274.43 393.00 276.64 404.92
  C 281.63 431.73 313.85 411.79 326.25 404.74
  Q 331.24 401.90 338.07 400.35
  Q 338.59 400.24 338.97 399.86
  L 344.08 394.79
  Q 344.47 394.41 344.60 393.88
  L 346.65 385.49
  Q 354.20 378.88 359.28 386.85
  A 0.85 0.85 0.0 0 0 360.83 386.55
  Q 361.23 384.45 361.96 382.61
  C 365.33 374.08 377.36 378.41 375.11 387.16
  A 0.83 0.83 0.0 0 0 376.61 387.82
  C 379.70 383.12 382.86 378.00 389.35 381.36
  Q 389.81 381.60 390.24 381.32
  Q 398.75 375.85 408.43 373.68
  C 411.69 373.38 415.00 372.93 418.19 373.21
  Q 435.88 374.77 451.41 383.59
  Q 451.97 383.91 452.42 383.45
  L 457.28 378.59
  Q 457.67 378.20 457.71 377.66
  C 458.07 372.99 460.45 367.67 460.06 363.27
  C 459.67 358.83 457.87 343.02 454.86 340.12
  Q 455.17 339.54 454.80 338.48
  Q 448.60 320.94 434.59 308.63
  L 424.76 301.70
  Q 424.27 301.36 424.05 301.92
  C 420.66 310.81 413.25 315.43 404.39 317.74
  L 399.99 318.41
  Q 399.47 318.49 399.49 319.02
  C 399.63 323.66 399.35 326.97 394.90 329.32
  Q 390.83 330.16 387.90 327.94
  C 384.82 324.67 385.60 322.16 385.48 318.50
  A 1.18 1.17 -37.9 0 0 383.18 318.22
  L 381.06 325.61
  C 377.13 331.86 368.42 329.84 367.72 322.50
  Q 367.50 320.22 370.15 312.75
  A 0.38 0.38 0.0 0 0 369.80 312.25
  Q 369.66 312.25 369.51 312.24
  A 0.60 0.59 16.1 0 0 368.96 312.54
  C 366.50 316.88 361.15 318.90 357.18 315.29
  C 351.31 309.97 358.18 303.33 361.75 299.49
  A 0.51 0.51 0.0 0 0 361.23 298.66
  Q 337.43 305.67 319.08 322.28
  A 0.11 0.11 0.0 0 0 319.19 322.47
  C 323.11 321.20 328.89 319.85 332.22 322.54
  C 334.91 324.72 335.28 328.75 333.53 331.66
  C 331.79 334.57 327.70 334.98 324.63 335.42
  A 0.47 0.47 0.0 0 0 324.65 336.36
  C 329.17 336.75 337.18 337.37 338.86 342.43
  C 341.22 349.56 334.44 352.84 328.00 350.96
  Z
  M 200.34 363.89
  C 200.21 366.67 200.13 369.28 200.54 372.02
  Q 205.79 407.59 224.05 437.82
  Q 233.18 453.90 247.46 464.75
  C 261.55 476.39 274.67 477.59 292.74 475.41
  C 306.48 473.76 320.33 471.56 333.76 472.17
  C 343.89 472.64 358.86 482.67 368.17 474.03
  C 374.89 467.81 377.37 451.00 379.34 442.05
  Q 380.02 438.99 382.29 431.71
  Q 384.09 425.92 384.65 420.40
  Q 384.77 413.59 383.14 408.08
  C 378.44 392.17 359.66 393.39 349.55 402.59
  C 338.50 412.65 338.64 423.32 334.78 437.92
  Q 334.62 438.52 334.01 438.43
  C 331.28 438.03 330.39 433.68 329.88 431.59
  Q 328.51 421.62 331.70 413.08
  A 0.40 0.40 0.0 0 0 331.12 412.60
  C 315.69 421.78 288.76 437.72 273.01 419.77
  Q 267.21 411.86 266.55 402.15
  Q 265.82 395.28 266.60 388.88
  A 0.18 0.17 67.2 0 0 266.29 388.75
  Q 262.51 393.82 256.37 396.66
  Q 244.17 401.82 230.77 394.62
  Q 235.44 392.87 244.24 391.72
  C 254.72 390.35 259.15 381.48 266.98 375.94
  C 276.65 369.10 288.42 365.80 299.49 364.46
  Q 313.54 362.76 314.99 350.35
  C 317.66 336.58 312.18 323.93 297.47 320.81
  C 279.92 317.08 268.31 323.50 253.81 332.05
  C 246.44 336.39 241.71 337.61 233.58 337.88
  C 219.22 338.35 199.66 346.42 200.34 363.89
  Z
  M 418.63 382.72
  C 409.86 381.38 392.76 387.81 388.27 395.91
  Q 388.01 396.37 388.27 396.84
  Q 395.29 409.28 393.87 423.13
  Q 393.52 426.61 390.75 435.70
  Q 388.43 443.33 387.00 451.13
  A 0.34 0.33 79.8 0 0 387.50 451.48
  C 400.85 443.50 414.99 439.17 430.45 444.04
  C 437.92 446.38 447.50 453.04 455.52 454.49
  Q 470.63 457.21 476.97 441.27
  C 479.84 434.06 482.76 421.64 486.54 412.17
  Q 488.63 406.95 490.70 401.99
  C 494.68 392.42 497.62 381.08 483.07 380.01
  C 466.70 378.81 456.07 390.53 450.51 404.48
  Q 449.33 407.45 447.61 409.27
  A 1.29 1.29 0.0 0 1 445.39 408.52
  Q 444.54 400.46 447.31 392.78
  A 0.75 0.75 0.0 0 0 446.98 391.88
  Q 433.45 384.17 418.63 382.72
  Z"
/>
<path fill="#c3a28b" d="
  M 283.40 86.89
  Q 275.11 86.05 267.31 86.43
  C 245.32 87.50 249.18 109.74 262.12 119.09
  C 265.85 147.19 275.50 175.84 293.00 198.16
  Q 293.40 198.66 292.76 198.74
  Q 277.36 200.60 264.04 208.44
  Q 263.60 208.70 263.47 208.20
  Q 251.81 162.84 217.76 131.22
  Q 215.14 121.41 209.43 113.32
  C 193.96 91.43 170.52 100.39 158.08 119.06
  Q 147.88 134.35 138.93 150.43
  Q 138.74 150.77 138.09 151.06
  Q 137.98 143.81 135.79 137.34
  Q 135.90 135.20 134.99 132.96
  C 138.73 120.49 134.46 103.29 121.18 98.34
  Q 112.33 95.05 102.13 96.49
  C 94.64 87.38 90.76 76.81 93.59 64.85
  C 94.45 61.21 96.29 60.47 99.70 61.97
  C 106.98 65.19 113.81 67.08 121.75 66.21
  C 133.39 64.93 148.08 62.04 158.00 63.28
  C 164.10 64.04 171.87 65.77 177.88 64.81
  A 1.43 1.43 0.0 0 0 178.74 62.47
  C 176.22 59.50 171.79 57.70 168.20 56.20
  Q 167.75 56.01 167.66 55.53
  C 166.42 48.74 164.70 31.98 177.11 37.98
  C 182.62 40.66 187.71 42.39 194.07 42.80
  C 218.42 44.37 242.19 52.71 261.50 67.70
  Q 272.87 76.53 283.40 86.89
  Z"
/>
<path fill="#7c3b37" d="
  M 337.21 80.45
  C 320.37 85.16 299.71 78.66 282.89 73.06
  Q 279.50 70.46 273.53 65.24
  Q 263.72 56.65 251.73 49.86
  Q 251.37 49.65 251.76 49.55
  C 265.29 45.82 275.40 48.42 287.95 54.60
  C 302.76 61.89 316.97 69.52 332.37 74.10
  Q 337.67 75.67 337.21 80.45
  Z"
/>
<path fill="#5e3032" d="
  M 282.89 73.06
  C 299.71 78.66 320.37 85.16 337.21 80.45
  C 334.67 91.81 320.11 93.54 310.50 93.15
  C 302.24 92.81 288.78 79.06 282.89 73.06
  Z"
/>
<path fill="#0987ce" d="
  M 385.65 90.03
  A 0.46 0.46 0.0 0 0 385.87 89.15
  C 383.08 87.73 374.17 84.45 374.66 80.84
  C 376.08 70.33 391.75 82.30 395.25 84.76
  C 397.62 86.42 407.34 92.69 403.76 96.41
  Q 402.80 97.40 401.44 97.44
  Q 392.34 97.69 383.31 96.93
  A 0.51 0.51 0.0 0 0 383.03 97.88
  Q 388.41 100.79 393.90 104.01
  C 397.45 106.10 394.38 111.83 390.92 111.74
  C 385.55 111.60 372.33 102.07 367.25 98.50
  C 363.50 95.86 361.56 91.42 367.47 89.72
  C 372.74 88.21 380.15 89.90 385.65 90.03
  Z"
/>
<path fill="#ffffff" d="
  M 283.40 86.89
  L 291.12 93.39
  Q 291.62 93.81 290.96 93.80
  Q 279.72 93.54 268.76 95.45
  C 258.63 97.21 261.04 111.77 262.12 119.09
  C 249.18 109.74 245.32 87.50 267.31 86.43
  Q 275.11 86.05 283.40 86.89
  Z"
/>
<path fill="#0987ce" d="
  M 428.66 110.53
  Q 424.11 106.46 418.30 103.21
  C 413.95 100.78 412.18 92.37 419.75 93.24
  C 425.85 93.94 439.86 106.37 443.59 110.15
  C 447.05 113.67 442.70 118.12 439.24 118.76
  C 434.41 119.64 426.10 119.09 416.26 120.72
  A 1.33 1.32 -20.7 0 0 415.35 122.73
  C 418.57 127.91 424.75 130.96 428.92 135.77
  A 1.50 1.49 -68.6 0 1 429.27 136.58
  C 429.66 140.08 425.52 142.87 422.62 142.31
  C 418.07 141.44 403.92 126.19 402.46 124.54
  C 398.62 120.16 399.25 112.75 406.31 112.58
  Q 417.17 112.32 428.19 111.84
  A 0.75 0.75 0.0 0 0 428.66 110.53
  Z"
/>
<path fill="#7c3b37" d="
  M 134.99 132.96
  C 129.09 139.54 123.49 148.74 115.28 153.47
  C 103.18 160.44 95.32 167.43 84.06 177.72
  C 72.16 188.58 51.30 190.72 43.34 174.15
  C 35.56 157.93 57.16 118.65 71.57 109.76
  Q 85.59 101.11 102.13 96.49
  Q 112.33 95.05 121.18 98.34
  C 134.46 103.29 138.73 120.49 134.99 132.96
  Z"
/>
<path fill="#ffffff" d="
  M 217.76 131.22
  Q 206.23 119.56 194.48 113.74
  Q 188.39 110.73 182.29 115.05
  Q 172.76 121.79 165.18 130.70
  C 146.84 152.27 130.16 178.25 123.33 206.01
  C 121.05 215.27 117.93 239.62 133.85 240.08
  C 136.88 240.17 139.44 238.72 142.15 237.25
  A 0.39 0.39 0.0 0 1 142.70 237.75
  Q 140.58 242.65 135.83 251.55
  C 128.02 266.20 140.71 272.26 152.82 273.00
  C 174.43 274.32 192.03 269.17 208.72 256.04
  C 223.92 244.09 240.96 226.91 260.77 224.83
  Q 261.25 224.77 261.66 225.05
  L 266.81 228.45
  C 283.94 244.34 306.45 237.42 308.39 213.35
  L 309.14 210.32
  Q 309.25 209.87 309.71 209.85
  Q 323.63 209.39 332.00 210.50
  C 343.80 212.07 354.67 214.75 361.96 205.46
  Q 363.87 203.03 370.27 192.95
  C 383.92 200.11 381.98 213.06 379.01 225.50
  Q 375.54 240.08 369.96 253.98
  Q 369.85 254.28 370.23 255.07
  Q 369.54 255.06 368.96 256.25
  Q 355.67 273.30 340.67 283.91
  Q 318.68 299.48 290.93 310.17
  Q 273.92 309.88 258.27 318.37
  C 225.83 324.04 195.60 326.01 162.70 325.47
  C 138.91 316.25 111.27 301.14 94.21 281.76
  C 89.13 275.99 89.82 267.44 92.80 261.06
  C 97.19 251.69 101.78 242.19 104.97 232.62
  Q 110.58 215.72 114.32 198.22
  Q 115.78 196.97 116.31 194.12
  Q 117.17 194.41 117.52 193.76
  Q 125.54 179.02 133.58 166.58
  Q 137.28 160.86 137.72 152.41
  Q 138.27 151.43 138.09 151.06
  Q 138.74 150.77 138.93 150.43
  Q 147.88 134.35 158.08 119.06
  C 170.52 100.39 193.96 91.43 209.43 113.32
  Q 215.14 121.41 217.76 131.22
  Z
  M 264.01 273.13
  C 257.77 290.21 275.04 304.65 291.52 301.78
  C 316.18 297.49 326.17 267.22 306.99 250.13
  A 0.56 0.56 0.0 0 1 306.92 249.36
  Q 311.93 242.96 311.09 234.70
  A 1.16 1.16 0.0 0 0 308.97 234.18
  Q 306.65 237.67 304.06 241.35
  C 298.24 249.63 290.70 249.89 282.84 253.88
  C 274.74 258.00 267.10 264.67 264.01 273.13
  Z"
/>
<path fill="#0987ce" d="
  M 475.05 138.65
  A 1.90 1.89 -36.0 0 0 475.52 135.71
  Q 469.36 129.03 463.57 123.18
  C 461.83 121.42 458.99 118.43 459.39 115.86
  C 460.23 110.33 468.07 113.88 470.42 116.16
  Q 482.02 127.37 493.18 139.01
  A 1.65 1.60 -73.2 0 1 493.63 139.88
  Q 494.55 145.01 489.49 146.20
  Q 469.14 150.96 447.99 154.01
  Q 445.89 154.31 446.55 156.33
  Q 446.78 157.03 448.20 158.54
  Q 455.39 166.24 462.53 173.97
  C 465.01 176.66 470.62 183.67 464.74 186.47
  C 461.79 187.89 459.47 185.84 457.31 183.94
  C 451.33 178.71 427.90 155.69 430.24 150.34
  C 432.79 144.55 463.79 141.09 470.50 140.03
  Q 473.39 139.58 475.05 138.65
  Z"
/>
<path fill="#5e3032" d="
  M 339.33 139.84
  Q 338.13 146.16 337.95 152.00
  Q 337.92 153.36 336.96 155.50
  A 0.44 0.44 0.0 0 1 336.25 155.63
  C 324.56 143.65 301.38 134.90 294.23 157.64
  Q 292.16 159.50 291.64 163.06
  L 284.60 169.17
  Q 274.74 147.40 270.86 124.31
  A 0.77 0.77 0.0 0 1 271.46 123.43
  Q 302.92 116.67 334.23 123.99
  A 1.19 1.18 -1.2 0 1 335.10 124.82
  L 339.33 139.84
  Z"
/>
<path fill="#93857f" d="
  M 135.79 137.34
  Q 137.98 143.81 138.09 151.06
  Q 138.27 151.43 137.72 152.41
  Q 125.95 172.86 116.31 194.12
  Q 115.78 196.97 114.32 198.22
  Q 107.81 208.81 97.25 214.81
  Q 95.81 199.78 90.55 185.76
  A 1.30 1.28 -32.6 0 1 90.86 184.39
  C 98.05 177.45 105.29 170.99 113.90 165.40
  C 125.80 157.69 134.95 152.76 135.79 137.34
  Z"
/>
<path fill="#5e3032" d="
  M 243.44 177.28
  Q 231.97 177.30 220.57 179.50
  Q 216.92 176.66 212.64 177.25
  C 187.14 165.59 168.49 190.70 157.81 209.73
  Q 157.58 210.14 157.11 210.12
  Q 144.10 209.52 131.66 203.14
  Q 145.23 185.83 165.70 168.19
  C 179.45 156.34 196.63 144.58 214.14 139.30
  Q 214.63 139.15 215.01 139.51
  Q 232.16 156.08 243.44 177.28
  Z"
/>
<path fill="#7c3b37" d="
  M 339.33 139.84
  C 344.13 155.83 350.15 177.32 364.22 186.91
  Q 364.68 187.22 364.37 187.69
  C 359.31 195.55 355.29 206.19 343.73 204.30
  Q 326.74 201.52 309.51 202.02
  C 302.22 202.23 287.36 175.52 284.60 169.17
  L 291.64 163.06
  C 290.34 170.25 292.56 176.44 299.67 178.62
  C 312.16 182.45 328.44 183.42 339.25 174.66
  Q 343.16 171.50 338.15 171.91
  C 326.31 172.90 316.26 173.96 304.54 170.64
  C 299.13 169.11 295.94 162.75 294.23 157.64
  C 301.38 134.90 324.56 143.65 336.25 155.63
  A 0.44 0.44 0.0 0 0 336.96 155.50
  Q 337.92 153.36 337.95 152.00
  Q 338.13 146.16 339.33 139.84
  Z"
/>
<path fill="#c1d1e9" d="
  M 137.72 152.41
  Q 137.28 160.86 133.58 166.58
  Q 125.54 179.02 117.52 193.76
  Q 117.17 194.41 116.31 194.12
  Q 125.95 172.86 137.72 152.41
  Z"
/>
<path fill="#431e2f" d="
  M 294.23 157.64
  C 295.94 162.75 299.13 169.11 304.54 170.64
  C 316.26 173.96 326.31 172.90 338.15 171.91
  Q 343.16 171.50 339.25 174.66
  C 328.44 183.42 312.16 182.45 299.67 178.62
  C 292.56 176.44 290.34 170.25 291.64 163.06
  Q 292.16 159.50 294.23 157.64
  Z"
/>
<path fill="#7c3b37" d="
  M 212.64 177.25
  C 215.68 183.28 223.14 188.59 215.67 195.45
  Q 203.99 206.16 190.38 211.01
  C 181.36 214.22 170.82 216.84 162.51 221.35
  A 0.69 0.69 0.0 0 0 162.54 222.58
  C 180.15 231.03 219.56 211.35 227.42 194.23
  C 230.44 187.67 226.12 183.43 220.57 179.50
  Q 231.97 177.30 243.44 177.28
  Q 252.87 195.63 257.07 216.35
  Q 257.25 217.21 256.39 217.38
  C 235.05 221.79 218.31 238.55 201.83 251.57
  C 187.76 262.69 169.69 266.53 152.11 265.23
  C 147.74 264.91 139.10 263.44 142.15 256.87
  C 146.15 248.28 151.47 240.90 151.00 231.02
  C 150.76 226.15 145.97 224.24 142.21 227.21
  C 136.69 231.55 130.00 236.39 129.44 224.68
  Q 128.94 214.25 131.66 203.14
  Q 144.10 209.52 157.11 210.12
  Q 157.58 210.14 157.81 209.73
  C 168.49 190.70 187.14 165.59 212.64 177.25
  Z"
/>
<path fill="#431e2f" d="
  M 220.57 179.50
  C 226.12 183.43 230.44 187.67 227.42 194.23
  C 219.56 211.35 180.15 231.03 162.54 222.58
  A 0.69 0.69 0.0 0 1 162.51 221.35
  C 170.82 216.84 181.36 214.22 190.38 211.01
  Q 203.99 206.16 215.67 195.45
  C 223.14 188.59 215.68 183.28 212.64 177.25
  Q 216.92 176.66 220.57 179.50
  Z"
/>
<path fill="#ffffff" d="
  M 400.94 262.03
  C 395.85 260.74 392.04 261.00 387.48 260.68
  Q 386.88 260.64 387.11 260.08
  Q 397.40 234.85 399.21 207.70
  C 400.35 190.56 395.59 187.90 380.66 183.80
  Q 380.03 183.63 380.60 183.31
  C 389.86 178.22 401.81 183.35 408.27 190.46
  C 416.87 199.92 410.49 208.81 404.57 217.82
  C 398.74 226.69 413.33 249.31 417.74 257.74
  C 424.02 269.74 426.94 278.95 426.96 291.61
  A 0.51 0.51 0.0 0 1 426.09 291.97
  L 425.57 291.45
  A 0.90 0.89 -69.3 0 1 425.31 290.87
  C 424.48 275.08 415.62 265.75 400.94 262.03
  Z"
/>
<path fill="#c1d1e9" d="
  M 68.87 303.81
  C 50.55 291.63 58.06 262.29 68.16 247.02
  C 72.89 239.89 73.34 233.78 70.49 225.50
  Q 66.56 214.06 58.75 206.75
  Q 59.73 200.26 55.95 195.39
  Q 55.57 194.91 56.17 195.00
  Q 69.63 197.02 81.74 190.96
  Q 82.22 190.72 82.41 191.22
  C 90.37 212.63 91.37 236.58 76.33 255.20
  C 68.78 264.55 64.31 271.58 70.99 283.53
  Q 76.88 294.08 84.09 301.28
  Q 84.42 301.60 83.96 301.58
  Q 75.72 301.17 68.87 303.81
  Z"
/>
<path fill="#c3a28b" d="
  M 383.16 242.70
  Q 375.42 246.97 370.23 255.07
  Q 369.85 254.28 369.96 253.98
  Q 375.54 240.08 379.01 225.50
  C 381.98 213.06 383.92 200.11 370.27 192.95
  L 371.69 191.45
  Q 372.06 191.06 372.58 191.21
  L 386.87 195.44
  A 3.74 3.73 -88.1 0 1 389.46 198.21
  Q 390.11 201.15 389.94 204.75
  Q 389.01 224.66 383.16 242.70
  Z"
/>
<path fill="#ffffff" d="
  M 58.75 206.75
  Q 66.56 214.06 70.49 225.50
  C 73.34 233.78 72.89 239.89 68.16 247.02
  C 58.06 262.29 50.55 291.63 68.87 303.81
  L 68.11 304.31
  A 1.60 1.60 0.0 0 0 68.73 307.23
  Q 78.67 308.85 88.25 310.47
  C 124.92 316.69 157.33 340.61 175.64 372.01
  Q 181.35 387.77 182.92 403.51
  Q 183.76 411.97 182.21 420.99
  C 180.38 431.63 175.28 435.48 167.18 441.93
  Q 161.85 446.17 162.67 453.39
  Q 159.98 463.10 158.44 466.44
  C 152.72 478.88 135.39 481.25 124.18 476.33
  C 112.52 471.20 112.85 457.76 112.98 447.12
  C 113.04 442.65 111.62 438.67 108.99 435.52
  Q 95.63 419.48 84.68 401.76
  C 78.33 391.49 71.77 378.46 65.49 366.76
  Q 62.92 361.97 59.35 358.44
  A 1.03 1.03 0.0 0 0 57.60 359.10
  C 57.06 366.21 59.24 373.16 61.96 379.43
  Q 61.25 384.30 59.93 388.49
  C 56.68 398.90 48.74 397.45 42.15 391.06
  Q 41.80 390.72 41.31 390.75
  L 40.66 390.79
  Q 14.34 337.56 18.26 277.74
  C 24.97 272.05 24.24 275.27 29.93 278.57
  C 30.88 286.53 34.22 300.21 40.96 305.34
  A 1.17 1.17 0.0 0 0 42.83 304.48
  C 43.07 300.52 42.78 296.83 41.94 292.58
  Q 38.23 273.84 37.22 254.75
  C 37.06 251.76 38.30 247.78 37.13 244.48
  C 34.35 236.64 22.62 233.76 17.76 226.93
  C 13.49 220.92 15.58 210.63 19.09 205.01
  C 23.97 197.20 32.65 193.22 41.57 196.41
  C 48.38 198.84 51.21 206.13 57.03 209.74
  Q 57.48 210.03 57.79 209.59
  Q 58.66 208.33 58.75 206.75
  Z"
/>
<path fill="#c3a28b" d="
  M 114.32 198.22
  Q 110.58 215.72 104.97 232.62
  C 101.78 242.19 97.19 251.69 92.80 261.06
  C 89.82 267.44 89.13 275.99 94.21 281.76
  C 111.27 301.14 138.91 316.25 162.70 325.47
  Q 162.80 325.63 162.89 325.79
  Q 155.00 325.17 147.51 326.54
  Q 128.40 312.00 105.20 304.63
  Q 102.65 303.82 100.63 302.21
  C 94.01 296.93 87.49 292.77 82.69 285.00
  C 77.26 276.22 74.27 271.93 81.59 263.68
  Q 99.80 243.17 97.25 214.81
  Q 107.81 208.81 114.32 198.22
  Z"
/>
<path fill="#ffffff" d="
  M 277.05 212.19
  C 281.37 207.80 293.81 206.25 299.71 206.22
  A 1.70 1.70 0.0 0 1 301.31 208.49
  C 300.26 211.39 295.00 220.65 290.97 219.97
  Q 283.69 218.74 277.28 214.42
  A 1.46 1.45 39.2 0 1 277.05 212.19
  Z"
/>
<path fill="#c1d1e9" d="
  M 308.39 213.35
  C 306.45 237.42 283.94 244.34 266.81 228.45
  Q 277.28 232.60 286.25 232.81
  C 294.86 233.00 304.50 220.85 308.39 213.35
  Z"
/>
<path fill="#431e2f" d="
  M 291.52 301.78
  C 275.04 304.65 257.77 290.21 264.01 273.13
  C 267.10 264.67 274.74 258.00 282.84 253.88
  C 290.70 249.89 298.24 249.63 304.06 241.35
  Q 306.65 237.67 308.97 234.18
  A 1.16 1.16 0.0 0 1 311.09 234.70
  Q 311.93 242.96 306.92 249.36
  A 0.56 0.56 0.0 0 0 306.99 250.13
  C 326.17 267.22 316.18 297.49 291.52 301.78
  Z
  M 270.99 276.27
  Q 269.87 281.21 270.78 283.21
  C 278.56 300.39 299.63 296.00 307.21 281.45
  Q 313.20 265.89 301.07 255.32
  A 1.01 1.01 0.0 0 0 299.91 255.20
  Q 295.79 257.49 291.33 258.91
  Q 277.35 263.37 270.99 276.27
  Z"
/>
<path fill="#93857f" d="
  M 383.16 242.70
  Q 375.65 268.56 359.19 288.69
  Q 358.32 289.74 354.04 290.98
  Q 362.45 273.92 368.96 256.25
  Q 369.54 255.06 370.23 255.07
  Q 375.42 246.97 383.16 242.70
  Z"
/>
<path fill="#c1d1e9" d="
  M 29.93 278.57
  C 24.24 275.27 24.97 272.05 18.26 277.74
  Q 19.32 261.16 23.00 244.36
  Q 23.23 243.31 24.09 243.96
  L 27.77 246.77
  Q 28.20 247.10 28.17 247.64
  Q 27.36 263.08 29.93 278.57
  Z"
/>
<path fill="#710a3d" d="
  M 307.21 281.45
  Q 290.21 274.59 270.99 276.27
  Q 277.35 263.37 291.33 258.91
  Q 295.79 257.49 299.91 255.20
  A 1.01 1.01 0.0 0 1 301.07 255.32
  Q 313.20 265.89 307.21 281.45
  Z"
/>
<path fill="#c1d1e9" d="
  M 368.96 256.25
  Q 362.45 273.92 354.04 290.98
  Q 330.84 298.90 311.95 316.02
  Q 311.46 316.47 310.89 316.13
  Q 302.55 311.24 290.93 310.17
  Q 318.68 299.48 340.67 283.91
  Q 355.67 273.30 368.96 256.25
  Z"
/>
<path fill="#7c3b37" d="
  M 415.86 293.73
  Q 404.54 298.37 394.32 297.15
  Q 382.76 295.77 374.06 285.39
  L 382.22 270.98
  Q 382.48 270.53 382.99 270.46
  C 399.37 268.24 416.48 273.87 415.86 293.73
  Z"
/>
<path fill="#d45f7b" d="
  M 307.21 281.45
  C 299.63 296.00 278.56 300.39 270.78 283.21
  Q 269.87 281.21 270.99 276.27
  Q 290.21 274.59 307.21 281.45
  Z"
/>
<path fill="#5e3032" d="
  M 374.06 285.39
  Q 382.76 295.77 394.32 297.15
  Q 404.54 298.37 415.86 293.73
  C 415.30 312.46 389.77 310.76 378.08 306.01
  C 368.93 302.29 370.52 292.76 374.06 285.39
  Z"
/>
<path fill="#c3a28b" d="
  M 381.06 325.61
  Q 384.36 327.58 387.90 327.94
  Q 390.83 330.16 394.90 329.32
  Q 402.37 330.19 409.86 327.29
  Q 415.26 340.48 413.28 354.98
  C 401.15 353.68 387.42 353.47 377.76 357.72
  Q 363.18 364.15 345.12 377.50
  C 341.94 365.43 336.26 359.46 328.00 350.96
  C 334.44 352.84 341.22 349.56 338.86 342.43
  C 337.18 337.37 329.17 336.75 324.65 336.36
  A 0.47 0.47 0.0 0 1 324.63 335.42
  C 327.70 334.98 331.79 334.57 333.53 331.66
  C 335.28 328.75 334.91 324.72 332.22 322.54
  C 328.89 319.85 323.11 321.20 319.19 322.47
  A 0.11 0.11 0.0 0 1 319.08 322.28
  Q 337.43 305.67 361.23 298.66
  A 0.51 0.51 0.0 0 1 361.75 299.49
  C 358.18 303.33 351.31 309.97 357.18 315.29
  C 361.15 318.90 366.50 316.88 368.96 312.54
  A 0.60 0.59 16.1 0 1 369.51 312.24
  Q 369.66 312.25 369.80 312.25
  A 0.38 0.38 0.0 0 1 370.15 312.75
  Q 367.50 320.22 367.72 322.50
  C 368.42 329.84 377.13 331.86 381.06 325.61
  Z"
/>
<path fill="#5e3032" d="
  M 434.59 308.63
  Q 424.18 321.20 409.86 327.29
  L 404.39 317.74
  C 413.25 315.43 420.66 310.81 424.05 301.92
  Q 424.27 301.36 424.76 301.70
  L 434.59 308.63
  Z"
/>
<path fill="#7c3b37" d="
  M 434.59 308.63
  Q 448.60 320.94 454.80 338.48
  Q 455.17 339.54 454.86 340.12
  C 453.42 347.12 450.84 353.88 443.51 355.99
  C 435.02 358.43 422.66 356.20 413.40 354.94
  Q 413.34 354.96 413.28 354.98
  Q 415.26 340.48 409.86 327.29
  Q 424.18 321.20 434.59 308.63
  Z"
/>
<path fill="#93857f" d="
  M 387.90 327.94
  Q 384.36 327.58 381.06 325.61
  L 383.18 318.22
  A 1.18 1.17 -37.9 0 1 385.48 318.50
  C 385.60 322.16 384.82 324.67 387.90 327.94
  Z"
/>
<path fill="#93857f" d="
  M 404.39 317.74
  L 409.86 327.29
  Q 402.37 330.19 394.90 329.32
  C 399.35 326.97 399.63 323.66 399.49 319.02
  Q 399.47 318.49 399.99 318.41
  L 404.39 317.74
  Z"
/>
<path fill="#c1d1e9" d="
  M 258.27 318.37
  C 251.59 322.84 244.03 328.17 236.48 328.35
  Q 219.22 328.74 204.69 337.25
  Q 182.80 333.55 162.89 325.79
  Q 162.80 325.63 162.70 325.47
  C 195.60 326.01 225.83 324.04 258.27 318.37
  Z"
/>
<path fill="#7c3b37" d="
  M 314.99 350.35
  C 310.07 340.90 296.74 343.51 289.78 348.05
  Q 277.88 355.81 265.74 363.19
  C 253.65 370.54 242.92 371.21 228.32 371.29
  C 219.49 371.33 211.26 376.42 214.45 386.44
  Q 214.92 386.58 214.29 387.57
  Q 203.72 378.77 200.34 363.89
  C 199.66 346.42 219.22 338.35 233.58 337.88
  C 241.71 337.61 246.44 336.39 253.81 332.05
  C 268.31 323.50 279.92 317.08 297.47 320.81
  C 312.18 323.93 317.66 336.58 314.99 350.35
  Z"
/>
<path fill="#93857f" d="
  M 162.89 325.79
  Q 182.80 333.55 204.69 337.25
  Q 199.18 341.64 195.09 346.98
  Q 194.78 347.39 194.27 347.40
  C 186.64 347.66 169.23 346.52 163.67 340.83
  Q 156.22 333.20 147.51 326.54
  Q 155.00 325.17 162.89 325.79
  Z"
/>
<path fill="#5e3032" d="
  M 454.86 340.12
  C 457.87 343.02 459.67 358.83 460.06 363.27
  C 460.45 367.67 458.07 372.99 457.71 377.66
  Q 457.67 378.20 457.28 378.59
  L 452.42 383.45
  Q 451.97 383.91 451.41 383.59
  Q 435.88 374.77 418.19 373.21
  C 415.00 372.93 411.69 373.38 408.43 373.68
  Q 412.03 364.49 413.40 354.94
  C 422.66 356.20 435.02 358.43 443.51 355.99
  C 450.84 353.88 453.42 347.12 454.86 340.12
  Z"
/>
<path fill="#5e3032" d="
  M 314.99 350.35
  Q 313.54 362.76 299.49 364.46
  C 288.42 365.80 276.65 369.10 266.98 375.94
  C 259.15 381.48 254.72 390.35 244.24 391.72
  Q 235.44 392.87 230.77 394.62
  Q 223.14 393.80 215.55 388.43
  Q 214.94 387.56 214.29 387.57
  Q 214.92 386.58 214.45 386.44
  C 211.26 376.42 219.49 371.33 228.32 371.29
  C 242.92 371.21 253.65 370.54 265.74 363.19
  Q 277.88 355.81 289.78 348.05
  C 296.74 343.51 310.07 340.90 314.99 350.35
  Z"
/>
<path fill="#7c3b37" d="
  M 328.00 350.96
  C 336.26 359.46 341.94 365.43 345.12 377.50
  Q 345.10 377.37 345.09 377.25
  C 334.13 385.40 321.44 395.33 308.08 398.17
  C 300.53 399.78 289.73 397.87 287.24 389.21
  Q 287.06 388.56 287.73 388.56
  C 303.27 388.62 321.46 384.58 326.59 368.18
  Q 335.38 363.74 330.38 356.71
  C 329.03 354.81 326.96 354.07 324.93 353.02
  A 1.18 1.18 0.0 0 1 324.89 350.95
  Q 326.41 350.10 328.00 350.96
  Z"
/>
<path fill="#93857f" d="
  M 413.28 354.98
  Q 413.34 354.96 413.40 354.94
  Q 412.03 364.49 408.43 373.68
  Q 398.75 375.85 390.24 381.32
  Q 389.81 381.60 389.35 381.36
  C 382.86 378.00 379.70 383.12 376.61 387.82
  A 0.83 0.83 0.0 0 1 375.11 387.16
  C 377.36 378.41 365.33 374.08 361.96 382.61
  Q 361.23 384.45 360.83 386.55
  A 0.85 0.85 0.0 0 1 359.28 386.85
  Q 354.20 378.88 346.65 385.49
  L 345.09 377.25
  Q 345.10 377.37 345.12 377.50
  Q 363.18 364.15 377.76 357.72
  C 387.42 353.47 401.15 353.68 413.28 354.98
  Z"
/>
<path fill="#c1d1e9" d="
  M 162.67 453.39
  Q 161.85 446.17 167.18 441.93
  C 175.28 435.48 180.38 431.63 182.21 420.99
  Q 183.76 411.97 182.92 403.51
  Q 181.35 387.77 175.64 372.01
  C 178.87 377.53 184.60 389.31 189.36 392.62
  A 1.32 1.31 -71.5 0 0 191.42 391.59
  C 191.96 378.87 184.26 365.90 176.56 356.11
  A 0.24 0.24 0.0 0 1 176.78 355.72
  L 190.82 357.00
  Q 191.21 357.04 191.17 357.43
  Q 189.98 368.73 192.09 379.83
  C 198.08 411.42 212.02 444.98 235.87 467.54
  Q 236.28 467.92 235.72 467.96
  Q 202.16 469.97 168.58 468.28
  Q 168.08 468.25 168.19 467.77
  Q 169.95 459.52 166.98 451.69
  A 1.55 1.54 -36.4 0 0 164.31 451.29
  L 162.67 453.39
  Z"
/>
<path fill="#c3a28b" d="
  M 200.34 363.89
  Q 203.72 378.77 214.29 387.57
  Q 214.94 387.56 215.55 388.43
  Q 215.41 389.07 215.59 389.41
  C 224.84 406.23 243.02 420.04 260.47 427.60
  Q 247.55 437.56 245.98 453.74
  Q 234.69 447.47 224.05 437.82
  Q 205.79 407.59 200.54 372.02
  C 200.13 369.28 200.21 366.67 200.34 363.89
  Z"
/>
<path fill="#5e3032" d="
  M 326.59 368.18
  C 321.46 384.58 303.27 388.62 287.73 388.56
  Q 287.06 388.56 287.24 389.21
  C 289.73 397.87 300.53 399.78 308.08 398.17
  C 321.44 395.33 334.13 385.40 345.09 377.25
  L 346.65 385.49
  L 344.60 393.88
  Q 344.47 394.41 344.08 394.79
  L 338.97 399.86
  Q 338.59 400.24 338.07 400.35
  Q 331.24 401.90 326.25 404.74
  C 313.85 411.79 281.63 431.73 276.64 404.92
  Q 274.43 393.00 277.49 381.18
  A 2.09 2.07 -5.1 0 1 278.63 379.83
  Q 288.18 375.43 299.05 374.07
  Q 310.94 372.59 318.42 365.91
  Q 318.79 365.58 319.22 365.83
  Q 322.55 367.78 326.59 368.18
  Z"
/>
<path fill="#c1d1e9" d="
  M 61.96 379.43
  Q 74.07 404.89 90.49 426.81
  Q 96.15 434.37 101.89 441.88
  C 104.79 445.67 103.35 453.48 103.64 458.15
  Q 103.68 458.79 103.11 458.49
  C 75.53 443.84 54.24 418.61 40.66 390.79
  L 41.31 390.75
  Q 41.80 390.72 42.15 391.06
  C 48.74 397.45 56.68 398.90 59.93 388.49
  Q 61.25 384.30 61.96 379.43
  Z"
/>
<path fill="#7c3b37" d="
  M 490.70 401.99
  Q 489.91 398.26 488.72 397.03
  C 484.49 392.69 474.94 389.88 470.23 395.26
  Q 465.03 401.19 459.75 410.59
  C 456.07 417.14 451.16 421.93 443.28 419.20
  Q 431.18 415.02 424.02 413.70
  C 416.73 412.37 400.88 406.76 405.03 396.56
  Q 408.52 388.01 418.63 382.72
  Q 433.45 384.17 446.98 391.88
  A 0.75 0.75 0.0 0 1 447.31 392.78
  Q 444.54 400.46 445.39 408.52
  A 1.29 1.29 0.0 0 0 447.61 409.27
  Q 449.33 407.45 450.51 404.48
  C 456.07 390.53 466.70 378.81 483.07 380.01
  C 497.62 381.08 494.68 392.42 490.70 401.99
  Z"
/>
<path fill="#5e3032" d="
  M 418.63 382.72
  Q 408.52 388.01 405.03 396.56
  C 400.88 406.76 416.73 412.37 424.02 413.70
  Q 431.18 415.02 443.28 419.20
  C 451.16 421.93 456.07 417.14 459.75 410.59
  Q 465.03 401.19 470.23 395.26
  C 474.94 389.88 484.49 392.69 488.72 397.03
  Q 489.91 398.26 490.70 401.99
  Q 488.63 406.95 486.54 412.17
  C 482.76 421.64 479.84 434.06 476.97 441.27
  Q 470.63 457.21 455.52 454.49
  C 447.50 453.04 437.92 446.38 430.45 444.04
  C 414.99 439.17 400.85 443.50 387.50 451.48
  A 0.34 0.33 79.8 0 1 387.00 451.13
  Q 388.43 443.33 390.75 435.70
  Q 393.52 426.61 393.87 423.13
  Q 395.29 409.28 388.27 396.84
  Q 388.01 396.37 388.27 395.91
  C 392.76 387.81 409.86 381.38 418.63 382.72
  Z"
/>
<path fill="#93857f" d="
  M 215.55 388.43
  Q 223.14 393.80 230.77 394.62
  Q 244.17 401.82 256.37 396.66
  L 266.55 402.15
  Q 267.21 411.86 273.01 419.77
  Q 266.39 422.89 260.69 427.40
  Q 259.91 427.64 260.47 427.60
  C 243.02 420.04 224.84 406.23 215.59 389.41
  Q 215.41 389.07 215.55 388.43
  Z"
/>
<path fill="#c1d1e9" d="
  M 266.55 402.15
  L 256.37 396.66
  Q 262.51 393.82 266.29 388.75
  A 0.18 0.17 67.2 0 1 266.60 388.88
  Q 265.82 395.28 266.55 402.15
  Z"
/>
<path fill="#7c3b37" d="
  M 384.65 420.40
  C 377.03 412.17 366.04 411.85 356.84 417.19
  C 341.37 426.17 349.74 454.59 325.18 449.83
  C 314.40 447.74 298.87 454.79 289.68 457.17
  C 275.88 460.75 259.78 460.75 246.19 453.67
  Q 246.08 453.71 245.98 453.74
  Q 247.55 437.56 260.47 427.60
  Q 259.91 427.64 260.69 427.40
  Q 276.45 434.28 292.96 431.94
  C 305.56 430.15 317.03 429.76 329.88 431.59
  C 330.39 433.68 331.28 438.03 334.01 438.43
  Q 334.62 438.52 334.78 437.92
  C 338.64 423.32 338.50 412.65 349.55 402.59
  C 359.66 393.39 378.44 392.17 383.14 408.08
  Q 384.77 413.59 384.65 420.40
  Z"
/>
<path fill="#5e3032" d="
  M 329.88 431.59
  C 317.03 429.76 305.56 430.15 292.96 431.94
  Q 276.45 434.28 260.69 427.40
  Q 266.39 422.89 273.01 419.77
  C 288.76 437.72 315.69 421.78 331.12 412.60
  A 0.40 0.40 0.0 0 1 331.70 413.08
  Q 328.51 421.62 329.88 431.59
  Z"
/>
<path fill="#5e3032" d="
  M 384.65 420.40
  Q 384.09 425.92 382.29 431.71
  Q 380.02 438.99 379.34 442.05
  C 377.37 451.00 374.89 467.81 368.17 474.03
  C 358.86 482.67 343.89 472.64 333.76 472.17
  C 320.33 471.56 306.48 473.76 292.74 475.41
  C 274.67 477.59 261.55 476.39 247.46 464.75
  Q 245.95 459.36 246.19 453.67
  C 259.78 460.75 275.88 460.75 289.68 457.17
  C 298.87 454.79 314.40 447.74 325.18 449.83
  C 349.74 454.59 341.37 426.17 356.84 417.19
  C 366.04 411.85 377.03 412.17 384.65 420.40
  Z"
/>
<path fill="#93857f" d="
  M 224.05 437.82
  Q 234.69 447.47 245.98 453.74
  Q 246.08 453.71 246.19 453.67
  Q 245.95 459.36 247.46 464.75
  Q 233.18 453.90 224.05 437.82
  Z"
/>
</svg>
