<svg xmlns="http://www.w3.org/2000/svg" fill-rule="evenodd" stroke-linejoin="round" stroke-miterlimit="1.41" clip-rule="evenodd" viewBox="0 0 148 148"><circle cx="73.63" cy="73.35" r="71.62" fill="url(#_Linear1)"/><circle cx="73.11" cy="75.41" r="57.55" fill="url(#_Linear2)"/><path fill="#491812" fill-rule="nonzero" d="M0 73.25c.13-26.9 16.21-53.07 40.11-65.31 20.66-10.59 46.36-10.58 67 0 27.76 14.22 44.76 47.32 38.88 79.03-5.14 27.78-27.6 51.56-55.32 58.15-24.46 5.8-51.72-2-69.41-19.9A74.15 74.15 0 0 1 0 73.25zm1.72.47c.44 26.45 16.64 51.9 40.37 63.35 19.49 9.42 43.4 9.23 62.73-.63 31-15.82 47-55.6 33.21-89.69A71.36 71.36 0 0 0 91.63 5.4C60.1-3.3 23.28 12.6 8.57 43.66a72.11 72.11 0 0 0-6.85 29.37v.7z"/><path fill="url(#_Linear3)" fill-rule="nonzero" d="M74.04 11.66a62.7 62.7 0 0 1 44.92 19.59c17.9 19.19 21.67 50.25 8.3 73.26-10.72 18.46-31.52 30.68-53.24 30.74a62.48 62.48 0 0 1-44.8-19.05C14.64 100.93 8.7 77.89 14.17 57.46c6.9-25.78 31.63-45.47 59.11-45.8h.77zm-1.38 6.8c-20.98.2-41.3 13.02-50.31 31.94-7.83 16.43-7.07 36.62 1.84 52.51a58.76 58.76 0 0 0 33.7 27.14c.67.2 8.05 1.84 14.31 1.86 27.33.08 53.55-20.83 57.4-49.86 3.24-24.4-10.58-50.14-35.62-59.71a59.46 59.46 0 0 0-21.32-3.89z"/><path fill="#fffbcc" fill-rule="nonzero" d="M27.28 115.69c1.78.17 2.59 2.33 3.94 3.9 5.47 6.4 13.58 10.86 22.34 12.43 0 0 .83.2 1.27.67 1.26 1.34.13 3.75-2.8 3.2-11.1-2.15-21.52-8.42-26.85-17.15 0 0-.67-3.14 2.1-3.05z"/><path fill="#fffbcc" d="M22.6 111.04a2.44 2.44 0 1 1-.02 4.88 2.44 2.44 0 0 1 .03-4.88z"/><path fill="#ffe4a4" d="M109.98 69.24s-12.48-.28-16.85 19.1c-4.36 19.38 3.58 19.65 8.5 20.02 4.74.35 18.03-3.22 20.95-20.02 2.52-14.47-5.52-19.54-12.6-19.1zm-30.29 5.74c-.37 1.58.28 2.38 1.86 2.46l5.52-2.46s1.38-.56 1.35 0c-.09 2.07-7.91 29.44-7.91 29.44s-.38 2.56 1.92 3.26c2.3.7 3.88-1.01 4.64-1.8.77-.79 8.54-35.57 8.54-35.57s.17-3.02-1.5-3.3c-1.67-.27-11.43 3.95-14.42 7.97zm20.64 26.87s3.96 1.27 7.34 0c2.17-.8 5.68-6.39 6.83-9.68 1.15-3.29 2.48-10.54.97-14.13-1.51-3.58-3.46-5.5-6.7-4.35-3.24 1.15-7.57 3.63-9.84 12.23-2.27 8.61-1.77 14.82 1.4 15.93zM55.96 90.86s1.92 2.74 5.25 1.95c3.33-.78 29.34-31.36 29.88-37.2-.06-3.06-3.36-2.37-4.94-1.13-1.6 1.24-26.7 31.63-30.2 36.38zm5.15-50.68s-12.48-.28-16.85 19.1c-4.36 19.38 3.58 19.66 8.5 20.02 4.75.35 18.03-3.22 20.95-20.02 2.52-14.46-5.52-19.54-12.6-19.1zm-30.29 5.75c-.37 1.57.28 2.37 1.86 2.45l5.53-2.45s1.37-.56 1.34 0c-.09 2.06-7.91 29.44-7.91 29.44s-.38 2.56 1.92 3.25c2.3.7 3.88-1 4.65-1.8.76-.78 8.53-35.57 8.53-35.57s.18-3.01-1.5-3.3c-1.67-.27-11.43 3.95-14.42 7.98zM51.46 72.8s3.96 1.27 7.34 0c2.17-.81 5.68-6.4 6.83-9.68 1.15-3.3 2.48-10.54.97-14.13-1.51-3.59-3.46-5.5-6.7-4.36-3.24 1.15-7.57 3.63-9.84 12.24-2.27 8.6-1.76 14.82 1.4 15.93z"/><path fill="#632100" d="M59.02 43.31s-12.48-.28-16.84 19.1c-4.37 19.39 3.57 19.66 8.5 20.02 4.74.35 18.02-3.22 20.95-20.02 2.52-14.46-5.53-19.53-12.61-19.1zm-30.28 5.75c-.37 1.58.27 2.38 1.85 2.46l5.53-2.46s1.37-.56 1.34 0c-.09 2.07-7.91 29.44-7.91 29.44s-.37 2.56 1.93 3.26c2.3.7 3.87-1.02 4.64-1.8.76-.79 8.53-35.58 8.53-35.58s.18-3-1.5-3.29c-1.67-.28-11.43 3.94-14.41 7.97zm20.63 26.87s3.96 1.27 7.34 0c2.17-.81 5.68-6.39 6.83-9.68 1.15-3.29 2.48-10.54.97-14.13-1.51-3.59-3.46-5.5-6.7-4.35-3.24 1.15-7.57 3.63-9.84 12.23-2.26 8.6-1.76 14.82 1.4 15.93zm58.52-3.56s-12.48-.28-16.85 19.1c-4.36 19.38 3.58 19.66 8.5 20.02 4.74.35 18.03-3.22 20.95-20.02 2.52-14.46-5.52-19.54-12.6-19.1zM77.6 78.12c-.37 1.58.28 2.37 1.86 2.45l5.52-2.45s1.38-.56 1.35 0c-.09 2.06-7.91 29.44-7.91 29.44s-.38 2.56 1.92 3.26c2.3.7 3.88-1.02 4.64-1.8.77-.8 8.54-35.58 8.54-35.58s.17-3.01-1.5-3.29c-1.67-.28-11.43 3.94-14.42 7.97zm20.64 26.87s3.96 1.27 7.34 0c2.17-.81 5.68-6.4 6.83-9.68 1.15-3.3 2.48-10.54.97-14.13-1.51-3.59-3.46-5.5-6.7-4.36-3.24 1.15-7.57 3.63-9.84 12.24-2.27 8.6-1.76 14.82 1.4 15.93zM53.87 94s1.92 2.73 5.25 1.95c3.33-.79 29.34-31.37 29.88-37.2-.05-3.06-3.35-2.38-4.94-1.14-1.6 1.24-26.7 31.63-30.2 36.38z"/><defs><linearGradient id="_Linear1" x2="1" gradientTransform="rotate(116.47 49.4 38.7) scale(132.9716)" gradientUnits="userSpaceOnUse"><stop offset="0" stop-color="#dc7a1f"/><stop offset="1" stop-color="#ffe280"/></linearGradient><linearGradient id="_Linear2" x2="1" gradientTransform="rotate(104.23 33.7 39.92) scale(82.8052)" gradientUnits="userSpaceOnUse"><stop offset="0" stop-color="#dc7b1f"/><stop offset="1" stop-color="#fdd973"/></linearGradient><linearGradient id="_Linear3" x2="1" gradientTransform="rotate(-113.35 95.34 27.55) scale(121.6517)" gradientUnits="userSpaceOnUse"><stop offset="0" stop-color="#522720"/><stop offset=".47" stop-color="#983e39"/><stop offset=".74" stop-color="#e5b271"/><stop offset="1" stop-color="#ffda84"/></linearGradient></defs></svg>