<?xml version="1.0" encoding="UTF-8" standalone="no"?>
<!DOCTYPE svg PUBLIC "-//W3C//DTD SVG 1.1//EN" "http://www.w3.org/Graphics/SVG/1.1/DTD/svg11.dtd">
<svg xmlns="http://www.w3.org/2000/svg" version="1.1" viewBox="0.00 0.00 523.00 523.00">
<g stroke-width="2.00" fill="none" stroke-linecap="butt">
<path stroke="#808080" vector-effect="non-scaling-stroke" d="
  M 465.31 434.32
  Q 464.00 437.80 465.38 441.55
  A 0.68 0.67 80.4 0 0 466.00 442.00
  Q 466.85 442.03 466.41 441.47"
/>
<path stroke="#808080" vector-effect="non-scaling-stroke" d="
  M 126.96 98.89
  L 116.06 98.86
  A 1.99 1.99 0.0 0 1 114.07 96.83
  C 114.17 92.77 122.25 82.84 124.82 79.07
  C 128.02 74.39 128.16 64.77 120.25 64.32
  Q 108.08 63.63 95.38 63.26
  Q 93.69 63.21 93.53 64.90
  L 92.58 75.60
  A 0.86 0.86 0.0 0 0 93.06 76.46
  C 96.57 78.16 100.71 77.08 103.54 78.65
  Q 104.98 79.45 104.28 80.94
  Q 101.08 87.82 97.06 93.59
  Q 93.03 99.38 92.43 101.53
  C 91.63 104.39 91.39 113.24 96.25 113.44
  Q 107.69 113.91 119.14 114.20
  C 122.96 114.30 125.88 114.88 126.43 110.60
  Q 127.18 104.78 127.26 99.19
  Q 127.26 98.89 126.96 98.89"
/>
<path stroke="#808080" vector-effect="non-scaling-stroke" d="
  M 198.57 100.11
  Q 195.53 100.75 192.99 99.91
  A 0.54 0.54 0.0 0 1 192.74 99.06
  C 197.76 92.85 203.54 90.09 200.64 80.49
  C 200.12 78.79 198.86 78.31 197.25 78.25
  Q 185.52 77.75 173.60 77.50
  A 2.66 2.66 0.0 0 0 170.91 79.77
  L 169.25 90.98
  A 0.55 0.55 0.0 0 0 169.71 91.60
  C 172.78 92.08 177.27 91.81 179.90 93.51
  A 0.64 0.64 0.0 0 1 179.97 94.52
  L 171.27 102.01
  A 1.04 1.04 0.0 0 0 170.94 102.58
  Q 169.87 107.74 171.06 112.88
  A 1.55 1.55 0.0 0 0 172.62 114.07
  Q 185.57 113.63 198.17 113.76
  Q 199.56 113.77 199.99 113.10
  Q 200.44 112.40 200.69 111.02"
/>
<path stroke="#808080" vector-effect="non-scaling-stroke" d="
  M 154.95 98.62
  C 159.50 93.20 165.26 89.09 163.07 80.94
  C 162.59 79.14 161.14 78.37 159.43 78.33
  Q 148.59 78.07 137.74 77.73
  Q 135.87 77.68 134.62 78.09
  A 1.29 1.28 -88.4 0 0 133.85 78.82
  Q 131.61 84.27 131.28 90.19
  A 1.34 1.32 -85.1 0 0 132.44 91.58
  L 141.30 92.65
  A 1.13 1.13 0.0 0 1 141.96 94.57
  Q 138.45 98.07 134.11 101.13
  C 131.05 103.28 132.38 109.76 133.12 112.72
  A 1.69 1.69 0.0 0 0 134.76 114.00
  L 160.24 114.00
  A 2.41 2.40 -83.3 0 0 162.58 112.15
  Q 163.79 107.10 164.33 103.24
  C 164.99 98.57 158.00 100.36 155.24 99.56
  A 0.59 0.59 0.0 0 1 154.95 98.62"
/>
<path stroke="#808080" vector-effect="non-scaling-stroke" d="
  M 169.07 210.11
  C 141.88 208.22 114.34 226.59 96.02 244.88
  C 78.79 262.07 68.55 283.94 64.44 308.21
  Q 64.16 309.86 65.79 309.47
  C 72.17 307.91 79.42 305.28 86.19 306.09
  C 98.22 307.53 110.40 313.56 116.94 323.81
  C 127.38 340.19 120.76 366.97 107.67 380.43
  C 88.15 400.49 43.14 408.64 36.04 370.75
  A 0.41 0.41 0.0 0 0 35.28 370.64
  C 25.64 389.15 24.48 408.82 34.75 427.17
  C 41.48 439.19 53.95 449.30 66.00 456.50
  C 92.93 472.60 123.62 480.08 154.16 485.76
  C 171.26 488.94 186.78 489.55 205.25 490.20
  Q 208.50 490.31 210.55 489.74
  A 0.56 0.56 0.0 0 0 210.88 488.91
  C 209.36 486.45 207.29 483.98 206.11 481.71
  C 198.65 467.33 206.03 448.96 221.52 444.75
  Q 225.79 443.59 234.50 443.91
  C 260.76 444.90 281.96 446.00 303.87 437.01
  C 318.38 431.07 329.95 425.77 346.25 427.67
  C 347.81 427.85 349.26 428.14 350.02 426.56
  Q 362.22 401.40 361.06 372.83
  C 359.71 339.59 350.90 306.71 327.63 281.92
  C 318.96 272.68 310.11 260.47 300.93 253.56
  C 289.27 244.79 280.66 239.63 274.82 229.42
  C 274.15 228.25 272.44 226.66 271.24 226.09
  C 252.12 216.93 233.45 212.87 212.44 210.73
  C 209.16 210.39 207.08 209.13 205.47 206.45
  A 1.99 1.98 65.7 0 0 203.16 205.57
  L 197.64 207.34
  A 2.27 2.26 69.9 0 1 194.85 206.04
  L 192.11 199.41
  Q 191.84 198.74 191.33 199.26
  Q 185.17 205.59 183.33 207.08
  C 178.82 210.71 175.26 210.54 169.07 210.11"
/>
<path stroke="#808080" vector-effect="non-scaling-stroke" d="
  M 369.99 483.88
  Q 372.54 484.64 375.25 484.62
  Q 403.88 484.39 432.50 484.41
  Q 436.58 484.42 437.98 482.29
  Q 459.51 449.51 452.35 411.97
  C 444.67 371.78 411.71 340.17 371.01 335.12
  C 369.14 334.89 366.68 335.33 367.21 337.75
  C 374.29 370.06 373.65 401.11 360.30 431.31
  A 1.25 1.25 0.0 0 0 360.51 432.64
  Q 363.18 435.68 366.17 438.82
  C 369.42 442.24 371.13 449.16 372.17 454.31
  Q 375.05 468.54 369.04 481.80
  A 1.52 1.51 20.6 0 0 369.99 483.88"
/>
<path stroke="#808080" vector-effect="non-scaling-stroke" d="
  M 88.4939 358.5946
  A 1.99 1.99 0.0 0 0 86.5143 356.5942
  L 65.8146 356.4858
  A 1.99 1.99 0.0 0 0 63.8142 358.4654
  L 63.8061 360.0054
  A 1.99 1.99 0.0 0 0 65.7857 362.0058
  L 86.4854 362.1142
  A 1.99 1.99 0.0 0 0 88.4858 360.1346
  L 88.4939 358.5946"
/>
<path stroke="#808080" vector-effect="non-scaling-stroke" d="
  M 303.61 359.32
  C 299.54 337.52 280.84 324.40 259.98 319.78
  Q 233.49 313.92 210.59 325.89
  C 186.61 338.43 182.16 364.93 197.57 386.19
  C 212.80 407.21 234.09 420.91 260.99 417.90
  C 289.08 414.76 308.75 386.80 303.61 359.32"
/>
<path stroke="#808080" vector-effect="non-scaling-stroke" d="
  M 118.00 396.16
  C 122.12 404.23 129.29 410.57 139.01 409.31
  C 142.88 408.81 154.63 405.54 156.26 401.06
  C 158.87 393.93 151.46 391.68 146.39 390.72
  Q 136.84 388.92 127.26 387.35
  C 121.72 386.44 114.29 388.90 118.00 396.16"
/>
<path stroke="#808080" vector-effect="non-scaling-stroke" d="
  M 249.8587 368.8409
  A 2.70 2.70 0.0 0 0 247.1353 366.1646
  L 227.5360 366.3356
  A 2.70 2.70 0.0 0 0 224.8597 369.0591
  L 224.8613 369.2391
  A 2.70 2.70 0.0 0 0 227.5847 371.9154
  L 247.1840 371.7444
  A 2.70 2.70 0.0 0 0 249.8603 369.0209
  L 249.8587 368.8409"
/>
</g>
<path fill="#000000" d="
  M 66.32 123.70
  C 59.54 117.69 50.22 105.85 49.75 96.47
  C 49.39 89.31 48.95 81.51 51.35 74.89
  C 61.76 46.15 102.89 30.09 129.77 24.15
  C 181.87 12.63 238.67 13.93 287.96 36.01
  C 316.24 48.68 351.64 78.54 326.74 113.02
  C 315.18 129.04 297.92 138.07 280.28 145.86
  C 278.89 146.47 277.87 147.87 277.94 149.24
  C 278.72 163.38 268.26 174.72 256.46 181.10
  A 1.90 1.90 0.0 0 1 253.83 178.63
  C 257.21 171.36 259.47 166.69 253.23 159.98
  Q 251.04 157.62 249.33 156.55
  A 1.17 1.17 0.0 0 0 248.41 156.41
  C 245.64 157.12 242.81 156.60 240.33 157.00
  C 201.17 163.39 160.06 162.08 121.67 151.64
  C 102.11 146.32 81.45 137.12 66.32 123.70
  Z
  M 126.96 98.89
  L 116.06 98.86
  A 1.99 1.99 0.0 0 1 114.07 96.83
  C 114.17 92.77 122.25 82.84 124.82 79.07
  C 128.02 74.39 128.16 64.77 120.25 64.32
  Q 108.08 63.63 95.38 63.26
  Q 93.69 63.21 93.53 64.90
  L 92.58 75.60
  A 0.86 0.86 0.0 0 0 93.06 76.46
  C 96.57 78.16 100.71 77.08 103.54 78.65
  Q 104.98 79.45 104.28 80.94
  Q 101.08 87.82 97.06 93.59
  Q 93.03 99.38 92.43 101.53
  C 91.63 104.39 91.39 113.24 96.25 113.44
  Q 107.69 113.91 119.14 114.20
  C 122.96 114.30 125.88 114.88 126.43 110.60
  Q 127.18 104.78 127.26 99.19
  Q 127.26 98.89 126.96 98.89
  Z
  M 200.69 111.02
  Q 203.90 107.32 202.30 101.71
  Q 201.87 100.18 198.57 100.11
  Q 195.53 100.75 192.99 99.91
  A 0.54 0.54 0.0 0 1 192.74 99.06
  C 197.76 92.85 203.54 90.09 200.64 80.49
  C 200.12 78.79 198.86 78.31 197.25 78.25
  Q 185.52 77.75 173.60 77.50
  A 2.66 2.66 0.0 0 0 170.91 79.77
  L 169.25 90.98
  A 0.55 0.55 0.0 0 0 169.71 91.60
  C 172.78 92.08 177.27 91.81 179.90 93.51
  A 0.64 0.64 0.0 0 1 179.97 94.52
  L 171.27 102.01
  A 1.04 1.04 0.0 0 0 170.94 102.58
  Q 169.87 107.74 171.06 112.88
  A 1.55 1.55 0.0 0 0 172.62 114.07
  Q 185.57 113.63 198.17 113.76
  Q 199.56 113.77 199.99 113.10
  Q 200.44 112.40 200.69 111.02
  Z
  M 154.95 98.62
  C 159.50 93.20 165.26 89.09 163.07 80.94
  C 162.59 79.14 161.14 78.37 159.43 78.33
  Q 148.59 78.07 137.74 77.73
  Q 135.87 77.68 134.62 78.09
  A 1.29 1.28 -88.4 0 0 133.85 78.82
  Q 131.61 84.27 131.28 90.19
  A 1.34 1.32 -85.1 0 0 132.44 91.58
  L 141.30 92.65
  A 1.13 1.13 0.0 0 1 141.96 94.57
  Q 138.45 98.07 134.11 101.13
  C 131.05 103.28 132.38 109.76 133.12 112.72
  A 1.69 1.69 0.0 0 0 134.76 114.00
  L 160.24 114.00
  A 2.41 2.40 -83.3 0 0 162.58 112.15
  Q 163.79 107.10 164.33 103.24
  C 164.99 98.57 158.00 100.36 155.24 99.56
  A 0.59 0.59 0.0 0 1 154.95 98.62
  Z
  M 230.5959 113.0810
  A 10.87 10.52 124.1 0 0 245.4012 109.9779
  A 10.87 10.52 124.1 0 0 242.7841 95.0790
  A 10.87 10.52 124.1 0 0 227.9788 98.1821
  A 10.87 10.52 124.1 0 0 230.5959 113.0810
  Z
  M 274.7193 112.9997
  A 10.95 10.60 125.0 0 0 289.6830 110.1099
  A 10.95 10.60 125.0 0 0 287.2807 95.0603
  A 10.95 10.60 125.0 0 0 272.3170 97.9501
  A 10.95 10.60 125.0 0 0 274.7193 112.9997
  Z"
/>
<path fill="#ffffff" d="
  M 126.96 98.89
  Q 127.26 98.89 127.26 99.19
  Q 127.18 104.78 126.43 110.60
  C 125.88 114.88 122.96 114.30 119.14 114.20
  Q 107.69 113.91 96.25 113.44
  C 91.39 113.24 91.63 104.39 92.43 101.53
  Q 93.03 99.38 97.06 93.59
  Q 101.08 87.82 104.28 80.94
  Q 104.98 79.45 103.54 78.65
  C 100.71 77.08 96.57 78.16 93.06 76.46
  A 0.86 0.86 0.0 0 1 92.58 75.60
  L 93.53 64.90
  Q 93.69 63.21 95.38 63.26
  Q 108.08 63.63 120.25 64.32
  C 128.16 64.77 128.02 74.39 124.82 79.07
  C 122.25 82.84 114.17 92.77 114.07 96.83
  A 1.99 1.99 0.0 0 0 116.06 98.86
  L 126.96 98.89
  Z"
/>
<path fill="#ffffff" d="
  M 198.57 100.11
  Q 197.91 105.00 200.69 111.02
  Q 200.44 112.40 199.99 113.10
  Q 199.56 113.77 198.17 113.76
  Q 185.57 113.63 172.62 114.07
  A 1.55 1.55 0.0 0 1 171.06 112.88
  Q 169.87 107.74 170.94 102.58
  A 1.04 1.04 0.0 0 1 171.27 102.01
  L 179.97 94.52
  A 0.64 0.64 0.0 0 0 179.90 93.51
  C 177.27 91.81 172.78 92.08 169.71 91.60
  A 0.55 0.55 0.0 0 1 169.25 90.98
  L 170.91 79.77
  A 2.66 2.66 0.0 0 1 173.60 77.50
  Q 185.52 77.75 197.25 78.25
  C 198.86 78.31 200.12 78.79 200.64 80.49
  C 203.54 90.09 197.76 92.85 192.74 99.06
  A 0.54 0.54 0.0 0 0 192.99 99.91
  Q 195.53 100.75 198.57 100.11
  Z"
/>
<path fill="#ffffff" d="
  M 155.24 99.56
  C 158.00 100.36 164.99 98.57 164.33 103.24
  Q 163.79 107.10 162.58 112.15
  A 2.41 2.40 -83.3 0 1 160.24 114.00
  L 134.76 114.00
  A 1.69 1.69 0.0 0 1 133.12 112.72
  C 132.38 109.76 131.05 103.28 134.11 101.13
  Q 138.45 98.07 141.96 94.57
  A 1.13 1.13 0.0 0 0 141.30 92.65
  L 132.44 91.58
  A 1.34 1.32 -85.1 0 1 131.28 90.19
  Q 131.61 84.27 133.85 78.82
  A 1.29 1.28 -88.4 0 1 134.62 78.09
  Q 135.87 77.68 137.74 77.73
  Q 148.59 78.07 159.43 78.33
  C 161.14 78.37 162.59 79.14 163.07 80.94
  C 165.26 89.09 159.50 93.20 154.95 98.62
  A 0.59 0.59 0.0 0 0 155.24 99.56
  Z"
/>
<path fill="#000000" d="
  M 465.31 434.32
  Q 464.00 437.80 465.38 441.55
  A 0.68 0.67 80.4 0 0 466.00 442.00
  Q 466.85 442.03 466.41 441.47
  C 469.32 443.28 473.85 441.02 476.83 440.17
  C 493.22 435.48 507.31 442.68 512.86 458.88
  Q 514.81 464.57 513.82 470.79
  C 512.17 481.15 503.95 494.92 491.87 495.07
  C 472.14 495.32 452.39 495.96 432.68 495.97
  Q 352.84 496.03 273.00 495.99
  C 264.00 495.99 254.14 496.62 245.11 497.93
  Q 206.62 503.52 167.49 497.99
  C 158.74 496.76 150.17 496.18 140.56 496.08
  Q 88.15 495.57 35.75 494.96
  C 25.09 494.84 18.17 489.99 13.43 480.87
  C 5.54 465.65 14.01 450.38 29.03 444.81
  Q 30.68 444.19 31.45 442.58
  A 0.96 0.94 -46.9 0 0 31.43 441.70
  C 19.97 420.96 14.01 401.60 21.57 378.34
  C 28.78 356.17 46.90 339.64 52.41 316.98
  C 56.81 298.87 60.26 280.21 69.35 263.74
  A 2.64 2.63 -49.7 0 0 69.11 260.84
  C 61.79 251.54 58.27 239.34 61.58 227.83
  C 65.89 212.89 77.97 198.54 93.75 194.77
  C 99.21 193.47 106.16 193.72 112.49 193.73
  C 120.21 193.75 127.85 197.35 133.92 201.83
  C 139.52 205.97 148.44 202.64 154.93 201.20
  C 161.89 199.66 165.08 199.53 169.03 195.15
  Q 171.94 191.92 172.66 191.57
  C 177.37 189.28 179.26 196.30 183.26 193.04
  C 187.18 189.84 197.72 183.15 202.87 184.88
  C 208.29 186.70 204.37 194.55 211.01 194.46
  C 220.04 194.34 221.59 201.57 229.44 202.96
  Q 249.31 206.49 269.33 214.40
  C 279.66 218.49 286.33 212.62 295.07 209.75
  Q 307.29 205.74 320.24 207.26
  C 349.18 210.65 363.84 233.55 361.21 261.17
  Q 359.92 274.74 350.26 286.03
  C 347.90 288.78 348.60 291.94 350.41 295.06
  Q 357.45 307.21 362.44 320.37
  A 1.63 1.55 13.3 0 0 362.80 320.92
  L 364.26 322.39
  A 1.54 1.54 0.0 0 0 364.92 322.78
  Q 375.13 326.00 389.51 328.50
  C 397.83 329.95 397.81 319.26 403.75 315.53
  C 410.89 311.03 424.24 305.45 432.73 307.78
  Q 440.49 309.92 448.50 311.00
  C 453.80 311.71 462.52 323.40 465.45 327.39
  A 1.78 1.75 24.0 0 1 465.79 328.26
  C 466.83 338.10 466.11 347.88 465.73 357.75
  C 465.44 365.31 448.31 369.89 452.63 379.58
  Q 454.63 384.08 456.57 388.58
  C 463.01 403.57 464.96 418.00 465.31 434.32
  Z
  M 169.07 210.11
  C 141.88 208.22 114.34 226.59 96.02 244.88
  C 78.79 262.07 68.55 283.94 64.44 308.21
  Q 64.16 309.86 65.79 309.47
  C 72.17 307.91 79.42 305.28 86.19 306.09
  C 98.22 307.53 110.40 313.56 116.94 323.81
  C 127.38 340.19 120.76 366.97 107.67 380.43
  C 88.15 400.49 43.14 408.64 36.04 370.75
  A 0.41 0.41 0.0 0 0 35.28 370.64
  C 25.64 389.15 24.48 408.82 34.75 427.17
  C 41.48 439.19 53.95 449.30 66.00 456.50
  C 92.93 472.60 123.62 480.08 154.16 485.76
  C 171.26 488.94 186.78 489.55 205.25 490.20
  Q 208.50 490.31 210.55 489.74
  A 0.56 0.56 0.0 0 0 210.88 488.91
  C 209.36 486.45 207.29 483.98 206.11 481.71
  C 198.65 467.33 206.03 448.96 221.52 444.75
  Q 225.79 443.59 234.50 443.91
  C 260.76 444.90 281.96 446.00 303.87 437.01
  C 318.38 431.07 329.95 425.77 346.25 427.67
  C 347.81 427.85 349.26 428.14 350.02 426.56
  Q 362.22 401.40 361.06 372.83
  C 359.71 339.59 350.90 306.71 327.63 281.92
  C 318.96 272.68 310.11 260.47 300.93 253.56
  C 289.27 244.79 280.66 239.63 274.82 229.42
  C 274.15 228.25 272.44 226.66 271.24 226.09
  C 252.12 216.93 233.45 212.87 212.44 210.73
  C 209.16 210.39 207.08 209.13 205.47 206.45
  A 1.99 1.98 65.7 0 0 203.16 205.57
  L 197.64 207.34
  A 2.27 2.26 69.9 0 1 194.85 206.04
  L 192.11 199.41
  Q 191.84 198.74 191.33 199.26
  Q 185.17 205.59 183.33 207.08
  C 178.82 210.71 175.26 210.54 169.07 210.11
  Z
  M 369.99 483.88
  Q 372.54 484.64 375.25 484.62
  Q 403.88 484.39 432.50 484.41
  Q 436.58 484.42 437.98 482.29
  Q 459.51 449.51 452.35 411.97
  C 444.67 371.78 411.71 340.17 371.01 335.12
  C 369.14 334.89 366.68 335.33 367.21 337.75
  C 374.29 370.06 373.65 401.11 360.30 431.31
  A 1.25 1.25 0.0 0 0 360.51 432.64
  Q 363.18 435.68 366.17 438.82
  C 369.42 442.24 371.13 449.16 372.17 454.31
  Q 375.05 468.54 369.04 481.80
  A 1.52 1.51 20.6 0 0 369.99 483.88
  Z
  M 88.4939 358.5946
  A 1.99 1.99 0.0 0 0 86.5143 356.5942
  L 65.8146 356.4858
  A 1.99 1.99 0.0 0 0 63.8142 358.4654
  L 63.8061 360.0054
  A 1.99 1.99 0.0 0 0 65.7857 362.0058
  L 86.4854 362.1142
  A 1.99 1.99 0.0 0 0 88.4858 360.1346
  L 88.4939 358.5946
  Z"
/>
<path fill="#ffffff" d="
  M 169.07 210.11
  C 175.26 210.54 178.82 210.71 183.33 207.08
  Q 185.17 205.59 191.33 199.26
  Q 191.84 198.74 192.11 199.41
  L 194.85 206.04
  A 2.27 2.26 69.9 0 0 197.64 207.34
  L 203.16 205.57
  A 1.99 1.98 65.7 0 1 205.47 206.45
  C 207.08 209.13 209.16 210.39 212.44 210.73
  C 233.45 212.87 252.12 216.93 271.24 226.09
  C 272.44 226.66 274.15 228.25 274.82 229.42
  C 280.66 239.63 289.27 244.79 300.93 253.56
  C 310.11 260.47 318.96 272.68 327.63 281.92
  C 350.90 306.71 359.71 339.59 361.06 372.83
  Q 362.22 401.40 350.02 426.56
  C 349.26 428.14 347.81 427.85 346.25 427.67
  C 329.95 425.77 318.38 431.07 303.87 437.01
  C 281.96 446.00 260.76 444.90 234.50 443.91
  Q 225.79 443.59 221.52 444.75
  C 206.03 448.96 198.65 467.33 206.11 481.71
  C 207.29 483.98 209.36 486.45 210.88 488.91
  A 0.56 0.56 0.0 0 1 210.55 489.74
  Q 208.50 490.31 205.25 490.20
  C 186.78 489.55 171.26 488.94 154.16 485.76
  C 123.62 480.08 92.93 472.60 66.00 456.50
  C 53.95 449.30 41.48 439.19 34.75 427.17
  C 24.48 408.82 25.64 389.15 35.28 370.64
  A 0.41 0.41 0.0 0 1 36.04 370.75
  C 43.14 408.64 88.15 400.49 107.67 380.43
  C 120.76 366.97 127.38 340.19 116.94 323.81
  C 110.40 313.56 98.22 307.53 86.19 306.09
  C 79.42 305.28 72.17 307.91 65.79 309.47
  Q 64.16 309.86 64.44 308.21
  C 68.55 283.94 78.79 262.07 96.02 244.88
  C 114.34 226.59 141.88 208.22 169.07 210.11
  Z
  M 303.61 359.32
  C 299.54 337.52 280.84 324.40 259.98 319.78
  Q 233.49 313.92 210.59 325.89
  C 186.61 338.43 182.16 364.93 197.57 386.19
  C 212.80 407.21 234.09 420.91 260.99 417.90
  C 289.08 414.76 308.75 386.80 303.61 359.32
  Z
  M 118.00 396.16
  C 122.12 404.23 129.29 410.57 139.01 409.31
  C 142.88 408.81 154.63 405.54 156.26 401.06
  C 158.87 393.93 151.46 391.68 146.39 390.72
  Q 136.84 388.92 127.26 387.35
  C 121.72 386.44 114.29 388.90 118.00 396.16
  Z"
/>
<path fill="#000000" d="
  M 259.98 319.78
  C 280.84 324.40 299.54 337.52 303.61 359.32
  C 308.75 386.80 289.08 414.76 260.99 417.90
  C 234.09 420.91 212.80 407.21 197.57 386.19
  C 182.16 364.93 186.61 338.43 210.59 325.89
  Q 233.49 313.92 259.98 319.78
  Z
  M 249.8587 368.8409
  A 2.70 2.70 0.0 0 0 247.1353 366.1646
  L 227.5360 366.3356
  A 2.70 2.70 0.0 0 0 224.8597 369.0591
  L 224.8613 369.2391
  A 2.70 2.70 0.0 0 0 227.5847 371.9154
  L 247.1840 371.7444
  A 2.70 2.70 0.0 0 0 249.8603 369.0209
  L 249.8587 368.8409
  Z"
/>
<path fill="#ffffff" d="
  M 369.99 483.88
  A 1.52 1.51 20.6 0 1 369.04 481.80
  Q 375.05 468.54 372.17 454.31
  C 371.13 449.16 369.42 442.24 366.17 438.82
  Q 363.18 435.68 360.51 432.64
  A 1.25 1.25 0.0 0 1 360.30 431.31
  C 373.65 401.11 374.29 370.06 367.21 337.75
  C 366.68 335.33 369.14 334.89 371.01 335.12
  C 411.71 340.17 444.67 371.78 452.35 411.97
  Q 459.51 449.51 437.98 482.29
  Q 436.58 484.42 432.50 484.41
  Q 403.88 484.39 375.25 484.62
  Q 372.54 484.64 369.99 483.88
  Z"
/>
<rect fill="#ffffff" x="-12.34" y="-2.76" transform="translate(76.15,359.30) rotate(0.3)" width="24.68" height="5.52" rx="1.99"/>
<rect fill="#ffffff" x="-12.50" y="-2.79" transform="translate(237.36,369.04) rotate(-0.5)" width="25.00" height="5.58" rx="2.70"/>
<path fill="#000000" d="
  M 139.01 409.31
  C 129.29 410.57 122.12 404.23 118.00 396.16
  C 114.29 388.90 121.72 386.44 127.26 387.35
  Q 136.84 388.92 146.39 390.72
  C 151.46 391.68 158.87 393.93 156.26 401.06
  C 154.63 405.54 142.88 408.81 139.01 409.31
  Z"
/>
<path fill="#ffffff" d="
  M 465.31 434.32
  L 466.41 441.47
  Q 466.85 442.03 466.00 442.00
  A 0.68 0.67 80.4 0 1 465.38 441.55
  Q 464.00 437.80 465.31 434.32
  Z"
/>
</svg>
