<svg viewBox="0 0 1000 1000" xmlns="http://www.w3.org/2000/svg"><linearGradient gradientUnits="userSpaceOnUse" id="a" x1="344.04" x2="351.94" y1="909.93" y2="-430.17"><stop offset="0" stop-color="#ffd4b6" class="stop-color-ffd4b6"></stop><stop offset=".5" stop-color="#ff8c98" class="stop-color-ff8c98"></stop><stop offset="1" stop-color="#822e5f" class="stop-color-822e5f"></stop></linearGradient><linearGradient gradientUnits="userSpaceOnUse" id="b" x1="870.83" x2="619.78" y1="444.64" y2="44.38"><stop offset="0" stop-color="#ffd4b6" class="stop-color-ffd4b6"></stop><stop offset=".5" stop-color="#ffb8b6" class="stop-color-ffb8b6"></stop><stop offset="1" stop-color="#822e5f" class="stop-color-822e5f"></stop></linearGradient><path d="M562.15 500.48a30.1 30.1 0 0 0-8.83-18.39c-19-18.08-45.28 3.86-58 24.55-13 21-32.64 47.14-57 35.3-10.28-5-16.82-15.35-18.24-26.69-3.25-26-2.38-59.21 17.45-79.18 15.65-15.78 45.94-17.76 58.23.77 7.74 11.66 7.56 29 21 35.29 8.82 4.12 19.19 1.16 25.79-6 16.78-18.2 7.87-46.18 6-65.48-2.48-25.26-16-48.5-37.38-62.15-49.52-31.61-96.17 10.7-129.4 48.59a313.68 313.68 0 0 0 67.18-123.81c4.66-16.84 7.2-37.39-11.14-47.47-12.75-7-28.68-4.65-39.67 4.9C346 266 319.61 331.07 294.39 394.25q8.43-39.25 13.47-79.13c2.23-17.59.74-40.78-18.15-44.38-10.84-2.07-21.77 3.48-27.45 12.95A327.14 327.14 0 0 0 216.75 428c-14.19-21.8 7.88-60.61-15.75-72.48-12.1-6.08-26.78-.15-32.64 12.07C116 476.86 124.86 630 145.14 718h280a62.1 62.1 0 0 1 35.5-43.66C525.63 645 570.63 572.32 562.15 500.48z" fill="url(#a)" class="fillurl(-a)"></path><path d="M435.34 744.69c-2-15.32-5.56-33-19.83-40.05-6.05-3-13.06-3.45-19.84-3.8a1246.57 1246.57 0 0 0-237.5 10.58c-7 1-14.54 2.33-19.16 7.45-3.79 4.18-4.76 10-5.58 15.5l-28.9 193.81a37 37 0 0 0 36.61 42.49l281.08.07A37 37 0 0 0 459 929z" fill="#000000" class="fill-000000"></path><path d="M440.51 743.91a1.5 1.5 0 0 0-.79 0c-.39.07-.72.07-.72 0s-.13-.06-.26 0a.31.31 0 0 1-.34 0c-.14-.18-.38-.13-.24.05s.06.12 0 .06a.38.38 0 0 1-.15-.21c0-.15-.09-.15-.36 0a.72.72 0 0 1-.46 0 2.37 2.37 0 0 0-.63 0 2.48 2.48 0 0 1-.64 0 .86.86 0 0 0-.54.12c-.22.14-.3.15-.32 0s-.07-.08-.18 0-.19.13-.26 0a2.1 2.1 0 0 0-1.54.23c0 .1-.05.08-.08-.06s-.13-.19-.45-.11a1 1 0 0 1-.6 0 .25.25 0 0 0-.34.07c-.12.12-.19.14-.27 0s-.26-.07-.48 0a.72.72 0 0 1-.58 0c-.11-.07-.2-.08-.19 0s-.09 0-.2 0-.23-.09-.27.09-.1.19-.24.1a1.89 1.89 0 0 0-.79-.06 1.37 1.37 0 0 1-.72-.08 1 1 0 0 0-.44-.17c-.31 0-.32 0-.11.15s.2.19-.09.09-.29-.18-.25-.26 0-.1-.19 0a.87.87 0 0 1-.72-.11c-.75-.36-.84-.52-1.05-1.67-.07-.35-.16-.63-.21-.62s-.09-.14-.1-.33a1.88 1.88 0 0 0-.16-.65 1.64 1.64 0 0 1-.07-.86c.07-.5.06-.57-.14-.6s-.18-.08-.1-.19a.29.29 0 0 0 0-.31c-.06-.08 0-.16 0-.17s.09-.21 0-.44-.07-.45 0-.49a2.85 2.85 0 0 0-.37-1.32.1.1 0 0 1 0-.15 2.8 2.8 0 0 0-.09-1 2 2 0 0 1-.11-.88c.09 0 0-.27-.39-1.07-.13-.27-.18-.5-.12-.55a.12.12 0 0 0 0-.17.11.11 0 0 1 0-.17c.05 0 0-.33-.08-.63s-.14-.55-.07-.57 0-.56-.17-.6a.15.15 0 0 0-.16.13c0 .12 0 .13-.07 0a.23.23 0 0 1 .11-.25c.13-.09.12-.17 0-.35s-.18-.29-.16-.36a1.59 1.59 0 0 0-.05-.82v-.27l-.11-.35c-.14-.47-.29-1-.47-1.4-.34-.91-.67-1.86-1.09-2.73s-.83-1.75-1.28-2.62a22.61 22.61 0 0 0-3.23-4.57l-.46-.52a5.35 5.35 0 0 0-.5-.45c-.34-.29-.66-.62-1-.91a18.25 18.25 0 0 0-2.3-1.51 18.83 18.83 0 0 0-5.82-2.12 56.74 56.74 0 0 0-8.2-1c-1.55-.1-3.22-.18-4.92-.25l-5.17-.24c-3.5-.16-7.11-.36-10.83-.46l-11.5-.4-12.2-.26c-16.74-.3-35.4-.3-56.19.26-14.93.42-29.67 1-44.15 2s-28.7 2-42.6 3.43c-7 .64-13.83 1.44-20.62 2.17l-10.11 1.22c-3.35.4-6.67.81-10 1.27l-9.76 1.41a64.78 64.78 0 0 0-8.44 1.57 13.92 13.92 0 0 0-5.15 2.46 6.5 6.5 0 0 0-1.3 1.53 11.09 11.09 0 0 0-1.11 2.42 47.15 47.15 0 0 0-1.57 7.67c-.46 3.07-.92 6.13-1.37 9.15q-1.36 9.09-2.68 17.83-2.62 17.51-5 33.57c-3.21 21.39-6.12 40.74-8.65 57.61-2.66 17.7-5.64 37.53-9 60.26-.42 2.84-.86 5.73-1.3 8.66l-.66 4.44-.17 1.12c0 .36-.13.8-.14 1l-.15 1.73a28.8 28.8 0 0 0 .28 7c.09.59.28 1.17.41 1.76a13.67 13.67 0 0 0 .46 1.75 27 27 0 0 0 1.35 3.42 28.2 28.2 0 0 0 25.25 16.3l228.31.21h52.65a5.72 5.72 0 0 0 .77 0h.7l1.39-.07h.7l.68-.12a28.3 28.3 0 0 0 24.3-30.16l-.08-1.26c0-.43-.13-1-.18-1.57l-.41-3.21c-.28-2.13-.54-4.23-.81-6.31-.53-4.15-1-8.21-1.55-12.14l-2.8-22c-1.72-13.52-3.13-24.56-4.09-32.09-3.87-30.13-7.25-56.42-7.5-58.38-.23-1.74-2.22-17.13-4.44-34.14 0-.37-.24-2.16-.44-4a28 28 0 0 0-.48-3.34c-.06 0-.08-.18 0-.35a.87.87 0 0 0 0-.46.44.44 0 0 1 .05-.36.35.35 0 0 0 0-.4 3.67 3.67 0 0 1-.07-1.71 2.23 2.23 0 0 0-.12-.7c-.11-.33-.1-.49.05-.69a1 1 0 0 0 .15-.65c-.07-.6 1.06-2 1.53-1.86a.75.75 0 0 0 .5-.26c.16-.16.36-.27.44-.23s.13 0 .12-.08.18-.13.54-.12a7.48 7.48 0 0 0 2.34-.29.39.39 0 0 1 .4 0 4 4 0 0 0 1.26-.07 7.38 7.38 0 0 1 1.37-.12.85.85 0 0 0 .52-.07 1 1 0 0 1 .54-.06 11.87 11.87 0 0 0 1.9-.07 11.75 11.75 0 0 1 1.84-.08.48.48 0 0 0 .4-.11 3.44 3.44 0 0 1 1.75-.32l.69.06c1.2.07 1.6.56 1.9 2.39a1.6 1.6 0 0 0 .24.71c.07 0 .09.32.06.65a3.47 3.47 0 0 0 .12 1.22 2.27 2.27 0 0 1 .13.77 36.18 36.18 0 0 0 .6 4.9 2.86 2.86 0 0 1 .1 1.09c-.05 0 0 .14 0 .21s.16.28.16 1.52v.71l1.52 12c2.09 16.49 4.4 34.65 6.65 52.45 4.55 35.59 8.9 69.71 11 86l1.52 11.76c.23 1.77.45 3.47.66 5.11l.15 1.22.08.6V928.07c.08 1 .15 2 .23 3a47.73 47.73 0 0 1-.72 11.44c-.14.93-.43 1.84-.65 2.77s-.46 1.85-.76 2.77l-1 2.74a21.81 21.81 0 0 1-1.17 2.75l-1.38 2.74c-.47.93-1.09 1.79-1.65 2.71a47.44 47.44 0 0 1-4 5.42 49 49 0 0 1-12.05 9.91 45.79 45.79 0 0 1-18.58 6l-2.78.16-1.42.07h-16.41l-64.12-.11H141.28c-1.6 0-3.31-.16-4.92-.26s-3.24-.49-4.82-.75a46.66 46.66 0 0 1-16.68-7.14l-1.74-1.29c-.57-.4-1.08-.88-1.61-1.31l-1.51-1.32-.77-.66c-.24-.23-.46-.48-.7-.71l-2.68-2.83c-.8-1-1.56-2-2.3-2.94a46.8 46.8 0 0 1-9-25.15l-.06-3.62c0-1.22.19-2.44.29-3.67l.18-1.85c.07-.57.15-1 .22-1.52l.45-3c1.21-8 2.49-16.57 3.84-25.51 2.68-17.89 5.62-37.42 8.69-57.91s6.3-41.94 9.56-63.66c1.62-10.86 3.26-21.79 4.9-32.71l1.23-8.18c.41-2.66.8-5.67 1.64-9a31.08 31.08 0 0 1 4.75-10.71 24.43 24.43 0 0 1 4.51-4.79 29 29 0 0 1 5.18-3.34 42.46 42.46 0 0 1 10-3.34c3.11-.66 6-1.06 8.69-1.41 5.38-.71 10.73-1.48 16-2.12 10.62-1.32 21.06-2.51 31.24-3.52 20.36-2.05 39.66-3.47 57.17-4.43 35-1.91 62.86-1.93 77.86-1.83 8.41 0 26.4.27 48.56 1.27l8.54.4a91.12 91.12 0 0 1 9.72 1 42.54 42.54 0 0 1 11 3.26A37.54 37.54 0 0 1 429 703a43.15 43.15 0 0 1 7.15 9.71c.44.86.93 1.72 1.32 2.58l1.15 2.6c.35.87.66 1.73 1 2.6.16.43.33.87.46 1.3l.35 1.09.13.4c.36 1.06.65 2 .7 2a1.42 1.42 0 0 1 .22.4 2.73 2.73 0 0 0 .56 1c.21.24.21.29 0 .34s-.16.09 0 .21a2.37 2.37 0 0 1 .42 1.61.64.64 0 0 0 .06.51.89.89 0 0 1 .22.82c-.05.22 0 .28.12.25s.21.8 0 1c-.05.05 0 .22 0 .38a2.45 2.45 0 0 1 .1.79 1.36 1.36 0 0 0 .17.72c.12.15.14.26.05.35a.45.45 0 0 0-.08.39 15.7 15.7 0 0 0 .47 1.76 3.29 3.29 0 0 1 0 1.51c-.09.08-.06.2.08.4s.18.32.05.46-.08.85.22 2c.08.27.07.43 0 .42s-.13.15-.12.33c.09 1-.46 2.24-.92 2.12a.38.38 0 0 0-.36.18c-.1.12-.23.2-.3.16s-.12 0-.1.17 0 .19-.17.09a1.15 1.15 0 0 0-1 .27.21.21 0 0 1-.44-.01zM507.36 442.06c0-.08-.4-.11-.8-.07s-.72 0-.72-.06-.12-.09-.26 0a.28.28 0 0 1-.34 0c-.14-.22-.38-.17-.24 0s.05.14 0 .07a.48.48 0 0 1-.14-.26c0-.18-.09-.18-.37 0a.58.58 0 0 1-.45 0 2.27 2.27 0 0 0-.63-.09 2.31 2.31 0 0 1-.64-.07.87.87 0 0 0-.55.1c-.22.13-.31.14-.32 0s-.06-.08-.18 0-.2.12-.27 0a2.32 2.32 0 0 0-1.54.17c0 .09-.06.07-.08-.05s-.12-.17-.44-.1a1.14 1.14 0 0 1-.59 0 .3.3 0 0 0-.35.06c-.12.1-.2.1-.27 0s-.25-.05-.47 0a1 1 0 0 1-.58 0c-.11 0-.19-.05-.19 0s-.08 0-.2 0-.21-.05-.27.07-.11.12-.24.07a3.23 3.23 0 0 0-.78 0 2.15 2.15 0 0 1-.7 0 1.46 1.46 0 0 0-.44-.05c-.31 0-.31 0-.11.08s.2.09-.1.06-.28-.07-.24-.11 0-.05-.18 0a1.78 1.78 0 0 1-.71 0c-.71-.06-.78-.08-1-.53 0-.14-.15-.24-.19-.22s-.09 0-.1-.12a.37.37 0 0 0-.15-.24c-.11-.06-.15-.21-.12-.4s0-.31-.16-.25-.18 0-.12-.06.05-.15 0-.17-.05-.07 0-.11.06-.14 0-.24-.13-.22-.09-.27-.36-.59-.55-.6-.05-.05 0-.1a.93.93 0 0 0-.31-.52c-.22-.24-.36-.47-.32-.5s-.07-.18-.65-.47c-.18-.1-.31-.21-.28-.28s0-.11-.06-.11-.08-.05-.06-.11-.11-.24-.29-.38-.33-.29-.29-.34-.23-.38-.37-.3a.15.15 0 0 0-.07.19v.06a.2.2 0 0 1 0-.24c.06-.14 0-.19-.18-.21s-.27-.08-.28-.14-.11-.28-.41-.55l-.13-.1-.28-.2c-.24-.17-.52-.33-.8-.5a36.5 36.5 0 0 0-4.24-2 33.19 33.19 0 0 0-14.2-2 42.65 42.65 0 0 0-12.66 2.91 46.86 46.86 0 0 0-10.59 5.89c-.74.6-1.52 1.14-2.21 1.74l-2 1.81c-.64.61-1.2 1.26-1.8 1.86a25.11 25.11 0 0 0-1.65 1.91 52.6 52.6 0 0 0-5.12 7.41 61.33 61.33 0 0 0-4 8.7 71.43 71.43 0 0 0-3.25 12.19 84.11 84.11 0 0 0-1.16 16.43c.24 6.17.91 13.5 3.2 20.11a33.74 33.74 0 0 0 1.62 3.84c.59 1.27 1.36 2.24 2 3.37l1.22 1.5c.2.24.38.51.59.74l.69.67c.46.44.88.91 1.34 1.33l1.45 1.16.69.57.76.47 1.43 1c1 .55 1.93 1 2.77 1.47l2.43 1c.72.3 1.39.43 1.9.6s1 .35 1.54.46l1.48.29c.48.09.93.21 1.37.27l1.23.12c.75.07 1.39.18 1.85.17h2.66l1.69-.17c.57 0 1.54-.12 1.35-.12.27-.07 1.64-.25 3-.53a16.64 16.64 0 0 0 2.41-.78c0-.06.11-.11.24-.1a.53.53 0 0 0 .32-.09.25.25 0 0 1 .28 0 .2.2 0 0 0 .28-.09c.09-.15.51-.27 1.23-.35a.83.83 0 0 0 .47-.26.38.38 0 0 1 .5-.13.57.57 0 0 0 .51 0 2.46 2.46 0 0 1 2 .89.82.82 0 0 0 .42.36c.2.1.37.24.38.32s.05.12.11.09.19.13.34.45a8 8 0 0 0 1.28 2 .38.38 0 0 1 .19.34 4.11 4.11 0 0 0 .61 1.11 7.12 7.12 0 0 1 .69 1.18 1 1 0 0 0 .28.44.83.83 0 0 1 .29.46 10.87 10.87 0 0 0 .85 1.69 10.76 10.76 0 0 1 .83 1.64.39.39 0 0 0 .27.31 2.94 2.94 0 0 1 1 1.45c.05.18.14.48.2.67.39 1.14-.05 1.79-2.14 3a3.53 3.53 0 0 0-.79.59 1.67 1.67 0 0 1-.79.32 5.9 5.9 0 0 0-1.48.6 3.92 3.92 0 0 1-.93.42c-.22.11-4.52 1.41-6.09 1.9a4.61 4.61 0 0 1-1.37.23c-.06-.05-.18 0-.27.07s-.35.19-1.92.32h-.78c-.89.1-1.82.16-2.76.24a46.32 46.32 0 0 1-5.91.09c-1 0-2-.16-3-.25s-2-.19-3-.39a50.84 50.84 0 0 1-5.78-1.35l-2.69-.82-2.47-1c-.79-.33-1.56-.61-2.26-1l-2-1-1.7-.89c-.51-.28-.95-.59-1.35-.83a36.27 36.27 0 0 1-4.11-2.83l-1.64-1.31-.8-.65-.78-.76-1.7-1.69-.95-1-1-1.19c-.67-.85-1.46-1.76-2.24-2.88s-1.57-2.46-2.45-4a57.75 57.75 0 0 1-5-13.18 79.45 79.45 0 0 1-1.92-9.7 111.66 111.66 0 0 1-.88-14.16 103.27 103.27 0 0 1 1.13-14.54c.19-1.1.36-2.17.54-3.18s.41-2 .6-2.87c.37-1.8.82-3.34 1.15-4.56a79 79 0 0 1 8.77-20.22c1.09-1.87 2.41-3.67 3.72-5.5.68-.91 1.42-1.78 2.14-2.67.36-.44.72-.89 1.1-1.33l1.21-1.29a60.39 60.39 0 0 1 10.71-9.16 63.38 63.38 0 0 1 11.87-6.37l3-1.14c1-.38 2-.63 2.95-.93a52.84 52.84 0 0 1 5.68-1.41 55.69 55.69 0 0 1 16.73-.81 49 49 0 0 1 10.47 2.18 28.52 28.52 0 0 1 3.62 1.33c1.23.55 2.48 1 3.77 1.7A40.1 40.1 0 0 1 497 419l.4.26c1 .72 2 1.35 2.05 1.39a2.22 2.22 0 0 1 .48.23 4.36 4.36 0 0 0 1.16.59c.35.12.39.16.27.3s-.08.18.13.21a3.27 3.27 0 0 1 1.51 1.37.9.9 0 0 0 .4.48 1.3 1.3 0 0 1 .76.76c.09.25.16.3.26.2s.72.78.7 1.11c0 .07.12.26.27.41a4 4 0 0 1 .6.85 2.93 2.93 0 0 0 .6.77c.2.14.28.27.25.41a.74.74 0 0 0 .15.49c.26.35 1.25 1.85 1.43 2.06a5.45 5.45 0 0 1 .66 2c-.05.13 0 .28.26.53s.3.42.22.65a10.23 10.23 0 0 0 .85 2.78c.14.38.17.62.08.61s-.11.22-.06.5a5.26 5.26 0 0 1-.07 2.18c-.18.62-.44 1-.67.9s-.27.05-.36.22-.23.26-.31.21-.11 0-.1.21 0 .27-.17.12-1 0-1.05.24-.23.22-.34.02z" fill="#000000" class="fill-000000"></path><path d="M546 546a1.64 1.64 0 0 0 .79.06c.39 0 .72 0 .72.07s.11.07.25 0 .29 0 .33 0 .37.15.25 0 0-.11 0 0a.4.4 0 0 1 .12.22c0 .15.07.16.36 0a.69.69 0 0 1 .45 0 3 3 0 0 0 .62.12 2.47 2.47 0 0 1 .63.11.87.87 0 0 0 .56-.06c.23-.11.32-.11.32 0s0 .1.18 0 .21-.11.27 0 1.47.15 1.55-.06.07-.07.07.06.11.22.44.17a1 1 0 0 1 .59.08.23.23 0 0 0 .34 0c.14-.11.21-.12.28 0s.24.11.47.05a.72.72 0 0 1 .58.07c.1.09.19.11.19.06s.09 0 .19.06.21.12.28-.06.13-.19.25-.08a1.73 1.73 0 0 0 .78.17 1.42 1.42 0 0 1 .7.17.9.9 0 0 0 .41.25c.31.1.31.09.13-.14s-.18-.24.11-.09.26.23.21.32 0 .11.19 0 .41 0 .7.22c.69.51.76.7.81 2a1.74 1.74 0 0 0 .11.73c.05 0 .08.18.06.39a2.85 2.85 0 0 0 0 .77 2.25 2.25 0 0 1-.11 1c-.18.55-.18.63 0 .71s.16.13.05.24a.4.4 0 0 0-.08.35c0 .1 0 .19-.07.19s-.13.22-.12.49 0 .53-.1.57a4.07 4.07 0 0 0 0 1.62.12.12 0 0 1 0 .16 3.62 3.62 0 0 0-.18 1.13 2.79 2.79 0 0 1-.17 1c-.1 0-.09.31 0 1.38v.67a.15.15 0 0 0-.06.2.16.16 0 0 1-.06.19 1.61 1.61 0 0 0-.15.77c0 .39-.09.7-.15.69s-.22.64-.08.76.15 0 .19-.08.09-.13.08 0a.3.3 0 0 1-.21.24c-.15 0-.17.14-.11.42a.8.8 0 0 1 0 .47 2.42 2.42 0 0 0-.32 1l-.05.25v.07l-.06.42-.16 1.32c-.28 1.83-.61 3.9-1 6.28A158.43 158.43 0 0 1 554 592.1c-1.58 5.21-3.53 10.15-5.48 14.84-1 2.31-2 4.6-3.11 6.76-.54 1.09-1 2.17-1.59 3.21s-1.1 2.06-1.64 3.07a154.7 154.7 0 0 1-12.52 19.53 158.68 158.68 0 0 1-16.58 18.84 149.89 149.89 0 0 1-13.77 11.85 145.11 145.11 0 0 1-19.37 12.49 150.67 150.67 0 0 1-18.68 8.42l-12.65 4.69a90.88 90.88 0 0 0-8.64 3.68c-.13.09-.82.42-1.81.91l-1.63.87c-.56.27-1.45.79-1.28.7-.28.17-1.71.89-3 1.72a17.81 17.81 0 0 0-1.67 1.11 3.83 3.83 0 0 0-.67.54c0 .07-.1.15-.25.18a.64.64 0 0 0-.34.18.34.34 0 0 1-.3.1.23.23 0 0 0-.28.18c-.06.18-.47.45-1.2.77a1.94 1.94 0 0 0-.44.4c-.18.22-.3.29-.52.26a.71.71 0 0 0-.54.18 2.35 2.35 0 0 1-2.22-.35.85.85 0 0 0-.49-.26c-.21-.05-.42-.15-.44-.23s-.08-.1-.13-.06-.21-.08-.42-.37a7.9 7.9 0 0 0-1.64-1.68.41.41 0 0 1-.26-.3 4 4 0 0 0-.82-1 7.13 7.13 0 0 1-.91-1 .81.81 0 0 0-.36-.37.92.92 0 0 1-.38-.4 11.42 11.42 0 0 0-1.18-1.49 11.49 11.49 0 0 1-1.15-1.43.39.39 0 0 0-.33-.25 3.14 3.14 0 0 1-1.31-1.22c-.08-.16-.24-.44-.34-.6-.63-1-.38-1.72 1.24-3.28a2.37 2.37 0 0 0 .6-.66c0-.09.26-.29.62-.48a4.73 4.73 0 0 0 1.16-.89 2.28 2.28 0 0 1 .73-.58 22.2 22.2 0 0 0 2-1.34c1-.74 2.19-1.44 2.78-1.9a3.61 3.61 0 0 1 1.09-.64c.07 0 .16 0 .21-.14s.23-.26 1.53-.83l.39-.18.24-.11c.66-.39 1.35-.72 2.06-1.08 2.82-1.47 5.93-2.84 8.93-4.08 6-2.46 11.57-4.39 14.13-5.38l6.15-2.36c1.91-.76 4.21-1.66 8.4-3.59l3.09-1.47 2.69-1.43c1.63-.83 2.79-1.54 3.16-1.77a127.35 127.35 0 0 0 15.6-10.81A147.34 147.34 0 0 0 505.05 640a136.78 136.78 0 0 0 10.84-13.12 140.76 140.76 0 0 0 10.94-17.63 136.85 136.85 0 0 0 11.24-29.3c.28-1.29 1-4 1.62-7.47.37-1.71.62-3.6.93-5.54.17-1 .28-2 .38-2.93v-.34a13.34 13.34 0 0 0 .11-1.76 1.35 1.35 0 0 1-.07-.37 1.82 1.82 0 0 0-.18-.91c-.12-.24-.11-.28.07-.26s.19 0 .08-.16a1.72 1.72 0 0 1 .08-1.38.47.47 0 0 0 .09-.42.63.63 0 0 1 0-.71c.11-.16.1-.22 0-.23s0-.69.27-.83a.4.4 0 0 0 .07-.32 2.25 2.25 0 0 1 .09-.67 1 1 0 0 0 0-.64c-.08-.14-.07-.24 0-.29a.45.45 0 0 0 .17-.31 14.33 14.33 0 0 0-.11-1.58 2.55 2.55 0 0 1 .34-1.27c.1 0 .09-.17 0-.36s-.12-.3 0-.41.2-.73.06-1.73c0-.24 0-.38.08-.37s.15-.11.16-.28c0-.87.74-1.94 1.18-1.79a.45.45 0 0 0 .39-.13c.11-.1.25-.16.32-.12s.12 0 .11-.14 0-.18.18-.07a1.22 1.22 0 0 0 1.07-.16.22.22 0 0 1 .44 0zM299.36 351.35a1.65 1.65 0 0 0 .73.32c.38.1.68.23.66.29s.08.11.23.11.28.07.3.16.3.27.25 0 0-.13 0 0a.38.38 0 0 1 0 .25c0 .15 0 .18.33.16a.65.65 0 0 1 .43.14 2.6 2.6 0 0 0 .56.31 2.6 2.6 0 0 1 .56.31.84.84 0 0 0 .54.12c.26 0 .34 0 .31.09s0 .11.18.05.23 0 .26.06 1.35.6 1.49.43.08 0 .05.09 0 .23.36.3a.94.94 0 0 1 .54.25.24.24 0 0 0 .34.08c.16-.06.23 0 .26.08s.2.17.44.19a.73.73 0 0 1 .52.24c.08.12.15.17.17.12s.09 0 .17.12.16.17.28 0 .17-.13.26 0a1.81 1.81 0 0 0 .69.4c.31.12.59.28.61.37a1 1 0 0 0 .33.35c.26.17.27.17.16-.09s-.1-.27.12-.05.19.29.12.35 0 .1.16.1a.86.86 0 0 1 .61.41c.52.66.53.85.21 2-.1.36-.14.67-.09.68s0 .18-.05.36a2 2 0 0 0-.15.69 1.72 1.72 0 0 1-.34.86c-.3.45-.31.52-.16.64s.13.16 0 .23a.33.33 0 0 0-.16.28c0 .11 0 .18-.11.16s-.18.16-.23.4-.15.47-.23.49a3.37 3.37 0 0 0-.33 1.45.11.11 0 0 1-.08.14 3 3 0 0 0-.39 1 2.53 2.53 0 0 1-.36.91c-.1 0-.15.26-.23 1.25 0 .32-.11.58-.18.6a.13.13 0 0 0-.1.16.13.13 0 0 1-.09.16 1.37 1.37 0 0 0-.28.67c-.09.34-.2.61-.26.6s-.32.54-.2.67a.13.13 0 0 0 .21 0c.08-.11.1-.11.07 0a.28.28 0 0 1-.24.18c-.15 0-.19.1-.17.36a.71.71 0 0 1-.07.44 2.12 2.12 0 0 0-.46.84l-.29.75-.39 1-1.13 3c-.28.71-.65 1.78-1.3 3.7l-.66 1.95a1.55 1.55 0 0 0-.14.61c0 .05 0 .18-.06.46l-1.09 3.8a24.89 24.89 0 0 0-.81 3.24c.05 0 0 .2-.09.33a.79.79 0 0 0-.16.43.46.46 0 0 1-.18.31.33.33 0 0 0-.14.38 3.51 3.51 0 0 1-.56 1.59 2.08 2.08 0 0 0-.15.69c0 .34-.09.49-.31.61a1.11 1.11 0 0 0-.38.55c-.14.57-1.71 1.43-2.1 1.15a.74.74 0 0 0-.55 0c-.22.09-.44.12-.5.06s-.12-.05-.14 0-.22.06-.55-.08a7.28 7.28 0 0 0-2.28-.59.38.38 0 0 1-.38-.12 3.87 3.87 0 0 0-1.2-.4 6.08 6.08 0 0 1-1.32-.4.86.86 0 0 0-.5-.12.86.86 0 0 1-.53-.15 13.58 13.58 0 0 0-1.79-.63 13.07 13.07 0 0 1-1.75-.6.41.41 0 0 0-.4 0 3.53 3.53 0 0 1-1.75-.35l-.62-.32c-1.09-.5-1.28-1.11-.88-2.94a1.62 1.62 0 0 0 0-.76c0-.07 0-.33.19-.64a3.38 3.38 0 0 0 .34-1.18 2.23 2.23 0 0 1 .18-.78 40.32 40.32 0 0 0 1.3-4.82 3.21 3.21 0 0 1 .32-1.05c.07 0 .09-.12 0-.22s0-.31.44-1.47c.11-.29.3-.77.48-1.22a6.24 6.24 0 0 0 .29-.9 2.9 2.9 0 0 1 .37-1 5.41 5.41 0 0 0 .27-.65 19.76 19.76 0 0 1 .74-2.57c.47-1.14 1.44-3.83 1.61-4.45.06-.2.23-.85.39-1.44a15.3 15.3 0 0 0 .45-1.86 1.38 1.38 0 0 1 0-.41 2.38 2.38 0 0 0 0-1c-.07-.28 0-.32.13-.27s.19 0 .12-.15a2 2 0 0 1 .4-1.46.53.53 0 0 0 .18-.42.76.76 0 0 1 .19-.76c.15-.15.15-.21 0-.25s.19-.73.47-.83c.06 0 .12-.17.14-.32a2 2 0 0 1 .26-.69 1.2 1.2 0 0 0 .17-.67c0-.18 0-.27.12-.31a.43.43 0 0 0 .24-.28 13.16 13.16 0 0 0 .34-1.68 2.85 2.85 0 0 1 .69-1.25c.11 0 .13-.15.09-.38s0-.35.15-.42.43-.7.62-1.79c0-.25.12-.39.2-.35s.17-.07.24-.24c.32-.9 1.33-1.78 1.7-1.48a.4.4 0 0 0 .41 0c.14-.07.29-.08.34 0s.12 0 .16-.1.09-.17.19 0a1.14 1.14 0 0 0 1.06.19.22.22 0 0 1 .55.09zM207.36 386.25a1.57 1.57 0 0 0 .79.12c.39 0 .71.05.71.11s.11.09.25 0 .29 0 .33.07.36.18.25 0 0-.12 0-.05a.38.38 0 0 1 .11.23c0 .15.06.16.36.06a.7.7 0 0 1 .45 0 2.25 2.25 0 0 0 .62.15 2.82 2.82 0 0 1 .62.15.84.84 0 0 0 .56 0c.23-.1.32-.1.32 0s.05.1.18 0 .21-.1.27 0 1.46.23 1.55 0 .07-.07.07.07.1.22.43.19a1 1 0 0 1 .58.11.23.23 0 0 0 .35 0c.14-.1.21-.1.28 0s.23.12.47.08a.69.69 0 0 1 .57.09c.1.09.18.12.19.07s.08 0 .19.07.2.13.28 0 .13-.18.25-.07a1.71 1.71 0 0 0 .77.21 1.3 1.3 0 0 1 .69.2 1 1 0 0 0 .4.26c.3.1.31.09.14-.13s-.17-.24.11-.08.25.23.2.31 0 .11.18.06a.84.84 0 0 1 .69.24c.67.51.74.69.73 1.94 0 .38 0 .69.08.69s.06.17 0 .37a2.12 2.12 0 0 0 0 .71 1.94 1.94 0 0 1-.11.94c-.18.51-.18.59 0 .67s.17.13.06.23a.34.34 0 0 0-.09.32c0 .1 0 .18-.07.18s-.13.2-.12.45 0 .5-.1.54a3.52 3.52 0 0 0 0 1.51.12.12 0 0 1-.05.16 3.32 3.32 0 0 0-.14 1.05 2.71 2.71 0 0 1-.13 1c-.1 0-.09.29.07 1.29v.63a.13.13 0 0 0-.05.19.14.14 0 0 1-.06.18 1.48 1.48 0 0 0-.12.73c0 .36 0 .65-.11.65s-.18.61 0 .71.15 0 .19-.08.07-.13.08 0a.28.28 0 0 1-.19.23c-.15.05-.17.15-.09.4a.66.66 0 0 1 0 .45 2.32 2.32 0 0 0-.25.94c0 .25-.09.76-.15 1.39l-.21 2.43-.65 7.09c-.17 1.71-.39 4.24-.77 8.78l-.4 4.62a7.13 7.13 0 0 0-.06 1.41 4.26 4.26 0 0 1 0 .92l-.32 4c-.08.91-.14 1.75-.17 2.36a6.38 6.38 0 0 0 0 1c.06 0 0 .2 0 .36a.87.87 0 0 0-.07.45.47.47 0 0 1-.12.35.33.33 0 0 0-.06.4 3.62 3.62 0 0 1-.27 1.69 2.37 2.37 0 0 0 0 .72.63.63 0 0 1-.19.67 1 1 0 0 0-.27.61c-.05.6-1.43 1.73-1.87 1.53a.69.69 0 0 0-.53.15c-.2.13-.41.2-.48.15s-.13 0-.14 0-.2.09-.56 0a7.44 7.44 0 0 0-2.34-.17.42.42 0 0 1-.4-.05 3.88 3.88 0 0 0-1.25-.18 6.92 6.92 0 0 1-1.36-.16.84.84 0 0 0-.52 0 .88.88 0 0 1-.55-.06 13 13 0 0 0-1.88-.3 11.93 11.93 0 0 1-1.82-.28.43.43 0 0 0-.41 0 3.49 3.49 0 0 1-1.78 0 6.36 6.36 0 0 0-.66-.19c-1.17-.31-1.46-.86-1.4-2.71a1.63 1.63 0 0 0-.09-.74c-.06 0 0-.32.07-.64a3.69 3.69 0 0 0 .12-1.21 2 2 0 0 1 0-.78 37.11 37.11 0 0 0 .36-4.9 2.94 2.94 0 0 1 .1-1.08c.06 0 .06-.13 0-.21s-.1-.3.14-1.51c0-.24.08-.45.13-.87l.15-1.25c.09-.85.16-1.66.17-2.05a15 15 0 0 1 .22-2.31c.1-.7.18-1.38.19-1.51 0-1 .23-4.66.36-5.83.29-2.65.83-8.88.88-10.29l.12-2.79a12.89 12.89 0 0 0 0-1.88 1.5 1.5 0 0 1-.09-.39 2.14 2.14 0 0 0-.24-1c-.12-.26-.11-.3.07-.29s.19 0 .08-.18a1.91 1.91 0 0 1 0-1.48.57.57 0 0 0 .08-.45.71.71 0 0 1 0-.77c.11-.17.09-.23-.05-.23s0-.75.25-.91a.45.45 0 0 0 .06-.34 2.22 2.22 0 0 1 .08-.72 1.11 1.11 0 0 0 0-.68c-.08-.16-.07-.26 0-.32a.41.41 0 0 0 .17-.33 12.4 12.4 0 0 0-.09-1.69 2.85 2.85 0 0 1 .35-1.36c.1-.05.1-.17 0-.38s-.12-.33 0-.44.23-.77.14-1.85c0-.26 0-.41.1-.39s.16-.11.17-.29c.08-.93.84-2 1.27-1.84a.44.44 0 0 0 .39-.11c.12-.11.26-.16.32-.11s.12 0 .13-.14.05-.19.18-.07a1.18 1.18 0 0 0 1.08-.09.21.21 0 0 1 .55.12zM416.77 328.37c0 .08.21.35.51.61s.51.51.47.55 0 .14.16.2.22.19.2.27c0 .23.15.38.2.15s.05-.12.06 0a.34.34 0 0 1-.07.25c-.1.11-.06.17.23.28a.71.71 0 0 1 .32.32 2.42 2.42 0 0 0 .37.52 2.51 2.51 0 0 1 .38.52.76.76 0 0 0 .43.34c.24.08.31.14.24.22s0 .11.14.12.23.06.21.17.95 1.13 1.15 1 .1 0 0 .09-.07.23.2.43a1 1 0 0 1 .38.46c0 .14.1.21.27.22s.22.06.2.18.11.25.31.37a.72.72 0 0 1 .37.44c0 .13.07.21.1.17s.08 0 .1.18.08.23.24.15.21 0 .23.12a2 2 0 0 0 .46.65 1.41 1.41 0 0 1 .4.6.84.84 0 0 0 .15.45c.16.27.17.27.18 0s0-.28.13 0 0 .34 0 .36-.06.08.1.16a.87.87 0 0 1 .38.62c.2.81.13 1-.63 1.89-.23.27-.39.52-.35.56s0 .16-.19.29a2.2 2.2 0 0 0-.41.54 1.63 1.63 0 0 1-.65.62c-.44.27-.48.33-.39.5s.06.2-.08.2a.31.31 0 0 0-.26.19c0 .09-.11.13-.16.08s-.22.08-.36.27-.32.35-.39.34a2.92 2.92 0 0 0-.86 1.15.1.1 0 0 1-.13.08 2.86 2.86 0 0 0-.72.72c-.33.4-.63.7-.67.67s-.24.16-.68 1c-.14.29-.3.48-.38.47a.12.12 0 0 0-.14.11.13.13 0 0 1-.15.11c-.07 0-.3.21-.5.49s-.41.47-.46.43-.48.37-.42.53a.13.13 0 0 0 .2.05c.12-.06.13-.05.06.05a.27.27 0 0 1-.28.07c-.15-.05-.22 0-.29.26s-.15.34-.22.36-.38.22-.93.82c-.35.38-.93 1-1.79 2.09-1.45 1.73-2.71 3.33-3.52 4.32s-2.06 2.63-4.14 5.55l-2.08 3a4.24 4.24 0 0 0-.57.95 2 2 0 0 1-.3.58l-.05.08c-.19.31-1.12 1.76-2.05 3.23-.47.74-.86 1.43-1.16 1.94a5.05 5.05 0 0 0-.44.87c0 .06 0 .19-.17.29a.71.71 0 0 0-.26.35.39.39 0 0 1-.25.25.32.32 0 0 0-.22.32c0 .21-.32.68-.93 1.35a2 2 0 0 0-.31.61c-.09.32-.2.44-.43.5a1 1 0 0 0-.5.42c-.27.51-2 .93-2.3.57a.77.77 0 0 0-.55-.09c-.22 0-.45 0-.49-.06s-.11-.08-.14 0-.23 0-.52-.22a7.25 7.25 0 0 0-2.08-1.11.38.38 0 0 1-.33-.21 4.42 4.42 0 0 0-1.07-.68 7.2 7.2 0 0 1-1.19-.69.89.89 0 0 0-.46-.24.93.93 0 0 1-.48-.27 11.17 11.17 0 0 0-1.58-1 12 12 0 0 1-1.55-1 .45.45 0 0 0-.39-.14 3.29 3.29 0 0 1-1.61-.75 7.75 7.75 0 0 0-.52-.46c-.94-.76-1-1.41-.09-3.15a2 2 0 0 0 .25-.74c0-.08.11-.33.35-.59a3.62 3.62 0 0 0 .66-1.1 2.47 2.47 0 0 1 .38-.72 49.84 49.84 0 0 0 2.65-4.45 3.23 3.23 0 0 1 .62-.95c.07 0 .12-.1.11-.21s.06-.32.87-1.33c.1-.12.21-.27.37-.5.6-.77 1.5-2.08 1.79-2.56a11.75 11.75 0 0 1 1.17-1.63c.38-.48.74-.95.8-1.05.44-.73 2.23-3.36 2.87-4.15l5.54-7 1.27-1.67.23-.3a16.38 16.38 0 0 0 1.15-1.61 1.48 1.48 0 0 1 .17-.39 2.31 2.31 0 0 0 .4-.95c.06-.29.09-.32.24-.2s.17.08.17-.1a2.13 2.13 0 0 1 1-1.24.6.6 0 0 0 .35-.33.75.75 0 0 1 .49-.63c.19-.09.22-.14.11-.23s.48-.62.78-.61c.06 0 .18-.11.26-.25a2.23 2.23 0 0 1 .53-.55 1.19 1.19 0 0 0 .44-.56c0-.18.12-.25.24-.24a.45.45 0 0 0 .35-.16 14.29 14.29 0 0 0 1-1.45 2.9 2.9 0 0 1 1.18-.88c.11 0 .19-.08.25-.32s.13-.34.32-.32.69-.48 1.35-1.41c.15-.22.29-.31.34-.24s.19 0 .33-.13c.69-.69 2-1.07 2.21-.64a.41.41 0 0 0 .37.17c.16 0 .3 0 .32.12s.11.07.19 0 .16-.11.18.07.65.7.88.63a.21.21 0 0 1 .23.18zM82.94 496.86a1.65 1.65 0 0 0 .75.27c.38.07.69.18.68.25s.09.1.23.09a.33.33 0 0 1 .32.13c.07.22.31.25.25 0s0-.13 0-.05a.42.42 0 0 1 .07.25c0 .15 0 .18.34.13a.7.7 0 0 1 .44.12 2.27 2.27 0 0 0 .58.26 2.64 2.64 0 0 1 .58.27.82.82 0 0 0 .55.08c.25-.05.34 0 .31.07s0 .11.18 0 .23-.06.27 0 1.39.5 1.52.32.08-.05 0 .08.06.23.39.27a1 1 0 0 1 .56.21c.09.12.19.13.34.06s.23-.06.27.05.21.17.45.17a.71.71 0 0 1 .54.2c.09.1.16.15.17.1s.09 0 .18.1.18.17.28 0 .16-.15.26 0a1.77 1.77 0 0 0 .72.34 1.56 1.56 0 0 1 .65.32.85.85 0 0 0 .35.32c.28.16.28.15.15-.1s-.12-.25.12 0 .21.27.15.33 0 .11.17.09a.9.9 0 0 1 .64.36c.57.61.6.79.38 2-.06.36-.08.66 0 .67s0 .17 0 .35a2 2 0 0 0-.09.68 1.69 1.69 0 0 1-.27.87c-.26.46-.27.53-.1.64s.14.14 0 .22a.3.3 0 0 0-.14.29c0 .1 0 .17-.1.16s-.16.17-.2.41-.1.47-.17.49a3.17 3.17 0 0 0-.18 1.46.12.12 0 0 1-.07.14 2.8 2.8 0 0 0-.28 1 2.65 2.65 0 0 1-.27.93c-.1 0-.12.26-.1 1.24 0 .32 0 .57-.12.59a.13.13 0 0 0-.07.17.14.14 0 0 1-.08.17c-.07 0-.17.33-.22.68s-.13.62-.2.61-.26.56-.12.67.14 0 .2 0 .09-.11.07 0a.26.26 0 0 1-.22.19c-.15 0-.18.12-.12.37a.75.75 0 0 1 0 .44 1.88 1.88 0 0 0-.35.87 8.47 8.47 0 0 0-.23 1.18c-.16.93-.35 2-.56 3.21-.46 2.43-.84 5.5-1.41 9.36-1.5 11.1-2.12 21.18-2.45 27.52-.1 3.34-.3 7.47-.27 13s.18 12.43.76 21.27c.51 7.08 1.39 15.15 1.8 18s.73 5.25.8 5.42.1.55.23 1.2l.37 2c0 .37.32 2.1.59 3.84a18.65 18.65 0 0 0 .64 3.21c.06 0 .09.18.06.34a.75.75 0 0 0 0 .44.42.42 0 0 1 0 .36.3.3 0 0 0 0 .38 3.49 3.49 0 0 1 .18 1.66 2 2 0 0 0 .17.67c.13.31.13.47 0 .67a1 1 0 0 0-.11.65c.11.57-.93 2-1.4 1.94a.77.77 0 0 0-.47.29c-.15.18-.34.3-.42.28s-.14 0-.12.08-.18.14-.54.16a7.5 7.5 0 0 0-2.3.5.4.4 0 0 1-.39.06 3.67 3.67 0 0 0-1.25.17 7.18 7.18 0 0 1-1.36.23.91.91 0 0 0-.51.11.88.88 0 0 1-.53.11 10.71 10.71 0 0 0-1.89.23 13.39 13.39 0 0 1-1.82.23.45.45 0 0 0-.39.14 3.39 3.39 0 0 1-1.72.47h-.7c-1.2 0-1.63-.45-2.07-2.31a1.7 1.7 0 0 0-.29-.72 1.09 1.09 0 0 1-.11-.67 3.5 3.5 0 0 0-.22-1.24 2.13 2.13 0 0 1-.18-.79 15 15 0 0 0-.33-2.09c-.18-1.08-.41-2.28-.57-2.93a3.2 3.2 0 0 1-.16-1.11c.06 0 0-.15 0-.22s-.17-.28-.23-1.55v-.63l-.18-1.21c-.28-1.62-.47-3.42-.72-5.18s-.47-3.48-.66-5-.32-2.73-.41-3.54c-.4-3.44-.55-3.83-.91-9.63-.2-2.93-.41-5.77-.42-6.32-.12-2.06-.53-6.9-.62-11.86s-.13-10-.13-12.45c0-2.78.19-6.49.33-10.58s.45-8.55.87-12.84c.69-8.6 1.79-16.49 2.19-19.4.13-.81.3-2.57.67-4.71.27-1.7.59-3.72.9-5.65a18 18 0 0 0 .23-1.94 1.48 1.48 0 0 1 0-.41 2.42 2.42 0 0 0-.09-1c-.09-.28-.07-.32.11-.28s.19 0 .1-.17a2.12 2.12 0 0 1 .26-1.52.55.55 0 0 0 .14-.45.81.81 0 0 1 .12-.79c.13-.16.13-.22 0-.25s.12-.76.38-.89c.06 0 .11-.18.11-.34a2.54 2.54 0 0 1 .19-.73 1.13 1.13 0 0 0 .1-.69c-.05-.18 0-.28.09-.32a.49.49 0 0 0 .22-.32c.05-.32.22-1.54.2-1.73a3 3 0 0 1 .6-1.33c.1 0 .12-.16.06-.39s0-.36.12-.44.37-.75.48-1.87c0-.26.09-.4.17-.37s.17-.09.22-.26c.25-.94 1.19-1.92 1.58-1.65a.39.39 0 0 0 .4 0c.14-.09.28-.11.34-.05s.12 0 .15-.12.08-.18.19 0a1.11 1.11 0 0 0 1.07.11.22.22 0 0 1 .31.05zM19.84 554.87a1.53 1.53 0 0 0 .8 0c.39-.07.71-.08.72 0s.13.06.26 0a.34.34 0 0 1 .34 0c.14.18.38.12.24-.06s-.06-.11 0-.06a.41.41 0 0 1 .15.21c0 .15.09.15.36 0a.7.7 0 0 1 .45 0 2.09 2.09 0 0 0 .63 0 3.22 3.22 0 0 1 .65 0 .8.8 0 0 0 .54-.12c.21-.14.3-.16.31 0s.07.09.18 0 .19-.14.27-.06 1.47 0 1.52-.25.06-.08.09.05.13.2.46.11a1.07 1.07 0 0 1 .59 0 .23.23 0 0 0 .34-.07c.11-.13.19-.14.27-.05s.26.08.48 0a.73.73 0 0 1 .58 0c.11.07.2.08.19 0s.08 0 .21 0 .22.08.26-.1.1-.19.24-.11a1.73 1.73 0 0 0 .79.06 1.3 1.3 0 0 1 .72.07 1 1 0 0 0 .44.17c.32.05.32 0 .11-.15s-.21-.2.09-.09.29.18.25.26 0 .1.2 0a.83.83 0 0 1 .72.11c.76.37.85.53 1.08 1.76.07.37.16.67.21.66s.09.15.1.35a2.41 2.41 0 0 0 .17.69 1.83 1.83 0 0 1 .07.94c-.08.53-.06.61.13.65s.19.09.1.21a.33.33 0 0 0 0 .33c.06.09 0 .18 0 .19s-.09.22 0 .47.06.49 0 .53a3.42 3.42 0 0 0 .25 1.43.11.11 0 0 1 0 .16 3 3 0 0 0 .07 1 2.89 2.89 0 0 1 .06 1c-.1 0 0 .3.32 1.24.11.31.15.57.09.62a.13.13 0 0 0 0 .19.13.13 0 0 1 0 .19 1.52 1.52 0 0 0 0 .73c.07.36.08.65 0 .66s-.06.64.1.71.15 0 .17-.12 0-.14.08 0a.28.28 0 0 1-.14.27c-.13.07-.13.17 0 .4a.69.69 0 0 1 .11.43 2.26 2.26 0 0 0-.06 1v.43l-.06.24c-.06.27-.12.52-.17.68a3.81 3.81 0 0 0-.14.85c0 .17 0 .37-.06.44s0 .12 0 .12h.05v.11c.06.38.3 2.16.54 4a28.53 28.53 0 0 0 .55 3.32c.06 0 .09.18.05.35a.85.85 0 0 0 0 .46.4.4 0 0 1 0 .36.33.33 0 0 0 0 .4 3.7 3.7 0 0 1 .11 1.71 2.28 2.28 0 0 0 .13.7.62.62 0 0 1 0 .69.94.94 0 0 0-.13.65c.09.6-1 2-1.49 1.9-.11 0-.33.09-.49.26s-.35.28-.43.25-.14 0-.12.07-.19.14-.55.14a7.11 7.11 0 0 0-2.33.35.4.4 0 0 1-.39 0 3.64 3.64 0 0 0-1.26.09 6.35 6.35 0 0 1-1.37.14.9.9 0 0 0-.51.09 1 1 0 0 1-.55.07 12.43 12.43 0 0 0-1.89.11 13.38 13.38 0 0 1-1.84.13.45.45 0 0 0-.4.12 3.38 3.38 0 0 1-1.74.35h-.69c-1.21 0-1.61-.53-2-2.35a1.46 1.46 0 0 0-.25-.7c-.07 0-.1-.32-.07-.65a3.46 3.46 0 0 0-.15-1.22 2.19 2.19 0 0 1-.15-.77 36.94 36.94 0 0 0-.71-4.88 3.2 3.2 0 0 1-.13-1.08c.06 0 0-.15 0-.22s-.16-.27-.19-1.51v-.62a.69.69 0 0 0 .05-.13.27.27 0 0 0 0-.19c0-.07 0-.08.05-.23s.08-.14.07-.15a.83.83 0 0 1-.06-.54 3.43 3.43 0 0 0 .19-1v-.19l-.06-.36a13.2 13.2 0 0 0-.37-1.85 1.87 1.87 0 0 1-.17-.37 2.14 2.14 0 0 0-.42-.91c-.17-.22-.17-.27 0-.29s.18-.07 0-.19a2 2 0 0 1-.25-1.47.51.51 0 0 0 0-.46.73.73 0 0 1-.14-.76c.07-.19 0-.24-.1-.22s-.13-.74.07-.94c.05 0 0-.21 0-.35a2.26 2.26 0 0 1-.06-.73 1.15 1.15 0 0 0-.12-.67c-.11-.14-.12-.24 0-.32a.46.46 0 0 0 .11-.36 15.15 15.15 0 0 0-.42-1.65 2.85 2.85 0 0 1 .09-1.41c.08-.07.06-.19-.08-.38s-.17-.3 0-.44.08-.8-.22-1.85c-.07-.25 0-.4 0-.4s.13-.14.11-.32c-.1-.94.44-2.16.9-2.06a.38.38 0 0 0 .36-.18c.1-.12.23-.2.3-.17s.12 0 .1-.16 0-.19.16-.1a1.15 1.15 0 0 0 1-.29.21.21 0 0 1 .38-.1zM979.23 182.15a1.62 1.62 0 0 0-.8 0c-.39.07-.72.07-.73 0s-.12-.07-.25 0-.29 0-.34 0-.39-.13-.25.06.06.11 0 .06a.44.44 0 0 1-.15-.22c0-.15-.09-.15-.36 0a.72.72 0 0 1-.46 0 2.32 2.32 0 0 0-.63 0 2.4 2.4 0 0 1-.64-.05.81.81 0 0 0-.55.11c-.21.14-.3.15-.31 0s-.07-.08-.18 0-.2.13-.27.05a2.11 2.11 0 0 0-1.53.21c0 .1-.06.08-.09 0s-.13-.2-.46-.12a1 1 0 0 1-.59 0 .25.25 0 0 0-.34.07c-.12.12-.19.13-.27 0s-.26-.08-.48 0a.72.72 0 0 1-.58 0c-.12-.07-.21-.08-.2 0s-.08 0-.2 0-.23-.08-.27.09-.1.18-.24.1a2.06 2.06 0 0 0-.8-.07 1.38 1.38 0 0 1-.71-.07.92.92 0 0 0-.45-.17c-.31 0-.32 0-.11.14s.21.19-.09.09-.29-.18-.25-.26 0-.1-.19 0a.89.89 0 0 1-.73-.11c-.75-.35-.85-.51-1.06-1.66-.07-.34-.16-.62-.21-.61s-.09-.14-.1-.33a2.14 2.14 0 0 0-.16-.65 1.62 1.62 0 0 1-.06-.88c.08-.5.07-.57-.13-.61s-.18-.08-.09-.19a.32.32 0 0 0 0-.31c-.06-.09 0-.17 0-.18s.09-.21 0-.44-.06-.46 0-.51a2.68 2.68 0 0 0-.33-1.38.11.11 0 0 1 0-.15 2.53 2.53 0 0 0-.12-1 2.39 2.39 0 0 1-.11-.92c.1 0 0-.28-.38-1.14-.13-.28-.19-.53-.13-.58a.13.13 0 0 0 0-.18.11.11 0 0 1 0-.17 1.32 1.32 0 0 0-.07-.69c-.09-.32-.11-.6 0-.62s0-.6-.14-.65a.15.15 0 0 0-.17.13c0 .13 0 .13-.07 0a.25.25 0 0 1 .12-.26c.13-.08.13-.17 0-.38a.56.56 0 0 1-.13-.39 2.07 2.07 0 0 0 0-.92v-.3l-.11-.49c-.14-.66-.36-1.31-.55-2-.38-1.32-.76-2.67-1.16-4-.2-.69-.39-1.38-.59-2.08l-.31-1-.37-1a136 136 0 0 0-18.49-36.11c-9-12.56-21.41-25.23-37.74-36.74s-36.61-21.77-60.62-29.5a304.73 304.73 0 0 0-52.34-11.77c-8.76-1.16-17.5-2-26.17-2.46-2.16-.11-4.33-.17-6.49-.26l-3.23-.12h-3.23c-2.14 0-4.29-.07-6.42 0l-6.4.16c-34 .91-66.29 7.36-94.53 18.48a228.48 228.48 0 0 0-38.94 20c-1.47 1-2.94 1.91-4.39 2.87-.73.48-1.47.93-2.17 1.43l-2.08 1.5-8.18 6.11-7.63 6.47-1.88 1.59c-.6.55-1.18 1.13-1.77 1.69-1.17 1.13-2.33 2.26-3.49 3.37a167 167 0 0 0-39.14 56l-2.68 7A38.13 38.13 0 0 0 529 169l-1.23 4c-.93 2.7-1.5 5.67-2.27 8.83s-1.26 6.62-1.92 10.36c-.37 1.86-.48 3.84-.68 5.89-.09 1-.19 2.07-.29 3.13s-.25 2.16-.23 3.28c0 2.24-.09 4.56-.13 7a33.34 33.34 0 0 0 .09 3.72q.11 1.89.21 3.87a130.45 130.45 0 0 0 7.85 36.65l1.56 4.28 1.93 4.45c.72 1.52 1.52 3.08 2.31 4.7s1.8 3.16 2.8 4.84l1.55 2.51.79 1.29.87 1.27 1.77 2.6c.61.87 1.28 1.72 1.93 2.6 1.27 1.79 2.76 3.49 4.22 5.3.75.89 1.55 1.75 2.34 2.64l1.19 1.35 1.28 1.3a115.89 115.89 0 0 0 11.38 10.44 120.41 120.41 0 0 0 13.86 9.7 127 127 0 0 0 35.26 14.66 119.1 119.1 0 0 0 21 3.21c.91 0 1.82.13 2.74.15l2.77.05c.92 0 1.85.05 2.79 0l2.29-.06h1.38l1.44-.1c1-.08 1.9-.11 2.91-.23l3-.42 6.13-.85c4.16-.62 8.58-1.4 12.86-2.1l6.22-1.06 3.13-.53c.21-.07 0 .09 0 .17l-.17.28c-.11.19-.28.42-.42.63l-.88 1.28q-3.51 5.16-7.09 10.39c-2.41 3.57-4.93 7.19-7.15 10.72-1.13 1.78-2.33 3.58-3.42 5.36-.52.9-1.08 1.79-1.57 2.68l-1.32 2.39c-4.08 7.38-7.59 15.5-11.74 24.23l-.79 1.63-.6 1.21-.22.44c-.15.29-.31.58-.48.88-.33.58-.69 1.16-1.09 1.73l-.15.22-.07.11v.05h.06l.49-.17c.33-.1.66-.22 1-.34.68-.26 1.3-.51 2-.85l1-.46 2.9-1.54c1.1-.56 2.18-1.19 3.26-1.8s2.17-1.24 3.24-1.9c4.32-2.6 8.6-5.44 12.89-8.5s8.62-6.28 13-9.61l3.29-2.52 1.65-1.27.42-.32.51-.37 1-.74c1.36-1 2.82-1.86 4.26-2.75s3-1.63 4.48-2.28a64.13 64.13 0 0 1 8.16-3.07 79.17 79.17 0 0 1 8.23-2 112.22 112.22 0 0 1 16.22-1.69c10.63-.41 20.93.22 30.94.81s19.78 1.24 28.88.51a229.65 229.65 0 0 0 28.7-4 224.18 224.18 0 0 0 54.64-18.73 180.69 180.69 0 0 0 46.7-33 142.93 142.93 0 0 0 16.54-19.44l.87-1.2.81-1.22c.53-.82 1.06-1.62 1.58-2.41s1-1.58 1.55-2.35l1.37-2.36c.89-1.56 1.83-3 2.6-4.53l2.23-4.33a124.73 124.73 0 0 0 8-20.37c.08-.28.26-.83.51-1.63s.48-1.86.81-3.14l1.14-4.43c.43-1.67.71-3.59 1.11-5.63s.7-4.28 1-6.63c.16-1.17.36-2.39.5-3.62s.26-2.49.36-3.78c.2-2.57.33-5.25.37-8V194.02a19.71 19.71 0 0 0-.21-3.14c-.06 0-.07-.18 0-.33a.72.72 0 0 0 0-.43.37.37 0 0 1 .07-.34.3.3 0 0 0 0-.37 3.16 3.16 0 0 1 0-1.6 1.91 1.91 0 0 0-.09-.67c-.1-.31-.08-.46.08-.64a1 1 0 0 0 .17-.61c0-.56 1.11-1.85 1.57-1.75a.69.69 0 0 0 .5-.24c.17-.15.37-.26.44-.22s.14 0 .13-.07.19-.13.55-.12a7.7 7.7 0 0 0 2.34-.27.4.4 0 0 1 .39 0 3.91 3.91 0 0 0 1.27-.06 6.75 6.75 0 0 1 1.36-.1.85.85 0 0 0 .52-.06.86.86 0 0 1 .55-.06 12.17 12.17 0 0 0 1.9 0 13.57 13.57 0 0 1 1.84-.06.44.44 0 0 0 .4-.1 3.26 3.26 0 0 1 1.75-.3l.69.07c1.2.1 1.61.63 1.87 2.61a1.87 1.87 0 0 0 .22.78c.07 0 .08.34 0 .7a3.94 3.94 0 0 0 .08 1.31 2.43 2.43 0 0 1 .08.84c-.07.19.12 3.93.26 5.31a3.34 3.34 0 0 1 0 1.17c-.06 0 0 .15 0 .23s.14.31 0 1.64v.79a142.74 142.74 0 0 1-.85 16.18 159.26 159.26 0 0 1-7.5 33.57c-.42 1.42-1 2.78-1.53 4.18s-1.06 2.78-1.6 4.17c-1.15 2.75-2.42 5.46-3.63 8.19-1.37 2.66-2.71 5.34-4.14 8l-2.2 3.78c-.77 1.28-1.48 2.6-2.32 3.82A165.46 165.46 0 0 1 939.46 307a185.54 185.54 0 0 1-24.2 20.67 200.84 200.84 0 0 1-22.81 14.23l-2.57 1.39-2.51 1.26-4.72 2.35c-3 1.39-5.79 2.66-8.23 3.72a233.08 233.08 0 0 1-26.6 9.58c-3.86 1.2-7.59 2.11-11.32 3.09-1.88.46-3.77.86-5.69 1.3l-2.91.65-3 .58a241 241 0 0 1-29.06 3.94 165.88 165.88 0 0 1-20.47 0c-7.39-.33-15.44-1-24.3-1.32a147.93 147.93 0 0 0-25.32.75c-7.7 1-14.28 3.14-19.11 6-.59.38-1.21.71-1.75 1.1l-1.63 1.16-3.87 3c-2.48 1.89-4.72 3.61-6.74 5.1s-3.74 2.78-5.17 3.81-2.52 1.83-3.26 2.35a197.53 197.53 0 0 1-22.78 14.17l-.92.49-.46.24-.78.37-3.28 1.6-3.31 1.58c-1.13.53-2.39 1-3.59 1.53l-3.69 1.54-1.87.78-1.83.67c-2.44.89-5 1.85-7.45 2.71l-15.18 5.07-8.08 2.71-4.18 1.39-3.36 1-.84.26-.42.14c-.06 0-.07 0 0-.05l.1-.14.19-.28 1.53-2.24 3.2-4.7 6.7-9.83 3.39-5 1.71-2.51.85-1.25.77-1.2 3.09-4.8 1.55-2.41c.27-.41.5-.8.71-1.19l.65-1.16c1.69-3.09 3.56-6.22 5.09-9.36l1.51-3.06c.38-.79.75-1.59 1.13-2.39q2.31-4.95 4.65-10c1.63-3.45 3.3-7 5.17-10.51.47-.89.9-1.78 1.4-2.66l.54-1 .14-.23c.09-.16.19-.31.3-.47s0 0-.06 0H643.11c-4.21 0-8.42-.21-12.59-.63a139.46 139.46 0 0 1-24.38-4.63 145.67 145.67 0 0 1-42.26-19.83A139.82 139.82 0 0 1 534 299.25a124.79 124.79 0 0 1-9.8-13.8 127.38 127.38 0 0 1-6.74-12.38c-.52-1.07-1-2.18-1.47-3.29s-1-2.23-1.42-3.37q-1.24-3.42-2.55-7c-.42-1.19-.91-2.36-1.27-3.6s-.7-2.48-1.06-3.74-.72-2.52-1.08-3.8-.77-2.56-1-3.89l-1.61-8.05a40.73 40.73 0 0 1-.65-4.15c-.18-1.4-.36-2.81-.55-4.23s-.38-2.85-.51-4.3-.16-2.9-.24-4.37c-.13-2.93-.42-5.9-.27-8.91 0-1.5 0-3 .08-4.53 0-.76 0-1.53.05-2.29v-1.15l.1-1.14c.28-3.06.57-6.15.85-9.27.47-3.1 1-6.22 1.52-9.36.21-1.59.65-3.13 1-4.7l1.11-4.71A166.26 166.26 0 0 1 523 136.11 181.6 181.6 0 0 1 546.69 102l7.08-7.79c.58-.67 1.21-1.28 1.85-1.89l1.9-1.83 3.82-3.69c1.28-1.21 2.52-2.48 3.85-3.66l4.06-3.45 4.07-3.45 2-1.72c.7-.55 1.42-1.07 2.14-1.61A242.65 242.65 0 0 1 653 33.81a278.56 278.56 0 0 1 40.41-9.66 314 314 0 0 1 39.76-4 338.86 338.86 0 0 1 72.47 5c2.73.52 5.45.93 8.1 1.53l7.84 1.67c5.12 1.26 10.1 2.42 14.85 3.82s9.32 2.81 13.71 4.18l6.38 2.25 3.09 1.09 3 1.17a248 248 0 0 1 36.29 17.46l4 2.37c1.5.86 3.06 2 4.81 3.09l2.7 1.79c.94.61 1.91 1.24 2.87 2l6.18 4.5a182.42 182.42 0 0 1 27.85 26.3 156.07 156.07 0 0 1 24.57 39.8c.42 1 .83 1.89 1.24 2.84l1.07 2.91q1 2.93 2.12 5.86c.69 2 1.19 4 1.79 6l.87 3 .43 1.51a6.53 6.53 0 0 1 .2.76l.11.52.09.38a14.86 14.86 0 0 0 .52 1.94 1.47 1.47 0 0 1 .19.38 2.58 2.58 0 0 0 .5.93c.19.23.19.27 0 .31s-.17.08 0 .2a2.2 2.2 0 0 1 .37 1.55.57.57 0 0 0 .05.48.8.8 0 0 1 .2.79c0 .21 0 .27.12.24s.19.77 0 1a.44.44 0 0 0 0 .36 2.63 2.63 0 0 1 .11.77 1.41 1.41 0 0 0 .14.7c.12.15.13.26 0 .35a.51.51 0 0 0-.1.38c0 .33.36 1.56.43 1.74a3.05 3.05 0 0 1-.07 1.49c-.08.08-.05.2.09.4s.17.32 0 .47-.07.85.23 2c.08.26.07.42 0 .42s-.13.14-.11.33c.11 1-.42 2.26-.88 2.13a.39.39 0 0 0-.37.18c-.09.13-.22.2-.3.16s-.11 0-.09.17 0 .19-.17.09a1.14 1.14 0 0 0-1 .27.21.21 0 0 1-.43-.03z" fill="#000000" class="fill-000000"></path><path d="M182 454.32s0-.14-.05-.26-.06-.23 0-.24 0 0 0-.08a.13.13 0 0 1 0-.12c.05-.05 0-.13 0-.07a.17.17 0 0 1 .06-.06s0 0 0-.12a.18.18 0 0 1 0-.14 1.83 1.83 0 0 0 0-.21 1 1 0 0 1 0-.21.23.23 0 0 0-.07-.18c-.05-.06-.06-.09 0-.1s0 0 0-.06v-.08a.71.71 0 0 0-.16-.49s.06-.05 0-.16a.31.31 0 0 1 0-.19.08.08 0 0 0 0-.11v-.24a.24.24 0 0 1 0-.19v-.14c0-.07 0-.08-.05-.08s-.07 0 0-.08a.5.5 0 0 0 0-.26.5.5 0 0 1 0-.24.27.27 0 0 0 0-.15c0-.11 0-.11-.06 0s-.05.08 0 0 0-.1.07-.09 0 0 0-.07v-.24c.09-.27.13-.31.53-.45.12 0 .21-.08.21-.1s0 0 .11-.05a.6.6 0 0 0 .22-.09.68.68 0 0 1 .31-.07c.18 0 .21 0 .21-.07s0-.07.07-.05a.09.09 0 0 0 .11 0h.4a1.11 1.11 0 0 0 .47-.18h.06a1 1 0 0 0 .34-.07 1.47 1.47 0 0 1 .33-.07s.1 0 .4-.16c.1-.05.18-.08.2-.06a.06.06 0 0 0 .07 0h.3c.11 0 .22-.06.22 0s.22 0 .23-.07 0 0-.05-.05a.08.08 0 0 1 .09 0s.07 0 .14 0 .11-.07.14-.06a.84.84 0 0 0 .32 0c-.08 0 .63-.16 1.33-.36l2.79-.76c3.31-.9 6.3-1.65 8.18-2.12s4.91-1.21 10.19-2.41l5.38-1.17c.85-.17 1.58-.34 1.64-.36l.36-.09.62-.14 1.31-.25.78-.16.33-.09h.11a.26.26 0 0 0 .16 0 .17.17 0 0 1 .12 0 .11.11 0 0 0 .13 0 1.31 1.31 0 0 1 .57-.06.84.84 0 0 0 .24-.06.23.23 0 0 1 .23 0 .33.33 0 0 0 .22 0c.2 0 .68.3.66.46s0 .11.09.16.1.11.09.14.05.06.05.18a2.65 2.65 0 0 0 .15.77.13.13 0 0 1 0 .13 1.83 1.83 0 0 0 .05.42 1.79 1.79 0 0 1 .07.45.33.33 0 0 0 0 .17.27.27 0 0 1 0 .18 3.62 3.62 0 0 0 .07.63 3.65 3.65 0 0 1 .07.61.16.16 0 0 0 0 .13 1.09 1.09 0 0 1 .15.58V445c0 .4-.15.54-.75.68-.11 0-.22.07-.23.1a.31.31 0 0 1-.21 0 1.46 1.46 0 0 0-.4.07.52.52 0 0 1-.25.06 13 13 0 0 0-1.6.33.9.9 0 0 1-.35.06s0 0-.07 0-.09.06-.5.09h-.2l-.33.06-1.45.29c-1 .2-1.93.4-2.38.51-1 .22-1.07.24-2.68.57l-1.76.38-6.71 1.62c-3.07.7-10.21 2.58-11.81 3.06l-2.87.83a4.48 4.48 0 0 0-.59.21l-.12.07a.84.84 0 0 0-.27.18c-.07.07-.08.07-.1 0s0-.06-.06 0a.62.62 0 0 1-.47.15H187a.26.26 0 0 1-.25.08h-.06c.02 0-.24.08-.32 0s-.07 0-.11 0a.64.64 0 0 1-.23.06.34.34 0 0 0-.22.07s-.07.05-.1 0a.18.18 0 0 0-.13 0 4.28 4.28 0 0 0-.52.22 1.06 1.06 0 0 1-.46 0s-.07 0-.12 0-.09.07-.14 0-.27 0-.6.16h-.24c-.3.07-.73 0-.72-.2a.13.13 0 0 0-.08-.11.17.17 0 0 1-.07-.09s0 0-.06 0-.06 0 0 0a.39.39 0 0 0-.14-.33c-.43.24-.43.18-.43.14zM271.35 397.06a.56.56 0 0 0 0-.27v-.32a.12.12 0 0 1 0-.12c.06 0 0-.12 0-.08a.08.08 0 0 1 .07 0c.05 0 .05 0 0-.12a.29.29 0 0 1 0-.16.41.41 0 0 0 0-.2 1.27 1.27 0 0 1 0-.22.26.26 0 0 0 0-.18v-.25a.67.67 0 0 0-.06-.52s.07-.05.05-.15a.33.33 0 0 1 0-.2v-.37a.25.25 0 0 1 0-.19v-.22c0-.02-.06 0 0-.08a.75.75 0 0 0 0-.26.43.43 0 0 1 0-.24.53.53 0 0 0 .07-.15c0-.1 0-.1-.06 0s-.07.07 0 0 .07-.09.1-.08 0 0 0-.06a.28.28 0 0 1 0-.24c.15-.25.2-.28.63-.34a.69.69 0 0 0 .23-.06s.06 0 .12 0a.74.74 0 0 0 .25-.05.57.57 0 0 1 .32 0h.23s0-.06.07 0a.13.13 0 0 0 .12 0h.22a.27.27 0 0 1 .19 0 1.27 1.27 0 0 0 .52-.08h.05a1.33 1.33 0 0 0 .37 0 .91.91 0 0 1 .34 0s.1 0 .44-.07H275.97a.53.53 0 0 0 .25 0 .36.36 0 0 1 .23 0s.21 0 .24 0a.05.05 0 0 0 0-.07c-.05 0-.05 0 0 0a.07.07 0 0 1 .08.05c0 .05.06.05.14 0s.13 0 .15 0a.84.84 0 0 0 .33.05h2.74c2.16 0 4.1.09 5.32.18s3.17.2 6.55.61c1.35.18 2.89.42 3.42.52l1 .16s.41 0 .64.09l1.35.27.79.16a1.6 1.6 0 0 0 .35.05.16.16 0 0 1 .12 0 .37.37 0 0 0 .15.05.13.13 0 0 1 .11.05.14.14 0 0 0 .14 0 1.3 1.3 0 0 1 .56.17.57.57 0 0 0 .24.05c.12 0 .17 0 .22.1a.37.37 0 0 0 .19.12c.2 0 .51.56.42.69a.27.27 0 0 0 0 .19c0 .07.05.14 0 .16s0 0 0 .05v.18a2.26 2.26 0 0 0-.18.77.12.12 0 0 1 0 .12 1.26 1.26 0 0 0-.13.4 3.53 3.53 0 0 1-.12.45.24.24 0 0 0 0 .17.37.37 0 0 1-.05.17 4.87 4.87 0 0 0-.2.6 3 3 0 0 1-.19.59.15.15 0 0 0 0 .13 1.15 1.15 0 0 1-.11.59l-.09.21c-.16.37-.36.44-.94.33a.5.5 0 0 0-.24 0s-.11 0-.2-.05a1.12 1.12 0 0 0-.38-.1.56.56 0 0 1-.25 0 12.89 12.89 0 0 0-1.55-.32 1 1 0 0 1-.34-.07s0 0-.07 0-.1 0-.48-.1H296l-.2-.05-.86-.17-1.42-.23c-.58-.07-.65-.08-1.61-.25-.49-.08-1-.14-1.06-.15-.69-.08-3.27-.31-4.09-.37-1.86-.2-6.26-.33-7.25-.26h-1.8a3.87 3.87 0 0 0-.61.06h-.12a.85.85 0 0 0-.3.12c-.08.05-.09.05-.1 0s0-.06-.05 0a.65.65 0 0 1-.48 0 .16.16 0 0 0-.15 0 .23.23 0 0 1-.24 0h-.08s-.24 0-.3-.05-.06 0-.11 0a.83.83 0 0 1-.23 0 .3.3 0 0 0-.22 0h-.11a.16.16 0 0 0-.11 0 5.06 5.06 0 0 0-.53.1.86.86 0 0 1-.46-.06s-.06 0-.12 0-.1.05-.14 0-.26 0-.6 0h-.13s0-.05-.1-.05c-.3 0-.69-.17-.65-.32a.15.15 0 0 0-.06-.13s-.06-.08-.05-.1-.06 0 0-.06a.4.4 0 0 0-.09-.35c-.26-.08-.27-.14-.22-.17zM366.32 365.61s.12-.08.2-.18.16-.18.17-.17.05 0 .07-.05a.09.09 0 0 1 .08-.08c.08 0 .12-.05.05-.07a.1.1 0 0 1 .08 0s.06 0 .09-.08a.27.27 0 0 1 .1-.11.64.64 0 0 0 .17-.13.53.53 0 0 1 .17-.14.24.24 0 0 0 .1-.15c0-.08 0-.1.07-.08s0 0 0-.05 0-.08.05-.07.36-.34.32-.4.07 0 .14-.08a.33.33 0 0 1 .14-.13.08.08 0 0 0 .07-.09c0-.06 0-.08.06-.07s.08 0 .11-.11a.28.28 0 0 1 .14-.13h.12c.06 0 .07 0 0-.08s0-.07 0-.08a.71.71 0 0 0 .21-.16c.08-.08.16-.15.19-.15a.26.26 0 0 0 .15-.05c.09-.06.09-.07 0-.06s-.09 0 0-.05.12 0 .12 0h.06c.06 0 .09-.1.2-.13.27-.08.32-.07.64.18a.56.56 0 0 0 .2.11s0 0 .1.06a.91.91 0 0 0 .19.13.52.52 0 0 1 .21.21c.1.14.12.15.18.12s.06 0 .07 0a.1.1 0 0 0 .06.08s0 0 0 .05 0 .07.09.12.13.1.12.12a1.08 1.08 0 0 0 .4.27v.05s.1.12.24.23.25.2.24.22.06.07.35.21c.1.05.16.1.16.12v.05a.51.51 0 0 0 .17.16c.1.06.17.13.15.15s.13.15.19.13v-.07a.11.11 0 0 1 0 .1s0 .07.09.09a.25.25 0 0 1 .12.07c0 .06.07.11.21.24 0 0 .41.33.88.66s1.08.8 1.86 1.32c2.22 1.54 4.29 2.81 5.61 3.59s3.46 2 7.32 3.83c1.55.72 3.36 1.48 4 1.74s1.19.46 1.24.47l.28.09.47.17 1.21.46c.55.2 1 .36 1 .35s.07 0 .11 0a.24.24 0 0 0 .13.07s.08 0 .1.06a.11.11 0 0 0 .12.05 1.16 1.16 0 0 1 .51.22.85.85 0 0 0 .22.06c.11 0 .16 0 .19.11a.39.39 0 0 0 .17.14c.19.06.43.59.34.72s0 .11 0 .18v.4a2.23 2.23 0 0 0-.23.75.15.15 0 0 1-.05.12 1.44 1.44 0 0 0-.16.4 2.14 2.14 0 0 1-.15.43.3.3 0 0 0 0 .16.3.3 0 0 1-.06.18 4.43 4.43 0 0 0-.24.58 4 4 0 0 1-.23.57.14.14 0 0 0 0 .14 1.15 1.15 0 0 1-.15.57l-.12.2c-.18.36-.39.4-1 .23a.6.6 0 0 0-.26 0s-.11 0-.21-.07a1 1 0 0 0-.4-.14.79.79 0 0 1-.26-.08 13.85 13.85 0 0 0-1.6-.57 1 1 0 0 1-.36-.14s0 0-.07 0-.11 0-.49-.19l-.12-.06h-.07l-.27-.11-1.17-.47-1.93-.79c-.78-.31-.87-.35-2.15-.95l-1.39-.66c-.93-.39-4.26-2.05-5.28-2.65-1.18-.66-3.13-1.8-4.9-2.92s-3.36-2.21-3.95-2.62c-.17-.11-.52-.35-.95-.66l-.7-.48-.46-.34a4.38 4.38 0 0 0-.54-.36l-.13-.05a.74.74 0 0 0-.33-.12c-.09 0-.1 0-.07-.08s0-.05 0-.05a.72.72 0 0 1-.42-.3c0-.06-.08-.11-.11-.11a.27.27 0 0 1-.22-.16c0-.06-.05-.07-.08 0s-.21-.15-.21-.25 0-.06-.08-.09a.64.64 0 0 1-.19-.16.44.44 0 0 0-.19-.14c-.06 0-.09 0-.08-.07a.2.2 0 0 0-.06-.12c-.09-.06-.44-.29-.5-.31a1 1 0 0 1-.31-.38s0-.06-.1-.08-.12 0-.12-.1-.16-.22-.48-.42c-.08-.05-.11-.09-.09-.11s0-.06 0-.1c-.24-.22-.39-.65-.25-.72a.17.17 0 0 0 .05-.13.11.11 0 0 1 0-.11v-.12c0-.01.22-.23.19-.3a.07.07 0 0 1 .33-.25zM178.51 634.79l.15-.22c.06-.12.12-.21.13-.2s0 0 .05-.07a.23.23 0 0 1 .07-.09c.05 0 .08-.09 0-.07h.09l.06-.1a.57.57 0 0 1 .08-.13 1.26 1.26 0 0 0 .13-.16.84.84 0 0 1 .13-.17.4.4 0 0 0 .08-.16c0-.08 0-.1.06-.1a.09.09 0 0 1 0-.08 1.17 1.17 0 0 0 .26-.44s0 0 .1-.11a.44.44 0 0 1 .11-.16.14.14 0 0 0 .06-.1.08.08 0 0 1 0-.08.31.31 0 0 0 .09-.13.55.55 0 0 1 .11-.16s.05 0 0-.05h.05s.05 0 0-.08 0 0 0-.08a1.66 1.66 0 0 0 .16-.2.8.8 0 0 1 .14-.19.44.44 0 0 0 .11-.1c.06-.07.06-.08 0 0s-.06 0 0 0 .07-.06.08 0a.64.64 0 0 1 .16-.19c.18-.15.22-.16.41-.06s.11 0 .12 0h.06a.25.25 0 0 0 .12 0 .16.16 0 0 1 .12.1c0 .09.06.1.1 0s.05 0 .05 0v.05l.05.06c.05.06.07 0 .07.07s.18.13.24.11.06.08.14.12.14.1.13.11 0 0 .21.08.09 0 .09 0 0 .06.1.09.09.06.08.08.06.1.1.06v-.06.07c0 .07 0 .06.05.05s.07 0 .07 0 .08.14.53.46l.79.59 1 .69.52.36a.71.71 0 0 0 .17.1s.07 0 .12 0l.57.37a2.11 2.11 0 0 0 .5.28s0 0 .05 0 0 .06.06.06 0 .06.05.05.12 0 .22.19a.19.19 0 0 0 .11 0c.06 0 .08 0 .08.1a.12.12 0 0 0 .05.12.84.84 0 0 1-.06.65.46.46 0 0 0-.07.17v.14s0 .06-.09.16a5.27 5.27 0 0 0-.41.67.15.15 0 0 1-.07.11 2.94 2.94 0 0 0-.23.36 4 4 0 0 1-.24.38l-.09.15a.54.54 0 0 1-.1.16s-.19.28-.34.53-.31.48-.34.51a.2.2 0 0 0-.06.12 2.62 2.62 0 0 1-.29.52l-.14.18c-.24.32-.37.36-.65.22h-.14c-.02 0 0 0-.09-.07a.26.26 0 0 0-.17-.11l-.12-.06a2.85 2.85 0 0 0-.71-.44c-.09 0-.16-.09-.16-.11s-.06 0-.22-.15a3 3 0 0 0-.48-.36 1 1 0 0 1-.26-.19.77.77 0 0 0-.16-.13 5.2 5.2 0 0 1-.69-.43c-.3-.23-1-.73-1.17-.83l-.35-.2a1.55 1.55 0 0 0-.29-.14h-.08a.28.28 0 0 0-.18 0c-.06 0-.07 0 0 0s0-.06 0 0-.2 0-.22-.12 0-.07-.06-.06a.08.08 0 0 1-.12-.06s-.11-.06-.1-.14a.24.24 0 0 1-.1-.08.1.1 0 0 0-.1 0h-.05a.06.06 0 0 0 0-.07 1.12 1.12 0 0 0-.27-.1c-.05 0-.17-.16-.15-.21s0 0-.06 0h-.06c.01 0-.08-.13-.27-.18s-.05 0 0-.06v-.07a.43.43 0 0 1-.08-.51.18.18 0 0 0 .05-.12.28.28 0 0 1 0-.11v-.06a.74.74 0 0 0 .16-.32.11.11 0 0 1 .29-.22zM189.71 611.64s.12-.06.21-.16.18-.16.19-.14 0 0 .07-.05a.1.1 0 0 1 .09-.07c.08 0 .13 0 .06-.06s.07 0 .08 0 0 0 .1-.08a.27.27 0 0 1 .11-.1.62.62 0 0 0 .18-.11.63.63 0 0 1 .18-.12.24.24 0 0 0 .12-.14c0-.07 0-.09.08-.07s0-.08.06-.07.39-.3.36-.37.07 0 .14-.06a.29.29 0 0 1 .16-.11c.05 0 .08 0 .08-.09s0-.07.07-.06.08 0 .12-.1a.26.26 0 0 1 .16-.11s.07 0 .06 0h.06c.06 0 .08 0 0-.08s0-.07.05-.08a.53.53 0 0 0 .22-.13c.09-.08.18-.13.21-.12h.15c.1 0 .1-.06 0-.07s-.09 0 0 0h.18a.3.3 0 0 1 .21-.11c.28 0 .34 0 .64.27.09.09.17.15.18.14s.06 0 .1.07a.55.55 0 0 0 .18.16.72.72 0 0 1 .2.24c.08.16.1.18.16.15s.07 0 .07 0a.09.09 0 0 0 .05.09s0 0 0 .06 0 .08.08.14a.27.27 0 0 1 .11.14 1.12 1.12 0 0 0 .37.34s0 0 0 .05.09.14.22.27a1.23 1.23 0 0 1 .21.26s.05.09.32.27c.09.07.15.13.15.16v.11a.53.53 0 0 0 .15.19c.09.08.15.16.13.18s.11.18.17.17a.06.06 0 0 0 0-.07s0-.05 0 0a.09.09 0 0 1 0 .1c0 .05 0 .07.08.11a.25.25 0 0 1 .12.1c0 .06 0 .14.24.35s.3.36.6.7l1.22 1.4 1.54 1.71.82.9a1.12 1.12 0 0 0 .26.26.5.5 0 0 1 .16.14l.91 1a8.26 8.26 0 0 0 .79.79s.06 0 .08.09a.29.29 0 0 0 .09.12.12.12 0 0 1 .06.1.13.13 0 0 0 .09.11c.07 0 .19.17.36.44a.53.53 0 0 0 .17.16c.09.07.12.12.12.2a.33.33 0 0 0 .09.2c.14.15.11.74 0 .81a.22.22 0 0 0-.08.16c0 .08 0 .15-.07.15s0 0 0 .05 0 .07-.13.14a2.41 2.41 0 0 0-.56.54c0 .05-.06.09-.1.09a1.18 1.18 0 0 0-.33.27 2.13 2.13 0 0 1-.34.3.3.3 0 0 0-.12.13.28.28 0 0 1-.14.12 3.83 3.83 0 0 0-.49.4c-.22.19-.43.37-.47.39a.15.15 0 0 0-.09.11 1.12 1.12 0 0 1-.4.43l-.2.12c-.33.22-.54.17-1-.26-.09-.08-.18-.15-.21-.14a.38.38 0 0 1-.14-.16 1.13 1.13 0 0 0-.28-.3 1.13 1.13 0 0 1-.19-.18 12 12 0 0 0-1.13-1.19c-.14-.13-.26-.25-.25-.27s0 0-.05 0-.1 0-.35-.38l-.12-.15a8.55 8.55 0 0 0-.63-.71 2.58 2.58 0 0 1-.4-.46l-.26-.31c-.2-.18-.87-.88-1.07-1.12-.46-.54-1.55-1.77-1.81-2l-.45-.45-.09-.09a3.66 3.66 0 0 0-.46-.43l-.12-.07a.68.68 0 0 0-.28-.16c-.1 0-.1 0-.06-.09s0 0 0-.06a.65.65 0 0 1-.36-.35.15.15 0 0 0-.09-.12.22.22 0 0 1-.18-.18c0-.06 0-.07-.07 0s-.18-.17-.17-.27 0-.06-.07-.09a.63.63 0 0 1-.15-.19.38.38 0 0 0-.17-.15c-.06 0-.08-.05-.07-.09a.16.16 0 0 0 0-.12c-.07-.07-.38-.33-.43-.36a1 1 0 0 1-.25-.4s0-.06-.09-.09-.11 0-.1-.11-.13-.23-.42-.46c-.06-.06-.09-.1-.07-.12s0-.06 0-.1c-.2-.24-.3-.68-.15-.74a.13.13 0 0 0 .06-.12.1.1 0 0 1 .05-.1s0 0 0-.06v-.06a.43.43 0 0 0 .23-.28.07.07 0 0 1 .32-.38zM201.85 645.65a1.34 1.34 0 0 0-.21-.17c-.1-.08-.19-.14-.18-.15s0 0-.06-.06a.17.17 0 0 1-.09-.07c0-.05-.08-.09-.07-.05s0 0-.09-.07a.38.38 0 0 1-.12-.1l-.16-.14a1 1 0 0 1-.15-.14.49.49 0 0 0-.16-.1c-.07 0-.09 0-.08-.07s0 0-.05 0-.07 0-.07-.05a1.52 1.52 0 0 0-.42-.31s0-.05-.11-.11a.45.45 0 0 1-.14-.13.21.21 0 0 0-.1-.06s-.06 0-.07-.06a.46.46 0 0 0-.12-.1.51.51 0 0 1-.15-.12h-.05s0-.06-.08 0-.05 0-.07-.05l-.2-.17a1.46 1.46 0 0 1-.17-.16.25.25 0 0 0-.09-.11c-.07-.07-.07-.07 0 0s0 .06 0 0-.05-.08 0-.08a.55.55 0 0 1-.17-.17c-.14-.19-.15-.23 0-.38s0-.09 0-.1v-.05a.18.18 0 0 0 0-.1s0-.07.11-.09.09 0 .05-.09.05 0 .06 0 .05-.06.07 0 .12-.15.11-.19.07 0 .12-.11.1-.11.11-.1.05 0 .08-.17 0-.08 0-.07.06 0 .09-.07.06-.07.07-.06.1 0 .07-.08a.09.09 0 0 0-.06 0H199.42v-.06s.14-.05.46-.4l.58-.62c.14-.14.34-.37.69-.78l.36-.41c.06-.06.1-.12.09-.14a.42.42 0 0 1 .05-.1l.37-.45a2.72 2.72 0 0 0 .28-.4s0 0 0-.05h.06s.05 0 0 0 .06-.1.19-.17a.11.11 0 0 0 .05-.09c0-.05 0-.06.1-.05a.15.15 0 0 0 .12 0c.05-.07.51 0 .61.15a.48.48 0 0 0 .16.09l.14.07.15.1a5.26 5.26 0 0 0 .63.48.27.27 0 0 1 .1.08l.33.26.36.28a.76.76 0 0 0 .14.11.49.49 0 0 1 .14.11l.49.39c.24.18.45.36.48.39a.34.34 0 0 0 .11.07 2.29 2.29 0 0 1 .49.35l.17.15c.29.26.33.39.19.62a.16.16 0 0 0 0 .12s0 0-.06.07a.25.25 0 0 0-.12.13c0 .06 0 .1-.06.1a2.62 2.62 0 0 0-.44.57c0 .08-.08.13-.1.12s0 .06-.14.17a2.48 2.48 0 0 0-.36.37.57.57 0 0 1-.19.21l-.13.12a3.49 3.49 0 0 1-.42.55c-.23.23-.73.78-.83.92l-.2.28a1.3 1.3 0 0 0-.14.23s0 0 0 .07a.2.2 0 0 0 0 .17c0 .06 0 .06 0 0s0 .18-.12.18h-.05c.01 0 0 .09-.06.1s-.06.09-.13.06a.05.05 0 0 0-.05 0s0 .06-.07.08a.09.09 0 0 0-.06.08h-.07a1.58 1.58 0 0 0-.11.23c0 .05-.15.12-.2.11s0 .06 0 0-.12 0-.18.21 0 0-.06 0h-.06a.42.42 0 0 1-.49 0 .2.2 0 0 0-.11-.06h-.16a.85.85 0 0 0-.29-.19.14.14 0 0 1-.2-.52z" fill="#000000" class="fill-000000"></path><circle cx="731.29" cy="222.17" fill="url(#b)" r="58.04" class="fillurl(-b)"></circle><path d="M385.94 768.06a13.44 13.44 0 0 0-3.89-6.62l-.84-.75c-.71-.66-.83-.68-1-.7s-.14 0-.14-.09a2.53 2.53 0 0 0-.73-.45 20.82 20.82 0 0 0-2.11-.91l-1.61-.48a2.89 2.89 0 0 0-.62-.06c-.32 0-.72-.08-1-.13a1.26 1.26 0 0 0-.55 0 3.15 3.15 0 0 1-.63.07 7.23 7.23 0 0 0-1 .13.08.08 0 0 0-.06 0c-.13 0-.26-.4-.17-.51s.06-.1-.06-.08-.13 0-.11 0 0-.1-.11-.14-.14-.12-.12-.18c.09-.23-.82-.45-1.5-.24h-.53a3.8 3.8 0 0 1-1.3.49c-.11 0-.16 0-.29.13s-.19.16-.25.14a2.38 2.38 0 0 0-1 .36l-1 .76a.45.45 0 0 1-.24.08c-.07 0-.13 0-.2.14a1.46 1.46 0 0 1-.38.31 2.8 2.8 0 0 0-.42.33.41.41 0 0 1-.2.16c-.17 0-.63.31-.56.39s0 .08-.1.14a.8.8 0 0 0-.37.42.52.52 0 0 1-.25.23 2.07 2.07 0 0 0-.67.86c0 .12 0 .14-.11.09s-.1 0-.14.16a2.42 2.42 0 0 1-.28.66 1.52 1.52 0 0 0-.11.27c0 .06-.31.6-.63 1.24-.17.37-.33.75-.5 1.12a15.34 15.34 0 0 0-.54 1.77 12.17 12.17 0 0 0-.36 2.53 13.09 13.09 0 0 0 .46 4.13 14.44 14.44 0 0 0 8.38 9.38 12.5 12.5 0 0 0 8.74.31 14.26 14.26 0 0 0 9-9.7 11.52 11.52 0 0 0 .39-3.29 10.77 10.77 0 0 0-.29-2.47zM391.38 824.62a13.3 13.3 0 0 0-2-4.46 14.89 14.89 0 0 0-1.88-2.17l-.84-.75c-.71-.65-.83-.67-1-.7s-.14 0-.14-.09a2.79 2.79 0 0 0-.73-.45 19 19 0 0 0-2.11-.9l-1.61-.48a2.78 2.78 0 0 0-.65-.1l-1-.12a1.26 1.26 0 0 0-.55 0 3.18 3.18 0 0 1-.64.07 7.07 7.07 0 0 0-1 .13s0 0-.06 0a.47.47 0 0 1-.17-.6c.07-.08.06-.1-.06-.08s-.13 0-.11 0 0-.1-.11-.14-.14-.11-.12-.17c.09-.23-.82-.45-1.5-.25h-.23s-.12 0-.3.05a3.51 3.51 0 0 1-1.3.48c-.11 0-.16 0-.29.14s-.19.16-.25.14a2.24 2.24 0 0 0-1 .36l-1 .75a.4.4 0 0 1-.24.09c-.07 0-.14 0-.2.13a1.23 1.23 0 0 1-.39.32 2.65 2.65 0 0 0-.41.33.44.44 0 0 1-.2.15c-.17 0-.63.32-.56.39s0 .09-.1.15a.77.77 0 0 0-.37.42.57.57 0 0 1-.25.23 2 2 0 0 0-.67.86c0 .11 0 .13-.11.08s-.1 0-.14.17a2.71 2.71 0 0 1-.28.66 1.09 1.09 0 0 0-.11.27l-.63 1.23c-.17.38-.33.76-.5 1.13a14.77 14.77 0 0 0-.54 1.77 12.09 12.09 0 0 0-.36 2.53 13.13 13.13 0 0 0 .46 4.13 14.44 14.44 0 0 0 8.38 9.38 12.81 12.81 0 0 0 5.81.91 13.19 13.19 0 0 0 2.93-.6 13.89 13.89 0 0 0 7.65-6.46 13.67 13.67 0 0 0 1.33-3.24 11.56 11.56 0 0 0 .39-3.29 10.62 10.62 0 0 0-.24-2.4z" fill="#fff6ed" class="fill-fff6ed"></path><path d="M669.77 179a4.14 4.14 0 0 0 1.89-1c.86-.61 1.64-1 1.73-.85s.37 0 .61-.29.62-.46.83-.36c.56.26 1.06-.15.53-.42-.27-.14-.28-.2 0-.16a1 1 0 0 1 .6.33c.22.34.39.26.87-.41a1.81 1.81 0 0 1 1-.64 6.32 6.32 0 0 0 1.57-.62 6.62 6.62 0 0 1 1.6-.58 2.13 2.13 0 0 0 1.18-.91c.36-.57.55-.7.71-.47s.26.14.39-.28.31-.56.58-.44c.56.27 3.53-1.75 3.42-2.32-.06-.27.05-.26.26 0s.54.33 1.23-.25a2.65 2.65 0 0 1 1.43-.67c.39 0 .62-.12.75-.55s.3-.56.6-.41.7-.11 1.14-.56a2 2 0 0 1 1.39-.68c.36 0 .59 0 .52-.14s.15-.18.53-.14.64 0 .53-.52 0-.59.46-.54a4.71 4.71 0 0 0 2-.74 3.51 3.51 0 0 1 1.81-.63 2.38 2.38 0 0 0 1.27-.07c.81-.24.81-.27.09-.49s-.72-.25.12-.33c.49 0 .9.12.9.36s.18.22.49-.16a2.24 2.24 0 0 1 1.88-.55c2.24.07 2.66.36 4.57 3.08.57.82 1.13 1.44 1.24 1.36s.4.26.64.73a6 6 0 0 0 1.18 1.49 5 5 0 0 1 1.2 2.2c.41 1.38.53 1.55 1 1.44s.56 0 .48.39a.86.86 0 0 0 .3.83c.23.17.29.39.12.5s0 .63.46 1.17.68 1.12.6 1.3 1.84 2.95 2.42 3.22a.31.31 0 0 1 .13.41 8.28 8.28 0 0 0 1.33 2.49 7 7 0 0 1 1.24 2.34c-.22.15.27.75 2.16 2.65.62.63 1 1.22.91 1.41a.37.37 0 0 0 .17.48.37.37 0 0 1 .17.48c-.09.18.31 1 .87 1.74s.92 1.49.78 1.59c-.34.22.56 1.59 1 1.58.21 0 .34-.22.28-.47s0-.4.18-.11a.71.71 0 0 1 0 .79c-.24.34-.14.57.44 1 .4.3.75.71.75.92a6 6 0 0 0 .93 2.41l.3.56c.08.13 0 .09.3.5s.4.65.62 1l.32.52.06.09v.1l.09.24c.14.34.34.79.63 1.41l.67 1.39a6.34 6.34 0 0 0 .88-.63l1.74-1.4a1.93 1.93 0 0 1 .21-.17l1.5-1.6 3.51-3.72 8.48-9.06 24.61-26.4 20.86-22.37c3.29-3.5 6.09-6.62 6.22-6.92a15.38 15.38 0 0 1 1.3-1.61l1.26-1.43 1.15-1.27c.69-.73 4-4.22 7.29-7.73a74.14 74.14 0 0 0 5.94-6.72c-.05-.17.24-.48.64-.69a2.28 2.28 0 0 0 .92-.81 1.12 1.12 0 0 1 .81-.52.91.91 0 0 0 .79-.73c.13-.56 1.31-1.65 3.35-3.09a5.51 5.51 0 0 0 1.21-1.46c.47-.78.83-1 1.5-1.07a2.73 2.73 0 0 0 1.59-.82c1.07-1.18 5.85-1.26 6.43-.11a2 2 0 0 0 1.37.56c.62 0 1.18.26 1.25.48s.22.27.36.12.59.15 1.19.89c1.41 1.72 3.9 4 4.66 4.22a1 1 0 0 1 .74.74 10.32 10.32 0 0 0 2.33 2.45 17.64 17.64 0 0 1 2.61 2.57 2.38 2.38 0 0 0 1 .92 2.45 2.45 0 0 1 1.07 1 31.26 31.26 0 0 0 3.44 3.72 33.49 33.49 0 0 1 3.36 3.57 1.17 1.17 0 0 0 .91.62c.69 0 2.94 1.86 3.69 3 .27.41.76 1.09 1.07 1.5 2 2.55 1.63 4.2-1.56 8a4 4 0 0 0-1 1.71c0 .21-.47.74-1.22 1.25a8.91 8.91 0 0 0-2.26 2.35 5.9 5.9 0 0 1-1.36 1.59c-.52.15-6.84 7-8.94 9.69-.93 1.19-1.84 2.13-2 2.09s-.35.17-.38.46c0 .52-.28.78-2.81 2.93-.21.2-.47.42-.75.67s-.29.26-.44.41l-1.33 1.38-5.78 6.07c-3.91 4.13-7.62 8.12-9.35 10.07-3.68 4.15-4.13 4.62-10.62 11.3-3.29 3.37-6.45 6.68-7 7.34-4.36 5-20.95 23.12-26.37 28.8l-5.3 5.59-3.08 3.25q-2.91 3.15-6 6.47L740 272.23l-13 14.09c-.14.28-.23-.08-.34-.19l-.31-.49-.63-1-1.24-1.92L722 279l-4.53-7-12.8-19.7-16.45-25a38.32 38.32 0 0 0-3-4.09 3.43 3.43 0 0 1-.82-.71 6.1 6.1 0 0 0-2-1.71c-.68-.36-.72-.47-.31-.74s.35-.35-.1-.49c-.8-.25-2.15-2.23-2.25-3.3a1.45 1.45 0 0 0-.53-1.09 2 2 0 0 1-1.2-1.68c0-.54-.16-.65-.48-.44s-1.14-1.63-.88-2.35c.06-.17-.12-.55-.4-.84a5.8 5.8 0 0 1-.95-1.69 3.06 3.06 0 0 0-1.06-1.49c-.42-.22-.56-.46-.42-.76a1.15 1.15 0 0 0-.15-1 35.75 35.75 0 0 0-2.82-3.52c-.51-.44-1.55-3.12-1.36-3.52s-.07-.53-.61-.83-.76-.54-.59-1-.7-2-2.58-4.26c-.45-.52-.59-.91-.37-1s.15-.48-.09-.9c-1.28-2.16-1.34-5.72-.11-6a1.13 1.13 0 0 0 .68-.84c.09-.41.32-.74.53-.74s.23-.23.06-.5-.19-.47.28-.42c.65.07 2.22-1.25 2.21-1.86a.56.56 0 0 1 .87-.53z" fill="#000000" class="fill-000000"></path><g fill="#fff6ed" class="fill-fff6ed"><path d="M196.76 469.23a1.51 1.51 0 0 0 0 .8v.73s-.09.12 0 .25.05.29 0 .34-.16.38 0 .25.13-.06.07 0a.46.46 0 0 1-.24.14c-.17 0-.17.08 0 .36a.61.61 0 0 1 0 .46 1.89 1.89 0 0 0-.08.63 2.74 2.74 0 0 1-.07.63.76.76 0 0 0 .1.55c.12.22.13.31 0 .32s-.09.06 0 .18.13.2 0 .27a2.2 2.2 0 0 0 .17 1.54c.1 0 .07.06-.05.08s-.18.12-.11.45a1.11 1.11 0 0 1 0 .59.27.27 0 0 0 .06.34c.1.12.11.2 0 .27s-.06.25 0 .48a.81.81 0 0 1 0 .58c0 .11-.07.19 0 .19s0 .08 0 .2-.07.21.07.27.15.11.08.24a2.17 2.17 0 0 0 0 .79 2 2 0 0 1 0 .7 1.12 1.12 0 0 0-.12.44c0 .31 0 .32.11.11s.14-.2.07.1-.12.28-.18.24-.07 0 0 .19a1.2 1.2 0 0 1-.05.71c-.2.73-.29.81-1 1-.23.05-.4.16-.39.2s-.08.1-.2.11a1 1 0 0 0-.42.17.73.73 0 0 1-.58.11c-.36 0-.41 0-.38.16s0 .19-.11.12a.17.17 0 0 0-.22 0c0 .06-.1.05-.13 0s-.16-.06-.31 0-.29.11-.34.06-.79.3-.84.49-.06 0-.11 0a1.16 1.16 0 0 0-.64.23c-.31.18-.58.29-.6.24s-.21 0-.63.55c-.14.17-.28.26-.34.22s-.11 0-.12 0a.07.07 0 0 1-.12 0c-.06 0-.25.06-.43.21s-.34.25-.39.2-.4.13-.35.29a.14.14 0 0 0 .16.1c.1 0 .11 0 .05.06s-.15 0-.23 0-.18-.07-.24.12-.12.23-.18.23-.28 0-.58.26-.38.23-.73.49l-1.07.84-.22.18-.13.11-5.26-6a1.64 1.64 0 0 0 .56-.71 1.42 1.42 0 0 0 .15-.49v.33l-.26-1.2-.1-.33a10.26 10.26 0 0 0-.78-1.71l-.46-.81-.62-1a.36.36 0 0 0 .1-.05l.7-.53a27.62 27.62 0 0 0 2.58-2.17c0-.07.11-.17.28-.22a.89.89 0 0 0 .38-.25.4.4 0 0 1 .33-.15.33.33 0 0 0 .33-.23 3.64 3.64 0 0 1 1.42-1 2.22 2.22 0 0 0 .53-.48c.22-.26.36-.34.61-.31a1 1 0 0 0 .64-.22c.46-.38 2.23-.14 2.38.32a.74.74 0 0 0 .48.28c.23.05.42.17.43.25s.07.11.13.07.21.08.39.39a7.07 7.07 0 0 0 1.49 1.83.41.41 0 0 1 .23.32 3.89 3.89 0 0 0 .73 1 8 8 0 0 1 .82 1.1.86.86 0 0 0 .33.4 1 1 0 0 1 .34.44 12.21 12.21 0 0 0 1.06 1.57 11.82 11.82 0 0 1 1.05 1.52.44.44 0 0 0 .3.28 3.4 3.4 0 0 1 1.19 1.32c.09.16.23.44.32.62.58 1 .36 1.65-1 2.87a1.65 1.65 0 0 0-.48.58c0 .08-.21.25-.52.39a3.57 3.57 0 0 0-1 .75 1.92 1.92 0 0 1-.59.51 42 42 0 0 0-4 3.19 6.81 6.81 0 0 1-1.51 1.07.59.59 0 0 0-.38.26 1.87 1.87 0 0 1-.66.5 13.84 13.84 0 0 1-3 1.23c-.34.1-.72.2-1.19.3l-.8.14h-.35c-.47 0-1 .07-1.46.07a22.71 22.71 0 0 1-2.32-.16 7.91 7.91 0 0 1-2.6-.73 17.77 17.77 0 0 1-1.71-.86 11 11 0 0 1-3.27-2.52A11.67 11.67 0 0 1 169 490c-.21-.4-.37-.78-.51-1.12l-.09-.25v-.06l1.31-9.18.07-.08c.76-.77 2.52-2.52 2.92-2.92l1-1.05c1-.9 1.79-1.69 1.84-1.77a2.07 2.07 0 0 1 .34-.42 4.43 4.43 0 0 0 .83-1c.2-.31.25-.34.36-.19s.15.12.23-.08a3.21 3.21 0 0 1 1.65-1.17 1.05 1.05 0 0 0 .55-.29 1.22 1.22 0 0 1 .87-.57c.26 0 .32-.08.25-.21s.86-.53 1.18-.43c.07 0 .27-.05.43-.17a3.86 3.86 0 0 1 .9-.4 2.14 2.14 0 0 0 .82-.41c.15-.16.28-.21.4-.15a.72.72 0 0 0 .49 0c.37-.19 1.84-.85 2-1a4.63 4.63 0 0 1 1.86-.29c.1.07.25 0 .49-.17s.39-.23.58-.13a6.22 6.22 0 0 0 2.46-.5c.33-.1.53-.1.53 0s.18.12.42.09c1.26-.18 2.83.4 2.64.87 0 .11 0 .27.19.37s.23.23.19.3 0 .12.19.1.24 0 .1.17a1 1 0 0 0 .24 1.06c.2-.02.21.17.03.28zM281.17 420.82c-.09 0-.17.39-.19.78s-.1.72-.17.71-.11.11-.07.25a.28.28 0 0 1-.09.33c-.24.1-.23.34 0 .25s.14 0 .06 0a.53.53 0 0 1-.27.1c-.18 0-.19.05-.09.35a.62.62 0 0 1-.05.46 2 2 0 0 0-.18.6 2.47 2.47 0 0 1-.17.62.77.77 0 0 0 0 .56c.09.24.08.32 0 .32s-.1.05 0 .18.1.22 0 .27a2.25 2.25 0 0 0-.08 1.55c.09 0 .06.07-.06.07s-.19.09-.18.43a1.12 1.12 0 0 1-.1.58.27.27 0 0 0 0 .34c.08.14.08.22 0 .28s-.1.24-.07.47a1 1 0 0 1-.08.57c-.07.1-.09.18-.06.19s0 .08-.05.19-.09.2 0 .28.11.13 0 .25a2.31 2.31 0 0 0-.15.77 2.45 2.45 0 0 1-.13.69 1 1 0 0 0-.16.41c-.06.31-.05.31.08.13s.14-.17 0 .1-.13.27-.17.22-.07 0 0 .19a1.3 1.3 0 0 1-.12.7c-.25.71-.31.73-.95.85-.19 0-.34.09-.33.14s-.07.08-.17.08a.68.68 0 0 0-.35.13.61.61 0 0 1-.49 0c-.3-.08-.34-.07-.33.12s0 .18-.1.09-.14-.08-.18 0-.09 0-.11 0-.14-.07-.27 0-.25.07-.3 0-.67.25-.73.4-.05 0-.09 0-.3 0-.57.17-.51.21-.53.17-.22.06-.5.45c0 .09 0 .07-.05 0s-.08-.07-.08 0 0 0-.09 0-.15-.07 0 0l.15.12.05.06-.14-.11c-.12-.1-.14-.1-.07 0s.06.07 0 0a.32.32 0 0 0-.26-.07.61.61 0 0 0-.28.09c-.17.09-.53.3-.39.3s.16.12.52.14a1.82 1.82 0 0 0 .4 0h.25a3.41 3.41 0 0 0 .57-.18 1.45 1.45 0 0 0 .42-.25h.05l.07-.06.09-.07c.07 0 .1-.07.06-.06s.05-.07.22-.33v-.1c0-.01 0-.07.08-.21s.15-.24.13-.28a4.37 4.37 0 0 1 .31-.76l.24-.56c.13-.14.31-.21.32-.35s.22-.24.42-.34l1.71-3c.06-.13.11-.28.16-.36l.57-1.12a5.5 5.5 0 0 1 .68-1.2.6.6 0 0 0 .24-.46.55.55 0 0 1 .27-.48 9.17 9.17 0 0 0 1.24-1.47 4.3 4.3 0 0 1 1.3-1.34c.19 0 .24-.21.1-.42a1.35 1.35 0 0 1 .7-1.67l.81-.28a1.92 1.92 0 0 1 1.81-.11 6.48 6.48 0 0 1 2.51 2.37 4.69 4.69 0 0 0 .73 1 1.84 1.84 0 0 1 .41.92 7.89 7.89 0 0 0 .49 1.49 1.77 1.77 0 0 1 .23.79c0 .11.1 1 .14 1.66s.1 1.49.13 1.93a.92.92 0 0 1 0 .19l-.05.44c0 .28-.07.54-.1.77a2.38 2.38 0 0 1-.2.81.38.38 0 0 0-.1.22v.07s.18 0-.36.15l-2.19.63-12.49 3.57c-5.34 1.43-27.27 8.17-22.83 5.58l-1.28-.55a28.44 28.44 0 0 0-3-1.27c-.4-.13-.62-.2-.87-.3l-.22-.1-.13-.06.07-.08.35-.45a7.06 7.06 0 0 0 .56-.8 19.47 19.47 0 0 1 1.31-2.68l.63-1.08.37-.67 1-1.64c1.25-2.17 2.41-4.06 2.87-4.77a22.32 22.32 0 0 1 1.68-2.38l.4-.54c1.2-1.34 2.26-2.53 2.36-2.62a4.37 4.37 0 0 1 .48-.57 7.78 7.78 0 0 0 1.18-1.41c.28-.42.36-.45.48-.32s.18.1.32-.15a5.59 5.59 0 0 1 2.29-1.62 1.12 1.12 0 0 0 .61-.3 1.41 1.41 0 0 1 .94-.58c.28 0 .34-.09.28-.21s.95-.52 1.27-.42a.76.76 0 0 0 .46-.17 3.73 3.73 0 0 1 1-.37 2.38 2.38 0 0 0 .9-.4c.17-.16.31-.22.43-.15a.77.77 0 0 0 .52 0l2.27-.87a4.93 4.93 0 0 1 2-.16c.1.08.27 0 .54-.12s.44-.21.63-.08a7.84 7.84 0 0 0 2.7-.24c.37-.07.6 0 .57.06s.18.14.44.15c1.39 0 3 .83 2.69 1.25a.36.36 0 0 0 .14.4c.15.12.21.26.15.32s0 .13.18.14.25.06.09.18a.93.93 0 0 0 .06 1.08c.16-.16.13.02-.07.1zM357.84 399.13a1.78 1.78 0 0 0 .32.73c.21.33.33.63.28.66s0 .14.09.24a.31.31 0 0 1 .12.32c-.11.2 0 .4.15.2s.08-.1.06 0a.41.41 0 0 1-.14.21c-.14.08-.11.14.13.34a.69.69 0 0 1 .22.4 2.15 2.15 0 0 0 .19.6 2 2 0 0 1 .2.61.81.81 0 0 0 .32.46c.2.15.25.23.15.28s-.05.1.1.15.2.13.15.23.58 1.36.79 1.33.1 0 0 .1-.13.2.06.47a1 1 0 0 1 .22.55.24.24 0 0 0 .19.29c.16.06.2.13.14.24s0 .26.19.44a.77.77 0 0 1 .22.53v.2c0-.03.06.06 0 .2s0 .24.18.21.22 0 .19.19a1.88 1.88 0 0 0 .23.76 1.2 1.2 0 0 1 .19.69 1 1 0 0 0 0 .48c.07.31.08.31.18 0s.11-.26.12.06-.06.33-.15.33-.09.06.05.18a.86.86 0 0 1 .16.72c-.08.84-.2 1-1.26 1.64-.32.19-.57.39-.54.43s-.11.14-.29.22a2.11 2.11 0 0 0-.58.41 2 2 0 0 1-.86.4c-.52.12-.59.16-.56.35s0 .21-.16.17a.33.33 0 0 0-.31.1c-.07.08-.15.09-.19 0s-.24 0-.45.14a.89.89 0 0 1-.5.2 3.39 3.39 0 0 0-1.26.83.12.12 0 0 1-.16 0 3 3 0 0 0-1 .44 2.77 2.77 0 0 1-.91.41c0-.09-.28.08-1 .74-.25.22-.48.35-.55.31a.14.14 0 0 0-.18.05.15.15 0 0 1-.19.06c-.06 0-.36.09-.67.28s-.58.31-.61.25-.61.18-.62.36.08.13.17.12.15 0 0 .06a.26.26 0 0 1-.3 0c-.12-.1-.21-.06-.37.14s-.29.27-.37.26a2.33 2.33 0 0 0-.92.29c-.15.06-.89.45-1.72.89l-3.22 1.73-1.42.76-.32.17-.13-.2-1.84-3c-.75-1.18-1.1-1.66-1.4-2a6.16 6.16 0 0 0-.64-.72l-.18-.15.15.1h-.05l-.15-.07a1.09 1.09 0 0 0 .33 0 4.49 4.49 0 0 0 1.89-.89 5.45 5.45 0 0 0 1-.88 3 3 0 0 0-.19.28l-.11.18v.1l2.08-3.95h.07a2.94 2.94 0 0 0 .53.27 4.45 4.45 0 0 0 1.83.31 7.5 7.5 0 0 0 3.67-1 12.87 12.87 0 0 0 3.08-2.63 5.75 5.75 0 0 0 .81-1.12 4.83 4.83 0 0 1 .43-.8c.25-.38.49-.77.71-1.18l.32-.62.08-.16v-.08c-11.61-9.46 15.82 12.88 13 10.58l-.08.05-.65.45a28.86 28.86 0 0 1-3.19 1.81c-.85.41-1.41.64-1.42.68a.84.84 0 0 1-.52.19 2.06 2.06 0 0 0-.68.19.81.81 0 0 1-.54.08.73.73 0 0 0-.6.15 6.37 6.37 0 0 1-2.57.43 6.16 6.16 0 0 0-1.08.2 1.28 1.28 0 0 1-1 0 2.34 2.34 0 0 0-1-.17c-.95.06-2.71-1.33-2.4-1.78.06-.1-.05-.34-.23-.54s-.27-.41-.21-.48 0-.13-.06-.14-.12-.21 0-.56a5.92 5.92 0 0 0 .24-2.34.34.34 0 0 1 .06-.39 3.81 3.81 0 0 0 .22-1.25 7.51 7.51 0 0 1 .17-1.36.93.93 0 0 0 0-.52 1.06 1.06 0 0 1 .06-.55 12.12 12.12 0 0 0 .29-1.88c.09-.87.19-1.7.23-1.82a.81.81 0 0 0 0-.41 5.87 5.87 0 0 1 .07-1.78c0-.17.08-.48.12-.67.17-1.18.36-1.47 1-1.6a.31.31 0 0 0 .24-.17c0-.08.1-.07.23 0a.47.47 0 0 0 .44-.07c.11-.1.23-.14.27-.11s1.25-.38 1.5-.73l15.19 12.36v.1a4.68 4.68 0 0 1-.67 1.3c-.08 0-.13.13-.13.27s-.05.41-1 1.78c-.21.31-.49.72-.81 1.16-.46.68-1 1.42-1.55 2.13-1.1 1.42-2.31 2.72-2.9 3.34a20.89 20.89 0 0 1-4 3.33c-1.33.91-2.75 1.65-3 1.81a24.11 24.11 0 0 1-20 1.83c-.62-.23-1.24-.48-1.86-.77a19.79 19.79 0 0 1-2.22-1.19 14 14 0 0 1-4.91-5.27 11.72 11.72 0 0 1-1.39-5.78 11.22 11.22 0 0 1 2.57-6.82 12.25 12.25 0 0 1 3.29-2.73l1-.55 2.44-1.35 3.51-2a14.5 14.5 0 0 0 1.6-1 1.47 1.47 0 0 1 .28-.29 2.29 2.29 0 0 0 .69-.72c.15-.25.19-.26.28-.1s.13.14.19 0a2 2 0 0 1 1.29-.76.53.53 0 0 0 .42-.17.73.73 0 0 1 .65-.41c.21 0 .25-.05.18-.17s.64-.39.9-.28c.06 0 .21 0 .32-.13a2.26 2.26 0 0 1 .66-.31 1.08 1.08 0 0 0 .58-.37c.09-.15.19-.19.29-.13a.48.48 0 0 0 .38 0 13.53 13.53 0 0 0 1.38-1 2.87 2.87 0 0 1 1.35-.43c.1.06.2 0 .33-.21s.22-.27.39-.19.78-.22 1.66-.87c.2-.16.35-.2.38-.12s.18.07.34 0c.84-.43 2.17-.37 2.24.1a.41.41 0 0 0 .3.27c.15.05.27.14.26.22s.08.09.19 0 .18-.05.15.12.42.86.64.87a.21.21 0 0 1-.06.24z"></path></g></svg>