<svg width="888" height="949" xmlns="http://www.w3.org/2000/svg"><defs><linearGradient x1="31.521%" y1="-36.726%" x2="78.247%" y2="181.681%" id="a"><stop stop-color="#FFD4B6" offset="0%"/><stop stop-color="#5DF1C0" offset="51%"/><stop stop-color="#472E9F" offset="100%"/></linearGradient></defs><g fill="none" fill-rule="evenodd"><path d="M749.55 243.811c0 6.394-.053 28.922 0 32.196-.08 3.27-6.444 55.013-15.98 81.894a306.25 306.25 0 0 1-74.64 116.69c-15.465 15.01-106.91 67.261-137.52 73.53-14.423 3.003-70.26-.457-167.51-10.38-3.89-1.19-94.778-49.149-109.71-62.33a272.22 272.22 0 0 1-40.46-44.74c-11.113-15.431-13.8-8.893-28.1-49.46-14.3-40.566-16.713-66.246-19.05-84.3-2.337-18.054-2.337-24.636 4.44-57.08 6.777-32.443 19.94-61.86 20.78-63.65a288 288 0 0 1 24.1-42.34 316.61 316.61 0 0 1 71.32-74.49 294.92 294.92 0 0 1 94.8-47.1 323.9 323.9 0 0 1 101-12 304.49 304.49 0 0 1 89.7 17.12 318.71 318.71 0 0 1 66.58 32.33c14.118 9.046 56.72 47.57 61.19 52.51a247.39 247.39 0 0 1 27.53 38.53c9.578 16.695 24.86 62.82 26.06 67.78 3.647 19.265 5.47 31.028 5.47 35.29Z" fill="url(#a)" fill-rule="nonzero" transform="translate(.98 .019)"/><path d="M735.86 475.64c1.076.12 5.298 1.246 6.3 1.71a23.52 23.52 0 0 1 5.22 3.33c.895.783 3.212 3.416 6.95 7.9.34.48 2.587 5.78 6.74 15.9.96 7.38 1.413 12.26 1.36 14.64-.122 4.776-1.416 12.71-3.88 23.8 6.773-11.28 11.153-18.527 13.14-21.74 8.035-12.32 12.712-19.186 14.03-20.6a29.56 29.56 0 0 1 7.45-5.77 24.07 24.07 0 0 1 9-2.7 25.53 25.53 0 0 1 8.19.52 27 27 0 0 1 13.69 8 29.49 29.49 0 0 1 4.67 6.67c.631 1.219 2.44 6.2 2.71 7.47 1.208 5.1-1.555 11.35.95 9.55.66-.49 6.906-3.252 7.96-3.44.54-.1 7.496.283 9.46 1.12.945.42 4.465 2.577 5.24 3.26a20.38 20.38 0 0 1 5.45 8c.26.71 1.55 5.87 1.72 6.93a73.74 73.74 0 0 1 1.38 12.67 89.21 89.21 0 0 1-2.91 24.37c-1.116 4.259-1.663 5.668-1.847 6.055l-.01.02.024-.026a.339.339 0 0 1 .103-.074A19.81 19.81 0 0 1 871.24 582a20 20 0 0 1 15.85 18.47c-.053 2.793-.103 4.42-.15 4.88-.06.69-1.177 5.847-2.485 11.378l-.197.832-.2.834-.201.834-.202.83c-1.08 4.414-2.169 8.543-2.825 10.292-.52 1.333-3.503 8.347-8.95 21.04-.72 1.448-4.55 8.38-8.6 15.61l-.434.775-.526.938c-4.035 7.19-8.062 14.27-9.25 16.167-5.07 7.84-11.39 17.17-19 27-7.61 9.83-16.2 20.3-25.61 30.63-1.02 1.105-5.192 5.418-9.641 10.009l-.623.642-.624.644-.625.644c-4.502 4.642-8.878 9.152-10.193 10.536 1.056 2.274 3.285 7.492 4.076 9.895 1 2.8 1.77 5.56 2.56 8.31 3 11 5.29 21.61 7.3 31.73.897 4.519 5.776 31.196 10.904 59.358l.324 1.78.162.892.325 1.784.691 3.799A64340.943 64340.943 0 0 1 824.7 946.47c.12.82.28 2.322-1.37 2.322-1.65 0-249.254-1.66-249.4-1.742-.352-.119-2.252-.516-5.7-1.19-1-.35-1.22-.86-1-2.45.025-.107 3.08-24.93 6.235-50.516l.379-3.073c3.032-24.585 6.048-48.993 6.456-52.031.85-6.33 13.25-75.03 16.43-85.64a167.3 167.3 0 0 1 6.06-17 40.94 40.94 0 0 1 2.14-4.591l.41-.737-1.05-.995-.535-.509c-3.743-3.553-7.237-6.912-7.925-7.708a176 176 0 0 1-18.2-24.06 169.9 169.9 0 0 1-14.16-27.93c-2-4.84-3.6-9.79-5.09-14.71a96.8 96.8 0 0 1-3.39-15.38 55.49 55.49 0 0 1 .13-16.32c.463-2.726 4.9-14.08 5.73-15.31 2.89-4.707 14.164-12.462 15.41-12.94 1.186-.44 8.486-2.022 10.96-2.02a33.79 33.79 0 0 1 12.26 2.58c1.246.513 6.235 3.425 11.63 6.593l.878.516.882.518 1.03.605.684.402c5.579 3.275 10.833 6.338 12.116 6.846 1.049.395 5.166 1.047 6.13.98a13.9 13.9 0 0 0 5.89-2 35.74 35.74 0 0 0 7.09-5.68c15.542-19.707 25.328-33.19 29.36-40.45 7.89-13.93 14.86-28.41 20.58-40 5.72-11.59 10.2-20.14 11.66-22.9 9.027-13.202 14.44-20.369 16.24-21.5.83-.513 4.567-2.1 5.59-2.36 1.076-.267 5.511-.575 6.62-.45Zm-583.65 0c1.109-.125 5.544.183 6.62.45 1.023.26 4.76 1.847 5.59 2.36 1.8 1.131 7.213 8.298 16.24 21.5 1.46 2.76 5.94 11.31 11.66 22.9 5.72 11.59 12.69 26.07 20.58 40 4.032 7.26 13.818 20.743 29.36 40.45a35.74 35.74 0 0 0 7.09 5.68 13.9 13.9 0 0 0 5.89 2c.964.067 5.081-.585 6.13-.98 1.283-.508 6.537-3.57 12.116-6.846l.685-.402 1.03-.605.881-.518.878-.516c5.395-3.168 10.384-6.08 11.63-6.593a33.79 33.79 0 0 1 12.26-2.58c2.474-.002 9.774 1.58 10.96 2.02 1.246.478 12.52 8.233 15.41 12.94.83 1.23 5.267 12.584 5.73 15.31a55.49 55.49 0 0 1 .13 16.32 96.8 96.8 0 0 1-3.39 15.38c-1.49 4.92-3.09 9.87-5.09 14.71a169.9 169.9 0 0 1-14.16 27.93 176 176 0 0 1-18.2 24.06c-.688.796-4.182 4.155-7.925 7.708l-.536.51-1.05.994.412.737a40.94 40.94 0 0 1 2.139 4.591 167.3 167.3 0 0 1 6.06 17c3.18 10.61 15.58 79.31 16.43 85.64.408 3.038 3.424 27.446 6.456 52.031l.379 3.073c3.155 25.587 6.21 50.41 6.235 50.516.22 1.59 0 2.1-1 2.45-3.448.674-5.348 1.071-5.7 1.19-.146.081-247.75 1.742-249.4 1.742-1.65 0-1.49-1.502-1.37-2.322.01-.082 5.732-31.664 11.604-63.937l.691-3.799.325-1.784.162-.891.324-1.78c5.128-28.163 10.007-54.84 10.904-59.359 2.01-10.12 4.3-20.73 7.3-31.73.79-2.75 1.56-5.51 2.56-8.31.791-2.403 3.02-7.621 4.076-9.895-1.315-1.384-5.691-5.894-10.193-10.536l-.625-.644-.624-.644-.623-.642c-4.45-4.59-8.622-8.904-9.641-10.009-9.41-10.33-18-20.8-25.61-30.63-7.61-9.83-13.93-19.16-19-27-1.188-1.897-5.215-8.977-9.25-16.167l-.526-.938-.435-.775c-4.05-7.23-7.88-14.162-8.599-15.61-5.447-12.693-8.43-19.707-8.95-21.04-.656-1.749-1.746-5.878-2.825-10.291l-.202-.83-.201-.835-.2-.834-.197-.832C2.307 611.197 1.19 606.04 1.13 605.35c-.047-.46-.097-2.087-.15-4.88A20 20 0 0 1 16.83 582a19.81 19.81 0 0 1 12.29 1.205.34.34 0 0 1 .103.074l.024.026-.01-.02c-.184-.387-.731-1.796-1.847-6.055a89.21 89.21 0 0 1-2.91-24.37 73.74 73.74 0 0 1 1.38-12.67c.17-1.06 1.46-6.22 1.72-6.93a20.38 20.38 0 0 1 5.45-8c.775-.683 4.295-2.84 5.24-3.26 1.964-.837 8.92-1.22 9.46-1.12 1.054.188 7.3 2.95 7.96 3.44 2.505 1.8-.258-4.45.95-9.55.27-1.27 2.079-6.251 2.71-7.47a29.49 29.49 0 0 1 4.67-6.67 27 27 0 0 1 13.69-8 25.53 25.53 0 0 1 8.19-.52 24.07 24.07 0 0 1 9 2.7 29.56 29.56 0 0 1 7.45 5.77c1.318 1.414 5.995 8.28 14.03 20.6 1.987 3.213 6.367 10.46 13.14 21.74-2.464-11.09-3.758-19.024-3.88-23.8-.053-2.38.4-7.26 1.36-14.64 4.153-10.12 6.4-15.42 6.74-15.9 3.738-4.484 6.055-7.117 6.95-7.9a23.52 23.52 0 0 1 5.22-3.33c1.002-.464 5.224-1.59 6.3-1.71Zm580.43 16.48c-1.193.631-5.54 5.788-6.53 7.56l-3.57 6.49c-4.78 8.88-9.4 18.2-14.15 27.84-9.29 18.84-19 38.83-31.63 57.1-1.145 1.655-3.373 4.548-5.787 7.61l-.52.658-.524.661-.525.662c-3.768 4.737-7.526 9.33-8.034 9.899a79.48 79.48 0 0 1-5.88 6.09 51.22 51.22 0 0 1-7.13 5.59 33.18 33.18 0 0 1-8.91 4.1 27.86 27.86 0 0 1-10.17 1 33.39 33.39 0 0 1-9.23-2.27 75.85 75.85 0 0 1-13.79-7.71 108.55 108.55 0 0 0-10.71-6.62 19.91 19.91 0 0 0-8.73-2.46 14.18 14.18 0 0 0-7.17 2.07 16.06 16.06 0 0 0-5.06 5.12c-.142.22-.739 1.59-1.353 3.042l-.23.546c-.65 1.546-1.258 3.031-1.297 3.172a35.26 35.26 0 0 0-.82 12.53c.16 1.45.677 4.01 1.278 6.689l.183.806.093.404.179.772c.81 3.463 1.652 6.717 1.937 7.619.311.983 2.222 6.19 4.354 11.61l.483 1.222c1.564 3.937 3.19 7.829 4.353 10.148a147.64 147.64 0 0 0 9.91 17.11c.61.87 3.48 5.21 8.15 11.08.954 1.18 4.85 5.287 9.166 9.77l.577.6.582.604.933.966 1.243 1.286.618.639 2.427 2.501a20.757 20.757 0 0 1 4.284-1.136c.364-.05.9-.075 1.573-.08h.47c2.773.018 7.42.319 12.167.697l1.257.102 1.004.083c6.348.534 12.368 1.149 13.779 1.348 1.574.223 15.74 2.83 30.041 5.571l1.619.311 3.4.656 1.124.218c10.46 2.03 20.006 3.956 23.526 4.854 4.023 1.026 15.592 4.648 27.581 8.563l1.6.524 1.602.526.492.161.983.324c9.486 3.13 18.654 6.257 23.966 8.237l.536.2c1.738.655 3.003 1.17 3.65 1.495.61.32 1.351.76 2.225 1.324l.252.164c.583-.626 3.703-3.549 6.963-6.602l1.12-1.049c3.075-2.88 6.03-5.657 6.86-6.517 7.6-8 16-17.36 25.06-28.57a394.37 394.37 0 0 0 28.23-39.73c3.12-5.193 8.817-15.91 17.09-32.15 1-2.37 7.71-19.69 8.43-22.27a70.62 70.62 0 0 0 2.19-10.9c.067-.593.14-1.927.22-4a2.86 2.86 0 0 0-.71-1.62 4 4 0 0 0-1.56-1.14 3.3 3.3 0 0 0-1.83-.21c-.165.026-.557.306-1.176.84l-.28.244c-.78.693-1.86 1.719-3.234 3.076l-33.46 38.29c-4.787-3.607-9.093-6.88-12.92-9.82 5.68-8.707 9.16-14.117 10.44-16.23 3.87-6.33 7.46-12.65 10.53-19 6.18-12.69 10.3-25.66 10.75-38.15.041-1.285-.286-4.583-.682-7.995l-.13-1.098c-.525-4.39-1.112-8.629-1.128-8.677-.172-.61-1.59-2.27-1.64-2.28-.162-.076-1.62.413-1.91.6-1.222.92-4.45 5.086-9.68 12.5-2.262 3.507-14.709 22.813-37.34 57.92l-13.74-7.95 27.58-52.79c.86-1.631 2.518-6.257 4.054-10.957l.286-.881c1.66-5.138 3.105-10.146 3.13-11.202.032-2.539-2.38-10.244-2.7-10.75-.666-1.035-6.607-5.239-9.04-5.2a7.6 7.6 0 0 0-3.39.85 13.61 13.61 0 0 0-3.56 2.88c-.946 1.073-19.15 29.716-54.61 85.93l-14.47-4.15c.393-6.467.873-11.107 1.44-13.92a167 167 0 0 1 7.23-24.4l.443-1.247.89-2.49c2.372-6.635 4.7-13.225 6.097-19.793 1.66-7.8 2.32-16.17.72-23.73a30.21 30.21 0 0 0-4.05-10.35l-1.63-2.23-1.87-2.05a6.7 6.7 0 0 0-2.76-1.8c-.359-.094-1.783-.016-2.1.12Zm-577.21 0c-.317-.136-1.741-.214-2.1-.12a6.7 6.7 0 0 0-2.76 1.8l-1.87 2.05-1.63 2.23a30.21 30.21 0 0 0-4.05 10.35c-1.6 7.56-.94 15.93.72 23.73 1.398 6.568 3.725 13.158 6.097 19.793l.89 2.49.443 1.247a167 167 0 0 1 7.23 24.4c.567 2.813 1.047 7.453 1.44 13.92l-14.47 4.15c-35.46-56.214-53.664-84.857-54.61-85.93a13.61 13.61 0 0 0-3.56-2.88 7.6 7.6 0 0 0-3.39-.85c-2.433-.039-8.374 4.165-9.04 5.2-.32.506-2.732 8.211-2.7 10.75.025 1.056 1.47 6.064 3.13 11.202l.286.881c1.536 4.7 3.195 9.326 4.054 10.957l27.58 52.79-13.74 7.95a510494.02 510494.02 0 0 0-37.34-57.92c-5.23-7.414-8.458-11.58-9.68-12.5-.29-.187-1.748-.676-1.91-.6-.05.01-1.468 1.67-1.64 2.28-.016.048-.603 4.288-1.128 8.677l-.13 1.098c-.396 3.412-.723 6.71-.682 7.995.45 12.49 4.57 25.46 10.75 38.15 3.07 6.35 6.66 12.67 10.53 19 1.28 2.113 4.76 7.523 10.44 16.23-3.827 2.94-8.133 6.213-12.92 9.82l-33.46-38.29c-1.375-1.357-2.453-2.383-3.235-3.076l-.28-.244c-.618-.534-1.01-.814-1.175-.84a3.3 3.3 0 0 0-1.83.21 4 4 0 0 0-1.56 1.14 2.86 2.86 0 0 0-.71 1.62c.08 2.073.153 3.407.22 4a70.62 70.62 0 0 0 2.19 10.9c.72 2.58 7.43 19.9 8.43 22.27 8.273 16.24 13.97 26.957 17.09 32.15a394.37 394.37 0 0 0 28.23 39.73 470.474 470.474 0 0 0 25.06 28.57c.83.86 3.785 3.637 6.86 6.517l1.12 1.05c3.26 3.052 6.38 5.975 6.963 6.601l.252-.164a29.606 29.606 0 0 1 2.225-1.324c.647-.326 1.912-.84 3.65-1.494l.536-.201c5.312-1.98 14.48-5.107 23.966-8.237l.983-.324.492-.161 1.601-.526 1.6-.524c11.99-3.915 23.559-7.537 27.582-8.563 3.52-.898 13.065-2.823 23.526-4.854l1.124-.218 3.4-.656 1.619-.31c14.3-2.742 28.467-5.35 30.041-5.572 1.41-.2 7.43-.814 13.779-1.348l1.004-.083 1.257-.102c4.747-.378 9.394-.679 12.167-.696h.47c.674.004 1.21.03 1.573.079 1.475.227 2.91.61 4.284 1.136.785-.808 1.6-1.647 2.427-2.501l.618-.639 1.243-1.286.933-.966.582-.603.577-.6c4.315-4.484 8.212-8.59 9.166-9.771 4.67-5.87 7.54-10.21 8.15-11.08a147.64 147.64 0 0 0 9.91-17.11c1.163-2.32 2.789-6.211 4.353-10.148l.483-1.222c2.132-5.42 4.043-10.627 4.354-11.61.285-.902 1.126-4.156 1.937-7.62l.18-.771.092-.404.183-.806c.601-2.679 1.117-5.238 1.278-6.689a35.26 35.26 0 0 0-.82-12.53c-.039-.14-.646-1.626-1.296-3.172l-.23-.546c-.615-1.452-1.212-2.823-1.354-3.042a16.06 16.06 0 0 0-5.06-5.12 14.18 14.18 0 0 0-7.17-2.07 19.91 19.91 0 0 0-8.73 2.46 108.55 108.55 0 0 0-10.71 6.62 75.85 75.85 0 0 1-13.79 7.71 33.39 33.39 0 0 1-9.23 2.27 27.86 27.86 0 0 1-10.17-1 33.18 33.18 0 0 1-8.91-4.1 51.22 51.22 0 0 1-7.13-5.59 79.48 79.48 0 0 1-5.88-6.09c-.508-.57-4.266-5.162-8.034-9.9l-.525-.66-.524-.662-.52-.658c-2.414-3.062-4.642-5.955-5.787-7.61-12.63-18.27-22.34-38.26-31.63-57.1-4.75-9.64-9.37-18.96-14.15-27.84l-3.57-6.49c-.99-1.772-5.337-6.929-6.53-7.56Zm209.2 100.47.026.021.118.085c.881.616 5.384 3.572 5.466 3.554.09-.02 4.14 1.69 4.81 1.78 1.134.23 3.227.307 6.28.23.37 0 5.734-.972 6.68-1.04a14.28 14.28 0 0 1 9.44 2.27c.63.431 4.337 5.542 4.67 6.84.223.871.416 3.095.58 6.67.19 1.414 2.386 4.04 2.66 4.15.345.135 2.29 0 2.37-.08.053-.053.293-.307.72-.76a26.78 26.78 0 0 1 1.94-2.09 15.38 15.38 0 0 1 1.75-1.42 11.19 11.19 0 0 1 2.88-1.43 10.27 10.27 0 0 1 7.69.49c.967.48 3.017 2.357 6.15 5.63.59.69 1.05 1.2 1.35 1.52.293.341 3.713 2.743 7.393 5.313l.671.469c4.262 2.976 8.637 6.024 8.746 6.258.08.16.22.42.31.58a1.6 1.6 0 0 1-.1 1.76c-.717 1.134-3.688 3.275-4.08 3.57-.35.248-4.207 1.453-4.67 1.49-1.141.14-2.29.21-3.44.21-1.536-.03-7.11-1.15-8.81-2.15l-1.9-1.16a29.65 29.65 0 0 1-4.22-3.39 69.11 69.11 0 0 1-2.132-2.198c-1.902 1.345-3.568 2.278-4.998 2.798a19.22 19.22 0 0 1-17.65-2.33 20.17 20.17 0 0 1-4.62-4.52 22.55 22.55 0 0 1-2.72-4.84 22 22 0 0 1-1-3c-.15-.52-.971-3.655-1.08-3.63-3.943.504-6.706.727-8.29.67-1.467-.03-8.75-1.16-9.27-1.33-4.933-1.793-7.417-2.65-7.45-2.57-.05.12-8.36-7.03-8.51-7.18-.74-.78-1.11-2.17-.69-2.27.057-.032 2.717-2.185 5.475-4.407l.571-.46c2.76-2.222 5.443-4.37 5.544-4.393.65-.22.78-.2 1.34.29Zm127.7-213.19a14.49 14.49 0 0 1 6.15 3.14 20.16 20.16 0 0 1 2.55 2.59c.073.088.707 1.207 1.904 3.358l.265.477c3.192 5.747 9.896 17.942 20.111 36.585.5.409.836.605 1.01.59.088-.016.452-.2 1.09-.55.702-.44 6.08-3.562 11.587-6.663l.787-.443c5.378-3.02 10.673-5.896 11.656-6.114a28.14 28.14 0 0 1 12.94 0 21.59 21.59 0 0 1 6.45 2.82 21 21 0 0 1 5.09 4.67c1.416 1.908 9.366 23.118 23.85 63.63l-.9 6.78-.525.522-.3.3c-.609.612-.94.957-.995 1.038-.3.44-5.686 2.954-12.8-3.16-12.54-36.06-18.947-54.427-19.22-55.1-.501-1.434-2.602-4.537-2.89-4.75-.263-.207-3.594-1.197-4.31-1.18-1.062.016-6.87 1.73-7.29 1.96-1.621.897-5.625 3.396-9.576 5.889l-.657.415c-4.594 2.901-8.932 5.672-9.147 5.756a15.25 15.25 0 0 1-5.53 1.11 14 14 0 0 1-6.79-1.74c-1.201-.654-4.912-3.863-5.63-4.68-2.05-2.488-3.45-4.278-4.2-5.37-1.15-1.714-5.573-10.203-9.797-18.418l-.516-1.004c-4.202-8.181-8.062-15.8-8.107-15.808-.043-.002-14.41 9.3-29.054 18.806l-1.793 1.165c-14.644 9.507-28.993 18.847-29.003 18.919.023.354 3.706 11.75 7.545 23.576l.721 2.22c3.925 12.084 7.785 23.925 7.854 24.234a16 16 0 0 1 0 7.39 15.33 15.33 0 0 1-3.21 6.08c-.482.557-6.259 4.807-17.33 12.75 0 0 3.229 4.848 6.66 10.014l.48.723.241.362.48.723c3.52 5.3 6.882 10.384 6.849 10.398-.07.03.47 2.18.07 2.29-.056.023-2.799 1.605-5.73 3.282l-.63.36c-.796.454-1.592.908-2.34 1.332l6.64.656 34.11.11c9.712-.445 28.315-2.958 55.81-7.54 2.094-.495 9.756-2.61 18.125-5.072l1.028-.303c1.03-.305 2.07-.614 3.106-.926l1.554-.468c6.72-2.034 13.195-4.108 16.977-5.581.606-.23 1.238-.476 1.894-.74-.06-1.01-.146-2.468-.185-3.242l-.013-.273a2.772 2.772 0 0 1-.006-.255c.08-.22.11-.24.4-.32 2.052-.523 3.089-.79 3.11-.8.247-.039 2.097-1.002 2.39-1.21 1.19-1.08 1.837-1.697 1.94-1.85.007-.032.93-.819.96-.87a.71.71 0 0 1 .66-.06c.034.013 1.231.76 3.59 2.24.25.25.23.46-.13 1a2.432 2.432 0 0 1-.028.034 507.71 507.71 0 0 0 6.44-3.079l1.286-.627c13.283-6.497 26.11-13.334 27.052-13.948 20.1-14.1 30.53-21.443 31.29-22.03 15.785-14.471 24.177-22.213 25.178-23.226l.052-.054a297.62 297.62 0 0 1 2.63-2.458l.41-.38c1.222-1.135 2.352-2.183 2.42-2.252.35-.38 1.92-.38 2.12 0 0 .09 9.59 8.54 9.7 8.68.65.84.53 1.39-.58 2.67-.108.11-2.574 2.733-7.4 7.87-13.633 12.487-20.977 19.167-22.03 20.04l-32.26 23.17c-.086.054-.237.142-.447.263l-.28.16c-2.096 1.194-7.967 4.432-14.028 7.749l-1.777.971-.885.484c-6.63 3.62-12.857 6.99-13.943 7.513-22.853 9.207-34.677 13.957-35.47 14.25-3 1.06-17.24 4.837-42.72 11.33-32.093 3.707-48.893 5.583-50.4 5.63-33.062-.781-54.958-1.938-65.69-3.47a400.57 400.57 0 0 1-57.81-12.62c-3.982-1.214-12.38-4.202-21.316-7.519l-1.28-.476-.642-.24-1.286-.48c-11.368-4.258-22.855-8.765-26.666-10.615-3.856-1.812-9.488-4.909-15.262-8.235l-.963-.557-1.447-.84a644.953 644.953 0 0 1-15.462-9.306l-.648-.404c-2.209-1.383-3.803-2.416-4.458-2.888-12.593-10.18-20.26-16.64-23-19.38-.235-.23-2.401-2.512-4.716-4.939l-.747-.782c-2.575-2.696-5.097-5.319-5.147-5.279-.047.037-1.132-1.617-2.274-3.401l-.312-.489c-1.195-1.877-2.354-3.741-2.354-3.81-.5-.72-.62-1.93-.21-2 .123-.045 3.905-3.048 4.04-3.08.18-.055 5.084-3.125 5.26-3.14.12 0 3.145-1.522 3.37-1.51.73 0 .87 0 1.52.85.127.16 2.903 3.793 8.33 10.9.346.366 3.096 3.1 5.993 5.946l.561.552.562.55c2.43 2.38 4.759 4.635 5.654 5.432 5.067 4.096 8.395 6.78 9.984 8.051l.225.18c.283.226.497.396.641.509.9.707 5.51 3.82 13.83 9.34.776.505 2.77 1.676 5.983 3.513l.637.364c1.304.745 2.79 1.589 4.46 2.533a284.8 284.8 0 0 0 34.42 15.7c5.69 2.22 11.4 4.1 16.92 6 5.58 1.73 11 3.53 16.31 4.94 10.6 3.07 20.69 5.25 29.9 7.17 4.64.81 9 1.68 13.22 2.33 2.192.338 10.407 1.221 24.647 2.651-2.108-3.147-6.463-9.66-10.75-16.079l-.694-1.04-3.051-4.57-.649-.972-.318-.477-.625-.936-1.19-1.786-.562-.842-1.289-1.934-.463-.696c-1.491-2.24-2.432-3.659-2.456-3.709 18.026-12.334 27.056-18.521 27.09-18.56a.66.66 0 0 0 .11-.65c0 .038-3.444-10.484-7.122-21.786l-.47-1.446c-4.007-12.316-8.127-25.06-8.258-25.738-.154-.796-.395-4.325-.32-5.28.148-1.89 2.278-7.125 2.8-7.9.269-.396 1.867-2.043 3.62-3.68l.46-.425c1.31-1.201 2.648-2.336 3.54-2.895 27.56-17.305 46.048-28.856 55.466-34.653l.819-.504c4.107-2.523 6.272-3.814 6.495-3.873a14.22 14.22 0 0 1 6.68-.15Zm70.61 128.48c.39-.028.42.34.39.48.004.036.084 1.463.24 4.28 0 .35-.06.46-.31.5 0 0-.9.113-1.11.2-.046.015-1.74.37-1.86.42a6.49 6.49 0 0 0-1.09.46l-.27.19c-.052.027-.562.397-1.53 1.11a.38.38 0 0 1-.44 0 385.57 385.57 0 0 1-2.89-2.813l-.308-.308a2.802 2.802 0 0 1-.252-.269c-.07-.21-.07-.26.12-.45s2.02-1.53 2.02-1.62c0-.09 2.8-1.23 3.53-1.48.3-.1 3.316-.665 3.76-.7Zm-.45-27.92c.07 0 .23.38.21.52 0 .005-.002.038-.002.1v.114l-.001.073v.283l-.001.116v1.746l.001.233v.499l.003 1.126c0 .35-.1.45-.34.47l-4.26-.16c-.083-.011-1.62-.13-1.76-.07-.075-.028-.099-1.395-.101-2.72v-.732c.003-.946.014-1.723.021-1.748.06-.21.08-.23.24-.24.16-.01 5.95.387 5.99.39Zm-67.66-18.85c.066.015 3.312.537 3.37.57 0 .033 1.287.367 3.86 1 2.377.505 3.587.762 3.63.77.18 0 .45.49.37.61-.016.034-.292 1.434-.83 4.2-.14.33-.31.39-.85.3-.073-.014-4.17-.886-4.23-.9-.107-.016-1.706-.359-3.368-.723l-.555-.121c-1.658-.365-3.222-.717-3.263-.748-.138-.108 1.203-4.804 1.266-4.848.18-.17.23-.18.6-.11Zm-29.817-2.772.55.034c1.557.098 3.058.195 3.077.198.07 0 .23.38.21.51-.003.013-.005.203-.006.573v1.228c0 .655.003 1.488.006 2.499 0 .35-.09.44-.33.46-.032-.011-6.455-.29-6.595-.23.006-.016.035-5.43.195-5.44.073-.005 1.434.077 2.893.168ZM168.38 181.71c.196.066 31.55 8.35 32.97 8.83a26.63 26.63 0 0 1 4.69 2.1 19.86 19.86 0 0 1 2.61 1.81 17.45 17.45 0 0 1 2.52 2.56 16.56 16.56 0 0 1 2 3.14 18.39 18.39 0 0 1 1.24 3.28 27 27 0 0 1 .89 5.9v.618l.001.098v.462l.001.133v.44l.001.161v.343l.001.182v.384l.001.203v.426l.065 33.22c0 .06 12.023 3.283 36.07 9.67a24.74 24.74 0 0 1 9.24 4.43 16.73 16.73 0 0 1 3.74 4.37 18.06 18.06 0 0 1 1.93 4.65 35.53 35.53 0 0 1 .73 11 5.49 5.49 0 0 0-.002.122v.288c.017 3.453.584 24.448 1.642 31.53.62 4.24 1.44 8.71 2.57 13.42.167.793 3.467 10.88 9.9 30.26-12.453 2.427-18.797 3.68-19.03 3.76a33.54 33.54 0 0 0-7.55 2.89c-.733.39-2.503 1.867-5.31 4.43a11.22 11.22 0 0 0-2.18 8c.046.25.99 2.28 1.25 2.49a20.77 20.77 0 0 0 4.22 3c3.553 1.993 5.617 3.21 6.19 3.65.614.402 2.394 1.998 5.34 4.79l2.96 5.89c.487 4.78.71 7.23.67 7.35-7.733 5.9-11.873 9.097-12.42 9.59A73.06 73.06 0 0 0 245 424c-.067.115-2.175 4.037-4.36 8.114l-.58 1.08c-2.184 4.075-4.272 7.981-4.3 8.066-.16.45-1.57 1-1.91.78-.103-.042-4.216-1.395-12.34-4.06-.93-.52-1-1.11-.5-2.85.042-.115 1.438-3.244 2.926-6.54l.299-.66c1.444-3.196 2.896-6.37 3.215-6.95a93.8 93.8 0 0 1 10.24-14.42c.492-.565 2.942-2.97 5.31-5.272l.488-.475c2.266-2.201 4.323-4.184 4.332-4.203 0-.056-6.43-3.89-7.06-4.35-.692-.458-6.207-5.917-6.57-6.46-.35-.57-1.643-3.107-1.91-3.79a22.76 22.76 0 0 1-1.53-9.37 28.74 28.74 0 0 1 6.31-16.45c.38-.5 4.23-4.24 4.54-4.5 1.24-1 2.19-1.6 2.64-1.92a42 42 0 0 1 7-3.65c.947-.387 3.63-1.353 8.05-2.9-.206-.659-1.899-6.86-3.517-13.398l-.194-.786c-.064-.263-.129-.525-.192-.788l-.285-1.178c-.878-3.658-1.663-7.192-2.082-9.69-1.16-6.95-1.71-13-2-16.88-.29-4.12-.47-8.89-.4-14.05 0-.645.077-3.475.111-6.357l.008-.751c.005-.5.008-.996.009-1.477v-.707c-.007-1.734-.048-3.174-.158-3.728-.025-.171-2.394-1.52-3.24-1.75-.367-.107-16.45-4.373-48.25-12.8v-48.37c-.01-.84-.51-2.98-.69-3.17-.427-.309-3.69-1.48-4.87-1.74-20.027-5.327-30.09-8.007-30.19-8.04-.8-.24 2.99-15.37 3.23-15.58.56-.48.72-.51 1.8-.27Zm613.11 209.62c.113.059 14 4.67 14.19 4.93.47.62.47.81.15 2-.042.11-2.512 4.732-5.105 9.509l-.38.7-.57 1.046c-2.274 4.17-4.425 8.048-4.895 8.685-.459.621-1.564 1.842-2.69 3.046l-.376.4a234.36 234.36 0 0 1-2.754 2.874c-.4.44-2.06.52-2.23.12 0-.09-9.28-8.78-9.39-8.92-.65-.85-.56-1.32.32-2.41.071-.073 3.435-5.734 6.633-11.134l.425-.718c2.047-3.458 3.96-6.7 4.814-8.159l.162-.275c.194-.333.302-.522.306-.534.23-.68 1-1.38 1.39-1.16Zm-555.85-43.28c.07 0 .42.17.48.29l.006.007.03.04 1.708 2.287.311.417.515.689c.19.3.19.41 0 .57 0 0-4.99 3.25-5.05 3.25a.38.38 0 0 1-.41-.14c-.018-.034-2.742-3.96-2.76-4.03-.07-.2-.06-.23.06-.33s4.96-3.1 5.01-3.05c.03.02.07.02.1 0Zm572.01-28.96c0 .07.18.08.28.18.067.067 1.67 4.723 4.81 13.97.32 1 .37 1.28.24 1.39-.021.044-3.38.71-3.38.76 0 .05-.35-.22-.41-.29-.06-.07-4.64-13.86-4.68-14.01-.04-.15-.34-1.78-.26-1.84.017-.022 1.15-.075 3.4-.16Zm-559.28 4.96c.013.013.081.143.184.346l.139.277c.508 1.02 1.435 2.936 1.447 2.957l-3.92 2.78c-.3.18-.41.19-.52.06-.11-.13-1.951-3.625-1.96-3.64 0-.08 4.266-2.755 4.33-2.78.2-.07.23-.07.3 0Zm-22.48-1.56c.02 0 .42.17.48.28.017.03.874 1.177 2.57 3.44.18.3.19.42 0 .58a18 18 0 0 1-.646.442l-.336.224c-1.44.959-3.954 2.604-3.998 2.604a.37.37 0 0 1-.41-.13c-.016-.036-2.85-4.074-2.87-4.14-.07-.2-.07-.23.05-.34.08-.073 1.8-1.06 5.16-2.96Zm193-38.77c.164.075 3.597 1.478 7.32 2.98l.56.227.739.297.601.242c3.6 1.447 7.002 2.795 7.54 2.944 4.83 1.102 8.226 1.786 10.19 2.053 6.19.84 10.155.873 11.494.869l.174-.001h.135l.054-.001h.083c10.413-.763 16.18-1.258 17.3-1.485l.135-.03c1.35-.315 6.338-1.933 14.965-4.855.946-.375 6.405-2.524 8.017-3.176l.221-.09c.125-.051.202-.084.222-.094.55-.3 2.46.4 2.57.94.053.099 2.167 3.67 4.31 7.298l.402.68c2.071 3.507 4.05 6.867 4.088 6.972.45 1.34 0 2-2.11 3.28l-.126.064-.151.077-1.373.691-.362.182-.769.386-.521.262-2.17 1.09-.374.186-.309.155-.231.115-.084.042c-.626.288-3.145 1.241-5.684 2.177l-.692.255a245.499 245.499 0 0 1-4.748 1.7l-.222.074a7.923 7.923 0 0 1-.234.074c-.894.25-3.623.873-6.497 1.514l-1.037.231c-3.576.794-7.063 1.548-7.236 1.585a90.89 90.89 0 0 1-14.87 1.49c-.85 0-11.74-.47-14.37-.72a112.51 112.51 0 0 1-11.82-1.92c-8.54-1.686-12.987-2.669-13.34-2.95-.045-.05-1.376-.726-3.179-1.63l-.46-.23-.236-.12-.485-.242-.948-.473-.648-.323-1.307-.651-4.012-1.995-.373-.185-1.041-.519-.21-.105c-.221-.11-.351-.176-.371-.187-1.08-.61-2-2-1.54-2.38.023-.027.484-.747 1.203-1.877l.301-.473c.942-1.48 2.223-3.495 3.534-5.551l.438-.686.335-.525.334-.523c2.386-3.732 4.584-7.137 4.705-7.195.82-.49 1-.48 2.17.06ZM653.43 81.84c.008.005.153.057.406.147l.46.162c3.023 1.068 12.942 4.55 13.104 4.771.46.61.5.81.18 2-.045.107-1.758 4.01-3.509 7.96l-.318.718c-1.644 3.704-3.235 7.25-3.423 7.532a85 85 0 0 1-13.1 17.79c-7.093 6.24-10.947 9.597-11.56 10.07a15 15 0 0 0-3.54 3.38 6.6 6.6 0 0 0-.91 3.15 19.07 19.07 0 0 0 .6 4.94c.232.938 2.074 6.746 4.002 12.831l.283.893.141.446.283.892.281.888c1.727 5.457 3.314 10.502 3.64 11.76.92 3.813 2.28 12.033 4.08 24.66l-9.61 4.24c-.003.034.176.414.535 1.14l.134.27.15.3.164.328c.802 1.599 2.094 4.136 3.877 7.612a32.8 32.8 0 0 0 5.08 6.62 34.7 34.7 0 0 0 7.63 5.81c2.083 1.184 5.903 2.48 11.46 3.89.255.043 2.869.062 5.57.023l.624-.01c2.078-.038 4.105-.11 5.046-.233 4.92-.56 10.55-1.73 17.33-2 .68 0 7.251.211 8.75.46a37.57 37.57 0 0 1 8.78 2.52 30.9 30.9 0 0 1 8.05 5 24 24 0 0 1 6.07 7.83 22.58 22.58 0 0 1 2.16 9.16c.012.508-.033 1.595-.081 2.724l-.022.521c-.063 1.476-.118 2.88-.047 3.015 6.644-1.922 11.026-3.187 13.144-3.796l.287-.083c.77-.221 1.17-.335 1.199-.341.119-.048 6.45 1.21 6.28 1.61-.003.163.146 11.086.151 12.782v.153l-.001.065c-.14 1.07-.52 1.32-1.85 1.48-.123.003-2.907.456-8.35 1.36-.513.147-2.867 1.057-7.06 2.73l-14.84 10.01c-.034-.057-1.648-3.667-4.84-10.83a22.35 22.35 0 0 1-1.55-9.35c.09-3.43.8-7 1.08-9.84.078-.781-.176-3.219-.21-3.52-.105-.302-3.117-3.975-4.03-4.54-1.73-1.036-8.131-2.733-9.43-2.8-.57-.06-8.42.43-9.06.51-2.43.29-6.59 1.06-12.4 1.7a58.05 58.05 0 0 1-9.88.26 45.46 45.46 0 0 1-11.09-2.07 50.24 50.24 0 0 1-18.78-10.78 48.63 48.63 0 0 1-10-12.64 51.3 51.3 0 0 1-2.5-5.29 25.8 25.8 0 0 1-1.84-7.67 17.42 17.42 0 0 1 .49-5.42c.13-.5.907-2.603 1.19-3.14a14.38 14.38 0 0 1 1.94-2.86c.564-.643 1.52-1.482 2.87-2.518a110.41 110.41 0 0 0-.59-3.842c-.64-3.85-1.42-7.63-2.28-11.2-.357-1.475-1.433-5.03-2.573-8.668l-.38-1.213a550.34 550.34 0 0 0-2.264-7.026l-.164-.49a44.588 44.588 0 0 0-.489-1.413 75.78 75.78 0 0 1-3.1-10.2 37.9 37.9 0 0 1-.76-5.76 26.17 26.17 0 0 1 .45-6.19c.207-1.05 1.62-5.073 2.12-6.01a21.29 21.29 0 0 1 3.39-4.8A45.36 45.36 0 0 1 627 119c.81-.6 5.73-4.77 6.4-5.45a62.33 62.33 0 0 0 7.1-8 70.24 70.24 0 0 0 4.39-6.58c.67-1.19 1.4-2.45 2-3.65 3.387-8.107 5.093-12.203 5.12-12.29.23-.7 1.07-1.41 1.42-1.19ZM516.78 206.674l13.65 15.156c-1.52 1.684-2.28 2.93-2.28 3.739 0 .851.467 2.228 1.399 4.132l7.049.203c-.321-5.619.231-10.244 1.658-13.875l21.59 4.333a25.253 25.253 0 0 0-1.586 8.798c1.058 2.742.864 4.246-.583 4.511 15.469 5.87 25.048 12.433 28.737 19.688-2.385 2.555-8.805 7.521-11.999 9.345-8.528-8.586-18.64-13.787-30.334-15.603.23 10.014-4.045 15.242-12.827 15.685-8.5.43-13.326-4.72-14.475-15.446-6.166 0-15.274 3.78-27.323 11.34-4.47-3.787-8.153-9.39-11.05-16.81-3.17-8.112-3.262-13.847-.28-17.203l20.734 4.493c-.515 2.652-.368 4.663.44 6.03l8.23-2.54c-1.437-6.735-1.36-12.402.23-17 3.654-7.397 6.66-10.39 9.02-8.976Zm-151 0 13.65 15.156c-1.52 1.684-2.28 2.93-2.28 3.739 0 .851.467 2.228 1.399 4.132l7.049.203c-.321-5.619.231-10.244 1.658-13.875l21.59 4.333a25.253 25.253 0 0 0-1.586 8.798c1.058 2.742.864 4.246-.583 4.511 15.469 5.87 25.048 12.433 28.737 19.688-2.385 2.555-8.805 7.521-11.999 9.345-8.528-8.586-18.64-13.787-30.334-15.603.23 10.014-4.045 15.242-12.827 15.685-8.5.43-13.326-4.72-14.475-15.446-6.166 0-15.274 3.78-27.323 11.34-4.47-3.787-8.153-9.39-11.05-16.81-3.17-8.112-3.262-13.847-.28-17.203l20.734 4.493c-.515 2.652-.368 4.663.44 6.03l8.23-2.54c-1.437-6.735-1.36-12.402.23-17 3.654-7.397 6.66-10.39 9.02-8.976ZM726.1 40.19c.187.14 4.327 4.033 12.42 11.68.558.521 3.904 4.182 7.413 8.11l.57.639c3.044 3.415 6.102 6.915 7.477 8.641 2.033 2.553 8.02 11.983 17.96 28.29l3.45-1.77c6.182-1.218 10.575-1.675 13.18-1.37a32.17 32.17 0 0 1 10.13 2.83 29.76 29.76 0 0 1 8.09 5.52 25.62 25.62 0 0 1 5.29 7.23 31.57 31.57 0 0 1 3 9.81c.12 1.29.28 5.49.28 6.44a37.81 37.81 0 0 1-1.54 8.59 34 34 0 0 1-1.39 3.91c-1.44 2.14-2.153 3.21-2.14 3.21 3.267.213 5.12.367 5.56.46.728.15 10.243 4.485 12.58 6.92a16.12 16.12 0 0 1 1.74 2.05 26.38 26.38 0 0 1 1.52 2.27 22.68 22.68 0 0 1 2.16 5.19 25.37 25.37 0 0 1 .44 10.91c-.293 1.77-2.762 8.541-3.67 10.11-.157.278-.871 1.163-2.144 2.653l-.33.385a527.32 527.32 0 0 1-4.576 5.242c.248-.07.918.073 2.01.43 0-.005.029.027.083.092l.099.122c1.035 1.284 6.168 8.02 6.988 11.416a23.32 23.32 0 0 1 .17 10.3 22 22 0 0 1-1.53 4.62c-.32.72-.72 1.42-1.09 2.08-.37.66-.79 1.21-1.19 1.79-1.434 1.917-7.609 7.005-9 7.82-.883.526-3.084 1.711-5.406 2.949l-1.216.647c-2.936 1.561-5.734 3.038-5.998 3.214-.222.155-2.895 3.131-3.22 3.73-1.46 3.324-2.27 5.117-2.427 5.38l-.013.02c-.094.128-3.086 4.965-3.36 5.27-.126.093-4.026 5.177-4.2 5.3a1.55 1.55 0 0 1-1.63.09c-1.104-.59-4.17-4.325-4.31-4.74-.29-.63-1.38-4.11-1.48-4.77-.05-.32-.246-4.072-.17-4.92.032-.304.144-.946.266-1.614l.073-.402c.16-.868.311-1.676.301-1.744-.02-.13 2.77-6.47 3.22-7.17a27.48 27.48 0 0 1 7.2-7.72c8.027-4.347 12.59-6.84 13.69-7.48 1.325-.72 4.85-4.11 4.93-4.26.08-.15.6-1.496.68-2.06a6.77 6.77 0 0 0-.19-2.63c-.166-.66-1.31-2.52-1.47-2.64-.081-.083-2.173-1.244-2.35-1.25-2.393-.047-3.597-.093-3.61-.14l-7.51-15.03c-.61-.53.55-.88 1-1.27l8.57-6.18c.348-.269 3.06-2.98 3.31-3.31.25-.33 2.325-3.559 2.64-4.39.676-1.681.594-6.743.29-7.41-.095-.209-1.152-1.219-3.17-3.03-2.97-.741-4.761-1.166-5.372-1.273l-.12-.02a.868.868 0 0 0-.078-.007h-5.05l-8.64 1.25c-.033 0-1.469-3.514-2.975-7.246l-.293-.724c-1.607-3.987-3.197-7.98-3.162-8l4.12-4 2.42-3.01c.34-.613 1.093-2.067 2.26-4.36.349-.902 1.546-6.636 1.46-8.6-.088-2.05-2.687-7.89-3.53-8.68a13.09 13.09 0 0 0-3.14-2.22 16.16 16.16 0 0 0-8-1.72 12.06 12.06 0 0 0-3.62.7c-.173.073-1.363.987-3.57 2.74-.075.074-3.018 4.718-8.83 13.93 0 .05 0 .1-.06.05-8.707-18.08-13.327-27.573-13.86-28.48-.413-.701-3.01-4.768-5.66-8.833l-.481-.738c-2.326-3.561-4.592-6.963-5.349-7.919-.594-.787-6.362-6.862-12.537-13.315l-.825-.863-.414-.432-1.241-1.295A4511.752 4511.752 0 0 0 714.72 52.38c-.6-.52-1-1.61-.61-1.83.102-.077 9.87-10.83 10.17-10.91.73-.2.9-.15 1.82.55ZM138.78 95.71c.095.086 12.08 8.33 12.22 8.6.33.63.32.79-.13 1.68-.07.135-1.533 3.127-2.993 6.13l-.312.643c-1.349 2.775-2.61 5.384-2.665 5.547-.51 1.39-3.2 11.09-3.43 12.31-.153.813-.807 4.497-1.96 11.05l-8.92-1.65c-2.143-.449-13.12-4.07-13.92-4.26-.8-.19-1.48-.25-2.21-.36a17.73 17.73 0 0 0-8.48 1.45 18.47 18.47 0 0 0-6.33 4.51c-1.393 1.499-3.414 5.84-3.5 6.18a15.27 15.27 0 0 0-.45 2 19.23 19.23 0 0 0 .82 8.65c.16.44 3.196 5.785 3.31 5.88 1.247 1.167 1.847 1.78 1.8 1.84-4.36 10.523-6.576 15.85-6.65 15.98a6.8 6.8 0 0 0-.88 3c.05.22.743 2.726.93 3.03a14.39 14.39 0 0 0 4.245 4.225l.088.044c.907.438 7.122 3.172 18.647 8.201l-11.82 13.97a14.28 14.28 0 0 0-.48 2.2c-.06.72-.09 1.39-.11 2-.02.61.68 4.17.79 4.63.05.207.83 1.593 1.685 3.062l.286.491c.958 1.638 1.915 3.228 1.969 3.267.25.15.18 1.51-.09 1.81-.044.065-1.594 2.613-3.202 5.248l-.536.878c-1.544 2.527-2.992 4.888-3.052 4.944a1.34 1.34 0 0 1-1.31.41c-.83-.238-5.333-3.962-5.53-4.24 0-.13-5.915-10.78-6.14-11.64a31.49 31.49 0 0 1-1.1-11.41c.061-.977.188-1.95.38-2.91.08-.48.16-.95.25-1.42s.25-.94.38-1.4c.09-.363.296-.98.51-1.591l.13-.364c.28-.778.54-1.46.55-1.475-.48-.29-.88-.537-1.2-.74l-.293-.189-.24-.16a32.71 32.71 0 0 1-3.407-2.701 28.08 28.08 0 0 1-5.88-7.23l-.9-1.73c-.23-.56-1.727-5.267-1.83-6.11a21 21 0 0 1-.21-3.07 22.59 22.59 0 0 1 3-11c.37-.664 3.1-3.987 3.07-4.02-.078-.075-3.232-7.342-3.63-8.9-.812-3.299 17.62-38.707 21.95-40.22a33.73 33.73 0 0 1 13.24-1.78c2.077.137 11.39 2.68 11.41 2.6 2.979-10.134 4.582-15.32 4.81-15.56.121-.092 5.4-9.14 5.49-9.33.49-.76 1.58-1.37 1.83-1Zm531.23 100.5c.062.04.9 1.076 1.812 2.218l.517.648a224.537 224.537 0 0 1 1.891 2.394c.07.06-.08.46-.19.53-.027.024-1.05 1.027-3.07 3.01-.27.22-.39.23-.59.06l-4.56-5.06a.36.36 0 0 1 0-.44c.034-.024 3.766-3.332 3.83-3.36.19-.09.22-.09.36 0Zm38.9.66c.053.053.577 1.233 1.57 3.54-.004.01-.004.08 0 .21 0 .01-.23.36-.35.42l-.676.45-.51.34-2.384 1.59c-.31.17-.41.19-.53 0-.12-.19-1.82-3.5-1.9-3.56-.08-.06.08-.28.2-.34.035-.021 4.216-2.628 4.28-2.65.2-.08.22-.08.3 0Zm-18.28-8.61 1.014 1.62.24.382c.519.826 1.008 1.6 1.036 1.628.13.32 0 .52-.52.86a33.4 33.4 0 0 1-.074.037l-.4.2c-.66.332-1.81.907-2.096 1.043-.113.059-3.266.848-3.44.83-.032-.011-1.312.042-3.84.16-.32 0-.7-.23-.63-.36.016-.035.369-4.634.4-4.7.032-.033.132-.381.18-.44.12-.2.16-.23.46-.24.056.011 2.14-.08 2.37-.18.032-.012.579-.029 1.64-.05 0 0 2.976-.976 3.03-1 .13-.08.6.08.63.21Zm-417.647-80.601c0 .1 6.757 10.991 6.827 11.151.41 1 .2 1.48-1 2.37-.124.093-1.327.927-2.609 1.832l-.453.321c-1.06.752-2.092 1.499-2.538 1.867-.104.103-3.46 2.871-6.912 5.718l-.627.518a2513.94 2513.94 0 0 0-5.655 4.675l-.349.29a35 35 0 0 0-.897.759c-1.55 1.46-6.9 7.27-8.52 9.21-.508.508-3.09 3.874-5.628 7.26l-.506.676c-2.27 3.038-4.39 5.938-4.816 6.634-.93 1.52-1.68 2.7-2.09 3.34-.41.64-8.8 16.86-8.86 17.03-.34.71-1.28 1.35-1.59 1.08-.112-.062-5.06-1.93-5.23-2.01a11.61 11.61 0 0 1-.09-.044l-.186-.092c-.384-.19-1.109-.55-1.853-.914l-.446-.218c-.96-.467-1.84-.889-1.935-.902-.177-.012-3.34-2.15-3.5-2.42-.39-.64-.39-.82 0-1.91l.026-.05 7.814-14.98c.76-1.32 6.71-10.6 8.37-13 .764-1.104 2.628-3.444 4.526-5.773l.495-.607c2.061-2.52 4.054-4.9 4.609-5.54 2.23-2.54 5.13-5.62 9-9.39.734-.702 3.85-3.374 7.1-6.118l.674-.568.673-.567c3.246-2.727 6.318-5.263 6.973-5.707.7-.48 6.45-4.223 6.63-4.335.46-.31 2.463-.036 2.573.414ZM683.13 163.52l.004.015.023.06c.121.292.648 1.373 1.579 3.245l.264.53c.1.34 0 .49-.48.76-.09 0-4.174 1.965-4.36 2.04-.27.09-3.815 1.655-3.85 1.67-.145.079-1.66.71-1.76.71-.25.12-.66-.13-.74-.14-.08-.01-.08-.05-.07-.07.01-.02 0 0-.06 0a.34.34 0 0 0-.18-.27s-.76-.18-.74-.23c0 0-.744-3.904-.71-3.97 0-.24.07-.29.39-.46.064-.028 9.96-4.105 10.02-4.13.16-.08.65.1.67.24ZM557.16 20.89c.113.013 4.44.237 12.98.67 1 .25 1.31.73 1.27 2.45-.013.125-.273 2.9-.568 5.676l-.066.615c-.244 2.25-.5 4.367-.656 4.919-.48 1.52-1.11 3.56-1.82 5.82-.36.89-.75 1.79-1.2 2.69a26.26 26.26 0 0 1-1.6 2.79 28.43 28.43 0 0 1-4.19 5.09 24.51 24.51 0 0 1-12.67 6.62 20.14 20.14 0 0 1-4 .3c-.669-.003-7.7-1.52-8.44-1.67-1.616 2.981-2.476 4.841-2.58 5.58-.39 2.56-1.61 10.29-1.98 11.58-.416 1.508-3.63 7.828-4.95 9.31a21 21 0 0 1-5.67 4.46c-4.43 2.45-69.913 13.812-70 13.85-.024.029-.359 3.937-.72 8.147l-.065.768-.066.77c-.352 4.102-.695 8.081-.769 8.675a31.63 31.63 0 0 1-.95 4.06 26.9 26.9 0 0 1-1.6 4c-.219.405-1.412 2.174-2.349 3.518l-.3.43c-.385.546-.691.97-.811 1.112l-4.04 3.61c-.587.433-3.66 2.06-9.22 4.88-1.413.513-18.19 2.972-35.147 5.334l-2.076.289c-16.946 2.35-33.453 4.521-34.337 4.468a14.693 14.693 0 0 1-5.12-1.321 13.17 13.17 0 0 1-4.22-3.13c-.79-.892-4.553-13.118-11.29-36.68a38.38 38.38 0 0 0-5.33-1.28c-1.205-.199-4.158-.27-6.795-.275h-.933c-2.026.007-3.692.05-3.942.095l-14.92 3.35 2.57-69.17c.103.043 2.884.466 5.805.917l.675.104c3.04.47 6.02.942 6.1 1.019.6.44.66.59.67 1.68v.053l-.001.036-.001.314v2.082l.001.216v.46l.001.244v.514l.001.27.001.57c.01 6.648.04 20.262.088 40.841.16-.01 14.877.897 17.77 1.62.042.01.116.032.221.067l.141.047c.99.334 3.794 1.366 8.412 3.097l1.127.423c1.033.388 2.146.806 3.339 1.256 5.002 22.137 7.76 34.124 8.276 35.961l.03.105a.53.53 0 0 0 .054.144c.053.022 15.796-2.06 31.66-4.282l1.867-.262c14.607-2.054 28.8-4.163 30.393-4.786a19.83 19.83 0 0 0 4.29-2.36c1.097-.788 3.25-4.57 3.37-4.89.12-.32.38-2.24.43-2.73.19-2.12.14-4.73.18-7.85 0-1.53.6-7.62.74-8.15.244-1.132 1.45-4.496 1.73-5.06.31-.59 1.777-2.897 2.22-3.43.413-.563 2.4-2.49 2.96-2.95.562-.434 4.073-2.444 5.31-2.89.965-.33 16.185-3.055 31.855-5.852l2.94-.524c15.998-2.855 31.565-5.633 32.015-5.864a4.72 4.72 0 0 0 1.45-1.18 7.17 7.17 0 0 0 1-2c.356-1.063 1.75-10.24 2.14-12.13a28.47 28.47 0 0 1 4-9.69c.24-.377 6.736-6.322 8.46-6.98a16 16 0 0 1 8.69-.68c3.672.968 5.695 1.451 6.07 1.45a5.39 5.39 0 0 0 2.58-.68 10.21 10.21 0 0 0 2.89-2.3 13.27 13.27 0 0 0 1.46-2.34c.465-.839.85-1.72 1.15-2.63.18-.533 1.04-3.83 1.26-5.18.167-.85 1.113-6.674 1.13-6.87 0-.51 1.23-1.52 1.62-1.35Zm-151.78 79.58c.18 0 .6.29.57.43.007.036.19 1.446.55 4.23 0 .35-.14.47-.68.59h-.006l-.036.006c-.51.07-5.673.787-15.488 2.154-.61.09-.61-.33-.66-.36-.032-.016-.33-4.73-.38-4.63-.05.1.053-.28.08-.35.11-.22.15-.25.51-.33.03 0 1.17-.125 2.822-.308l.603-.067 3.812-.426.735-.082c3.801-.425 7.538-.847 7.568-.857Zm181.95-51.78c.5-.031 6.96 2.14 6.97 2.21.496.28 7.28 4.49 7.42 4.43.093-.04 2.607 2.107 7.54 6.44.391.351 1.862 1.568 3.397 2.821l.462.377c1.77 1.44 3.49 2.821 3.621 2.882.16.049 7.973 4.516 8.12 4.56.35.08.88 1.41.71 1.77-.056.158-1.104 6.435-1.08 6.59.016.166-1.45 5.96-1.53 6.12-.44 1-1.14 1.11-3.31.62-.148-.046-1.48-.545-2.854-1.072l-.485-.187a87.927 87.927 0 0 1-2.471-.981l-5.81-3.39c-.7-.57-7.31-5.69-7.88-6.24-1.45-1.33-4.57-4-5.29-4.54-.43-.32-5.09-3.16-5.17-3.15-.19.057-5.9-3.13-6.04-3.15-.53-.12-1.1-.87-1-1.24.022-.051.295-1.41.58-2.885l.159-.835c.28-1.477.527-2.848.501-2.92-.028-.102.13-1.029.322-2.005l.09-.451c.199-.973.406-1.876.468-1.934.1-.08 1.38-3.22 1.66-3.42a1.79 1.79 0 0 1 .9-.42ZM397.78 77.31l3.892 1.796.532.245c1.856.856 3.597 1.658 3.626 1.669.16.07.35.56.25.67l-1.63 3.96c-.19.29-.38.32-.89.13-.05 0-2.205-.837-4.364-1.709l-.562-.227c-1.958-.795-3.768-1.56-3.83-1.684-.08-.16 2.286-4.8 2.376-4.85.09-.05.26-.14.6 0Zm29.08-12.22c.58.047.877.07.89.07.005 0 .085.032.24.097l.18.076 1.43.607c1.015.89 1.618 1.443 1.81 1.66.362.396.696.817 1 1.26.17.28.893 1.642.99 1.93.071.248.211 1.913.21 1.97 0 .14-.34.44-.48.41h-.06c-.299.001-1.709.018-4.23.05-.35 0-.45 0-.48-.15-.015-.009-.32-1.18-.32-1.18-.095-.104-.56-.749-.76-.91-.693-.28-1.07-.397-1.13-.35-.07 0-.15-.23-.13-.36.01-.04.096-4.351.1-4.43.005-.07.207-.513.25-.57.14-.19.19-.22.49-.18Z" fill="#000"/></g></svg>