<svg width="1200" height="1200" viewBox="0 0 1200 1200" fill="none" xmlns="http://www.w3.org/2000/svg">
<path opacity="0.984" fill-rule="evenodd" clip-rule="evenodd" d="M803.298 584.8C800.929 581.136 797.86 578.066 794.091 575.593C793.916 572.189 792.894 569.12 791.022 566.385C825.362 559.725 858.101 548.471 889.235 532.624C822.573 513.147 756.073 493.198 689.739 472.776C676.683 468.743 663.384 466.186 649.84 465.103C639.546 459.707 628.291 456.638 616.079 455.895C612.111 453.876 607.507 452.851 602.268 452.826C584.439 455.714 566.537 457.758 548.557 458.964C488.868 469.792 429.532 482.582 370.546 497.329C364.957 504.867 362.91 513.562 364.408 523.417C354.153 521.867 343.924 521.354 333.716 521.882C369.714 538.112 405.522 553.97 441.137 569.454C451.814 575.295 463.069 580.411 474.898 584.8C506.774 597.632 538.491 610.934 570.042 624.699C584.105 631.909 598.428 632.421 613.01 626.234C662.215 609.2 711.834 593.342 761.865 578.662C766.088 578.097 768.644 576.05 769.537 572.524C777.345 576.231 781.44 582.369 781.814 590.939C765.919 594.192 750.573 599.305 735.777 606.284C739.226 624.54 739.736 642.955 737.311 661.529C736.676 670.501 732.072 676.126 723.5 678.41C675.403 688.366 626.806 695.014 577.715 698.359C542.741 696.877 508.468 691.251 474.898 681.479C464.379 675.967 454.659 669.316 445.74 661.529C439.375 637.848 439.884 614.319 447.275 590.939C400.602 569.138 353.543 548.167 306.093 528.021C300.023 520.357 298.488 511.659 301.49 501.933C303.792 500.011 306.351 498.477 309.163 497.329C397.149 480.958 485.133 464.59 573.111 448.222C589.457 445.607 605.828 444.582 622.217 445.153C713.544 470.87 804.593 497.47 895.373 524.951C902.435 534.653 901.413 543.861 892.304 552.574C861.747 561.898 832.078 572.64 803.298 584.8Z" fill="#0A0C14"/>
<path fill-rule="evenodd" clip-rule="evenodd" d="M695.878 544.901C712.497 547.031 727.843 552.144 741.915 560.247C725.483 557.62 710.137 552.504 695.878 544.901Z" fill="#5F4D1A"/>
<path fill-rule="evenodd" clip-rule="evenodd" d="M720.43 538.762C732.391 543.09 744.667 546.159 757.26 547.97C757.26 548.992 757.26 550.017 757.26 551.039C759.074 553.037 761.118 555.084 763.399 557.177C756.514 560.167 749.354 561.192 741.914 560.247C727.842 552.144 712.496 547.031 695.877 544.901C686.89 544.701 678.705 542.654 671.324 538.762C668.761 534.334 664.67 531.264 659.047 529.555C662.629 528.533 666.207 527.508 669.789 526.486C685.865 533.189 702.746 537.28 720.43 538.762Z" fill="#BA940F"/>
<path fill-rule="evenodd" clip-rule="evenodd" d="M720.43 538.762C720.43 537.74 720.43 536.715 720.43 535.693C733.526 538.013 745.802 542.104 757.26 547.969C744.667 546.158 732.39 543.089 720.43 538.762Z" fill="#4F442D"/>
<path fill-rule="evenodd" clip-rule="evenodd" d="M613.012 508.071C649.057 516.68 684.862 525.887 720.433 535.693C720.433 536.715 720.433 537.741 720.433 538.763C702.749 537.28 685.868 533.189 669.792 526.486C666.21 527.508 662.632 528.533 659.05 529.555C664.673 531.265 668.764 534.334 671.327 538.763C653.878 535.681 636.485 532.099 619.151 528.02C613.844 522.53 611.797 515.879 613.012 508.071Z" fill="#99760C"/>
<path fill-rule="evenodd" clip-rule="evenodd" d="M548.559 458.963C532.458 465.789 515.578 470.906 497.918 474.309C496.383 507.03 495.871 539.768 496.383 572.523C489.149 573.023 481.989 572.513 474.899 570.988C457.31 562.152 438.895 557.036 419.654 555.642C427.901 558.862 435.061 563.466 441.138 569.453C405.523 553.97 369.716 538.111 333.717 521.881C343.925 521.353 354.155 521.866 364.409 523.416C362.911 513.561 364.958 504.866 370.547 497.328C429.534 482.581 488.87 469.791 548.559 458.963Z" fill="#111320"/>
<path fill-rule="evenodd" clip-rule="evenodd" d="M649.839 465.102C663.383 466.185 676.682 468.742 689.738 472.775C756.072 493.197 822.572 513.147 889.234 532.623C858.101 548.47 825.362 559.724 791.021 566.384C780.939 558.788 769.684 553.672 757.26 551.038C757.26 550.016 757.26 548.991 757.26 547.969C745.803 542.104 733.526 538.013 720.43 535.693C720.952 531.635 719.93 528.053 717.361 524.951C690.082 518.984 665.529 507.22 643.701 489.655C640.736 483.836 639.714 477.698 640.632 471.24C634.297 470.666 628.159 469.132 622.217 466.636C618.5 463.896 618.5 461.339 622.217 458.963C631.114 462.468 640.322 464.513 649.839 465.102Z" fill="#282E4D"/>
<path fill-rule="evenodd" clip-rule="evenodd" d="M616.079 455.895C628.291 456.638 639.546 459.707 649.84 465.102C640.322 464.513 631.115 462.469 622.217 458.964C618.501 461.34 618.501 463.896 622.217 466.637C628.159 469.132 634.298 470.667 640.632 471.241C639.715 477.698 640.737 483.837 643.702 489.656C665.529 507.221 690.083 518.985 717.362 524.951C719.93 528.054 720.952 531.636 720.431 535.693C684.859 525.887 649.054 516.68 613.01 508.071C611.994 522.336 604.831 526.427 591.526 520.347C590.031 517.444 589.009 514.375 588.457 511.14C593.413 506.591 596.482 500.963 597.664 494.259C591.759 480.286 593.806 468.009 603.802 457.429C607.771 455.926 611.865 455.413 616.079 455.895Z" fill="#23263F"/>
<path fill-rule="evenodd" clip-rule="evenodd" d="M616.077 455.895C611.864 455.413 607.769 455.926 603.801 457.43C593.805 468.009 591.757 480.286 597.663 494.26C596.481 500.963 593.412 506.591 588.455 511.14C589.007 514.375 590.029 517.444 591.524 520.347C604.829 526.427 611.992 522.336 613.008 508.071C611.793 515.879 613.84 522.53 619.147 528.02C636.481 532.099 653.874 535.681 671.322 538.762C678.704 542.654 686.889 544.701 695.876 544.901C710.135 552.503 725.481 557.619 741.913 560.247C748.052 563.316 754.19 566.385 760.328 569.454C745.52 573.042 731.199 577.133 717.36 581.731C692.064 587.326 666.489 592.952 640.631 598.611C615.2 603.074 589.624 604.096 563.902 601.68C535.671 589.882 506.514 581.188 476.43 575.592C473.874 576.105 471.314 576.614 468.758 577.127C472.612 578.407 474.66 580.963 474.896 584.8C463.067 580.411 451.813 575.295 441.135 569.454C435.058 563.466 427.898 558.862 419.651 555.643C438.891 557.036 457.306 562.153 474.896 570.989C481.986 572.514 489.146 573.024 496.38 572.523C495.867 539.769 496.38 507.03 497.915 474.31C515.575 470.906 532.455 465.79 548.556 458.964C566.535 457.758 584.437 455.714 602.266 452.826C607.505 452.85 612.109 453.875 616.077 455.895Z" fill="#171A2C"/>
<path fill-rule="evenodd" clip-rule="evenodd" d="M760.329 569.454C763.733 569.629 766.802 570.651 769.537 572.523C768.644 576.049 766.087 578.097 761.864 578.661C711.833 593.341 662.214 609.199 613.009 626.233C598.428 632.421 584.104 631.908 570.041 624.699C565.71 618.441 559.572 615.372 551.626 615.491C551.626 612.422 551.626 609.353 551.626 606.284C565.296 608.721 579.107 610.768 593.06 612.422C635.675 605.854 677.109 595.625 717.361 581.73C731.2 577.133 745.521 573.042 760.329 569.454Z" fill="#3E4777"/>
<path fill-rule="evenodd" clip-rule="evenodd" d="M717.362 581.731C677.11 595.625 635.676 605.855 593.061 612.423C579.109 610.768 565.297 608.721 551.627 606.284C551.627 609.353 551.627 612.423 551.627 615.492C559.573 615.372 565.712 618.441 570.042 624.699C538.491 610.934 506.774 597.632 474.898 584.8C474.662 580.964 472.615 578.407 468.76 577.127C471.316 576.615 473.876 576.105 476.433 575.593C506.517 581.188 535.674 589.883 563.904 601.681C589.627 604.096 615.202 603.074 640.633 598.611C666.491 592.952 692.066 587.326 717.362 581.731Z" fill="#272D4C"/>
<path fill-rule="evenodd" clip-rule="evenodd" d="M582.32 615.491C590.475 614.454 597.635 616.501 603.804 621.63C596.92 624.619 589.759 625.644 582.32 624.699C582.32 621.63 582.32 618.56 582.32 615.491Z" fill="#7B8BB0"/>
<path opacity="0.276" fill-rule="evenodd" clip-rule="evenodd" d="M781.814 594.008C786.206 595.177 788.763 598.247 789.487 603.215C792.019 636.488 791.509 669.227 787.952 701.429C789.051 665.385 787.007 629.577 781.814 594.008Z" fill="#654E03"/>
<path opacity="0.265" fill-rule="evenodd" clip-rule="evenodd" d="M803.299 590.938C805.193 591.279 806.727 592.301 807.903 594.007C810.702 609.243 812.236 624.589 812.506 640.045C810.29 638.762 808.756 636.718 807.903 633.907C806.567 619.531 805.033 605.207 803.299 590.938Z" fill="#372C02"/>
<path fill-rule="evenodd" clip-rule="evenodd" d="M502.519 612.422C525.356 617.701 546.84 626.396 566.971 638.51C574.365 641.38 582.038 642.914 589.99 643.114C614.095 636.96 638.136 630.309 662.115 623.164C667.514 620.715 672.63 621.228 677.461 624.699C673.149 648.19 660.872 666.093 640.631 678.409C610.961 680.456 581.295 680.456 551.625 678.409C529.365 674.585 514.531 661.796 507.122 640.045C505.582 630.797 504.047 621.59 502.519 612.422Z" fill="#171A2D"/>
<path fill-rule="evenodd" clip-rule="evenodd" d="M757.262 551.039C769.686 553.673 780.94 558.789 791.023 566.385C792.895 569.12 793.917 572.189 794.092 575.593C803.373 619.095 808.489 663.085 809.438 707.567C810.46 707.567 811.485 707.567 812.507 707.567C815.914 715.755 815.914 724.45 812.507 733.655C818.173 744.701 819.707 756.465 817.111 768.95C815.954 773.376 813.397 776.445 809.438 778.158C811.006 770.399 813.053 762.726 815.576 755.139C812.194 739.204 802.986 734.6 787.954 741.328C784.485 744.771 782.438 748.866 781.815 753.604C779.82 754.537 777.773 755.559 775.677 756.674C772.641 767.744 771.616 778.999 772.608 790.434C768.431 777.363 765.361 764.061 763.4 750.535C763.4 748.488 763.4 746.444 763.4 744.397C770.364 738.489 777.528 732.35 784.884 725.982C783.562 723.548 782.536 720.988 781.815 718.309C784.332 712.785 786.376 707.156 787.954 701.429C791.511 669.227 792.02 636.488 789.488 603.215C788.764 598.246 786.207 595.177 781.815 594.008C781.815 592.986 781.815 591.961 781.815 590.939C781.441 582.369 777.346 576.231 769.539 572.524C766.804 570.651 763.735 569.629 760.331 569.454C754.193 566.385 748.054 563.316 741.916 560.247C749.356 561.192 756.516 560.167 763.4 557.178C761.12 555.085 759.076 553.037 757.262 551.039Z" fill="#AB8505"/>
<path opacity="0.071" fill-rule="evenodd" clip-rule="evenodd" d="M794.092 575.592C797.861 578.066 800.93 581.135 803.299 584.799C803.299 586.847 803.299 588.891 803.299 590.938C805.033 605.206 806.568 619.53 807.903 633.906C808.756 636.717 810.291 638.762 812.507 640.044C812.507 660.507 812.507 680.966 812.507 701.428C812.507 703.475 812.507 705.519 812.507 707.566C811.485 707.566 810.46 707.566 809.438 707.566C808.489 663.085 803.373 619.094 794.092 575.592Z" fill="#7B5E00"/>
<path opacity="0.251" fill-rule="evenodd" clip-rule="evenodd" d="M787.952 701.429C786.374 707.156 784.33 712.784 781.813 718.309C782.535 720.988 783.56 723.548 784.883 725.982C777.526 732.35 770.362 738.489 763.398 744.397C765.774 735.726 770.89 729.076 778.744 724.447C775.387 714.276 778.456 706.603 787.952 701.429Z" fill="#5D4805"/>
<path fill-rule="evenodd" clip-rule="evenodd" d="M809.436 707.566C812.508 724.95 805.345 732.113 787.952 729.05C784.889 711.657 792.052 704.494 809.436 707.566Z" fill="#D5B120"/>
<path fill-rule="evenodd" clip-rule="evenodd" d="M809.437 778.157C808.433 784.259 807.411 790.397 806.368 796.572C806.171 802.885 808.215 807.999 812.506 811.918C810.115 819.367 806.533 819.367 801.764 811.918C799.269 805.976 797.734 799.838 797.16 793.503C797.16 786.343 797.16 779.179 797.16 772.019C789.334 772.206 784.73 776.297 783.349 784.295C781.82 774.115 781.308 763.886 781.814 753.604C782.437 748.865 784.484 744.771 787.953 741.327C802.985 734.6 812.193 739.203 815.575 755.138C813.052 762.725 811.005 770.398 809.437 778.157Z" fill="#E5CD22"/>
<path opacity="0.561" fill-rule="evenodd" clip-rule="evenodd" d="M812.506 701.429C820.821 709.037 822.868 718.244 818.645 729.051C828.533 752.567 825.464 774.051 809.437 793.504C811.368 800.382 814.437 806.52 818.645 811.919C816.597 811.919 814.553 811.919 812.506 811.919C808.216 807.999 806.171 802.886 806.368 796.573C807.411 790.398 808.433 784.259 809.437 778.158C813.396 776.445 815.953 773.376 817.11 768.95C819.706 756.465 818.172 744.701 812.506 733.655C815.913 724.45 815.913 715.755 812.506 707.567C812.506 705.52 812.506 703.476 812.506 701.429Z" fill="#574208"/>
<path fill-rule="evenodd" clip-rule="evenodd" d="M781.814 753.603C781.308 763.885 781.82 774.115 783.349 784.295C784.73 776.297 789.334 772.206 797.16 772.018C797.16 779.179 797.16 786.342 797.16 793.502C794.944 792.22 793.41 790.176 792.556 787.364C791.157 796.793 791.157 806 792.556 814.987C790.497 812.679 787.94 811.654 784.883 811.917C779.924 805.049 775.833 797.888 772.607 790.433C771.615 778.998 772.641 767.743 775.676 756.672C777.772 755.558 779.819 754.536 781.814 753.603Z" fill="#DCB726"/>
<path opacity="0.384" fill-rule="evenodd" clip-rule="evenodd" d="M763.399 750.535C765.36 764.061 768.429 777.362 772.606 790.434C775.832 797.889 779.923 805.049 784.883 811.918C785.224 813.812 786.246 815.346 787.952 816.522C798.992 820.441 810.247 821.463 821.713 819.591C819.405 817.532 818.38 814.975 818.644 811.918C821.713 811.918 824.782 811.918 827.851 811.918C828.508 816.964 827.483 821.568 824.782 825.729C782.735 827.687 761.25 807.228 760.33 764.346C760.354 759.107 761.379 754.503 763.399 750.535Z" fill="#523F07"/>
<path fill-rule="evenodd" clip-rule="evenodd" d="M797.161 793.503C797.735 799.838 799.269 805.976 801.765 811.918C806.534 819.367 810.116 819.367 812.507 811.918C814.554 811.918 816.598 811.918 818.645 811.918C818.381 814.975 819.406 817.532 821.714 819.591C810.248 821.463 798.993 820.441 787.953 816.522C786.247 815.347 785.225 813.812 784.884 811.918C787.941 811.654 790.498 812.68 792.557 814.988C791.158 806.001 791.158 796.794 792.557 787.365C793.41 790.176 794.945 792.22 797.161 793.503Z" fill="#A2810D"/>
<path d="M587.94 68.5714V137.444L560.201 139.248C468.241 145.865 375.075 184.662 297.889 248.722C208.643 322.707 145.628 443.609 136.884 557.594L134.774 583.459H0V613.534H134.774L136.884 642.707C144.724 757.895 207.437 879.398 297.889 954.286C331.055 981.955 358.492 999.699 396.482 1018.05C451.055 1044.81 505.025 1059.85 560.201 1063.76L587.94 1065.56V1200H618.09V1065.56L644.623 1063.46C735.678 1056.84 828.543 1018.05 905.126 954.286C995.578 879.398 1058.29 757.895 1066.13 642.707L1068.24 613.534H1200V583.459H1068.24L1066.43 558.496C1062.51 504.662 1045.03 445.113 1016.98 390.075C970.553 299.549 899.698 230.376 806.533 184.962C752.563 158.496 698.894 143.459 644.623 139.549L618.09 137.444V0H587.94V68.5714ZM587.94 230.075V294.737H618.09V164.511L641.608 166.316C789.045 177.744 927.136 271.579 995.578 406.917C1018.79 453.233 1040.2 531.729 1040.2 570.526V583.459H907.538V613.534H1040.2V629.474C1040.2 671.278 1019.4 748.271 995.578 796.09C945.829 894.737 855.377 975.338 753.769 1011.73C720 1024.06 674.774 1034.29 644.623 1036.39L618.09 1038.5V905.263H587.94V1038.5L560.201 1036.39C513.467 1033.08 462.513 1019.25 413.367 996.391C327.437 956.692 251.156 882.406 207.437 796.09C183.618 748.271 162.814 671.278 162.814 629.474V613.534H295.477V583.459H162.814V570.526C162.814 531.729 184.221 453.233 207.437 406.917C253.568 316.09 331.055 242.105 422.714 202.105C470.653 181.353 530.653 166.316 570.754 165.714L587.94 165.414V230.075Z" fill="white"/>
</svg>
