<?xml version="1.0" encoding="UTF-8"?>
<!DOCTYPE svg PUBLIC "-//W3C//DTD SVG 1.1//EN" "http://www.w3.org/Graphics/SVG/1.1/DTD/svg11.dtd">
<svg xmlns="http://www.w3.org/2000/svg" version="1.1" width="400px" height="400px" style="shape-rendering:geometricPrecision; text-rendering:geometricPrecision; image-rendering:optimizeQuality; fill-rule:evenodd; clip-rule:evenodd" xmlns:xlink="http://www.w3.org/1999/xlink">
<g><path style="opacity:1" fill="#eeeeee" d="M 205.5,399.5 C 202.167,399.5 198.833,399.5 195.5,399.5C 195.5,384.833 195.5,370.167 195.5,355.5C 134.316,351.773 89.1492,323.107 60,269.5C 49.9569,248.994 44.7902,227.328 44.5,204.5C 29.8333,204.5 15.1667,204.5 0.5,204.5C 0.5,201.167 0.5,197.833 0.5,194.5C 15.1667,194.5 29.8333,194.5 44.5,194.5C 49.3076,130.035 80.9743,84.2016 139.5,57C 157.419,49.5162 176.086,45.6828 195.5,45.5C 195.5,30.5 195.5,15.5 195.5,0.5C 198.833,0.5 202.167,0.5 205.5,0.5C 205.5,15.5 205.5,30.5 205.5,45.5C 266.228,49.5981 311.062,78.2648 340,131.5C 349.721,151.384 354.888,172.384 355.5,194.5C 369.833,194.5 384.167,194.5 398.5,194.5C 398.5,197.833 398.5,201.167 398.5,204.5C 384.167,204.5 369.833,204.5 355.5,204.5C 351.288,269.773 319.621,316.273 260.5,344C 242.9,351.353 224.567,355.187 205.5,355.5C 205.5,370.167 205.5,384.833 205.5,399.5 Z M 183.5,56.5 C 187.5,56.5 191.5,56.5 195.5,56.5C 195.5,70.5 195.5,84.5 195.5,98.5C 198.833,98.5 202.167,98.5 205.5,98.5C 205.5,84.5 205.5,70.5 205.5,56.5C 263.683,60.657 305.85,88.657 332,140.5C 339.927,157.635 344.093,175.635 344.5,194.5C 330.167,194.5 315.833,194.5 301.5,194.5C 301.5,197.833 301.5,201.167 301.5,204.5C 315.833,204.5 330.167,204.5 344.5,204.5C 341.081,263.381 313.081,305.881 260.5,332C 242.987,339.795 224.653,343.962 205.5,344.5C 205.5,330.167 205.5,315.833 205.5,301.5C 202.167,301.5 198.833,301.5 195.5,301.5C 195.5,315.833 195.5,330.167 195.5,344.5C 135.901,340.634 93.0674,311.967 67,258.5C 59.5204,241.268 55.6871,223.268 55.5,204.5C 69.8333,204.5 84.1667,204.5 98.5,204.5C 98.5,201.167 98.5,197.833 98.5,194.5C 84.1667,194.5 69.8333,194.5 55.5,194.5C 58.0394,149.249 77.0394,112.749 112.5,85C 133.889,69.7063 157.556,60.2063 183.5,56.5 Z"/></g>
<g><path style="opacity:0.984" fill="#0a0c14" d="M 265.5,200.5 C 264.728,199.306 263.728,198.306 262.5,197.5C 262.443,196.391 262.11,195.391 261.5,194.5C 272.689,192.33 283.356,188.663 293.5,183.5C 271.78,177.154 250.113,170.654 228.5,164C 224.246,162.686 219.913,161.853 215.5,161.5C 212.146,159.742 208.479,158.742 204.5,158.5C 203.207,157.842 201.707,157.508 200,157.5C 194.191,158.441 188.358,159.107 182.5,159.5C 163.052,163.028 143.719,167.195 124.5,172C 122.679,174.456 122.012,177.289 122.5,180.5C 119.159,179.995 115.826,179.828 112.5,180C 124.229,185.288 135.896,190.455 147.5,195.5C 150.979,197.403 154.646,199.07 158.5,200.5C 168.886,204.681 179.22,209.015 189.5,213.5C 194.082,215.849 198.749,216.016 203.5,214C 219.532,208.45 235.699,203.283 252,198.5C 253.376,198.316 254.209,197.649 254.5,196.5C 257.044,197.708 258.378,199.708 258.5,202.5C 253.321,203.56 248.321,205.226 243.5,207.5C 244.624,213.448 244.79,219.448 244,225.5C 243.793,228.423 242.293,230.256 239.5,231C 223.829,234.244 207.995,236.41 192,237.5C 180.605,237.017 169.438,235.184 158.5,232C 155.073,230.204 151.906,228.037 149,225.5C 146.926,217.784 147.092,210.118 149.5,202.5C 134.293,195.397 118.96,188.564 103.5,182C 101.522,179.503 101.022,176.669 102,173.5C 102.75,172.874 103.584,172.374 104.5,172C 133.168,166.666 161.835,161.333 190.5,156C 195.826,155.148 201.16,154.814 206.5,155C 236.256,163.379 265.922,172.046 295.5,181C 297.801,184.161 297.468,187.161 294.5,190C 284.544,193.038 274.877,196.538 265.5,200.5 Z"/></g>
<g><path style="opacity:1" fill="#5f4d1a" d="M 230.5,187.5 C 235.915,188.194 240.915,189.86 245.5,192.5C 240.146,191.644 235.146,189.977 230.5,187.5 Z"/></g>
<g><path style="opacity:1" fill="#ba940f" d="M 238.5,185.5 C 242.397,186.91 246.397,187.91 250.5,188.5C 250.5,188.833 250.5,189.167 250.5,189.5C 251.091,190.151 251.757,190.818 252.5,191.5C 250.257,192.474 247.924,192.808 245.5,192.5C 240.915,189.86 235.915,188.194 230.5,187.5C 227.572,187.435 224.905,186.768 222.5,185.5C 221.665,184.057 220.332,183.057 218.5,182.5C 219.667,182.167 220.833,181.833 222,181.5C 227.238,183.684 232.738,185.017 238.5,185.5 Z"/></g>
<g><path style="opacity:1" fill="#4f442d" d="M 238.5,185.5 C 238.5,185.167 238.5,184.833 238.5,184.5C 242.767,185.256 246.767,186.589 250.5,188.5C 246.397,187.91 242.397,186.91 238.5,185.5 Z"/></g>
<g><path style="opacity:1" fill="#99760c" d="M 203.5,175.5 C 215.244,178.305 226.91,181.305 238.5,184.5C 238.5,184.833 238.5,185.167 238.5,185.5C 232.738,185.017 227.238,183.684 222,181.5C 220.833,181.833 219.667,182.167 218.5,182.5C 220.332,183.057 221.665,184.057 222.5,185.5C 216.815,184.496 211.148,183.329 205.5,182C 203.771,180.211 203.104,178.044 203.5,175.5 Z"/></g>
<g><path style="opacity:1" fill="#111320" d="M 182.5,159.5 C 177.254,161.724 171.754,163.391 166,164.5C 165.5,175.161 165.333,185.828 165.5,196.5C 163.143,196.663 160.81,196.497 158.5,196C 152.769,193.121 146.769,191.454 140.5,191C 143.187,192.049 145.52,193.549 147.5,195.5C 135.896,190.455 124.229,185.288 112.5,180C 115.826,179.828 119.159,179.995 122.5,180.5C 122.012,177.289 122.679,174.456 124.5,172C 143.719,167.195 163.052,163.028 182.5,159.5 Z"/></g>
<g><path style="opacity:1" fill="#282e4d" d="M 215.5,161.5 C 219.913,161.853 224.246,162.686 228.5,164C 250.113,170.654 271.78,177.154 293.5,183.5C 283.356,188.663 272.689,192.33 261.5,194.5C 258.215,192.025 254.548,190.358 250.5,189.5C 250.5,189.167 250.5,188.833 250.5,188.5C 246.767,186.589 242.767,185.256 238.5,184.5C 238.67,183.178 238.337,182.011 237.5,181C 228.612,179.056 220.612,175.223 213.5,169.5C 212.534,167.604 212.201,165.604 212.5,163.5C 210.436,163.313 208.436,162.813 206.5,162C 205.289,161.107 205.289,160.274 206.5,159.5C 209.399,160.642 212.399,161.308 215.5,161.5 Z"/></g>
<g><path style="opacity:1" fill="#23263f" d="M 204.5,158.5 C 208.479,158.742 212.146,159.742 215.5,161.5C 212.399,161.308 209.399,160.642 206.5,159.5C 205.289,160.274 205.289,161.107 206.5,162C 208.436,162.813 210.436,163.313 212.5,163.5C 212.201,165.604 212.534,167.604 213.5,169.5C 220.612,175.223 228.612,179.056 237.5,181C 238.337,182.011 238.67,183.178 238.5,184.5C 226.91,181.305 215.244,178.305 203.5,175.5C 203.169,180.148 200.835,181.481 196.5,179.5C 196.013,178.554 195.68,177.554 195.5,176.5C 197.115,175.018 198.115,173.184 198.5,171C 196.576,166.447 197.243,162.447 200.5,159C 201.793,158.51 203.127,158.343 204.5,158.5 Z"/></g>
<g><path style="opacity:1" fill="#171a2c" d="M 204.5,158.5 C 203.127,158.343 201.793,158.51 200.5,159C 197.243,162.447 196.576,166.447 198.5,171C 198.115,173.184 197.115,175.018 195.5,176.5C 195.68,177.554 196.013,178.554 196.5,179.5C 200.835,181.481 203.169,180.148 203.5,175.5C 203.104,178.044 203.771,180.211 205.5,182C 211.148,183.329 216.815,184.496 222.5,185.5C 224.905,186.768 227.572,187.435 230.5,187.5C 235.146,189.977 240.146,191.644 245.5,192.5C 247.5,193.5 249.5,194.5 251.5,195.5C 246.675,196.669 242.009,198.002 237.5,199.5C 229.258,201.323 220.925,203.156 212.5,205C 204.214,206.454 195.881,206.787 187.5,206C 178.302,202.156 168.802,199.323 159,197.5C 158.167,197.667 157.333,197.833 156.5,198C 157.756,198.417 158.423,199.25 158.5,200.5C 154.646,199.07 150.979,197.403 147.5,195.5C 145.52,193.549 143.187,192.049 140.5,191C 146.769,191.454 152.769,193.121 158.5,196C 160.81,196.497 163.143,196.663 165.5,196.5C 165.333,185.828 165.5,175.161 166,164.5C 171.754,163.391 177.254,161.724 182.5,159.5C 188.358,159.107 194.191,158.441 200,157.5C 201.707,157.508 203.207,157.842 204.5,158.5 Z"/></g>
<g><path style="opacity:1" fill="#3e4777" d="M 251.5,195.5 C 252.609,195.557 253.609,195.89 254.5,196.5C 254.209,197.649 253.376,198.316 252,198.5C 235.699,203.283 219.532,208.45 203.5,214C 198.749,216.016 194.082,215.849 189.5,213.5C 188.089,211.461 186.089,210.461 183.5,210.5C 183.5,209.5 183.5,208.5 183.5,207.5C 187.954,208.294 192.454,208.961 197,209.5C 210.885,207.36 224.385,204.027 237.5,199.5C 242.009,198.002 246.675,196.669 251.5,195.5 Z"/></g>
<g><path style="opacity:1" fill="#272d4c" d="M 237.5,199.5 C 224.385,204.027 210.885,207.36 197,209.5C 192.454,208.961 187.954,208.294 183.5,207.5C 183.5,208.5 183.5,209.5 183.5,210.5C 186.089,210.461 188.089,211.461 189.5,213.5C 179.22,209.015 168.886,204.681 158.5,200.5C 158.423,199.25 157.756,198.417 156.5,198C 157.333,197.833 158.167,197.667 159,197.5C 168.802,199.323 178.302,202.156 187.5,206C 195.881,206.787 204.214,206.454 212.5,205C 220.925,203.156 229.258,201.323 237.5,199.5 Z"/></g>
<g><path style="opacity:1" fill="#7b8bb0" d="M 193.5,210.5 C 196.157,210.162 198.49,210.829 200.5,212.5C 198.257,213.474 195.924,213.808 193.5,213.5C 193.5,212.5 193.5,211.5 193.5,210.5 Z"/></g>
<g><path style="opacity:0.276" fill="#654e03" d="M 258.5,203.5 C 259.931,203.881 260.764,204.881 261,206.5C 261.825,217.341 261.659,228.008 260.5,238.5C 260.858,226.756 260.192,215.089 258.5,203.5 Z"/></g>
<g><path style="opacity:0.265" fill="#372c02" d="M 265.5,202.5 C 266.117,202.611 266.617,202.944 267,203.5C 267.912,208.464 268.412,213.464 268.5,218.5C 267.778,218.082 267.278,217.416 267,216.5C 266.565,211.816 266.065,207.149 265.5,202.5 Z"/></g>
<g><path style="opacity:1" fill="#171a2d" d="M 167.5,209.5 C 174.941,211.22 181.941,214.053 188.5,218C 190.909,218.935 193.409,219.435 196,219.5C 203.854,217.495 211.687,215.328 219.5,213C 221.259,212.202 222.926,212.369 224.5,213.5C 223.095,221.154 219.095,226.987 212.5,231C 202.833,231.667 193.167,231.667 183.5,231C 176.247,229.754 171.414,225.587 169,218.5C 168.498,215.487 167.998,212.487 167.5,209.5 Z"/></g>
<g><path style="opacity:1" fill="#ab8505" d="M 250.5,189.5 C 254.548,190.358 258.215,192.025 261.5,194.5C 262.11,195.391 262.443,196.391 262.5,197.5C 265.524,211.674 267.191,226.007 267.5,240.5C 267.833,240.5 268.167,240.5 268.5,240.5C 269.61,243.168 269.61,246.001 268.5,249C 270.346,252.599 270.846,256.432 270,260.5C 269.623,261.942 268.79,262.942 267.5,263.5C 268.011,260.972 268.678,258.472 269.5,256C 268.398,250.808 265.398,249.308 260.5,251.5C 259.37,252.622 258.703,253.956 258.5,255.5C 257.85,255.804 257.183,256.137 256.5,256.5C 255.511,260.107 255.177,263.774 255.5,267.5C 254.139,263.241 253.139,258.907 252.5,254.5C 252.5,253.833 252.5,253.167 252.5,252.5C 254.769,250.575 257.103,248.575 259.5,246.5C 259.069,245.707 258.735,244.873 258.5,244C 259.32,242.2 259.986,240.366 260.5,238.5C 261.659,228.008 261.825,217.341 261,206.5C 260.764,204.881 259.931,203.881 258.5,203.5C 258.5,203.167 258.5,202.833 258.5,202.5C 258.378,199.708 257.044,197.708 254.5,196.5C 253.609,195.89 252.609,195.557 251.5,195.5C 249.5,194.5 247.5,193.5 245.5,192.5C 247.924,192.808 250.257,192.474 252.5,191.5C 251.757,190.818 251.091,190.151 250.5,189.5 Z"/></g>
<g><path style="opacity:0.071" fill="#7b5e00" d="M 262.5,197.5 C 263.728,198.306 264.728,199.306 265.5,200.5C 265.5,201.167 265.5,201.833 265.5,202.5C 266.065,207.149 266.565,211.816 267,216.5C 267.278,217.416 267.778,218.082 268.5,218.5C 268.5,225.167 268.5,231.833 268.5,238.5C 268.5,239.167 268.5,239.833 268.5,240.5C 268.167,240.5 267.833,240.5 267.5,240.5C 267.191,226.007 265.524,211.674 262.5,197.5 Z"/></g>
<g><path style="opacity:0.251" fill="#5d4805" d="M 260.5,238.5 C 259.986,240.366 259.32,242.2 258.5,244C 258.735,244.873 259.069,245.707 259.5,246.5C 257.103,248.575 254.769,250.575 252.5,252.5C 253.274,249.675 254.941,247.508 257.5,246C 256.406,242.686 257.406,240.186 260.5,238.5 Z"/></g>
<g><path style="opacity:1" fill="#d5b120" d="M 267.5,240.5 C 268.501,246.164 266.167,248.498 260.5,247.5C 259.502,241.833 261.836,239.499 267.5,240.5 Z"/></g>
<g><path style="opacity:1" fill="#e5cd22" d="M 267.5,263.5 C 267.173,265.488 266.84,267.488 266.5,269.5C 266.436,271.557 267.102,273.223 268.5,274.5C 267.721,276.927 266.554,276.927 265,274.5C 264.187,272.564 263.687,270.564 263.5,268.5C 263.5,266.167 263.5,263.833 263.5,261.5C 260.95,261.561 259.45,262.894 259,265.5C 258.502,262.183 258.335,258.85 258.5,255.5C 258.703,253.956 259.37,252.622 260.5,251.5C 265.398,249.308 268.398,250.808 269.5,256C 268.678,258.472 268.011,260.972 267.5,263.5 Z"/></g>
<g><path style="opacity:0.561" fill="#574208" d="M 268.5,238.5 C 271.209,240.979 271.876,243.979 270.5,247.5C 273.722,255.162 272.722,262.162 267.5,268.5C 268.129,270.741 269.129,272.741 270.5,274.5C 269.833,274.5 269.167,274.5 268.5,274.5C 267.102,273.223 266.436,271.557 266.5,269.5C 266.84,267.488 267.173,265.488 267.5,263.5C 268.79,262.942 269.623,261.942 270,260.5C 270.846,256.432 270.346,252.599 268.5,249C 269.61,246.001 269.61,243.168 268.5,240.5C 268.5,239.833 268.5,239.167 268.5,238.5 Z"/></g>
<g><path style="opacity:1" fill="#dcb726" d="M 258.5,255.5 C 258.335,258.85 258.502,262.183 259,265.5C 259.45,262.894 260.95,261.561 263.5,261.5C 263.5,263.833 263.5,266.167 263.5,268.5C 262.778,268.082 262.278,267.416 262,266.5C 261.544,269.572 261.544,272.572 262,275.5C 261.329,274.748 260.496,274.414 259.5,274.5C 257.884,272.262 256.551,269.929 255.5,267.5C 255.177,263.774 255.511,260.107 256.5,256.5C 257.183,256.137 257.85,255.804 258.5,255.5 Z"/></g>
<g><path style="opacity:0.384" fill="#523f07" d="M 252.5,254.5 C 253.139,258.907 254.139,263.241 255.5,267.5C 256.551,269.929 257.884,272.262 259.5,274.5C 259.611,275.117 259.944,275.617 260.5,276C 264.097,277.277 267.764,277.61 271.5,277C 270.748,276.329 270.414,275.496 270.5,274.5C 271.5,274.5 272.5,274.5 273.5,274.5C 273.714,276.144 273.38,277.644 272.5,279C 258.8,279.638 251.8,272.972 251.5,259C 251.508,257.293 251.842,255.793 252.5,254.5 Z"/></g>
<g><path style="opacity:1" fill="#a2810d" d="M 263.5,268.5 C 263.687,270.564 264.187,272.564 265,274.5C 266.554,276.927 267.721,276.927 268.5,274.5C 269.167,274.5 269.833,274.5 270.5,274.5C 270.414,275.496 270.748,276.329 271.5,277C 267.764,277.61 264.097,277.277 260.5,276C 259.944,275.617 259.611,275.117 259.5,274.5C 260.496,274.414 261.329,274.748 262,275.5C 261.544,272.572 261.544,269.572 262,266.5C 262.278,267.416 262.778,268.082 263.5,268.5 Z"/></g>
</svg>
