<svg width="1200" height="1200" viewBox="0 0 1200 1200" fill="none" xmlns="http://www.w3.org/2000/svg">
<path d="M572.64 706.676C514.053 656.813 463.49 601.473 430.333 532.586C421.077 513.355 415.653 491.4 412.955 470.125C409.859 445.723 421.777 433.198 445.782 436.047C468.021 438.686 490.863 444.464 511.067 453.925C535.656 465.438 557.615 482.497 581.018 496.651C590.354 502.297 590.897 508.647 584.899 516.575C573.882 531.137 563.099 545.908 551.4 559.909C545.935 566.451 545.171 571.311 549.813 578.72C568.217 608.097 591.881 631.854 621.375 650.144C628.984 654.863 633.723 653.68 640.135 648.335C653.751 636.985 668.103 626.516 682.188 615.73C690.29 609.526 697.325 608.329 703.299 618.946C720.899 650.224 740.357 680.574 755.961 712.801C762.686 726.69 763.258 744.252 763.813 760.243C764.378 776.541 756.129 784.052 739.99 786.529C714.595 790.427 690.621 783.085 669.716 770.951C636.52 751.683 605.455 728.744 572.64 706.676ZM689.191 756.84C691.983 757.999 694.982 760.457 697.524 760.052C703.263 759.137 708.776 756.806 714.38 755.051C710.816 749.889 708.38 742.769 703.471 739.942C690.456 732.45 676.629 726.141 662.573 720.815C657.869 719.033 651.5 721.647 645.891 722.252C648.37 727.84 649.336 735.668 653.63 738.57C663.955 745.547 675.841 750.215 689.191 756.84ZM727.389 749.437C727.2 754.283 725.783 759.609 727.401 763.749C728.09 765.514 735.743 766.214 739.075 764.756C741.667 763.621 742.466 758.392 744.062 754.982C739.206 752.718 734.35 750.454 727.389 749.437Z" fill="#9DDBDF"/>
<path d="M743.697 565.419C722.494 574.313 701.617 581.416 682.575 591.866C663.61 602.273 646.488 616.039 624.944 630.81C606.895 612.885 587.419 593.545 566.689 572.958C609.478 532.498 622.63 479.11 645.378 430.733C661.589 396.259 688.612 374.259 727.562 371.316C764.571 368.519 793.202 384.414 814.226 414.909C840.603 453.167 830.839 511.855 791.525 540.174C777.337 550.393 760.471 556.895 743.697 565.419ZM729.551 413.654C739.852 415.587 750.092 418.205 760.482 419.133C764.996 419.536 769.82 416.462 774.503 414.967C772.871 410.281 772.675 403.6 769.378 401.226C744.536 383.339 698.781 390.587 681.13 415.332C678.526 418.982 680.705 426.044 680.671 431.528C685.458 431.038 690.731 431.666 694.937 429.839C705.839 425.104 716.271 419.287 729.551 413.654ZM666.612 438.706C665.195 443.69 662.695 448.735 662.972 453.623C663.064 455.242 670.905 458.337 674.108 457.318C677.239 456.322 681.665 448.97 680.835 447.835C677.886 443.802 672.937 441.231 666.612 438.706Z" fill="#F59896"/>
<path d="M582.931 790.211C519.355 852.042 422.717 837.036 383.536 758.327C351.62 694.214 384.06 620.303 442.304 595.528C445.533 600.043 448.937 604.802 453.379 611.013C415.127 633.031 391.923 663.725 392.726 708.444C393.259 738.115 406.12 762.554 427.763 782.058C476.475 825.954 536.546 813.242 589.467 747.363C594.208 750.448 599.085 753.621 606.477 758.431C598.358 769.479 591.024 779.458 582.931 790.211Z" fill="#EF9930"/>
<path d="M587.94 68.5714V137.444L560.201 139.248C468.241 145.865 375.075 184.662 297.889 248.722C208.643 322.707 145.628 443.609 136.884 557.594L134.774 583.459H0V613.534H134.774L136.884 642.707C144.724 757.895 207.437 879.398 297.889 954.286C331.055 981.955 358.492 999.699 396.482 1018.05C451.055 1044.81 505.025 1059.85 560.201 1063.76L587.94 1065.56V1200H618.09V1065.56L644.623 1063.46C735.678 1056.84 828.543 1018.05 905.126 954.286C995.578 879.398 1058.29 757.895 1066.13 642.707L1068.24 613.534H1200V583.459H1068.24L1066.43 558.496C1062.51 504.662 1045.03 445.113 1016.98 390.075C970.553 299.549 899.698 230.376 806.533 184.962C752.563 158.496 698.894 143.459 644.623 139.549L618.09 137.444V0H587.94V68.5714ZM587.94 230.075V294.737H618.09V164.511L641.608 166.316C789.045 177.744 927.136 271.579 995.578 406.917C1018.79 453.233 1040.2 531.729 1040.2 570.526V583.459H907.538V613.534H1040.2V629.474C1040.2 671.278 1019.4 748.271 995.578 796.09C945.829 894.737 855.377 975.338 753.769 1011.73C720 1024.06 674.774 1034.29 644.623 1036.39L618.09 1038.5V905.263H587.94V1038.5L560.201 1036.39C513.467 1033.08 462.513 1019.25 413.367 996.391C327.437 956.692 251.156 882.406 207.437 796.09C183.618 748.271 162.814 671.278 162.814 629.474V613.534H295.477V583.459H162.814V570.526C162.814 531.729 184.221 453.233 207.437 406.917C253.568 316.09 331.055 242.105 422.714 202.105C470.653 181.353 530.653 166.316 570.754 165.714L587.94 165.414V230.075Z" fill="white"/>
</svg>
