<svg version="1.1" id="Layer_1" xmlns="http://www.w3.org/2000/svg" xmlns:xlink="http://www.w3.org/1999/xlink" x="0px" y="0px"
	 width="100%" viewBox="0 0 400 400" xml:space="preserve">
<path fill="#FBFBFB" opacity="1.000000" stroke="none" 
	d="
M401.000000,205.545898 
	C386.523102,206.000000 372.046173,206.000000 357.128479,206.000000 
	C355.185242,246.798203 340.634186,282.176056 311.805115,311.126556 
	C283.082520,339.970154 247.927841,354.707123 207.007385,357.055695 
	C207.007385,371.497284 207.007385,385.779999 207.003693,400.531342 
	C203.969406,401.000000 200.938812,401.000000 197.454102,401.000000 
	C197.000000,386.527466 197.000000,372.054901 197.000000,357.121948 
	C156.090210,355.034912 120.551003,340.454742 91.529869,311.462189 
	C62.597828,282.558624 47.907326,247.245895 45.891964,206.007919 
	C32.901382,206.007919 19.966442,206.034561 7.031881,205.976624 
	C5.275014,205.968765 3.520041,205.537552 1.382095,205.651184 
	C1.000000,202.969406 1.000000,199.938812 1.000000,196.454102 
	C15.811121,196.000000 30.622242,196.000000 45.942745,196.000000 
	C48.373302,155.475266 63.246201,120.402435 92.188141,91.872520 
	C121.038071,63.433315 156.151367,49.000797 196.992081,46.912891 
	C196.992081,33.573933 196.966064,20.303276 197.023331,7.032979 
	C197.030914,5.275778 197.462448,3.520408 197.348816,1.382095 
	C200.030594,1.000000 203.061188,1.000000 206.545898,1.000000 
	C207.000000,16.144100 207.000000,31.288200 207.000000,46.916740 
	C247.343277,49.184723 282.421265,63.689110 311.127808,92.185654 
	C339.750641,120.599106 354.588165,155.364548 357.014496,195.992081 
	C369.734955,195.992081 382.350952,195.964813 394.966553,196.023422 
	C396.723999,196.031570 398.479431,196.462433 400.617920,196.348816 
	C401.000000,199.030594 401.000000,202.061188 401.000000,205.545898 
M343.980652,231.307037 
	C345.119385,223.006744 346.258087,214.706451 347.473602,205.846405 
	C331.972107,205.846405 317.563660,205.846405 303.296234,205.846405 
	C303.296234,202.322922 303.296234,199.246262 303.296234,195.758972 
	C317.996033,195.758972 332.397156,195.758972 346.805756,195.758972 
	C342.980438,116.049759 277.848145,59.172329 207.022858,57.347095 
	C207.022858,71.441322 207.022858,85.533051 207.022858,99.811752 
	C203.535919,99.811752 200.464340,99.811752 196.971710,99.811752 
	C196.971710,85.540970 196.971710,71.456688 196.971710,57.373596 
	C119.994347,58.754414 57.935326,123.104385 56.531975,196.088348 
	C70.948204,196.088348 85.362053,196.088348 99.737251,196.088348 
	C99.737251,199.611786 99.737251,202.685440 99.737251,206.161224 
	C85.050941,206.161224 70.628815,206.161224 56.205811,206.161224 
	C58.565933,289.601440 129.302429,346.796326 197.180267,346.365509 
	C197.180267,331.961823 197.180267,317.550842 197.180267,303.303772 
	C200.691254,303.303772 203.768112,303.303772 207.227814,303.303772 
	C207.227814,318.019104 207.227814,332.427521 207.227814,346.907104 
	C229.909866,345.781158 251.028778,340.322296 270.572052,329.530426 
	C309.494476,308.037323 333.744629,275.378204 343.980652,231.307037 
z"/>
<path fill="#9DDBDF" opacity="1.000000" stroke="none" 
	d="
M192.465363,236.525711 
	C173.311371,220.224060 156.781052,202.131836 145.941116,179.610580 
	C142.915024,173.323563 141.141632,166.145660 140.259430,159.190506 
	C139.247498,151.212662 143.143768,147.117783 150.991745,148.049103 
	C158.262314,148.911911 165.729889,150.800919 172.335312,153.893951 
	C180.374084,157.658188 187.553116,163.235077 195.204132,167.862366 
	C198.256531,169.708420 198.434158,171.784164 196.473099,174.376266 
	C192.871277,179.137085 189.345901,183.966141 185.521454,188.543518 
	C183.734619,190.682129 183.484985,192.270950 185.002533,194.693298 
	C191.019226,204.297333 198.755814,212.064163 208.398010,218.043808 
	C210.885803,219.586639 212.435059,219.199738 214.531235,217.452438 
	C218.982773,213.741791 223.674866,210.319122 228.279556,206.793045 
	C230.928421,204.764664 233.228455,204.373352 235.181625,207.844437 
	C240.935501,218.069962 247.296951,227.992325 252.398315,238.528305 
	C254.596893,243.069092 254.783829,248.810440 254.965195,254.038269 
	C255.150040,259.366821 252.453125,261.822296 247.176956,262.632111 
	C238.874557,263.906403 231.036697,261.506226 224.202194,257.539154 
	C213.349533,251.239777 203.193390,243.740372 192.465363,236.525711 
M230.569092,252.925949 
	C231.481827,253.304718 232.462326,254.108521 233.293564,253.975998 
	C235.169662,253.676865 236.971954,252.914841 238.804260,252.341141 
	C237.639160,250.653290 236.842484,248.325485 235.237595,247.401520 
	C230.982895,244.952011 226.462189,242.889343 221.867126,241.148346 
	C220.329269,240.565674 218.246826,241.420303 216.413315,241.617920 
	C217.223770,243.444809 217.539307,246.004105 218.943207,246.952759 
	C222.318924,249.233826 226.204803,250.759888 230.569092,252.925949 
M243.057266,250.505569 
	C242.995529,252.089890 242.532120,253.831192 243.061081,255.184662 
	C243.286514,255.761490 245.788559,255.990601 246.877716,255.513687 
	C247.725052,255.142685 247.986328,253.433151 248.508072,252.318527 
	C246.920563,251.578278 245.333069,250.838013 243.057266,250.505569 
z"/>
<path fill="#F59896" opacity="1.000000" stroke="none" 
	d="
M248.388916,190.344864 
	C241.457016,193.252762 234.631531,195.574936 228.406403,198.991119 
	C222.206161,202.393616 216.608429,206.893997 209.564926,211.723129 
	C203.664185,205.863113 197.297180,199.540039 190.519943,192.809570 
	C204.508667,179.582092 208.808609,162.127930 216.245590,146.312225 
	C221.545364,135.041595 230.380081,127.849045 243.113724,126.886856 
	C255.213333,125.972572 264.573395,131.169083 271.446869,141.138748 
	C280.070282,153.646606 276.878113,172.833450 264.025299,182.091461 
	C259.386841,185.432602 253.872879,187.558258 248.388916,190.344864 
M243.764191,140.728638 
	C247.131866,141.360367 250.479507,142.216385 253.876495,142.519669 
	C255.352142,142.651413 256.929291,141.646393 258.460327,141.157684 
	C257.926727,139.625656 257.862610,137.441574 256.784729,136.665466 
	C248.663239,130.817810 233.704529,133.187195 227.933914,141.277176 
	C227.082657,142.470566 227.795044,144.779297 227.783981,146.572006 
	C229.348938,146.411713 231.072769,146.617157 232.447906,146.019852 
	C236.012024,144.471725 239.422623,142.570145 243.764191,140.728638 
M223.187698,148.918823 
	C222.724304,150.548233 221.907043,152.197678 221.997559,153.795700 
	C222.027542,154.324814 224.590927,155.336868 225.638245,155.003662 
	C226.661713,154.678040 228.108841,152.274353 227.837601,151.903412 
	C226.873413,150.584824 225.255493,149.744247 223.187698,148.918823 
z"/>
<path fill="#EF9930" opacity="1.000000" stroke="none" 
	d="
M195.830383,263.836090 
	C175.045319,284.050323 143.451675,279.144623 130.642197,253.412369 
	C120.208084,232.451843 130.813675,208.288239 149.855209,200.188568 
	C150.910995,201.664780 152.023727,203.220612 153.475830,205.250961 
	C140.970184,212.449234 133.384109,222.484024 133.646805,237.103943 
	C133.821121,246.804306 138.025482,254.794159 145.101395,261.170532 
	C161.026810,275.521576 180.665771,271.365631 197.967270,249.827988 
	C199.517227,250.836472 201.111435,251.873764 203.528122,253.446182 
	C200.873703,257.058136 198.476181,260.320496 195.830383,263.836090 
z"/>
<path fill="#080C0E" opacity="1.000000" stroke="none" 
	d="
M230.226990,252.758240 
	C226.204803,250.759888 222.318924,249.233826 218.943207,246.952759 
	C217.539307,246.004105 217.223770,243.444809 216.413315,241.617920 
	C218.246826,241.420303 220.329269,240.565674 221.867126,241.148346 
	C226.462189,242.889343 230.982895,244.952011 235.237595,247.401520 
	C236.842484,248.325485 237.639160,250.653290 238.804260,252.341141 
	C236.971954,252.914841 235.169662,253.676865 233.293564,253.975998 
	C232.462326,254.108521 231.481827,253.304718 230.226990,252.758240 
z"/>
<path fill="#0B1012" opacity="1.000000" stroke="none" 
	d="
M243.401413,250.301666 
	C245.333069,250.838013 246.920563,251.578278 248.508072,252.318527 
	C247.986328,253.433151 247.725052,255.142685 246.877716,255.513687 
	C245.788559,255.990601 243.286514,255.761490 243.061081,255.184662 
	C242.532120,253.831192 242.995529,252.089890 243.401413,250.301666 
z"/>
<path fill="#130C0E" opacity="1.000000" stroke="none" 
	d="
M243.329346,140.769135 
	C239.422623,142.570145 236.012024,144.471725 232.447906,146.019852 
	C231.072769,146.617157 229.348938,146.411713 227.783981,146.572006 
	C227.795044,144.779297 227.082657,142.470566 227.933914,141.277176 
	C233.704529,133.187195 248.663239,130.817810 256.784729,136.665466 
	C257.862610,137.441574 257.926727,139.625656 258.460327,141.157684 
	C256.929291,141.646393 255.352142,142.651413 253.876495,142.519669 
	C250.479507,142.216385 247.131866,141.360367 243.329346,140.769135 
z"/>
<path fill="#150D0F" opacity="1.000000" stroke="none" 
	d="
M223.536423,148.820740 
	C225.255493,149.744247 226.873413,150.584824 227.837601,151.903412 
	C228.108841,152.274353 226.661713,154.678040 225.638245,155.003662 
	C224.590927,155.336868 222.027542,154.324814 221.997559,153.795700 
	C221.907043,152.197678 222.724304,150.548233 223.536423,148.820740 
z"/>
</svg>