<svg xmlns="http://www.w3.org/2000/svg" version="1.0" viewBox="0 0 500 500"><path fill="#FFF" d="M246 73.8v22.9l-9.2.6c-72.5 5.1-134.9 66.9-140.4 139.1l-.7 8.6H51v10h44.7l.7 9.7c4.9 72.5 67.6 134.9 140.4 140l9.2.6V450h10v-44.7l8.8-.7c72.6-5.4 134.9-67.7 139.8-139.9l.7-9.7H449v-10h-43.7l-.6-8.3c-5.1-71.7-67.6-134-139.9-139.3l-8.8-.7V51h-10zm0 53.7V149h10v-43.3l7.8.6c48.9 3.8 94.7 35 117.4 80 7.7 15.4 14.8 41.5 14.8 54.4v4.3h-44v10h44v5.3c0 65.2-63 130.2-131.2 135.3l-8.8.7V352h-10v44.3l-9.2-.7c-48-3.4-94.5-35.2-117-79.9-7.9-15.9-14.8-41.5-14.8-55.4V255h44v-10h-44v-4.3c0-19.6 10.6-50 24.9-71.5 24.1-35.9 70.3-62.4 110.4-63.1l5.7-.1z"/></svg>