<svg xmlns="http://www.w3.org/2000/svg" version="1.0" viewBox="0 0 500 500"><path fill="#FFF" stroke="#FFF" stroke-width=".5" d="M246 73.8v22.9l-9.2.6c-72.5 5.1-134.9 66.9-140.4 139.1l-.7 8.6H51v10h44.7l.7 9.7c4.9 72.5 67.6 134.9 140.4 140l9.2.6V450h10v-44.7l8.8-.7c72.6-5.4 134.9-67.7 139.8-139.9l.7-9.7H449v-10h-43.7l-.6-8.3c-5.1-71.7-67.6-134-139.9-139.3l-8.8-.7V51h-10zm0 53.6v21.4h10v-43.1l7.8.6c48.9 3.8 94.7 35 117.4 80 7.7 15.4 14.8 41.5 14.8 54.4v4.3h-44v10h44v5.3c0 65.2-63 130.2-131.2 135.3l-8.8.7V352h-10v44.3l-9.2-.7c-48-3.4-94.5-35.2-117-79.9-7.9-15.9-14.8-41.5-14.8-55.4V255h43.7l.1-5 .1-5H105v-4.3c0-65.6 68.2-133.4 135.3-134.6l5.7-.1z"/><g fill="#BF8000" stroke="#BF8000" stroke-width=".5"><path d="M246.3 169.7c-1.2.2-4.9 2.9-8.2 5.8-4.5 4-7.8 6-12.8 7.6l-6.8 2.2-14.3.2-14.3.2-2.7 2c-6.6 4.8-7.9 14.1-2.8 20.8 8.9 11.7 10 19 5.2 34.3-12.1 38.3-5.8 55.4 24.1 65.3 12.1 3.9 19.9 7.8 24.3 11.9 9.1 8.5 15.3 8.5 24.7-.1 5.1-4.7 9.2-6.8 21.2-10.8 31.8-10.8 39.1-27.3 27.7-62.6-6-18.8-5.7-23.1 2.6-35.6 10.3-15.4 3.4-26.5-15.7-25.2-16 1-27.9-2.3-36.3-10.1-6.4-6-9.5-7.1-15.9-5.9zm9.8 12.9c7.9 8.3 21 12.4 39.5 12.4 16.2 0 17.2 1.1 10.4 11.5-8.8 13.5-9.8 21.8-4.6 38.3 4.8 15.2 5.6 19.1 5.6 27.5v7.5l-2.8 5.3c-3.7 7.1-9.1 10.7-23.3 15.3-14 4.6-17.5 6.4-23.9 12.1-6.2 5.5-7.5 5.6-13.1.5-5.9-5.3-13.2-9-26.4-13.5-26-8.7-29.7-19.1-18.9-53.9 5.2-16.8 4.3-26.2-4-38.5-4.3-6.3-4.8-7.8-3.6-10.2l1.1-1.9H204c18.8 0 31.6-3.9 39.5-12 5-5.1 7.9-5.2 12.6-.4z"/><path d="M246.8 209.2c-2.4 1.9-3 5.1-1.4 7.3l1.3 1.9-2.7 8-2.7 8.1-8.5.3-8.4.3-1.9-2.1c-4.7-5.2-11.9.7-8.5 7.1.8 1.4 2.1 1.9 5 1.9 3.7 0 16.5 7.7 16.5 9.9 0 2.5-5.1 16.1-6 16.1-3.7 0-5.7 6.6-2.9 9.4 3.4 3.4 9.4 1.4 9.4-3.1 0-2.2 11.5-11.8 14.2-11.8 2.5 0 13.7 9.1 13.8 11.2 0 4.4 6.7 7.2 9.8 4.1 2.6-2.6.2-9.8-3.4-9.8-.9 0-5.5-13.3-5.4-15.7 0-2.6 11.9-10.3 15.8-10.3 4.5 0 6.2-1.4 6.2-5.1 0-5.5-5.9-7.9-9.5-3.9l-1.9 2.1-8.5-.3-8.4-.3-2.5-7.4-2.5-7.5 1.1-2.9c2.3-6.1-3.2-11.2-8-7.5z"/></g><path fill="#404000" stroke="#404000" stroke-width=".5" d="M244.9 183.6c-7.7 8-22.1 12.4-40.5 12.4-14.5 0-15.1.6-9.7 9.2 9.6 15.3 10.7 23.6 5.3 39.3-11.7 34.1-7.4 45.8 19.9 54.8 12.1 3.9 20.7 8.6 25.5 13.6 3.8 4 4.9 3.9 10.4-1 5.7-5 13-8.7 24.2-12.4 27-8.8 31.5-20 21.1-52.8-6-19-5.3-26.3 4-40.7 2.5-3.8 3.8-6.9 3.4-8l-.6-1.8-15.2-.5c-19.5-.6-27.1-3-36.9-11.6-5.6-5-6.5-5-10.9-.5zm10.5 26.7 2 2.7-1.2 3.2-1.1 3.1 2.2 7.4 2.2 7.3H275l2-2c4.1-4.1 11-1.4 11 4.3 0 4.1-2.6 6.7-6.7 6.7-3.5 0-15.3 7.3-15.3 9.4 0 4.2 4.6 14.4 7.1 15.9 4 2.2 4.1 7.6.2 10.6-3.9 3.1-10.3.4-10.3-4.4 0-1.5-1.9-3.5-6.4-6.8l-6.5-4.6-6.5 4.7c-4.5 3.2-6.6 5.4-6.6 6.8 0 2.8-3.3 5.6-6.5 5.6-5.8 0-8.6-7.1-4.5-11.2 1.1-1.1 2.4-2 2.9-2 1 0 5.1-11.3 5.1-14s-10.9-10-14.9-10c-1.9 0-4.3-.7-5.3-1.7-3.9-3.5-.8-11.3 4.6-11.3 1.3 0 3.5.9 4.9 2 2 1.6 4 2 9.9 2h7.4l2.3-7.3c1.8-5.8 2.1-7.7 1.2-10-3.1-8 6.2-13.3 11.3-6.4z"/></svg>