<svg xmlns="http://www.w3.org/2000/svg" version="1.0" viewBox="0 0 500 500"><path fill="#FFF" d="M246 73.8v22.9l-9.2.6c-72.5 5.1-134.9 66.9-140.4 139.1l-.7 8.6H51v10h44.7l.7 9.7c4.9 72.5 67.6 134.9 140.4 140l9.2.6V450h10v-44.7l8.8-.7c72.6-5.4 134.9-67.7 139.8-139.9l.7-9.7H449v-10h-43.7l-.6-8.3c-5.1-71.7-67.6-134-139.9-139.3l-8.8-.7V51h-10v22.8zm0 53.7V149h10v-43.3l7.8.6c48.9 3.8 94.7 35 117.4 80 7.7 15.4 14.8 41.5 14.8 54.4v4.3h-44v10h44v5.3c0 65.2-63 130.2-131.2 135.3l-8.8.7V352h-10v44.3l-9.2-.7c-48-3.4-94.5-35.2-117-79.9-7.9-15.9-14.8-41.5-14.8-55.4V255h44v-10h-44v-4.3c0-19.6 10.6-50 24.9-71.5 24.1-35.9 70.3-62.4 110.4-63.1l5.7-.1v21.5z"/><g fill="#BF0000" stroke-width="0"><path d="m227.1 185.7.2 6.8.6-4.3c.9-5.4 2.2-6.8 5-5.3 1.6.9 2.1.9 2.1-.1 0-.9.3-.9 1 .2l1 1.5v-3l1 1.5c.7 1.1 1.2 1.2 2.1.3.9-.9 1.6-.9 3.1 0 1.5 1 2 .9 2.7-.2.6-.9 1.1-1 1.5-.2.5.8 1.3.8 2.9 0 1.6-.9 2.2-.9 2.5 0 .3.9.7.9 1.8 0 1-.8 1.4-.8 1.4 0 0 .6.9 1.1 2 1.1s2-.5 2-1c0-1.2 3.3-1.4 4.4-.3.4.5 1.3.8 1.9.8.9 0 1.2 5.1 1.2 18.7 0 10.2.3 18.9.7 19.3.4.4.1 1.6-.5 2.7-.9 1.6-.9 2.2.1 2.5 1 .4 1 .8.1 1.9-.6.8-1 1.4-.8 1.5 2.6.6 8.9.5 8.9-.2 0-1.4 2.8-1.1 3.3.3.4 1 .6 1 .6 0 .1-.8 1.7-1.2 4.7-1.2 2.7 0 4.3.4 3.9 1-.4.6.8 1 3 1s3.4-.4 3-1c-.3-.6.3-1 1.4-1 1 0 2.2.6 2.5 1.2.5 1 .7 1 1.2 0 .7-1.4 7.4-1.7 7.4-.2 0 .5.5 1 1.1 1 .5 0 .7-.5.4-1-.3-.6-.2-1 .4-1 .5 0 1.2.6 1.4 1.2.4 1 .6 1 .6 0 .1-.8 1.7-1.2 4.6-1.2h4.5v21.1c0 13.7-.3 20.8-1 20.4-.5-.3-1-1.5-1-2.6 0-1-.4-1.9-1-1.9-.5 0-1 .4-1 1 0 .5-.6 1-1.4 1-.8 0-1.6.6-1.8 1.2-.5 1.4-36.8 1.9-36.8.5 0-1.1-3.5-.8-4.8.5-.9.9-1.2.8-1.2-.5 0-.9-.7-1.7-1.5-1.7-1.5 0-2.1 2.1-.8 3.3 1 1 1.1 6 .2 7.3-1.2 1.5-.6 39.7.6 40.6 1 .8-7.1 1-29.2.8-9.5-.1-12.3.2-12.3 1.2s4.7 1.3 22.5 1.3H272v-2.2c0-1.2-.6-2.4-1.2-2.6-1-.4-1-.8-.2-1.4 1-.7 2.2-20.6 2.4-38.6V274h48v-5.8c.1-3.1.2-13.5.3-22.9l.2-17.3h-10c-8.8 0-37.8-1.1-38.1-1.4-.6-.5-1.3-16.1-1.3-30.4L272 179h-45l.1 6.7z"/><path d="M227.1 201c-.1 4.7-.4 12.2-.5 16.7-.1 4.6-.5 8.5-.8 8.8-.6.6-17.7 1.2-36.6 1.4l-12.2.1.2 22.7.3 22.8 24.3.3c13.3.1 24.2.3 24.2.5 0 .1.3 6.5.7 14.2.7 17.8 1.3 18.5 1.3 1.7V277h1.5c1.8 0 1.9-1.2.3-2.8-.8-.8-.8-1.5.2-2.7l1.3-1.6-1.6-1.6-1.6-1.7-.9 2.4-.9 2.4-.5-2.2c-.7-2.7-2.4-2.8-3.7-.4l-1 1.8-18.4-.1-18.4-.2-2.1-2.1-2.2-2.2v-16c0-11.8.3-16 1.2-16 .9 0 .9-.3 0-1.2-.7-.7-1.2-1.9-1.2-2.8v-1.5l1 1.5c.6 1 1 1.1 1 .2 0-.6.9-1.2 2.1-1.2 1.1 0 1.7.4 1.4 1-.4.6.5 1 1.9 1s2.6-.6 2.6-1.3c0-.9.3-.8.9.2l.9 1.3.5-1.3c.4-1 .6-1 .6-.2.1.7.8 1.3 1.6 1.3s1.5-.6 1.5-1.3c0-.8.4-.7 1.1.3.8 1.1 1.2 1.2 1.6.2.2-.6 1.1-1.2 1.9-1.2.9 0 1.2.4.9 1-.3.5.1 1 .9 1 .9 0 1.6-.5 1.6-1 0-.6.8-1 1.8-1h1.7l-1.5 1-1.5 1h1.8c.9 0 1.7-.6 1.7-1.3 0-.9.3-.8.9.2l.9 1.3.5-1.3c.4-1 .6-1 .6-.2.1.7 1.4 1.3 3 1.3s3.2-.6 3.4-1.3c.4-.9.8-.8 1.6.3s1.1 1.2 1.1.2c0-.8.5-1 1.2-.6 5.8 3.6 10.4-1.1 7.5-7.6-.4-.8-.8-7.8-1-15.5-.2-10.2-.3-11.7-.6-5.5z"/></g><path fill="red" d="M229 184.1c-1.3 2.4-1.4 36.6-.2 38.3 3.8 5-2.1 10.6-7.6 7.2-.7-.4-1.2-.2-1.2.6 0 1-.3.9-1.1-.2s-1.2-1.2-1.6-.3c-.2.7-1.8 1.3-3.4 1.3-1.6 0-2.9-.5-2.9-1.3 0-.9-.3-.8-.9.2l-.9 1.3-.5-1.3c-.4-1-.6-1-.6-.2-.1.7-.9 1.3-1.8 1.3h-1.8l1.5-1 1.5-1h-1.7c-1 0-1.8.4-1.8 1 0 .5-.7 1-1.6 1-.8 0-1.2-.5-.9-1 .3-.6 0-1-.9-1-.8 0-1.7.6-1.9 1.2-.4 1-.8.9-1.6-.2-.7-1-1.1-1.1-1.1-.3 0 .7-.7 1.3-1.5 1.3s-1.5-.6-1.5-1.3c0-.9-.3-.8-.9.2l-.9 1.3-.5-1.3c-.4-1-.6-1-.6-.2-.1.7-1.3 1.3-2.7 1.3-1.4 0-2.3-.4-1.9-1 .3-.6-.3-1-1.4-1-1.2 0-2.1.6-2.1 1.2 0 .9-.4.8-1-.2l-1-1.5v1.5c0 .9.5 2.1 1.2 2.8.9.9.9 1.2 0 1.2s-1.2 4.2-1.2 16v16l2.2 2.2 2.1 2.1 18.4.2 18.4.1 1-1.8c1.3-2.4 3-2.3 3.7.4l.5 2.2.9-2.4.9-2.4 1.6 1.7 1.6 1.6-1.3 1.6c-1 1.2-1 1.9-.2 2.7 1.6 1.6 1.5 2.8-.3 2.8H228l-.1 12.7c0 7.1-.2 16.7-.4 21.5l-.3 8.7 12.1.3c10.6.3 32-.5 29.2-1-1.2-.2-1.8-39.1-.6-40.7.9-1.2.8-6.2-.2-7.2-1.3-1.2-.7-3.3.8-3.3.8 0 1.5.8 1.5 1.7 0 1.3.3 1.4 1.2.5 1.3-1.3 4.8-1.6 4.8-.5 0 1.4 36.3.9 36.8-.5.2-.6 1-1.2 1.8-1.2s1.4-.5 1.4-1c0-.6.5-1 1-1 .6 0 1 .9 1 1.9 0 1.1.5 2.3 1 2.6.7.4 1-6.7 1-20.4V229h-4.4c-2.6 0-4.6.5-4.9 1.2-.4 1-.6 1-.6 0-.1-.6-.6-1.2-1.2-1.2-.5 0-.7.4-.4 1 .3.5.1 1-.4 1-.6 0-1.1-.5-1.1-1 0-1.5-6.7-1.2-7.4.2-.5 1-.7 1-1.2 0-.3-.6-1.5-1.2-2.5-1.2-1.1 0-1.7.4-1.4 1 .4.6-.8 1-3 1s-3.4-.4-3-1c.4-.6-1.1-1-3.9-1-2.6 0-4.6.5-4.9 1.2-.4 1-.6 1-.6 0-.1-1.4-3.1-1.7-3.1-.3 0 .7-6.3.8-8.9.2-.2-.1.2-.7.8-1.5.9-1.1.9-1.5-.1-1.9-1-.3-1-.9-.1-2.5.6-1.1.9-2.3.5-2.7-.4-.4-.7-9.1-.7-19.3 0-13.6-.3-18.7-1.2-18.7-.6 0-1.5-.3-1.9-.8-1.1-1.1-4.4-.9-4.4.3 0 .5-.9 1-2 1s-2-.5-2-1.1c0-.8-.4-.8-1.4 0-1.1.9-1.5.9-1.8 0-.3-.9-.9-.9-2.5 0-1.6.8-2.4.8-2.9 0-.4-.8-.9-.7-1.5.2-.7 1.1-1.2 1.2-2.7.2-1.5-.9-2.2-.9-3.1 0-.9.9-1.4.8-2.1-.3l-1-1.5v3l-1-1.5c-.7-1.1-1-1.1-1-.2 0 .9-.5 1-1.9.2-2.6-1.4-2.9-1.3-4.1 1.1z"/></svg>