<svg width="1200" height="1200" viewBox="0 0 1200 1200" fill="none" xmlns="http://www.w3.org/2000/svg">
<path d="M587.94 68.5714V137.444L560.201 139.248C468.241 145.865 375.075 184.662 297.889 248.722C208.643 322.707 145.628 443.609 136.884 557.594L134.774 583.459H0V613.534H134.774L136.884 642.707C144.724 757.895 207.437 879.398 297.889 954.286C331.055 981.955 358.492 999.699 396.482 1018.05C451.055 1044.81 505.025 1059.85 560.201 1063.76L587.94 1065.56V1200H618.09V1065.56L644.623 1063.46C735.678 1056.84 828.543 1018.05 905.126 954.286C995.578 879.398 1058.29 757.895 1066.13 642.707L1068.24 613.534H1200V583.459H1068.24L1066.43 558.496C1062.51 504.662 1045.03 445.113 1016.98 390.075C970.553 299.549 899.698 230.376 806.533 184.962C752.563 158.496 698.894 143.459 644.623 139.549L618.09 137.444V0H587.94V68.5714ZM587.94 230.075V294.737H618.09V164.511L641.608 166.316C789.045 177.744 927.136 271.579 995.578 406.917C1018.79 453.233 1040.2 531.729 1040.2 570.526V583.459H907.538V613.534H1040.2V629.474C1040.2 671.278 1019.4 748.271 995.578 796.09C945.829 894.737 855.377 975.338 753.769 1011.73C720 1024.06 674.774 1034.29 644.623 1036.39L618.09 1038.5V905.263H587.94V1038.5L560.201 1036.39C513.467 1033.08 462.513 1019.25 413.367 996.391C327.437 956.692 251.156 882.406 207.437 796.09C183.618 748.271 162.814 671.278 162.814 629.474V613.534H295.477V583.459H162.814V570.526C162.814 531.729 184.221 453.233 207.437 406.917C253.568 316.09 331.055 242.105 422.714 202.105C470.653 181.353 530.653 166.316 570.754 165.714L587.94 165.414V230.075Z" fill="white"/>
<path d="M372 821.87H475.704V559.691C531.716 622.136 552.032 660.91 575.349 735.067H622.294C649.775 663.426 669.419 624.383 722.825 559.691V821.87H827.5V600.435V379H722.825C659.187 441.813 632.21 482.593 590.85 559.691C558.135 483.688 532.617 444.256 475.704 379H372V821.87Z" fill="#CE0000"/>
</svg>
