<svg xmlns="http://www.w3.org/2000/svg" version="1.0" viewBox="0 0 500 500"><path fill="#FFF" d="M251 51h-5v45.7l-9.2.6c-5.1.4-13.4 1.6-18.5 2.7-5.1 1-12.7 3.1-17 4.5-4.3 1.4-12.7 5-18.8 8-6 2.9-14.1 7.5-18 10.1-3.8 2.6-10.5 7.6-14.7 11.1-4.2 3.5-10.6 9.6-14.1 13.6-3.6 4-8.9 10.7-12 14.9-3 4.2-8 12.6-11.1 18.6-3 6-6.9 15.1-8.6 20.2-1.7 5-4 13.1-5 18-1.1 4.8-2.3 12.7-2.6 17.4l-.7 8.6H51v10h44.7l.7 9.7c.3 5.4 1.5 13.7 2.6 18.5 1 4.7 3.3 12.8 5 17.8 1.7 5.1 5.6 14.2 8.6 20.2 3.1 6 8.1 14.4 11.1 18.6 3.1 4.2 8.4 10.9 12 14.9 3.5 4 9.9 10.1 14.1 13.6 4.2 3.5 10.9 8.5 14.7 11.1 3.9 2.6 12 7.2 18 10.1 6.1 3 14.5 6.6 18.8 8 4.3 1.4 11.9 3.5 17 4.5 5.1 1.1 13.4 2.3 18.5 2.7l9.2.6V450h10v-44.7l8.8-.7c4.8-.3 12.8-1.5 17.9-2.6 5.1-1 12.7-3.1 17-4.5 4.3-1.4 12.8-5 18.8-8 6.1-2.9 14.2-7.5 18-10.1 3.9-2.6 10.5-7.6 14.7-11.1 4.2-3.5 10.6-9.6 14.1-13.6 3.6-4 8.9-10.7 12-14.9 3-4.2 8-12.6 11.1-18.6 3-6 6.9-15.1 8.6-20.2 1.7-5 4-13.1 5-17.8 1.1-4.8 2.3-13.1 2.6-18.5l.7-9.7H449v-10h-43.7l-.6-8.3c-.3-4.5-1.5-12.7-2.7-18.1-1.2-5.5-3.5-13.8-5.2-18.5-1.7-4.7-5.5-13.5-8.5-19.4-3-5.9-8-14.3-11-18.5-3.1-4.2-8.4-10.9-12-14.9-3.5-4-9.9-10.1-14.1-13.6-4.2-3.5-10.8-8.5-14.7-11.1-3.8-2.6-11.9-7.2-18-10.1-6-3-14.5-6.6-18.8-8-4.3-1.4-11.9-3.5-17-4.5-5.1-1.1-13.1-2.3-17.9-2.6l-8.8-.7V51h-5zm-10.7 55.1 5.7-.1v43h10v-43.3l7.8.6c4.3.3 11.4 1.3 15.8 2.2 4.3.9 12.5 3.2 18.1 5 5.5 1.9 13.7 5.2 18 7.4 4.4 2.1 12.2 6.8 17.4 10.2l9.4 6.3 11 11.1 11.1 11 6.3 9.4c3.4 5.2 8.1 13.1 10.3 17.4 2.2 4.4 5.7 13.2 7.8 19.6l3.8 11.6 1.6 9.4c.9 5.2 1.6 11.4 1.6 13.8v4.3h-44v10h44v5.3c0 3-.7 9.6-1.6 14.8l-1.6 9.4-3.8 11.6c-2.1 6.4-5.6 15.2-7.8 19.6-2.2 4.3-6.9 12.2-10.3 17.4l-6.3 9.4-11.1 11-11 11.1-9.4 6.3c-5.2 3.4-12.9 8-17 10.1-4.2 2-11 5-15.1 6.4-4.1 1.5-12 3.8-17.4 5.1l-9.9 2.5-8.9.6-8.8.7V352h-10v44.3l-9.2-.7c-5.1-.3-13.1-1.5-17.8-2.6-4.7-1.1-11.4-3-15-4.2-3.6-1.1-10.7-4-15.9-6.5-5.2-2.4-14-7.3-19.5-11l-10.1-6.7-11-11.1-11.1-11-6.3-9.4c-3.4-5.2-8.1-13.1-10.3-17.4-2.2-4.4-5.7-13.2-7.8-19.6l-3.8-11.6-1.6-9.4c-.9-5.2-1.6-11.8-1.6-14.8V255h44v-10h-44v-4.3c0-2.4.7-8.6 1.6-13.8l1.6-9.4 3.8-11.6c2.1-6.4 5.6-15.2 7.8-19.6 2.2-4.3 6.8-12 10.1-17.1 3.4-5 9.5-12.7 13.6-17 4.1-4.4 10.5-10.4 14.2-13.5 3.8-3 10.7-8 15.5-11 4.8-3 12.9-7.3 18-9.5s13.4-5.3 18.3-6.7c5-1.4 12.6-3.2 17-3.9 4.4-.8 10.6-1.4 13.8-1.5z"/><path fill="#BB0000" fill-opacity=".4" d="m329.7 178.7-.3-5.2v21l.3-5.3c.2-2.8.2-7.6 0-10.5zm-142 44c-.1-14.4-.2-2.4-.2 26.8 0 29.1.1 40.9.2 26.2.2-14.8.2-38.6 0-53zm142 88-.3-5.2v21l.3-5.3c.2-2.8.2-7.6 0-10.5z"/><path fill="#BB0000" fill-opacity=".6" d="M193.5 172.4h-17l8.8.3c4.8.2 12.5.2 17 0 4.5-.1.6-.3-8.8-.3zm117 0c-9.9 0-14.1.2-9.3.3 4.8.2 12.9.2 18 0l9.3-.3h-18zm-59 102h-9l4.8.3c2.6.2 6.7.2 9 0l4.2-.4-9 .1zm-63.7 28.8c-.2.1-2.8.4-5.8.8l-5.5.7 5.2.1 5.2.2.6-1c.3-.6.5-.9.3-.8zm29.2 1.1h-6.5l3.3.4c1.7.2 4.7.2 6.5 0l3.2-.4H217zm69 0h-6.5l3.3.4c1.7.2 4.7.2 6.5 0l3.2-.4H286zm36 0h-6.5l3.3.4c1.7.2 4.7.2 6.5 0l3.2-.4H322z"/><path fill="#BB0000" fill-opacity=".8" d="m293.3 218.9-.8-.8.5 42.7.5 42.7.3-41.9.2-42-.7-.7z"/><path fill="#BB0000" d="M193.4 173h-16.3l-.3 11-.3 11H188v110h-10.9l-.3 11-.3 11h47l-.3-11-.3-10.9-6.7-.3-6.7-.3-.3-43.3-.2-43.2h1c.5 0 2 1.7 3.3 3.7 1.3 2.1 4.2 7.2 6.5 11.3 2.2 4.1 8.2 14.9 13.4 24l9.3 16.5 8.7.3 8.6.3 3.5-5.8c1.9-3.2 4.8-8.3 6.5-11.3 1.6-3 5.2-9.6 7.9-14.5 2.8-5 7-12.3 9.4-16.4 2.4-4.1 5-7.6 5.7-7.9l1.2-.4-.2 43.4-.3 43.3-6.8.5-6.8.5-.2 10.8-.2 10.7 24.5-.2 24.5-.3v-21l-6.7-.3-6.8-.3V195.1l6.8-.3 6.7-.3v-21l-17.7-.3-17.6-.2-2 2.7c-1 1.6-4.1 6.8-6.9 11.8-2.7 4.9-10.7 19.3-17.7 32-7.1 12.6-13.4 23.6-14.2 24.4-.7.8-1.6 1.3-1.8 1-.3-.2-4.5-7.6-9.4-16.4-4.9-8.8-13.5-24.3-19.1-34.5-5.7-10.2-10.8-19.1-11.3-19.8l-1-1.2h-16.4z"/><path fill="#BB0000" fill-opacity=".9" d="m176.7 178.7-.3-5.2v21l.3-5.3c.2-2.8.2-7.6 0-10.5zm0 132-.3-5.2v21l.3-5.3c.2-2.8.2-7.6 0-10.5zm47 0-.3-5.2v21l.3-5.3c.2-2.8.2-7.6 0-10.5zm56 .5-.3-4.7v19l.3-4.8c.2-2.6.2-6.8 0-9.5z"/><path fill="#BB0000" fill-opacity=".1" d="M292.7 243.2c-.1-10.8-.2-1.7-.2 20.3s.1 30.9.2 19.7c.2-11.2.2-29.2 0-40z"/><path fill="#BB0000" fill-opacity=".7" d="M209.7 240.2c-.1-11.4-.2-1.8-.2 21.3s.1 32.4.2 20.7c.2-11.7.2-30.6 0-42z"/><path fill="#BB0000" fill-opacity=".2" d="M181.5 195.3h-5l2.8.4c1.5.2 3.7.2 5 0l2.2-.4h-5zm141 0h-6l3.3.4c1.8.2 4.5.2 6 0l2.7-.4h-6zm-6.8 27.4c-.1-14.4-.2-2.4-.2 26.8 0 29.1.1 40.9.2 26.2.2-14.8.2-38.6 0-53zm-37 87c-.2-2.9-.3-.3-.3 5.8v11l.3-5.8c.2-3.2.2-8.1 0-11zM200 327.4c-12.9 0-18.2.2-11.7.3 6.4.2 17 .2 23.5 0 6.4-.1 1.1-.3-11.8-.3zm104 0c-13.5 0-19 .2-12.2.3 6.7.2 17.7.2 24.5 0 6.7-.1 1.2-.3-12.3-.3z"/><path fill="#BF0000" fill-opacity=".1" d="m224.7 312.3-.3-4.8v9l-.1 9 .4-4.2c.2-2.3.2-6.4 0-9z"/></svg>