<svg width="1200" height="1200" viewBox="0 0 1200 1200" fill="none" xmlns="http://www.w3.org/2000/svg">
<path d="M810.833 471.961C813.233 495.619 814.605 497.333 814.947 477.104C815.29 467.504 813.919 458.589 812.205 457.561C810.49 456.532 810.147 463.047 810.833 471.961Z" fill="#BF0000" fill-opacity="0.5" stroke="#BF0000" stroke-opacity="0.5" stroke-width="2.3"/>
<path d="M624.313 385.9C621.57 386.928 620.199 392.757 620.542 399.957L620.884 412.643L622.256 401.672L623.627 390.357L630.828 391.386C634.599 392.071 640.085 396.186 642.485 400.986C647.285 409.558 648.657 404.757 645.228 391.043C643.171 383.843 634.599 381.443 624.313 385.9ZM526.939 408.186C526.939 414.358 526.253 445.902 525.225 478.131C523.853 518.246 524.539 537.79 526.939 539.504C529.682 540.876 530.025 537.447 528.996 528.532C525.91 507.618 530.368 482.931 536.882 482.588C540.996 482.588 540.311 481.56 534.825 479.16C524.882 475.388 525.91 465.788 536.882 460.302C544.768 456.53 543.739 451.387 535.511 454.473C531.739 455.845 530.71 451.73 530.71 435.273C530.71 423.615 532.082 414.358 533.453 414.358C537.911 414.358 536.882 405.786 531.739 401.329L527.282 396.872L526.939 408.186ZM809.461 506.932C809.461 520.989 810.147 526.818 810.833 519.618C811.519 512.761 811.519 501.103 810.833 493.903C810.147 487.046 809.461 492.874 809.461 506.932ZM755.631 517.904C754.603 522.361 753.574 530.59 753.574 536.761C753.574 542.59 751.86 548.076 749.46 548.762C746.717 549.79 747.06 550.819 750.488 552.19C754.26 553.562 757.003 551.162 759.403 544.304C761.803 538.133 761.803 534.361 760.088 534.361C758.031 534.361 757.688 529.218 759.06 522.361C761.46 508.989 759.06 505.903 755.631 517.904ZM746.031 583.048C745.002 591.277 745.688 600.192 747.06 602.935C748.774 606.02 750.145 600.535 750.145 588.191C750.145 565.219 748.088 562.476 746.031 583.048ZM579.055 600.192C578.712 603.963 574.255 607.392 567.74 609.449L556.425 612.535L567.74 612.878C579.055 613.221 584.541 607.392 581.112 598.82C579.74 596.077 579.055 596.42 579.055 600.192ZM686.029 604.306C687.401 607.735 688.429 611.849 688.429 613.564C688.429 615.278 690.829 616.649 693.572 616.649C699.744 616.649 695.287 602.249 688.429 600.192C685.343 599.163 684.658 600.535 686.029 604.306ZM623.97 613.564C616.084 616.649 612.656 637.221 619.856 637.221C621.913 637.221 622.599 633.793 621.227 628.993C618.827 619.049 624.313 614.935 633.913 620.078C643.171 625.221 645.228 622.821 637.342 616.306C633.228 612.535 629.113 611.849 623.97 613.564ZM726.145 619.735C726.145 621.449 728.545 624.535 731.288 626.935C734.716 630.021 736.431 630.021 736.431 627.278C736.431 625.221 738.831 623.507 741.917 623.507C744.659 623.507 746.031 621.792 745.002 620.078C742.259 615.964 726.145 615.621 726.145 619.735ZM546.825 640.65C545.797 644.422 546.482 648.536 548.197 649.565C554.368 653.336 550.94 657.45 540.311 658.822L528.996 660.193L541.682 660.536C555.054 661.222 561.568 656.422 555.397 650.25C553.34 648.193 552.654 644.764 553.34 642.364C554.368 639.964 553.682 636.878 551.968 635.85C550.254 634.821 547.854 636.878 546.825 640.65ZM751.517 693.794C751.517 712.652 751.86 719.852 752.545 709.909C753.231 699.966 753.231 684.537 752.545 675.622C751.86 666.708 751.517 674.937 751.517 693.794ZM414.479 742.482C414.479 769.568 415.507 791.512 416.879 791.512C419.279 791.512 418.593 710.595 416.193 698.937C415.507 696.194 414.821 715.738 414.479 742.482ZM746.717 746.939C746.717 754.825 745.345 757.225 739.859 757.225C736.088 757.225 733.002 758.939 733.002 760.996C733.002 762.711 734.716 763.396 736.773 762.368C738.831 760.996 742.602 762.711 745.002 766.139L749.802 772.654L750.145 754.482C750.145 744.882 749.46 736.653 748.431 736.653C747.402 736.653 746.717 741.11 746.717 746.939ZM642.485 756.196C639.056 764.425 640.085 969.46 643.171 975.288C644.542 978.031 645.571 930.373 645.571 869.342V758.939L650.028 759.968C652.771 760.311 654.143 758.939 653.457 756.539C651.057 750.025 644.885 749.682 642.485 756.196ZM674.029 803.169C675.4 839.513 677.115 844.656 677.8 814.826C677.8 800.426 679.858 788.083 681.572 787.397C683.629 786.711 682.258 784.654 678.829 782.597L672.657 778.825L674.029 803.169ZM744.659 792.197C745.002 801.112 746.374 809.683 747.745 810.712C750.831 813.798 750.145 799.74 746.717 786.368L743.974 776.082L744.659 792.197ZM673.343 855.628C672.315 862.828 671.629 875.514 671.629 884.086L671.972 899.515L674.715 885.8C676.086 878.257 676.772 871.057 676.086 869.685C675.4 868.314 676.086 866.599 678.143 865.228C682.258 862.485 682.943 842.942 678.486 842.942C677.115 842.942 674.715 848.77 673.343 855.628Z" fill="#BF0000" fill-opacity="0.9" stroke="#BF0000" stroke-opacity="0.9" stroke-width="2.3"/>
<path d="M623.627 316.299C616.083 325.214 614.712 348.186 621.226 357.786C632.198 374.586 647.284 366.7 647.284 344.071C647.284 319.728 633.913 303.956 623.627 316.299ZM706.943 336.185C688.428 356.757 697.343 400.301 717.229 385.901C725.115 380.072 726.83 343.728 719.286 334.814L714.143 328.299L706.943 336.185ZM533.11 365.329C524.881 394.473 527.967 406.13 541.681 400.987C554.367 396.187 555.396 392.758 550.596 375.272C546.139 358.815 536.195 353.329 533.11 365.329ZM623.284 396.53C623.284 399.616 622.255 408.187 621.226 415.045L618.826 428.074H629.798C636.655 428.074 640.427 426.359 639.741 423.616C639.398 421.559 640.084 416.073 641.798 411.959C643.17 407.845 642.827 401.673 640.77 398.244C636.656 390.015 623.284 388.644 623.284 396.53ZM708.315 406.816C701.8 408.187 700.086 426.702 705.229 439.731L707.629 446.246L712.086 435.96C717.915 421.216 715.858 405.444 708.315 406.816ZM786.146 417.788C782.031 422.245 779.631 431.845 778.602 447.617C777.574 460.646 775.859 471.618 774.145 472.646C772.774 473.675 770.374 479.847 769.002 486.361C767.631 492.876 764.202 505.904 761.459 514.819C755.973 531.277 756.659 537.105 763.516 532.648C765.573 531.62 766.602 527.162 765.231 522.705C763.859 516.876 765.573 514.133 772.088 510.705C780.66 505.905 787.86 491.504 787.86 478.818C787.86 472.304 799.517 452.76 806.032 448.303C808.775 446.246 807.403 433.56 802.946 416.759C800.546 408.873 793.689 409.216 786.146 417.788ZM530.71 434.588V455.16L540.31 454.132C545.453 453.446 550.939 452.76 552.31 452.417C553.682 452.417 554.71 443.846 554.025 433.902L552.996 416.073L542.024 415.045L530.71 414.016V434.588ZM618.826 451.046C615.055 454.474 616.083 479.161 619.855 486.704C627.741 501.104 641.456 490.133 642.484 468.532L642.827 455.16L634.598 451.731C624.655 447.96 621.912 447.96 618.826 451.046ZM540.31 480.532C531.395 483.961 526.595 496.647 534.138 496.647C535.853 496.647 539.624 501.104 542.71 506.933C545.796 512.419 546.824 517.219 545.453 517.219C544.081 517.219 544.767 518.933 547.167 521.333C550.253 524.419 552.996 523.391 559.853 517.219C568.768 508.99 571.168 498.704 564.996 494.933C563.282 493.904 561.568 489.104 561.568 484.304C561.568 475.046 556.082 474.361 540.31 480.532ZM698.029 478.475C692.2 490.133 697.343 511.047 703.172 500.761C708.658 491.847 709.343 476.075 704.2 476.075C701.457 476.075 698.714 477.104 698.029 478.475ZM626.712 547.049C626.712 558.706 616.769 561.106 609.569 551.506L603.397 543.277L579.397 541.906L555.053 540.534L552.996 552.877C549.224 572.078 553.339 581.335 568.768 589.221C586.597 598.479 586.94 610.822 569.111 612.536C561.91 613.222 556.082 616.651 552.653 622.136L547.167 630.365L551.282 635.508C553.682 638.594 554.71 641.68 553.682 643.051C552.31 644.08 552.996 647.166 555.053 649.566C560.539 656.423 555.396 661.223 542.367 661.223C534.481 661.223 530.71 662.938 530.71 666.023C530.71 668.766 526.938 675.624 521.795 681.452L513.223 691.738L504.309 688.31C497.451 685.91 494.709 686.253 492.309 689.338C490.594 692.081 489.566 692.424 489.566 690.024C489.566 683.852 476.537 681.795 472.079 687.281C466.251 694.481 492.994 733.568 516.652 752.083C527.281 759.969 540.31 771.626 545.796 777.112C550.939 782.941 557.453 786.713 560.196 785.684C562.596 784.998 566.711 785.341 569.111 786.713C571.511 788.427 576.997 789.113 581.454 788.427C585.911 788.084 590.026 789.798 591.054 792.884L593.111 798.37L603.397 789.798C612.998 781.57 620.541 779.512 634.598 780.541C639.056 780.884 640.427 778.484 640.427 769.912C640.427 764.083 642.141 756.54 644.199 753.797L647.627 748.654L651.742 755.169C657.57 764.083 678.142 782.941 681.914 782.598C683.628 782.255 690.143 781.912 696.314 781.57C706.943 781.227 715.858 776.427 729.915 763.055C733.687 759.969 738.487 757.226 741.23 757.226C747.402 757.226 750.144 734.94 750.144 683.51V641.337L738.144 632.422C731.63 627.279 726.144 621.451 726.144 619.393C726.144 616.993 730.601 616.651 738.144 617.679C750.83 619.736 753.573 615.622 747.059 603.622C743.973 598.136 747.059 570.021 751.859 557.335C753.573 553.22 752.545 551.506 749.116 551.506C746.373 551.506 742.944 553.563 742.259 555.62C740.887 559.049 739.516 558.706 736.773 554.934L733.001 549.791L729.572 554.934C727.858 557.677 726.144 561.792 726.144 563.849C726.144 572.421 715.172 571.392 701.457 561.792C692.886 555.62 683.285 551.506 676.771 551.506C670.942 551.506 662.371 549.106 657.913 546.02C653.456 542.934 644.541 539.848 638.37 539.505L626.712 538.82V547.049ZM677.457 572.764C679.857 575.164 681.571 580.307 681.571 584.764C681.571 589.221 684.657 595.393 688.428 598.479C692.2 601.907 695.286 606.365 695.286 608.422C695.286 610.822 698.714 611.508 703.857 610.479C716.201 608.422 718.601 618.022 710.029 635.165C705.915 643.051 701.8 651.966 700.772 655.737L698.714 662.252L684.657 660.195L670.942 658.48L659.285 670.481C645.57 684.538 644.884 688.653 653.799 696.881C663.742 705.796 656.542 723.625 645.57 716.768C643.856 715.396 638.37 714.368 633.57 714.368H624.998L622.598 695.51C620.198 675.624 614.026 668.081 600.654 668.081C591.054 668.081 581.797 659.166 584.197 652.652C585.568 649.909 589.34 647.509 593.454 647.509H600.312L593.111 639.623C578.368 624.194 588.311 614.25 606.14 626.937L616.426 634.137V625.222C616.426 618.708 618.484 615.279 623.627 614.25L630.827 612.193L613.341 602.25C592.426 590.25 589.34 578.935 606.483 578.935C618.826 578.935 630.141 584.421 636.313 593.336C643.856 603.964 653.113 601.222 651.399 589.221C648.999 572.078 666.142 561.449 677.457 572.764ZM386.02 608.079C382.934 611.508 387.391 627.622 392.191 629.337C394.934 630.365 396.991 632.765 396.991 635.165C397.334 641.337 413.792 658.48 417.563 656.08C420.649 654.023 442.593 668.423 449.45 676.652C451.164 678.367 451.507 674.595 450.479 668.081C449.107 661.909 447.05 655.737 445.679 654.366C443.964 653.337 439.164 645.451 435.05 636.537C424.078 613.565 396.649 597.793 386.02 608.079ZM743.287 820.656C743.287 828.2 744.659 832.314 746.716 830.942C748.773 829.914 750.144 825.114 750.144 820.656C750.144 816.199 748.773 811.399 746.716 810.37C744.659 808.999 743.287 813.113 743.287 820.656ZM678.142 863.515C675.399 870.029 674.714 897.802 677.457 897.802C682.257 897.802 683.971 887.516 681.228 873.801C680.2 867.286 678.828 862.486 678.142 863.515Z" fill="#BF0000" stroke="#BF0000" stroke-width="2.3"/>
<path d="M587.94 68.5714V137.444L560.201 139.248C468.241 145.865 375.075 184.662 297.889 248.722C208.643 322.707 145.628 443.609 136.884 557.594L134.774 583.459H0V613.534H134.774L136.884 642.707C144.724 757.895 207.437 879.398 297.889 954.286C331.055 981.955 358.492 999.699 396.482 1018.05C451.055 1044.81 505.025 1059.85 560.201 1063.76L587.94 1065.56V1200H618.09V1065.56L644.623 1063.46C735.678 1056.84 828.543 1018.05 905.126 954.286C995.578 879.398 1058.29 757.895 1066.13 642.707L1068.24 613.534H1200V583.459H1068.24L1066.43 558.496C1062.51 504.662 1045.03 445.113 1016.98 390.075C970.553 299.549 899.698 230.376 806.533 184.962C752.563 158.496 698.894 143.459 644.623 139.549L618.09 137.444V0H587.94V68.5714ZM587.94 230.075V294.737H618.09V164.511L641.608 166.316C789.045 177.744 927.136 271.579 995.578 406.917C1018.79 453.233 1040.2 531.729 1040.2 570.526V583.459H907.538V613.534H1040.2V629.474C1040.2 671.278 1019.4 748.271 995.578 796.09C945.829 894.737 855.377 975.338 753.769 1011.73C720 1024.06 674.774 1034.29 644.623 1036.39L618.09 1038.5V905.263H587.94V1038.5L560.201 1036.39C513.467 1033.08 462.513 1019.25 413.367 996.391C327.437 956.692 251.156 882.406 207.437 796.09C183.618 748.271 162.814 671.278 162.814 629.474V613.534H295.477V583.459H162.814V570.526C162.814 531.729 184.221 453.233 207.437 406.917C253.568 316.09 331.055 242.105 422.714 202.105C470.653 181.353 530.653 166.316 570.754 165.714L587.94 165.414V230.075Z" fill="white"/>
</svg>
