<svg xmlns="http://www.w3.org/2000/svg" version="1.0" viewBox="0 0 500 500"><path fill="#FFF" d="M246 73.8v22.9l-9.2.6c-30.5 2.2-61.4 15.1-87 36.4-29.6 24.6-50.5 64.8-53.4 102.7l-.7 8.6H51v10h44.7l.7 9.7c2.6 38.3 23.4 78.7 53.4 103.6 11 9.2 20.1 15.1 32.7 21.2 18.1 8.9 36 13.9 54.3 15.2l9.2.6V450h10v-44.7l8.8-.7c30.2-2.2 61-15.1 86.4-36.3 30-24.9 50.8-65.3 53.4-103.6l.7-9.7H449v-10h-43.7l-.6-8.3c-1.3-17.9-7.1-37.7-16.4-56-15.4-30.1-38.9-53.1-69.8-68.2-17.9-8.8-35.7-13.8-53.7-15.1l-8.8-.7V51h-10v22.8zm0 53.7V149h10v-43.3l7.8.6c48.9 3.8 94.7 35 117.4 80 7.7 15.4 14.8 41.5 14.8 54.4v4.3h-44v10h44v5.3c0 13.9-6.9 39.5-14.8 55.4-16.5 32.8-46.5 59.6-80.2 71.7-11.2 4.1-26.2 7.5-36.2 8.2l-8.8.7V352h-10v44.3l-9.2-.7c-15.5-1.1-32.4-5.7-48.7-13.3-28.5-13.2-53.8-37.9-68.3-66.6-7.9-15.9-14.8-41.5-14.8-55.4V255h44v-10h-44v-4.3c0-12.9 7.1-39 14.8-54.4 15.3-30.2 41-54.8 71.4-68.1 15.9-6.9 35.8-11.9 49.1-12.1l5.7-.1v21.5z"/><path fill-opacity=".1" d="M243.8 106.7c.7.3 1.6.2 1.9-.1.4-.3-.2-.6-1.3-.5-1.1 0-1.4.3-.6.6zM105.1 256.6c0 1.1.3 1.4.6.6.3-.7.2-1.6-.1-1.9-.3-.4-.6.2-.5 1.3zm290 0c0 1.1.3 1.4.6.6.3-.7.2-1.6-.1-1.9-.3-.4-.6.2-.5 1.3z"/><path fill="#404040" fill-opacity=".4" d="M142.9 138.7c-1.3 1.6-1.2 1.7.4.4.9-.7 1.7-1.5 1.7-1.7 0-.8-.8-.3-2.1 1.3zm213.1-1.3c0 .2.8 1 1.8 1.7 1.5 1.3 1.6 1.2.3-.4s-2.1-2.1-2.1-1.3zm-219.1 7.3c-1.3 1.6-1.2 1.7.4.4.9-.7 1.7-1.5 1.7-1.7 0-.8-.8-.3-2.1 1.3zm225.1-1.3c0 .2.8 1 1.8 1.7 1.5 1.3 1.6 1.2.3-.4s-2.1-2.1-2.1-1.3zm-220 219c0 .2.8 1 1.8 1.7 1.5 1.3 1.6 1.2.3-.4s-2.1-2.1-2.1-1.3zm214.9 1.3c-1.3 1.6-1.2 1.7.4.4 1.6-1.3 2.1-2.1 1.3-2.1-.2 0-1 .8-1.7 1.7z"/><path fill="gray" fill-opacity=".5" d="M139.9 141.7c-1.3 1.6-1.2 1.7.4.4 1.6-1.3 2.1-2.1 1.3-2.1-.2 0-1 .8-1.7 1.7zm219.1-1.3c0 .2.8 1 1.8 1.7 1.5 1.3 1.6 1.2.3-.4s-2.1-2.1-2.1-1.3zm-212.1 8.3c-1.3 1.6-1.2 1.7.4.4 1.6-1.3 2.1-2.1 1.3-2.1-.2 0-1 .8-1.7 1.7zm205.1-1.3c0 .2.8 1 1.8 1.7 1.5 1.3 1.6 1.2.3-.4s-2.1-2.1-2.1-1.3zm1.4 205.8-1.9 2.3 2.3-1.9c2.1-1.8 2.7-2.6 1.9-2.6-.2 0-1.2 1-2.3 2.2zm-207.4-.8c0 .2.8 1 1.8 1.7 1.5 1.3 1.6 1.2.3-.4s-2.1-2.1-2.1-1.3zm214.9 7.3c-1.3 1.6-1.2 1.7.4.4.9-.7 1.7-1.5 1.7-1.7 0-.8-.8-.3-2.1 1.3zm-221.9-.3c0 .2.8 1 1.8 1.7 1.5 1.3 1.6 1.2.3-.4s-2.1-2.1-2.1-1.3z"/><path fill="gray" fill-opacity=".6" d="M149.9 145.7c-1.3 1.6-1.2 1.7.4.4.9-.7 1.7-1.5 1.7-1.7 0-.8-.8-.3-2.1 1.3zm199.1-1.3c0 .2.8 1 1.8 1.7 1.5 1.3 1.6 1.2.3-.4s-2.1-2.1-2.1-1.3zm-205.1 7.3c-1.3 1.6-1.2 1.7.4.4.9-.7 1.7-1.5 1.7-1.7 0-.8-.8-.3-2.1 1.3zm211.1-1.3c0 .2.8 1 1.8 1.7 1.5 1.3 1.6 1.2.3-.4s-2.1-2.1-2.1-1.3zm-212 199c0 .2.8 1 1.8 1.7 1.5 1.3 1.6 1.2.3-.4s-2.1-2.1-2.1-1.3z"/><path fill="#BFBFBF" fill-opacity=".8" d="M243.8 96.7c.7.3 1.6.2 1.9-.1.4-.3-.2-.6-1.3-.5-1.1 0-1.4.3-.6.6zM95.1 257.6c0 1.1.3 1.4.6.6.3-.7.2-1.6-.1-1.9-.3-.4-.6.2-.5 1.3zm310 0c0 1.1.3 1.4.6.6.3-.7.2-1.6-.1-1.9-.3-.4-.6.2-.5 1.3z"/><path fill="#BF0000" stroke="#BF0000" stroke-width="5.3" d="M203.5 190.3c-32 10.7-40.3 46.9-18 79.2 10.5 15.1 31 33.5 54.8 49l8.7 5.7 2.9-1.9c1.7-1 5.2-3.1 7.8-4.7 4.6-2.7 17.4-12.3 27.4-20.4 30.6-24.8 44-54.4 36.2-79.7-8.6-27.8-45.7-37.3-65.5-16.8-1.8 1.9-4.6 4.4-6.1 5.5l-2.8 2-5.9-5.7c-11.3-10.7-28.2-15.9-39.5-12.2z"/></svg>