<svg width="1200" height="1200" viewBox="0 0 1200 1200" fill="none" xmlns="http://www.w3.org/2000/svg">
<path d="M497.013 420.806H394.616L415.858 471.46L437.1 522.113L402.241 714.924L453.44 757.407L541.675 794.444L602.133 836.928L664.224 794.444L750.825 757.407L792.764 714.924L770.433 522.113L808.015 431.699L681.109 412.092L596.141 363.617L497.013 420.806Z" fill="#3A752B" stroke="white"/>
<path d="M587.792 351.373C583.975 352.009 572.208 360.603 561.713 369.833C547.401 382.564 536.906 388.93 521.004 394.023L499.378 401.025L453.899 401.661H420.76C411.217 402.615 406.455 403.745 399.832 408.664C378.842 423.941 374.708 453.541 390.927 474.866C419.233 512.105 422.731 535.339 407.465 584.036C368.983 705.938 389.019 760.364 484.112 791.874C522.594 804.287 547.401 816.7 561.395 829.749C590.336 856.803 610.055 856.803 639.95 829.431C656.17 814.472 669.209 807.788 707.374 795.057C808.509 760.682 831.726 708.166 795.47 595.813C776.388 535.976 777.342 522.29 803.739 482.505C836.496 433.489 814.552 398.16 753.807 402.298C702.921 405.481 665.075 394.977 638.36 370.152C618.005 351.055 608.146 347.554 587.792 351.373ZM618.96 392.431C644.084 418.849 685.747 431.898 744.584 431.898C796.106 431.898 799.286 435.399 777.66 468.5C749.672 511.468 746.492 537.886 763.03 590.402C778.296 638.781 780.84 651.194 780.84 677.929V701.8L771.935 718.669C760.168 741.267 742.994 752.725 697.832 767.366C653.307 782.007 642.176 787.736 621.822 805.878C602.104 823.384 597.969 823.702 580.159 807.47C561.395 790.601 538.178 778.824 496.197 764.502C413.508 736.811 401.741 703.71 436.089 592.948C452.626 539.477 449.764 509.559 423.367 470.41C409.692 450.358 408.101 445.584 411.918 437.945L415.416 431.898H453.263C513.053 431.898 553.762 419.485 578.887 393.704C594.789 377.472 604.012 377.154 618.96 392.431Z" fill="#BB7D06"/>
<path d="M600.5 499L623.064 568.444L696.081 568.444L637.009 611.362L659.572 680.806L600.5 637.888L541.428 680.806L563.991 611.362L504.919 568.444L577.936 568.444L600.5 499Z" fill="#BB7D06"/>
<circle cx="601" cy="513" r="14" fill="#BB7D06"/>
<circle cx="683" cy="573" r="14" fill="#BB7D06"/>
<circle cx="516" cy="573" r="14" fill="#BB7D06"/>
<circle cx="549" cy="670" r="14" fill="#BB7D06"/>
<circle cx="652" cy="670" r="14" fill="#BB7D06"/>
<path d="M587.94 68.5714V137.444L560.201 139.248C468.241 145.865 375.075 184.662 297.889 248.722C208.643 322.707 145.628 443.609 136.884 557.594L134.774 583.459H0V613.534H134.774L136.884 642.707C144.724 757.895 207.437 879.398 297.889 954.286C331.055 981.955 358.492 999.699 396.482 1018.05C451.055 1044.81 505.025 1059.85 560.201 1063.76L587.94 1065.56V1200H618.09V1065.56L644.623 1063.46C735.678 1056.84 828.543 1018.05 905.126 954.286C995.578 879.398 1058.29 757.895 1066.13 642.707L1068.24 613.534H1200V583.459H1068.24L1066.43 558.496C1062.51 504.662 1045.03 445.113 1016.98 390.075C970.553 299.549 899.698 230.376 806.533 184.962C752.563 158.496 698.894 143.459 644.623 139.549L618.09 137.444V0H587.94V68.5714ZM587.94 230.075V294.737H618.09V164.511L641.608 166.316C789.045 177.744 927.136 271.579 995.578 406.917C1018.79 453.233 1040.2 531.729 1040.2 570.526V583.459H907.538V613.534H1040.2V629.474C1040.2 671.278 1019.4 748.271 995.578 796.09C945.829 894.737 855.377 975.338 753.769 1011.73C720 1024.06 674.774 1034.29 644.623 1036.39L618.09 1038.5V905.263H587.94V1038.5L560.201 1036.39C513.467 1033.08 462.513 1019.25 413.367 996.391C327.437 956.692 251.156 882.406 207.437 796.09C183.618 748.271 162.814 671.278 162.814 629.474V613.534H295.477V583.459H162.814V570.526C162.814 531.729 184.221 453.233 207.437 406.917C253.568 316.09 331.055 242.105 422.714 202.105C470.653 181.353 530.653 166.316 570.754 165.714L587.94 165.414V230.075Z" fill="white"/>
</svg>
