<?xml version="1.0" standalone="no"?>
<!DOCTYPE svg PUBLIC "-//W3C//DTD SVG 20010904//EN"
 "http://www.w3.org/TR/2001/REC-SVG-20010904/DTD/svg10.dtd">
<svg version="1.0" xmlns="http://www.w3.org/2000/svg"
 width="700.000000pt" height="700.000000pt" viewBox="0 0 700.000000 700.000000"
 preserveAspectRatio="xMidYMid meet">
<metadata>
Created by potrace 1.14, written by Peter Selinger 2001-2017
</metadata>
<g transform="translate(0.000000,700.000000) scale(0.100000,-0.100000)"
fill="#000000" stroke="none">
<path d="M1259 6368 c0 -29 0 -1114 -1 -2412 0 -1974 2 -2360 13 -2370 8 -7
75 -64 149 -127 74 -63 241 -205 370 -315 376 -320 551 -468 617 -524 l63 -52
2 1999 3 1998 99 -140 c55 -77 112 -158 128 -180 16 -22 84 -119 152 -215 280
-401 667 -945 674 -947 6 -2 145 190 373 516 25 36 157 224 294 416 136 193
277 392 313 443 36 50 68 92 71 92 3 0 6 -894 5 -1987 0 -1094 1 -1994 4
-2000 2 -8 21 3 50 30 63 58 68 63 158 142 43 38 81 72 84 75 3 3 104 93 225
200 121 107 222 197 225 200 3 3 43 39 90 80 47 41 101 89 120 107 52 46 90
80 179 158 l80 70 1 2398 0 2397 -667 0 -668 -1 -245 -345 c-135 -191 -262
-369 -282 -398 -21 -28 -50 -69 -65 -91 -15 -22 -89 -125 -163 -228 -74 -104
-145 -204 -158 -223 -12 -19 -26 -34 -30 -34 -4 0 -19 17 -32 38 -22 32 -256
367 -444 633 -34 47 -105 148 -159 225 -54 76 -143 203 -198 282 l-100 142
-665 0 -664 0 -1 -52z"/>
</g>
</svg>
