<?xml version="1.0" standalone="no"?>
<!DOCTYPE svg PUBLIC "-//W3C//DTD SVG 20010904//EN"
 "http://www.w3.org/TR/2001/REC-SVG-20010904/DTD/svg10.dtd">
<svg version="1.0" xmlns="http://www.w3.org/2000/svg"
 width="335.000000pt" height="335.000000pt" viewBox="0 0 335.000000 335.000000"
 preserveAspectRatio="xMidYMid meet">
<metadata>
Created by potrace 1.14, written by Peter Selinger 2001-2017
</metadata>
<g transform="translate(0.000000,335.000000) scale(0.100000,-0.100000)"
fill="#000000" stroke="none">
<path d="M0 1675 l0 -1675 1675 0 1675 0 0 1675 0 1675 -1675 0 -1675 0 0
-1675z m1641 3 c4 4 109 211 234 461 124 249 228 452 230 450 2 -2 105 -310
230 -684 124 -374 228 -685 231 -691 3 -6 -41 -37 -98 -68 -98 -55 -192 -121
-250 -174 -21 -19 -29 -22 -32 -11 -3 8 -37 142 -76 299 -39 157 -74 294 -79
305 -7 16 -46 -56 -201 -365 l-193 -385 -191 383 c-105 210 -194 382 -197 382
-3 0 -36 -125 -74 -277 -83 -339 -84 -343 -94 -343 -4 0 -38 24 -75 54 -37 30
-119 84 -182 122 -63 37 -114 70 -114 73 0 6 445 1344 456 1371 4 9 97 -167
237 -447 127 -255 234 -460 238 -455z"/>
</g>
</svg>
