<svg width="336" height="336" xmlns="http://www.w3.org/2000/svg" xmlns:xlink="http://www.w3.org/1999/xlink"><defs><path id="a" d="M0 0h336v336H0z"/></defs><g fill="none" fill-rule="evenodd"><mask id="b" fill="#fff"><use xlink:href="#a"/></mask><use fill="#B6B6B6" xlink:href="#a"/><path d="M0 285.85c3.638-15.931 39.07-24.405 57.877-32.51 18.815-8.11 40.11-16.639 50.299-19.684 5.438-1.625 10.967-17.744 12.682-21.372 1.562-3.3 7.763-2.262 7.763-3.821 0-5.526-7.763-9.88-9.409-13.63-.987-2.25-.987-15.785-2.282-28.502-12.952 1.669-14.755-16.076-15.753-20.509-4.27-18.957-.785-22.976 2.8-30.866-2.8-10.687-5.273-41.742.06-55.774 10.471-27.558 56.711-33.636 65.5-33.636 27.944 0 38.862 15.099 38.862 15.099 6.746.632 10.718 1.544 11.917 2.737 5.392 5.365 9.863 15.9 9.863 25.872 0 23.353-3.246 34.24-2.017 44.488 4.358 7.122 7.036 10.883 7.036 21.346 0 28.572-12.688 28.739-17.194 34.5-2.333 2.983-2.947 22.68-4.647 24.573-9.924 11.042-7.893 15.471-7.893 15.471 5.916.04 9.598 1.604 11.046 4.694 3.184 6.79 7.315 19.654 14.564 20.7 13.43 1.937 45.682 19.988 90.224 34.893 4.374 1.463 9.497 6.913 15.37 16.348 39.153 62.145-19.982 93.218-177.405 93.218-236.135 0-169.703-47.91-159.263-93.634z" fill="#737373" mask="url(#b)"/></g></svg>