<svg width="3833" height="3649" viewBox="0 0 3833 3649" fill="none" xmlns="http://www.w3.org/2000/svg">
<path d="M2095.5 3233.5L1626 1464L983.5 1423L346 1764.5L810 3559.5C1274.5 3636 1697.5 3529 2095.5 3233.5Z" fill="url(#paint0_linear_104_60)" stroke="#B1B1B2" stroke-width="50"/>
<path d="M555.5 2115L1610 1841L1949.5 3114.5C1764.45 3229.74 1654.74 3279.51 1449.5 3344.5C1219.77 3401.51 1096.74 3410.18 887.5 3384.5L555.5 2115Z" fill="url(#paint1_linear_104_60)"/>
<path d="M1499 2352.5C1519.03 2349.37 1531 2335 1531 2300C1531 2265 1499.5 2162.5 1499.5 2162.5L1362.5 1625L1252 1653.5L1352.71 2044L1398.21 2201.5L1444.5 2329C1464.5 2351 1467.5 2352.5 1499 2352.5Z" fill="white"/>
<ellipse cx="59" cy="59.5" rx="59" ry="59.5" transform="matrix(-1 0 0 1 861.5 2234)" fill="#F6E0BD"/>
<ellipse cx="71.5" cy="71" rx="71.5" ry="71" transform="matrix(-1 0 0 1 1114 2854)" fill="#F6E0BD"/>
<ellipse cx="106" cy="106.5" rx="106" ry="106.5" transform="matrix(-1 0 0 1 1183 2396)" fill="#F6E0BD"/>
<path d="M494 2356L447.5 2157L169.5 2226.5C54.7885 2286.4 26.6844 2341.09 26 2467.5L250 3282C309.606 3412.58 366.716 3442.45 494 3431L753.5 3361.5L702.5 3157.5L447.5 3222.5L239 2421L494 2356Z" fill="white" stroke="#B1B1B2" stroke-width="50"/>
<path d="M1029.5 1597L1087.5 1524L1115.5 1534L1149.5 1555L1175.5 1585.5L1203.5 1625L1243.5 1680.5L1297.5 1759L1344.5 1838.5L1388 1885.5L1429 1919.5L1459.5 1934H1491.5L1526.5 1927L1562.5 1903.5L1605 1862.5L1636.5 1814L1665 1759L1690 1689.5L1710 1625L1722.5 1546.5L1729.5 1488.5L1733.5 1427L1738 1350L1733.5 1285.5L1722.5 1227L1689.5 1170.5L1642.5 1118L1585 1081L1523.5 1056L1437 1036L1356.5 1028H1289L1230 1031.5H1191L1159.5 1036L1122.5 1042L1078.5 1052L991 1070.5L928 1092.5L872 1113L833.5 1132L785.5 1158.5L746.5 1186L718 1210.5L688.5 1242L671 1271L663 1309.5H628H591L540.5 1316.5L493.5 1327.5L431 1348L362.5 1381L309 1414L255.5 1453L219.5 1484L193.5 1519L170 1550.5L146 1592L139.5 1617L136 1641.5V1666.5L139.5 1692.5L149 1717.5L163 1742.5L183 1769L216.5 1794.5L262 1819.5L316 1841L358.5 1854L398 1858L436 1862L482.5 1865.5L522.5 1862L558 1854L582.5 1841L600 1816.5L608 1789L614.5 1762.5L628 1746L650 1739L679.5 1731.5H705L774 1724.5L865 1706L952.5 1662.5L1029.5 1597Z" fill="url(#paint2_linear_104_60)" stroke="#B1B1B2" stroke-width="50"/>
<path d="M1738 3273.5L2207.5 1504L2850 1463L3487.5 1804.5L3023.5 3599.5C2559 3676 2136 3569 1738 3273.5Z" fill="url(#paint3_linear_104_60)" stroke="#B1B1B2" stroke-width="50"/>
<path d="M3278 2155L2223.5 1881L1884 3154.5C2069.05 3269.74 2178.76 3319.51 2384 3384.5C2613.73 3441.51 2736.76 3450.18 2946 3424.5L3278 2155Z" fill="url(#paint4_linear_104_60)"/>
<path d="M3310 1876.84H3187.5L3157 1883.34L3132 1904.34L3105 1929.34L3075.5 1960.34L3046 2003.34L3015 2055.84L2992.5 2094.84L2972.5 2123.84L2958.5 2151.34L2941 2172.84L2921.5 2186.34L2904.5 2196.84H2890.5L2875 2186.34L2858 2162.34L2844.5 2134.34L2830 2094.84V2050.34V2003.34L2835 1947.84L2839 1896.34L2844.5 1847.84V1807.34V1771.84L2835 1751.84L2816.5 1726.84L2790.5 1706.84L2756 1682.34L2704 1656.84L2647 1630.34L2561 1609.84L2495.5 1595.84L2449 1587.84L2405.5 1582.84L2392 1601.84L2370.5 1624.84L2336 1630.34L2278.5 1620.34L2212 1582.84L2150 1523.34L2104.5 1474.84L2080 1430.34L2073 1367.34L2080 1317.84L2104.5 1269.84L2150 1226.84L2204.5 1195.84L2265 1180.34L2361 1171.34C2406.22 1166.08 2490.5 1171.34 2490.5 1171.34L2580.5 1195.84L2680 1233.34L2737.5 1275.84L2772 1233.34L2852 1213.34H2956.5H3048.5L3146 1233.34L3283 1275.84L3453 1357.84L3524 1412.84L3595.5 1477.84L3649.5 1537.34L3681.5 1617.34V1704.34L3667 1790.34L3595.5 1846.34L3524 1876.84H3453H3310Z" fill="url(#paint5_linear_104_60)" stroke="#B1B1B2" stroke-width="50"/>
<path d="M2235 2637.5C2214.97 2634.37 2203 2620 2203 2585C2203 2550 2234.5 2447.5 2234.5 2447.5L2371.5 1910L2482 1938.5L2381.29 2329L2335.79 2486.5L2289.5 2614C2269.5 2636 2266.5 2637.5 2235 2637.5Z" fill="white"/>
<ellipse cx="3031" cy="2333.5" rx="59" ry="59.5" fill="#F6E0BD"/>
<ellipse cx="2684.5" cy="3071" rx="71.5" ry="71" fill="#F6E0BD"/>
<ellipse cx="2588" cy="2716.5" rx="106" ry="106.5" fill="#F6E0BD"/>
<path d="M3339.5 2396L3386 2197L3664 2266.5C3778.71 2326.4 3806.82 2381.09 3807.5 2507.5L3583.5 3322C3523.89 3452.58 3466.78 3482.45 3339.5 3471L3080 3401.5L3131 3197.5L3386 3262.5L3594.5 2461L3339.5 2396Z" fill="white" stroke="#B1B1B2" stroke-width="50"/>
<circle cx="346" cy="1054" r="90" fill="#FFF8E5" stroke="#B1B1B2" stroke-width="50"/>
<circle cx="3127" cy="1028" r="71" fill="#FFF8E5" stroke="#B1B1B2" stroke-width="50"/>
<circle cx="1215.5" cy="1030.5" r="113.5" fill="#FFF8E5" stroke="#B1B1B2" stroke-width="50"/>
<circle cx="2877.5" cy="800.5" r="113.5" fill="#FFF8E5" stroke="#B1B1B2" stroke-width="50"/>
<path d="M1319.5 365L1200 466.5L1845.5 1169L1319.5 365Z" fill="#F1C51D"/>
<path d="M1963.97 72.0295L1807.44 80.9894L1899.06 1030.61L1963.97 72.0295Z" fill="#F1C51D"/>
<path d="M2672.79 586.369L2555.85 481.93L1948.59 1217.73L2672.79 586.369Z" fill="#F1C51D"/>
<defs>
<linearGradient id="paint0_linear_104_60" x1="922.5" y1="1423" x2="1531" y2="3535" gradientUnits="userSpaceOnUse">
<stop stop-color="white"/>
<stop offset="1" stop-color="white"/>
</linearGradient>
<linearGradient id="paint1_linear_104_60" x1="1252.5" y1="1841" x2="1252.5" y2="3398.24" gradientUnits="userSpaceOnUse">
<stop stop-color="#ED8A2D"/>
<stop offset="0.67489" stop-color="#EFCE20"/>
</linearGradient>
<linearGradient id="paint2_linear_104_60" x1="2866" y1="59.4994" x2="3147.5" y2="965.999" gradientUnits="userSpaceOnUse">
<stop stop-color="white"/>
<stop offset="1" stop-color="#FDF2DB"/>
</linearGradient>
<linearGradient id="paint3_linear_104_60" x1="2911" y1="1463" x2="2302.5" y2="3575" gradientUnits="userSpaceOnUse">
<stop stop-color="white"/>
<stop offset="1" stop-color="white"/>
</linearGradient>
<linearGradient id="paint4_linear_104_60" x1="2581" y1="1881" x2="2581" y2="3438.24" gradientUnits="userSpaceOnUse">
<stop stop-color="#ED8A2D"/>
<stop offset="0.67489" stop-color="#EFCE20"/>
</linearGradient>
<linearGradient id="paint5_linear_104_60" x1="2800" y1="1171.84" x2="2877.25" y2="2196.84" gradientUnits="userSpaceOnUse">
<stop stop-color="white"/>
<stop offset="1" stop-color="#FCF1D9"/>
</linearGradient>
</defs>
</svg>
